<svg width="200" height="200" viewBox="0 0 200 200" fill="none" xmlns="http://www.w3.org/2000/svg">
<path d="M197.66 61.58C197.66 59.94 197.47 58.23 197 56.67C194.98 49.98 189.77 46.59 181.59 46.59C133.27 46.57 84.95 46.57 36.63 46.59C25.16 46.59 19.49 50.56 15.57 61.27C11.79 71.59 7.73001 81.82 4.37001 92.27C2.71001 97.43 2.09001 102.97 1.48001 108.39C1.04001 112.34 1.36001 116.38 1.40001 120.38C1.49001 128.42 4.89001 131.79 13.08 131.96C15.71 132.01 18.34 131.96 20.94 131.96C21.67 134.26 22.15 136.03 22.78 137.72C26.27 147.02 35.78 152.59 45.48 151.07C55.3 149.53 62.58 141.58 63.3 131.63C64 122.08 57.83 113.11 48.52 110.32C42.64 108.56 36.98 109.17 31.68 112.33C29.75 113.48 28.42 114.88 31.02 116.73C41.41 113.11 42.67 112.87 46.97 114.18C52.64 115.9 56.41 119.67 58.33 125.22C61.33 133.91 56.34 143.67 47.43 146.35C42.99 147.68 38.52 147.41 34.34 145.12C27.83 141.56 25.64 135.45 25.01 128.23C23.29 128.06 21.85 127.83 20.41 127.8C17.75 127.74 15.08 127.84 12.41 127.77C7.46001 127.64 5.59001 125.74 5.52001 120.7C5.45001 115.87 5.42001 111.03 5.57001 106.21C5.63001 104.1 6.16001 102.01 6.56001 99.4C10.19 99.4 13.5 99.26 16.79 99.43C21.73 99.69 25.98 98.35 29.53 94.83C30.59 93.78 31.92 93 32.98 91.94C36.14 88.81 39.88 87.76 44.31 87.76C92.13 87.85 139.95 87.82 187.76 87.84C189.52 87.84 191.28 88.09 193.51 88.26C193.55 101.03 193.66 113.26 193.45 125.68C187.16 127.39 181.6 126.51 176.09 126.52C175.31 124.61 174.77 123.04 174.05 121.55C171.22 115.66 166.67 111.73 160.33 110.09C154.91 108.68 150.38 110.9 148.44 115.7C146.45 120.6 147.89 125.58 152.85 128.01C156.35 129.72 160.37 130.48 164.23 131.3C166.57 131.8 169.05 131.62 171.49 131.75C170.38 140.33 164.6 146.21 156.98 146.94C153.05 147.32 149.34 146.69 145.97 144.52C140.14 140.77 137.96 135.01 137.91 128.08C135.61 127.96 133.98 127.79 132.36 127.79C112.03 127.77 91.71 127.78 71.38 127.79C70.22 127.79 68.95 127.65 67.93 128.06C67.13 128.39 66.64 129.47 65.22 131.15C68.45 131.5 70.5 131.91 72.55 131.92C91.04 131.97 109.54 131.94 128.03 131.96C129.98 131.96 131.92 132.12 133.68 132.2C137.61 145.25 144.39 151.22 154.85 151.26C165.59 151.3 171.98 145.46 176.7 130.77C180.71 130.77 184.99 130.88 189.26 130.74C195.32 130.55 197.67 128.15 197.68 122.06C197.72 101.9 197.71 81.74 197.67 61.58H197.66ZM154.62 124.34C152.27 122.96 151.11 120.78 152.03 117.99C152.9 115.38 154.69 113.86 157.58 113.87C163.79 113.88 170.42 120.44 170.78 127.41C165.05 128.06 159.62 127.28 154.62 124.34ZM54.94 83.39C51.82 83.48 48.71 83.81 45.65 83.59C39.26 83.13 34.04 85.19 29.28 89.47C22 96.02 18.43 96.76 7.97001 94.93C8.33001 93.68 8.63001 92.43 9.06001 91.24C12.57 81.53 16.08 71.82 19.63 62.13C22.58 54.09 27.26 50.78 35.8 50.7C40.46 50.65 45.13 50.66 49.79 50.7C51.4 50.72 53.02 50.93 54.94 51.07V83.38V83.39ZM101.11 83.29H59.84V51.37C63.6 50.13 96.36 50.01 101.11 51.26V83.29ZM147.14 83.26H105.9V50.79H147.14V83.26ZM193.53 83.27H152V50.61C162.92 50.61 173.21 50.31 183.48 50.72C189.96 50.98 193.37 55.03 193.5 61.49C193.64 68.61 193.53 75.73 193.53 83.28V83.27Z" fill="#29D7DE"/>
<path d="M42.37 140.04C47.73 140.04 52.21 135.46 52.07 130.1C51.93 124.83 47.73 120.76 42.4 120.72C36.77 120.69 32.8 124.79 32.88 130.56C32.96 135.94 37.06 140.02 42.37 140.03V140.04ZM42.72 124.89C45.61 125.08 47.98 127.61 47.92 130.46C47.86 133.45 45.03 135.97 41.97 135.78C39.19 135.6 36.63 132.89 36.73 130.21C36.84 127.22 39.69 124.69 42.73 124.89H42.72Z" fill="#29D7DE"/>
</svg>
