<svg width="200" height="200" viewBox="0 0 200 200" fill="none" xmlns="http://www.w3.org/2000/svg">
<path d="M194.73 114.34C192.35 112.5 191.94 110.58 192.09 108.04C193.03 92 190.64 76.27 187.37 60.66C186.94 58.59 185.96 56.47 184.68 54.79C182.47 51.87 179.15 51.37 175.61 51.38C146.21 51.44 116.81 51.5 87.41 51.39C79.38 51.36 72.44 53.85 66.3 58.87C62.49 61.98 58.63 65.04 54.89 68.24C45.41 76.34 35.78 84.16 23.8 88.39C22.58 88.82 21.47 89.54 20.24 89.93C10.72 92.99 6.42003 99.39 7.59003 109.39C7.83003 111.39 7.48003 112.97 5.47003 114.32C2.65003 116.22 1.81003 121.35 3.17003 125C4.26003 127.9 6.67003 129.35 10.64 129.4C13.6 129.44 16.56 129.4 19.56 129.4C20.12 130.89 20.54 132.1 21.03 133.28C24.72 142.15 34.03 147.56 43.2 146.15C54.16 144.46 61.81 135.25 61.29 124.38C60.77 113.55 52.2 105.03 41.14 104.53C35.75 104.28 30.94 106.06 26.84 109.59C25.8 110.48 25.01 111.58 26.23 112.9C27.29 114.06 28.33 113.42 29.32 112.7C30.05 112.17 30.75 111.59 31.52 111.11C38.32 106.83 46.76 107.86 52.52 113.64C57.94 119.08 58.89 127.91 54.75 134.4C50.43 141.16 42.17 144.06 34.73 141.31C29.12 139.23 25.54 135.23 24.01 129.42C23.3167 126.787 21.57 125.46 18.77 125.44C16.18 125.42 13.59 125.42 11 125.43C9.08003 125.43 7.36003 125.2 6.83003 122.89C6.16003 119.99 6.88003 117.87 9.39003 116.9C11.21 116.19 11.66 115.03 11.63 113.32C11.59 110.99 11.75 108.65 11.6 106.33C11.22 100.64 13.84 97.11 18.99 94.9C25.53 92.1 31.99 89.08 38.35 85.91C40.62 84.78 42.78 84.08 45.33 84.1C58.54 84.18 71.75 84.15 84.96 84.12C88.57 84.12 88.97 83.69 89.36 80.22C90.07 73.92 90.77 67.61 91.47 61.31C91.88 57.6 91.35 57.01 87.55 56.96C84.89 56.92 82.22 56.96 79.56 56.96C79.54 56.65 79.52 56.33 79.5 56.02C82.14 55.81 84.78 55.43 87.42 55.43C116.82 55.39 146.22 55.41 175.62 55.43C180.87 55.43 182.8 57.15 183.79 62.27C186.81 77.94 189.14 93.67 188.14 109.7C188.09 110.47 188.19 111.25 188.16 112.03C188.07 114.25 188.33 115.97 191.05 116.72C193.58 117.42 193.23 119.94 193.11 122C193 123.76 191.98 125.07 190.23 125.12C185.61 125.26 180.99 125.17 176.23 125.17C175.91 123.51 175.71 122.25 175.44 121C173.56 112.39 165.47 105.34 157.12 105C151.85 104.79 147.7 107.68 146.26 112.58C144.82 117.5 146.68 122.38 151.27 124.83C153.76 126.15 156.45 127.27 159.19 127.89C163.07 128.78 167.07 129.14 171.29 129.76C169.45 137.49 163.12 142.47 155.24 142.56C147.4 142.65 140.93 137.63 138.77 129.77C137.69 125.83 137.69 125.82 133.59 125.82C111.96 125.82 90.33 125.82 68.7 125.83C67.8 125.83 66.83 125.76 66.01 126.03C65.38 126.24 64.45 127.01 64.5 127.44C64.58 128.17 65.22 129.27 65.82 129.42C67.3 129.79 68.89 129.79 70.43 129.8C90.38 129.82 110.32 129.8 130.27 129.82C134.26 129.82 134.26 129.85 135.78 133.54C139.08 141.59 146.84 146.66 155.64 146.53C164.2 146.4 171.67 141.11 174.71 133.02C175.16 131.83 175.6 130.65 176.13 129.21C180.64 129.21 185.02 129.25 189.41 129.2C192.63 129.16 195.46 128.04 196.48 124.79C197.63 121.13 198.19 117 194.76 114.36L194.73 114.34ZM87.44 60.88C86.72 67.51 86.07 73.53 85.39 79.85H47.62C48.45 78.97 49.03 78.2 49.75 77.6C55.74 72.66 61.78 67.79 67.74 62.82C69.31 61.51 70.92 60.8 73.01 60.84C77.64 60.94 82.27 60.87 87.44 60.87V60.88ZM171.53 125.26C164.73 125.65 158.26 124.59 152.43 120.83C149.99 119.26 149.25 116.41 150.1 113.62C150.94 110.85 153.17 109.12 156.1 108.97C164.07 108.56 172.07 116.78 171.53 125.25V125.26Z" fill="#29D7DE"/>
<path d="M132.36 84.84C136.56 84.8 136.87 84.51 136.74 80.41C136.54 73.81 136.27 67.21 135.98 60.62C135.83 57.26 135.51 56.93 132 56.92C120.6 56.88 109.21 56.88 97.8099 56.92C94.4499 56.93 93.9599 57.4 93.9199 60.73C93.8499 67.33 93.8699 73.94 93.9199 80.54C93.9399 84.34 94.3499 84.77 98.1699 84.82C103.87 84.89 109.57 84.84 115.26 84.84C120.96 84.85 126.66 84.89 132.35 84.84H132.36ZM98.2299 80.67V61.19H131.97C132.26 67.49 132.55 73.85 132.87 80.67H98.2299Z" fill="#29D7DE"/>
<path d="M49.7299 125.77C49.7899 120.44 45.5799 116.12 40.2299 116.05C34.9499 115.98 30.5799 120.28 30.5399 125.59C30.4999 130.85 34.8699 135.34 40.0699 135.37C45.3499 135.41 49.6699 131.11 49.7299 125.76V125.77ZM34.5299 125.74C34.5099 122.64 37.1199 120.02 40.1999 120.06C43.3299 120.1 45.8199 122.69 45.7399 125.82C45.6599 128.91 42.9199 131.52 39.9199 131.38C37.0999 131.25 34.5499 128.58 34.5199 125.74H34.5299Z" fill="#29D7DE"/>
</svg>
