<svg width="200" height="200" viewBox="0 0 200 200" fill="none" xmlns="http://www.w3.org/2000/svg">
<path d="M194.12 96.01C193.94 93.69 192.73 92.14 190.82 90.79C181.27 84.05 171.22 78.24 160.39 73.8C143.89 67.04 126.8 63.78 108.92 64.05C99.43 64.19 91.66 67.24 85.44 74.36C83.61 76.46 81.5 78.34 79.88 80.59C78.36 82.7 76.54 83.25 74.09 83.31C60.04 83.64 46.01 84.24 32.07 86.23C24.24 87.35 16.68 89.28 9.80001 93.34C6.04001 95.56 4.79001 98.38 5.79001 102.6C6.08001 103.82 6.37001 105.12 6.98001 106.19C9.38001 110.35 11.88 114.46 14.41 118.55C15.92 120.98 18.12 122.37 21.06 122.15C23.8 121.95 25.31 123.25 26.75 125.54C31.1 132.48 39.95 135.43 47.75 132.9C55.3 130.44 60.21 123.77 60.35 115.74C60.5 107.55 55.68 100.56 48.09 97.94C40.72 95.4 32.42 97.83 27.58 103.95C27.11 104.54 26.46 105.17 26.37 105.84C26.25 106.71 26.62 107.64 26.77 108.54C27.65 108.36 28.72 108.43 29.38 107.95C30.27 107.3 30.78 106.18 31.56 105.35C36 100.66 42.99 99.48 48.65 102.42C54.61 105.51 57.59 112.02 56.13 118.78C54.84 124.76 49.5 129.34 43.18 129.78C36.67 130.24 31.82 127.48 29.01 121.66C27.97 119.5 26.7 118.55 24.43 118.56C23.3 118.56 22.11 118.53 21.04 118.2C19.9 117.85 18.43 117.4 17.87 116.51C15.05 112.02 12.26 107.49 9.89001 102.75C8.42001 99.8 9.30001 98.15 12.18 96.5C18.31 92.98 24.99 91.13 31.94 90.2C50.42 87.73 68.97 86.64 87.61 87.56C90.25 87.69 92.3 86.83 93.79 84.64C96.06 81.29 98.4 77.97 100.61 74.59C102.5 71.69 101.89 70.65 98.33 70.48C97.95 70.46 97.57 70.39 97.19 70.34C98.5 69.45 99.81 69 101.15 68.82C114.11 67.07 126.91 68.14 139.57 71.2C140.73 71.48 141.89 72.18 142.8 72.96C150.92 79.9 160.21 84.62 170.43 87.54C172.07 88.01 174.05 88.14 175.65 87.68C177.65 87.1 179.05 87.62 180.56 88.67C181.91 89.61 183.22 90.67 184.69 91.37C189.04 93.45 191.03 96.87 191.09 101.61C191.13 105.52 191.41 109.44 191.3 113.35C191.24 115.38 190.58 117.71 188.03 117.8C182.51 118 176.97 117.86 171.22 117.86C171.14 116.6 171.07 115.37 170.98 114.14C170.24 104.7 162.45 97.14 153.31 96.96C146.48 96.83 142.39 103.11 145.39 109.25C148.39 115.39 153.28 119.35 159.82 121.28C161.38 121.74 162.99 122.05 165.15 122.57C162.06 127.42 158.14 129.74 152.94 129.85C147.25 129.96 142.64 127.66 140.12 122.61C138.58 119.53 136.7 118.89 133.59 118.92C113.08 119.14 92.57 119.19 72.06 119.29C71.05 119.29 70.03 119.29 69.03 119.39C67.82 119.51 66.57 119.98 66.91 121.41C67.08 122.1 68.19 122.81 69.01 123.03C70.08 123.32 71.27 123.14 72.41 123.13C92.29 123.05 112.17 123 132.04 122.85C134.37 122.83 135.82 123.36 137.25 125.52C144.79 136.85 160.84 136.63 168.1 125.1C169.53 122.83 171.01 122.1 173.54 122.11C178.35 122.14 183.15 121.87 187.96 121.68C191.45 121.54 193.58 119.59 194.53 116.35C194.95 114.91 195.37 113.36 195.29 111.89C195.01 106.6 194.51 101.32 194.09 96.03L194.12 96.01ZM90.44 82.46C88.44 84.89 85.83 83.34 82.54 83.29C85.29 80.4 87.3 77.82 89.8 75.86C91.07 74.87 93.22 75.02 94.97 74.65C95.1 74.91 95.23 75.16 95.35 75.42C93.73 77.78 92.25 80.26 90.44 82.47V82.46ZM170.66 84.06C165.13 81.56 159.59 79.05 154.06 76.55C154.22 76.2 154.37 75.85 154.53 75.49L171.1 82.87C170.95 83.27 170.8 83.66 170.66 84.06ZM166.63 117.93C159.42 118.56 151.37 113.67 148.78 107.24C147.4 103.81 149.43 100.87 153.2 100.84C161.61 100.78 168.34 109.19 166.63 117.93Z" fill="#29D7DE"/>
<path d="M130.7 88.7C133.89 88.89 136.09 88.05 137.21 84.96C137.34 84.61 137.56 84.29 137.74 83.96C140.67 78.53 139.63 75.78 133.86 73.38C125.35 69.83 116.49 69.16 107.44 70.13C106.43 70.24 105.16 70.78 104.59 71.55C102.04 75 99.56 78.52 97.31 82.18C95.69 84.82 96.98 87.26 100 87.78C100.86 87.93 101.76 87.89 102.65 87.89C107.45 87.89 112.25 87.89 117.06 87.89C117.06 88.13 117.06 88.37 117.06 88.62C121.61 88.62 126.17 88.41 130.7 88.69V88.7ZM100.84 83.87C103.14 80.45 104.97 77.6 106.97 74.88C107.41 74.28 108.44 73.89 109.23 73.83C117.28 73.19 125.16 73.85 132.66 77.14C134.02 77.74 135.68 78.12 135.22 80.26C134.76 82.41 132.87 84.65 131.24 84.72C129.47 84.79 127.7 84.72 125.93 84.66C117.84 84.42 109.75 84.16 100.84 83.88V83.87Z" fill="#29D7DE"/>
<path d="M41.9999 125.29C47.8299 125.31 52.0699 121.05 52.0099 115.2C51.9599 109.69 47.5999 105.34 42.0999 105.3C36.5799 105.26 31.9199 109.96 31.9699 115.5C32.0199 120.96 36.4299 125.27 41.9999 125.29ZM41.9299 109.23C45.3699 109.16 48.2199 112 48.1999 115.45C48.1699 118.98 45.3999 121.61 41.8199 121.49C38.5199 121.38 35.8699 118.61 35.9099 115.33C35.9499 112.09 38.7099 109.3 41.9399 109.23H41.9299Z" fill="#29D7DE"/>
</svg>
