<svg width="200" height="200" viewBox="0 0 200 200" fill="none" xmlns="http://www.w3.org/2000/svg">
<path d="M194.78 117.71C193.78 107.96 192.93 98.2 191.99 88.45C191.31 81.49 190.71 74.51 189.83 67.57C189.1 61.8 184.96 57.55 179.27 56.45C177.54 56.11 175.73 56.1 173.95 56.1C154.73 56.08 135.5 55.99 116.28 56.16C110.97 56.21 105.57 56.6 100.38 57.64C81.8501 61.35 64.9801 68.64 50.8901 81.66C48.9001 83.5 46.2901 84.85 43.7401 85.87C38.1201 88.11 32.1301 88.53 26.1401 88.88C21.0701 89.18 16.9501 91.24 15.0501 96.18C14.3301 98.06 13.2501 98.92 11.5701 99.74C6.70012 102.11 4.08012 106.12 3.88012 111.56C3.77012 114.48 3.79012 117.42 3.88012 120.34C3.99012 124.2 5.67012 127.33 9.14012 129.03C12.0801 130.47 15.2201 131.62 18.4001 132.4C20.3501 132.88 21.8501 133.39 23.1201 135.09C25.5501 138.37 28.9501 140.32 32.9301 141.28C41.4901 143.35 50.3101 138.75 53.7401 130.4C57.1001 122.22 53.9001 112.88 46.1501 108.19C38.7801 103.73 28.6401 105.42 23.3101 112.06C22.3401 113.27 20.5601 114.73 22.2801 116.3C24.1501 118.01 25.1401 115.87 26.1601 114.72C28.7201 111.84 31.8301 110.01 35.7001 109.67C42.4701 109.09 48.7001 113.37 50.5401 119.8C52.4001 126.31 49.4101 133.22 43.4101 136.27C37.2301 139.41 29.7801 137.77 25.7501 131.98C24.1701 129.71 22.3101 129.07 19.8101 128.61C16.9801 128.09 14.2001 127.05 11.5401 125.91C8.99012 124.81 7.78012 122.59 7.78012 119.78C7.78012 117.49 7.73012 115.2 7.77012 112.91C7.87012 107.21 10.0001 104.26 15.4801 102.55C17.1301 102.04 18.0001 101.32 18.3601 99.53C19.2501 95.05 21.6501 93.14 26.2501 92.78C29.0401 92.56 31.8401 92.42 34.6101 92.01C41.3201 91.02 48.0801 89.87 53.2101 84.94C61.8201 76.67 71.9401 70.95 82.9601 66.73C92.5001 63.08 102.29 60.13 112.59 60.04C132.83 59.86 153.07 59.99 173.31 59.99C174.71 59.99 176.12 59.93 177.51 60.08C181.8 60.55 185.06 63.52 185.9 67.74C186.22 69.36 186.39 71.01 186.55 72.66C187.27 79.88 187.97 87.09 188.66 94.31C189.45 102.54 190.29 110.77 190.99 119.01C191.4 123.89 188.72 127.39 183.81 128.43C183.81 126.36 183.86 124.59 183.81 122.82C183.52 113.99 176.55 106.59 167.74 105.75C160.85 105.09 156.11 109.71 156.81 116.58C157.57 123.99 161.96 128.55 168.75 130.97C171.09 131.8 173.56 132.28 176.02 132.94C170.58 139.68 160.17 139.48 154.92 132.3C153.06 129.76 151.15 129.09 148.26 129.1C120.25 129.17 92.2501 129.13 64.2401 129.13C63.1001 129.13 61.9001 129 60.8301 129.3C60.1501 129.49 59.2201 130.36 59.2101 130.94C59.2001 131.55 60.0501 132.59 60.6801 132.73C62.1401 133.06 63.7001 133.03 65.2301 133.04C92.3401 133.05 119.46 133.07 146.57 133.01C149 133.01 150.73 133.6 152.49 135.54C160.31 144.14 172.16 143.79 179.93 135.07C180.86 134.03 182.29 133.13 183.63 132.84C191.49 131.15 195.6 125.59 194.79 117.69L194.78 117.71ZM179.53 126.92C179.16 127.68 178.26 128.57 177.49 128.68C171.45 129.54 163.48 124.85 161.41 119.32C161.01 118.27 160.74 117.12 160.66 116C160.39 111.96 162.85 109.5 166.87 109.67C174.14 109.97 179.99 116.37 179.9 124.48C179.84 124.95 179.94 126.07 179.52 126.93L179.53 126.92Z" fill="currentColor"/>
<path d="M109.57 72.6C109.25 68.23 105.81 65.06 101.43 65.17C99.6799 65.21 97.8999 65.64 96.2199 66.16C85.2499 69.59 74.8799 74.41 64.9499 80.16C64.3999 80.48 63.8599 80.83 63.3699 81.23C59.5799 84.31 59.7199 88.74 60.8499 92.4C61.8799 95.71 64.6399 97.05 69.1999 96.79C74.7899 96.47 80.3699 96.11 85.9499 95.7C91.1499 95.32 96.3499 94.9 101.54 94.39C106.72 93.88 109.51 90.79 109.63 85.57C109.67 83.66 109.63 81.75 109.63 79.84H109.59C109.59 77.42 109.73 75 109.56 72.59L109.57 72.6ZM105.69 85.87C105.53 88.68 104.29 90.23 101.57 90.46C90.4199 91.4 79.2599 92.25 68.0999 92.94C66.9699 93.01 65.3799 92.1 64.6799 91.15C63.4299 89.45 63.9799 86.2 65.3999 84.73C65.9199 84.19 66.5799 83.76 67.2399 83.39C77.1099 77.78 87.2999 72.91 98.2199 69.69C103.54 68.12 105.68 69.7 105.75 75.19C105.77 76.72 105.75 78.24 105.75 79.77H105.72C105.72 81.81 105.81 83.85 105.7 85.88L105.69 85.87Z" fill="currentColor"/>
<path d="M126.31 92.63C133.45 92.46 140.49 91.5 147.11 88.58C150.05 87.29 151.66 85 151.68 81.72C151.7 77.91 151.81 74.09 151.66 70.29C151.49 65.82 148.6 63.06 144.08 62.91C141.16 62.81 138.24 62.89 135.32 62.89V63C132.27 63 129.22 62.88 126.18 63.03C122.28 63.23 119.06 65.83 118.87 69.51C118.58 75.08 118.59 80.69 118.99 86.25C119.26 90.11 122.41 92.7 126.32 92.61L126.31 92.63ZM122.62 71.48C122.74 68.33 123.93 67.02 126.98 66.95C132.44 66.83 137.9 66.81 143.35 66.87C146.57 66.91 147.67 68.02 147.77 71.26C147.88 74.56 147.79 77.86 147.77 81.16C147.77 83.34 146.67 84.61 144.65 85.42C138.9 87.73 132.85 88.36 126.77 88.73C124.22 88.89 122.76 87.38 122.62 84.8C122.49 82.52 122.59 80.23 122.59 77.95C122.59 75.79 122.52 73.63 122.6 71.48H122.62Z" fill="currentColor"/>
<path d="M161.37 83.36C166.22 81.86 171.03 80.12 175.69 78.11C179.01 76.68 180.05 73.44 179.14 69.35C178.22 65.18 176.04 63.06 172.3 62.86C170.4 62.76 168.48 62.84 166.57 62.84C165.55 62.84 164.53 62.84 163.51 62.84C162.36 62.84 161.21 62.77 160.07 62.89C157.11 63.18 155.31 64.85 155.18 67.75C155.03 71.43 154.98 75.14 155.2 78.82C155.4 82.12 158.26 84.31 161.35 83.36H161.37ZM159.42 66.88C163.89 66.88 168.28 66.72 172.65 66.95C174.82 67.07 175.13 69.21 175.51 70.95C175.92 72.84 175.12 74.28 173.4 74.93C169.05 76.6 164.63 78.11 159.42 79.98V66.88Z" fill="currentColor"/>
<path d="M45.5401 123.63C45.4801 118.89 41.7501 115.11 37.0601 115.07C32.2601 115.03 28.3401 119.01 28.4001 123.85C28.4601 128.53 32.2701 132.36 36.9101 132.41C41.7201 132.46 45.5901 128.52 45.5401 123.63ZM32.3301 123.7C32.3601 121.07 34.6501 118.86 37.2101 118.99C39.6301 119.11 41.6401 121.29 41.6201 123.77C41.5901 126.42 39.3301 128.6 36.7501 128.47C34.3001 128.34 32.2901 126.18 32.3301 123.7Z" fill="currentColor"/>
</svg>
