<svg width="200" height="200" viewBox="0 0 200 200" fill="none" xmlns="http://www.w3.org/2000/svg">
<path d="M196.99 102.74C195.57 99.02 194.25 95.41 193.55 91.5C192.35 84.83 189.55 82.28 182.64 81.16C179.22 80.61 175.81 79.93 172.26 79.29C170.72 71.95 165.33 70.13 159.14 69.76C153.18 69.4 150.13 73.2 148.24 78.69C142.07 79.09 135.98 79.48 129.81 79.88C128.31 75.88 126.21 73.18 121.82 73.08C116.32 72.95 114.69 77.06 112.9 81.17C103.43 81.83 94.12 82.48 84.8 83.13C86.9 79.97 89.27 77.67 91.68 75.42C94.24 73.03 96.95 70.8 99.39 68.3C101.53 66.1 101.66 62.55 100.01 60.48L92.88 60.38C92.03 60.9 91.17 61.42 90.38 62.04C83.31 67.59 76.19 73.08 69.24 78.78C67.35 80.33 65.52 81.29 63.06 81.51C57.92 81.96 52.78 82.53 47.69 83.4C37.85 85.08 28.03 86.9 18.24 88.86C13.67 89.77 9.84003 92.12 7.41003 96.25C6.32003 98.11 5.78003 100.32 4.54003 102.06C1.27003 106.63 1.57003 111.37 3.17003 116.35C4.67003 121.01 6.84003 122.87 11.81 123.22C14.1 123.38 16.41 123.25 18.34 123.25C25.47 135.48 33.82 139.69 43.81 136.55C52.57 133.79 58.21 125.29 57.34 116.15C56.45 106.8 49.6 99.58 40.49 98.39C32.73 97.38 25.05 101.01 22.84 107.43C24.28 107.33 25.47 107.5 26.44 107.11C27.48 106.69 28.26 105.67 29.23 105.04C36.69 100.14 46.43 102.29 51.04 109.83C55.78 117.59 53.06 127.28 44.91 131.63C37.23 135.73 27.64 132.42 23.83 124.32C23.13 122.83 22.52 121.3 21.62 119.21C19.4 119.21 17.1 119.23 14.8 119.21C8.33003 119.14 4.10003 113.47 6.44003 107.47C9.55003 99.47 13.79 92.75 23.68 91.57C37.06 89.97 50.34 87.56 63.69 85.73C66.8 85.3 69.26 84.34 71.7 82.3C78.71 76.42 85.99 70.85 93.2 65.21C94.15 64.47 95.34 64.05 96.42 63.48L97.09 64.32C96.15 65.34 95.27 66.42 94.27 67.37C88.98 72.44 83.61 77.44 78.37 82.56C77.32 83.58 76.7 85.04 75.79 86.42C79.83 87.97 145.9 83.69 151.87 81.78C153.32 78.4 153.58 73.68 159.12 73.86C164.73 74.05 166.56 75.69 168.87 83.09C173.16 83.78 177.75 84.43 182.29 85.28C187.46 86.26 188.82 87.98 189.71 93.2C190.26 96.45 190.55 100.1 192.25 102.73C194.74 106.58 193.97 110.41 193.71 114.28C193.64 115.39 192.09 116.88 190.88 117.34C187.02 118.83 182.98 119.68 178.62 118.59C178.38 116.96 178.21 115.49 177.94 114.04C176.35 105.5 168.83 98.87 160.19 98.3C156.43 98.05 153.19 98.99 151.18 102.41C149.11 105.91 149.37 109.4 151.68 112.74C155.34 118.05 160.28 121.47 166.62 122.79C168.53 123.19 170.44 123.53 172.7 123.96C169.87 129.96 165.44 133.09 159.29 133.27C150.22 133.54 145.44 127.96 142.67 119.8H61.95C61.83 120.81 61.72 121.7 61.5 123.49C74.79 123.56 87.71 123.65 100.64 123.69C113.61 123.72 126.58 123.69 139.34 123.69C147.18 141.67 169.62 142.31 177.76 123.83C182.38 123.12 186.68 122.63 190.9 121.74C193.7 121.15 196.98 119.86 197.36 116.9C197.95 112.22 198.58 106.95 196.99 102.77V102.74ZM118.38 80.04C121.07 76.25 121.26 76.23 125.46 80.04H118.38ZM173.49 119.15C165.46 119.51 159.33 116.67 155.05 110.25C152.44 106.33 154.65 102.56 159.35 102.48C167.68 102.34 174.37 109.89 173.48 119.15H173.49Z" fill="#29D7DE"/>
<path d="M47.0001 117.77C46.9701 112.7 42.7301 108.53 37.7101 108.62C32.6601 108.71 28.6501 112.95 28.7701 118.08C28.8901 123.2 33.0401 127.03 38.2801 126.84C43.2301 126.66 47.0401 122.7 47.0101 117.77H47.0001ZM32.9301 117.69C33.0201 115.17 35.2301 112.93 37.7301 112.83C40.4501 112.72 42.8201 115.09 42.7901 117.89C42.7601 120.52 40.7101 122.56 38.0001 122.64C35.1001 122.73 32.8301 120.52 32.9301 117.69Z" fill="#29D7DE"/>
</svg>
