<svg width="200" height="200" viewBox="0 0 200 200" fill="none" xmlns="http://www.w3.org/2000/svg">
<path d="M196.4 102.87C193.76 88.19 188.38 74.54 179.09 62.63C174.98 57.35 169.86 54.35 163.06 53.65C135.84 50.84 108.83 52.15 81.91 56.89C72.96 58.47 65.27 62.07 58.53 68.17C54.42 71.89 49.84 75.1 45.36 78.4C41.01 81.61 36.01 83.19 30.71 84.21C26.04 85.11 21.28 86.08 16.91 87.89C9.86996 90.8 5.23996 96.35 4.52996 104.02C3.79996 111.85 3.81996 119.77 3.99996 127.64C4.08996 131.51 6.49996 134.48 10.44 135.51C12.58 136.07 14 137.21 15.43 138.8C23.54 147.8 37.84 148.03 46.29 139.41C54.95 130.57 54.38 116.47 45.04 108.29C35.91 100.3 21.83 101.68 14.35 111.31C13.72 112.12 12.98 112.97 12.73 113.92C12.55 114.62 12.84 115.84 13.37 116.21C13.87 116.56 15.15 116.4 15.7 115.97C16.59 115.28 17.13 114.16 17.88 113.27C22.61 107.7 30.15 105.66 36.85 108.09C43.85 110.64 48.47 117.09 48.53 124.39C48.58 131.77 43.77 138.39 36.57 140.86C29.75 143.2 22.09 140.93 17.45 134.99C16.11 133.28 14.91 132.1 12.51 131.89C9.45996 131.63 7.89996 129.48 7.86996 126.19C7.79996 119.98 7.61996 113.75 7.93996 107.56C8.33996 99.79 12.23 94.13 19.48 91.03C21.37 90.22 23.36 89.51 25.38 89.14C33.61 87.64 41.74 85.49 50.3 87.13C55.14 88.06 59.44 86.15 62.99 82.67C67.71 78.06 72.44 73.45 77.26 68.95C79.43 66.92 81.24 64.86 80.37 61.3C108.53 55.83 136.51 54.72 165.5 57.84C162.89 60.02 162.28 62.01 163.78 64.39C167.09 69.64 170.28 74.97 173.62 80.21C175.51 83.17 178.33 84.5 181.89 84.28C183.54 84.18 185.2 84.26 187.07 84.26C188.21 87.74 189.34 91.04 190.36 94.37C193.23 103.73 194.48 113.31 194.16 123.09C194.11 124.69 194.45 126.53 191.96 127.14C191.9 125.84 191.86 124.7 191.8 123.55C191.19 112.41 182.78 103.89 171.67 103.14C164.31 102.64 159.34 108.67 161.37 115.72C163.74 123.96 169.35 128.82 177.57 130.73C180.18 131.34 182.89 131.55 185.8 131.98C185.45 132.74 185.23 133.47 184.82 134.07C178.12 143.85 164.55 144.42 156.95 135.06C155.1 132.78 153.24 132.01 150.41 132.02C120.65 132.11 90.88 132.07 61.12 132.08C60.09 132.08 58.97 131.89 58.04 132.2C57.22 132.47 56.6 133.34 55.9 133.94C56.54 134.61 57.08 135.65 57.85 135.87C59.05 136.22 60.41 136.05 61.7 136.05C90.3 136.05 118.9 136.05 147.5 136.05C148.41 136.05 149.38 135.85 150.2 136.1C151.47 136.49 153.02 136.89 153.78 137.83C163.29 149.49 182.27 148.25 189.51 133.87C190.2 132.5 191.04 131.81 192.62 131.41C196.56 130.41 198.29 128.21 198.1 124.09C197.77 117 197.69 109.82 196.44 102.87H196.4ZM69.5 70.85C66.23 73.97 62.97 77.12 59.67 80.21C56 83.64 51.71 83.81 46.68 82.64C54.48 76.59 61.85 70.77 69.37 65.15C71.3 63.7 73.54 62.21 77.38 63.35C74.33 66.25 71.92 68.56 69.5 70.86V70.85ZM175.73 76.15C173.5 72.53 171.25 68.92 169.03 65.3C168.58 64.57 168.26 63.76 167.81 62.83C171.67 61.82 174.41 62.54 176.63 65.87C179.55 70.25 182.57 74.54 184.77 79.77C179.17 80.72 178.33 80.36 175.74 76.15H175.73ZM187.32 127.21C177.19 128.87 168.09 123.9 165.36 115.36C163.68 110.1 166.86 106.39 172.4 107.18C182.45 108.6 189.09 117.37 187.32 127.21Z" fill="#29D7DE"/>
<path d="M121.91 87.97C130.95 87.67 139.99 87.26 149 86.6C155.68 86.11 159.04 79.79 155.92 73.91C154.17 70.6 152.19 67.41 150.32 64.16C148.56 61.09 145.91 59.53 142.37 59.51C138.88 59.49 135.39 59.51 131.9 59.51C128.28 59.51 124.66 59.39 121.04 59.54C116.62 59.73 114.38 61.99 114.26 66.36C114.13 71.14 114.08 75.93 114.23 80.7C114.38 85.57 116.99 88.12 121.89 87.96L121.91 87.97ZM118.21 66.72C118.21 64.41 119.47 63.46 121.61 63.45C125.1 63.43 128.58 63.45 132.07 63.45C135.3 63.45 138.53 63.49 141.75 63.44C144.19 63.4 145.92 64.41 147.11 66.55C148.74 69.48 150.54 72.32 152.12 75.28C154.23 79.22 152.71 82.36 148.28 82.67C139.53 83.29 130.76 83.66 121.99 83.99C119.19 84.1 118.28 83.13 118.22 80.29C118.12 75.77 118.22 71.25 118.22 66.73L118.21 66.72Z" fill="#29D7DE"/>
<path d="M74.9499 88.28C79.4699 88.29 83.99 88.28 88.51 88.28C88.51 88.4 88.51 88.52 88.51 88.63C90.45 88.63 92.39 88.63 94.33 88.63C96.27 88.63 98.21 88.65 100.15 88.57C105.38 88.37 107.4 86.66 108.18 81.54C108.9 76.82 109.51 72.07 110.04 67.33C110.46 63.54 108.19 60.02 104.65 60.19C99.16 60.46 93.7 61.57 88.26 62.52C87.24 62.7 86.2299 63.69 85.47 64.53C80.77 69.68 76.12 74.89 71.48 80.11C70.12 81.64 69.3599 83.36 70.2799 85.43C71.1799 87.45 72.82 88.26 74.94 88.27L74.9499 88.28ZM81.65 74.69C82.42 73.82 83.3399 73.04 83.9499 72.07C88.2199 65.24 95.08 64.32 102.18 64.03C105.61 63.89 106.33 64.79 105.91 68.14C105.36 72.5 104.78 76.85 104.24 81.2C103.98 83.3 102.87 84.59 100.72 84.57C92.2 84.5 83.68 84.36 75.16 84.23C74.93 84.23 74.7 84.03 73.79 83.6C76.58 80.44 79.12 77.56 81.66 74.68L81.65 74.69Z" fill="#29D7DE"/>
<path d="M40.46 124.48C40.48 119.24 36.43 115.13 31.2 115.09C26.04 115.05 21.77 119.21 21.74 124.33C21.7 129.41 25.99 133.77 31.05 133.8C36.18 133.83 40.45 129.6 40.47 124.49L40.46 124.48ZM25.73 124.6C25.62 121.69 28.1 119.11 31.03 119.07C34.1 119.03 36.45 121.35 36.45 124.4C36.45 127.37 33.97 129.83 31.02 129.78C28.29 129.73 25.83 127.32 25.73 124.59V124.6Z" fill="#29D7DE"/>
</svg>
