<svg width="200" height="200" viewBox="0 0 200 200" fill="none" xmlns="http://www.w3.org/2000/svg">
<path d="M195.52 104.4C195.51 103.3 195.39 101.97 194.78 101.14C191.53 96.68 190.85 91.53 190.62 86.28C190.38 80.91 188.23 76.47 184.7 72.57C183.17 70.89 181.65 69.2 179.99 67.38C180 67.35 180.12 66.99 180.24 66.64C181.78 62.15 181.12 60.8 176.36 60.28C170.55 59.66 164.69 59.16 158.85 59.13C139.37 59.01 119.89 59.07 100.41 59.15C93.2 59.18 86.13 60.34 79.74 63.78C71.23 68.35 62.74 73.01 54.6 78.19C49.1 81.69 43.39 83.87 37.01 85.02C30.9 86.12 24.88 87.81 18.93 89.61C13.9 91.14 10.55 94.78 8.53998 99.61C5.20998 107.64 4.33998 116.08 4.41998 124.67C4.43998 126.57 5.34998 127.49 7.21998 127.5C9.88998 127.51 12.58 127.7 15.24 127.49C18.17 127.25 19.94 128.1 21.7 130.74C27.63 139.64 39.97 141.38 48.69 134.95C57.29 128.6 58.89 116.29 52.21 107.81C45.56 99.36 33.18 98.04 24.96 104.92C24.28 105.49 23.41 106.06 23.14 106.82C22.85 107.6 22.92 108.75 23.33 109.45C23.55 109.82 24.92 109.78 25.61 109.51C26.4 109.2 26.99 108.42 27.68 107.85C30.33 105.67 33.42 104.5 36.8 104.4C44.17 104.17 50.66 109.48 52.12 116.76C53.58 124.06 49.6 131.22 42.58 133.92C35.69 136.57 27.62 133.92 24.15 127.29C22.57 124.28 20.76 123.42 17.6 123.58C14.64 123.73 11.57 124.21 8.45998 123.03C8.30998 115.06 9.34998 107.46 12.63 100.25C14.13 96.96 16.5 94.47 19.98 93.46C25.7 91.79 31.44 90.03 37.29 88.97C44.41 87.68 50.87 85.37 57 81.34C64.74 76.25 72.96 71.86 81.13 67.47C85.62 65.06 90.54 63.58 95.73 63.4C102.47 63.17 109.21 62.75 115.95 62.82C134.53 62.99 153.11 63.36 171.7 63.69C173.29 63.72 174.87 64.07 176.71 64.31C176.31 65.21 176.15 65.69 175.91 66.11C174.797 68.0233 175.11 69.6333 176.85 70.94C177.46 71.4 178.08 71.84 178.68 72.32C183.56 76.25 186.58 81.02 186.88 87.58C187.06 91.45 187.69 95.61 189.38 99.01C191.3 102.88 191.78 106.65 191.7 110.74C191.62 114.9 191.68 119.06 191.68 123.43H186.46C186.46 122 186.47 120.87 186.46 119.74C186.41 115.82 185.41 112.18 183.14 108.96C180.39 105.07 175.47 104.15 171.29 106.66C166.93 109.28 165.49 114.15 167.84 118.51C169.66 121.9 172.42 124.25 175.98 125.68C177.27 126.2 178.59 126.66 180.42 127.35C177.24 132.34 173.06 134.8 167.56 134.86C161.4 134.93 156.71 132.19 153.89 126.76C152.75 124.56 151.57 123.59 148.97 123.6C119.94 123.7 90.91 123.67 61.88 123.67C60.99 123.67 60.03 123.52 59.23 123.8C58.52 124.05 57.98 124.79 57.36 125.32C57.96 126.01 58.44 127.09 59.18 127.3C60.49 127.67 61.95 127.55 63.35 127.55C90.73 127.55 118.1 127.59 145.47 127.51C148.24 127.51 150.04 128.15 151.73 130.64C159.08 141.44 175.22 141.64 182.6 130.91C184.58 128.03 186.58 127.1 189.69 127.48C190.32 127.56 190.96 127.55 191.6 127.54C195.05 127.47 195.56 127.03 195.59 123.52C195.65 117.15 195.64 110.79 195.58 104.42L195.52 104.4ZM181.98 123.32C177.23 122.53 173.77 120.68 171.5 117.01C169.9 114.43 170.6 111.72 173.1 110.11C175.63 108.47 178.37 108.91 180.05 111.45C182.37 114.95 183.14 118.77 181.99 123.32H181.98Z" fill="#29D7DE"/>
<path d="M61.9101 90.37C65.9701 90.17 70.0301 89.88 74.0901 89.72C84.3801 89.33 94.6701 89.01 104.96 88.64C109.66 88.47 114.36 88.24 119.05 88.05C122.11 87.93 124.63 86.82 125.44 83.66C126.39 79.97 127.21 76.23 127.7 72.46C128.21 68.54 125.7 65.87 121.73 65.73C118.94 65.63 116.14 65.71 113.34 65.71V65.81C108.26 66.05 103.18 66.38 98.1001 66.5C93.5601 66.61 89.3301 67.71 85.2901 69.77C76.8001 74.11 68.2901 78.39 59.7901 82.7C59.1101 83.04 58.1901 83.28 57.8501 83.84C57.1901 84.96 56.3201 86.4 56.5601 87.48C56.8001 88.56 58.1801 89.55 59.2701 90.22C59.9301 90.62 61.0101 90.41 61.8901 90.37H61.9101ZM68.5901 82.62C75.0501 79.34 81.4501 75.95 88.0001 72.89C90.6001 71.68 93.5201 70.74 96.3501 70.55C104.2 70.01 112.09 69.87 119.96 69.68C123.63 69.59 124.22 70.37 123.55 73.98C123.14 76.23 122.67 78.47 122.17 80.7C121.51 83.67 121.11 84 118.12 84.15C114.31 84.34 110.51 84.51 106.7 84.66C92.6101 85.24 78.5301 85.81 64.4401 86.38C63.9401 86.4 63.4301 86.38 62.9301 86.38C62.8301 86.16 62.7301 85.94 62.6401 85.73C64.6201 84.69 66.5901 83.63 68.5801 82.62H68.5901Z" fill="#29D7DE"/>
<path d="M167.84 86.39C170.83 86.3 171.68 85.37 170.97 82.62C170.03 78.96 168.9 75.3 167.42 71.83C165.69 67.8 162.46 65.46 157.92 65.36C152.59 65.25 147.26 65.09 141.94 65.21C137.92 65.3 135.68 67.81 135.66 71.81C135.65 74.73 135.71 77.65 135.82 80.56C135.98 85.16 138.07 87.16 142.75 87.2C146.68 87.24 150.61 87.2 154.54 87.2C154.54 86.94 154.54 86.67 154.54 86.41C158.98 86.41 163.42 86.51 167.86 86.38L167.84 86.39ZM143.93 83.26C140.24 83.36 139.63 82.75 139.56 79.23C139.52 76.94 139.46 74.65 139.5 72.37C139.54 70.01 140.29 69.12 142.73 69.1C147.82 69.05 152.92 69.04 157.99 69.34C159.49 69.43 161.32 70.23 162.32 71.32C165.02 74.3 166.05 78.09 166.7 82.15C165.75 82.33 165.15 82.52 164.54 82.55C157.67 82.81 150.81 83.07 143.94 83.26H143.93Z" fill="#29D7DE"/>
<path d="M46.6299 119.46C46.4899 114.3 42.1199 110.1 36.9699 110.17C31.7899 110.24 27.5499 114.54 27.5699 119.71C27.5899 124.84 31.9499 129.22 37.0299 129.23C42.3499 129.23 46.7799 124.73 46.6299 119.46ZM31.4999 119.56C31.5799 116.55 34.2199 114.03 37.2199 114.11C40.2399 114.19 42.7899 116.84 42.6999 119.81C42.6099 122.77 39.9299 125.34 36.9599 125.3C34.0299 125.27 31.4199 122.53 31.4999 119.56Z" fill="#29D7DE"/>
</svg>
