<svg width="200" height="200" viewBox="0 0 200 200" fill="none" xmlns="http://www.w3.org/2000/svg">
<path d="M196.28 108.17C196.21 107 195.65 105.36 194.78 104.85C192.44 103.48 192.41 101.45 192.35 99.24C192.29 97.06 191.97 94.87 192.04 92.7C192.17 88.57 190.67 85.26 187.8 82.34C182.57 77.02 177.48 71.58 172.34 66.18C171.14 64.92 169.7 63.92 170.39 61.64C170.6 60.96 169.28 59.37 168.32 58.9C166.75 58.12 164.92 57.75 163.16 57.5C146.05 55.13 128.85 54.63 111.61 55.22C99.04 55.65 87.21 58.78 76.47 65.41C69.92 69.46 63.49 73.72 57.22 78.18C53.4 80.9 49.48 83.25 44.91 84.33C37.04 86.19 29.17 88.06 21.27 89.78C13.74 91.41 8.30998 95.66 5.97998 102.94C4.51998 107.53 3.85998 112.48 3.56998 117.32C3.19998 123.3 7.45998 128.29 13.36 129.39C15.86 129.86 18.48 129.95 21.03 129.81C23.89 129.66 25.53 130.44 27 133.22C32.07 142.84 44.35 145.74 53.62 139.87C62.46 134.27 64.9 122.17 58.95 113.43C52.91 104.56 40.67 102.5 32.08 108.97C30.76 109.96 29.63 111.24 28.53 112.48C27.68 113.44 27.39 114.75 28.65 115.45C29.28 115.8 30.52 115.45 31.3 115.04C32.05 114.65 32.52 113.74 33.18 113.13C38.27 108.42 45.4 107.78 51.34 111.46C56.93 114.93 59.5 121.8 57.63 128.26C55.87 134.33 50.5 138.53 43.97 138.96C38.01 139.35 32.04 135.54 29.64 129.79C28.56 127.217 26.62 125.923 23.82 125.91C21.38 125.9 18.93 126.01 16.49 125.86C10.23 125.49 6.89998 121.6 7.53998 115.39C7.79998 112.84 8.29998 110.31 8.76998 107.78C10.3 99.47 14.87 95.12 23.21 93.43C30.5 91.95 37.74 90.19 44.98 88.42C50.4 87.1 55.26 84.66 59.74 81.2C64.71 77.36 69.95 73.81 75.31 70.54C85.06 64.6 95.4 59.94 107.04 59.64C119.1 59.32 131.19 59.29 143.25 59.56C150.16 59.71 157.05 60.72 163.19 61.27C164.92 63.51 166.02 65.21 167.39 66.67C173.19 72.86 179.04 79 184.95 85.09C187.03 87.24 188.16 89.61 188.15 92.65C188.13 95.86 188.56 99.07 188.5 102.28C188.45 105.22 188.87 107.62 192.42 108.1C192.42 111.18 192.58 114.01 192.38 116.81C192.04 121.66 188.66 124.92 183.59 125.44C183.32 123.7 183.08 121.94 182.76 120.2C181.23 111.92 173.81 105.51 165.46 105.22C159.51 105.01 156.1 109.2 157.49 114.97C159.39 122.82 165.25 127.96 173.8 129.29C175.04 129.48 176.27 129.67 178.03 129.93C174.76 136.04 170.19 139.1 164.02 138.91C157.72 138.72 152.86 135.58 150.63 129.58C149.51 126.55 147.94 125.84 144.97 125.85C120.16 125.95 95.35 125.91 70.54 125.91C69.64 125.91 68.66 125.72 67.86 126.01C67.03 126.31 66.36 127.08 65.63 127.64C66.38 128.35 67.02 129.38 67.92 129.7C68.95 130.07 70.2 129.84 71.36 129.84C95.01 129.84 118.67 129.87 142.32 129.81C144.81 129.81 146.48 130.19 147.79 132.81C151.13 139.49 157 142.85 164.35 142.86C171.72 142.88 177.46 139.43 180.97 132.84C182.03 130.85 183.23 129.81 185.5 129.37C191.67 128.15 195.74 123.59 196.29 117.41C196.56 114.35 196.49 111.24 196.29 108.17H196.28ZM178.93 125.5C170.47 126.12 163.37 121.61 161.55 114.88C160.43 110.76 161.77 108.99 166 109.23C173.25 109.64 180.5 117.62 178.92 125.5H178.93Z" fill="#29D7DE"/>
<path d="M112.78 89.8199C117.91 89.5799 120.15 87.4899 120.96 82.3999C121.82 76.9499 122.68 71.5 123.46 66.05C123.9 62.99 123.32 62.0799 120.38 62.2699C113.22 62.7299 105.96 62.8599 98.9701 64.2499C84.6201 67.0899 73.0501 75.6399 61.5201 84.0499C59.8801 85.25 59.4701 86.99 60.0901 88.8699C60.6801 90.6399 62.1001 91.5099 63.9201 91.5599C66.3601 91.6199 68.8001 91.5799 71.2301 91.5799C71.2301 91.5299 71.2301 91.4899 71.2301 91.4399C78.0301 91.1899 84.8201 90.9399 91.6201 90.6799C98.6701 90.4099 105.73 90.1699 112.77 89.8399L112.78 89.8199ZM66.0701 87.5899C65.5801 87.6099 65.0901 87.5099 63.7701 87.3999C80.4501 74.5599 97.3901 64.6499 119.46 66.6199C118.53 72.3699 117.74 77.8099 116.74 83.2199C116.35 85.3299 114.59 85.85 112.62 85.91C107.62 86.0599 102.62 86.3099 97.6201 86.4899C87.1001 86.8699 76.5901 87.2299 66.0701 87.5899Z" fill="#29D7DE"/>
<path d="M144.27 88.45V88.18C148.26 88.18 152.24 88.26 156.22 88.15C159.11 88.08 161.55 87 162.53 84C163.47 81.13 162.53 78.74 160.37 76.7C157 73.53 153.71 70.28 150.34 67.11C147.84 64.75 144.86 63.24 141.44 62.89C138.12 62.55 134.78 62.38 131.44 62.29C128.24 62.21 127.89 62.5 127.5 65.63C126.91 70.47 126.44 75.33 125.97 80.19C125.4 86.02 128.34 89.17 134.27 89C137.61 88.91 140.94 88.63 144.27 88.44V88.45ZM129.97 80.74C130.28 76.04 130.82 71.35 131.29 66.44C138.28 66.34 144.75 66.09 149.67 71.86C151.99 74.58 154.89 76.81 157.35 79.43C158.11 80.23 158.89 81.86 158.55 82.62C158.18 83.45 156.56 84.12 155.44 84.18C148.38 84.58 141.32 84.86 134.25 85.05C130.78 85.14 129.74 84.11 129.96 80.74H129.97Z" fill="#29D7DE"/>
<path d="M52.19 123.86C52.1 119.01 48.12 115.2 43.21 115.27C38.38 115.34 34.38 119.45 34.54 124.19C34.7 129.01 38.86 133.02 43.54 132.88C48.34 132.74 52.28 128.63 52.19 123.86ZM38.5 124.16C38.41 121.57 40.66 119.27 43.32 119.25C45.99 119.23 48.24 121.45 48.19 124.08C48.15 126.65 45.74 128.97 43.2 128.88C40.81 128.8 38.58 126.56 38.49 124.16H38.5Z" fill="#29D7DE"/>
</svg>
