<svg width="200" height="200" viewBox="0 0 200 200" fill="none" xmlns="http://www.w3.org/2000/svg">
<path d="M195.71 77.5401C195.71 75.0801 194.84 72.8801 192.6 71.7901C191.06 71.0401 189.21 70.7501 187.47 70.6501C184.46 70.4701 181.43 70.6 178.31 70.6C176.93 65.2801 175.66 60.4801 174.46 55.6601C173.66 52.4601 171.91 50.0201 168.7 49.0801C166.9 48.5501 164.92 48.44 163.02 48.44C141.06 48.41 119.1 48.4901 97.14 48.3901C92 48.3701 88.4 50.2501 85.93 54.8201C82.29 61.5601 78.35 68.1201 74.65 74.8301C73.57 76.7901 72.28 77.7801 69.96 78.0801C55.55 79.9901 41.15 82.0801 26.76 84.1201C20.88 84.9501 17.63 88 16.43 93.7901C15.97 96.0401 15.54 98.29 15.14 100.56C14.77 102.68 13.71 103.84 11.47 104.32C5.70998 105.58 4.15998 107.7 4.12998 113.66C4.12998 114.55 4.10998 115.45 4.12998 116.34C4.25998 121.39 6.90998 124.12 11.9 124.27C14.04 124.34 16.18 124.28 18.44 124.28C18.78 126.22 19.04 127.7 19.31 129.19C21.64 142.31 33.78 151.1 47.07 149.28C60.47 147.44 69.44 135.37 67.83 121.35C66.4 108.88 54.31 99.06 41.51 100.38C38.17 100.72 34.93 102.24 31.7 103.35C30.55 103.75 29.76 104.74 30.38 106.08C31 107.43 32.11 107.34 33.29 106.81C34.45 106.29 35.61 105.73 36.81 105.32C50.38 100.63 64.85 111.21 64.24 125.36C63.76 136.43 55.25 145.15 44.55 145.52C33.25 145.91 24.03 137.88 22.82 126.64C22.62 124.79 22.93 122.15 21.87 121.32C20.53 120.26 18.02 120.66 16.02 120.45C15.64 120.41 15.25 120.45 14.87 120.45C8.34998 120.46 7.91998 120.02 8.05998 113.49C8.14998 109.55 8.60998 108.92 12.52 108.16C16.07 107.47 18.18 105.44 18.87 101.91C19.34 99.5301 19.75 97.14 20.24 94.77C21.13 90.46 23 88.68 27.38 88.03C35.71 86.8 44.04 85.59 52.37 84.4001C58.18 83.57 63.99 82.78 69.81 82.02C71.57 81.79 73.25 81.59 74.72 83.24C76.51 85.25 79.04 85.7901 81.69 85.7901C95.86 85.7701 110.03 85.8 124.2 85.77C127.8 85.77 128.18 85.4001 128.2 81.8301C128.26 74.9401 128.24 68.0401 128.22 61.1501C128.21 56.8601 127.92 56.5701 123.67 56.5701C113.84 56.5601 104.01 56.5701 94.18 56.55C92.86 56.55 91.54 56.4101 89.82 56.3201C90.44 55.2901 90.68 54.71 91.08 54.26C92.79 52.32 95.13 52.3401 97.45 52.3401C119.66 52.3401 141.87 52.34 164.09 52.35C168.4 52.35 169.93 53.6 171.02 57.94C173.87 69.19 176.7 80.4501 179.51 91.7201C180.65 96.2901 181.96 100.79 181.76 105.63C181.53 111.26 181.72 111.27 187.24 112.51V120.73H178.17C177.67 119.24 177.27 117.9 176.78 116.6C173.27 107.26 166.45 101.95 156.7 100.41C151.87 99.6401 147.33 102.14 145.28 106.35C143.18 110.69 144.05 115.5 147.61 118.99C150.54 121.87 154.14 123.51 158.14 124.02C162.18 124.53 166.27 124.65 170.34 124.93C171.55 125.01 172.77 125.05 174.3 125.12C174.08 126.98 174.04 128.38 173.72 129.71C171.23 139.99 161.75 146.51 150.99 145.4C141.05 144.38 133.21 135.66 132.93 125.29C132.8 120.52 132.75 120.44 127.89 120.43C111.68 120.41 95.46 120.43 79.25 120.44C78.11 120.44 76.92 120.42 75.85 120.74C75.28 120.91 74.49 121.86 74.58 122.32C74.71 123.02 75.4 123.95 76.05 124.15C77.11 124.48 78.32 124.33 79.47 124.33C94.15 124.34 108.83 124.34 123.51 124.35C125.24 124.35 126.98 124.35 128.6 124.35C130.89 139.34 138.79 148.15 150.57 149.33C156.33 149.9 161.75 148.85 166.7 145.72C174.28 140.93 177.73 133.69 178.51 124.88C180.07 124.88 181.21 124.88 182.35 124.88C183.63 124.88 184.91 124.93 186.18 124.86C189.87 124.67 191.39 123.05 191.45 119.3C191.47 117.9 191.45 116.49 191.39 115.09C191.3 113.12 191.61 111.6 193.32 110.07C194.66 108.87 195.63 106.58 195.67 104.74C195.89 95.68 195.76 86.6101 195.72 77.5501L195.71 77.5401ZM124.08 60.51V81.4401C123.08 81.5801 122.12 81.82 121.16 81.82C108.15 81.85 95.15 81.84 82.14 81.82C81.25 81.82 80.31 81.84 79.49 81.56C77.21 80.8 76.27 79.6 77.66 77.31C80.63 72.41 83.38 67.3701 86.2 62.3801C86.87 61.1901 87.69 60.47 89.2 60.4801C100.67 60.5301 112.13 60.51 124.08 60.51ZM157.53 119.8C155.03 119.04 152.58 117.73 150.48 116.17C148.05 114.37 147.55 111.26 148.65 108.55C149.8 105.7 152.47 103.95 155.62 104.23C164.46 105.03 172.47 111.9 173.68 120.82C168.09 121.1 162.72 121.37 157.54 119.79L157.53 119.8ZM191.78 104.45C191.74 107.47 190.5 108.03 185.76 107.5C186.16 96.1701 181.31 86.0201 179.61 74.99C182.97 74.1101 186.23 74.3601 189.45 74.7101C191.02 74.8801 191.83 76.0301 191.83 77.6801C191.82 86.6001 191.9 95.5201 191.78 104.44V104.45Z" fill="#29D7DE"/>
<path d="M135 82.52C135.28 85.36 135.67 85.7101 138.59 85.7501C142.54 85.8101 146.49 85.7601 150.44 85.7601C154.52 85.7501 158.59 85.8201 162.67 85.7201C165.5 85.6501 166.19 84.7801 165.41 82.1601C163.13 74.4701 160.7 66.8301 158.41 59.1401C157.84 57.2301 156.76 56.5001 154.81 56.5201C148.7 56.5801 142.58 56.5001 136.47 56.5601C133.22 56.5901 132.67 57.1901 132.96 60.4601C133.59 67.8201 134.28 75.17 135 82.52ZM154.72 60.6401C156.82 67.4601 158.92 74.32 161.15 81.56H138.85C138.22 74.65 137.61 67.8701 136.95 60.6401H154.72Z" fill="#29D7DE"/>
<path d="M54.68 124.74C54.63 118.74 49.74 113.89 43.68 113.82C37.38 113.75 32.42 118.57 32.4 124.79C32.38 131 37.38 136.03 43.54 136.03C49.63 136.03 54.73 130.85 54.68 124.75V124.74ZM36.37 124.67C36.47 120.59 39.77 117.57 43.91 117.76C47.78 117.94 50.81 121.2 50.72 125.08C50.63 128.83 47.3 132.07 43.5 132.1C39.54 132.13 36.27 128.71 36.37 124.67Z" fill="#29D7DE"/>
</svg>
