<svg width="200" height="200" viewBox="0 0 200 200" fill="none" xmlns="http://www.w3.org/2000/svg">
<path d="M193.6 107.77C191.72 105.45 191.31 102.72 191.37 99.77C191.47 95.12 192.06 90.29 191.02 85.86C188.67 75.87 183.69 67.15 175.71 60.38C170.27 55.76 163.58 54.67 156.89 54.09C133.77 52.09 110.68 52.51 87.64 55.48C82.46 56.15 77.94 58.05 74.12 61.61C69.2 66.19 64.21 70.69 59.4 75.38C55.42 79.27 50.73 81.25 45.25 81.81C38.31 82.51 31.37 83.23 24.49 84.37C21.37 84.89 18.21 86.04 15.45 87.59C10.96 90.11 8.74004 94.22 8.95004 99.52C9.06004 102.22 8.97004 104.92 8.97004 107.69C4.06004 109.77 2.44004 113.5 2.91004 118.41C3.06004 119.95 2.89004 121.51 2.94004 123.06C3.09004 128.14 6.02004 131.18 11.12 131.52C12.67 131.62 14.24 131.72 15.77 131.52C18.55 131.17 20.12 132.2 21.59 134.68C25.66 141.56 31.93 144.94 39.96 144.9C49.51 144.85 57.68 138.5 60.19 129.22C62.62 120.22 58.74 110.44 50.85 105.67C42.59 100.68 32.23 101.64 25.34 108.05C24.68 108.66 23.87 109.28 23.57 110.06C23.31 110.77 23.37 112 23.83 112.45C24.26 112.88 25.5 112.85 26.2 112.56C26.98 112.24 27.54 111.38 28.22 110.78C35.38 104.47 46.28 105.14 52.6 112.27C58.92 119.41 58.23 130.31 51.07 136.65C42.51 144.22 29.1 141.61 24.24 131.2C22.93 128.4 21.43 127.22 18.4 127.52C16.1 127.75 13.75 127.65 11.43 127.52C8.70004 127.37 7.18004 126.08 7.02004 123.59C6.84004 120.89 6.75004 118.14 7.09004 115.47C7.24004 114.28 8.39004 112.47 9.35004 112.27C13.09 111.52 13.1 108.98 13 106.15C12.93 104.34 13.03 102.53 12.98 100.72C12.81 94.65 14.75 91.64 20.4 89.52C21.96 88.93 23.61 88.45 25.25 88.22C37.76 86.41 50.25 84.31 62.96 84.58C65.07 84.63 66.57 83.98 67.96 82.31C72.43 76.95 77.04 71.71 81.63 66.45C83.1 64.76 84.27 63.13 81.58 61.13C82.76 60.72 83.45 60.34 84.18 60.25C91.87 59.32 99.54 58.08 107.25 57.6C123.9 56.56 140.58 56.28 157.21 58.1C163.53 58.79 169.89 59.77 174.6 64.71C182.29 72.78 187.96 81.79 187.48 93.54C187.4 95.61 187.65 97.7 187.42 99.74C187.01 103.4 187.78 106.73 190.05 109.56C193.35 113.66 193.32 118.38 193 123.19C192.84 125.63 191.53 127.19 189.25 127.44C187.15 127.67 185.01 127.49 182.71 127.49C182.78 126.28 182.82 125.65 182.86 125.02C183.5 112.7 174.11 102.64 161.83 102.56C157.5 102.53 154.08 104.26 151.96 108.21C149.4 112.97 149.96 117.87 153.75 121.75C159.03 127.15 165.7 129.72 173.02 130.88C174.23 131.07 175.43 131.28 177.06 131.56C173.11 137.9 168.04 141.15 161.06 140.9C154.1 140.65 148.95 137.3 146.08 131C144.94 128.5 143.66 127.52 140.9 127.53C116.73 127.62 92.55 127.58 68.38 127.58C67.48 127.58 66.47 127.37 65.7 127.7C64.9 128.04 64.33 128.91 63.66 129.55C64.35 130.2 64.94 131.07 65.76 131.42C66.53 131.75 67.54 131.56 68.44 131.56C86.41 131.56 104.38 131.54 122.35 131.52C128.8 131.52 135.25 131.52 141.6 131.52C142.3 132.72 142.8 133.61 143.33 134.49C151.18 147.61 169.71 148.79 178.52 136.29C181.23 132.45 183.84 130.92 188.17 131.54C188.67 131.61 189.21 131.54 189.71 131.47C193.77 130.87 196.63 128.12 196.92 124.03C197.33 118.34 197.57 112.63 193.62 107.77H193.6ZM64.6 79.72C63.84 80.53 62.12 80.45 60.62 80.36C65.44 75.07 70.24 69.95 75.72 65.56C75.97 65.8 76.22 66.04 76.47 66.28C72.54 70.78 68.69 75.36 64.61 79.71L64.6 79.72ZM178.12 127.36C170.52 126.99 163.68 125.12 157.91 120.22C155.64 118.29 154.09 116.03 154.44 112.85C154.78 109.81 157.01 107.09 159.98 106.66C171.59 104.97 181.45 117.01 178.12 127.36Z" fill="currentColor"/>
<path d="M151.85 77.53C151.38 72.91 150.95 68.29 150.43 63.68C150.06 60.4 149.59 59.95 146.28 60.04C137 60.28 127.72 60.58 118.44 60.92C115.39 61.03 114.93 61.53 114.89 64.68C114.82 69.71 114.81 74.74 114.89 79.77C114.93 82.66 115.75 83.38 118.7 83.25C123.47 83.05 128.23 82.75 132.99 82.49C132.99 82.48 132.99 82.46 132.99 82.45C138.14 82.21 143.3 82.04 148.44 81.7C151.66 81.49 152.18 80.73 151.85 77.52V77.53ZM119.22 79.14V64.91C128.17 64.6 137.11 64.28 146.23 63.96C146.61 66.63 146.96 68.77 147.19 70.93C147.42 73.08 147.54 75.24 147.73 77.76C138.08 78.22 128.84 78.67 119.21 79.13L119.22 79.14Z" fill="currentColor"/>
<path d="M75.4901 84.42C80.2601 84.54 85.0301 84.47 87.7001 84.47C94.5701 84.16 99.3401 83.97 104.11 83.71C107.47 83.53 107.6 83.46 108.11 80.28C108.9 75.32 109.62 70.34 110.22 65.35C110.67 61.66 110.1 61.09 106.23 61.15C101.46 61.22 96.6901 61.32 91.9301 61.66C90.6801 61.75 89.1701 62.48 88.3301 63.41C83.3001 68.94 78.3901 74.58 73.5401 80.27C72.8901 81.04 72.2501 82.55 72.5901 83.23C72.9501 83.95 74.4701 84.39 75.5001 84.41L75.4901 84.42ZM85.9801 71.9C89.3301 67.11 93.4801 64.46 99.5501 65.35C101.54 65.64 103.61 65.4 106.15 65.4C105.57 69.84 105.11 74.13 104.33 78.36C104.21 79.01 102.6 79.76 101.64 79.81C96.2401 80.11 90.8301 80.22 85.4201 80.36C83.5301 80.41 81.6401 80.36 78.8501 80.36C81.5901 77.13 84.0201 74.68 85.9801 71.89V71.9Z" fill="currentColor"/>
<path d="M158.7 81.12C164.89 80.67 170.81 80.3 176.73 79.8C179.86 79.54 180.44 78.4299 178.78 75.8199C177.05 73.0999 175.27 70.3699 173.17 67.9499C168.74 62.8199 162.98 60.1499 156.23 59.6599C152.91 59.4199 152.07 60.3599 152.5 63.6799C153.1 68.2899 153.73 72.8899 154.39 77.4899C154.88 80.9199 155.31 81.23 158.7 81.12ZM174.06 76.08C168.53 76.42 163.7 76.72 158.43 77.05C157.79 72.7 157.18 68.5499 156.48 63.81C164.79 64.51 169.81 68.92 174.07 76.08H174.06Z" fill="currentColor"/>
<path d="M49.16 124.49C49.22 118.89 44.98 114.52 39.52 114.52C34.11 114.52 29.7 119.05 29.8 124.49C29.9 129.82 34.19 134.02 39.52 134C44.94 133.99 49.11 129.88 49.16 124.49ZM33.72 124.45C33.64 121.32 36.5 118.45 39.64 118.52C42.72 118.6 45.21 121.21 45.18 124.33C45.15 127.58 42.79 129.97 39.57 129.99C36.51 130.02 33.8 127.45 33.72 124.45Z" fill="currentColor"/>
</svg>
