<svg width="200" height="200" viewBox="0 0 200 200" fill="none" xmlns="http://www.w3.org/2000/svg">
<path d="M197.04 106.32C195.87 101.67 195.75 97.17 195.62 92.55C195.52 89.29 195.44 86.03 195.33 82.03H110.67C110.67 77.11 110.76 72.95 110.65 68.8C110.49 62.51 107.04 58.89 100.76 58.58C96.7701 58.38 92.7601 58.58 88.7601 58.5C82.5101 58.37 76.9801 60.3 72.0501 64.1C67.8301 67.35 63.5601 70.54 59.3201 73.78C54.3201 77.6 48.7101 80 42.5101 80.99C35.7701 82.07 29.0501 83.4 22.2701 84.09C11.4501 85.18 5.75009 90.5 5.50009 101.33C5.50009 101.65 5.31009 101.96 5.20009 102.28C1.05009 106.51 1.04009 106.55 1.20009 113.91C1.33009 119.79 3.47009 122.01 9.39009 122.23C12.3501 122.34 15.3201 122.25 18.0401 122.25C23.8901 135.68 31.1901 140.84 41.2301 139.05C50.4501 137.41 56.9401 130.46 57.6801 121.47C58.4601 112.08 53.0701 103.92 44.2001 101.05C36.7901 98.66 28.8001 100.78 25.4801 106.11C27.0001 108.82 28.7301 107.21 30.4301 106.32C35.8901 103.47 41.3401 103.41 46.5701 106.74C52.4101 110.46 54.9701 117.68 53.0201 124.26C51.1801 130.46 44.9901 135.07 38.3801 135.17C31.5301 135.28 25.4701 130.83 23.4101 124.11C22.8401 122.25 22.3901 120.35 21.9301 118.62C16.4401 117.16 10.9401 119.32 5.66009 116.98V107.91C7.11009 106.89 8.42008 105.97 9.69008 105.08C9.75008 103.83 9.81008 102.84 9.83008 101.84C10.0101 93.01 12.7201 89.85 21.3201 88.5C27.9001 87.46 34.4801 86.39 41.0701 85.43C49.3201 84.23 56.8101 81.33 63.3201 76C66.5401 73.36 70.0401 71.07 73.2501 68.42C78.3801 64.17 84.1301 62.11 90.8001 62.62C92.6201 62.76 94.4601 62.64 96.3001 62.64C105.73 62.66 106.49 63.44 106.49 72.94C106.49 83.77 106.46 94.6 106.51 105.43C106.51 107.29 105.94 109.61 109.52 110.38C109.9 109.12 110.54 107.86 110.62 106.57C110.79 103.75 110.68 100.91 110.68 98.07C110.68 94.3 110.68 90.54 110.68 86.94C117.99 85.58 187.78 85.99 191.19 87.31C191.26 88.39 191.35 89.53 191.41 90.68C191.71 96.42 190.98 102.12 193.1 107.87C195.03 113.11 192.66 116.03 186.99 117.02C184.13 117.52 181.16 117.36 178.34 117.5C177.62 115.42 177.2 113.99 176.63 112.61C173.9 105.92 168.88 101.87 161.87 100.42C156.8 99.37 152.5 102.06 150.96 106.9C149.52 111.42 151.32 116.39 155.82 118.17C159.95 119.8 164.43 120.53 168.79 121.56C170.18 121.89 171.64 121.89 173.07 122.05C172.3 129.13 166.74 134.46 159.84 135.11C151.08 135.93 146.07 131.38 141.8 118.38C140.35 118.28 138.73 118.09 137.11 118.08C113.45 118.06 89.7901 118.06 66.1201 118.08C64.9601 118.08 63.7101 117.9 62.6501 118.26C61.7801 118.56 61.1401 119.53 60.4101 120.2C62.4901 122.98 65.0201 122.21 67.2301 122.22C89.0601 122.28 110.89 122.25 132.72 122.27C134.67 122.27 136.61 122.44 138.6 122.53C141.38 132.3 147.14 138.73 157.19 139.21C168.96 139.77 175.42 132.66 178.3 122.13C181.86 121.72 185.01 121.51 188.11 120.99C196.94 119.49 198.99 113.95 197.07 106.33L197.04 106.32ZM157.68 114.67C154.89 113.29 153.94 110.63 154.97 107.99C156.01 105.34 158.05 104.29 160.87 104.5C166.83 104.94 172.29 110.48 173.01 117.15C167.62 117.93 162.5 117.05 157.68 114.67Z" fill="currentColor"/>
<path d="M47.3099 119.72C47.3299 114.71 43.0699 110.44 38.0999 110.5C33.0199 110.56 29.0599 114.7 29.1499 119.88C29.2399 124.91 32.9799 128.65 38.0199 128.75C43.1699 128.85 47.2799 124.86 47.2999 119.72H47.3099ZM33.3199 119.94C33.1799 117.14 35.4099 114.74 38.1699 114.73C40.8299 114.72 43.2899 117.22 43.1999 119.85C43.1199 122.33 40.8599 124.46 38.2699 124.5C35.6099 124.54 33.4499 122.56 33.3199 119.95V119.94Z" fill="currentColor"/>
</svg>
