<svg width="200" height="200" viewBox="0 0 200 200" fill="none" xmlns="http://www.w3.org/2000/svg">
<path d="M193.19 99.9399C191.62 97.5399 191.1 95.2799 190.92 92.5699C190.4 85.0399 185.65 80.5799 178.06 80.2799C173.38 80.0999 169.07 78.7899 165.1 76.3699C160.77 73.7299 156.48 71.0099 152.14 68.3899C146.74 65.1299 140.93 62.9299 134.61 62.5799C127.39 62.1799 120.16 62.1199 112.93 61.8299C103.8 61.4699 95.36 63.7699 87.39 68.1099C80.04 72.1199 72.72 76.1899 65.26 79.9799C62.84 81.2099 60.08 82.0699 57.38 82.4199C45.94 83.9099 34.45 85.08 22.99 86.4799C13.58 87.6299 7.10999 93.8199 5.63999 103.03C5.13999 106.15 4.83999 109.33 4.68999 112.49C4.40999 118.51 8.28999 122.64 14.32 122.86C16.59 122.94 18.86 122.87 21.12 122.87C21.73 124 22.22 124.88 22.69 125.77C27.49 134.75 37.83 138.46 47.09 134.53C56.09 130.71 60.71 120.55 57.74 111.15C54.76 101.73 44.89 96.1899 35.08 98.5199C31.3 99.4199 28 101.28 25.46 104.31C24.54 105.41 23.54 106.63 24.98 107.93C26.29 109.11 27.28 108.03 28.19 107.1C28.72 106.56 29.24 105.99 29.82 105.5C34.55 101.48 41.12 100.72 46.56 103.54C51.93 106.32 55.31 112.42 54.75 118.32C54.17 124.51 50.11 129.54 44.17 131.43C36.54 133.86 28.29 130.07 25.54 122.49C24.15 118.64 23.33 118.96 20.31 118.96C18.41 118.96 16.5 119.02 14.6 118.94C10.48 118.76 8.34999 116.46 8.59999 112.31C8.77999 109.28 9.03999 106.23 9.55999 103.23C10.8 96.13 16.13 91.1799 23.21 90.3599C34.93 88.9999 46.64 87.6699 58.36 86.3399C61.41 85.9899 64.24 85.1699 66.97 83.6299C74.37 79.4599 81.94 75.5799 89.38 71.4699C96.78 67.3799 104.66 65.4399 113.11 65.7099C118.69 65.8899 124.27 65.9499 129.86 66.0399C137.39 66.1599 144.38 68.0999 150.78 72.1099C155.08 74.8099 159.4 77.4699 163.74 80.0999C167.83 82.5799 172.3 83.8999 177.08 84.1399C184.12 84.4899 187.1 87.5499 187.13 94.6699C187.13 97.1399 187.52 99.1499 189.3 101.21C193.12 105.61 191.5 113.05 186.37 115.11C183.41 116.3 180.12 116.68 176.86 117.45C176.54 115.91 176.32 114.93 176.13 113.94C174.59 105.53 168.6 99.6599 160.2 98.1999C156.01 97.4699 152.61 98.7199 150.25 102.19C147.85 105.7 148.12 109.36 150.35 112.92C153 117.14 156.96 119.54 161.65 120.71C164.7 121.47 167.86 121.83 171.23 122.42C168.88 128.56 163.94 132.02 157.73 132.12C151.31 132.23 145.68 128.78 143.43 122.74C142.36 119.86 140.9 118.9 137.89 118.91C114.67 119.02 91.44 118.97 68.22 118.98C67.21 118.98 66.12 118.86 65.21 119.19C64.53 119.44 63.63 120.33 63.65 120.91C63.67 121.54 64.54 122.47 65.22 122.68C66.27 123.01 67.48 122.87 68.61 122.87C90.57 122.87 112.52 122.93 134.48 122.81C137.56 122.79 139.32 123.46 140.97 126.45C147.86 139.01 165.98 139.32 173.5 127.24C174.7 121.54 179.09 120.38 183.96 119.9C184.34 119.86 184.71 119.77 185.08 119.68C193.99 117.51 198.24 107.58 193.22 99.9199L193.19 99.9399ZM157.62 114.71C155.83 113.48 154.2 111.65 153.18 109.72C151.13 105.84 154.23 101.58 158.62 101.88C166.55 102.42 172.55 109.28 172.27 118.1C166.94 118.07 161.93 117.66 157.62 114.71Z" fill="currentColor"/>
<path d="M140.44 89.65C146.78 89.65 153.12 89.65 159.46 89.65C161.4 89.65 163.02 89.01 163.7 87.09C164.4 85.11 164.02 83.16 162.17 82.04C155.46 77.98 149.21 73.14 141.74 70.39C135.75 68.18 129.48 68.7 123.31 68.36C120.71 68.22 119.23 69.85 118.83 72.6C118.33 76.11 117.97 79.64 117.52 83.16C116.9 87.96 118.35 89.62 123.32 89.65C129.03 89.68 134.73 89.65 140.44 89.65ZM122.75 72.81C137.54 70.2 148.49 77.43 159.91 85.48H121.25C121.77 81.09 122.25 77 122.75 72.81Z" fill="currentColor"/>
<path d="M92.5601 89.67C98.0101 89.67 103.46 89.72 108.91 89.66C112.3 89.62 113.49 88.64 114.19 85.41C114.99 81.7 115.73 77.97 116.41 74.23C117.17 70.09 115.61 68.13 111.51 68.06C105.86 67.96 100.31 68.9 95.2501 71.33C88.1801 74.73 81.3401 78.61 74.4101 82.3C72.9501 83.08 72.1501 84.29 72.2201 86C72.3101 88.31 73.7201 89.6 76.6001 89.65C81.9201 89.73 87.2401 89.67 92.5701 89.68L92.5601 89.67ZM112.84 72.13C111.88 76.88 111.04 81.05 110.15 85.48H77.8801C88.7301 79.55 98.6601 71.21 112.84 72.13Z" fill="currentColor"/>
<path d="M48.5001 117.3C48.6301 112.38 44.7101 108.33 39.7601 108.26C34.9301 108.19 30.9501 111.86 30.7001 116.6C30.4501 121.34 34.4401 125.69 39.2601 125.93C44.0001 126.17 48.3801 122.07 48.5101 117.3H48.5001ZM34.6001 117.17C34.5301 114.51 36.9301 112.15 39.6801 112.17C42.3201 112.2 44.5301 114.35 44.5801 116.93C44.6301 119.6 42.1901 122.04 39.5201 122C37.0201 121.96 34.6801 119.65 34.6101 117.16L34.6001 117.17Z" fill="currentColor"/>
</svg>
