<svg width="200" height="200" viewBox="0 0 200 200" fill="none" xmlns="http://www.w3.org/2000/svg">
<path d="M193.28 113.49C190.84 113.44 189.66 112.43 188.56 110.41C184.38 102.73 179.96 95.17 175.73 87.52C168.56 74.58 157.85 65.73 144.2 60.42C128.37 54.26 111.86 53.16 95.19 55.17C84.44 56.46 76.23 62.07 71.44 72.12C70.72 73.63 69.66 74.98 69.05 76.52C67.96 79.27 66.16 80.21 63.15 80.29C54.5 80.53 46 81.93 37.8 84.84C25.66 89.14 17.96 97.33 15.54 110.17C15.35 111.16 15.02 112.12 14.74 113.16C13.68 113.25 12.8 113.33 11.91 113.39C8.13999 113.65 5.74999 115.76 5.72999 118.93C5.70999 121.77 8.02999 124.93 12.09 124.69C13.95 124.58 15.83 124.83 17.58 124.91C18.03 127.12 18.27 128.91 18.77 130.63C21.64 140.47 32.41 145.98 42.13 142.63C51.88 139.26 56.96 128.42 53.28 118.81C49.61 109.21 38.45 104.46 29.07 108.53C28.37 108.84 27.51 109.11 27.1 109.67C26.64 110.3 26.23 111.41 26.49 112C26.73 112.54 27.91 112.92 28.66 112.9C29.51 112.87 30.32 112.28 31.17 111.97C36.95 109.82 43.37 111.53 47.24 116.26C51.1 120.98 51.56 127.74 48.36 132.86C45.1 138.09 38.78 140.74 33.03 139.28C26.81 137.7 22.44 132.65 21.95 126.43C21.87 125.41 21.91 124.37 21.94 123.34C21.98 121.74 21.14 120.94 19.63 120.85C17.83 120.75 16.03 120.84 14.23 120.72C12.58 120.61 9.93999 121.44 9.96999 118.89C9.99999 116.63 12.55 117.42 14.08 117.35C18.29 117.18 18.29 117.23 19 113.18C19.18 112.17 19.37 111.16 19.58 110.15C21.38 101.24 26.25 94.59 34.5 90.72C38.08 89.04 41.88 87.54 45.74 86.76C51.9 85.52 58.17 84.71 64.43 84.19C67.96 83.9 70.53 83.08 71.95 79.53C72.95 77.04 74.48 74.76 75.76 72.38C79.03 66.28 84 62.09 90.61 60.32C94.79 59.2 99.2 58.67 103.53 58.44C117.02 57.74 130.23 59.32 142.96 64.12C146.04 65.28 148.78 66.51 149.72 70.18C150.11 71.7 151.36 73.1 152.49 74.31C155.03 77.04 157.8 79.55 160.35 82.26C162.85 84.91 165.65 86.25 169.36 84.69C170.28 86.19 171.12 87.48 171.87 88.81C176.68 97.32 181.52 105.82 186.21 114.39C187.33 116.45 188.64 117.61 191.03 117.33C191.54 117.27 192.16 117.16 192.55 117.38C193.33 117.83 193.98 118.49 194.69 119.07C193.95 119.64 193.22 120.68 192.47 120.7C186.7 120.84 180.93 120.78 175.27 120.78C174.46 119.09 173.92 117.79 173.22 116.57C169.91 110.78 164.96 107.57 158.25 107.13C154.85 106.91 152.13 108.03 150.58 111.16C149.05 114.24 149.63 117.22 151.67 119.85C155.52 124.82 160.66 126.95 166.91 126.39C168.28 126.27 169.64 126.07 171.29 125.87C171.28 132.49 166.24 138.23 159.55 139.48C153.42 140.62 146.76 137.16 144.19 130.99C143.07 128.3 141.7 127.32 138.81 127.33C113.59 127.43 88.36 127.39 63.14 127.4C62.24 127.4 61.24 127.23 60.47 127.56C59.78 127.85 58.91 128.72 58.9 129.34C58.9 129.96 59.76 130.97 60.42 131.15C61.63 131.48 62.97 131.36 64.25 131.36C88.19 131.36 112.12 131.39 136.06 131.33C138.59 131.33 140.16 131.84 141.52 134.35C145.14 141.03 152.67 144.56 159.67 143.42C167.77 142.11 173.46 136.72 175.16 128.76C175.42 127.53 175.62 126.29 175.87 124.94C177.05 124.84 178.06 124.69 179.07 124.68C183.7 124.64 188.34 124.74 192.97 124.6C196.48 124.49 198.66 122.3 198.76 119.15C198.86 116 196.74 113.55 193.27 113.48L193.28 113.49ZM165.46 81.51C162.37 78.59 159.27 75.67 156.18 72.75C156.44 72.47 156.71 72.19 156.97 71.92C160.3 74.58 163.74 77.15 166.08 80.86C165.87 81.08 165.67 81.3 165.46 81.51ZM155.21 117.92C154.04 116.4 153.26 114.83 154.18 112.98C155.15 111.03 156.99 111.02 158.84 111.17C164.4 111.62 169.03 115.51 170.69 121.33C165.43 123.81 158.8 122.56 155.22 117.92H155.21Z" fill="currentColor"/>
<path d="M92.09 86.82C96.59 86.82 101.08 86.87 105.58 86.8C109.94 86.73 112.01 84.76 112.11 80.48C112.22 76.12 112.21 71.74 112.09 67.38C111.97 62.94 109.74 60.74 105.21 61.08C100.75 61.42 96.32 62.22 91.9 62.99C87.69 63.73 84.08 65.95 81.52 69.21C78.7 72.81 76.25 76.78 74.19 80.86C72.34 84.52 74.02 86.73 78.21 86.81C82.83 86.89 87.46 86.83 92.08 86.83L92.09 86.82ZM93.54 66.65C97.27 65.79 101.13 65.36 104.95 65.04C107.63 64.82 108.1 65.39 108.16 68.09C108.24 71.94 108.14 75.79 108.19 79.64C108.21 81.63 107.53 82.85 105.34 82.85C96.37 82.85 87.4 82.85 77.6 82.85C81.05 74.9 85.17 68.58 93.55 66.65H93.54Z" fill="currentColor"/>
<path d="M120.76 86.81C124.23 86.85 127.7 86.81 131.18 86.81C134.65 86.8 138.13 86.84 141.6 86.79C146.05 86.72 148.97 84.77 149.97 81.34C151.03 77.7 149.89 74.56 146.17 72.09C138.59 67.06 130.3 63.63 121.36 61.93C116.67 61.04 113.93 63.35 113.78 68.17C113.66 72.15 113.67 76.14 113.77 80.13C113.89 84.9 115.88 86.76 120.77 86.82L120.76 86.81ZM117.73 68.85C117.81 66.01 118.56 65.35 121.32 65.93C129.33 67.6 136.74 70.82 143.68 75.12C145.54 76.28 146.83 77.87 146.05 80.27C145.31 82.53 143.42 82.87 141.39 82.88C138.05 82.89 134.7 82.88 131.36 82.88V82.86C127.89 82.86 124.41 82.81 120.94 82.88C118.67 82.92 117.64 81.96 117.69 79.66C117.76 76.06 117.64 72.45 117.74 68.86L117.73 68.85Z" fill="currentColor"/>
<path d="M45.11 125.08C44.99 120.14 41.11 116.4 36.16 116.44C31.05 116.48 27.1 120.53 27.25 125.57C27.39 130.32 31.54 134.37 36.26 134.34C41.24 134.31 45.23 130.13 45.11 125.08ZM31.22 125.01C31.38 122.35 33.69 120.31 36.42 120.41C39.17 120.51 41.23 122.71 41.14 125.46C41.05 128.18 38.83 130.36 36.17 130.33C33.42 130.31 31.05 127.76 31.22 125.01Z" fill="currentColor"/>
</svg>
