<svg width="200" height="200" viewBox="0 0 200 200" fill="none" xmlns="http://www.w3.org/2000/svg">
<path d="M197.82 92.75C197.15 86.9 193.59 83.23 187.85 81.58C172.65 77.2 157.43 72.89 142.32 68.24C131.55 64.93 120.74 64.5 109.73 66.36C100.11 67.99 91.1799 71.64 82.2899 75.44C75.8199 78.21 69.1499 80 62.0999 80.76C52.3499 81.81 42.5799 83 32.9899 84.98C23.3199 86.98 14.2499 90.91 6.26995 96.94C1.21995 100.76 0.469947 106.27 4.06995 111.44C7.12995 115.85 11.2199 118.32 16.6999 118.25C18.1799 118.23 19.6499 118.25 21.1299 118.25C21.8899 119.72 22.4499 120.92 23.1199 122.05C27.4199 129.35 33.8199 132.87 42.2599 132.25C50.0899 131.68 55.7099 127.63 58.8499 120.44C62.1799 112.82 60.8699 105.67 55.6699 99.39C47.2599 89.22 30.1299 90.81 23.5599 102.2C22.4699 104.1 21.7099 105.84 25.0499 107.04C28.3699 102.55 31.6599 97.82 37.8999 97.02C43.9799 96.25 49.1899 97.81 53.0499 102.7C58.7399 109.9 57.0299 120.41 49.4799 125.6C45.6499 128.23 41.4099 128.65 37.0299 127.78C29.7499 126.34 26.5599 120.72 24.3399 114.42C22.8499 114.27 21.7099 114.09 20.5699 114.04C18.7399 113.96 16.8899 114.1 15.0799 113.91C11.2699 113.51 6.61995 109.63 6.04995 106.26C5.35995 102.17 8.31995 100.19 11.2199 98.54C15.2699 96.25 19.3799 93.99 23.6899 92.27C34.4499 87.97 45.7499 85.84 57.2799 85.14C66.8599 84.56 76.0399 82.77 84.8899 78.9C91.1299 76.17 97.5599 73.76 104.1 71.87C115.33 68.62 126.78 68.09 138.15 71.32C154.32 75.92 170.45 80.71 186.58 85.43C190.81 86.67 193.61 89.37 194 93.86C194.3 97.33 194.33 100.87 194.02 104.34C193.66 108.36 191.4 111.1 187.31 112.06C185.4 112.5 183.49 112.91 181.29 113.4C180.99 111.69 180.78 110.41 180.55 109.14C178.76 99 170.09 92.11 159.87 92.67C155.52 92.91 152.18 94.75 150.33 98.8C148.42 103 149.05 106.92 151.99 110.46C156.63 116.06 162.69 118.76 169.87 119.13C171.45 119.21 173.02 119.3 175.13 119.41C171.69 125.6 166.85 128.35 160.56 128.23C154.18 128.11 149.55 124.84 146.68 119.16C145.87 117.57 145.26 115.88 144.68 114.5C143.68 114.27 143.19 114.07 142.71 114.07C117.71 114.04 92.7099 114 67.7199 114.04C66.5599 114.04 65.3899 114.69 64.1799 115.06C64.9199 119.19 67.7599 118.11 69.7999 118.11C91.7999 118.18 113.8 118.16 135.8 118.16C137.61 118.16 139.43 118.16 141.27 118.16C152.51 137.61 168.87 137.32 180.9 117.85C183.42 117.24 186.19 116.67 188.91 115.89C194.05 114.42 197.36 111 197.89 105.68C198.32 101.4 198.33 97 197.84 92.73L197.82 92.75ZM176.15 114.44C168.02 116.05 161.18 114.37 155.59 108.31C153.62 106.18 152.84 103.73 153.95 100.97C155.15 97.99 157.57 96.91 160.69 96.83C170.16 96.58 177.34 104.39 176.14 114.43L176.15 114.44Z" fill="#29D7DE"/>
<path d="M48.18 112.58C48.21 108.33 44.92 104.98 40.68 104.95C36.36 104.93 33.13 108.13 33.11 112.44C33.09 116.78 36.28 120.05 40.54 120.07C44.78 120.09 48.14 116.79 48.17 112.58H48.18ZM40.16 109.29C42.1 108.69 43.95 110.14 43.89 112.13C43.85 113.54 42.41 114.91 40.98 117.36C39.19 115.12 37.51 113.91 37.4 112.57C37.31 111.51 38.95 109.66 40.17 109.29H40.16Z" fill="#29D7DE"/>
</svg>
