<svg width="200" height="200" viewBox="0 0 200 200" fill="none" xmlns="http://www.w3.org/2000/svg">
<path d="M191.83 103.75C190.3 101.6 189.82 99.5801 189.88 97.1601C189.93 94.9001 189.76 92.63 189.92 90.38C190.18 86.77 188.98 83.7601 186.73 81.0101C182.52 75.8501 178.28 70.7201 174.27 65.4101C171.68 61.9801 168.5 60.64 164.24 60.67C142.63 60.79 121.03 60.7701 99.42 60.7001C93.03 60.6801 87.33 62.4301 82.1 66.0501C75.18 70.8401 68.17 75.49 61.22 80.24C58.06 82.4 54.66 83.85 50.83 84.39C42.13 85.61 33.46 87.03 24.75 88.21C17.13 89.25 12.12 93.2901 9.67004 100.57C9.27004 101.75 8.98004 103.32 8.10004 103.91C4.76004 106.15 5.00004 109.4 5.15004 112.67C5.36004 117.17 8.07004 119.78 12.62 119.87C15.49 119.93 18.36 119.88 21.42 119.88C21.87 121.36 22.14 122.19 22.38 123.02C24.96 132.02 32.43 137.49 41.73 137.21C50.33 136.95 57.55 130.99 59.56 122.53C61.62 113.8 57.59 105.01 49.66 100.97C42.09 97.1101 32.52 98.84 26.87 105.08C26.45 105.54 25.77 106 25.71 106.52C25.6 107.39 25.66 108.47 26.12 109.13C26.35 109.46 27.77 109.3 28.4 108.94C29.23 108.45 29.77 107.5 30.51 106.82C35.15 102.59 42.17 101.59 47.71 104.35C53.28 107.13 56.73 113.08 56.28 119.12C55.8 125.49 51.58 130.81 45.47 132.73C36.42 135.58 27.33 129.76 25.68 120.05C25.03 116.21 25.03 116.19 21.23 116.13C18.59 116.09 15.95 116.13 13.32 116.13C11.6 116.13 9.71004 115.9 9.37004 114.01C9.03004 112.13 8.69004 109.18 9.71004 108.34C12.12 106.35 12.58 103.71 13.53 101.22C15.43 96.2001 18.83 93.1 24.2 92.28C27.67 91.75 31.14 91.13 34.63 90.71C42.97 89.7 51.3 88.2 59.66 87.95C74.59 87.5 89.55 87.84 104.5 87.81C108.65 87.81 108.95 87.48 109.14 83.32C109.38 78.05 109.58 72.7801 109.85 67.5101C109.9 66.5401 110.24 65.59 110.45 64.63C110.86 64.65 111.27 64.6701 111.69 64.6901C111.8 65.9301 112.04 67.1701 112 68.4101C111.82 73.6801 111.51 78.9501 111.36 84.2201C111.27 87.2901 111.74 87.79 114.75 87.81C124.17 87.86 133.59 87.87 143.01 87.81C146.42 87.79 146.87 87.17 146.41 83.67C145.73 78.57 144.95 73.48 144.29 68.38C144.14 67.18 144.29 65.9501 144.31 64.0501C146.49 65.4501 146.3 66.97 146.49 68.21C147.26 73.3 147.88 78.41 148.65 83.5C149.28 87.68 149.45 87.82 153.66 87.82C162.96 87.84 172.25 87.79 181.55 87.81C182.98 87.81 184.41 88.0201 186.02 88.1501C186.02 91.2401 186.04 93.86 186.02 96.49C185.99 99.98 185.99 103.19 188.68 106.24C191.55 109.49 189.35 115.08 185.14 115.73C181.63 116.27 177.97 115.84 174.52 115.84C173.84 113.82 173.36 112.12 172.7 110.5C169.76 103.31 162.15 98.55 154.43 99.03C149.83 99.31 146.46 102.6 146.1 107.18C145.76 111.4 147.56 114.97 151.76 116.39C156.35 117.94 161.21 118.73 165.97 119.78C167.26 120.06 168.61 120.06 170.09 120.2C170.01 121.08 170.04 121.58 169.91 122.03C167.96 129.11 161.84 133.59 154.49 133.35C147.26 133.11 141.54 128.14 140.07 120.83C139.13 116.15 139.13 116.12 134.29 116.12C112.31 116.11 90.32 116.1 68.34 116.12C67.22 116.12 66.02 116.07 64.99 116.43C64.34 116.66 63.52 117.64 63.56 118.23C63.6 118.82 64.55 119.62 65.25 119.8C66.31 120.09 67.49 119.95 68.62 119.95C89.35 119.95 110.07 119.95 130.8 119.95C132.4 119.95 134 119.95 135.42 119.95C140.08 132.37 145.32 137.17 154.57 137.2C165.88 137.23 171.91 130.67 174.59 119.92C177.8 119.92 180.93 120.1 184.03 119.88C192.14 119.31 196.55 110.39 191.82 103.77L191.83 103.75ZM105.18 83.7201H63.5C64.54 82.8601 65.21 82.2001 65.97 81.6901C71.88 77.6601 77.85 73.72 83.72 69.63C90.07 65.21 94.94 63.76 106 64.99C105.73 71.12 105.46 77.3001 105.18 83.7301V83.7201ZM115.18 83.77C115.46 77.43 115.73 71.28 116.01 64.84H139.88C140.75 70.96 141.62 77.09 142.57 83.77H115.19H115.18ZM181.21 84.0101C172.8 84.0101 164.39 84.0101 155.98 83.9801C152.68 83.9601 152.66 83.92 152.21 80.77C151.46 75.57 150.74 70.3701 149.92 64.6201C155.81 64.6201 161.07 64.5401 166.32 64.6901C167.46 64.7201 168.93 65.29 169.63 66.13C174.36 71.76 178.93 77.5301 183.9 83.6901C182.6 83.8501 181.9 84.02 181.21 84.02V84.0101ZM167.54 115.95C162.9 115.08 158.19 114.39 153.67 113.05C150.51 112.11 149.36 109.3 150.13 106.52C150.91 103.73 153.14 102.46 156.62 102.84C163.54 103.59 168.3 107.92 170.17 115.61C169.17 115.75 168.31 116.09 167.54 115.94V115.95Z" fill="#29D7DE"/>
<path d="M48.2199 118.07C48.2199 114.21 44.9199 110.79 41.1199 110.73C37.0299 110.66 33.6899 113.97 33.6899 118.08C33.6899 122.08 36.7699 125.27 40.7499 125.39C44.7799 125.51 48.2299 122.13 48.2299 118.07H48.2199ZM37.5899 117.86C37.6799 116.09 39.3099 114.56 41.0599 114.61C42.7699 114.66 44.3399 116.33 44.3299 118.09C44.3299 119.99 42.5099 121.66 40.6199 121.52C38.8999 121.39 37.4999 119.69 37.5899 117.86Z" fill="#29D7DE"/>
</svg>
