<svg width="20" height="20" viewBox="0 0 20 20" fill="none" xmlns="http://www.w3.org/2000/svg">
<path d="M13.3327 10.833H6.66602V12.4997H13.3327V10.833Z" fill="#29D7DE"/>
<path d="M18.1577 8.41667L17.4493 7.00833L16.6493 3.9C16.516 3.09167 15.8243 2.5 14.9993 2.5H4.98268C4.16602 2.5 3.47435 3.08333 3.35768 3.825L2.54935 7.01667L1.84102 8.425C1.72435 8.65833 1.66602 8.90833 1.66602 9.16667V15.8333C1.66602 16.75 2.41602 17.5 3.33268 17.5H5.00768C5.92435 17.5 6.67435 16.75 6.67435 15.8333H13.341C13.341 16.75 14.091 17.5 15.0077 17.5H16.6743C17.591 17.5 18.341 16.75 18.341 15.8333V9.16667C18.341 8.90833 18.2827 8.65 18.166 8.41667H18.1577ZM15.8327 10.8333H16.666V15.8333H14.9993V14.1667H4.99935V15.8333H3.33268V10.8333H4.16602C5.08268 10.8333 5.83268 10.0833 5.83268 9.16667H3.33268L4.07435 7.675L4.98268 4.16667L15.0243 4.24167L15.8577 7.50833L16.666 9.16667H14.166C14.166 10.0833 14.916 10.8333 15.8327 10.8333Z" fill="#29D7DE"/>
</svg>
