<svg width="20" height="20" viewBox="0 0 20 20" fill="none" xmlns="http://www.w3.org/2000/svg">
<path d="M9.13359 4.56686L8.69193 5.00853L7.21693 1.9502L5.71693 2.6752L7.44193 6.25853L2.98359 10.7169C2.33359 11.3669 2.33359 12.4252 2.98359 13.0752L6.92526 17.0169C7.25026 17.3419 7.67526 17.5002 8.10026 17.5002C8.52526 17.5002 8.95026 17.3336 9.27526 17.0169L15.4253 10.8669L9.12526 4.56686H9.13359ZM8.10859 15.8336L4.16693 11.8919L8.21692 7.84186L9.34193 10.1752C9.54193 10.5919 10.0419 10.7669 10.4503 10.5669C10.8669 10.3669 11.0419 9.86689 10.8419 9.45855L10.0669 7.85853L13.0753 10.8669L8.10859 15.8336Z" fill="#29D7DE"/>
<path d="M15.5078 11.4834C15.5078 11.4834 14.2578 13.2917 14.2578 13.9834C14.2578 14.6751 14.8161 15.2334 15.5078 15.2334C16.1995 15.2334 16.7578 14.6751 16.7578 13.9834C16.7578 13.2917 15.5078 11.4834 15.5078 11.4834Z" fill="#29D7DE"/>
</svg>
