<svg width="20" height="20" viewBox="0 0 20 20" fill="none" xmlns="http://www.w3.org/2000/svg">
<path d="M16.641 3.33301H8.64935C8.24935 3.33301 7.85768 3.47467 7.54935 3.74134L2.25768 8.27467C1.88268 8.59967 1.66602 9.06634 1.66602 9.55801V16.6663H16.641C17.5743 16.6663 18.3327 15.908 18.3327 14.9747V5.02467C18.3327 4.09134 17.5743 3.33301 16.641 3.33301ZM8.64935 4.99967L16.666 5.02467V8.33301H4.75768L8.65768 4.99967H8.64935ZM16.641 14.9997H3.33268V9.99967H16.666V14.9747C16.666 14.9747 16.6577 14.9997 16.641 14.9997Z" fill="#29D7DE"/>
<path d="M15.834 10.833H13.334V12.4997H15.834V10.833Z" fill="#29D7DE"/>
</svg>
