<svg width="20" height="20" viewBox="0 0 20 20" fill="none" xmlns="http://www.w3.org/2000/svg">
<path d="M16.666 5.83333V7.5H14.9993V6.66667C14.9993 5.75 14.2493 5 13.3327 5H11.666V4.16667H14.166V2.5H7.49935V4.16667H9.99935V5H8.33268C7.41602 5 6.66602 5.75 6.66602 6.66667V7.5H5.83268C4.90768 7.5 4.16602 8.25 4.16602 9.175V10H3.33268V7.5H1.66602V14.1667H3.33268V11.6667H4.16602V12.5C4.16602 13.4167 4.91602 14.1667 5.83268 14.1667H6.22435L7.39935 15.925C7.70768 16.3917 8.23268 16.6667 8.79102 16.6667H13.341C14.2577 16.6667 15.0077 15.9167 15.0077 15V14.1667H16.6743V15.8333H18.341V5.83333H16.6743H16.666ZM16.666 12.5H13.3327V15H8.77435L7.10768 12.5H5.82435V9.16667H8.32435V6.66667H13.3243V9.16667H16.6577V12.5H16.666Z" fill="#29D7DE"/>
</svg>
