<svg width="20" height="20" viewBox="0 0 20 20" fill="none" xmlns="http://www.w3.org/2000/svg">
<path d="M17.5 4.16667C17.5 3.25 16.75 2.5 15.8333 2.5C14.9167 2.5 14.1667 3.25 14.1667 4.16667C14.1667 4.78333 14.5 5.31667 15 5.6V9.16667H10.8333V5.6C11.3333 5.30833 11.6667 4.78333 11.6667 4.16667C11.6667 3.25 10.9167 2.5 10 2.5C9.08333 2.5 8.33333 3.25 8.33333 4.16667C8.33333 4.78333 8.66667 5.31667 9.16667 5.6V9.16667H5V5.6C5.5 5.30833 5.83333 4.78333 5.83333 4.16667C5.83333 3.25 5.08333 2.5 4.16667 2.5C3.25 2.5 2.5 3.25 2.5 4.16667C2.5 4.78333 2.83333 5.31667 3.33333 5.6V14.3917C2.83333 14.6833 2.5 15.2083 2.5 15.825C2.5 16.7417 3.25 17.4917 4.16667 17.4917C5.08333 17.4917 5.83333 16.7417 5.83333 15.825C5.83333 15.2083 5.5 14.675 5 14.3917V10.825H9.16667V14.3917C8.66667 14.6833 8.33333 15.2083 8.33333 15.825C8.33333 16.7417 9.08333 17.4917 10 17.4917C10.9167 17.4917 11.6667 16.7417 11.6667 15.825C11.6667 15.2083 11.3333 14.675 10.8333 14.3917V10.825H15C15.9167 10.825 16.6667 10.075 16.6667 9.15833V5.6C17.1667 5.30833 17.5 4.78333 17.5 4.16667Z" fill="#29D7DE"/>
</svg>
