<svg width="20" height="20" viewBox="0 0 20 20" fill="none" xmlns="http://www.w3.org/2000/svg">
<rect width="20" height="20" fill="white"/>
<path d="M15.0007 18.3333H5.00065C4.08398 18.3333 3.33398 17.5833 3.33398 16.6667V4.16667C3.33398 3.25 4.08398 2.5 5.00065 2.5H6.66732V4.16667H5.00065V16.6667H15.0007V4.16667H13.334V2.5H15.0007C15.9173 2.5 16.6673 3.25 16.6673 4.16667V16.6667C16.6673 17.5833 15.9173 18.3333 15.0007 18.3333Z" fill="#29D7DE"/>
<path d="M10.8333 1.66699H9.16667C8.25 1.66699 7.5 2.41699 7.5 3.33366V5.00033H12.5V3.33366C12.5 2.41699 11.75 1.66699 10.8333 1.66699Z" fill="#29D7DE"/>
<path d="M13.3327 6.66699H6.66602V8.33366H13.3327V6.66699Z" fill="#29D7DE"/>
<path d="M13.3327 10H6.66602V11.6667H13.3327V10Z" fill="#29D7DE"/>
<path d="M13.3327 13.333H6.66602V14.9997H13.3327V13.333Z" fill="#29D7DE"/>
</svg>
