<svg width="28" height="28" viewBox="0 0 28 28" fill="none" xmlns="http://www.w3.org/2000/svg">
<rect width="28" height="28" rx="4" fill="white"/>
<path fill-rule="evenodd" clip-rule="evenodd" d="M23.841 13.4564C23.7163 13.3289 23.5273 13.2616 23.2926 13.2616C22.4202 13.2608 21.5478 13.2608 20.6745 13.2608H20.6178C20.6307 13.2459 20.6436 13.2319 20.6573 13.2188L22.9015 10.9358C22.9445 10.8939 22.9866 10.8511 23.0227 10.803C23.18 10.5934 23.1998 10.362 23.0803 10.1331C22.9539 9.89208 22.7416 9.77679 22.5079 9.82483C22.3411 9.85977 22.1718 9.9506 22.054 10.0685C21.4988 10.6249 20.947 11.1847 20.3951 11.7446C19.9301 12.2162 19.466 12.6878 18.9993 13.1568C18.9451 13.2118 18.8428 13.2555 18.7664 13.2564C17.7195 13.2625 16.6717 13.2608 15.6257 13.2608H15.1417C15.1331 13.2608 15.1245 13.2599 15.116 13.259L15.2904 12.9498C15.8551 11.9489 16.419 10.9489 16.9897 9.95235C17.0181 9.90344 17.0963 9.85016 17.1694 9.8292C18.0366 9.58727 18.9039 9.34883 19.7711 9.10952C20.3075 8.96192 20.843 8.81519 21.3793 8.66671C21.7541 8.5619 21.9457 8.25534 21.8572 7.90249C21.8177 7.74441 21.7265 7.61864 21.5942 7.54003C21.4472 7.45269 21.2607 7.43261 21.069 7.48414C20.6582 7.59506 20.2473 7.70773 19.8373 7.82039L17.8871 8.35404C17.8957 8.33831 17.9051 8.32259 17.9137 8.30687L18.2489 7.71384C18.579 7.13129 18.909 6.54961 19.2305 5.96269C19.3096 5.82032 19.35 5.6439 19.3388 5.49193C19.3225 5.2465 19.1145 5.03165 18.8566 4.99235C18.5781 4.9478 18.3589 5.06134 18.2145 5.3155C17.9206 5.83255 17.6275 6.35047 17.3352 6.86927L16.8616 7.70773C16.8548 7.71995 16.8479 7.73131 16.8402 7.74353L16.6407 6.99416C16.4241 6.18016 16.2007 5.33996 15.9712 4.5146C15.9299 4.36962 15.8199 4.21153 15.685 4.10323C15.4993 3.95475 15.2243 3.96698 15.0154 4.13642C14.8005 4.30935 14.736 4.5443 14.8186 4.85435L15.1606 6.13911C15.4237 7.1243 15.6858 8.10861 15.9514 9.09293C15.9824 9.20821 15.972 9.29031 15.9145 9.38813C15.7709 9.63094 15.6325 9.87723 15.495 10.1244L14.002 12.7673L13.7545 12.3297C13.1898 11.3332 12.6251 10.3366 12.0672 9.3366C12.0397 9.28769 12.0337 9.18987 12.0535 9.11563C12.2864 8.22477 12.5236 7.33391 12.76 6.44393L13.1709 4.89278C13.1992 4.78797 13.225 4.67618 13.2173 4.56438C13.1992 4.27966 12.9706 4.04209 12.6861 4.01153C12.3844 3.98445 12.1214 4.16437 12.0354 4.47268C11.9435 4.80195 11.8566 5.13209 11.7698 5.4631L11.1622 7.74441C11.1527 7.72869 11.1441 7.71297 11.1355 7.69724L10.7882 7.085C10.4633 6.50943 10.1385 5.93386 9.81441 5.35742C9.73448 5.21593 9.59953 5.02379 9.33824 4.9906C9.09241 4.95916 8.8973 5.04475 8.76322 5.23602C8.61538 5.44913 8.60764 5.68757 8.74173 5.92513C9.19899 6.73477 9.65712 7.5444 10.1127 8.35404L9.06405 8.06669C8.35064 7.87018 7.63724 7.67541 6.92384 7.48064C6.72614 7.42562 6.53447 7.45269 6.38319 7.55575C6.24653 7.64746 6.158 7.79157 6.13479 7.96276C6.08666 8.31299 6.27489 8.57326 6.65223 8.67719L7.54097 8.92174C8.62913 9.22044 9.71729 9.52002 10.8063 9.81435C10.9232 9.84666 10.9928 9.90082 11.0539 10.01C11.5214 10.8458 11.9925 11.6782 12.4635 12.5114L12.8545 13.2031C12.8649 13.2215 12.8752 13.2407 12.8855 13.2608H12.3251C11.1604 13.2608 10.0233 13.2608 8.88355 13.2564C8.84401 13.2564 8.77869 13.2188 8.72712 13.1664C8.28016 12.7184 7.83665 12.2677 7.39314 11.8162L7.07339 11.4904C6.58432 10.9934 6.09611 10.4965 5.60619 10.0004C5.41623 9.80824 5.18588 9.75933 4.94091 9.85977C4.71572 9.95147 4.58593 10.1358 4.56788 10.3917C4.55069 10.6292 4.67962 10.7934 4.80683 10.9244C5.38959 11.5122 5.96976 12.1026 6.54908 12.6931L7.07081 13.2232C7.08285 13.2354 7.09488 13.2485 7.10605 13.2608L6.44766 13.2599C5.84857 13.2608 5.24948 13.2608 4.6504 13.2625C4.44325 13.2625 4.26361 13.3385 4.14328 13.4765C4.03326 13.604 3.98341 13.7726 4.00489 13.9525C4.04357 14.2774 4.30143 14.4896 4.66157 14.4914C5.23229 14.4931 5.80216 14.4931 6.37374 14.4931L7.11207 14.4922C7.08972 14.5106 7.06824 14.5298 7.04847 14.5499C6.29294 15.3159 5.53828 16.0827 4.78448 16.8504C4.55241 17.0862 4.5017 17.3605 4.64008 17.6199C4.73377 17.7945 4.88505 17.9055 5.06555 17.9325C5.26324 17.9561 5.47554 17.8819 5.64315 17.7124C6.65996 16.681 7.67592 15.6504 8.6893 14.6145C8.77783 14.5228 8.85604 14.4887 8.97638 14.4887C10.0155 14.494 11.0564 14.4931 12.0939 14.4931H13.0247L12.9396 14.6433C12.2941 15.7875 11.6486 16.9316 10.9988 18.0723C10.9774 18.109 10.9189 18.1491 10.8639 18.1649C10.3439 18.3125 9.82215 18.4548 9.30042 18.5972L8.31626 18.8671C7.73608 19.0269 7.15591 19.1867 6.57745 19.3501C6.29123 19.4313 6.12706 19.647 6.12792 19.9413C6.12878 20.2357 6.30498 20.468 6.56713 20.5221C6.72872 20.5553 6.90149 20.5248 7.01752 20.4942C7.76101 20.2942 8.50278 20.0898 9.24541 19.8846L10.1127 19.647C10.1015 19.6671 10.0903 19.6881 10.0792 19.7073L9.69236 20.3929C9.43364 20.8505 9.17579 21.3073 8.91965 21.765C8.8698 21.8541 8.8208 21.951 8.80103 22.0532C8.74602 22.3502 8.90676 22.6296 9.19298 22.7327C9.47748 22.8393 9.76714 22.7214 9.92787 22.4366C10.1883 21.9798 10.447 21.5213 10.7057 21.0628L11.1407 20.2924C11.1475 20.2802 11.1544 20.2697 11.1622 20.2575L11.359 20.999C11.5739 21.8069 11.7956 22.641 12.0242 23.4585C12.0689 23.6175 12.1867 23.7869 12.3311 23.9031C12.4136 23.9677 12.5133 24 12.6173 24C12.7471 24 12.8829 23.9502 12.9989 23.8506C13.2052 23.6751 13.2654 23.4402 13.1829 23.131C13.0265 22.5519 12.8726 21.9729 12.7187 21.3938C12.4978 20.5667 12.2778 19.7387 12.0543 18.9125C12.0225 18.7946 12.0346 18.7064 12.0973 18.5954C12.5133 17.8644 12.9276 17.1316 13.341 16.398L13.9625 15.2993C13.9745 15.2774 13.9874 15.2573 14.0012 15.2355L14.1387 15.4792C14.7421 16.5438 15.3446 17.6094 15.9411 18.6767C15.966 18.7212 15.9712 18.8086 15.954 18.8784C15.8371 19.3335 15.7159 19.7868 15.5938 20.24L15.4675 20.7125C15.2509 21.5196 15.0352 22.3283 14.8203 23.1371C14.7317 23.4742 14.8186 23.745 15.0678 23.8996C15.232 24.0017 15.4237 24.0218 15.593 23.9528C15.7769 23.8786 15.9162 23.71 15.9755 23.4917C16.156 22.82 16.3348 22.1467 16.5144 21.4741L16.8221 20.3169C16.8273 20.2968 16.8333 20.2767 16.8393 20.2549C16.8419 20.2593 16.8445 20.2645 16.847 20.2689L18.0332 22.3694C18.0486 22.3973 18.0641 22.4261 18.0813 22.4532C18.2721 22.7589 18.6211 22.8576 18.909 22.6882C19.2038 22.5152 19.2967 22.151 19.1248 21.8418C18.8403 21.3309 18.5523 20.8217 18.2644 20.3125L17.9146 19.695C17.9051 19.6785 17.8965 19.6619 17.8871 19.6453L18.7758 19.8889C19.515 20.0924 20.2533 20.2951 20.9934 20.4968C21.1025 20.5265 21.2435 20.5553 21.381 20.5396C21.6604 20.5021 21.8701 20.2558 21.877 19.9536C21.8856 19.6479 21.6965 19.4191 21.3578 19.3256L20.1923 19.0059C19.1901 18.7299 18.1879 18.4557 17.1874 18.1736C17.104 18.15 17.0103 18.0801 16.9699 18.0103C16.4164 17.046 15.8698 16.0775 15.3231 15.1089L15.012 14.5577C14.9999 14.5359 14.9887 14.515 14.9776 14.4922H15.7331C16.7585 14.4914 17.7831 14.4914 18.8093 14.4966C18.8643 14.4975 18.9486 14.5394 19.0036 14.5953C19.5176 15.1115 20.0273 15.6294 20.5378 16.1491L21.363 16.9901C21.6114 17.2443 21.8589 17.4976 22.1125 17.7465C22.2775 17.9081 22.501 17.9771 22.7073 17.9229C22.9032 17.874 23.0545 17.7299 23.1207 17.5264C23.2006 17.281 23.137 17.0522 22.9316 16.8452C22.3265 16.2338 21.724 15.6198 21.1206 15.0049L20.6685 14.5446C20.6521 14.5281 20.6358 14.5106 20.6186 14.4922H23.2986C23.7215 14.4922 23.9966 14.2529 24 13.8835C24.0008 13.7114 23.9458 13.5638 23.841 13.4564Z" fill="#184460"/>
</svg>
