<svg width="28" height="28" viewBox="0 0 28 28" fill="none" xmlns="http://www.w3.org/2000/svg">
<rect width="28" height="28" rx="4" fill="white"/>
<path fill-rule="evenodd" clip-rule="evenodd" d="M22.7501 3.625C22.7501 3.97018 22.4703 4.25 22.1251 4.25C21.78 4.25 21.5001 3.97018 21.5001 3.625C21.5001 3.27982 21.78 3 22.1251 3C22.4703 3 22.7501 3.27982 22.7501 3.625ZM19.6251 5.5C19.9703 5.5 20.2501 5.22018 20.2501 4.875C20.2501 4.52982 19.9703 4.25 19.6251 4.25C19.28 4.25 19.0001 4.52982 19.0001 4.875C19.0001 5.22018 19.28 5.5 19.6251 5.5ZM19.6251 8C19.9703 8 20.2501 7.72018 20.2501 7.375C20.2501 7.02982 19.9703 6.75 19.6251 6.75C19.28 6.75 19.0001 7.02982 19.0001 7.375C19.0001 7.72018 19.28 8 19.6251 8ZM22.7501 8.625C22.7501 8.97018 22.4703 9.25 22.1251 9.25C21.78 9.25 21.5001 8.97018 21.5001 8.625C21.5001 8.27982 21.78 8 22.1251 8C22.4703 8 22.7501 8.27982 22.7501 8.625ZM22.1251 6.75C22.4703 6.75 22.7501 6.47018 22.7501 6.125C22.7501 5.77982 22.4703 5.5 22.1251 5.5C21.78 5.5 21.5001 5.77982 21.5001 6.125C21.5001 6.47018 21.78 6.75 22.1251 6.75ZM17.2271 4.6421C17.2301 5.4361 17.2301 6.2401 17.2271 7.0331C17.2251 7.4451 16.9981 7.6731 16.5871 7.6761C16.1861 7.6781 15.5811 7.6781 14.7691 7.6761H14.7541L13.7551 8.3471L13.7331 8.3611V8.3881C13.7331 9.5871 14.4361 10.8891 15.8261 12.2581C14.4361 11.7691 13.1961 10.8381 12.1351 9.4891L12.1061 9.4521L10.9391 10.2351V10.2621C10.9351 10.9041 10.9371 11.4021 10.9451 11.7411C10.9471 11.8301 11.0471 11.9191 11.1061 11.9641C11.4011 12.1851 11.6951 12.4071 11.9881 12.6291L11.9984 12.6368C12.995 13.3893 14.0248 14.1668 15.0501 14.9161C15.6941 15.3881 15.9891 15.9761 15.9761 16.7681C15.9621 17.6711 15.9651 19.3891 15.9681 20.9051L15.9683 21.0279C15.9692 21.7892 15.9701 22.477 15.9691 22.9411C15.9661 23.7601 15.6121 24.3401 14.9171 24.6651C14.6701 24.7801 14.3611 24.8491 14.0711 24.8501C11.9038 24.868 8.73052 24.8611 7.32296 24.858L6.90713 24.8571C5.79113 24.8531 5.01013 24.0751 5.00613 22.9651C4.99813 20.3961 4.99913 15.8461 5.00713 13.4161C5.01013 12.6381 5.37713 12.0641 6.09613 11.7111C6.15013 11.6841 6.25313 11.6141 6.25413 11.5361C6.26113 11.2561 6.26313 10.8331 6.26113 10.2431V10.1921L6.21013 10.1931C5.94713 10.1951 5.74413 10.1941 5.61113 10.1921C5.24713 10.1831 5.01013 9.9511 5.00613 9.5981V9.5561L5.00563 9.48898C4.99976 8.7059 4.99371 7.89838 5.01413 7.1041C5.01813 6.9621 5.10213 6.7751 5.21313 6.6611C5.61305 6.24927 6.28281 5.8335 6.93214 5.4304L6.94713 5.4211C7.58613 5.0251 8.24713 4.6151 8.65313 4.2081C8.79313 4.0681 8.95913 4.0001 9.16213 4.0001C10.7365 4.00265 12.3112 4.00236 13.8858 4.00207C14.7855 4.0019 15.6855 4.00174 16.5851 4.0021C16.9911 4.0021 17.2251 4.2361 17.2271 4.6421ZM16.0581 6.5011H14.7251V5.1701H16.0581V6.5011ZM13.5491 6.7631C13.5491 6.8071 13.5491 6.8421 10.2791 9.0221L10.2661 9.0311H10.2511C9.7769 9.0311 9.33483 9.03139 8.92446 9.03165H8.92259C8.56815 9.03188 8.23654 9.0321 7.92913 9.0321C7.56414 9.0321 7.23249 9.0318 6.93434 9.03153C6.6909 9.0313 6.4698 9.0311 6.27113 9.0311C6.25213 9.0311 6.23713 9.0241 6.22013 9.0161L6.21073 9.0116L6.19513 9.0041L6.16413 8.9911L6.16313 8.6071L6.1631 8.46154C6.16299 8.11928 6.16288 7.76877 6.16813 7.4221C6.16813 7.3511 6.22413 7.2801 6.27013 7.2331C6.60513 6.8961 7.20013 6.5581 7.77713 6.2311C8.33813 5.9131 8.91913 5.5831 9.24113 5.2641C9.29113 5.2141 9.37613 5.1651 9.45313 5.1651C10.6021 5.1601 11.7551 5.1571 12.9161 5.1611H13.5531V5.5801L13.5532 5.75484C13.5533 6.09893 13.5534 6.42924 13.5491 6.7631ZM14.4631 15.9321C13.8241 15.4551 13.1871 14.9771 12.5501 14.4991L11.9888 14.0785L11.9879 14.0778C11.4266 13.657 10.8652 13.2362 10.3021 12.8171C10.2191 12.7551 10.0981 12.7161 9.98813 12.7151C9.92213 12.7141 9.84713 12.7131 9.76313 12.7121V10.2101H7.43213V12.7091H6.97513C6.41313 12.7101 6.16213 12.9621 6.16213 13.5271L6.16313 19.1751H14.8111L14.8101 18.4211V18.4072C14.8091 17.7975 14.8082 17.2205 14.8141 16.6311C14.8161 16.3351 14.7051 16.1131 14.4631 15.9321ZM14.8051 23.0671C14.7811 23.4431 14.4941 23.6971 14.0901 23.6991C13.7801 23.7011 13.4691 23.7011 13.1591 23.7011H12.4621L11.7641 23.7001H6.97213C6.42113 23.7001 6.16413 23.4461 6.16213 22.9011V20.7021V20.3571H14.8081L14.8091 20.7211C14.8121 21.4261 14.8171 22.8921 14.8051 23.0671Z" fill="#184460"/>
</svg>
