<svg width="28" height="28" viewBox="0 0 28 28" fill="none" xmlns="http://www.w3.org/2000/svg">
<rect width="28" height="28" rx="4" fill="white"/>
<path fill-rule="evenodd" clip-rule="evenodd" d="M14 24C8.47715 24 4 19.5228 4 14C4 8.47715 8.47715 4 14 4C19.5228 4 24 8.47715 24 14C24 19.5228 19.5228 24 14 24ZM14 22.9474C18.9415 22.9474 22.9474 18.9415 22.9474 14C22.9474 9.05851 18.9415 5.05263 14 5.05263C9.05851 5.05263 5.05263 9.05851 5.05263 14C5.05263 18.9415 9.05851 22.9474 14 22.9474ZM14 17.6842C11.9653 17.6842 10.3158 16.0347 10.3158 14C10.3158 11.9653 11.9653 10.3158 14 10.3158C16.0347 10.3158 17.6842 11.9653 17.6842 14C17.6842 16.0347 16.0347 17.6842 14 17.6842ZM14 16.6316C15.4534 16.6316 16.6316 15.4534 16.6316 14C16.6316 12.5466 15.4534 11.3684 14 11.3684C12.5466 11.3684 11.3684 12.5466 11.3684 14C11.3684 15.4534 12.5466 16.6316 14 16.6316ZM14 9.26316C13.128 9.26316 12.4211 8.55624 12.4211 7.68421C12.4211 6.81218 13.128 6.10526 14 6.10526C14.872 6.10526 15.5789 6.81218 15.5789 7.68421C15.5789 8.55624 14.872 9.26316 14 9.26316ZM17.3495 8.41758C16.7328 9.0342 16.7328 10.0339 17.3495 10.6505C17.9661 11.2672 18.9658 11.2672 19.5824 10.6505C20.199 10.0339 20.199 9.0342 19.5824 8.41758C18.9658 7.80096 17.9661 7.80096 17.3495 8.41758ZM18.7368 14C18.7368 13.128 19.4438 12.4211 20.3158 12.4211C21.1878 12.4211 21.8947 13.128 21.8947 14C21.8947 14.872 21.1878 15.5789 20.3158 15.5789C19.4438 15.5789 18.7368 14.872 18.7368 14ZM19.5824 17.3495C18.9658 16.7328 17.9661 16.7328 17.3495 17.3495C16.7328 17.9661 16.7328 18.9658 17.3495 19.5824C17.9661 20.199 18.9658 20.199 19.5824 19.5824C20.199 18.9658 20.199 17.9661 19.5824 17.3495ZM14 18.7368C14.872 18.7368 15.5789 19.4438 15.5789 20.3158C15.5789 21.1878 14.872 21.8947 14 21.8947C13.128 21.8947 12.4211 21.1878 12.4211 20.3158C12.4211 19.4438 13.128 18.7368 14 18.7368ZM10.6505 19.5824C11.2672 18.9658 11.2672 17.9661 10.6505 17.3495C10.0339 16.7328 9.0342 16.7328 8.41758 17.3495C7.80096 17.9661 7.80096 18.9658 8.41758 19.5824C9.0342 20.199 10.0339 20.199 10.6505 19.5824ZM9.26316 14C9.26316 14.872 8.55624 15.5789 7.68421 15.5789C6.81218 15.5789 6.10526 14.872 6.10526 14C6.10526 13.128 6.81218 12.4211 7.68421 12.4211C8.55624 12.4211 9.26316 13.128 9.26316 14ZM8.41758 10.6505C9.0342 11.2672 10.0339 11.2672 10.6505 10.6505C11.2672 10.0339 11.2672 9.0342 10.6505 8.41758C10.0339 7.80096 9.0342 7.80096 8.41758 8.41758C7.80096 9.0342 7.80096 10.0339 8.41758 10.6505Z" fill="#184460"/>
</svg>
