<svg width="28" height="28" viewBox="0 0 28 28" fill="none" xmlns="http://www.w3.org/2000/svg">
<rect width="28" height="28" rx="4" fill="white"/>
<path fill-rule="evenodd" clip-rule="evenodd" d="M8.98785 16.2169C10.5293 16.2169 11.7833 17.4709 11.7833 19.0124C11.7833 20.5538 10.5293 21.8078 8.98785 21.8078C7.4464 21.8078 6.19241 20.5538 6.19241 19.0124C6.19241 17.4709 7.4464 16.2169 8.98785 16.2169ZM8.98785 20.6376C9.88414 20.6376 10.6131 19.9085 10.6131 19.0124C10.6131 18.1161 9.88414 17.3871 8.98785 17.3871C8.09171 17.3871 7.36258 18.1161 7.36258 19.0124C7.36258 19.9085 8.09171 20.6376 8.98785 20.6376ZM15.6196 10.4095C14.4766 10.4095 13.5467 9.47958 13.5467 8.33659C13.5467 7.19359 14.4766 6.26371 15.6196 6.26371C16.7626 6.26371 17.6925 7.19359 17.6925 8.33659C17.6925 9.47958 16.7626 10.4095 15.6196 10.4095ZM15.6196 7.43388C15.1217 7.43388 14.7169 7.8389 14.7169 8.33659C14.7169 8.83442 15.1217 9.23929 15.6196 9.23929C16.1173 9.23929 16.5223 8.83442 16.5223 8.33659C16.5223 7.8389 16.1173 7.43388 15.6196 7.43388ZM23.966 17.8617C23.966 18.9221 23.2777 19.8244 22.3246 20.1465L22.3083 20.1522C22.2788 20.1618 22.2489 20.1709 22.2188 20.1796L10.5275 23.7744L10.5239 23.763C10.0397 23.9199 9.52355 24.0051 8.98785 24.0051C6.23485 24.0051 3.99512 21.7654 3.99512 19.0124C3.99512 18.0043 4.29571 17.0653 4.81157 16.2797L4.81004 16.2786L4.90866 16.1368C4.91187 16.1324 4.91477 16.1279 4.91797 16.1235L12.0107 5.92281L12.0121 5.92373C12.7919 4.76165 14.1178 3.99512 15.6196 3.99512C17.5685 3.99512 19.2214 5.28605 19.7687 7.05757L23.6653 16.6969C23.8567 17.0424 23.966 17.4395 23.966 17.8617ZM19.9435 19.6551C19.4521 19.2131 19.1425 18.573 19.1423 17.8617C19.1423 16.5317 20.2244 15.4498 21.5542 15.4498C21.675 15.4498 21.7936 15.4591 21.9096 15.4762L19.6627 9.91804C19.0293 11.5321 17.4557 12.678 15.6196 12.678C13.4377 12.678 11.6269 11.0603 11.3231 8.96144L7.68608 14.1922C8.10133 14.0798 8.53764 14.0196 8.98785 14.0196C11.7408 14.0196 13.9806 16.2594 13.9806 19.0124C13.9806 20.0174 13.6818 20.9538 13.1689 21.738L19.9435 19.6551ZM15.6196 5.16529C13.871 5.16529 12.4483 6.58797 12.4483 8.33659C12.4483 10.0852 13.871 11.5079 15.6196 11.5079C17.3682 11.5079 18.7909 10.0852 18.7909 8.33659C18.7909 6.58797 17.3682 5.16529 15.6196 5.16529ZM5.16529 19.0124C5.16529 21.1201 6.88017 22.8349 8.98785 22.8349C11.0957 22.8349 12.8104 21.1201 12.8104 19.0124C12.8104 16.9045 11.0957 15.1898 8.98785 15.1898C7.71096 15.1898 6.57835 15.8192 5.88388 16.7841L5.8106 16.8893C5.40329 17.497 5.16529 18.2274 5.16529 19.0124ZM21.9579 19.0356C22.4449 18.8676 22.7959 18.4051 22.7959 17.8617C22.7959 17.177 22.2389 16.62 21.5542 16.62C20.8695 16.62 20.3126 17.177 20.3126 17.8616C20.3126 18.5463 20.8695 19.1034 21.5542 19.1034C21.6652 19.1034 21.7727 19.0886 21.8751 19.0611L21.9579 19.0356Z" fill="#184460"/>
</svg>
