<svg width="28" height="28" viewBox="0 0 28 28" fill="none" xmlns="http://www.w3.org/2000/svg">
<rect width="28" height="28" rx="4" fill="white"/>
<path fill-rule="evenodd" clip-rule="evenodd" d="M21.4597 13.9926C21.5731 13.9872 21.6768 13.9447 21.7623 13.8745L21.7621 13.9753C21.7603 14.562 21.7595 15.1678 21.7655 15.7641C21.7698 16.2204 21.5778 16.5246 21.1422 16.7484C20.7014 16.9757 20.1264 17.2825 19.5797 17.6471C18.879 18.1181 18.2583 18.7395 17.684 19.5466L17.6808 19.5512C17.5344 19.7574 17.3687 19.9909 17.2209 20.231C16.9996 20.5853 16.6828 20.7582 16.2515 20.7582H16.2481C15.9717 20.7573 15.6954 20.7573 15.4182 20.7573C15.1107 20.7576 14.8032 20.7581 14.4957 20.7586C13.8795 20.7595 13.2625 20.7605 12.6453 20.7599L11.2346 20.76C9.82268 20.7602 8.40857 20.7603 6.99445 20.759C6.46329 20.759 6.23601 20.5318 6.23601 20.0012C6.2352 17.9567 6.23516 15.9131 6.23515 13.8695C6.27986 13.9051 6.32983 13.9335 6.38411 13.9529C6.49486 13.9926 6.61793 13.9963 6.72376 13.9963C10.7278 13.9982 16.6123 13.9982 20.6183 13.9982H20.6245H20.6319C20.7787 13.9991 20.9232 14 21.0733 14C21.2012 14 21.3309 13.9991 21.4597 13.9926ZM21.522 12.6961C21.6088 12.7126 21.688 12.7501 21.7558 12.8034C21.7522 12.7678 21.7472 12.7335 21.7405 12.7006C21.614 12.0698 21.3316 11.5608 20.8779 11.1451C20.0324 10.369 19.1769 9.57517 18.3463 8.80437L18.1997 8.66836C18.0222 8.50383 17.8448 8.33923 17.6675 8.17464C17.2505 7.78768 16.8337 7.4008 16.4151 7.01519C16.0631 6.68946 15.6672 6.46602 15.2323 6.34666C15.2321 8.08356 15.2333 12.6749 15.2333 12.6749H15.4073C17.0407 12.6749 19.6162 12.6758 21.2496 12.6767C21.3325 12.6767 21.4301 12.6786 21.522 12.6961ZM14.5022 5.00858C14.521 5.00869 14.5398 5.00891 14.5585 5.00925C14.6348 4.99423 14.7096 4.99753 14.7822 5.01895C15.6973 5.08204 16.5074 5.43037 17.1925 6.05682C18.8092 7.53197 20.3726 8.98465 21.8404 10.3725C22.1365 10.6542 22.3621 11.0224 22.5609 11.3473C22.813 11.7582 22.9107 12.2448 22.9972 12.6753L22.9991 12.6851L23 12.6937V15.9948C22.9961 16.02 22.9922 16.038 22.9883 16.056L22.9871 16.0614C22.9793 16.0977 22.9725 16.134 22.9673 16.1711C22.8743 16.8391 22.5463 17.3455 21.9893 17.6748C21.7801 17.7984 21.5658 17.909 21.3084 18.0378C20.673 18.3523 20.085 18.7619 19.5608 19.258C19.0528 19.7367 18.6551 20.2984 18.3013 20.8334C17.9983 21.2922 17.7021 21.5774 17.3371 21.7606C16.9247 21.9663 16.4771 21.9957 16.0923 21.9965C14.2405 21.9991 12.6066 22 11.1043 22C9.60207 22 8.23326 21.9991 6.91009 21.9965C5.80385 21.994 5.00151 21.1782 5.00065 20.0582C4.99978 15.6863 4.99978 11.3145 5.00065 6.94347C5.00151 5.8209 5.8116 5.00512 6.92902 5.00426L8.08433 5.00253L8.38587 5.00215C10.3956 4.99964 12.4641 4.99706 14.5022 5.00858ZM14.0569 12.4736C14.0569 10.9804 14.0569 8.02638 14.0563 6.2435C13.1139 6.24176 12.1708 6.24176 11.2317 6.24176C9.84139 6.24262 8.41319 6.24349 7.0065 6.23571H6.99962C6.76029 6.23571 6.56229 6.30743 6.42885 6.44225C6.29541 6.57619 6.2274 6.76631 6.22913 7.00569C6.24032 8.5759 6.2386 10.1729 6.23687 11.7172C6.23635 12.081 6.23582 12.4449 6.23549 12.8087C6.30521 12.7518 6.38754 12.7123 6.47846 12.6952C6.56788 12.6795 6.66223 12.6767 6.75002 12.6767C8.80599 12.6758 11.8032 12.6758 13.8591 12.6758H14.0569V12.4736ZM9.74091 15.0006C9.93876 14.9999 10.1366 14.9992 10.3336 15.002C10.7212 15.0076 10.9954 15.2073 10.9999 15.4881C11.0063 15.7751 10.7348 15.9881 10.3563 15.9937C10.0975 15.9979 9.83697 16 9.57461 16C9.25869 16 8.94095 15.9972 8.62503 15.9916C8.44982 15.9881 8.28914 15.9337 8.17203 15.8394C8.05492 15.7437 7.9941 15.618 8.00045 15.4846C8.01135 15.2115 8.28732 15.009 8.6559 15.0027C8.85108 14.9992 9.0508 14.9999 9.24598 15.0013C9.28854 15.0013 9.33132 15.0015 9.37421 15.0017C9.41733 15.0018 9.46057 15.002 9.5038 15.002L9.74091 15.0006Z" fill="#184460"/>
</svg>
