<svg width="28" height="28" viewBox="0 0 28 28" fill="none" xmlns="http://www.w3.org/2000/svg">
<rect width="28" height="28" rx="4" fill="white"/>
<path fill-rule="evenodd" clip-rule="evenodd" d="M13.4317 21.39C13.1177 21.39 12.8632 21.1355 12.8632 20.8215C12.8632 20.5076 13.1177 20.253 13.4317 20.253C13.7456 20.253 14.0001 20.5076 14.0001 20.8215C14.0001 21.1355 13.7456 21.39 13.4317 21.39ZM7.17856 15.1369C6.86461 15.1369 6.6101 14.8823 6.6101 14.5684C6.6101 14.2544 6.86461 13.9999 7.17856 13.9999C7.49252 13.9999 7.74703 14.2544 7.74703 14.5684C7.74703 14.8823 7.49252 15.1369 7.17856 15.1369ZM9.01016 19.5584C8.69621 19.5584 8.4417 19.3039 8.4417 18.9899C8.4417 18.676 8.69621 18.4214 9.01016 18.4214C9.32412 18.4214 9.57863 18.676 9.57863 18.9899C9.57863 19.3039 9.32412 19.5584 9.01016 19.5584ZM9.01016 10.6774C8.69621 10.6774 8.4417 10.4229 8.4417 10.109C8.4417 9.795 8.69621 9.54049 9.01016 9.54049C9.32412 9.54049 9.57863 9.795 9.57863 10.109C9.57863 10.4229 9.32412 10.6774 9.01016 10.6774ZM17.8532 19.5584C17.5392 19.5584 17.2847 19.3039 17.2847 18.9899C17.2847 18.676 17.5392 18.4214 17.8532 18.4214C18.1672 18.4214 18.4217 18.676 18.4217 18.9899C18.4217 19.3039 18.1672 19.5584 17.8532 19.5584ZM14.0001 4.2981C19.3337 4.2981 23.702 8.66559 23.702 13.9999C23.702 14.3139 23.4474 14.5684 23.1335 14.5684H22.5271C22.5271 19.6045 18.4469 23.7017 13.4317 23.7017C8.40422 23.7017 4.29834 19.5962 4.29834 14.5684C4.29834 9.54086 8.40387 5.43503 13.4317 5.43503V4.86656C13.4317 4.55261 13.6862 4.2981 14.0001 4.2981ZM13.4317 22.5648C17.82 22.5648 21.3902 18.9738 21.3902 14.5646H19.6848C19.3708 14.5646 19.1163 14.3139 19.1163 13.9999C19.1163 11.1579 16.8212 8.84583 14.0001 8.84583C13.6862 8.84583 13.4317 8.59131 13.4317 8.27736V6.57196C9.02244 6.57196 5.43527 10.1591 5.43527 14.5684C5.43527 18.9776 9.02244 22.5648 13.4317 22.5648ZM20.2279 13.4315H22.5464C22.265 9.16091 18.8391 5.73503 14.5686 5.45368V7.73463C17.5674 8.00753 19.9598 10.4358 20.2279 13.4315ZM13.4317 9.98276C15.9393 9.98276 17.9794 12.0398 17.9794 14.5684C17.9794 17.076 15.9393 19.1161 13.4317 19.1161C10.9241 19.1161 8.88396 17.076 8.88396 14.5684C8.88396 12.0398 10.9241 9.98276 13.4317 9.98276ZM13.4317 17.9792C15.3124 17.9792 16.8425 16.4491 16.8425 14.5684C16.8425 12.6668 15.3124 11.1197 13.4317 11.1197C11.551 11.1197 10.0209 12.6668 10.0209 14.5684C10.0209 16.4491 11.551 17.9792 13.4317 17.9792ZM13.4317 12.2945C14.6855 12.2945 15.7055 13.3146 15.7055 14.5684C15.7055 15.8222 14.6855 16.8422 13.4317 16.8422C12.1779 16.8422 11.1578 15.8222 11.1578 14.5684C11.1578 13.3146 12.1779 12.2945 13.4317 12.2945ZM13.4317 15.7053C14.0586 15.7053 14.5686 15.1953 14.5686 14.5684C14.5686 13.9415 14.0586 13.4315 13.4317 13.4315C12.8048 13.4315 12.2948 13.9415 12.2948 14.5684C12.2948 15.1953 12.8048 15.7053 13.4317 15.7053Z" fill="#00343F"/>
</svg>
