<svg width="28" height="28" viewBox="0 0 28 28" fill="none" xmlns="http://www.w3.org/2000/svg">
<rect width="28" height="28" rx="4" fill="white"/>
<g clip-path="url(#clip0_262_54282)">
<mask id="mask0_262_54282" style="mask-type:luminance" maskUnits="userSpaceOnUse" x="2" y="2" width="24" height="24">
<path d="M26 2H2V26H26V2Z" fill="white"/>
</mask>
<g mask="url(#mask0_262_54282)">
<path fill-rule="evenodd" clip-rule="evenodd" d="M23.4491 2.02048C23.6308 1.97117 23.8251 2.01208 23.9715 2.13047C24.1247 2.23712 24.2169 2.41126 24.219 2.59792V6.0259C24.2169 6.21256 24.1247 6.38669 23.9715 6.49335C23.8735 6.56604 23.7544 6.60467 23.6324 6.60334H23.4491L19.9753 5.42096C19.7372 5.34435 19.5772 5.12109 19.5811 4.87102H19.0312V7.0158C20.4326 7.67743 21.328 9.08656 21.3318 10.6363V21.6351C21.3422 21.9608 21.089 22.2344 20.7635 22.2492H16.5043C16.3343 22.297 16.1551 22.3226 15.9698 22.3226H4.97097C3.88262 22.3226 3.00034 21.4403 3.00034 20.3519V13.0194C2.9905 12.4904 3.19376 11.9797 3.5644 11.6021C3.93504 11.2246 4.44191 11.012 4.97097 11.0121H13.3209V10.6729C13.313 9.66542 13.6825 8.71421 14.3241 7.98618C14.6822 7.57572 15.1258 7.24014 15.6307 7.00663V4.87102H14.4575C13.6966 4.87586 12.9688 5.18278 12.4343 5.72424C11.8997 6.2657 11.6021 6.99735 11.607 7.75822H10.4704C10.4631 6.69602 10.8799 5.67481 11.6284 4.92113C12.377 4.16745 13.3953 3.74361 14.4575 3.74363H19.6178C19.6138 3.49356 19.7739 3.2703 20.0119 3.19369L23.4491 2.02048ZM20.1952 21.1127H17.7883C17.8863 20.8786 17.9405 20.6216 17.9405 20.3519V13.0194C17.9503 12.4904 17.7471 11.9797 17.3764 11.6021C17.0058 11.2246 16.4989 11.012 15.9698 11.0121H14.4942V10.6271C14.4942 10.0395 14.6708 9.4932 14.9739 9.03834C15.6367 8.06666 16.8418 7.58898 18.0092 7.87194C19.2965 8.18395 20.2011 9.33917 20.1952 10.6638V21.1127ZM16.7581 6.65833C17.1345 6.59725 17.5183 6.59725 17.8946 6.65833V4.87102H16.7581V6.65833ZM23.0824 5.23765L20.7819 4.47689V4.15609L23.0824 3.38617V5.23765ZM4.97097 12.2403C4.5407 12.2403 4.19189 12.5891 4.19189 13.0194V20.3519C4.19189 20.7822 4.5407 21.131 4.97097 21.131H15.9698C16.4001 21.131 16.7489 20.7822 16.7489 20.3519V13.0194C16.7489 12.5891 16.4001 12.2403 15.9698 12.2403H4.97097ZM10 14H11V16H13V17H11V19H10V17H8V16H10V14Z" fill="#184460"/>
</g>
</g>
<defs>
<clipPath id="clip0_262_54282">
<rect width="24" height="24" fill="white" transform="translate(2 2)"/>
</clipPath>
</defs>
</svg>
