<svg width="28" height="28" viewBox="0 0 28 28" fill="none" xmlns="http://www.w3.org/2000/svg">
<rect width="28" height="28" rx="4" fill="white"/>
<path fill-rule="evenodd" clip-rule="evenodd" d="M18.264 21.8625C19.286 21.3075 20.18 20.5675 20.922 19.6615L19.545 17.3695C19.187 17.9595 18.739 18.4845 18.213 18.9345L18.264 21.8625ZM22.936 14.2643C22.938 14.1823 22.94 14.1004 22.94 14.0185C22.94 12.9315 22.745 11.8695 22.361 10.8605L19.684 10.9075C20.019 11.5135 20.251 12.1645 20.376 12.8455L22.936 14.2643ZM11.854 20.1125L9.348 21.6175C10.341 22.2305 11.428 22.6365 12.58 22.8245L13.877 20.4835C13.185 20.4695 12.505 20.3445 11.854 20.1125ZM10.667 19.5455C10.076 19.1855 9.55 18.7385 9.102 18.2135L6.174 18.2645C6.73 19.2875 7.469 20.1815 8.375 20.9225L10.667 19.5455ZM9.823 9.10251L9.773 6.17451C8.748 6.72951 7.855 7.46951 7.114 8.37451L8.491 10.6675C8.85 10.0775 9.297 9.55151 9.823 9.10251ZM14.264 5.10051C13.097 5.06551 11.946 5.26251 10.861 5.67451L10.907 8.35151C11.514 8.01751 12.165 7.78551 12.845 7.66051L14.264 5.10051ZM15.456 5.21351L14.159 7.55351C14.854 7.56851 15.533 7.69251 16.183 7.92451L18.689 6.41951C17.694 5.80551 16.608 5.40051 15.456 5.21351ZM19.388 14.0185C19.388 11.0575 16.979 8.64951 14.018 8.64951C11.058 8.64951 8.649 11.0575 8.649 14.0185C8.649 16.9785 11.058 19.3885 14.018 19.3885C16.979 19.3885 19.388 16.9785 19.388 14.0185ZM17.369 8.49151C17.959 8.85051 18.484 9.29751 18.935 9.82351L21.862 9.77251C21.313 8.76151 20.555 7.84651 19.661 7.11451L17.369 8.49151ZM6.419 9.34851C5.805 10.3435 5.4 11.4295 5.212 12.5795L7.553 13.8775C7.568 13.1855 7.693 12.5055 7.924 11.8535L6.419 9.34851ZM5.674 17.1755L8.353 17.1295C8.018 16.5225 7.785 15.8715 7.66 15.1915L5.101 13.7725C5.098 13.8535 5.097 13.9355 5.097 14.0185C5.097 15.1055 5.291 16.1675 5.674 17.1755ZM13.772 22.9355C14.935 22.9625 16.091 22.7735 17.175 22.3615L17.129 19.6835C16.523 20.0185 15.872 20.2515 15.192 20.3765L13.772 22.9355ZM21.617 18.6885C22.231 17.6955 22.636 16.6095 22.824 15.4565L20.484 14.1595C20.469 14.8515 20.344 15.5315 20.112 16.1825L21.617 18.6885ZM4 14.0185C4 8.49451 8.494 3.99951 14.018 3.99951C19.542 3.99951 24.036 8.49451 24.036 14.0185C24.036 19.5425 19.542 24.0355 14.018 24.0355C8.494 24.0355 4 19.5425 4 14.0185ZM15.6294 16.8208L16.8204 15.6288C17.0334 15.4158 17.3824 15.4158 17.5954 15.6288C17.8094 15.8428 17.8094 16.1908 17.5964 16.4048L16.4044 17.5958C16.2994 17.6998 16.1624 17.7558 16.0164 17.7558C15.8714 17.7558 15.7334 17.6998 15.6294 17.5968C15.4154 17.3818 15.4154 17.0338 15.6294 16.8208ZM11.6319 17.597C11.7359 17.7 11.8739 17.756 12.0199 17.756C12.1649 17.756 12.3029 17.7 12.4079 17.596C12.6209 17.382 12.6209 17.034 12.4069 16.821L11.2159 15.629C11.0029 15.416 10.6539 15.416 10.4399 15.629C10.2269 15.843 10.2269 16.191 10.4409 16.405L11.6319 17.597ZM11.2162 12.4072C11.1122 12.5112 10.9742 12.5682 10.8282 12.5682C10.6822 12.5682 10.5442 12.5112 10.4402 12.4072C10.2262 12.1932 10.2262 11.8462 10.4392 11.6312L11.6322 10.4412C11.8362 10.2352 12.1992 10.2332 12.4072 10.4412C12.5112 10.5442 12.5682 10.6822 12.5682 10.8282C12.5682 10.9752 12.5112 11.1122 12.4072 11.2162L11.2162 12.4072ZM13.0577 14.0184C13.0577 13.4894 13.4887 13.0594 14.0177 13.0594C14.5467 13.0594 14.9777 13.4894 14.9777 14.0184C14.9777 14.5474 14.5467 14.9774 14.0177 14.9774C13.4887 14.9774 13.0577 14.5474 13.0577 14.0184ZM11.9617 14.0184C11.9617 15.1524 12.8837 16.0754 14.0177 16.0754C15.1517 16.0754 16.0747 15.1524 16.0747 14.0184C16.0747 12.8844 15.1517 11.9614 14.0177 11.9614C12.8837 11.9614 11.9617 12.8844 11.9617 14.0184ZM17.2084 12.5686C17.0614 12.5686 16.9244 12.5116 16.8204 12.4076L15.6294 11.2166C15.5254 11.1126 15.4674 10.9746 15.4674 10.8286C15.4674 10.6816 15.5254 10.5446 15.6294 10.4406C15.8334 10.2346 16.1974 10.2326 16.4044 10.4406L17.5954 11.6316C17.8094 11.8456 17.8094 12.1936 17.5954 12.4076C17.4924 12.5116 17.3544 12.5686 17.2084 12.5686Z" fill="#184460"/>
</svg>
