<svg width="28" height="28" viewBox="0 0 28 28" fill="none" xmlns="http://www.w3.org/2000/svg">
<rect width="28" height="28" rx="4" fill="white"/>
<path fill-rule="evenodd" clip-rule="evenodd" d="M20.5563 7.40662C20.2424 7.40662 19.9878 7.1521 19.9878 6.83813C19.9878 6.52417 20.2424 6.26965 20.5563 6.26965C20.8703 6.26965 21.1248 6.52417 21.1248 6.83813C21.1248 7.1521 20.8703 7.40662 20.5563 7.40662ZM22.5662 4.82804C23.1031 5.36488 23.3988 6.07875 23.3988 6.83798C23.3988 7.59721 23.1031 8.31104 22.5662 8.84792C21.9755 9.43865 21.1684 9.73931 20.3208 9.6701L19.5133 11.6327L20.0493 12.1688C20.7142 12.8338 20.7142 13.9158 20.0493 14.5807L19.2453 15.3847C19.0232 15.6067 18.6633 15.6066 18.4413 15.3847L18.0393 14.9827L17.2353 15.7867L17.6373 16.1887C17.8593 16.4107 17.8593 16.7706 17.6373 16.9926C17.4153 17.2147 17.0554 17.2146 16.8334 16.9926L16.4314 16.5906L15.6274 17.3946L16.0294 17.7966C16.2514 18.0186 16.2514 18.3786 16.0294 18.6006C15.8074 18.8226 15.4474 18.8226 15.2254 18.6006L14.8234 18.1986L14.0194 19.0026L14.4214 19.4046C14.6435 19.6266 14.6435 19.9865 14.4214 20.2085L13.6175 21.0125C12.9526 21.6775 11.8705 21.6774 11.2056 21.0125L10.6963 20.5032L8.47852 21.6565C8.38442 22.0517 8.18374 22.4265 7.876 22.7342C6.98932 23.6209 5.54669 23.6209 4.66008 22.7342C3.77346 21.8475 3.77346 20.4049 4.66008 19.5183C4.96785 19.2106 5.3426 19.0099 5.73781 18.9158L6.8912 16.6979L6.38187 16.1886C5.71693 15.5236 5.71693 14.4416 6.38187 13.7767L7.18586 12.9727C7.40787 12.7506 7.76784 12.7506 7.98981 12.9727L8.39181 13.3747L9.19576 12.5707L8.79377 12.1687C8.57176 11.9467 8.57176 11.5867 8.79377 11.3647C9.01578 11.1427 9.37575 11.1427 9.59772 11.3647L9.99972 11.7667L10.8037 10.9627L10.4017 10.5607C10.1797 10.3387 10.1797 9.97879 10.4017 9.75678C10.6238 9.53477 10.9837 9.53477 11.2057 9.75678L11.6077 10.1588L12.4117 9.35482L12.0097 8.95283C11.7877 8.73081 11.7877 8.37089 12.0097 8.14887L12.8136 7.34492C13.4786 6.67998 14.5606 6.68002 15.2256 7.34492L15.7617 7.881L17.7242 7.07356C17.6548 6.22235 17.9581 5.41642 18.5464 4.82808C19.6574 3.71703 21.4555 3.71726 22.5662 4.82804ZM18.0445 8.17119L16.6327 8.75207L18.6423 10.7616L19.2231 9.34982C18.9771 9.21884 18.7491 9.05064 18.5464 8.84792C18.3437 8.64524 18.1755 8.41727 18.0445 8.17119ZM7.07205 21.9303C7.51539 21.4869 7.51539 20.7656 7.07205 20.3223C6.62871 19.879 5.90737 19.879 5.46407 20.3223C5.02076 20.7656 5.02076 21.487 5.46407 21.9303C5.90737 22.3736 6.62874 22.3736 7.07205 21.9303ZM8.42338 20.4037L9.85316 19.6601L7.73422 17.5412L6.99072 18.971C7.31449 19.079 7.61874 19.2611 7.87604 19.5184C8.13334 19.7757 8.31541 20.0799 8.42338 20.4037ZM12.8136 20.2086L13.2156 19.8066L7.58778 14.1788L7.18582 14.5808C6.96415 14.8024 6.96415 15.1631 7.18582 15.3848C7.68162 15.8805 10.6934 18.8923 11.2057 19.4046C11.2057 19.4045 11.2057 19.4047 11.2057 19.4046L12.0097 20.2086C12.2313 20.4303 12.5919 20.4303 12.8136 20.2086ZM13.2156 18.1986L14.0196 17.3947L9.99972 13.3748L9.19573 14.1788L13.2156 18.1986ZM14.8236 16.5907L15.6275 15.7867L11.6077 11.7668L10.8037 12.5709L14.8236 16.5907ZM16.4315 14.9828L17.2355 14.1788L13.2156 10.1589L12.4117 10.9628L16.4315 14.9828ZM19.2454 13.7768C19.4671 13.5552 19.4671 13.1944 19.2454 12.9728C18.6259 12.3533 15.2355 8.96287 14.4215 8.14895C14.1998 7.92728 13.8392 7.92728 13.6175 8.14895L13.2156 8.55091L18.8434 14.1788L19.2454 13.7768ZM21.7623 8.04393C22.0845 7.72183 22.2618 7.29353 22.2618 6.83798C22.2618 6.3824 22.0844 5.95414 21.7623 5.63203C21.0957 4.96542 20.0168 4.96558 19.3504 5.63203C18.6838 6.2986 18.6839 7.37751 19.3504 8.04393C20.017 8.71057 21.0959 8.71042 21.7623 8.04393Z" fill="#184460"/>
</svg>
