<svg width="28" height="28" viewBox="0 0 28 28" fill="none" xmlns="http://www.w3.org/2000/svg">
<rect width="28" height="28" rx="4" fill="white"/>
<path fill-rule="evenodd" clip-rule="evenodd" d="M3.15191 20.3747C3.36621 20.4173 3.31701 20.4088 3.44021 20.5169L7.3361 24.4127C7.5925 24.7051 7.5204 24.9097 7.3361 25.1198L6.761 25.695C6.4687 25.9513 6.26401 25.8792 6.05391 25.695L2.158 21.7991C1.97931 21.5952 1.91761 21.366 2.158 21.0919L2.73311 20.5169C2.8318 20.4303 2.8766 20.3567 3.15191 20.3747ZM6.75451 14.3498C6.96881 14.3924 6.91961 14.3839 7.04281 14.492L13.3944 20.8436C13.5732 21.0474 13.6348 21.2766 13.3944 21.5507L9.77411 25.171C9.57021 25.3498 9.34111 25.4114 9.06691 25.171L2.7154 18.8195C2.53661 18.6156 2.475 18.3865 2.7154 18.1124L6.33571 14.492C6.43441 14.4054 6.47921 14.3317 6.75451 14.3498ZM3.77601 18.4659L9.4205 24.1104L12.3338 21.1971L6.68931 15.5526C5.71821 16.5237 4.74711 17.4948 3.77601 18.4659ZM11.1654 13.946C11.3797 13.9886 11.3304 13.9801 11.4537 14.0882L13.8579 16.4924C14.0367 16.6963 14.0983 16.9254 13.8579 17.1995L12.6778 18.3797C12.4739 18.5584 12.2448 18.6201 11.9707 18.3797L9.56641 15.9754C9.38771 15.7716 9.32601 15.5424 9.56641 15.2683L10.7466 14.0882C10.8453 14.0016 10.89 13.928 11.1654 13.946ZM10.6271 15.6219L12.3242 17.319L12.7972 16.846L11.1001 15.1488C10.9424 15.3065 10.7848 15.4642 10.6271 15.6219ZM14.9656 11.339C15.1799 11.3816 15.1306 11.3731 15.2538 11.4812L16.4666 12.6939C16.6454 12.8977 16.707 13.1269 16.4666 13.401L14.5076 15.36C14.2152 15.6163 14.0106 15.5442 13.8005 15.36L12.5878 14.1473C12.409 13.9434 12.3474 13.7143 12.5878 13.4401L14.5467 11.4812C14.754 11.2994 14.7812 11.3269 14.9656 11.339ZM13.6484 13.7937L14.154 14.2993L15.4059 13.0474L14.9003 12.5418C14.483 12.9591 14.0657 13.3764 13.6484 13.7937ZM17.1586 4.01108C17.3729 4.05378 17.3237 4.04518 17.4469 4.15328L23.7467 10.4531C24.0031 10.7454 23.931 10.95 23.7467 11.1602L21.7463 13.1606C21.5425 13.3393 21.3133 13.401 21.0392 13.1606L14.7395 6.86078C14.5607 6.65688 14.4991 6.42778 14.7395 6.15368L16.7398 4.15328C16.947 3.97158 16.9743 3.99908 17.1586 4.01108ZM15.95 9.16138C16.1643 9.20398 16.1151 9.19548 16.2383 9.30358L18.6425 11.7078C18.8213 11.9117 18.8829 12.1409 18.6425 12.415L18.2417 12.8157C17.9493 13.072 17.7447 13 17.5346 12.8157L15.1304 10.4115C14.874 10.1192 14.9461 9.91448 15.1304 9.70438L15.5312 9.30358C15.6299 9.21698 15.6746 9.14328 15.95 9.16138ZM15.8001 6.50718L21.3928 12.0999L22.686 10.8066L17.0934 5.21398C16.6623 5.64498 16.2312 6.07608 15.8001 6.50718ZM20.4869 3.00898C20.577 3.02688 20.6223 3.01708 20.7752 3.15118L24.8507 7.22658C25.1071 7.51898 25.035 7.72358 24.8507 7.93368L23.9611 8.82328C23.7572 9.00208 23.5281 9.06368 23.254 8.82328L19.1785 4.74788C18.9997 4.54398 18.9381 4.31488 19.1785 4.04078L20.0681 3.15118C20.2753 2.96948 20.3026 2.99688 20.4869 3.00898ZM20.2392 4.39428L23.6075 7.76268L23.79 7.58018L20.4217 4.21178C20.3608 4.27268 20.3 4.33348 20.2392 4.39428Z" fill="#184460"/>
</svg>
