<svg width="28" height="28" viewBox="0 0 28 28" fill="none" xmlns="http://www.w3.org/2000/svg">
<rect width="28" height="28" rx="4" fill="white"/>
<path fill-rule="evenodd" clip-rule="evenodd" d="M22.9856 11.5131H22.2836V18.9256H22.9856V22.2249H5.01465V18.9256H5.64644V11.5131H5.01465V8.21369H6.81754V5.7749H10.4476V8.21369H17.5904V5.7749H21.2205V8.21369H22.9856V11.5131ZM21.9326 21.1719V19.9785H6.06764V21.1719H21.9326ZM6.69943 18.9255H21.2306V11.5371H6.69943V18.9255ZM18.6434 6.82789V8.21369H20.1675V6.82789H18.6434ZM7.87053 6.82789V8.21369H9.39466V6.82789H7.87053ZM6.06764 9.26668V10.4601H21.9326V9.26668H6.06764ZM15.8487 14.7048H20.0431V15.7578H15.8487V14.7048ZM10.5808 13.1341V14.7048H12.1515V15.7578H10.5808V17.3285H9.52786V15.7578H7.95715V14.7048H9.52786V13.1341H10.5808Z" fill="#00343F"/>
</svg>
