<svg width="28" height="28" viewBox="0 0 28 28" fill="none" xmlns="http://www.w3.org/2000/svg">
<rect width="28" height="28" rx="4" fill="white"/>
<path fill-rule="evenodd" clip-rule="evenodd" d="M7.13913 21.4291C6.82513 21.4291 6.57058 21.1745 6.57058 20.8605C6.57058 20.5465 6.82513 20.292 7.13913 20.292C7.45313 20.292 7.70767 20.5465 7.70767 20.8605C7.70767 21.1745 7.45313 21.4291 7.13913 21.4291ZM23.2027 11.229C23.8677 11.8941 23.8677 12.9761 23.2026 13.6412L22.3986 14.4452C22.1767 14.6672 21.8165 14.6671 21.5946 14.4452L21.1926 14.0433L20.3886 14.8473L20.7906 15.2493C21.0126 15.4713 21.0126 15.8312 20.7906 16.0533C20.5686 16.2753 20.2086 16.2753 19.9866 16.0533L19.5846 15.6513L18.7806 16.4553L19.1826 16.8573C19.4046 17.0793 19.4045 17.4394 19.1826 17.6613L15.9665 20.8774C15.7445 21.0994 15.3843 21.0993 15.1625 20.8774L13.5544 19.2693C13.4478 19.1627 13.3879 19.0181 13.3879 18.8673V17.4948L13.1524 17.2592L9.95206 20.4596C10.0729 21.3145 9.80536 22.2143 9.14919 22.8706C8.04079 23.9789 6.23735 23.9788 5.12906 22.8706C4.02078 21.7622 4.02078 19.9587 5.12906 18.8504C5.78526 18.1942 6.68507 17.9267 7.54005 18.0475L10.7404 14.8472L10.5049 14.6117H9.13233C8.98157 14.6117 8.83695 14.5518 8.73035 14.4452L7.12226 12.8371C7.01562 12.7304 6.95574 12.5859 6.95574 12.4351C6.95574 12.2843 7.01566 12.1396 7.12226 12.033L10.3384 8.81691C10.5604 8.5949 10.9204 8.59486 11.1424 8.81691L11.5444 9.21893L12.3484 8.41492L11.9464 8.0129C11.7244 7.7909 11.7244 7.43094 11.9464 7.2089C12.1684 6.98689 12.5284 6.98689 12.7504 7.2089L13.1524 7.61092L13.9564 6.80688L13.5544 6.40486C13.3324 6.18285 13.3324 5.8229 13.5544 5.60085L14.3584 4.79685C15.0234 4.13182 16.1055 4.13186 16.7705 4.79685L23.2027 11.229ZM8.34515 22.0665C9.01015 21.4015 9.01015 20.3194 8.34515 19.6544C7.67997 18.9893 6.59798 18.9895 5.93303 19.6544C5.26803 20.3195 5.26803 21.4015 5.93303 22.0665C6.5981 22.7315 7.68008 22.7315 8.34515 22.0665ZM9.5107 19.2929L12.3484 16.4552L11.5444 15.6512L8.7067 18.4889C8.8631 18.5923 9.01151 18.7128 9.14916 18.8504C9.28676 18.988 9.40728 19.1365 9.5107 19.2929ZM15.5644 19.6713L17.9765 17.2592L17.5748 16.8575C17.5747 16.8574 17.5748 16.8576 17.5748 16.8575L11.1423 10.425C11.1423 10.425 11.1424 10.425 11.1423 10.425L10.7403 10.023L8.32821 12.4351L9.36775 13.4746H10.7404C10.8911 13.4746 11.0358 13.5345 11.1424 13.6411L14.3584 16.8572C14.4651 16.9639 14.5249 17.1085 14.5249 17.2592V18.6318L15.5644 19.6713ZM17.9766 15.6512L18.7806 14.8472L13.1524 9.219L12.3484 10.023L17.9766 15.6512ZM19.5846 14.0431L20.3886 13.2391C20.0757 12.9263 15.0732 7.92381 14.7604 7.61096L13.9564 8.41496L19.5846 14.0431ZM22.3987 12.8371C22.6209 12.6149 22.6209 12.2553 22.3987 12.033L15.9665 5.60085C15.7448 5.37915 15.3842 5.37919 15.1625 5.60085L14.7605 6.00288C14.9422 6.18456 21.5158 12.7582 21.5947 12.8371L21.9967 13.2391L22.3987 12.8371Z" fill="#00343F"/>
</svg>
