<svg width="28" height="28" viewBox="0 0 28 28" fill="none" xmlns="http://www.w3.org/2000/svg">
<rect width="28" height="28" rx="4" fill="white"/>
<path fill-rule="evenodd" clip-rule="evenodd" d="M23.7351 16.6651L23.6353 16.3567L21.731 15.8798C21.7427 15.707 21.7481 15.5336 21.7481 15.3586C21.7481 13.1383 20.7944 11.0199 19.1318 9.54653L18.3559 10.4219C19.7685 11.6734 20.5783 13.4729 20.5783 15.3586C20.5783 15.4361 20.5773 15.5134 20.5741 15.5902L19.3376 15.2806C19.3201 14.0668 18.8881 12.8881 18.1158 11.9522L17.2135 12.697C17.75 13.3466 18.0763 14.1474 18.1521 14.9837L16.8918 14.6683C16.7558 14.0936 16.4527 13.5824 16.0371 13.189L17.9531 6.50485L17.7364 6.26426C16.8076 5.23213 15.4398 4.63989 13.9842 4.63989C12.5287 4.63989 11.1614 5.23213 10.2325 6.26426L10.0157 6.50485L10.5559 8.38962C10.132 8.59897 9.72485 8.84854 9.33891 9.13743C8.03466 10.1126 7.05129 11.5023 6.56981 13.0499L7.68681 13.3973C8.21826 11.6879 9.38523 10.3244 10.883 9.53084L11.2362 10.7638C10.776 11.0391 10.355 11.3841 9.99088 11.7916L10.863 12.571C11.0767 12.332 11.3154 12.1203 11.573 11.9393L11.9314 13.1895C11.518 13.5809 11.2159 14.0889 11.0791 14.6601L9.81764 14.9725C9.86092 14.4895 9.98692 14.0238 10.194 13.5832L9.13489 13.0862C8.81294 13.7723 8.64336 14.5053 8.63087 15.2661L4.33094 16.3305L4.23023 16.6386C3.79827 17.9584 3.96679 19.4389 4.69235 20.701C5.41792 21.9627 6.61262 22.8533 7.97036 23.1442L8.28728 23.212L9.654 21.8026C10.927 22.6587 12.4324 23.1219 13.9842 23.1219C14.52 23.1219 15.0549 23.0674 15.5746 22.959L15.336 21.8139C14.8946 21.9059 14.4401 21.9522 13.9842 21.9522C12.7092 21.9522 11.5063 21.5842 10.4864 20.9435L11.3715 20.0307C12.1447 20.4651 13.0361 20.7127 13.9842 20.7127V19.543C13.355 19.543 12.758 19.4034 12.2223 19.1531L13.1261 18.2205C13.3978 18.3023 13.6859 18.3463 13.9842 18.3463C14.2798 18.3463 14.5652 18.3035 14.8351 18.2227L19.6602 23.2272L19.9771 23.1602C21.3356 22.8733 22.5331 21.9857 23.2618 20.726C23.9909 19.4662 24.1632 17.9861 23.7351 16.6651ZM15.9042 17.646C16.4294 17.2048 16.8013 16.5863 16.9264 15.8829L22.7061 17.3299C22.917 18.2563 22.7564 19.2639 22.2495 20.1403C21.7423 21.0165 20.9492 21.6578 20.0406 21.9367L15.9042 17.646ZM11.3232 6.82192C12.0195 6.17543 12.9721 5.8096 13.9842 5.8096C14.9969 5.8096 15.9495 6.17543 16.6453 6.82192L15.0039 12.5497C14.6857 12.4334 14.3422 12.3702 13.9842 12.3702C13.6263 12.3702 13.2828 12.4334 12.9646 12.5497L11.3232 6.82192ZM7.91033 21.9202C7.00253 21.6391 6.21099 20.9953 5.7065 20.1177C5.20202 19.2401 5.04371 18.2322 5.25733 17.3064L11.0413 15.8748C11.1644 16.5789 11.5345 17.1985 12.0589 17.641L7.91033 21.9202ZM12.1661 15.3586C12.1661 14.3557 12.9818 13.5399 13.9842 13.5399C14.9871 13.5399 15.8027 14.3557 15.8027 15.3586C15.8027 16.361 14.9871 17.1766 13.9842 17.1766C12.9818 17.1767 12.1661 16.361 12.1661 15.3586Z" fill="#184460"/>
</svg>
