<svg width="28" height="28" viewBox="0 0 28 28" fill="none" xmlns="http://www.w3.org/2000/svg">
<rect width="28" height="28" rx="4" fill="white"/>
<path fill-rule="evenodd" clip-rule="evenodd" d="M22.1387 14.6761C22.1743 14.9266 22.0401 15.1704 21.8096 15.2743L13.3643 19.0819C12.8641 19.3094 12.2815 19.2795 11.8072 19.0057L5.42178 15.319C4.60739 14.8489 4.3274 13.8038 4.79756 12.9895L6.29805 10.3906L4.72825 8.62026C4.24047 8.07018 4.15971 7.27285 4.52732 6.63613L5.03427 5.75808C5.61688 4.74897 7.01394 4.60743 7.78713 5.4793L9.0647 6.92006L11.4462 8.2951L12.0147 7.31052L10.5378 6.45786C10.2659 6.30088 10.1728 5.95321 10.3298 5.68133C10.4867 5.40945 10.8343 5.31623 11.1063 5.47327L15.0446 7.74706C15.3165 7.90403 15.4096 8.25171 15.2527 8.52359C15.095 8.79664 14.7468 8.88797 14.4761 8.73165L12.9993 7.87898L12.4308 8.86357L14.4844 10.0492C14.8789 10.277 15.1611 10.6447 15.279 11.0847L15.892 13.373L21.656 14.1933C21.9064 14.2289 22.1032 14.4257 22.1387 14.6761ZM5.57886 7.86595L6.89725 9.35268C7.04444 9.0977 7.90722 7.60328 8.00337 7.43676L6.93644 6.23358C6.67881 5.94298 6.21282 5.99054 6.01886 6.3265L5.51186 7.20456C5.38934 7.41678 5.41624 7.6826 5.57886 7.86595ZM12.8952 18.0462L13.9047 17.5911L6.06634 13.0656L5.78211 13.5579C5.6254 13.8293 5.71874 14.1777 5.99021 14.3344L12.3756 18.0211C12.5343 18.1127 12.7285 18.1221 12.8952 18.0462ZM15.1815 17.0154L19.5567 15.0429L15.3601 14.4457C15.1346 14.4136 14.95 14.25 14.8911 14.03L14.1808 11.3789C14.1415 11.2322 14.0475 11.1096 13.9159 11.0337C13.3413 10.702 9.42363 8.44014 8.90856 8.14275C8.85997 8.22692 6.90911 11.6059 6.63477 12.0811L15.1815 17.0154ZM23.4323 19.7471C23.6088 20.0758 23.702 20.447 23.702 20.822C23.702 22.0757 22.6819 23.0957 21.4281 23.0957C20.1743 23.0957 19.1543 22.0757 19.1543 20.8219C19.1543 20.447 19.2475 20.0758 19.424 19.7471L20.9143 16.5995C21.0084 16.4009 21.2084 16.2743 21.4281 16.2743C21.6478 16.2743 21.8479 16.4009 21.9419 16.5995L23.4323 19.7471ZM21.4282 21.9589C22.055 21.9589 22.5651 21.4488 22.5651 20.822C22.5651 20.6285 22.5184 20.4453 22.4265 20.2774C22.4212 20.2676 22.4161 20.2577 22.4113 20.2477L21.4282 18.1711L20.445 20.2477C20.4402 20.2577 20.4352 20.2676 20.4298 20.2774C20.3379 20.4453 20.2913 20.6285 20.2913 20.822C20.2913 21.4488 20.8013 21.9589 21.4282 21.9589Z" fill="#00343F"/>
</svg>
