<svg width="28" height="28" viewBox="0 0 28 28" fill="none" xmlns="http://www.w3.org/2000/svg">
<rect width="28" height="28" rx="4" fill="white"/>
<g clip-path="url(#clip0_262_54401)">
<path fill-rule="evenodd" clip-rule="evenodd" d="M21.3576 8.14808L18.7104 5.5009L20.3573 3.854C20.5525 3.65872 20.5525 3.34214 20.3573 3.14681L18.8569 1.64643C18.6616 1.45119 18.345 1.45119 18.1497 1.64643L16.5028 3.29333L15.8561 2.64666C15.6609 2.45143 15.3443 2.45143 15.1489 2.64666L6.64686 11.1488C6.45163 11.3441 6.45163 11.6607 6.64686 11.856L8.28729 13.4965L6.85391 15.2154C6.00372 16.2326 6.06322 17.772 6.98543 18.7197L8.48333 20.2596C8.61264 20.3974 8.61264 20.612 8.48333 20.7498L6.14175 23.1554C5.95275 23.3495 5.95275 23.6589 6.14175 23.8531L7.6011 25.3534C7.79362 25.5515 8.11029 25.5559 8.3083 25.3634C8.31167 25.3601 8.315 25.3568 8.31828 25.3534L11.269 22.3217C12.2439 21.3057 12.2439 19.7017 11.269 18.6858L9.93119 17.3104C9.76643 17.1384 9.76643 16.8672 9.93119 16.6953L10.6989 15.9061L12.1492 17.3564C12.3445 17.5517 12.6611 17.5517 12.8564 17.3564L21.3585 8.85429C21.5529 8.65877 21.5524 8.34299 21.3576 8.14808ZM18.5034 2.70719L19.2966 3.50038L18.0032 4.79371L17.21 4.00052L18.5034 2.70719ZM9.21298 15.9985C8.67312 16.56 8.67312 17.4476 9.21298 18.009L10.5508 19.3844C11.1514 20.0105 11.1514 20.9988 10.5508 21.6249L7.95965 24.2886L7.19797 23.5054L9.19849 21.4474C9.7044 20.9208 9.7044 20.0887 9.19849 19.562L7.7006 18.0221C7.13012 17.424 7.09557 16.4943 7.62009 15.8555L8.99542 14.2051L9.98816 15.1978L9.21298 15.9985ZM12.5019 16.2986L7.70763 11.5024L8.25077 10.9593L13.045 15.7535L12.5019 16.2986ZM13.7521 15.0463L8.95791 10.2521L14.2523 4.95776L19.0465 9.75199L13.7521 15.0463ZM19.7536 9.04681L14.9595 4.25057L15.5026 3.70743L20.2968 8.50166L19.7536 9.04681Z" fill="#184460"/>
</g>
<defs>
<clipPath id="clip0_262_54401">
<rect width="24" height="25" fill="white" transform="translate(2 1.5)"/>
</clipPath>
</defs>
</svg>
