<svg width="28" height="28" viewBox="0 0 28 28" fill="none" xmlns="http://www.w3.org/2000/svg">
<rect width="28" height="28" rx="4" fill="white"/>
<path fill-rule="evenodd" clip-rule="evenodd" d="M19.6301 6.15956V17.8002L22.9079 22.2435C23.1392 22.5571 22.9137 22.9998 22.526 22.9998H18.5937C18.3316 22.9998 18.1191 22.7873 18.1191 22.5252V21.8763H16.8213V22.5252C16.8213 22.7873 16.6088 22.9998 16.3467 22.9998H12.4145C12.0248 22.9998 11.8025 22.5555 12.0326 22.2435L15.3104 17.8002L15.3105 6.16079V6.1574C15.3111 6.0317 15.3614 5.91194 15.4494 5.824L17.1346 4.13876C17.32 3.95341 17.6205 3.95343 17.8058 4.13876L19.491 5.824C19.58 5.91301 19.6301 6.03371 19.6301 6.15956ZM18.6809 11.7548V9.72661L16.2596 7.30529V9.33347L18.6809 11.7548ZM18.6809 13.0971L16.2596 10.6758V12.704L18.6809 15.1253V13.0971ZM18.6809 17.4817V16.4676L16.2596 14.0463V17.4817H18.6809ZM18.6809 6.35616L17.4702 5.14551L16.4561 6.15959L18.6809 8.38434V6.35616ZM19.0683 21.4017V22.0506H21.5862L18.9159 18.4309H16.0247L13.3544 22.0506H15.8722V21.4017C15.8722 21.1396 16.0846 20.9271 16.3467 20.9271H18.5937C18.8558 20.9271 19.0683 21.1396 19.0683 21.4017Z" fill="#184460"/>
<path fill-rule="evenodd" clip-rule="evenodd" d="M7.37115 9.19957L4.09334 4.75633C3.86201 4.4427 4.08753 4 4.47525 4H8.40748C8.66957 4 8.88206 4.21249 8.88206 4.47458V5.12349H10.1799V4.47458C10.1799 4.21249 10.3924 4 10.6545 4H14.5867C14.9764 4 15.1988 4.44431 14.9686 4.75633L11.6908 9.19957V20.8402C11.6908 20.966 11.6408 21.0867 11.5518 21.1757L9.86653 22.861C9.68119 23.0464 9.38068 23.0463 9.19538 22.861L7.51012 21.1757C7.41992 21.0856 7.37189 20.9631 7.37133 20.8423L7.37115 20.8383V9.19957ZM8.32031 16.3239L10.7416 13.9026V11.8744L8.32031 14.2958V16.3239ZM10.7416 15.2449L8.32031 17.6662V19.6944L10.7416 17.2731V15.2449ZM8.32031 12.9534L10.7416 10.5321V9.51804H8.32031V12.9534ZM8.51689 20.8401L9.53097 21.8542L10.7416 20.6436V18.6154L8.51689 20.8401ZM7.9329 5.59808V4.94917H5.41504L8.08532 8.56888H10.9765L13.6468 4.94917H11.129V5.59808C11.129 5.86017 10.9166 6.07266 10.6545 6.07266H8.40748C8.14538 6.07266 7.9329 5.86017 7.9329 5.59808Z" fill="#184460"/>
</svg>
