<svg width="28" height="28" viewBox="0 0 28 28" fill="none" xmlns="http://www.w3.org/2000/svg">
<rect width="28" height="28" rx="4" fill="white"/>
<path fill-rule="evenodd" clip-rule="evenodd" d="M10.1504 6.81639V5.15039H17.8494V6.81639H21.1834V21.1834H17.8494V22.8494H10.1504V21.1834H6.81641V6.81639H10.1504ZM16.8174 6.81639H11.1834V6.18339H16.8174V6.81639ZM7.85144 8.48439H20.1504V7.85039H7.85144V8.48439ZM7.85144 20.1514H20.1504V19.5174H7.85144V20.1514ZM16.8173 21.8184H11.1833V21.1834H16.8173V21.8184ZM8.48432 18.4844H7.85132V9.51739H8.48432V18.4844ZM9.51633 18.4844H10.5663V9.51739H9.51633V18.4844ZM13.4834 18.4844H11.6004V9.51739H13.4834V18.4844ZM14.5174 18.4844H16.4004V9.51739H14.5174V18.4844ZM18.4843 18.4844H17.4333V9.51739H18.4843V18.4844ZM20.1503 18.4844H19.5163V9.51739H20.1503V18.4844Z" fill="#00343F"/>
</svg>
