<svg width="28" height="28" viewBox="0 0 28 28" fill="none" xmlns="http://www.w3.org/2000/svg">
<rect width="28" height="28" rx="4" fill="white"/>
<path fill-rule="evenodd" clip-rule="evenodd" d="M13.8 21.7H16V23.35H13.8V21.7ZM8.8841 9.5318L11.05 11.6977V14H8.6773L6.5466 11.8693L8.8841 9.5318ZM12.15 7.4H17.65V19.6034L16.6523 20.6H13.1466L12.15 19.6034V7.4ZM13.25 4.1H16.55V6.3H13.25V4.1ZM12.15 3V6.3H11.05V10.15L8.8841 7.9852L5 11.8693L8.2307 15.1H11.05V20.05L12.7 21.7V24.45H17.1V21.7L18.75 20.05V6.3H17.65V3H12.15Z" fill="#184460"/>
</svg>
