<svg width="28" height="28" viewBox="0 0 28 28" fill="none" xmlns="http://www.w3.org/2000/svg">
<rect width="28" height="28" rx="4" fill="white"/>
<path fill-rule="evenodd" clip-rule="evenodd" d="M23.128 11.8322C23.201 11.7582 23.256 11.6722 23.294 11.5772C23.331 11.4842 23.349 11.3862 23.349 11.2842C23.349 11.1872 23.332 11.0922 23.298 11.0032C23.264 10.9112 23.212 10.8282 23.147 10.7562L23.144 10.7532C23.069 10.6722 22.979 10.6082 22.878 10.5642C22.752 10.5092 22.612 10.4892 22.473 10.5072C22.325 10.5222 22.17 10.4722 22.063 10.3652L17.973 6.27617C17.865 6.16717 17.814 6.01717 17.833 5.86517C17.836 5.83617 17.838 5.80417 17.838 5.77217C17.838 5.66517 17.816 5.55717 17.774 5.46117C17.73 5.35917 17.666 5.26817 17.582 5.19117C17.51 5.12617 17.427 5.07517 17.335 5.03917C17.152 4.97117 16.942 4.97217 16.761 5.04517C16.666 5.08217 16.58 5.13817 16.506 5.21017C16.429 5.28517 16.37 5.37317 16.328 5.47217C16.29 5.56617 16.27 5.66717 16.27 5.77117C16.27 5.89517 16.299 6.01917 16.356 6.12917C16.455 6.32117 16.418 6.55217 16.266 6.70517L14.918 8.05317C14.763 8.20517 14.532 8.24217 14.341 8.14317C14.143 8.04017 13.896 8.03017 13.688 8.11517C13.591 8.15417 13.504 8.21117 13.429 8.28717C13.354 8.36217 13.296 8.44917 13.257 8.54517C13.219 8.63817 13.2 8.73617 13.2 8.83617C13.2 8.96617 13.229 9.08817 13.286 9.19917C13.384 9.39117 13.348 9.62217 13.195 9.77517L11.847 11.1232C11.694 11.2762 11.463 11.3132 11.271 11.2132C11.072 11.1122 10.828 11.0992 10.618 11.1852C10.521 11.2242 10.434 11.2822 10.359 11.3572C10.284 11.4322 10.226 11.5192 10.187 11.6152C10.148 11.7092 10.129 11.8072 10.129 11.9072C10.129 12.0342 10.159 12.1592 10.215 12.2692C10.314 12.4622 10.277 12.6932 10.125 12.8452L8.77698 14.1932C8.62298 14.3462 8.39298 14.3812 8.19998 14.2832C8.00498 14.1842 7.75698 14.1692 7.54698 14.2552C7.45098 14.2942 7.36398 14.3522 7.28898 14.4272C7.21298 14.5032 7.15598 14.5902 7.11698 14.6862C7.07798 14.7812 7.05898 14.8812 7.05898 14.9832C7.05898 15.1072 7.08898 15.2292 7.14498 15.3392C7.24398 15.5312 7.20798 15.7622 7.05498 15.9152L5.70698 17.2642C5.55398 17.4172 5.32198 17.4522 5.12998 17.3532C4.92998 17.2502 4.68398 17.2402 4.47298 17.3272C4.37598 17.3672 4.28798 17.4262 4.21198 17.5042C4.14098 17.5772 4.08498 17.6632 4.04698 17.7582C4.00998 17.8512 3.99098 17.9512 3.99098 18.0532C3.99098 18.1502 4.00798 18.2442 4.04198 18.3332C4.07598 18.4242 4.12698 18.5072 4.19298 18.5792C4.26998 18.6632 4.35998 18.7272 4.46198 18.7722C4.58998 18.8272 4.72998 18.8462 4.86998 18.8302C4.88998 18.8272 4.90998 18.8262 4.92998 18.8262C5.05798 18.8262 5.18298 18.8772 5.27698 18.9712L9.36698 23.0612C9.47498 23.1692 9.52698 23.3182 9.50898 23.4702C9.50498 23.5032 9.50298 23.5342 9.50298 23.5662C9.50298 23.6732 9.52398 23.7782 9.56598 23.8762C9.60998 23.9772 9.67498 24.0682 9.75898 24.1452C9.83098 24.2112 9.91398 24.2622 10.005 24.2972C10.187 24.3662 10.397 24.3652 10.579 24.2912C10.675 24.2532 10.761 24.1982 10.834 24.1262C10.912 24.0512 10.971 23.9632 11.011 23.8652C11.051 23.7692 11.07 23.6692 11.07 23.5652C11.07 23.4412 11.041 23.3172 10.984 23.2082C10.886 23.0152 10.922 22.7842 11.075 22.6322L12.423 21.2832C12.576 21.1312 12.808 21.0942 12.999 21.1932C13.199 21.2962 13.442 21.3082 13.652 21.2222C13.749 21.1822 13.836 21.1242 13.912 21.0492C13.986 20.9742 14.044 20.8872 14.083 20.7902C14.122 20.6972 14.141 20.5982 14.141 20.4952C14.141 20.3712 14.111 20.2472 14.055 20.1382C13.956 19.9462 13.992 19.7142 14.146 19.5612L15.493 18.2132C15.646 18.0602 15.877 18.0242 16.069 18.1232C16.269 18.2242 16.512 18.2372 16.722 18.1512C16.819 18.1122 16.906 18.0552 16.981 17.9792C17.056 17.9042 17.114 17.8172 17.153 17.7202C17.192 17.6262 17.211 17.5272 17.211 17.4252C17.211 17.3012 17.181 17.1772 17.125 17.0682C17.026 16.8752 17.063 16.6442 17.215 16.4912L18.563 15.1432C18.717 14.9902 18.948 14.9552 19.14 15.0532C19.337 15.1562 19.584 15.1652 19.792 15.0812C19.889 15.0422 19.977 14.9842 20.051 14.9092C20.126 14.8342 20.184 14.7472 20.224 14.6492C20.262 14.5562 20.281 14.4572 20.281 14.3552C20.281 14.2302 20.252 14.1062 20.195 13.9972C20.096 13.8052 20.133 13.5742 20.285 13.4212L21.633 12.0732C21.787 11.9202 22.018 11.8842 22.21 11.9832C22.41 12.0852 22.659 12.0952 22.866 12.0102C22.965 11.9692 23.053 11.9092 23.128 11.8322ZM23.877 10.0882C24.028 10.2532 24.145 10.4432 24.224 10.6522C24.3 10.8542 24.339 11.0662 24.339 11.2842C24.339 11.5102 24.297 11.7312 24.214 11.9412C24.128 12.1602 24.001 12.3552 23.837 12.5232C23.668 12.6982 23.468 12.8322 23.245 12.9252C22.886 13.0722 22.483 13.0982 22.109 12.9982L21.211 13.8962C21.251 14.0462 21.271 14.2002 21.271 14.3552C21.271 14.5862 21.227 14.8102 21.141 15.0222C21.052 15.2422 20.921 15.4392 20.752 15.6092C20.582 15.7792 20.384 15.9102 20.165 15.9992C19.809 16.1432 19.409 16.1672 19.039 16.0682L18.14 16.9672C18.181 17.1172 18.201 17.2712 18.201 17.4252C18.201 17.6552 18.157 17.8802 18.07 18.0932C17.982 18.3122 17.851 18.5102 17.682 18.6792C17.512 18.8482 17.315 18.9792 17.094 19.0692C16.736 19.2142 16.339 19.2392 15.968 19.1382L15.07 20.0362C15.11 20.1862 15.131 20.3402 15.131 20.4952C15.131 20.7252 15.087 20.9502 15.001 21.1622C14.911 21.3832 14.78 21.5802 14.611 21.7492C14.442 21.9192 14.244 22.0502 14.024 22.1392C13.668 22.2842 13.269 22.3082 12.898 22.2082L12 23.1072C12.04 23.2572 12.061 23.4102 12.061 23.5652C12.061 23.7992 12.015 24.0262 11.927 24.2422C11.835 24.4662 11.699 24.6652 11.525 24.8352C11.357 24.9982 11.162 25.1252 10.944 25.2122C10.735 25.2952 10.513 25.3382 10.286 25.3382C10.07 25.3382 9.85798 25.2992 9.65598 25.2232C9.44498 25.1432 9.25498 25.0262 9.08998 24.8752C8.90298 24.7032 8.75698 24.4992 8.65798 24.2682C8.56698 24.0582 8.51898 23.8362 8.51298 23.6072L4.72898 19.8232C4.47898 19.8142 4.26898 19.7662 4.06998 19.6812C3.83798 19.5812 3.63398 19.4352 3.46198 19.2472C3.31098 19.0812 3.19398 18.8912 3.11598 18.6832C3.03998 18.4802 3.00098 18.2682 3.00098 18.0532C3.00098 17.8262 3.04298 17.6042 3.12698 17.3932C3.21398 17.1752 3.34098 16.9792 3.50398 16.8122C3.67498 16.6382 3.87398 16.5032 4.09698 16.4112C4.45598 16.2642 4.85598 16.2372 5.23198 16.3382L6.12998 15.4402C6.08898 15.2902 6.06898 15.1372 6.06898 14.9832C6.06898 14.7522 6.11298 14.5282 6.19898 14.3152C6.28798 14.0952 6.41898 13.8962 6.58798 13.7272C6.75698 13.5582 6.95398 13.4282 7.17198 13.3382C7.53398 13.1922 7.93198 13.1692 8.30198 13.2682L9.19998 12.3702C9.15998 12.2192 9.13898 12.0642 9.13898 11.9072C9.13898 11.6782 9.18398 11.4532 9.27098 11.2412C9.35898 11.0222 9.48998 10.8262 9.65898 10.6572C9.82798 10.4882 10.026 10.3572 10.246 10.2672C10.602 10.1222 10.997 10.0972 11.372 10.1982L12.271 9.30017C12.23 9.14917 12.21 8.99417 12.21 8.83617C12.21 8.60717 12.253 8.38317 12.34 8.17017C12.43 7.95217 12.561 7.75617 12.729 7.58717C12.898 7.41817 13.095 7.28617 13.316 7.19717C13.671 7.05417 14.069 7.02817 14.442 7.12817L15.34 6.22917C15.3 6.07917 15.28 5.92617 15.28 5.77117C15.28 5.53617 15.325 5.30817 15.414 5.09417C15.505 4.87117 15.64 4.67217 15.815 4.50217C15.982 4.33817 16.178 4.21117 16.396 4.12417C16.808 3.96217 17.273 3.95917 17.686 4.11417C17.895 4.19317 18.085 4.30917 18.251 4.46117C18.438 4.63317 18.584 4.83717 18.683 5.06917C18.773 5.28017 18.822 5.50117 18.827 5.72917L22.611 9.51317C22.861 9.52217 23.071 9.57017 23.27 9.65517C23.502 9.75517 23.706 9.90117 23.877 10.0882ZM13.084 16.6221C13.036 16.7481 12.964 16.8631 12.873 16.9611C12.769 17.0711 12.648 17.1551 12.514 17.2131C12.251 17.3231 11.95 17.3231 11.687 17.2131C11.551 17.1551 11.43 17.0701 11.328 16.9611C11.235 16.8631 11.164 16.7481 11.116 16.6221C11.068 16.4981 11.044 16.3671 11.044 16.2331C11.044 16.1011 11.068 15.9741 11.116 15.8521C11.164 15.7271 11.235 15.6141 11.327 15.5161C11.43 15.4071 11.551 15.3231 11.687 15.2651C11.818 15.2091 11.958 15.1811 12.101 15.1811C12.244 15.1811 12.382 15.2091 12.513 15.2651C12.649 15.3221 12.77 15.4071 12.872 15.5161L12.875 15.5191C12.965 15.6161 13.036 15.7281 13.084 15.8521C13.131 15.9751 13.155 16.1021 13.155 16.2331C13.155 16.3671 13.131 16.4981 13.084 16.6221ZM13.594 14.8391C13.396 14.6281 13.163 14.4651 12.9 14.3531C12.393 14.1381 11.811 14.1381 11.301 14.3531C11.037 14.4651 10.803 14.6281 10.605 14.8391C10.427 15.0291 10.288 15.2491 10.193 15.4941C10.101 15.7301 10.054 15.9791 10.054 16.2331C10.054 16.4891 10.1 16.7391 10.19 16.9751C10.285 17.2221 10.424 17.4451 10.605 17.6391C10.804 17.8501 11.038 18.0131 11.301 18.1241C11.556 18.2321 11.825 18.2871 12.101 18.2871C12.377 18.2871 12.646 18.2321 12.9 18.1241C13.163 18.0121 13.397 17.8491 13.594 17.6381C13.775 17.4451 13.915 17.2221 14.009 16.9751C14.099 16.7381 14.146 16.4881 14.146 16.2331C14.146 15.9791 14.099 15.7311 14.007 15.4941C13.912 15.2501 13.773 15.0291 13.594 14.8391ZM9.94388 19.7637C9.89488 19.8897 9.82288 20.0037 9.73188 20.1017C9.62988 20.2107 9.50788 20.2957 9.37288 20.3537C9.11088 20.4637 8.80788 20.4647 8.54588 20.3537C8.41088 20.2967 8.28988 20.2117 8.18688 20.1027C8.09388 20.0037 8.02288 19.8907 7.97488 19.7647C7.92688 19.6407 7.90288 19.5117 7.90288 19.3797C7.90288 19.2477 7.92688 19.1177 7.97488 18.9947C8.02288 18.8687 8.09388 18.7557 8.18688 18.6567C8.28888 18.5477 8.40988 18.4637 8.54688 18.4057C8.67688 18.3497 8.81588 18.3217 8.95988 18.3217C9.10288 18.3217 9.24188 18.3497 9.37188 18.4057C9.50688 18.4627 9.62788 18.5467 9.72888 18.6547L9.73088 18.6567C9.82388 18.7547 9.89488 18.8677 9.94388 18.9947C9.99088 19.1167 10.0149 19.2457 10.0149 19.3787C10.0149 19.5117 9.99088 19.6417 9.94388 19.7637ZM10.4529 17.9797C10.2559 17.7687 10.0219 17.6047 9.75888 17.4937C9.25188 17.2787 8.66888 17.2787 8.15988 17.4937C7.89588 17.6057 7.66188 17.7687 7.46488 17.9797C7.28488 18.1707 7.14588 18.3927 7.05088 18.6387C6.95988 18.8757 6.91288 19.1247 6.91288 19.3797C6.91288 19.6347 6.95988 19.8837 7.05088 20.1197C7.14488 20.3657 7.28488 20.5877 7.46488 20.7797C7.66388 20.9917 7.89788 21.1547 8.16088 21.2647C8.41488 21.3727 8.68388 21.4277 8.95988 21.4277C9.23588 21.4277 9.50488 21.3727 9.75888 21.2647C10.0229 21.1527 10.2559 20.9897 10.4539 20.7787C10.6339 20.5867 10.7729 20.3657 10.8669 20.1197C10.9589 19.8827 11.0049 19.6337 11.0049 19.3787C11.0049 19.1237 10.9589 18.8747 10.8669 18.6387C10.7729 18.3937 10.6329 18.1717 10.4529 17.9797ZM19.355 10.3711C19.298 10.5061 19.213 10.6271 19.103 10.7301C19.005 10.8221 18.892 10.8931 18.766 10.9421C18.52 11.0361 18.241 11.0361 17.996 10.9411C17.871 10.8931 17.757 10.8221 17.659 10.7301C17.549 10.6261 17.464 10.5061 17.407 10.3701C17.352 10.2401 17.324 10.1021 17.324 9.95907C17.324 9.81507 17.352 9.67507 17.407 9.54407C17.464 9.40907 17.549 9.28807 17.659 9.18507C17.757 9.09207 17.871 9.02107 17.997 8.97307C18.119 8.92607 18.249 8.90207 18.381 8.90207C18.514 8.90207 18.644 8.92607 18.767 8.97307C18.892 9.02107 19.005 9.09207 19.104 9.18407C19.213 9.28807 19.298 9.40807 19.355 9.54307C19.411 9.67507 19.438 9.81407 19.438 9.95707C19.438 10.1011 19.411 10.2401 19.355 10.3711ZM19.782 8.46407C19.59 8.28307 19.368 8.14307 19.123 8.04907C18.65 7.86707 18.112 7.86707 17.641 8.04907C17.396 8.14307 17.174 8.28207 16.981 8.46307C16.771 8.66007 16.608 8.89407 16.496 9.15907C16.388 9.41207 16.334 9.68207 16.334 9.95907C16.334 10.2351 16.388 10.5031 16.496 10.7571C16.607 11.0191 16.77 11.2531 16.981 11.4511C17.172 11.6311 17.394 11.7701 17.64 11.8651C17.877 11.9561 18.126 12.0031 18.381 12.0031C18.636 12.0031 18.885 11.9561 19.121 11.8651C19.366 11.7711 19.588 11.6321 19.781 11.4521C19.992 11.2541 20.155 11.0201 20.267 10.7571C20.374 10.5041 20.429 10.2351 20.429 9.95707C20.429 9.68107 20.374 9.41207 20.267 9.15807C20.155 8.89407 19.992 8.66007 19.782 8.46407ZM15.9634 13.8702C16.0714 13.7682 16.1564 13.6472 16.2144 13.5112C16.2694 13.3832 16.2974 13.2402 16.2974 13.0992C16.2974 12.9552 16.2704 12.8162 16.2144 12.6852C16.1574 12.5502 16.0734 12.4292 15.9654 12.3272L15.9634 12.3262C15.8644 12.2332 15.7504 12.1622 15.6244 12.1142C15.5004 12.0662 15.3694 12.0422 15.2344 12.0422C15.1034 12.0422 14.9754 12.0662 14.8544 12.1142C14.7294 12.1622 14.6154 12.2342 14.5174 12.3262C14.4084 12.4282 14.3234 12.5492 14.2674 12.6852H14.2664C14.2114 12.8162 14.1834 12.9552 14.1834 13.0992C14.1834 13.2402 14.2124 13.3832 14.2664 13.5112C14.3234 13.6472 14.4084 13.7672 14.5174 13.8702C14.6154 13.9622 14.7294 14.0332 14.8544 14.0822C15.1014 14.1782 15.3804 14.1762 15.6244 14.0822C15.7504 14.0332 15.8644 13.9622 15.9634 13.8702ZM15.9774 11.1882C16.2254 11.2842 16.4484 11.4242 16.6404 11.6042C16.8524 11.8032 17.0154 12.0362 17.1264 12.3002C17.2334 12.5532 17.2884 12.8222 17.2884 13.0992C17.2884 13.3752 17.2334 13.6432 17.1264 13.8972C17.0144 14.1612 16.8504 14.3952 16.6404 14.5922C16.4464 14.7732 16.2244 14.9122 15.9774 15.0072C15.7404 15.0972 15.4904 15.1432 15.2344 15.1432C14.9814 15.1432 14.7324 15.0962 14.4954 15.0052C14.2524 14.9102 14.0314 14.7712 13.8404 14.5922C13.6304 14.3952 13.4664 14.1612 13.3554 13.8982C13.2474 13.6432 13.1934 13.3752 13.1934 13.0992C13.1934 12.8222 13.2474 12.5532 13.3554 12.2992C13.4654 12.0362 13.6294 11.8032 13.8404 11.6042C14.0314 11.4242 14.2524 11.2852 14.4954 11.1912C14.9724 11.0072 15.5074 11.0092 15.9774 11.1882Z" fill="#184460"/>
</svg>
