<svg width="28" height="28" viewBox="0 0 28 28" fill="none" xmlns="http://www.w3.org/2000/svg">
<rect width="28" height="28" rx="4" fill="white"/>
<path fill-rule="evenodd" clip-rule="evenodd" d="M17.2637 16.7886L15.9952 15.5201L22.338 9.1773C22.8635 8.65177 22.8635 7.79989 22.3381 7.27451L23.6066 6.00599C23.9569 5.65568 23.9568 5.08762 23.6065 4.73732L22.9722 4.10306C22.6219 3.75276 22.054 3.75276 21.7037 4.10306L20.4352 5.37158C19.9098 4.8462 19.0579 4.8462 18.5324 5.37173L12.1898 11.7143L10.9211 10.4457C10.746 10.2706 10.4621 10.2706 10.2869 10.4458L8.38408 12.3487C8.20885 12.5239 8.20885 12.8078 8.38393 12.9829L9.01834 13.6173L7.43276 15.2029C7.25753 15.3781 7.25753 15.6621 7.43261 15.8372L7.74982 16.1544L4.89557 19.0086C4.37018 19.534 4.37018 20.3859 4.89557 20.9113L5.52983 21.5455L5.21262 21.8627C5.03754 22.0378 5.03754 22.3218 5.21277 22.497C5.38785 22.6721 5.67181 22.6721 5.84688 22.497L6.16409 22.1798L6.48129 22.497L5.84703 23.1312C5.67181 23.3065 5.38785 23.3065 5.21262 23.1312L4.89557 22.8142C4.72034 22.639 4.43638 22.639 4.2613 22.814C4.08608 22.9893 4.08608 23.2732 4.2613 23.4484L4.57836 23.7655C5.10389 24.291 5.95577 24.291 6.48129 23.7655L7.17391 23.0729C7.68652 23.3178 8.2977 23.2141 8.70113 22.8142L11.5554 19.9599L11.8724 20.277C12.0477 20.4522 12.3316 20.4522 12.5068 20.277L14.0924 18.6914L14.7267 19.3257C14.9018 19.5008 15.1859 19.5009 15.3611 19.3257L17.2639 17.4229C17.4391 17.2477 17.439 16.9639 17.2637 16.7886ZM22.338 4.73732L22.9722 5.37158L21.7037 6.6401L21.0694 6.00584L22.338 4.73732ZM19.1667 6.00599C19.3419 5.83076 19.6258 5.83076 19.8009 6.00584L21.7039 7.90877C21.8789 8.08385 21.8789 8.36781 21.7037 8.54303L15.3611 14.8857L12.824 12.3487L19.1667 6.00599ZM9.01834 21.2285L6.48129 18.6914L7.11555 18.0572L9.6526 20.5942L9.01834 21.2285ZM7.43276 22.1799L5.52983 20.277C5.35475 20.1019 5.35475 19.818 5.52983 19.6429L5.84703 19.3257L8.38408 21.8627L8.06687 22.1799C7.89179 22.355 7.60784 22.355 7.43276 22.1799ZM10.2869 19.9599L7.74982 17.4229L8.38408 16.7886L10.9211 19.3257L10.2869 19.9599ZM12.1896 19.3257L8.38408 15.5201L9.6526 14.2516L13.4582 18.0572L12.1896 19.3257ZM15.0439 18.3744L9.3354 12.6659L10.6039 11.3973L16.3124 17.1058L15.0439 18.3744Z" fill="#00343F"/>
</svg>
