<svg width="28" height="28" viewBox="0 0 28 28" fill="none" xmlns="http://www.w3.org/2000/svg">
<rect width="28" height="28" rx="4" fill="white"/>
<path fill-rule="evenodd" clip-rule="evenodd" d="M11.3904 5.86351V7.20451C11.3904 7.58751 11.7014 7.89851 12.0844 7.89851H15.7484C16.1314 7.89851 16.4424 7.58751 16.4424 7.20451V5.86351C16.4424 5.48051 16.1314 5.16851 15.7484 5.16851H12.0844C11.7014 5.16851 11.3904 5.48051 11.3904 5.86351ZM9.20344 16.4525C9.20344 16.7745 8.94144 17.0375 8.61944 17.0375C8.29644 17.0375 8.03444 16.7745 8.03444 16.4525V11.1315C8.03444 9.66651 9.01744 8.39751 10.4084 8.01551C10.2854 7.76351 10.2214 7.48751 10.2214 7.20451V5.86351C10.2214 4.83551 11.0574 3.99951 12.0844 3.99951H15.7484C16.7754 3.99951 17.6114 4.83551 17.6114 5.86351V7.20451C17.6114 7.48851 17.5474 7.76451 17.4254 8.01551C18.8154 8.39751 19.7984 9.66651 19.7984 11.1315V16.4525C19.7984 16.7745 19.5364 17.0365 19.2144 17.0365C18.8914 17.0365 18.6294 16.7745 18.6294 16.4525V11.1315C18.6294 9.99351 17.7034 9.06751 16.5654 9.06751H11.2674C10.1294 9.06751 9.20344 9.99351 9.20344 11.1315V16.4525ZM19.9814 23.1477C20.1114 22.8087 20.2274 22.4417 20.3284 22.0517C20.8024 20.2117 20.7804 18.9857 20.2674 18.6877C20.1894 18.6417 20.1094 18.6187 20.0294 18.6187C19.6624 18.6187 19.0944 19.1297 18.7024 20.5707C18.6564 20.7407 18.5354 20.8817 18.3704 20.9537C18.2034 21.0267 18.0164 21.0167 17.8614 20.9317C16.7054 20.3127 15.3414 19.9857 13.9164 19.9857C12.4914 19.9857 11.1264 20.3127 9.97044 20.9327C9.81344 21.0147 9.62944 21.0257 9.46444 20.9537C9.29844 20.8827 9.17744 20.7417 9.13044 20.5707C8.73944 19.1297 8.17144 18.6187 7.80444 18.6187C7.72444 18.6187 7.64344 18.6427 7.56444 18.6877C7.05344 18.9857 7.03144 20.2117 7.50544 22.0517C7.60444 22.4387 7.72144 22.8067 7.85144 23.1477H19.9814ZM20.0294 17.4487C20.3184 17.4487 20.5974 17.5267 20.8554 17.6777C21.9124 18.2927 22.1094 19.8197 21.4594 22.3437C21.3074 22.9317 21.1234 23.4767 20.9104 23.9647C20.8184 24.1777 20.6074 24.3167 20.3744 24.3167H7.45844C7.22544 24.3167 7.01544 24.1777 6.92244 23.9647C6.70844 23.4727 6.52444 22.9277 6.37344 22.3437C5.72344 19.8187 5.92044 18.2917 6.97644 17.6777C7.23644 17.5267 7.51444 17.4487 7.80444 17.4487C8.24744 17.4487 9.33144 17.6637 10.0464 19.5977C12.4014 18.5737 15.4314 18.5737 17.7864 19.5977C18.5014 17.6637 19.5854 17.4487 20.0294 17.4487ZM16.2678 11.6952C16.1798 11.7742 14.4488 13.3852 14.4488 17.7492C14.4488 18.0712 14.7108 18.3342 15.0338 18.3342C15.3558 18.3342 15.6178 18.0712 15.6178 17.7492C15.6178 13.9852 17.0418 12.5702 17.0528 12.5602C17.2888 12.3442 17.3078 11.9752 17.0928 11.7372C16.8758 11.4972 16.5058 11.4792 16.2678 11.6952ZM10.7774 12.5582C10.5434 12.3392 10.5284 11.9702 10.7444 11.7352C10.9614 11.5002 11.3284 11.4812 11.5654 11.6952C11.6464 11.7682 13.3844 13.3872 13.3844 17.7492C13.3844 18.0712 13.1214 18.3342 12.7994 18.3342C12.4774 18.3342 12.2154 18.0712 12.2154 17.7492C12.2154 13.9918 10.8008 12.5815 10.7774 12.5582Z" fill="#184460"/>
</svg>
