<svg width="28" height="28" viewBox="0 0 28 28" fill="none" xmlns="http://www.w3.org/2000/svg">
<rect width="28" height="28" rx="4" fill="white"/>
<path fill-rule="evenodd" clip-rule="evenodd" d="M24.3148 6.47474C24.2318 6.1397 23.8929 5.93541 23.5578 6.01853L18.5162 7.26853C18.1811 7.35162 17.9769 7.69053 18.0599 8.02557C18.1432 8.3612 18.4827 8.56478 18.817 8.48178L23.8586 7.23178C24.1936 7.1487 24.3979 6.80978 24.3148 6.47474ZM24.3148 10.2247C24.2318 9.8897 23.8929 9.68532 23.5578 9.76853L18.5162 11.0185C18.1811 11.1016 17.9769 11.4405 18.0599 11.7756C18.1432 12.1112 18.4827 12.3148 18.817 12.2318L23.8586 10.9818C24.1936 10.8987 24.3979 10.5598 24.3148 10.2247ZM23.5578 13.5185C23.8929 13.4354 24.2318 13.6397 24.3148 13.9747C24.3979 14.3097 24.1936 14.6487 23.8586 14.7317L18.817 15.9817C18.4827 16.0647 18.1432 15.8611 18.0599 15.5255C17.9769 15.1905 18.1811 14.8516 18.5162 14.7685L23.5578 13.5185ZM24.3148 17.7247C24.2318 17.3896 23.8929 17.1853 23.5578 17.2685L18.5162 18.5185C18.1811 18.6016 17.9769 18.9405 18.0599 19.2755C18.1432 19.6111 18.4827 19.8147 18.817 19.7317L23.8586 18.4817C24.1936 18.3986 24.3979 18.0597 24.3148 17.7247ZM13.6666 6.00016C14.1464 6.00016 14.6292 6.02474 15.1016 6.07333C16.065 6.17241 16.7916 6.97728 16.7916 7.94549V20.3047C16.7916 21.2729 16.0651 22.0778 15.1017 22.1769C14.6293 22.2254 14.1465 22.2501 13.6666 22.2501C10.8592 22.2501 8.20799 21.4259 6.20116 19.9294C4.13687 18.39 3 16.3287 3 14.1251C3 11.9215 4.13687 9.86016 6.20112 8.32082C8.20791 6.82433 10.8592 6.00016 13.6666 6.00016ZM6.94837 18.9274C8.59295 20.1537 10.7372 20.8741 13.0416 20.9846V7.26562C10.7372 7.3762 8.59295 8.09653 6.94837 9.32291C5.20833 10.6205 4.25 12.3259 4.25 14.1251C4.25 15.9243 5.20833 17.6298 6.94837 18.9274ZM15.5416 20.3047C15.5416 20.6298 15.2974 20.9001 14.9737 20.9334C14.7484 20.9566 14.5204 20.9734 14.2916 20.9845V7.2657C14.5204 7.27683 14.7484 7.29362 14.9737 7.31678C15.2975 7.35008 15.5416 7.62037 15.5416 7.94549V20.3047Z" fill="#184460"/>
</svg>
