<svg width="28" height="28" viewBox="0 0 28 28" fill="none" xmlns="http://www.w3.org/2000/svg">
<rect width="28" height="28" rx="4" fill="white"/>
<path fill-rule="evenodd" clip-rule="evenodd" d="M20.872 11.5085L16.1845 6.52809C16.0738 6.41047 15.9193 6.34375 15.7578 6.34375H14V4.58594C14 4.26234 13.7376 4 13.4141 4H9.89844C9.57484 4 9.3125 4.26234 9.3125 4.58594V6.70691L7.11676 9.17711C7.02145 9.28437 6.96875 9.42289 6.96875 9.56641V19.8986C6.96879 20.3483 7.13859 20.7591 7.41742 21.0703C7.13859 21.3815 6.96875 21.7924 6.96875 22.2422C6.96875 23.2114 7.7573 24 8.72656 24H19.2735C20.2427 24 21.0312 23.2114 21.0312 22.2422C21.0312 21.7923 20.8612 21.3816 20.5823 21.0703C20.8613 20.7591 21.0312 20.3483 21.0312 19.8984V11.9102C21.0312 11.7609 20.9742 11.6173 20.872 11.5085ZM10.4844 5.17188H12.8281V6.34375H10.4844V5.17188ZM19.2735 22.8281H8.72656C8.40348 22.8281 8.14063 22.5653 8.14063 22.2422C8.14063 21.9191 8.40348 21.6562 8.72656 21.6562C9.05016 21.6562 9.3125 21.3939 9.3125 21.0703C9.3125 20.7467 9.05016 20.4844 8.72656 20.4844C8.40348 20.4844 8.14063 20.2215 8.14063 19.8984C8.14063 19.5754 8.40348 19.3125 8.72656 19.3125C9.05016 19.3125 9.3125 19.0502 9.3125 18.7266C9.3125 18.403 9.05016 18.1406 8.72656 18.1406C8.52113 18.1406 8.32402 18.1764 8.14063 18.2414V9.78918L10.1616 7.51562H15.5047L19.8594 12.1425V18.2414C19.676 18.1764 19.4789 18.1406 19.2735 18.1406C18.9499 18.1406 18.6875 18.403 18.6875 18.7266C18.6875 19.0502 18.9499 19.3125 19.2735 19.3125C19.5966 19.3125 19.8594 19.5754 19.8594 19.8984C19.8594 20.2215 19.5966 20.4844 19.2735 20.4844C19.1926 20.4844 19.1154 20.5008 19.0453 20.5304C18.835 20.6194 18.6875 20.8276 18.6875 21.0703C18.6875 21.313 18.835 21.5212 19.0453 21.6102C19.1154 21.6398 19.1926 21.6562 19.2735 21.6562C19.5966 21.6562 19.8594 21.9191 19.8594 22.2422C19.8594 22.5653 19.5966 22.8281 19.2735 22.8281ZM15.5187 9.24089C14.8572 8.53667 13.7452 8.49687 13.0332 9.1657C12.3261 9.8316 12.2924 10.943 12.9586 11.6504L15.6497 14.5098C16.3047 15.2054 17.4179 15.2596 18.1346 14.5845C18.8417 13.9186 18.8754 12.8071 18.2092 12.0998L15.5187 9.24089ZM17.331 13.7314C17.0984 13.9505 16.7276 13.9452 16.5029 13.7065L13.8118 10.8471C13.5885 10.61 13.6024 10.2394 13.8362 10.0193C14.0719 9.79789 14.443 9.80742 14.6649 10.0436L17.356 12.9031C17.5781 13.1389 17.5669 13.5093 17.331 13.7314ZM14 15.7969C14.1926 15.7969 14.3727 15.8914 14.4822 16.0498C14.4946 16.0679 14.7916 16.4989 15.0927 17.018C15.6888 18.0455 15.7578 18.4852 15.7578 18.7266C15.7578 19.6958 14.9693 20.4844 14 20.4844C13.0308 20.4844 12.2422 19.6958 12.2422 18.7266C12.2422 18.4852 12.3112 18.0455 12.9073 17.018C13.2084 16.4989 13.5054 16.0679 13.5178 16.0498C13.6273 15.8914 13.8075 15.7969 14 15.7969ZM13.4141 18.7272C13.4141 19.0496 13.677 19.3125 14 19.3125C14.323 19.3125 14.5856 19.0499 14.5859 18.727C14.5809 18.5472 14.3373 18.0368 14.0001 17.4688C13.6625 18.0375 13.4188 18.5481 13.4141 18.7272Z" fill="#00343F"/>
</svg>
