<svg width="28" height="28" viewBox="0 0 28 28" fill="none" xmlns="http://www.w3.org/2000/svg">
<rect width="28" height="28" rx="4" fill="white"/>
<path fill-rule="evenodd" clip-rule="evenodd" d="M22.285 11.0714H19.0708V10H16.3567C15.6583 10 15.0629 10.4478 14.8417 11.0714H11.4433C11.2221 10.4478 10.6267 10 9.92834 10H7.21416V11.0714H4V17.4997H7.21416V18.5711H9.92834C10.6267 18.5711 11.2221 18.1233 11.4433 17.4997H14.8417C15.0629 18.1233 15.6583 18.5711 16.3567 18.5711H19.0708V17.4997H22.285V11.0714ZM13.6782 12.1428H14.7496V16.4283H13.6782V12.1428ZM12.6068 16.4283H11.5354V12.1428H12.6068V16.4283ZM5.07139 16.4283V12.1428H7.21416V16.4283H5.07139ZM10.464 16.964C10.464 17.2593 10.2237 17.4997 9.92834 17.4997H8.28555V11.0714H9.92834C10.2237 11.0714 10.464 11.3118 10.464 11.6071V16.964ZM17.9995 17.4997H16.3567C16.0613 17.4997 15.821 17.2593 15.821 16.964V11.6071C15.821 11.3118 16.0613 11.0714 16.3567 11.0714H17.9995V17.4997ZM21.2136 16.4283H19.0708V12.1428H21.2136V16.4283Z" fill="#184460"/>
</svg>
