<svg width="28" height="28" viewBox="0 0 28 28" fill="none" xmlns="http://www.w3.org/2000/svg">
<rect width="28" height="28" rx="4" fill="white"/>
<path fill-rule="evenodd" clip-rule="evenodd" d="M21.5139 16.488C21.5139 16.5776 21.4381 16.6533 21.3486 16.6533H19.3276C19.6607 15.5016 19.8889 14.2043 18.8616 12.5797L19.698 11.9333L17.0357 10.9594L17.3068 13.7813L18.0735 13.1889C18.892 14.5346 18.632 15.5359 18.2929 16.6533H14.879C15.2121 15.5016 15.4402 14.2043 14.4129 12.5797L15.2493 11.9333L12.587 10.9594L12.8581 13.7813L13.6249 13.1889C14.4434 14.5346 14.1834 15.5359 13.8441 16.6533H10.4301C10.7633 15.5016 10.9913 14.2043 9.96415 12.5797L10.8006 11.9333L8.13824 10.9594L8.40922 13.7813L9.17594 13.1889C9.99459 14.5346 9.7345 15.5359 9.39532 16.6533H6.48777C6.39822 16.6533 6.32245 16.5776 6.32245 16.488V7.48784C6.32245 7.39822 6.39822 7.32252 6.48777 7.32252H21.3486C21.4381 7.32252 21.5139 7.39822 21.5139 7.48784V16.488ZM21.3486 6H6.48777C5.66739 6 5 6.66746 5 7.48784V16.488C5 17.3084 5.66739 17.9759 6.48777 17.9759H9.03872C8.8245 19.0801 8.8876 20.3382 10.0421 21.9L10.8397 21.3104C9.84429 19.9638 9.82315 18.9705 10.0518 17.9759H13.4875C13.2733 19.0801 13.3364 20.3382 14.4907 21.9L15.2883 21.3104C14.2929 19.9637 14.2719 18.9705 14.5005 17.9759H17.9361C17.7219 19.0801 17.7852 20.3382 18.9395 21.9L19.7371 21.3104C18.7417 19.9638 18.7207 18.9705 18.9493 17.9759H21.3486C22.169 17.9759 22.8364 17.3084 22.8364 16.488V7.48784C22.8364 6.66746 22.169 6 21.3486 6Z" fill="#184460"/>
</svg>
