<svg width="28" height="28" viewBox="0 0 28 28" fill="none" xmlns="http://www.w3.org/2000/svg">
<rect width="28" height="28" rx="4" fill="white"/>
<path fill-rule="evenodd" clip-rule="evenodd" d="M21.736 9.812H19.162C18.851 9.812 18.598 9.559 18.598 9.248V7.47H17.003V9.618C17.003 9.725 16.973 9.829 16.916 9.92L15.517 12.126C15.414 12.29 15.235 12.388 15.041 12.388H14.713V18.925C15.284 19.108 15.729 19.553 15.911 20.122H18.598V18.344C18.598 18.033 18.851 17.78 19.162 17.78H21.736C22.047 17.78 22.3 18.033 22.3 18.344V23.029C22.3 23.339 22.047 23.593 21.736 23.593H19.162C18.851 23.593 18.598 23.339 18.598 23.029V21.25H15.911C15.667 22.014 14.959 22.538 14.15 22.538C13.341 22.538 12.633 22.014 12.389 21.25H9.702V23.029C9.702 23.339 9.449 23.593 9.138 23.593H6.563C6.253 23.593 6 23.339 6 23.029V18.344C6 18.033 6.253 17.78 6.563 17.78H9.138C9.449 17.78 9.702 18.033 9.702 18.344V20.122H12.389C12.571 19.553 13.016 19.108 13.586 18.925V12.388H13.259C13.064 12.388 12.886 12.29 12.783 12.126L11.384 9.92C11.327 9.828 11.297 9.724 11.297 9.618V7.47H9.702V9.248C9.702 9.559 9.449 9.812 9.138 9.812H6.563C6.253 9.812 6 9.559 6 9.248V4.564C6 4.253 6.253 4 6.563 4H9.138C9.449 4 9.702 4.253 9.702 4.564V6.343H11.297V5.527C11.297 5.217 11.55 4.964 11.86 4.964H16.439C16.75 4.964 17.003 5.217 17.003 5.527V6.343H18.598V4.564C18.598 4.253 18.851 4 19.162 4H21.736C22.047 4 22.3 4.253 22.3 4.564V9.248C22.3 9.559 22.047 9.812 21.736 9.812ZM13.426 20.687C13.426 21.085 13.751 21.409 14.15 21.409C14.549 21.409 14.874 21.085 14.874 20.687C14.874 20.287 14.549 19.963 14.15 19.963C13.751 19.963 13.426 20.287 13.426 20.687ZM15.876 6.091V9.454L14.731 11.261H13.569L12.424 9.454V6.091H15.876ZM21.172 22.465H19.725V18.908H21.172V22.465ZM7.128 22.465H8.575V18.908H7.128V22.465ZM7.128 8.685H8.575V5.128H7.128V8.685ZM19.725 8.685H21.172V5.128H19.725V8.685Z" fill="#184460"/>
</svg>
