<svg width="28" height="28" viewBox="0 0 28 28" fill="none" xmlns="http://www.w3.org/2000/svg">
<rect width="28" height="28" rx="4" fill="white"/>
<path fill-rule="evenodd" clip-rule="evenodd" d="M22.2389 8.614C21.7609 9.034 21.1489 9.266 20.5139 9.266C19.4779 9.266 18.5399 8.652 18.1249 7.701C18.0409 7.51 17.8509 7.386 17.6419 7.386H10.2709C10.0609 7.386 9.87187 7.51 9.78787 7.701C9.37287 8.652 8.43487 9.266 7.39887 9.266C6.76387 9.266 6.15087 9.034 5.67387 8.614L5.48087 8.444L5.73787 8.439C6.69987 8.42 7.48287 7.622 7.48287 6.659C7.48287 5.697 6.69987 4.899 5.73787 4.88L5.48087 4.875L5.67387 4.705C6.15087 4.284 6.76287 4.053 7.39887 4.053C8.43487 4.053 9.37287 4.667 9.78787 5.617C9.87187 5.809 10.0609 5.932 10.2709 5.932H17.6419C17.8509 5.932 18.0409 5.809 18.1249 5.617C18.5399 4.667 19.4779 4.053 20.5139 4.053C21.1499 4.053 21.7619 4.284 22.2389 4.705L22.4309 4.875L22.1749 4.88C21.2129 4.899 20.4299 5.697 20.4299 6.659C20.4299 7.622 21.2129 8.42 22.1749 8.439L22.4309 8.444L22.2389 8.614ZM23.8269 7.625C23.7299 7.475 23.5649 7.386 23.3859 7.386H22.2099C21.8089 7.386 21.4839 7.06 21.4839 6.659C21.4839 6.259 21.8089 5.932 22.2099 5.932H23.3859C23.5649 5.932 23.7299 5.843 23.8269 5.695C23.9259 5.545 23.9409 5.359 23.8689 5.195C23.2859 3.862 21.9689 3 20.5139 3C19.2109 3 17.9969 3.701 17.3449 4.829L17.3159 4.88H10.5969L10.5689 4.829C9.91687 3.701 8.70187 3 7.39887 3C5.94387 3 4.62687 3.862 4.04387 5.195C3.97287 5.359 3.98887 5.545 4.08587 5.695C4.18287 5.843 4.34787 5.932 4.52687 5.932H5.70287C6.10387 5.932 6.42987 6.259 6.42987 6.659C6.42987 7.06 6.10387 7.386 5.70287 7.386H4.52687C4.34787 7.386 4.18287 7.475 4.08587 7.624C3.98887 7.773 3.97287 7.96 4.04387 8.123C4.62687 9.457 5.94387 10.319 7.39887 10.319C8.70187 10.319 9.91687 9.618 10.5689 8.489L10.5969 8.439H17.3159L17.3449 8.489C17.9969 9.618 19.2109 10.319 20.5139 10.319C21.9689 10.319 23.2859 9.457 23.8689 8.123C23.9409 7.96 23.9259 7.773 23.8269 7.625ZM19.4283 19.1203C19.7193 19.1203 19.9553 18.8843 19.9553 18.5943C19.9553 18.3033 19.7193 18.0663 19.4283 18.0663C19.1383 18.0663 18.9023 18.3033 18.9023 18.5943C18.9023 18.8843 19.1383 19.1203 19.4283 19.1203ZM8.69297 18.0685C8.40197 18.0685 8.16697 18.3045 8.16697 18.5955C8.16697 18.8855 8.40197 19.1225 8.69297 19.1225C8.98397 19.1225 9.21897 18.8855 9.21897 18.5955C9.21897 18.3045 8.98397 18.0685 8.69297 18.0685ZM11.1995 18.0666H16.9225C17.2135 18.0666 17.4495 18.3026 17.4495 18.5936C17.4495 18.8836 17.2135 19.1206 16.9225 19.1206H11.1995C10.9085 19.1206 10.6725 18.8836 10.6725 18.5936C10.6725 18.3026 10.9085 18.0666 11.1995 18.0666ZM7.12907 20.1504C7.40207 20.4244 7.76407 20.5734 8.14707 20.5734H19.9741C20.7631 20.5734 21.4061 19.9354 21.4071 19.1504L21.4081 18.3544C21.4091 17.7314 21.0411 17.2174 20.4461 17.0114C18.5891 16.3694 15.0671 16.1604 14.0631 16.1604C11.4631 16.1604 9.05307 16.5004 7.61607 17.0714C7.05207 17.2944 6.71507 17.7884 6.71407 18.3934L6.71307 19.1494C6.71207 19.5254 6.86007 19.8814 7.12907 20.1504ZM9.00707 23.0794C9.23007 23.0794 9.41907 22.8904 9.41907 22.6674V21.6274H8.14707C7.69307 21.6274 7.25007 21.5044 6.86507 21.2714L6.71307 21.1804V22.6674C6.71307 22.8904 6.90207 23.0794 7.12607 23.0794H9.00707ZM8.72384 15.0364C8.58997 15.2902 8.4874 15.4846 8.46207 15.5324L8.35807 15.7284L8.57407 15.6774C10.0961 15.3084 12.0451 15.1064 14.0631 15.1064C14.5231 15.1064 17.3301 15.2064 19.5381 15.6774L19.7461 15.7224L19.6471 15.5334C19.5731 15.3914 18.6231 13.5864 18.6231 13.5864C18.3641 13.0944 17.9051 12.8124 17.3621 12.8124H10.7491C10.1991 12.8124 9.75107 13.0874 9.48907 13.5854L9.23207 14.0734C9.06696 14.3861 8.87535 14.7493 8.72384 15.0364ZM20.9961 23.0794C21.2191 23.0794 21.4081 22.8904 21.4081 22.6674V21.1784L21.2561 21.2694C20.8701 21.5034 20.4261 21.6274 19.9741 21.6274H18.7031V22.6674C18.7031 22.8904 18.8911 23.0794 19.1151 23.0794H20.9961ZM20.9961 24.1334H19.1151C18.3071 24.1334 17.6491 23.4744 17.6491 22.6674V21.6274H10.4731V22.6674C10.4731 23.4744 9.81507 24.1334 9.00707 24.1334H7.12607C6.31807 24.1334 5.66007 23.4744 5.66007 22.6674L5.66107 18.3914C5.66307 17.5094 6.10907 16.7184 6.85607 16.2744L6.88007 16.2604L6.89407 16.2354C6.94665 16.1339 7.1331 15.7823 7.3646 15.3456C7.4501 15.1844 7.54175 15.0115 7.63507 14.8354C7.77534 14.5705 7.91962 14.2984 8.05267 14.0475C8.27723 13.624 8.46979 13.2608 8.55707 13.0944C8.99707 12.2584 9.81607 11.7594 10.7491 11.7594H17.3621C18.2941 11.7594 19.1141 12.2594 19.5541 13.0954C19.5541 13.0954 20.8961 15.6484 21.1681 16.1634L21.1821 16.1894L21.2081 16.2034C21.9941 16.6434 22.4631 17.4484 22.4621 18.3564V22.6674C22.4621 23.4744 21.8041 24.1334 20.9961 24.1334Z" fill="#184460"/>
</svg>
