<svg width="28" height="28" viewBox="0 0 28 28" fill="none" xmlns="http://www.w3.org/2000/svg">
<rect width="28" height="28" rx="4" fill="white"/>
<path fill-rule="evenodd" clip-rule="evenodd" d="M10.5958 12.3477L10.5575 12.3094C10.4793 12.2251 10.4738 12.204 10.4527 12.1558C10.3726 11.9721 10.4185 11.752 10.5575 11.6023L12.7594 9.40022C12.8657 9.30162 12.947 9.24032 13.169 9.25692C13.3522 9.28452 13.3804 9.32022 13.4666 9.40022L13.9374 9.87102C13.9797 9.86282 14.0252 9.85902 14.0736 9.86052C14.1807 9.86932 14.2505 9.88462 14.3658 9.97562L18.0187 13.0206C18.2619 13.2345 18.161 13.673 17.9089 13.8425L18.3309 14.2645C18.409 14.3487 18.4145 14.3699 18.4356 14.4181C18.5157 14.6018 18.4698 14.8218 18.3309 14.9716L16.1288 17.1736C15.9298 17.3583 15.6604 17.395 15.4217 17.1736L15.3165 17.0684L11.7351 20.6497C11.6995 20.7073 11.6493 20.7618 11.5834 20.8109L9.06559 22.5606C9.05879 22.565 9.05239 22.5691 9.04639 22.5729L8.06499 23.5543C7.99869 23.617 7.97469 23.6289 7.92839 23.6512C7.73999 23.7419 7.53899 23.7254 7.35789 23.5543L4.15129 20.3477C4.08859 20.2814 4.07669 20.2574 4.05439 20.2111C3.96369 20.0227 3.98019 19.8217 4.15129 19.6406L5.17569 18.6162C5.19729 18.5957 5.21749 18.5772 5.23779 18.5608L6.79939 16.2133C6.82389 16.1478 6.86129 16.0862 6.91029 16.0333L10.5958 12.3477ZM5.21199 19.9941L7.71149 22.4936L8.02869 22.1763L5.52919 19.6769C5.42349 19.7826 5.31769 19.8884 5.21199 19.9941ZM7.35439 17.1845L6.22279 18.8855L8.83819 21.5009L10.5094 20.3395L7.35439 17.1845ZM7.98129 16.3765L11.2877 19.6829L14.6093 16.3613L11.3029 13.0548L7.98129 16.3765ZM15.9268 13.2746C15.431 13.7754 14.9254 14.2665 14.4269 14.7646L15.7753 16.113L17.2702 14.618L15.9268 13.2746ZM15.2132 12.5611L13.113 10.4609C12.6147 10.9592 12.1164 11.4575 11.6181 11.9558L13.7192 14.0569C14.2085 13.5497 14.7121 13.0566 15.2132 12.5611ZM14.9924 8.94172C15.0995 8.95052 15.1693 8.96582 15.2846 9.05682L18.9375 12.1018C19.2292 12.3584 19.1485 12.4581 19.0957 12.6315C19.0014 12.9414 18.5775 13.0911 18.2973 12.8699L14.6443 9.82492C14.32 9.53972 14.4262 8.92512 14.9924 8.94172ZM15.9112 8.02282C16.1272 8.04072 16.147 8.09342 16.2034 8.13792L19.8564 11.183C20.242 11.5222 19.7621 12.3821 19.2161 11.9511L15.5631 8.90612C15.3856 8.74992 15.4004 8.68502 15.3875 8.58712C15.349 8.29342 15.5454 8.01212 15.9112 8.02282ZM17.0603 7.17462C17.0684 7.16492 17.077 7.15532 17.086 7.14572L19.4844 4.74742C19.6257 4.61482 20.4446 3.99592 21.3187 4.00002C22.2635 4.02252 23.0796 5.04662 23.5072 5.77042C23.9082 6.44922 23.5203 7.31982 22.9982 8.10452C22.9982 8.10452 22.9835 8.13282 22.9284 8.19142L20.8152 10.3047C21.1245 10.6664 20.6603 11.4471 20.1349 11.0323L16.482 7.98732C15.7649 7.35652 16.53 7.09522 16.83 7.10402C16.9166 7.11112 16.9788 7.12252 17.0603 7.17462ZM21.292 5.00002C20.9 5.01182 20.5251 5.25282 20.1596 5.48772L18.1467 7.49922L20.1766 9.52912L22.1867 7.51892C22.4228 7.16402 22.7103 6.77322 22.6817 6.36102C22.6559 5.98852 21.8719 5.26842 21.3601 5.01262C21.3405 5.00292 21.3162 4.99972 21.292 5.00002Z" fill="#184460"/>
</svg>
