<svg width="28" height="28" viewBox="0 0 28 28" fill="none" xmlns="http://www.w3.org/2000/svg">
<rect width="28" height="28" rx="4" fill="white"/>
<path fill-rule="evenodd" clip-rule="evenodd" d="M13.955 22.838C16.328 22.838 18.558 21.914 20.235 20.235C21.914 18.558 22.838 16.328 22.838 13.955C22.838 11.582 21.914 9.352 20.235 7.674C18.557 5.996 16.327 5.072 13.955 5.072C11.583 5.072 9.352 5.996 7.674 7.674C5.996 9.352 5.072 11.583 5.072 13.955C5.072 16.327 5.996 18.557 7.674 20.235C9.352 21.914 11.582 22.838 13.955 22.838ZM13.955 4C16.614 4 19.114 5.035 20.994 6.915C22.874 8.796 23.91 11.296 23.91 13.955C23.91 16.613 22.874 19.113 20.994 20.994C19.113 22.874 16.613 23.91 13.955 23.91C11.296 23.91 8.796 22.874 6.915 20.994C5.035 19.114 4 16.614 4 13.955C4 11.296 5.035 8.796 6.915 6.915C8.796 5.035 11.296 4 13.955 4ZM20.5982 14.9567H18.0802C16.4342 14.9567 15.0952 16.2957 15.0952 17.9417V20.5757L15.0532 20.5837C14.6942 20.6427 14.3242 20.6727 13.9542 20.6727C13.5852 20.6727 13.2152 20.6427 12.8552 20.5837L12.8142 20.5757V17.9417C12.8142 16.2957 11.4742 14.9567 9.8282 14.9567H7.3112L7.3052 14.9147C7.2602 14.5997 7.2372 14.2767 7.2372 13.9547C7.2372 13.6527 7.2572 13.3487 7.2972 13.0507L7.3032 13.0077H7.4062C9.3652 13.0077 11.3442 12.5807 13.2872 11.7377C13.7042 11.5557 14.1972 11.5557 14.6162 11.7357C16.4942 12.5427 18.4342 12.9527 20.3812 12.9527H20.5982L20.6052 12.9957C20.6502 13.3147 20.6722 13.6367 20.6722 13.9547C20.6722 14.2727 20.6502 14.5947 20.6052 14.9137L20.5982 14.9567ZM20.3242 16.0947C19.6742 18.0197 18.1462 19.5827 16.2352 20.2737L16.1682 20.2987V17.9417C16.1682 16.8877 17.0262 16.0287 18.0802 16.0287H20.3452L20.3242 16.0947ZM11.7412 20.2987L11.6742 20.2737C9.7632 19.5827 8.2342 18.0197 7.5862 16.0947L7.5632 16.0287H9.8282C10.8832 16.0287 11.7412 16.8877 11.7412 17.9417V20.2987ZM7.5682 11.8677C8.4762 9.0977 11.0422 7.2367 13.9542 7.2367C16.8402 7.2367 19.4002 9.0767 20.3242 11.8137L20.3452 11.8807L20.2762 11.8797C18.5112 11.8647 16.7492 11.4847 15.0402 10.7497C14.3512 10.4547 13.5522 10.4547 12.8612 10.7537C11.1242 11.5067 9.3602 11.9037 7.6172 11.9327L7.5462 11.9347L7.5682 11.8677ZM13.9542 6.1647C9.6592 6.1647 6.1642 9.6597 6.1642 13.9547C6.1642 18.2507 9.6592 21.7457 13.9542 21.7457C18.2502 21.7457 21.7452 18.2507 21.7452 13.9547C21.7452 9.6597 18.2502 6.1647 13.9542 6.1647ZM13.9547 14.9918C13.5477 14.9918 13.2167 14.6608 13.2167 14.2538C13.2167 13.8468 13.5477 13.5158 13.9547 13.5158C14.3617 13.5158 14.6927 13.8468 14.6927 14.2538C14.6927 14.6608 14.3617 14.9918 13.9547 14.9918ZM13.9547 12.4428C12.9557 12.4428 12.1437 13.2558 12.1437 14.2538C12.1437 15.2528 12.9557 16.0648 13.9547 16.0648C14.9527 16.0648 15.7657 15.2528 15.7657 14.2538C15.7657 13.2558 14.9527 12.4428 13.9547 12.4428Z" fill="#184460"/>
</svg>
