<svg width="28" height="28" viewBox="0 0 28 28" fill="none" xmlns="http://www.w3.org/2000/svg">
<rect width="28" height="28" rx="4" fill="white"/>
<path fill-rule="evenodd" clip-rule="evenodd" d="M21.4061 12.4555H20.7891C20.8475 12.2907 20.8796 12.1136 20.8796 11.929C20.8796 11.5248 20.7268 11.1557 20.4761 10.876C20.7268 10.5964 20.8796 10.2273 20.8796 9.82304C20.8796 9.13667 20.4394 8.55146 19.8266 8.33412V6.59388C19.8266 5.72296 19.1181 5.0144 18.2471 5.0144C17.3762 5.0144 16.6677 5.72296 16.6677 6.59388V8.33412C16.0549 8.55146 15.6147 9.13667 15.6147 9.82304C15.6147 10.2273 15.7675 10.5964 16.0181 10.876C15.7675 11.1557 15.6147 11.5248 15.6147 11.929C15.6147 12.1136 15.6468 12.2907 15.7052 12.4555H14.4915V11.929C14.4915 10.6577 13.5856 9.59413 12.3855 9.34952V8.77006C12.3855 7.31851 11.2046 6.13759 9.7531 6.13759H7.64712C6.19558 6.13759 5.01465 7.31851 5.01465 8.77006V20.3529C5.01465 21.8045 6.19558 22.9854 7.64712 22.9854H9.7531C11.2046 22.9854 12.3855 21.8045 12.3855 20.3529V19.7735C13.5856 19.5289 14.4915 18.4653 14.4915 17.194V16.6675H21.4061C22.277 16.6675 22.9856 15.9589 22.9856 15.088V14.035C22.9856 13.1641 22.277 12.4555 21.4061 12.4555ZM11.3326 8.97114L9.51765 9.87861C9.25756 10.0087 9.15216 10.3249 9.2822 10.585C9.41224 10.8452 9.72853 10.9504 9.98854 10.8204L11.3326 10.1485V12.1301L9.51765 13.0376C9.25756 13.1677 9.15216 13.4839 9.2822 13.744C9.41224 14.0041 9.72853 14.1094 9.98854 13.9794L11.3326 13.3074V15.2891L9.51765 16.1965C9.25756 16.3266 9.15216 16.6428 9.2822 16.9029C9.41221 17.163 9.72842 17.2684 9.98854 17.1384L11.3326 16.4664V18.4481L9.51765 19.3555C9.25756 19.4856 9.15216 19.8018 9.2822 20.0619C9.41221 20.322 9.72842 20.4274 9.98854 20.2974L11.3326 19.6253V20.3529C11.3326 21.2239 10.624 21.9324 9.7531 21.9324H7.64712C6.77619 21.9324 6.06764 21.2239 6.06764 20.3529V19.6253L7.41167 20.2974C7.67176 20.4274 7.98801 20.322 8.11802 20.0619C8.24806 19.8018 8.14266 19.4856 7.88257 19.3555L6.06764 18.448V16.4663L7.41167 17.1384C7.67176 17.2684 7.98801 17.163 8.11802 16.9029C8.24806 16.6428 8.14266 16.3266 7.88257 16.1965L6.06764 15.2891V13.3074L7.41167 13.9794C7.67176 14.1094 7.98801 14.004 8.11802 13.744C8.24806 13.4839 8.14266 13.1676 7.88257 13.0376L6.06764 12.1301V10.1484L7.41167 10.8204C7.67172 10.9505 7.98801 10.845 8.11802 10.585C8.24806 10.3249 8.14266 10.0087 7.88257 9.87861L6.06764 8.97114V8.77006C6.06764 7.89913 6.77619 7.19058 7.64712 7.19058H9.7531C10.624 7.19058 11.3326 7.89913 11.3326 8.77006V8.97114ZM13.4385 17.194C13.4385 17.8803 12.9983 18.4655 12.3855 18.6829V10.4401C12.9983 10.6574 13.4385 11.2427 13.4385 11.929V17.194ZM17.7207 6.59388C17.7207 6.30357 17.9568 6.06739 18.2471 6.06739C18.5375 6.06739 18.7736 6.30357 18.7736 6.59388V8.24356H17.7207V6.59388ZM17.1942 9.29655H19.3001C19.5904 9.29655 19.8266 9.53274 19.8266 9.82304C19.8266 10.1134 19.5904 10.3495 19.3001 10.3495H17.1942C16.9039 10.3495 16.6677 10.1134 16.6677 9.82304C16.6677 9.53274 16.9039 9.29655 17.1942 9.29655ZM17.1942 11.4025H19.3001C19.5904 11.4025 19.8266 11.6387 19.8266 11.929C19.8266 12.2193 19.5904 12.4555 19.3001 12.4555H17.1942C16.9039 12.4555 16.6677 12.2193 16.6677 11.929C16.6677 11.6387 16.9039 11.4025 17.1942 11.4025ZM21.9326 15.088C21.9326 15.3783 21.6964 15.6145 21.4061 15.6145H14.4915V13.5085C14.8442 13.5085 21.0515 13.5085 21.4061 13.5085C21.6964 13.5085 21.9326 13.7447 21.9326 14.035V15.088Z" fill="#00343F"/>
</svg>
