<svg width="28" height="28" viewBox="0 0 28 28" fill="none" xmlns="http://www.w3.org/2000/svg">
<rect width="28" height="28" rx="4" fill="white"/>
<path fill-rule="evenodd" clip-rule="evenodd" d="M21.9753 21.9756C23.3779 20.5731 23.2114 18.2527 21.6263 17.0639L21.6158 17.0562L16.6932 13.5506L16.871 13.3456L16.8751 13.3407C16.9751 13.2225 17.1213 13.1547 17.2761 13.1547H19.3254C19.7464 13.1547 20.1421 12.9908 20.4397 12.6931L22.1624 10.9705C23.1866 9.94635 23.1866 8.27994 22.1624 7.25578C22.0639 7.15726 21.9303 7.10189 21.791 7.10189C21.6517 7.10189 21.518 7.15723 21.4195 7.25575L19.9336 8.74165C19.7288 8.94647 19.3955 8.94647 19.1907 8.74165C18.9854 8.53631 18.9854 8.20404 19.1907 7.99873L20.6766 6.51283C20.8817 6.30766 20.8817 5.97505 20.6766 5.76991C19.6501 4.74345 17.9885 4.74327 16.9619 5.76991L15.2392 7.49265C14.9415 7.79031 14.7715 8.18607 14.7715 8.60705V10.6563C14.7715 10.8112 14.7098 10.9573 14.5916 11.0573L14.5879 11.0605L13.8904 11.6619L11.2203 8.99186L10.5167 6.88075C10.4729 6.74938 10.379 6.6406 10.2555 6.57808L7.24871 5.05722C7.04617 4.95478 6.80069 4.99397 6.64011 5.15448L5.1542 6.64039C4.99366 6.8009 4.95443 7.04641 5.05691 7.24895L6.57783 10.2558C6.64032 10.3793 6.74913 10.4732 6.88051 10.517L8.99165 11.2208L11.4969 13.726L5.93197 18.5249C5.42791 18.9523 5.1044 19.5477 5.02087 20.2018C4.93387 20.8834 5.12072 21.5389 5.54703 22.0475C6.53752 23.2294 8.331 23.2187 9.31078 22.0643L13.4832 17.2525L17.0706 21.6359C18.2623 23.2131 20.5763 23.3747 21.9753 21.9756ZM7.02943 20.3546C7.02943 20.6447 7.26463 20.8799 7.55478 20.8799C7.84492 20.8799 8.08013 20.6447 8.08013 20.3546C8.08013 20.0644 7.84492 19.8292 7.55478 19.8292C7.26463 19.8292 7.02943 20.0644 7.02943 20.3546ZM9.6469 10.3901L12.2948 13.038L13.0926 12.35L10.3898 9.64718C10.3321 9.58953 10.2886 9.5192 10.2629 9.44184L9.5883 7.41812L7.11397 6.16652L6.16627 7.11429L7.41783 9.58862L9.44156 10.2632C9.51892 10.289 9.58925 10.3325 9.6469 10.3901ZM16.0755 12.6594L8.51526 21.378L8.51113 21.3828C7.9518 22.0439 6.9239 22.0546 6.35232 21.3727C5.86672 20.7932 5.98594 19.8556 6.61275 19.3253L6.61646 19.3221C10.1382 16.2901 12.6174 14.1496 14.1178 12.8542L14.1195 12.8527C14.606 12.4327 14.9896 12.1015 15.2723 11.8577C15.6257 11.5577 15.8223 11.12 15.8223 10.6563V8.60705C15.8223 8.46675 15.883 8.33482 15.9822 8.2356L17.7049 6.5129C18.1987 6.01911 18.9251 5.92973 19.4991 6.20456L18.4479 7.25582C17.8334 7.8703 17.8334 8.87015 18.4479 9.48464C19.0623 10.0991 20.0622 10.0991 20.6767 9.48464L21.7274 8.4339C22.0065 9.01967 21.9039 9.74328 21.4196 10.2276L19.6969 11.9503C19.5977 12.0495 19.4658 12.1111 19.3255 12.1111H17.2762C16.8129 12.1111 16.3755 12.3065 16.0755 12.6594ZM14.1817 16.447L14.8809 17.3013L16.8428 14.947L16.0018 14.348L14.1817 16.447ZM21.0007 17.908C22.0722 18.7163 22.1798 20.2854 21.2324 21.2327C20.2821 22.1829 18.7098 22.0704 17.9042 20.9962C17.8997 20.9903 17.8951 20.9844 17.8904 20.9787L15.5586 18.1294L17.7012 15.5582L21.0007 17.908Z" fill="#184460"/>
</svg>
