<svg width="28" height="28" viewBox="0 0 28 28" fill="none" xmlns="http://www.w3.org/2000/svg">
<rect width="28" height="28" rx="4" fill="white"/>
<path fill-rule="evenodd" clip-rule="evenodd" d="M6.65545 12.6956L6.65537 12.4214C6.65521 12.0558 6.65505 11.6902 6.65745 11.3246C6.66445 10.4506 7.27245 9.83564 8.13645 9.82964C8.76945 9.82564 9.40245 9.82364 10.0345 9.82364C10.6315 9.82364 11.2274 9.82564 11.8245 9.82964C12.6385 9.83464 13.2595 10.4476 13.2685 11.2556C13.2815 12.5596 13.2825 13.9086 13.2685 15.3776C13.2605 16.1716 12.6255 16.7966 11.8215 16.7996C10.5865 16.8066 9.34845 16.8076 8.11245 16.7996C7.29145 16.7966 6.66545 16.1696 6.65745 15.3436C6.65345 14.8806 6.65445 14.4166 6.65545 13.9526L6.65645 13.3136L6.65545 12.6956ZM13.2465 8.91664C12.8165 8.65264 12.3455 8.51764 11.8465 8.51464L11.2825 8.51064C10.2495 8.50464 9.18245 8.49864 8.13245 8.51664C6.53145 8.54264 5.36345 9.72864 5.35445 11.3356C5.34645 12.8056 5.34145 14.1326 5.35945 15.4846C5.37745 16.8376 6.49445 18.0256 7.79945 18.0796C8.54045 18.1116 9.27945 18.1276 10.0095 18.1276C10.7085 18.1276 11.4005 18.1126 12.0805 18.0836C13.4525 18.0256 14.5705 16.8146 14.5725 15.3836C14.5795 12.4196 14.5805 9.45464 14.5725 6.48964C14.5685 5.02064 13.8125 3.93064 12.4455 3.41864C11.2015 2.95364 9.83245 2.87664 8.25945 3.18564C7.42545 3.34864 6.76845 3.68064 6.25045 4.19964C5.33645 5.11564 5.30845 6.29164 5.36645 7.09664C5.39045 7.43264 5.73745 7.65164 6.03545 7.63264C6.35745 7.61464 6.62145 7.36564 6.65045 7.05264C6.65845 6.95464 6.65745 6.85664 6.65645 6.75864L6.65545 6.64564C6.65745 5.55064 7.14345 4.88564 8.18445 4.55364C9.03745 4.28064 9.91845 4.29664 10.5905 4.34264C11.1885 4.38264 11.6625 4.49064 12.0835 4.68264C12.8165 5.01864 13.2045 5.54664 13.2365 6.25164C13.2661 6.91664 13.2596 7.56988 13.2527 8.2608L13.2525 8.28264L13.2465 8.91664ZM21.6185 15.5567V15.5577C21.6154 16.3757 20.9495 17.0407 20.1325 17.0407C19.3135 17.0397 18.6445 16.3717 18.6425 15.5527C18.6425 15.1567 18.7975 14.7827 19.0795 14.5007C19.3625 14.2197 19.7375 14.0657 20.1364 14.0657H20.1455C20.9605 14.0687 21.6215 14.7387 21.6185 15.5567ZM21.3545 13.0457C20.2835 12.5237 19.2365 12.6557 18.3275 13.4277C17.4335 14.1877 17.1314 15.1927 17.4555 16.3337C17.7304 17.3007 18.3875 17.9477 19.4085 18.2527C19.4264 18.2587 19.4555 18.2777 19.4725 18.2927L19.4745 18.4947C19.4804 18.8297 19.4855 19.1747 19.4435 19.5027C19.2225 21.2257 17.9625 22.5517 16.2315 22.8807C14.5914 23.1917 12.9425 22.4027 12.1125 20.9197C11.9475 20.6237 11.7125 20.4847 11.3735 20.4847H11.3615C10.7615 20.4907 10.1645 20.4897 9.56645 20.4887L8.08145 20.4877C7.28845 20.4867 6.49445 20.4867 5.70145 20.4897C5.44645 20.4907 5.22045 20.6087 5.09545 20.8047C4.97945 20.9907 4.96845 21.2137 5.06645 21.4207C5.22745 21.7597 5.54545 21.7997 5.77145 21.7997C6.73845 21.7977 7.70645 21.7977 8.67345 21.7977L10.9955 21.7967C11.0885 21.7967 11.1185 21.8107 11.1625 21.8737C12.2575 23.4437 13.7155 24.2357 15.5035 24.2357C15.7645 24.2357 16.0325 24.2187 16.3085 24.1847C18.4835 23.9177 20.3725 22.0817 20.7005 19.9137C20.7605 19.5217 20.7785 19.1337 20.7965 18.7237L20.7978 18.6936C20.8044 18.5512 20.811 18.4064 20.8195 18.2607L20.8535 18.2507C22.0564 17.9227 22.8874 16.8837 22.9205 15.6657C22.9535 14.4677 22.4125 13.5617 21.3545 13.0457ZM9.96215 14.8967H9.96015C9.57715 14.8937 9.30815 14.6007 9.30515 14.1837C9.30215 13.6447 9.30215 13.1047 9.30515 12.5657C9.30815 12.1547 9.58415 11.8577 9.96215 11.8577H9.96515C10.3402 11.8587 10.6082 12.1417 10.6182 12.5457C10.6222 12.7397 10.6212 12.9347 10.6202 13.1277L10.6192 13.3787L10.6202 13.6277C10.6212 13.8147 10.6222 14.0017 10.6182 14.1897C10.6102 14.6127 10.3462 14.8967 9.96215 14.8967Z" fill="#184460"/>
</svg>
