<svg width="28" height="28" viewBox="0 0 28 28" fill="none" xmlns="http://www.w3.org/2000/svg">
<rect width="28" height="28" rx="4" fill="white"/>
<path fill-rule="evenodd" clip-rule="evenodd" d="M5.9856 20.1081V21.291H21.9535V20.1081L20.5469 19.488C20.3678 19.4098 20.2532 19.2325 20.2532 19.0379C20.2532 17.9805 19.3931 17.1212 18.3357 17.1212H9.6007C8.54418 17.1212 7.68495 17.9805 7.68495 19.0379C7.68495 19.2334 7.56857 19.4107 7.38945 19.4889L5.9856 20.1081ZM12.8885 3.9856C11.9692 3.9856 11.2219 4.73299 11.2219 5.65222C11.2219 6.36506 12.2502 9.28368 13.214 11.7186H14.7078C15.6789 9.28005 16.7163 6.35869 16.7163 5.65222C16.7163 4.73299 15.968 3.9856 15.0479 3.9856H12.8885ZM14.5478 16.1365H13.3913V12.7042H14.5478V16.1365ZM21.2206 18.7088L22.6436 19.3361C22.8218 19.4152 22.9364 19.5916 22.9364 19.7862V21.7838C22.9364 22.0547 22.7154 22.2757 22.4445 22.2757H5.49189C5.22003 22.2757 5 22.0547 5 21.7838V19.7862C5 19.5916 5.11456 19.4143 5.29277 19.3361L6.71844 18.7088C6.8821 17.2622 8.13775 16.1365 9.6007 16.1365H12.4057V12.3514C12.1529 11.7231 10.2362 6.89968 10.2362 5.65222C10.2362 4.19018 11.4255 3 12.8885 3H15.0479C16.5099 3 17.6992 4.19018 17.6992 5.65222C17.6992 6.85059 15.9089 11.3667 15.5307 12.3078V16.1365H18.3357C19.8223 16.1365 21.0524 17.2385 21.2206 18.7088ZM14.9359 7.85183C14.9359 8.12369 14.7149 8.34463 14.4422 8.34463H13.4938C13.222 8.34463 13.0019 8.12369 13.0019 7.85183C13.0019 7.58088 13.222 7.35994 13.4938 7.35994H14.4422C14.7149 7.35994 14.9359 7.58088 14.9359 7.85183ZM15.4712 5.71105C15.4712 5.43919 15.2503 5.21825 14.9775 5.21825H12.9581C12.6872 5.21825 12.4662 5.43919 12.4662 5.71105C12.4662 5.982 12.6872 6.20385 12.9581 6.20385H14.9775C15.2503 6.20385 15.4712 5.982 15.4712 5.71105ZM10.5127 19.1497H17.4255C17.6965 19.1497 17.9165 19.3707 17.9165 19.6425C17.9165 19.9135 17.6965 20.1344 17.4255 20.1344H10.5127C10.2399 20.1344 10.0189 19.9135 10.0189 19.6425C10.0189 19.3707 10.2399 19.1497 10.5127 19.1497Z" fill="#184460"/>
</svg>
