<svg width="28" height="28" viewBox="0 0 28 28" fill="none" xmlns="http://www.w3.org/2000/svg">
<rect width="28" height="28" rx="4" fill="white"/>
<path fill-rule="evenodd" clip-rule="evenodd" d="M6.72919 14.7191L9.70873 24.1543C9.79189 24.4176 10.0728 24.5637 10.3361 24.4805C10.5994 24.3974 10.7455 24.1165 10.6623 23.8532L8.91034 18.3053L10.2843 17.1031C11.4202 16.1091 12.7923 15.4422 14.2551 15.157L14.787 16.6982C14.8435 16.8617 14.9805 16.9845 15.1492 17.0227C17.1532 17.4764 19.2014 17.1237 20.8892 16.43C22.5646 15.7415 23.9598 14.6854 24.6192 13.6466C24.6996 13.52 24.7189 13.364 24.6718 13.2216L21.622 4.00071C21.5715 3.84813 21.4508 3.72911 21.2975 3.68082C21.1442 3.63254 20.9771 3.66087 20.8483 3.75697C19.3886 4.84604 17.7806 5.4193 15.6561 5.48452L14.9764 3.3484C14.9104 3.14091 14.7177 3 14.4999 3H11.9995C9.94402 3 7.94396 3.66669 6.29954 4.9L4.98778 5.88382L4.97693 5.84945C4.89377 5.58612 4.61289 5.44007 4.34957 5.52322C4.08624 5.60638 3.94019 5.88725 4.02334 6.15058L6.68503 14.5793C6.69268 14.6272 6.70737 14.6744 6.72919 14.7191ZM11.9995 4C11.8779 4 11.7565 4.00261 11.6354 4.0078L12.3795 6.36419C12.6906 6.33328 13.0041 6.31763 13.3191 6.31763H14.8718L14.1343 4H11.9995ZM15.1899 7.31763H13.3191C13.1079 7.31763 12.8974 7.32549 12.688 7.34107L13.698 10.5392C13.9837 10.5132 14.2714 10.5 14.5604 10.5H16.2025L15.1899 7.31763ZM16.5207 11.5H14.5604C14.3753 11.5 14.1908 11.5061 14.0071 11.518L14.81 14.0606C15.1642 14.0204 15.5219 14 15.8816 14H17.3161L16.5207 11.5ZM12.6953 10.6849L11.6822 7.47672C10.8419 7.64164 10.0316 7.93259 9.27895 8.33917L10.2827 11.5176C11.0451 11.1332 11.8566 10.8528 12.6953 10.6849ZM10.5882 12.4852C11.344 12.0857 12.1566 11.8021 12.9984 11.6447L13.8141 14.2277C12.9792 14.4139 12.1732 14.712 11.4183 15.1137L10.5882 12.4852ZM9.39488 12.0271L8.40232 8.88399C8.16745 9.05055 7.94028 9.22959 7.72183 9.42072L6.4548 10.5294L7.42958 13.6162L8.3046 12.8505C8.64962 12.5487 9.01414 12.2738 9.39488 12.0271ZM7.75835 14.6573L8.96311 13.6031C9.20166 13.3944 9.45062 13.2001 9.70865 13.0207L10.5376 15.6456C10.2211 15.8609 9.9165 16.0961 9.62575 16.3505L8.58158 17.2642L7.75835 14.6573ZM15.5281 15.7805L15.2665 15.0223C15.4705 15.0075 15.6757 15 15.8816 15H16.5092L15.5281 15.7805ZM16.5885 16.2148C17.9539 16.2878 19.3166 15.9952 20.5091 15.5051C20.6196 15.4597 20.7282 15.4128 20.8349 15.3644L20.0471 12.8697C19.4757 13.1326 18.8592 13.3567 18.214 13.5238L18.4764 14.3484C18.5248 14.5004 18.4977 14.6664 18.4035 14.7951C18.3379 14.8849 18.2452 14.949 18.141 14.9797L16.5885 16.2148ZM20.9483 12.4026L21.7365 14.8985C22.5871 14.4 23.2506 13.8278 23.6443 13.2997L22.8559 10.9158C22.4075 11.4036 21.8181 11.874 21.1421 12.2871C21.0784 12.326 21.0138 12.3645 20.9483 12.4026ZM22.4815 9.78399C22.132 10.3087 21.4937 10.8975 20.6388 11.4226L19.9542 9.25471C20.6808 8.88943 21.364 8.42816 21.8722 7.94184L22.4815 9.78399ZM21.5129 6.85549C21.1625 7.31079 20.4854 7.84661 19.6487 8.28732L18.9025 5.92429C19.603 5.68002 20.2575 5.35601 20.883 4.95085L21.5129 6.85549ZM16.8063 9.0995C17.3923 9.10405 18.0636 8.9554 18.7311 8.70225L17.9417 6.20241C17.3246 6.34643 16.6708 6.43615 15.9704 6.47237L16.8063 9.0995ZM19.0326 9.65713C18.4076 9.88955 17.7513 10.0514 17.1216 10.0905L17.9103 12.5693C18.559 12.4052 19.1773 12.177 19.7434 11.9078L19.0326 9.65713ZM6.12603 9.48828L7.06333 8.66815C7.3884 8.38371 7.73077 8.12324 8.08772 7.88775L7.30627 5.41316C7.16823 5.50458 7.03258 5.60022 6.89954 5.7L5.30693 6.89446L6.12603 9.48828ZM8.97293 7.37009C9.73256 6.97928 10.5421 6.69241 11.3794 6.51775L10.6199 4.11271C9.77568 4.25158 8.95741 4.51711 8.19291 4.90002L8.97293 7.37009Z" fill="#184460"/>
</svg>
