<svg width="28" height="28" viewBox="0 0 28 28" fill="none" xmlns="http://www.w3.org/2000/svg">
<rect width="28" height="28" rx="4" fill="white"/>
<path fill-rule="evenodd" clip-rule="evenodd" d="M12.6132 4.4541C13.3815 4.4541 14.0317 4.89424 14.4578 5.46812L14.4333 5.46533L14.5524 5.63625C14.6714 5.80673 14.7696 5.98808 14.8464 6.17733C14.9435 6.4378 14.9959 6.70046 14.9959 6.94425V21.3077C14.9959 21.3762 14.9913 21.4456 14.9822 21.5157C14.9054 21.8649 14.7605 22.1958 14.5524 22.4934L14.4333 22.6643L14.4647 22.6609C14.0543 23.1683 13.442 23.5459 12.7568 23.5459H7.12612C7.01146 23.5459 6.89522 23.5279 6.77923 23.4945C6.4494 23.3698 6.1494 23.1841 5.89354 22.9511C5.67676 22.7428 5.48306 22.4962 5.33171 22.2368C5.11726 21.8466 4.99561 21.3993 4.99561 20.9243V7.20542C4.99561 5.68807 6.22931 4.45437 7.74666 4.45437L12.6132 4.4541ZM15.4194 4.71916C17.1004 5.07322 18.6148 5.80095 19.9209 7.01268C21.881 8.83095 23.0047 11.4011 23.0047 14.0648C23.0047 18.7326 19.6828 22.5993 15.2673 23.4807C15.5312 23.1664 15.7257 22.7912 15.8267 22.3793C17.745 21.8201 19.4337 20.5893 20.5737 18.8896L20.6282 18.8087L19.6718 18.2568L20.1491 17.4304L21.1064 17.9823L21.1501 17.895C21.7383 16.704 22.0492 15.3794 22.0492 14.0648C22.0492 12.762 21.7428 11.4475 21.1637 10.2638L21.1219 10.1765L20.1491 10.7374L19.6718 9.91101L20.6455 9.34916L20.5918 9.26825C19.4567 7.56284 17.7729 6.32615 15.8564 5.75831C15.7876 5.39607 15.647 5.05952 15.4501 4.76361L15.4194 4.71916ZM14.0906 18.4069L11.675 20.016L11.635 20.0433V22.7207H12.2951C13.2851 22.7207 14.0906 21.9152 14.0906 20.9243V18.4069ZM10.6804 5.40896H9.36128V22.7207H10.6804V5.40896ZM5.9502 18.4069V20.9243C5.9502 21.9152 6.75661 22.7207 7.74666 22.7207H8.40669V20.0433L5.9502 18.4069ZM15.9056 8.42202C16.7633 8.79832 17.5239 9.36483 18.1363 10.0892C19.0772 11.2011 19.5945 12.612 19.5945 14.0648C19.5945 16.5422 18.1138 18.7705 15.9055 19.7459L15.9057 18.7115C17.5761 17.8057 18.6527 16.0387 18.6527 14.1003C18.6527 12.1611 17.5761 10.3939 15.9057 9.4882L15.9056 8.42202ZM14.0906 13.8203L11.675 15.4303L11.635 15.4576V18.8951L14.0506 17.285L14.0906 17.2577V13.8203ZM5.9502 13.8203V17.2577L8.40669 18.8951V15.4576L5.9502 13.8203ZM15.9062 11.0429C16.8405 11.7581 17.4108 12.8752 17.4108 14.0803C17.4108 15.2854 16.8405 16.4025 15.9062 17.1177V15.9526C16.3301 15.4284 16.5689 14.7707 16.5689 14.0803C16.5689 13.3901 16.3303 12.7326 15.9067 12.2086L15.9062 11.0429ZM14.0906 9.27279L11.675 10.8829L11.635 10.9092V14.3103L14.0506 12.6993L14.0906 12.6729V9.27279ZM5.9502 9.27279V12.6729L8.40669 14.3103V10.9092L5.9502 9.27279ZM12.2951 5.40896H11.635V9.76191L14.0506 8.15183L14.0906 8.12455V7.20542C14.0906 6.21537 13.2851 5.40896 12.2951 5.40896ZM8.40669 5.40896H7.74666C6.75661 5.40896 5.9502 6.21537 5.9502 7.20542V8.12455L8.40669 9.76191V5.40896Z" fill="#00343F"/>
</svg>
