<svg width="28" height="28" viewBox="0 0 28 28" fill="none" xmlns="http://www.w3.org/2000/svg">
<rect width="28" height="28" rx="4" fill="white"/>
<path fill-rule="evenodd" clip-rule="evenodd" d="M23.9715 18.5624L21.8349 8.94723C21.6551 8.13794 20.9505 7.57275 20.1215 7.57275H7.87885C7.04982 7.57275 6.34522 8.13794 6.16544 8.94723L4.0287 18.5624C3.95989 18.8719 4.15028 19.18 4.45792 19.2569C7.482 20.0129 10.6919 20.4274 14.0001 20.4274C17.2222 20.4274 20.4369 20.0333 23.5423 19.2569C23.85 19.18 24.0403 18.8719 23.9715 18.5624ZM7.30765 9.20108C7.36764 8.93132 7.60249 8.74292 7.87885 8.74292H20.1214C20.3977 8.74292 20.6326 8.93132 20.6926 9.20108L20.8508 9.9131H7.14944L7.30765 9.20108ZM19.8038 18.8152L19.3048 18.1915V15.1788C19.3048 14.8557 19.0429 14.5937 18.7198 14.5937C18.3966 14.5937 18.1347 14.8557 18.1347 15.1788V16.7288L15.6661 13.6431C15.4643 13.3908 15.0961 13.3499 14.8438 13.5518C14.5915 13.7536 14.5505 14.1218 14.7524 14.3742L18.4517 18.9983C16.6588 19.2076 14.8523 19.2897 13.0486 19.245L12.2059 18.1916V15.1788C12.2059 14.8557 11.944 14.5937 11.6208 14.5937C11.2977 14.5937 11.0358 14.8557 11.0358 15.1788V16.7289L8.56722 13.6432C8.36537 13.3909 7.99723 13.35 7.74486 13.5518C7.49253 13.7537 7.45162 14.1219 7.65351 14.3742L11.4939 19.1748C9.40877 19.0385 7.33394 18.7328 5.29561 18.2558L6.88946 11.0833H21.1109L22.7047 18.2558C21.745 18.4803 20.777 18.6662 19.8038 18.8152Z" fill="#00343F"/>
</svg>
