<svg width="202" height="51" viewBox="0 0 202 51" fill="none" xmlns="http://www.w3.org/2000/svg">
<g clip-path="url(#clip0_4818_4271)">
<path d="M68.0615 16.1532C66.672 10.5366 64.3502 -0.594565 53.899 0.0248113C46.0966 0.41896 35.7333 1.82663 30.5833 2.72402C21.2542 4.34637 6.54299 5.80331 3.73583 12.8804C2.81769 15.5761 2.57848 18.2577 2.77196 21.1469C1.75885 21.8015 0.991978 22.5933 0.608543 23.5646C-0.538245 26.936 0.0879151 30.2687 1.21008 34.7979C2.59959 40.4074 3.32425 42.5084 5.90628 44.9507C6.9405 45.834 8.41092 46.1578 10.103 46.1367C10.8311 47.1115 11.6719 48.037 12.6815 48.9942C18.4611 53.9317 32.307 48.5966 41.1612 45.4328C46.0861 43.6732 55.9534 40.2244 63.0381 36.927C72.6064 32.5737 69.451 21.7628 68.0615 16.1532ZM55.0247 10.3958C53.1145 10.3958 51.5667 8.8474 51.5667 6.93649C51.5667 5.02557 53.1145 3.47713 55.0247 3.47713C56.9348 3.47713 58.4826 5.02557 58.4826 6.93649C58.4826 8.8474 56.9348 10.3958 55.0247 10.3958Z" fill="#00AEB5"/>
<path d="M86.8502 36.1739V41.4738H85.2953C81.2183 41.4738 79.1146 39.4538 79.1146 35.5439V29.1496C79.1146 26.5419 77.4754 24.8175 74.9109 24.8175C72.2198 24.8175 70.4117 26.5841 70.4117 29.234V41.4738H64.9451V29.1496C64.9451 26.5419 63.2636 24.8175 60.7414 24.8175C58.0503 24.8175 56.2 26.5841 56.2 29.234V41.4738H50.7334V20.0243H56.2V22.5054C57.7548 20.5276 59.9429 19.5176 62.5495 19.5176C65.7437 19.5176 68.1815 20.9464 69.4443 23.3887C71.0836 20.8654 73.5636 19.5176 76.719 19.5176C81.4293 19.5176 84.5812 22.6708 84.5812 27.5096V34.365C84.5812 35.5017 85.2531 36.1739 86.3894 36.1739H86.8502Z" fill="white"/>
<path d="M87.8145 30.7473C87.8145 24.3529 92.7745 19.5176 99.3351 19.5176C105.896 19.5176 110.856 24.3529 110.856 30.7473C110.856 37.1416 105.896 41.977 99.3351 41.977C92.7745 41.977 87.8145 37.1416 87.8145 30.7473ZM105.22 30.7473C105.22 27.383 102.74 24.8175 99.3351 24.8175C95.9299 24.8175 93.4499 27.383 93.4499 30.7473C93.4499 34.1116 95.9721 36.6771 99.3351 36.6771C102.698 36.6771 105.22 34.1116 105.22 30.7473Z" fill="white"/>
<path d="M120.733 25.0286V33.7773C120.733 35.4595 121.785 36.4695 123.551 36.4695H125.697V41.4738H122.753C117.835 41.4738 115.27 39.1194 115.27 34.7028V25.0286H111.865V20.0243H113.842C114.978 20.0243 115.566 19.4366 115.566 18.2999V14.3057H120.737V20.0243H125.697V25.0286H120.737H120.733Z" fill="white"/>
<path d="M128.346 13.4613C128.346 11.5257 129.858 10.0547 131.793 10.0547C133.728 10.0547 135.241 11.5257 135.241 13.4613C135.241 15.3968 133.728 16.8678 131.793 16.8678C129.858 16.8678 128.346 15.3968 128.346 13.4613ZM129.06 20.021H134.526V41.4704H129.06V20.021Z" fill="white"/>
<path d="M137.678 30.7473C137.678 24.3529 142.638 19.5176 149.198 19.5176C154.915 19.5176 159.372 23.1775 160.424 28.2663H154.623C153.698 26.204 151.678 24.8175 149.198 24.8175C145.835 24.8175 143.313 27.383 143.313 30.7473C143.313 34.1116 145.835 36.6771 149.198 36.6771C151.678 36.6771 153.698 35.2906 154.623 33.2283H160.424C159.372 38.3171 154.915 41.977 149.198 41.977C142.641 41.977 137.678 37.1416 137.678 30.7473Z" fill="white"/>
<path d="M187.285 36.1739V41.4738H185.73C182.702 41.4738 180.77 40.3371 179.972 38.1094C178.29 40.506 175.726 41.977 172.616 41.977C166.647 41.977 162.147 37.1416 162.147 30.7473C162.147 24.3529 166.647 19.5176 172.616 19.5176C175.518 19.5176 177.914 20.781 179.596 22.8397V20.0208H185.062V34.3615C185.062 35.4982 185.692 36.1704 186.87 36.1704H187.292L187.285 36.1739ZM179.592 30.7473C179.592 27.383 177.07 24.8175 173.665 24.8175C170.259 24.8175 167.779 27.383 167.779 30.7473C167.779 34.1116 170.302 36.6771 173.665 36.6771C177.028 36.6771 179.592 34.1116 179.592 30.7473Z" fill="white"/>
<path d="M202.001 19.6871V25.3213C197.628 25.3213 195.19 27.6334 195.19 31.2511V41.4709H189.724V20.0214H195.19V23.3013C196.872 21.0314 199.183 19.6836 202.001 19.6836V19.6871Z" fill="white"/>
<path d="M30.035 33.1368C27.0836 33.1368 24.498 32.5983 22.3979 31.9051C16.7203 30.0329 13.3081 26.6967 13.1673 26.5559C12.4321 25.8274 12.4286 24.6415 13.1568 23.906C13.885 23.174 15.0669 23.1669 15.8021 23.8919C16.2911 24.3705 27.7027 35.2518 43.3567 25.0954C44.2256 24.5324 45.3829 24.7787 45.9458 25.648C46.5086 26.5172 46.2624 27.675 45.3935 28.2381C39.6982 31.9332 34.4533 33.1368 30.035 33.1368Z" fill="#FBE74C"/>
</g>
<defs>
<clipPath id="clip0_4818_4271">
<rect width="202" height="51" fill="white"/>
</clipPath>
</defs>
</svg>
