<svg width="80" height="80" viewBox="0 0 80 80" fill="none" xmlns="http://www.w3.org/2000/svg">
<g clip-path="url(#clip0_4623_19822)">
<path fill-rule="evenodd" clip-rule="evenodd" d="M38.5105 0.0195647C48.7806 -0.242764 57.897 2.89713 65.8606 9.43929C72.7535 15.3625 77.1895 22.79 79.1682 31.7217C80.8169 40.0261 80.0107 48.0791 76.7504 55.8803C72.5473 65.2931 65.7709 72.1724 56.4216 76.5186C47.7508 80.261 38.8533 80.9828 29.7291 78.6849C19.8966 75.965 12.1531 70.3878 6.49893 61.9538C1.55529 54.2165 -0.565906 45.8153 0.135294 36.7507C0.938775 27.6152 4.40106 19.6655 10.5221 12.9016C17.2862 5.69295 25.5968 1.48275 35.4544 0.271015C36.4877 0.162307 37.5067 0.0784931 38.5105 0.0195647Z" fill="#FF8000"/>
<path fill-rule="evenodd" clip-rule="evenodd" d="M29.1102 60.4062C22.9814 60.4577 16.8564 60.4577 10.735 60.4062C15.1551 52.3977 19.5911 44.3966 24.0425 36.4024C19.5938 36.3895 15.145 36.3766 10.6963 36.3637C13.4379 31.5056 16.1845 26.6507 18.9361 21.7989C28.3365 21.7667 37.7369 21.7473 47.1373 21.7409C48.5547 19.9297 50.0379 18.1695 51.586 16.4604C57.1826 16.4152 62.7787 16.4088 68.3752 16.441C65.9106 19.8995 63.5833 23.452 61.3926 27.0987C60.8251 28.0791 60.2769 29.0721 59.7485 30.0774C59.8595 30.1048 59.969 30.1306 60.0773 30.1548C62.2232 30.1908 64.2027 30.842 66.0154 32.1084C67.6379 33.4372 68.6762 35.1329 69.1296 37.1954C69.4882 38.9122 69.5462 40.6596 69.3036 42.4372C68.5497 48.3815 65.9191 53.3072 61.412 57.2147C56.634 61.0395 51.3214 62.4062 45.4739 61.3153C40.1381 60.0929 36.8046 56.824 35.4739 51.5087C35.1063 49.853 34.9261 48.1768 34.9323 46.4797C34.0541 48.2751 33.2286 50.0933 32.4564 51.9343C31.3288 54.7575 30.2131 57.5815 29.1102 60.4062Z" fill="#FEFEFE"/>
<path fill-rule="evenodd" clip-rule="evenodd" d="M52.824 19.168C56.2603 19.1165 59.7033 19.1165 63.1528 19.168C63.1482 19.1915 63.135 19.2044 63.1141 19.2067C59.6905 19.1681 56.2603 19.1552 52.824 19.168Z" fill="#6161CA"/>
<path fill-rule="evenodd" clip-rule="evenodd" d="M52.8239 19.1684C56.2603 19.1555 59.6905 19.1684 63.1141 19.2071C60.5241 22.8518 58.1195 26.6171 55.8994 30.503C55.5028 31.2878 55.1028 32.0744 54.7001 32.8628C54.656 32.9632 54.6239 33.0664 54.6034 33.1723C55.1075 33.0086 55.6235 32.8925 56.1508 32.8241C56.5713 32.7925 56.9841 32.7409 57.3887 32.6694C59.9667 32.5255 62.1783 33.3379 64.0232 35.1065C64.8994 36.0737 65.5311 37.1827 65.9187 38.4334C66.3168 39.9893 66.3941 41.5626 66.1508 43.1529C65.5431 46.6887 64.1377 49.8609 61.9342 52.6694C57.986 57.3711 52.9377 59.428 46.7891 58.8396C42.5249 58.2257 39.733 55.8593 38.4139 51.7409C38.0255 50.4113 37.7934 49.0574 37.7175 47.679C37.6874 46.6342 37.7001 45.5897 37.7562 44.5456C37.8386 43.8489 37.9806 43.1653 38.1818 42.4953C38.6634 40.9699 39.2564 39.4868 39.9613 38.0465C43.4773 31.2238 47.7647 24.9311 52.8239 19.1684Z" fill="#0000AA"/>
<path fill-rule="evenodd" clip-rule="evenodd" d="M20.561 24.5455C28.4334 24.4939 36.3123 24.4939 44.1974 24.5455C44.1928 24.569 44.1796 24.5819 44.1587 24.5842C36.2991 24.5455 28.4334 24.5326 20.561 24.5455Z" fill="#2F2EB7"/>
<path fill-rule="evenodd" clip-rule="evenodd" d="M20.5609 24.5454C28.4333 24.5325 36.2991 24.5454 44.1586 24.584C40.7459 30.0984 37.5025 35.7076 34.4294 41.4119C32.1629 45.7125 30.0867 50.097 28.2012 54.5647C27.7637 55.6127 27.3447 56.6703 26.9439 57.7369C23.0882 57.7496 19.2325 57.7369 15.3772 57.6982C19.9238 49.5918 24.4886 41.4939 29.0716 33.4042C29.0925 33.4018 29.1056 33.389 29.1103 33.3655C24.6488 33.3268 20.1873 33.3139 15.7254 33.3268C16.9938 30.9963 18.2642 28.6623 19.5358 26.3249C19.8697 25.7268 20.2116 25.1336 20.5609 24.5454Z" fill="#0000AA"/>
<path fill-rule="evenodd" clip-rule="evenodd" d="M57.3888 32.6694C56.9841 32.741 56.5714 32.7926 56.1509 32.8242C56.5536 32.7364 56.9664 32.6848 57.3888 32.6694Z" fill="#514BC1"/>
<path fill-rule="evenodd" clip-rule="evenodd" d="M15.7253 33.3271C20.1872 33.3142 24.6487 33.3271 29.1103 33.3658C29.1056 33.3893 29.0925 33.4021 29.0716 33.4045C24.6228 33.3787 20.1741 33.3529 15.7253 33.3271Z" fill="#9E9EDE"/>
<path fill-rule="evenodd" clip-rule="evenodd" d="M50.8898 49.8068C50.7165 49.8404 50.5486 49.8791 50.3869 49.9228C49.0697 49.9897 48.1738 49.4095 47.6983 48.182C47.4156 47.281 47.3769 46.3657 47.5823 45.4354C48.0171 43.7333 48.7134 42.1472 49.6713 40.6772C50.2074 39.8957 50.8976 39.2961 51.7409 38.8783C52.6272 38.524 53.5169 38.4984 54.4101 38.8009C55.0426 39.0853 55.4747 39.5561 55.7061 40.2129C55.7761 40.428 55.8275 40.647 55.8608 40.8706C55.9393 41.7116 55.862 42.5371 55.6287 43.3464C54.9564 45.4191 53.8798 47.2567 52.3985 48.859C51.9591 49.2795 51.4562 49.5955 50.8898 49.8068Z" fill="#FEFEFE"/>
<path fill-rule="evenodd" clip-rule="evenodd" d="M50.8899 49.8066C50.7394 49.8987 50.5715 49.9374 50.387 49.9227C50.5487 49.879 50.7166 49.8403 50.8899 49.8066Z" fill="#6C64CB"/>
<path fill-rule="evenodd" clip-rule="evenodd" d="M10.735 60.4062C16.8564 60.4577 22.9814 60.4577 29.1102 60.4062C26.0541 60.4577 22.9853 60.4836 19.9033 60.4836C16.8344 60.4709 13.7651 60.4577 10.6963 60.4449C10.7009 60.4213 10.7141 60.4086 10.735 60.4062Z" fill="#F1CDB1"/>
</g>
<defs>
<clipPath id="clip0_4623_19822">
<rect width="80" height="80" fill="white"/>
</clipPath>
</defs>
</svg>
