<svg width="413" height="80" viewBox="0 0 413 80" fill="none" xmlns="http://www.w3.org/2000/svg">
<g clip-path="url(#clip0_4623_8296)">
<path d="M9.83929 65.8975L401.92 65.9617V66.099L0 79.9076L9.83929 65.8975Z" fill="#D10602"/>
<path d="M323.978 39.8249C322.203 44.4461 320.15 45.7218 316.588 45.6286C314.638 45.582 313.368 45.0797 312.787 43.7074C312.051 41.9707 312.688 40.2918 313.938 36.8586L316.451 29.7238C318.144 25.1492 319.45 22.8543 324.025 22.8543C325.692 22.8543 327.178 23.386 327.806 24.5185C328.436 25.6573 328.171 27.2219 327.102 30.2991H348.488C350.085 19.9733 345.221 13.3667 327.972 13.3667C307.768 13.3667 298.653 17.5705 293.602 31.9044C288.522 46.3407 291.126 56.1878 312.183 56.1878C331.324 56.1878 340.608 53.219 345.878 39.8219L323.978 39.8249ZM120.668 42.7735C114.823 42.7735 113.015 41.1035 115.582 33.9859L121.135 18.7643C122.816 14.0965 125.182 13.638 129.733 13.638H147.026L151.265 1.93992H126.711C109.43 1.93992 101.53 3.1518 96.7821 17.0448L90.3592 34.8531C86.4993 45.5643 84.3446 55.4991 101.629 55.4991H134.547L139.198 42.7706L120.668 42.7735ZM280.374 0.0922852L260.404 55.5046H282.108L301.658 0.0922852H280.374ZM64.3073 12.1842H47.3211L17.0593 55.5075H42.4745L47.2803 47.1789H60.9266L59.3587 55.5046H84.4089L87.7228 2.42745H54.1413L64.3073 12.1842ZM67.452 12.1842H67.6271L62.8973 36.9199H53.166L67.452 12.1842ZM187.457 19.2258L180.742 38.1112C179.203 42.2012 178.143 43.7368 173.7 43.7368H168.316L179.109 13.7257H183.013C187.46 13.7257 188.998 15.1388 187.454 19.2258M196.031 2.42451H158.853L176.12 13.7169H154.97L139.756 55.5075H179.959C196.84 55.5075 200.309 51.5284 205.115 38.196L210.805 22.148C215.161 10.0179 212.913 2.42745 196.031 2.42745M367.072 43.7104C366.251 42.0114 366.972 40.2948 368.222 36.8615L370.732 29.7238C372.385 25.2659 373.644 22.8573 378.508 22.8573C380.172 22.8573 381.465 23.3918 382.087 24.5214C382.797 25.7912 382.385 27.5868 380.986 31.4286L378.093 39.4276C376.262 44.3759 374.522 45.5731 370.928 45.5731C368.978 45.5731 367.676 44.9718 367.072 43.7104ZM366.467 56.1908C386.665 56.1908 395.78 51.9928 400.831 37.6526C405.917 23.2163 403.313 13.3722 382.254 13.3722C362.055 13.3722 352.935 17.5735 347.889 31.9073C342.803 46.3466 345.408 56.1908 366.467 56.1908ZM245.627 29.7238C246.976 26.1532 247.029 22.8837 241.948 22.8837C236.86 22.8837 235.102 24.6352 233.108 29.7238H245.627ZM262.494 41.3194C260.92 45.8066 257.957 49.698 251.694 52.9591C246.801 55.5046 239.417 56.1878 228.839 56.1878C207.78 56.1878 205.176 46.3407 210.262 31.9044C215.307 17.5705 224.425 13.3667 244.626 13.3667C266.806 13.3667 269.509 21.7537 264.178 36.8615H230.591C229.552 39.638 228.48 42.2537 229.359 44.1223C230.13 45.7571 231.765 46.2299 233.972 46.2299C238.159 46.2299 240.159 44.3092 241.347 41.3194H262.494ZM404.679 49.3419V46.9219H406.305C407.134 46.9219 408.016 47.1029 408.016 48.0691C408.016 49.2688 407.114 49.3419 406.104 49.3419H404.679ZM404.679 50.3493H406.051L408.124 53.759H409.45L407.219 50.2997C408.375 50.1536 409.254 49.5405 409.254 48.1422C409.254 46.5977 408.337 45.9175 406.483 45.9175H403.503V53.759H404.682L404.679 50.3493ZM406.121 56.6287C409.829 56.6287 413 53.759 413 49.8093C413 45.9145 409.829 43.0478 406.121 43.0478C402.387 43.0478 399.228 45.9145 399.228 49.8093C399.228 53.759 402.387 56.6287 406.121 56.6287ZM400.597 49.8093C400.597 46.5977 403.015 44.1719 406.121 44.1719C409.199 44.1719 411.634 46.5977 411.634 49.8093C411.634 53.0905 409.199 55.5046 406.121 55.5046C403.015 55.5046 400.597 53.0905 400.597 49.8122" fill="#17389F"/>
</g>
<defs>
<clipPath id="clip0_4623_8296">
<rect width="413" height="80" fill="white"/>
</clipPath>
</defs>
</svg>
