<svg width="60" height="80" viewBox="0 0 60 80" fill="none" xmlns="http://www.w3.org/2000/svg">
<g clip-path="url(#clip0_4623_24579)">
<path opacity="0.989" fill-rule="evenodd" clip-rule="evenodd" d="M38.2892 0.0244141C38.9639 0.0244141 39.6386 0.0244141 40.3133 0.0244141C40.3051 1.87859 40.3133 3.73266 40.3374 5.58669C40.961 4.56802 41.8684 3.99568 43.0602 3.86964C44.428 3.67307 45.6651 3.97943 46.7711 4.78862C47.5205 5.46108 48.0101 6.29135 48.241 7.27955C48.5827 8.96705 48.4863 10.6277 47.9518 12.2614C46.8761 14.3209 45.1817 15.2157 42.8675 14.9458C41.7783 14.7664 40.919 14.2263 40.2892 13.3255C40.268 13.8553 40.2439 14.3712 40.2169 14.8733C39.5581 14.8733 38.8998 14.8733 38.241 14.8733C38.2872 9.93735 38.3036 4.98775 38.2892 0.0244141ZM42.7711 5.29648C44.2569 5.0901 45.293 5.67051 45.8795 7.03771C46.4255 8.58577 46.4255 10.1335 45.8795 11.681C45.3417 13.0193 44.3537 13.6239 42.9157 13.4948C41.654 13.3091 40.8588 12.5917 40.5301 11.3424C40.2308 10.0327 40.2468 8.72681 40.5783 7.42466C40.9133 6.2901 41.6443 5.58069 42.7711 5.29648Z" fill="#009900"/>
<path opacity="0.993" fill-rule="evenodd" clip-rule="evenodd" d="M54.9638 3.94179C57.3271 3.79248 58.9016 4.83239 59.6866 7.0615C59.8091 7.46518 59.8977 7.8763 59.9517 8.29488C59.984 9.10102 59.984 9.90711 59.9517 10.7133C59.7845 12.3322 59.0534 13.6139 57.7589 14.5585C56.5175 15.2823 55.2004 15.4597 53.8071 15.0905C53.0274 14.8653 52.4091 14.4219 51.9517 13.7604C51.9382 15.5018 51.93 17.2431 51.9276 18.9841C51.2732 18.9685 50.6226 18.9846 49.9758 19.0325C49.9435 19.0002 49.9117 18.968 49.8794 18.9357C49.8707 14.0743 49.8466 9.21338 49.8071 4.35292C49.8091 4.2676 49.8254 4.18697 49.8553 4.11108C50.53 4.0869 51.2047 4.07882 51.8794 4.0869C51.8635 4.61647 51.8876 5.18078 51.9517 5.77976C52.6862 4.7297 53.69 4.11703 54.9638 3.94179ZM54.5782 5.48956C56.2433 5.33231 57.2958 6.05783 57.7348 7.6661C57.996 9.01628 57.9479 10.3544 57.5903 11.6806C56.9734 13.3328 55.7927 13.9858 54.0481 13.6395C53.1633 13.445 52.5609 12.921 52.2409 12.0676C51.7589 10.4511 51.7748 8.85497 52.2891 7.27916C52.7107 6.23432 53.4741 5.6378 54.5782 5.48956Z" fill="#009900"/>
<path opacity="0.998" fill-rule="evenodd" clip-rule="evenodd" d="M52.2169 41.2819C52.1529 41.3141 52.1047 41.3625 52.0724 41.427C50.8637 41.1913 49.6671 40.9817 48.482 40.7982C48.3745 40.7921 48.2618 40.8082 48.1447 40.8466C47.8377 40.8097 47.5326 40.7614 47.229 40.7015C46.5625 40.7019 45.8955 40.7019 45.229 40.7015C45.3769 40.4583 45.5297 40.2165 45.6868 39.9759C46.6675 38.2025 47.4304 36.3484 47.976 34.4137C46.8377 34.5101 45.7129 34.6955 44.6025 34.9699C43.5206 35.2859 42.428 35.6325 41.3254 36.0098C41.3673 35.6821 41.4319 35.3596 41.5182 35.0424C41.5095 34.8865 41.5095 34.7333 41.5182 34.583C41.6126 34.4781 41.629 34.3652 41.5663 34.2444C41.6338 34.0556 41.682 33.8621 41.7109 33.664C41.695 33.6479 41.6786 33.6317 41.6627 33.6156C41.7153 33.2266 41.7635 32.8235 41.8073 32.4064C41.7914 32.3903 41.775 32.3741 41.7591 32.358C41.8044 31.679 41.8367 31.0663 41.8555 30.5201C41.8232 30.0687 41.7914 29.6172 41.7591 29.1658C41.7109 29.1335 41.6627 29.1335 41.6145 29.1658C39.628 30.2258 37.7803 31.4753 36.0724 32.9143C35.7389 31.0425 35.2329 29.1884 34.5543 27.352C34.4237 27.014 34.2714 26.6915 34.0965 26.3846C32.5374 28.061 31.188 29.8989 30.0483 31.8986C30.0324 31.8986 30.016 31.8986 30.0001 31.8986C28.9129 29.8635 27.5716 28.0094 25.976 26.3363C25.0782 28.4586 24.4194 30.6513 24.0001 32.9143C22.2839 31.4158 20.4044 30.1583 18.3615 29.1416C18.3374 29.1497 18.3133 29.1577 18.2892 29.1658C18.2859 30.1207 18.2941 31.1122 18.3133 32.1404C18.3712 33.4128 18.5239 34.6865 18.7712 35.9614C18.7471 35.9775 18.723 35.9937 18.6989 36.0098C16.6275 35.18 14.4671 34.648 12.2169 34.4137C12.1914 34.3195 12.1268 34.2712 12.0242 34.2686C11.4213 32.1555 10.9635 30.0112 10.6507 27.8357C10.5548 27.242 10.5066 26.6454 10.5061 26.0461C13.1721 26.8072 15.7663 27.8067 18.2892 29.0449C18.4748 26.3139 18.9008 23.6215 19.5663 20.9675C19.576 20.8811 19.616 20.8166 19.6868 20.774C21.9292 22.4156 24.0174 24.2374 25.9519 26.2395C27.1018 23.6707 28.4676 21.2363 30.0483 18.936C31.6478 21.2268 33.0136 23.6613 34.1447 26.2395C35.6145 24.7241 37.1731 23.2973 38.8194 21.959C39.3572 21.5521 39.9032 21.1572 40.4579 20.774C41.189 23.4354 41.6309 26.1602 41.7832 28.9481C41.7982 28.9872 41.8222 29.0195 41.8555 29.0449C44.3519 27.7745 46.9543 26.791 49.6627 26.0944C49.3741 28.8662 48.8439 31.5909 48.0724 34.2686C48.1124 34.2847 48.1529 34.3008 48.1929 34.3169C50.5731 34.0474 52.9022 33.983 55.1808 34.1235C55.1967 34.1074 55.2131 34.0912 55.229 34.0751C55.6382 34.1084 56.0478 34.1568 56.4579 34.2202C55.2622 36.7186 53.8488 39.0724 52.2169 41.2819Z" fill="#009900"/>
<path fill-rule="evenodd" clip-rule="evenodd" d="M45.2288 40.7016C44.9609 40.7166 44.6958 40.7166 44.4336 40.7016C44.305 40.7338 44.1768 40.766 44.0481 40.7983C43.9474 40.7622 43.851 40.7461 43.7589 40.7499C43.4071 40.8089 43.0534 40.8733 42.6987 40.9434C42.6201 40.9145 42.5401 40.9307 42.4577 40.9918C42.4095 40.9757 42.3613 40.9595 42.3132 40.9434C42.1686 40.9918 42.024 41.0401 41.8794 41.0885C41.0905 41.1976 40.2553 41.4072 39.3734 41.7173C39.3493 41.7012 39.3252 41.685 39.3011 41.6689C40.2698 39.9048 40.9445 38.0427 41.3252 36.0825C41.3011 36.0744 41.277 36.0664 41.2529 36.0583C39.37 36.7689 37.651 37.7524 36.0963 39.0087C36.1801 38.2113 36.2524 37.4133 36.3132 36.6145C36.3132 36.2759 36.3132 35.9374 36.3132 35.5988C36.2703 34.7324 36.1739 33.8698 36.024 33.0111C34.4953 34.3438 33.2018 35.8755 32.1445 37.606C31.7633 35.6142 31.0645 33.7117 30.0481 31.8987C31.1879 29.8991 32.5373 28.0611 34.0963 26.3848C34.2712 26.6916 34.4235 27.0141 34.5541 27.3521C35.2327 29.1885 35.7387 31.0426 36.0722 32.9144C37.7801 31.4754 39.6279 30.2259 41.6144 29.1659C41.6626 29.1336 41.7107 29.1336 41.7589 29.1659C41.7912 29.6173 41.823 30.0688 41.8553 30.5202C41.8365 31.0665 41.8042 31.6791 41.7589 32.3582C41.7748 32.3743 41.7912 32.3904 41.8071 32.4065C41.7633 32.8237 41.7151 33.2267 41.6626 33.6157C41.6785 33.6318 41.6948 33.648 41.7107 33.6641C41.6818 33.8622 41.6336 34.0557 41.5662 34.2445C41.6288 34.3654 41.6124 34.4783 41.518 34.5831C41.5093 34.7334 41.5093 34.8866 41.518 35.0426C41.4317 35.3598 41.3671 35.6822 41.3252 36.0099C42.4279 35.6326 43.5204 35.286 44.6023 34.97C45.7127 34.6956 46.8375 34.5102 47.9758 34.4138C47.4303 36.3485 46.6674 38.2026 45.6867 39.9761C45.5295 40.2166 45.3768 40.4584 45.2288 40.7016Z" fill="#99CB00"/>
<path fill-rule="evenodd" clip-rule="evenodd" d="M30 43.3133C30.0342 43.357 30.0824 43.3731 30.1446 43.3616C30.2256 42.8427 30.3219 42.3268 30.4337 41.8139C30.5147 41.3949 30.6275 41.0079 30.7711 40.6531C30.8564 40.5422 30.9046 40.4133 30.9157 40.2661C30.9451 40.223 30.961 40.1747 30.9639 40.121C31.2106 39.6734 31.4198 39.2059 31.5904 38.7184C31.7089 38.4157 31.8535 38.1255 32.0241 37.8477C32.0636 37.8049 32.1118 37.7888 32.1687 37.7994C32.4882 39.7017 32.4882 41.6042 32.1687 43.5067C32.1769 43.5551 32.1846 43.6035 32.1928 43.6519C32.2612 43.6239 32.3012 43.5755 32.3133 43.5067C32.4578 43.378 32.5542 43.2168 32.6024 43.0231C32.7248 42.9646 32.7894 42.8679 32.7952 42.7329C32.9904 42.5513 33.1509 42.3417 33.2771 42.1041C33.2771 42.088 33.2771 42.0718 33.2771 42.0557C33.3412 42.0235 33.3894 41.9751 33.4217 41.9106C33.4217 41.8945 33.4217 41.8784 33.4217 41.8622C33.4858 41.83 33.534 41.7816 33.5663 41.7171C33.6333 41.6495 33.6815 41.5689 33.7109 41.4753C33.7431 41.4753 33.7591 41.4592 33.7591 41.4269C33.853 41.4011 33.9012 41.3366 33.9036 41.2335C33.9518 41.2174 33.9841 41.1851 34 41.1367C34.1272 41.0413 34.2395 40.9285 34.3374 40.7982C34.7711 40.3306 35.2207 39.8792 35.6868 39.4439C35.7547 39.3511 35.8352 39.2625 35.9277 39.1778C35.9807 39.157 36.013 39.1811 36.0241 39.2504C35.6574 41.1939 34.9827 43.0158 34 44.7159C33.9417 44.7643 33.9494 44.8127 34.0241 44.861C34.3788 44.5776 34.7239 44.2872 35.0603 43.9904C36.3272 43.0324 37.7084 42.3069 39.2048 41.8139C38.2193 43.5533 36.9581 45.069 35.4217 46.3604C35.3894 46.3928 35.3894 46.4248 35.4217 46.4572C35.4978 46.3914 35.5865 46.359 35.6868 46.3604C35.8925 46.3237 36.0853 46.2593 36.2651 46.167C36.9803 46.0011 37.6872 45.8236 38.3856 45.6349C39.2424 45.4816 40.094 45.4008 40.9398 45.3931C41.0535 45.3853 41.1658 45.3931 41.2771 45.4173C39.7393 46.7159 38.0207 47.7157 36.1205 48.4161C37.0569 48.4475 37.9884 48.5278 38.9157 48.6579C40.0015 48.8601 41.0458 49.1503 42.0482 49.5285C40.8231 49.9895 39.5297 50.3038 38.1687 50.4717C38.1528 50.4557 38.1364 50.4393 38.1205 50.4233C37.36 50.5157 36.693 50.5641 36.1205 50.5684C38.0159 51.2886 39.735 52.2961 41.2771 53.5914C40.9533 53.661 40.64 53.6528 40.3374 53.5672C40.0285 53.6069 39.707 53.6069 39.3735 53.5672C39.2323 53.4869 39.0877 53.471 38.9398 53.5188C38.2521 53.3805 37.5533 53.2272 36.8434 53.0593C36.6882 53.0158 36.5436 52.9592 36.4097 52.8901C36.134 52.7658 35.8448 52.669 35.5422 52.5999C35.4916 52.5926 35.4434 52.6008 35.3976 52.624C36.9422 53.9237 38.2111 55.4473 39.2048 57.1948C39.095 57.2185 38.9909 57.1861 38.8916 57.098C38.8757 57.114 38.8593 57.1304 38.8434 57.1464C38.4448 56.9583 38.0511 56.7648 37.6627 56.566C37.453 56.4286 37.228 56.3159 36.988 56.2274C36.1769 55.8289 35.4222 55.3452 34.7229 54.7764C34.5118 54.5486 34.2709 54.3551 34 54.196C33.9538 54.2187 33.9538 54.2511 34 54.2927C35.0342 56.0214 35.693 57.8753 35.9759 59.855C35.8921 59.7225 35.7798 59.6257 35.6386 59.5648C35.4588 59.336 35.2501 59.1425 35.0121 58.9844C34.8352 58.8393 34.6747 58.6782 34.5301 58.5007C34.4694 58.359 34.373 58.2463 34.241 58.1621C34.0781 58.047 33.9494 57.9019 33.8554 57.7268C33.8087 57.5996 33.7282 57.5029 33.6145 57.4366C33.3041 57.0768 33.0313 56.6898 32.7952 56.2758C32.7133 56.0456 32.5846 55.8521 32.4097 55.6954C32.3113 55.5633 32.2309 55.4182 32.1687 55.2601C32.1528 55.2843 32.1364 55.3084 32.1205 55.3326C32.5123 57.3268 32.5041 59.3181 32.0964 61.306C31.2005 59.7215 30.5817 58.093 30.241 56.4209C30.2024 56.1636 30.1706 55.9058 30.1446 55.647C30.0824 55.6354 30.0342 55.6518 30 55.6954C29.6921 57.6944 29.0256 59.5648 28 61.306C27.921 61.0903 27.8728 60.8649 27.8554 60.6289C27.6193 58.8456 27.6516 57.056 27.9518 55.2601C26.9513 57.0385 25.6665 58.5863 24.0964 59.9034C24.4135 57.9082 25.0805 56.0378 26.0964 54.2927C26.0805 54.2768 26.0641 54.2603 26.0482 54.2444C24.5171 55.5677 22.8145 56.5428 20.9398 57.1706C21.9084 55.4076 23.1778 53.8922 24.747 52.624C24.7012 52.6008 24.653 52.5926 24.6024 52.5999C24.2516 52.685 23.9142 52.7977 23.5904 52.9384C22.7056 53.2369 21.8299 53.4139 20.9639 53.4705C20.6897 53.5116 20.4164 53.56 20.1446 53.6156C20.0603 53.5832 19.9798 53.5667 19.9036 53.5672C19.7591 53.5996 19.6145 53.6315 19.4699 53.6639C19.2742 53.6286 19.0574 53.6045 18.8193 53.5914C20.3581 52.2913 22.0766 51.2915 23.9759 50.5926C23.9504 50.5592 23.9186 50.535 23.8795 50.52C22.0092 50.5704 20.0974 50.2482 18.1446 49.5527C18.1431 49.5043 18.1672 49.4724 18.2169 49.456C18.9152 49.2122 19.5899 49.0028 20.241 48.8272C20.2593 48.8543 20.2834 48.8702 20.3133 48.8756C20.8689 48.7962 21.415 48.6995 21.9518 48.5853C22.3793 48.5297 22.8212 48.4814 23.2771 48.4402C23.4757 48.4746 23.6684 48.4905 23.8554 48.4886C23.8795 48.4644 23.9036 48.4402 23.9277 48.4161C22.0636 47.7389 20.3769 46.7633 18.8675 45.4898C19.0993 45.4419 19.3403 45.426 19.5904 45.4415C19.7798 45.4487 19.9644 45.4323 20.1446 45.3931C20.7205 45.4845 21.2906 45.5812 21.8554 45.6833C22.0824 45.7737 22.3234 45.8221 22.5783 45.8284C23.2333 46.0204 23.8921 46.2139 24.5542 46.4088C24.6111 46.4194 24.6593 46.4035 24.6988 46.3604C23.1615 45.0922 21.9084 43.5929 20.9398 41.8622C21.0795 41.8348 21.2077 41.867 21.3253 41.959C21.4993 42.0766 21.6921 42.1571 21.9036 42.2008C23.3884 42.8187 24.7537 43.6651 26 44.7401C26.04 44.7735 26.0723 44.7653 26.0964 44.7159C25.0969 42.9999 24.4222 41.1619 24.0723 39.202C24.1528 39.2343 24.2328 39.2665 24.3133 39.2988C25.7889 40.5702 27.0019 42.0535 27.9518 43.7486C27.8376 42.9214 27.7489 42.0911 27.6868 41.2577C27.6868 40.8868 27.6868 40.516 27.6868 40.1452C27.7354 39.3258 27.84 38.5116 28 37.7026C29.0072 39.4507 29.6742 41.3209 30 43.3133Z" fill="#FFFEFD"/>
<path fill-rule="evenodd" clip-rule="evenodd" d="M30.0001 31.8982C29.416 33.071 28.91 34.2802 28.482 35.5258C28.2825 36.2133 28.1061 36.9066 27.9519 37.6056C26.9129 35.8454 25.6199 34.2976 24.0724 32.9623C23.9828 33.2944 23.9264 33.633 23.9037 33.978C23.7669 35.6535 23.7991 37.3302 24.0001 39.0082C22.4285 37.7599 20.7095 36.7603 18.8435 36.0095C18.8102 36.0348 18.7861 36.0671 18.7712 36.1062C19.1611 38.0003 19.8358 39.8544 20.7953 41.6685C20.7794 41.6846 20.763 41.7007 20.7471 41.7168C19.6102 41.3155 18.5095 41.0575 17.4459 40.943C17.3818 40.9107 17.3172 40.8785 17.2531 40.8462C17.2049 40.8623 17.1567 40.8785 17.1085 40.8946C17.0444 40.8623 16.9799 40.8301 16.9158 40.7978C16.6464 40.78 16.3895 40.78 16.1447 40.7978C16.0324 40.7656 15.9196 40.7334 15.8073 40.7011C15.51 40.7326 15.2131 40.7487 14.9158 40.7495C15.9572 42.4719 17.2266 44.0035 18.723 45.3444C18.6685 45.3812 18.6126 45.4136 18.5543 45.4411C18.189 45.4199 17.8035 45.4199 17.3977 45.4411C17.1235 45.4823 16.8502 45.5306 16.5784 45.5862C16.5625 45.5703 16.5461 45.5538 16.5302 45.5379C16.4247 45.5993 16.3201 45.6157 16.217 45.5862C15.8652 45.6438 15.5196 45.7241 15.1808 45.8281C15.1649 45.8121 15.1485 45.7957 15.1326 45.7797C14.4618 45.964 13.7871 46.1415 13.1085 46.3118C13.0035 46.3683 12.8989 46.4249 12.7953 46.481C14.3755 47.7357 16.0941 48.7592 17.9519 49.5524C16.055 50.2619 14.3365 51.2699 12.7953 52.5754C13.1119 52.6827 13.4416 52.8037 13.7832 52.9381C13.7991 52.9222 13.8155 52.9057 13.8314 52.8897C14.5085 53.061 15.1832 53.2385 15.8555 53.4218C15.9437 53.43 16.0401 53.4136 16.1447 53.3734C16.2358 53.3754 16.284 53.4078 16.2893 53.4702C16.3914 53.4237 16.496 53.4155 16.6025 53.446C16.4763 53.49 16.4844 53.5142 16.6266 53.5185C16.762 53.4755 16.8984 53.4677 17.0363 53.4943C17.004 53.5103 16.9722 53.5267 16.9399 53.5427C17.0714 53.578 17.2001 53.5698 17.3254 53.5185C17.3726 53.5417 17.4126 53.5737 17.4459 53.6153C17.4618 53.5993 17.4782 53.5829 17.4941 53.5669C17.6546 53.5993 17.8155 53.6312 17.976 53.6636C18.1322 53.668 18.2926 53.652 18.4579 53.6153C18.5307 53.6438 18.603 53.6762 18.6748 53.712C17.1885 55.0416 15.9355 56.557 14.9158 58.2585C16.9775 58.2658 18.9216 57.9432 20.7471 57.2912C20.763 57.3072 20.7794 57.3236 20.7953 57.3396C19.8555 59.1587 19.1808 61.0131 18.7712 62.9018C18.7861 62.941 18.8102 62.9729 18.8435 62.9986C20.7196 62.2581 22.4387 61.2583 24.0001 59.9998C23.884 61.0479 23.8117 62.0718 23.7832 63.0711C23.8126 63.7014 23.8608 64.3301 23.9278 64.9575C23.9119 64.9734 23.8955 64.9899 23.8796 65.0058C23.9379 65.3536 24.002 65.7004 24.0724 66.0457C22.3216 67.5417 20.4179 68.8153 18.3616 69.8668C18.1818 67.5882 18.3182 65.3149 18.7712 63.0469C18.7471 63.031 18.723 63.0145 18.6989 62.9986C16.5529 63.7991 14.3842 64.3471 12.1929 64.6431C12.1596 64.6174 12.1355 64.5855 12.1206 64.5463C12.7722 62.4482 13.6478 60.4491 14.7471 58.5488C14.7958 58.4752 14.8199 58.3945 14.8194 58.3069C14.3895 58.2914 13.964 58.3079 13.5423 58.3553C13.3818 58.3229 13.2208 58.291 13.0603 58.2585C13.0122 58.2745 12.964 58.291 12.9158 58.3069C11.7413 58.2078 10.5688 58.0627 9.3977 57.8716C9.31529 57.8107 9.23529 57.7942 9.15673 57.8232C9.07432 57.7623 8.99432 57.7459 8.91577 57.7749C8.83336 57.7139 8.75336 57.6975 8.6748 57.7265C8.61071 57.6941 8.54613 57.6622 8.48203 57.6298C8.41938 57.6525 8.34709 57.6525 8.26517 57.6298C8.19095 57.5978 8.11047 57.5654 8.0242 57.533C9.44107 55.7081 11.0155 54.0477 12.7471 52.5512C11.7818 52.1608 10.8179 51.7662 9.85553 51.3662C8.99818 50.9163 8.14661 50.4486 7.30131 49.9635C7.08444 49.8179 6.87577 49.6651 6.6748 49.504C7.16637 49.1693 7.66468 48.839 8.16878 48.5125C9.35818 47.8774 10.5789 47.297 11.8314 46.7712C12.1375 46.6818 12.4425 46.5933 12.7471 46.5052C12.7553 46.4414 12.7394 46.3848 12.6989 46.3359C10.9273 44.9125 9.36878 43.284 8.0242 41.4508C8.78902 41.257 9.56011 41.1038 10.3375 40.9913C10.3987 40.9947 10.455 41.0108 10.5061 41.0397C11.3587 40.8624 12.2097 40.7496 13.0603 40.7011C13.6724 40.7625 14.2666 40.7625 14.8435 40.7011C13.7052 38.7371 12.7977 36.6572 12.1206 34.4617C12.1428 34.4231 12.1746 34.407 12.217 34.4133C14.4671 34.6476 16.6276 35.1797 18.6989 36.0095C18.723 35.9934 18.7471 35.9772 18.7712 35.9611C18.524 34.6861 18.3712 33.4125 18.3134 32.14C18.2941 31.1119 18.2859 30.1203 18.2893 29.1654C18.3134 29.1574 18.3375 29.1493 18.3616 29.1413C20.4044 30.1579 22.284 31.4155 24.0001 32.9139C24.4194 30.651 25.0782 28.4583 25.976 26.3359C27.5717 28.009 28.9129 29.8631 30.0001 31.8982Z" fill="#99CB00"/>
<path opacity="0.999" fill-rule="evenodd" clip-rule="evenodd" d="M12.0242 34.2685C12.1268 34.2712 12.1914 34.3195 12.2169 34.4136C12.1745 34.4073 12.1427 34.4234 12.1206 34.462C12.7977 36.6576 13.7051 38.7374 14.8434 40.7014C14.2666 40.7629 13.6724 40.7629 13.0603 40.7014C12.2097 40.7499 11.3586 40.8627 10.5061 41.04C10.455 41.0111 10.3986 40.995 10.3374 40.9916C9.56008 41.1041 8.78899 41.2573 8.02417 41.4511C9.36875 43.2844 10.9273 44.9128 12.6989 46.3363C12.7394 46.3851 12.7553 46.4417 12.7471 46.5055C12.4425 46.5936 12.1374 46.6821 11.8314 46.7716C10.5789 47.2973 9.35815 47.8777 8.16875 48.5128C7.66465 48.8393 7.16634 49.1696 6.67478 49.5043C6.87574 49.6654 7.08441 49.8182 7.30128 49.9638C8.14658 50.4489 8.99815 50.9167 9.8555 51.3665C10.8179 51.7665 11.7818 52.1612 12.7471 52.5515C11.0155 54.048 9.44104 55.7084 8.02417 57.5334C8.11044 57.5658 8.19092 57.5982 8.26514 57.6301C8.12441 57.6238 7.99622 57.6557 7.87959 57.7268C7.91477 57.6683 7.93116 57.604 7.92779 57.5334C5.21984 56.8959 2.58514 55.9933 0.024173 54.8248C2.02273 52.8344 4.1914 51.0608 6.5302 49.5043C5.3061 48.639 4.10128 47.7442 2.91574 46.8199C1.94755 46.002 1.00008 45.1556 0.0723657 44.2806C0.0294742 44.2407 0.0135706 44.1924 0.024173 44.1355C2.58706 43.019 5.22128 42.1081 7.92779 41.4028C6.59911 39.5199 5.3861 37.561 4.28923 35.5261C4.04875 35.0917 3.84779 34.6403 3.68682 34.1718C6.40586 34.0048 9.12056 34.0532 11.8314 34.3169C11.9061 34.3164 11.9702 34.3003 12.0242 34.2685Z" fill="#009900"/>
<path fill-rule="evenodd" clip-rule="evenodd" d="M30 31.8984C30.0159 31.8984 30.0323 31.8984 30.0482 31.8984C31.0646 33.7115 31.7634 35.6139 32.1446 37.6058C33.2019 35.8753 34.4954 34.3436 36.0241 33.0109C36.174 33.8696 36.2703 34.7321 36.3132 35.5986C36.3132 35.9371 36.3132 36.2757 36.3132 36.6143C36.2525 37.413 36.1802 38.2111 36.0964 39.0085C37.6511 37.7521 39.3701 36.7687 41.253 36.0581C41.2771 36.0661 41.3012 36.0742 41.3253 36.0822C40.9446 38.0424 40.2699 39.9046 39.3012 41.6687C39.3253 41.6848 39.3494 41.701 39.3735 41.7171C40.2554 41.407 41.0906 41.1974 41.8795 41.0883C42.0241 41.0399 42.1687 40.9915 42.3132 40.9432C42.3614 40.9593 42.4096 40.9754 42.4578 40.9915C42.5402 40.9305 42.6202 40.9143 42.6988 40.9432C43.0535 40.8731 43.4072 40.8086 43.759 40.7497C43.8511 40.7459 43.9475 40.762 44.0482 40.7981C44.1769 40.7658 44.305 40.7336 44.4337 40.7013C44.6959 40.7163 44.9609 40.7163 45.2289 40.7013C44.2279 42.4483 42.959 43.98 41.4217 45.2963C41.2559 45.3253 41.0954 45.3572 40.9397 45.393C40.094 45.4007 39.2424 45.4815 38.3855 45.6348C37.6549 45.7374 36.9479 45.9149 36.265 46.1669C36.052 46.1843 35.8593 46.2486 35.6867 46.3603C35.5865 46.3589 35.4978 46.3913 35.4217 46.4571C35.3894 46.4247 35.3894 46.3928 35.4217 46.3603C36.9581 45.0689 38.2193 43.5532 39.2048 41.8138C37.7084 42.3068 36.3272 43.0323 35.0602 43.9903C34.6964 44.218 34.3508 44.4759 34.0241 44.7642C34.0048 44.7531 33.9966 44.7371 34 44.7158C34.9826 43.0157 35.6573 41.1938 36.0241 39.2503C36.013 39.181 35.9807 39.1569 35.9277 39.1778C35.8352 39.2624 35.7547 39.3511 35.6867 39.4438C35.2111 39.8001 34.7691 40.2031 34.3614 40.653C34.3383 40.6988 34.3301 40.7472 34.3373 40.7981C34.1769 40.8625 34.0641 40.9754 34 41.1366C33.9841 41.185 33.9518 41.2173 33.9036 41.2334C33.8188 41.2702 33.7706 41.3348 33.759 41.4269C33.759 41.4591 33.7431 41.4752 33.7108 41.4752C33.6034 41.5188 33.5552 41.5994 33.5662 41.7171C33.4699 41.7171 33.4217 41.7654 33.4217 41.8622C33.4217 41.8783 33.4217 41.8944 33.4217 41.9105C33.3253 41.9105 33.2771 41.9589 33.2771 42.0556C33.2771 42.0717 33.2771 42.0879 33.2771 42.104C33.0597 42.2643 32.8993 42.4739 32.7952 42.7328C32.707 42.8124 32.6429 42.9092 32.6024 43.023C32.4819 43.1678 32.3855 43.329 32.3132 43.5067C32.3012 43.5754 32.2612 43.6238 32.1928 43.6518C32.1846 43.6034 32.1769 43.555 32.1687 43.5067C32.4882 41.6041 32.4882 39.7016 32.1687 37.7993C32.1118 37.7887 32.0636 37.8048 32.0241 37.8477C31.8535 38.1254 31.7089 38.4156 31.5903 38.7183C31.3176 39.1529 31.1089 39.6205 30.9638 40.1209C30.9609 40.1746 30.945 40.2229 30.9156 40.266C30.8303 40.3769 30.7822 40.5058 30.7711 40.653C30.6275 41.0078 30.5147 41.3948 30.4337 41.8138C30.2694 42.2804 30.1489 42.7641 30.0723 43.2648C30.054 43.2917 30.0299 43.3078 30 43.3132C29.6742 41.3208 29.0072 39.4506 28 37.7025C27.84 38.5115 27.7354 39.3257 27.6867 40.1451C27.6867 40.5159 27.6867 40.8867 27.6867 41.2576C27.7489 42.091 27.8376 42.9213 27.9518 43.7485C27.0019 42.0534 25.7889 40.5701 24.3132 39.2987C24.266 39.2191 24.2019 39.1546 24.1205 39.1052C24.0819 39.1273 24.066 39.1596 24.0723 39.2019C24.4222 41.1618 25.0969 42.9998 26.0964 44.7158C26.0723 44.7652 26.04 44.7734 26 44.74C24.7537 43.665 23.3884 42.8186 21.9036 42.2007C21.7296 42.0832 21.5369 42.0026 21.3253 41.9589C21.2077 41.867 21.0795 41.8347 20.9397 41.8622C21.9084 43.5928 23.1614 45.0921 24.6988 46.3603C24.6593 46.4034 24.6111 46.4194 24.5542 46.4087C23.9243 46.1335 23.2655 45.94 22.5783 45.8283C22.3513 45.7379 22.1103 45.6895 21.8554 45.6832C21.2906 45.5811 20.7205 45.4844 20.1446 45.393C19.9643 45.4322 19.7797 45.4486 19.5903 45.4414C19.3942 45.408 19.1937 45.3756 18.9879 45.3446C18.9205 45.3799 18.8482 45.4041 18.7711 45.4172C18.7971 45.452 18.8294 45.4762 18.8675 45.4897C20.3769 46.7633 22.0636 47.7388 23.9277 48.416C23.9036 48.4402 23.8795 48.4643 23.8554 48.4885C23.6684 48.4905 23.4756 48.4745 23.2771 48.4402C22.8212 48.4813 22.3793 48.5296 21.9518 48.5853C21.3875 48.6152 20.8414 48.712 20.3132 48.8755C20.2834 48.8701 20.2593 48.8542 20.2409 48.8271C19.5899 49.0027 18.9152 49.2121 18.2169 49.4559C18.1672 49.4723 18.1431 49.5042 18.1446 49.5526C18.0805 49.5526 18.0159 49.5526 17.9518 49.5526C16.094 48.7594 14.3754 47.7359 12.7952 46.4813C12.8988 46.4252 13.0034 46.3686 13.1084 46.312C13.787 46.1417 14.4617 45.9642 15.1325 45.7799C15.1484 45.7959 15.1648 45.8123 15.1807 45.8283C15.5195 45.7243 15.865 45.644 16.2169 45.5865C16.32 45.616 16.4246 45.5995 16.5301 45.5381C16.546 45.5541 16.5624 45.5705 16.5783 45.5865C16.8501 45.5308 17.1234 45.4825 17.3976 45.4414C17.8034 45.4201 18.1889 45.4201 18.5542 45.4414C18.6125 45.4138 18.6684 45.3814 18.7229 45.3446C17.2265 44.0037 15.9571 42.4721 14.9156 40.7497C15.213 40.7489 15.5099 40.7328 15.8072 40.7013C15.9195 40.7336 16.0323 40.7658 16.1446 40.7981C16.3894 40.7802 16.6463 40.7802 16.9156 40.7981C16.9797 40.8303 17.0443 40.8625 17.1084 40.8948C17.1566 40.8787 17.2048 40.8625 17.253 40.8464C17.3171 40.8787 17.3817 40.9109 17.4458 40.9432C18.5094 41.0577 19.6101 41.3157 20.747 41.7171C20.7629 41.701 20.7793 41.6848 20.7952 41.6687C19.8356 39.8546 19.1609 38.0005 18.7711 36.1064C18.786 36.0673 18.8101 36.0351 18.8434 36.0097C20.7094 36.7605 22.4284 37.7602 24 39.0085C23.799 37.3304 23.7667 35.6537 23.9036 33.9782C23.9262 33.6332 23.9826 33.2947 24.0723 32.9625C25.6197 34.2979 26.9128 35.8456 27.9518 37.6058C28.106 36.9068 28.2824 36.2136 28.4819 35.526C28.9099 34.2804 29.4159 33.0712 30 31.8984Z" fill="#FEE602"/>
<path opacity="0.773" fill-rule="evenodd" clip-rule="evenodd" d="M19.5903 45.4415C19.3402 45.426 19.0992 45.4419 18.8674 45.4898C18.8293 45.4763 18.797 45.4521 18.771 45.4173C18.8481 45.4042 18.9204 45.38 18.9879 45.3447C19.1936 45.3757 19.3941 45.4081 19.5903 45.4415Z" fill="#FFF8B9"/>
<path opacity="0.518" fill-rule="evenodd" clip-rule="evenodd" d="M35.0602 43.9902C34.7238 44.287 34.3788 44.5774 34.0241 44.8609C33.9494 44.8125 33.9417 44.7641 34 44.7157C33.9966 44.737 34.0048 44.753 34.0241 44.7641C34.3508 44.4758 34.6964 44.2179 35.0602 43.9902Z" fill="#FFF7AE"/>
<path opacity="0.518" fill-rule="evenodd" clip-rule="evenodd" d="M32.6024 43.0229C32.5542 43.2167 32.4578 43.3779 32.3132 43.5066C32.3855 43.329 32.4819 43.1678 32.6024 43.0229Z" fill="#AFD36F"/>
<path opacity="0.518" fill-rule="evenodd" clip-rule="evenodd" d="M32.7951 42.7329C32.7893 42.868 32.7247 42.9647 32.6023 43.0231C32.6428 42.9093 32.7069 42.8126 32.7951 42.7329Z" fill="#BFDA7C"/>
<path opacity="0.518" fill-rule="evenodd" clip-rule="evenodd" d="M30.4337 41.814C30.3219 42.3269 30.2255 42.8428 30.1446 43.3617C30.0824 43.3732 30.0342 43.3571 30 43.3134C30.0299 43.308 30.054 43.2919 30.0723 43.265C30.1489 42.7642 30.2694 42.2806 30.4337 41.814Z" fill="#FFF7AE"/>
<path opacity="0.518" fill-rule="evenodd" clip-rule="evenodd" d="M33.2771 42.104C33.1508 42.3416 32.9903 42.5512 32.7952 42.7328C32.8993 42.4739 33.0597 42.2643 33.2771 42.104Z" fill="#CDE086"/>
<path opacity="0.773" fill-rule="evenodd" clip-rule="evenodd" d="M21.3252 41.959C21.5368 42.0027 21.7295 42.0832 21.9035 42.2008C21.6919 42.1571 21.4992 42.0766 21.3252 41.959Z" fill="#FFF9C0"/>
<path opacity="0.518" fill-rule="evenodd" clip-rule="evenodd" d="M33.4217 41.9106C33.3894 41.9751 33.3412 42.0235 33.2771 42.0557C33.2771 41.959 33.3253 41.9106 33.4217 41.9106Z" fill="#BBD879"/>
<path opacity="0.518" fill-rule="evenodd" clip-rule="evenodd" d="M33.5662 41.7173C33.5339 41.7818 33.4857 41.8301 33.4216 41.8624C33.4216 41.7657 33.4698 41.7173 33.5662 41.7173Z" fill="#BBD879"/>
<path opacity="0.518" fill-rule="evenodd" clip-rule="evenodd" d="M33.7108 41.4751C33.6814 41.5686 33.6332 41.6493 33.5663 41.7169C33.5552 41.5993 33.6034 41.5187 33.7108 41.4751Z" fill="#C4DC7E"/>
<path opacity="0.518" fill-rule="evenodd" clip-rule="evenodd" d="M33.9036 41.2334C33.9012 41.3365 33.853 41.401 33.759 41.4269C33.7706 41.3348 33.8188 41.2703 33.9036 41.2334Z" fill="#C4DC7E"/>
<path opacity="0.518" fill-rule="evenodd" clip-rule="evenodd" d="M34.3373 40.7979C34.2395 40.9282 34.1272 41.041 34 41.1364C34.0641 40.9752 34.1769 40.8623 34.3373 40.7979Z" fill="#DDE790"/>
<path opacity="0.773" fill-rule="evenodd" clip-rule="evenodd" d="M30.9156 40.2661C30.9045 40.4132 30.8563 40.5422 30.771 40.6531C30.7821 40.5059 30.8303 40.377 30.9156 40.2661Z" fill="#DDE898"/>
<path opacity="0.518" fill-rule="evenodd" clip-rule="evenodd" d="M35.6867 39.4438C35.2206 39.8792 34.771 40.3306 34.3373 40.7981C34.33 40.7473 34.3382 40.6989 34.3614 40.653C34.7691 40.2032 35.211 39.8001 35.6867 39.4438Z" fill="#FFF6AB"/>
<path opacity="0.773" fill-rule="evenodd" clip-rule="evenodd" d="M31.5904 38.7183C31.4198 39.2058 31.2106 39.6733 30.9639 40.1209C31.1089 39.6205 31.3176 39.1529 31.5904 38.7183Z" fill="#FFF7B5"/>
<path opacity="0.773" fill-rule="evenodd" clip-rule="evenodd" d="M24.3133 39.2985C24.2329 39.2662 24.1529 39.234 24.0724 39.2017C24.0661 39.1593 24.082 39.1271 24.1206 39.105C24.202 39.1544 24.2661 39.2189 24.3133 39.2985Z" fill="#FFF8B8"/>
<path opacity="0.937" fill-rule="evenodd" clip-rule="evenodd" d="M21.8555 45.6831C22.1104 45.6894 22.3514 45.7378 22.5784 45.8282C22.3234 45.8219 22.0825 45.7736 21.8555 45.6831Z" fill="#FFFACA"/>
<path opacity="0.937" fill-rule="evenodd" clip-rule="evenodd" d="M38.3856 45.6348C37.6873 45.8234 36.9803 46.0009 36.2651 46.1668C36.948 45.9148 37.655 45.7373 38.3856 45.6348Z" fill="#FFFBD1"/>
<path opacity="0.773" fill-rule="evenodd" clip-rule="evenodd" d="M22.5784 45.8281C23.2656 45.9399 23.9244 46.1333 24.5543 46.4085C23.8921 46.2136 23.2333 46.0201 22.5784 45.8281Z" fill="#FFF8BD"/>
<path opacity="0.773" fill-rule="evenodd" clip-rule="evenodd" d="M36.2651 46.167C36.0853 46.2594 35.8926 46.3237 35.6868 46.3605C35.8593 46.2487 36.0521 46.1844 36.2651 46.167Z" fill="#FFF9C2"/>
<path fill-rule="evenodd" clip-rule="evenodd" d="M45.229 40.7012C45.8955 40.7016 46.5625 40.7016 47.229 40.7012C47.5326 40.7611 47.8376 40.8095 48.1446 40.8463C48.2617 40.8079 48.3745 40.7918 48.482 40.7979C49.667 40.9815 50.8637 41.191 52.0723 41.4267C51.5027 42.265 50.868 43.055 50.1687 43.7967C49.267 44.7215 48.3273 45.6081 47.3494 46.4569C49.1446 47.1002 50.8637 47.8983 52.5061 48.8511C52.8188 49.0809 53.1403 49.2985 53.4699 49.5041C53.2849 49.6492 53.0921 49.7861 52.8916 49.9152C52.2984 50.2518 51.7041 50.5904 51.1085 50.9309C49.8709 51.5166 48.6179 52.0651 47.3494 52.5754C49.1268 54.0298 50.7012 55.6743 52.0723 57.5089C50.9191 57.833 49.7543 58.0347 48.5784 58.1135C47.8931 58.2083 47.2184 58.2726 46.5543 58.307C46.1567 58.2852 45.7147 58.2852 45.229 58.307C45.014 57.8707 44.7731 57.5079 44.5061 57.2187C44.522 57.2027 44.5384 57.1863 44.5543 57.1703C44.3928 56.9938 44.2482 56.8327 44.1205 56.6867C44.1364 56.6707 44.1528 56.6543 44.1687 56.6383C44.1046 56.5899 44.04 56.5416 43.9759 56.4932C43.9918 56.4772 44.0082 56.4608 44.0241 56.4448C43.9437 56.3805 43.8637 56.3157 43.7832 56.2514C43.7991 56.2354 43.8155 56.2189 43.8314 56.203C43.7278 56.1391 43.6555 56.0506 43.6145 55.937C43.5562 55.862 43.4839 55.8054 43.3976 55.7677C43.4135 55.7517 43.4299 55.7353 43.4458 55.7193C42.8376 55.091 42.227 54.4622 41.6145 53.833C41.5249 53.8001 41.4444 53.7517 41.3735 53.6879C41.4237 53.6095 41.4796 53.6018 41.5422 53.6637C43.3335 53.5737 45.1249 53.2593 46.9157 52.7205C47.0521 52.6784 47.1808 52.6218 47.3012 52.5512C45.6839 51.2743 43.949 50.2586 42.0964 49.5041C43.9986 48.7597 45.7335 47.744 47.3012 46.4569C47.2752 46.3713 47.2352 46.3553 47.1808 46.4085C45.5446 45.8146 43.8897 45.4925 42.2169 45.4412C41.935 45.4257 41.6699 45.3774 41.4217 45.2961C42.9591 43.9798 44.228 42.4482 45.229 40.7012Z" fill="#99CC00"/>
<path opacity="0.937" fill-rule="evenodd" clip-rule="evenodd" d="M21.9518 48.5854C21.4149 48.6996 20.8689 48.7963 20.3132 48.8757C20.8414 48.7122 21.3874 48.6154 21.9518 48.5854Z" fill="#FFFBD4"/>
<path opacity="0.999" fill-rule="evenodd" clip-rule="evenodd" d="M52.2169 41.2817C52.2213 41.3299 52.2049 41.3702 52.1687 41.4027C54.8487 42.0815 57.4511 42.9763 59.976 44.0871C59.9837 44.1692 59.9755 44.2499 59.9519 44.3289C57.988 46.2602 55.8598 47.9773 53.5663 49.48C55.8482 51.0118 57.9769 52.7449 59.9519 54.6796C59.9894 54.7492 59.9813 54.814 59.9278 54.873C57.9311 55.791 55.8588 56.5572 53.7109 57.1705C53.2029 57.3219 52.6892 57.4428 52.1687 57.5332C52.5779 58.2109 53.0193 58.8721 53.494 59.5163C54.5567 61.1657 55.5205 62.8745 56.3856 64.6433C56.4092 64.7057 56.4174 64.7705 56.4097 64.8368C53.6988 65.0036 50.9919 64.9553 48.2892 64.6917C48.2169 64.7076 48.1446 64.7241 48.0723 64.74C48.84 67.4225 49.3702 70.1233 49.6627 72.8416C49.6564 72.8929 49.6323 72.933 49.5904 72.9625C46.9254 72.2046 44.3393 71.2053 41.8314 69.9637C41.6598 72.4121 41.3143 74.8222 40.7952 77.1947C40.6791 77.5395 40.5668 77.8863 40.4579 78.2346C38.1938 76.6239 36.1056 74.8024 34.1928 72.769C34.1605 72.7366 34.1287 72.7047 34.0964 72.6723C34.494 71.8094 34.8391 70.9224 35.1326 70.0121C35.4931 68.6849 35.814 67.363 36.0964 66.0459C36.3123 66.2786 36.5451 66.4962 36.7952 66.6989C38.3287 67.9313 39.975 68.9872 41.735 69.867C41.7904 69.4921 41.8304 69.1134 41.8555 68.7303C41.8526 68.3303 41.8526 67.927 41.8555 67.5212C41.8044 66.0314 41.6275 64.5562 41.3254 63.0955C41.3413 63.0631 41.3576 63.0312 41.3735 62.9988C43.5605 63.8254 45.7615 64.3739 47.976 64.6433C47.348 62.3971 46.4323 60.3013 45.229 58.3555C45.229 58.3395 45.229 58.3231 45.229 58.3071C45.7147 58.2854 46.1567 58.2854 46.5543 58.3071C47.2184 58.2728 47.8931 58.2085 48.5784 58.1137C49.7543 58.0348 50.9191 57.8331 52.0723 57.5091C50.7013 55.6745 49.1268 54.03 47.3494 52.5756C48.6179 52.0653 49.8709 51.5168 51.1085 50.9311C51.7041 50.5906 52.2984 50.252 52.8916 49.9154C53.0921 49.7862 53.2849 49.6493 53.4699 49.5042C53.1403 49.2987 52.8188 49.081 52.5061 48.8513C50.8637 47.8984 49.1446 47.1004 47.3494 46.4571C48.3273 45.6082 49.267 44.7216 50.1687 43.7969C50.868 43.0551 51.5027 42.2651 52.0723 41.4268C52.1046 41.3624 52.1528 41.314 52.2169 41.2817Z" fill="#009900"/>
<path fill-rule="evenodd" clip-rule="evenodd" d="M41.4217 45.2964C41.6699 45.3776 41.9349 45.426 42.2169 45.4415C43.8896 45.4928 45.5446 45.8149 47.1807 46.4088C47.2352 46.3556 47.2752 46.3716 47.3012 46.4572C45.7335 47.7443 43.9985 48.76 42.0964 49.5044C43.9489 50.2589 45.6838 51.2746 47.3012 52.5515C47.1807 52.6221 47.052 52.6787 46.9156 52.7208C45.1248 53.2596 43.3335 53.574 41.5422 53.664C41.4795 53.6021 41.4236 53.6098 41.3735 53.6882C41.4443 53.752 41.5248 53.8004 41.6144 53.8333C42.227 54.4625 42.8376 55.0913 43.4458 55.7196C43.4299 55.7356 43.4135 55.752 43.3976 55.768C43.4838 55.8057 43.5561 55.8623 43.6144 55.9373C43.6554 56.0509 43.7277 56.1394 43.8313 56.2033C43.8154 56.2192 43.799 56.2357 43.7831 56.2516C43.8636 56.316 43.9436 56.3808 44.0241 56.4451C44.0082 56.4611 43.9918 56.4775 43.9759 56.4935C44.04 56.5419 44.1046 56.5902 44.1687 56.6386C44.1528 56.6545 44.1364 56.671 44.1205 56.687C44.2482 56.833 44.3928 56.9941 44.5542 57.1706C44.5383 57.1866 44.5219 57.203 44.506 57.219C44.773 57.5082 45.014 57.871 45.2289 58.3073C45.2289 58.3232 45.2289 58.3397 45.2289 58.3556C44.5807 58.3024 43.906 58.2458 43.2048 58.1864C42.5446 58.1123 41.9099 57.9914 41.3012 57.8236C41.2458 57.87 41.1976 57.8536 41.1566 57.7752C41.0559 57.7873 40.9595 57.7873 40.8675 57.7752C40.8352 57.7428 40.8034 57.7109 40.7711 57.6785C40.6703 57.6906 40.574 57.6906 40.4819 57.6785C40.4496 57.6461 40.4178 57.6142 40.3855 57.5818C40.305 57.5818 40.225 57.5818 40.1446 57.5818C40.1036 57.5034 40.0554 57.487 40 57.5334C39.7865 57.4483 39.5696 57.368 39.3494 57.2916C39.3335 57.3075 39.3171 57.324 39.3012 57.3399C40.2482 59.0841 40.9229 60.9138 41.3253 62.8296C41.3311 62.8916 41.307 62.9481 41.253 62.9989C39.3841 62.2468 37.665 61.2475 36.0964 60.0001C36.1277 60.4949 36.1841 60.9864 36.265 61.4753C36.2491 61.5237 36.2328 61.5721 36.2169 61.6205C36.2491 61.8623 36.2809 62.1041 36.3132 62.346C36.2491 62.7005 36.2491 63.0555 36.3132 63.4101C36.2612 64.0446 36.2048 64.6812 36.1446 65.3206C36.1315 65.5706 36.0834 65.8125 36 66.0461C34.4824 64.701 33.1971 63.1692 32.1446 61.4512C31.7147 63.4313 31.0318 65.3177 30.0964 67.1102C30.0805 67.1102 30.0641 67.1102 30.0482 67.1102C29.0756 65.3264 28.3687 63.44 27.9277 61.4512C26.892 63.1847 25.6072 64.716 24.0723 66.0461C24.0019 65.7007 23.9378 65.3539 23.8795 65.0062C23.8954 64.9902 23.9118 64.9738 23.9277 64.9578C23.8607 64.3305 23.8125 63.7017 23.7831 63.0715C23.8116 62.0722 23.8838 61.0483 24 60.0001C22.4385 61.2587 20.7195 62.2584 18.8434 62.9989C18.8101 62.9733 18.786 62.9414 18.7711 62.9022C19.1807 61.0134 19.8554 59.159 20.7952 57.3399C20.7793 57.324 20.7629 57.3075 20.747 57.2916C18.9214 57.9435 16.9773 58.2662 14.9156 58.2589C15.9354 56.5573 17.1884 55.042 18.6747 53.7123C18.6029 53.6766 18.5306 53.6442 18.4578 53.6156C18.2925 53.6524 18.132 53.6683 17.9759 53.664C17.8154 53.6316 17.6544 53.5997 17.494 53.5672C17.4781 53.5832 17.4617 53.5997 17.4458 53.6156C17.4125 53.574 17.3725 53.5421 17.3253 53.5189C17.2 53.5701 17.0713 53.5784 16.9397 53.5431C16.972 53.5271 17.0038 53.5107 17.0361 53.4947C16.8983 53.4681 16.7619 53.4758 16.6265 53.5189C16.4843 53.5145 16.4761 53.4903 16.6024 53.4463C16.4959 53.4159 16.3913 53.4241 16.2891 53.4705C16.2838 53.4081 16.2356 53.3757 16.1446 53.3738C16.04 53.4139 15.9436 53.4304 15.8554 53.4221C15.1831 53.2388 14.5084 53.0613 13.8313 52.8901C13.8154 52.9061 13.799 52.9225 13.7831 52.9385C13.4414 52.804 13.1118 52.6831 12.7952 52.5757C14.3364 51.2703 16.0549 50.2623 17.9518 49.5527C18.0159 49.5527 18.0805 49.5527 18.1446 49.5527C20.0973 50.2483 22.0091 50.5704 23.8795 50.5201C23.9185 50.5351 23.9503 50.5593 23.9759 50.5926C22.0766 51.2916 20.3581 52.2913 18.8193 53.5914C19.0573 53.6045 19.2742 53.6287 19.4699 53.664C19.6144 53.6316 19.759 53.5997 19.9036 53.5672C19.9797 53.5668 20.0602 53.5832 20.1446 53.6156C20.4164 53.56 20.6896 53.5116 20.9638 53.4705C21.8299 53.4139 22.7055 53.2369 23.5903 52.9385C23.9475 52.8727 24.2848 52.76 24.6024 52.5999C24.653 52.5926 24.7012 52.6009 24.747 52.6241C23.1778 53.8923 21.9084 55.4076 20.9397 57.1706C22.8144 56.5428 24.5171 55.5677 26.0482 54.2444C26.0641 54.2604 26.0805 54.2768 26.0964 54.2928C25.0805 56.0379 24.4135 57.9082 24.0964 59.9034C25.6665 58.5864 26.9513 57.0386 27.9518 55.2601C27.6516 57.056 27.6193 58.8456 27.8554 60.6289C27.8728 60.8649 27.9209 61.0903 28 61.3061C29.0255 59.5648 29.692 57.6945 30 55.6954C30.0299 55.7007 30.054 55.7167 30.0723 55.7438C30.0997 55.9827 30.1556 56.2086 30.2409 56.4209C30.5817 58.093 31.2005 59.7215 32.0964 61.3061C32.5041 59.3182 32.5123 57.3269 32.1205 55.3327C32.1364 55.3085 32.1528 55.2843 32.1687 55.2601C32.2308 55.4183 32.3113 55.5634 32.4096 55.6954C32.5147 55.9073 32.6434 56.1007 32.7952 56.2758C33.0313 56.6899 33.3041 57.0768 33.6144 57.4367C33.6597 57.5629 33.7402 57.6596 33.8554 57.7269C33.9494 57.9019 34.0781 58.0471 34.2409 58.1622C34.3017 58.3039 34.3981 58.4166 34.5301 58.5007C34.6747 58.6782 34.8352 58.8393 35.012 58.9844C35.1918 59.2132 35.4005 59.4067 35.6385 59.5648C35.7224 59.6974 35.8347 59.7941 35.9759 59.855C35.693 57.8753 35.0342 56.0214 34 54.2928C34.2409 54.4538 34.4819 54.6154 34.7229 54.7764C35.4222 55.3452 36.1769 55.8289 36.9879 56.2275C37.1846 56.3905 37.4096 56.5036 37.6626 56.566C38.0511 56.7648 38.4448 56.9583 38.8434 57.1464C38.8593 57.1305 38.8756 57.114 38.8916 57.0981C38.9908 57.1861 39.0949 57.2185 39.2048 57.1948C38.2111 55.4473 36.9422 53.9237 35.3976 52.6241C35.4434 52.6009 35.4916 52.5926 35.5422 52.5999C35.8116 52.7435 36.1007 52.8403 36.4096 52.8901C36.5436 52.9593 36.6882 53.0159 36.8434 53.0594C37.5532 53.2272 38.252 53.3805 38.9397 53.5189C39.0877 53.471 39.2323 53.487 39.3735 53.5672C39.707 53.6069 40.0284 53.6069 40.3373 53.5672C40.64 53.6529 40.9532 53.6611 41.2771 53.5914C39.7349 52.2961 38.0159 51.2886 36.1205 50.5685C36.693 50.5641 37.36 50.5157 38.1205 50.4234C38.1364 50.4393 38.1528 50.4558 38.1687 50.4717C39.5296 50.3039 40.8231 49.9895 42.0482 49.5286C41.0458 49.1503 40.0014 48.8601 38.9156 48.6579C37.9884 48.5278 37.0569 48.4475 36.1205 48.4161C38.0207 47.7157 39.7393 46.716 41.2771 45.4173C41.1658 45.3931 41.0535 45.3854 40.9397 45.3931C41.0954 45.3573 41.2559 45.3254 41.4217 45.2964Z" fill="#FEE603"/>
<path opacity="0.773" fill-rule="evenodd" clip-rule="evenodd" d="M34.7229 54.7762C34.482 54.6151 34.241 54.4536 34 54.2925C33.9538 54.2509 33.9538 54.2185 34 54.1958C34.2709 54.3549 34.5118 54.5484 34.7229 54.7762Z" fill="#FFF8B8"/>
<path opacity="0.773" fill-rule="evenodd" clip-rule="evenodd" d="M24.6024 52.5996C24.2848 52.7597 23.9474 52.8724 23.5903 52.9382C23.9142 52.7974 24.2515 52.6847 24.6024 52.5996Z" fill="#FFFACB"/>
<path opacity="0.773" fill-rule="evenodd" clip-rule="evenodd" d="M35.5422 52.5996C35.8449 52.6688 36.134 52.7655 36.4097 52.8898C36.1008 52.84 35.8116 52.7433 35.5422 52.5996Z" fill="#FFFACB"/>
<path opacity="0.773" fill-rule="evenodd" clip-rule="evenodd" d="M30 55.695C30.0342 55.6515 30.0824 55.6351 30.1446 55.6467C30.1706 55.9054 30.2024 56.1632 30.241 56.4206C30.1557 56.2082 30.0998 55.9823 30.0723 55.7434C30.054 55.7163 30.0299 55.7004 30 55.695Z" fill="#FFF9C4"/>
<path opacity="0.773" fill-rule="evenodd" clip-rule="evenodd" d="M32.4097 55.6953C32.5846 55.852 32.7133 56.0455 32.7952 56.2757C32.6434 56.1006 32.5147 55.9072 32.4097 55.6953Z" fill="#FFF8B7"/>
<path opacity="0.773" fill-rule="evenodd" clip-rule="evenodd" d="M36.988 56.2275C37.228 56.3161 37.4531 56.4287 37.6627 56.5661C37.4097 56.5037 37.1847 56.3905 36.988 56.2275Z" fill="#FFF9C7"/>
<path opacity="0.518" fill-rule="evenodd" clip-rule="evenodd" d="M33.6145 57.4365C33.7282 57.5028 33.8087 57.5995 33.8555 57.7267C33.7403 57.6595 33.6598 57.5628 33.6145 57.4365Z" fill="#FFF7B2"/>
<path opacity="0.518" fill-rule="evenodd" clip-rule="evenodd" d="M34.241 58.1621C34.373 58.2463 34.4694 58.359 34.5301 58.5007C34.3981 58.4165 34.3017 58.3038 34.241 58.1621Z" fill="#FFF7AF"/>
<path opacity="0.773" fill-rule="evenodd" clip-rule="evenodd" d="M35.012 58.9844C35.25 59.1425 35.4587 59.336 35.6385 59.5648C35.4004 59.4066 35.1917 59.2132 35.012 58.9844Z" fill="#FFF7B6"/>
<path opacity="0.773" fill-rule="evenodd" clip-rule="evenodd" d="M35.6387 59.5645C35.7799 59.6254 35.8922 59.7221 35.976 59.8547C35.8348 59.7937 35.7225 59.697 35.6387 59.5645Z" fill="#FFF8B7"/>
<path fill-rule="evenodd" clip-rule="evenodd" d="M45.229 58.3556C46.4323 60.3014 47.348 62.3972 47.976 64.6434C45.7615 64.374 43.5605 63.8255 41.3735 62.9989C41.3576 63.0313 41.3413 63.0632 41.3254 63.0956C41.6275 64.5563 41.8044 66.0315 41.8555 67.5212C41.8526 67.9271 41.8526 68.3304 41.8555 68.7304C41.8304 69.1135 41.7904 69.4922 41.735 69.8671C39.975 68.9873 38.3287 67.9314 36.7952 66.699C36.5451 66.4963 36.3123 66.2787 36.0964 66.046C35.814 67.3631 35.4931 68.685 35.1326 70.0122C34.8391 70.9225 34.494 71.8095 34.0964 72.6724C32.5191 70.9931 31.1861 69.1391 30.0964 67.1101C31.0319 65.3176 31.7147 63.4313 32.1446 61.4511C33.1972 63.1691 34.4825 64.7009 36.0001 66.046C36.0834 65.8124 36.1316 65.5706 36.1446 65.3205C36.2049 64.6811 36.2613 64.0446 36.3133 63.41C36.2492 63.0555 36.2492 62.7005 36.3133 62.3459C36.281 62.1041 36.2492 61.8622 36.2169 61.6204C36.2328 61.572 36.2492 61.5237 36.2651 61.4753C36.1841 60.9863 36.1278 60.4949 36.0964 60.0001C37.6651 61.2475 39.3841 62.2468 41.2531 62.9989C41.307 62.9481 41.3311 62.8915 41.3254 62.8296C40.9229 60.9138 40.2482 59.084 39.3013 57.3399C39.3172 57.3239 39.3335 57.3075 39.3494 57.2915C39.5697 57.3679 39.7866 57.4482 40.0001 57.5333C40.0555 57.4869 40.1037 57.5034 40.1446 57.5817C40.2251 57.5817 40.3051 57.5817 40.3856 57.5817C40.4179 57.6141 40.4497 57.646 40.482 57.6784C40.574 57.6905 40.6704 57.6905 40.7711 57.6784C40.8034 57.7109 40.8352 57.7428 40.8675 57.7752C40.9596 57.7873 41.056 57.7873 41.1567 57.7752C41.1976 57.8535 41.2458 57.87 41.3013 57.8235C41.9099 57.9914 42.5446 58.1123 43.2049 58.1863C43.9061 58.2458 44.5808 58.3024 45.229 58.3556Z" fill="#98CB00"/>
<path fill-rule="evenodd" clip-rule="evenodd" d="M30.0482 67.1102C28.9209 69.1319 27.5715 70.9859 26 72.6725C25.0511 70.5559 24.4082 68.3469 24.0723 66.0461C25.6072 64.716 26.892 63.1847 27.9277 61.4512C28.3687 63.44 29.0756 65.3264 30.0482 67.1102Z" fill="#98CB00"/>
<path opacity="0.998" fill-rule="evenodd" clip-rule="evenodd" d="M8.26508 57.6302C8.34701 57.6529 8.4193 57.6529 8.48195 57.6302C8.54604 57.6626 8.61062 57.6945 8.67472 57.7269C8.75327 57.6979 8.83327 57.7143 8.91568 57.7753C8.99424 57.7463 9.07424 57.7627 9.15665 57.8236C9.2352 57.7946 9.3152 57.8111 9.39761 57.872C10.5687 58.0631 11.7412 58.2082 12.9157 58.3073C12.9639 58.2914 13.0121 58.2749 13.0603 58.2589C13.2207 58.2914 13.3817 58.3233 13.5422 58.3557C13.9639 58.3083 14.3894 58.2918 14.8193 58.3073C14.8198 58.3949 14.7957 58.4756 14.747 58.5492C13.6477 60.4495 12.7721 62.4485 12.1205 64.5467C12.1354 64.5859 12.1595 64.6178 12.1928 64.6435C14.3841 64.3475 16.5528 63.7995 18.6988 62.999C18.7229 63.0149 18.747 63.0314 18.7711 63.0473C18.3181 65.3153 18.1817 67.5886 18.3615 69.8672C20.4179 68.8157 22.3215 67.5421 24.0723 66.0461C24.4082 68.347 25.0511 70.5559 26 72.6725C27.5716 70.9859 28.921 69.132 30.0482 67.1102C30.0641 67.1102 30.0805 67.1102 30.0964 67.1102C31.186 69.1392 32.5191 70.9932 34.0964 72.6725C34.1287 72.7049 34.1605 72.7368 34.1928 72.7692C33.0588 75.2713 31.7253 77.6573 30.1928 79.9276C30.1123 79.992 30.0323 79.992 29.9518 79.9276C29.2053 78.8476 28.5065 77.7351 27.8554 76.5903C27.1923 75.324 26.5581 74.05 25.9518 72.7692C24.0482 74.7847 21.9759 76.5985 19.735 78.2106C19.6892 78.2338 19.641 78.242 19.5904 78.2348C18.9191 75.5165 18.4853 72.7596 18.2892 69.9639C15.7894 71.1978 13.1952 72.197 10.506 72.9627C10.5957 71.2539 10.8448 69.5687 11.253 67.9083C11.4733 66.8394 11.7301 65.7671 12.0241 64.6918C9.24966 65.0009 6.47038 65.0493 3.68677 64.8369C4.82797 62.3025 6.22556 59.9325 7.87954 57.7269C7.99616 57.6558 8.12436 57.6239 8.26508 57.6302Z" fill="#009900"/>
</g>
<defs>
<clipPath id="clip0_4623_24579">
<rect width="60" height="80" fill="white"/>
</clipPath>
</defs>
</svg>
