<svg width="228" height="80" viewBox="0 0 228 80" fill="none" xmlns="http://www.w3.org/2000/svg">
<g clip-path="url(#clip0_4623_25393)">
<path opacity="0.944" fill-rule="evenodd" clip-rule="evenodd" d="M109.65 26.5679C112.206 26.3569 114.645 26.7849 116.966 27.8518C117.227 29.8481 117.227 31.8562 116.966 33.8765C113.434 31.5448 109.941 31.5121 106.486 33.7777C104.026 36.3132 103.268 39.309 104.212 42.7654C105.038 44.9732 106.587 46.4547 108.859 47.2098C111.672 47.9607 114.375 47.6644 116.966 46.3209C117.227 48.473 117.227 50.6129 116.966 52.7407C112.749 53.8905 108.663 53.5614 104.706 51.753C100.476 49.0344 98.1693 45.1498 97.7849 40.0987C98.3712 33.9838 101.469 29.7041 107.079 27.2592C107.953 26.9922 108.81 26.7616 109.65 26.5679Z" fill="#004B5F"/>
<path opacity="0.951" fill-rule="evenodd" clip-rule="evenodd" d="M128.633 26.568C130.615 26.5024 132.592 26.5682 134.565 26.7655C137.756 35.5379 140.986 44.2952 144.255 53.0371C142.212 53.3005 140.168 53.3005 138.125 53.0371C135.923 46.7359 133.781 40.4149 131.698 34.0742C129.34 40.3833 127.198 46.7701 125.271 53.2347C123.092 53.3003 120.917 53.2345 118.746 53.0371C122.044 44.2099 125.34 35.387 128.633 26.568Z" fill="#004B5F"/>
<path opacity="0.935" fill-rule="evenodd" clip-rule="evenodd" d="M147.221 26.568C149.182 26.505 151.127 26.5708 153.055 26.7656C153.219 33.8579 153.186 40.936 152.956 48.0001C156.053 48.0989 159.151 48.1319 162.25 48.0989C162.25 49.8109 162.25 51.5227 162.25 53.2347C157.174 53.2347 152.099 53.2347 147.023 53.2347C146.959 44.3316 147.025 35.4427 147.221 26.568Z" fill="#004B5F"/>
<path opacity="0.941" fill-rule="evenodd" clip-rule="evenodd" d="M159.877 26.568C166.073 26.535 172.269 26.568 178.465 26.6668C178.728 28.3128 178.728 29.959 178.465 31.6051C176.357 31.7038 174.247 31.7368 172.137 31.7038C172.203 38.8819 172.137 46.059 171.939 53.2347C169.972 53.4273 167.995 53.4931 166.007 53.4322C166.007 46.1894 166.007 38.9467 166.007 31.7038C163.898 31.7038 161.788 31.7038 159.679 31.7038C159.619 29.9752 159.685 28.2632 159.877 26.568Z" fill="#004B5F"/>
<path opacity="0.931" fill-rule="evenodd" clip-rule="evenodd" d="M182.42 26.5679C187.208 26.6145 191.987 26.6145 196.756 26.5679C197.047 28.2463 197.146 29.9583 197.053 31.7037C194.087 31.7037 191.121 31.7037 188.155 31.7037C188.155 33.5472 188.155 35.391 188.155 37.2345C190.84 37.2983 193.509 37.2326 196.163 37.037C196.389 37.9245 196.487 38.8464 196.46 39.8024C196.426 40.6583 196.395 41.5144 196.361 42.3703C193.608 42.2052 190.907 42.1392 188.253 42.1728C188.155 44.1469 188.122 46.1222 188.155 48.0987C191.912 48.0987 195.669 48.0987 199.426 48.0987C198.283 49.9464 196.964 51.6912 195.471 53.3333C191.046 53.4957 186.63 53.4629 182.222 53.2345C182.156 48.8231 182.09 44.4114 182.024 40C182.026 35.4801 182.158 31.0026 182.42 26.5679Z" fill="#004B5F"/>
<path opacity="0.949" fill-rule="evenodd" clip-rule="evenodd" d="M201.601 26.5679C204.106 26.6992 206.578 26.6992 209.016 26.5679C210.517 28.9714 211.967 31.4076 213.367 33.8765C214.706 31.4218 216.121 29.0184 217.618 26.6666C220.09 26.6996 222.562 26.7324 225.034 26.7654C225.166 26.8972 225.166 27.0287 225.034 27.1605C222.325 31.018 219.655 34.9029 217.025 38.8148C220.673 43.5707 224.3 48.3445 227.901 53.1358C227.836 53.2015 227.769 53.2675 227.703 53.3333C225.265 53.4651 222.825 53.4651 220.387 53.3333C218.17 50.254 215.93 47.1923 213.663 44.1481C211.184 47.1204 208.811 50.1821 206.545 53.3333C204.009 53.5265 201.504 53.4605 199.03 53.1358C202.627 48.3899 206.187 43.6164 209.709 38.8148C206.978 34.8039 204.209 30.8205 201.403 26.8642C201.514 26.7885 201.579 26.6897 201.601 26.5679Z" fill="#004B5F"/>
<path fill-rule="evenodd" clip-rule="evenodd" d="M36.4839 0.098674C53.6341 -0.539351 66.5864 6.44001 75.3408 21.0369C82.4624 35.4648 81.6714 49.4237 72.9678 62.9135C62.5898 76.7017 48.8465 82.1338 31.738 79.2098C15.1593 74.8959 4.81062 64.4268 0.692024 47.8024C-1.73409 32.0386 3.20953 18.9356 15.5229 8.49374C21.7186 3.74174 28.7056 0.943316 36.4839 0.098674Z" fill="#FEFCFD"/>
<path fill-rule="evenodd" clip-rule="evenodd" d="M49.1396 26.3706C49.3184 26.5107 49.3842 26.7082 49.3374 26.9632C43.5369 26.9632 37.7362 26.9632 31.9358 26.9632C31.9358 26.8974 31.9358 26.8314 31.9358 26.7657C37.7402 26.8958 43.4748 26.7641 49.1396 26.3706Z" fill="#F16471"/>
<path fill-rule="evenodd" clip-rule="evenodd" d="M31.9358 26.5679C31.9358 26.6336 31.9358 26.6996 31.9358 26.7654C31.9358 26.8312 31.9358 26.8972 31.9358 26.9629C31.87 26.9629 31.8039 26.9629 31.7381 26.9629C22.872 26.8974 14.0393 26.9631 5.24023 27.1605C5.13283 27.1486 5.06692 27.0828 5.04248 26.9629C14.0202 26.8302 22.9847 26.6986 31.9358 26.5679Z" fill="#B2C1C7"/>
<path fill-rule="evenodd" clip-rule="evenodd" d="M40.2411 2.27148C43.2075 10.3047 46.1736 18.3377 49.1396 26.3703C43.4748 26.7637 37.7402 26.8955 31.9358 26.7653C31.9358 26.6995 31.9358 26.6336 31.9358 26.5678C34.5717 18.6029 37.2083 10.6357 39.8456 2.66655C39.9775 2.53479 40.1092 2.40324 40.2411 2.27148Z" fill="#FEFDFD"/>
<path fill-rule="evenodd" clip-rule="evenodd" d="M41.0321 2.07383C56.8948 3.0765 68.2651 10.7144 75.1431 24.9874C76.5382 28.2133 77.428 31.5713 77.8126 35.0615C77.9635 37.8243 78.0294 40.5898 78.0104 43.3578C76.9149 53.6786 72.4986 62.2712 64.7615 69.1356C64.5738 69.2574 64.4091 69.2246 64.2671 69.0368C62.908 64.7336 61.4908 60.4537 60.0156 56.1973C59.9695 55.5964 59.7718 55.0698 59.4224 54.617C58.0126 50.557 56.6614 46.4748 55.3686 42.3701C62.0211 37.338 68.6456 32.268 75.242 27.1602C75.1761 27.0945 75.1101 27.0285 75.0442 26.9627C61.5631 31.3145 48.1165 35.6602 34.7042 39.9998C33.7818 40.1098 32.9249 40.3731 32.1335 40.7899C30.4102 41.2758 28.6963 41.8026 26.9922 42.3701C26.9263 42.2714 26.8603 42.1726 26.7944 42.0738C28.5838 37.0739 30.2316 32.0369 31.7381 26.9627C31.8039 26.9627 31.87 26.9627 31.9358 26.9627C37.7363 26.9627 43.5369 26.9627 49.3374 26.9627C49.3842 26.7077 49.3184 26.5102 49.1396 26.3701C46.1736 18.3375 43.2075 10.3045 40.2411 2.27136C40.4523 2.08687 40.7159 2.02089 41.0321 2.07383Z" fill="#ED1C2E"/>
<path fill-rule="evenodd" clip-rule="evenodd" d="M38.0659 2.07422C38.6592 2.07422 39.2524 2.07422 39.8456 2.07422C39.8456 2.27175 39.8456 2.46928 39.8456 2.66681C37.2083 10.636 34.5718 18.6032 31.9358 26.568C22.9847 26.6988 14.0202 26.8304 5.04251 26.9631C5.06696 27.083 5.13286 27.1488 5.24026 27.1606C12.3883 32.2793 19.5072 37.4478 26.5967 42.6668C23.6064 51.7264 20.6402 60.7798 17.6982 69.8273C17.5531 70.0659 17.4872 70.3292 17.5005 70.6174C10.0485 65.1539 5.2038 57.9113 2.96619 48.889C-0.0145574 33.3918 4.43471 20.5195 16.314 10.2717C22.6537 5.2594 29.9042 2.52696 38.0659 2.07422Z" fill="#024C5F"/>
<path fill-rule="evenodd" clip-rule="evenodd" d="M38.0659 2.07395C39.0546 1.81064 40.0434 1.81064 41.0321 2.07395C40.7159 2.02101 40.4523 2.08698 40.2411 2.27148C40.1092 2.40323 39.9775 2.53479 39.8456 2.66654C39.8456 2.46901 39.8456 2.27148 39.8456 2.07395C39.2524 2.07395 38.6592 2.07395 38.0659 2.07395Z" fill="#A99CA5"/>
<path fill-rule="evenodd" clip-rule="evenodd" d="M77.8127 35.0615C78.1066 36.6977 78.2383 38.3767 78.2082 40.0986C78.208 41.2199 78.1422 42.3064 78.0105 43.3578C78.0295 40.5898 77.9636 37.8244 77.8127 35.0615Z" fill="#F47781"/>
<path fill-rule="evenodd" clip-rule="evenodd" d="M34.7042 40C33.9129 40.4168 33.056 40.6801 32.1335 40.7901C32.9249 40.3733 33.7817 40.11 34.7042 40Z" fill="#F7AFB4"/>
<path opacity="0.89" fill-rule="evenodd" clip-rule="evenodd" d="M131.204 48.4937C131.561 48.4919 131.891 48.5907 132.193 48.79C133.906 50.2385 135.62 51.6872 137.334 53.1357C137.235 53.2344 137.136 53.3332 137.037 53.4319C133.346 53.1686 129.655 53.1686 125.964 53.4319C125.828 53.1783 125.861 52.9478 126.063 52.7406C127.871 51.4262 129.585 50.0107 131.204 48.4937Z" fill="#004B5F"/>
<path fill-rule="evenodd" clip-rule="evenodd" d="M17.5004 70.6171C17.4872 70.3289 17.553 70.0656 17.6982 69.827C25.1502 64.26 32.6315 58.7291 40.1422 53.2344C48.141 58.6605 56.1497 64.0597 64.1683 69.4319C58.4254 74.3279 51.7681 77.1921 44.196 78.0245C34.2777 78.9655 25.3792 76.4964 17.5004 70.6171Z" fill="#ED1C2E"/>
<path fill-rule="evenodd" clip-rule="evenodd" d="M59.4224 54.6172C59.7718 55.0699 59.9695 55.5965 60.0156 56.1974C59.6662 55.7447 59.4684 55.2181 59.4224 54.6172Z" fill="#F4737B"/>
</g>
<defs>
<clipPath id="clip0_4623_25393">
<rect width="228" height="80" fill="white"/>
</clipPath>
</defs>
</svg>
