<svg width="150" height="80" viewBox="0 0 150 80" fill="none" xmlns="http://www.w3.org/2000/svg">
<g clip-path="url(#clip0_4623_6857)">
<path d="M37.8463 66.7938C40.8633 64.2786 41.3843 61.1572 41.3843 58.3682V46.6137H24.9837V62.5611C24.9837 64.8396 23.1337 66.6901 20.8583 66.6901C18.5776 66.6901 16.8844 64.8423 16.8844 62.5611V17.3831C16.8844 15.1045 18.5776 13.2567 20.8583 13.2567C23.131 13.2567 24.9837 15.1019 24.9837 17.3831V33.4288H41.3657V16.7849C41.363 7.58815 35.3557 0.0212702 20.7174 0C5.68845 0 0.00805664 7.60411 0.00805664 16.8008V63.9649C0.00805664 73.0818 7.24344 79.9814 16.4937 79.9787H21.576L37.8463 66.7938ZM102.513 68.6443V16.8141H91.1973V1.54475H132.167V16.8141H120.787V79.891H115.936L102.513 68.6443Z" fill="black"/>
<path d="M109.857 80.0001L69.9561 46.5659L28.6118 80.0001H109.857Z" fill="#F6D33C"/>
<path d="M81.3464 1.62988H58.4866L45.1694 61.3913L69.967 41.376L95.8225 63.045L81.3464 1.62988ZM65.5439 37.5447L69.967 14.9583L74.3555 37.5447H65.5439ZM144.609 4.03342C145.885 4.03342 146.975 4.48541 147.876 5.39206C148.772 6.29338 149.221 7.38082 149.221 8.65704C149.221 9.94123 148.772 11.0366 147.876 11.9406C146.978 12.8473 145.891 13.2993 144.609 13.2993C143.328 13.2993 142.236 12.8473 141.343 11.9406C140.909 11.5126 140.566 11.0008 140.336 10.4364C140.106 9.87192 139.992 9.26658 140.003 8.65704C140.003 7.38348 140.452 6.29338 141.348 5.39206C141.77 4.95434 142.277 4.6079 142.838 4.3742C143.399 4.14049 144.002 4.02451 144.609 4.03342ZM149.992 8.6464C149.992 7.16812 149.469 5.90786 148.421 4.86828C147.374 3.82869 146.109 3.30757 144.623 3.30757C143.92 3.29654 143.223 3.42929 142.573 3.69768C141.923 3.96606 141.336 4.36441 140.846 4.86828C140.339 5.35705 139.939 5.94454 139.668 6.5944C139.398 7.24426 139.264 7.94266 139.275 8.6464C139.275 10.1353 139.793 11.4036 140.83 12.4485C141.874 13.5013 143.137 14.0251 144.623 14.0251C146.109 14.0251 147.374 13.5013 148.421 12.4485C149.469 11.3982 149.992 10.13 149.992 8.6464ZM146.045 7.49515C146.045 7.94448 145.84 8.25024 145.433 8.40977C145.111 8.51043 144.774 8.55451 144.437 8.54005H143.493V6.421H144.386C145.548 6.421 146.045 6.64434 146.045 7.49515ZM142.454 5.69516V11.5737H143.493V9.2659H144.314C144.867 9.2659 145.253 9.32705 145.473 9.45467C145.846 9.67269 146.029 10.1194 146.029 10.7947V11.26L146.053 11.4488C146.056 11.4712 146.06 11.4934 146.066 11.5152L146.082 11.5711H147.047L147.01 11.4993C146.949 11.0393 146.943 10.3294 146.943 10.3294C146.939 9.96635 146.804 9.61698 146.564 9.34509C146.323 9.07321 145.993 8.89694 145.633 8.84847C146.675 8.67565 147.047 8.20504 147.047 7.39943C147.047 6.65763 146.744 6.16044 146.133 5.9052C145.79 5.76163 145.253 5.6925 144.522 5.6925L142.454 5.69516Z" fill="black"/>
</g>
<defs>
<clipPath id="clip0_4623_6857">
<rect width="150" height="80" fill="white"/>
</clipPath>
</defs>
</svg>
