<svg width="399" height="80" viewBox="0 0 399 80" fill="none" xmlns="http://www.w3.org/2000/svg">
<g clip-path="url(#clip0_4623_8293)">
<path fill-rule="evenodd" clip-rule="evenodd" d="M43.5143 0.097168C20.3576 0.097991 0.00610352 18.4531 0.00610352 41.0948C0.00610352 63.7354 20.3596 79.9024 43.3601 79.9024L84.4046 79.8761L91.6226 79.8596C92.3723 79.8596 99.2648 79.8975 100.026 79.8596C105.65 79.8333 110.467 76.4869 112.61 71.6776L113.25 70.2463L120.352 56.9891H157.236L165.261 74.7042C166.608 77.6346 169.839 79.7012 173.847 79.8917H201.265L171.084 6.783C169.718 3.12219 165.88 0.298809 161.396 0.298809H141.825C137.581 0.298809 134.238 3.24523 132.291 6.90192L101.056 65.586C99.5431 68.7221 95.9721 71.12 92.0336 71.1179L65.0002 71.192C64.4621 71.192 62.4054 71.1722 61.8587 71.1656C44.6955 71.1821 30.7943 57.2668 30.7943 40.0998C30.7943 22.9307 44.6935 9.01462 61.8394 9.01462C62.7087 8.95701 64.2698 8.94384 65.1543 8.94384L94.9116 8.96031H97.8636C98.5081 8.96031 98.7136 8.48295 98.7148 8.02124V7.07558L98.7313 0.24737H92.4578L43.518 0.10581L43.5143 0.097168ZM194.62 0.238728V7.6233C194.62 8.20642 195.123 8.72945 195.721 8.72945L224.907 8.71299C226.176 8.71299 227.213 9.74712 227.213 11.0035L227.197 79.8893H261.418C262.222 79.8893 262.414 79.2922 262.414 78.8922L262.042 11.0191C262.042 9.74794 263.078 8.71011 264.329 8.71011L293.697 8.69035L293.714 0.237905H194.613L194.62 0.238728ZM301.439 0.238728L301.423 69.4241C301.423 75.2034 306.102 79.8897 311.875 79.8897L398.098 79.8732C398.976 79.8732 398.994 79.0572 398.994 78.7638V71.1603H345.034C343.738 70.9385 342.521 70.2887 342.2 68.5036V0.235024H301.435L301.439 0.238728ZM139.881 28.3392C142.683 28.3672 145.077 30.0602 146.062 32.3144L153.289 48.2708H125.022L133.959 31.5844C135.224 29.5499 137.47 28.3153 139.881 28.3392Z" fill="#172A7E"/>
</g>
<defs>
<clipPath id="clip0_4623_8293">
<rect width="399" height="80" fill="white"/>
</clipPath>
</defs>
</svg>
