<svg width="231" height="80" viewBox="0 0 231 80" fill="none" xmlns="http://www.w3.org/2000/svg">
<g clip-path="url(#clip0_4623_24544)">
<path opacity="0.996" fill-rule="evenodd" clip-rule="evenodd" d="M28.3882 0.102376C85.3953 0.0687354 142.445 0.102787 199.537 0.20494C212.813 2.7594 221.934 10.3149 226.901 22.8716C230.608 35.3623 228.286 46.5758 219.932 56.5126C216.273 60.7871 211.866 64.0349 206.711 66.2562C204.327 67.143 201.901 67.8609 199.435 68.4101C143.466 68.4097 87.5098 68.4097 31.5652 68.4101C23.7145 67.8546 16.848 64.8117 10.9658 59.2819C3.18446 51.3522 -0.436648 41.7797 0.102441 30.5639C1.58607 21.3713 5.75376 13.6447 12.6055 7.38443C17.2413 3.59325 22.5023 1.16597 28.3882 0.102376Z" fill="#FE0302"/>
<path fill-rule="evenodd" clip-rule="evenodd" d="M32.6926 8.30777C87.0779 8.27351 141.463 8.30777 195.848 8.41034C205.891 9.41546 213.238 14.3728 217.882 23.2821C222.273 34.3178 220.393 44.1297 212.245 52.718C207.734 56.7184 202.473 59.1117 196.463 59.8975C141.736 60.0343 87.0094 60.0343 32.2827 59.8975C21.9584 58.3127 14.7503 52.74 10.6585 43.1796C7.00473 31.5806 9.77181 21.837 18.9597 13.9488C23.0819 10.9221 27.6594 9.04193 32.6926 8.30777Z" fill="#FFFEFE"/>
<path fill-rule="evenodd" clip-rule="evenodd" d="M127.183 20.2053C132.162 19.4861 136.74 20.4777 140.916 23.1796C144.6 26.4877 146.205 30.6245 145.733 35.5899C144.7 43.3244 140.293 47.5981 132.513 48.4104C126.468 49.0387 121.378 47.1583 117.242 42.7694C114.907 39.2161 114.087 35.3187 114.783 31.0771C115.929 26.6498 118.559 23.4703 122.674 21.5386C124.202 21.089 125.705 20.6444 127.183 20.2053Z" fill="#FF0603"/>
<path fill-rule="evenodd" clip-rule="evenodd" d="M191.134 20.0001C195.289 19.7746 199.115 20.7662 202.612 22.9744C207.207 26.9117 208.814 31.869 207.429 37.8462C206.178 42.653 203.206 45.901 198.512 47.5898C193.705 48.9601 188.991 48.6866 184.37 46.7693C178.523 43.6637 175.961 38.7748 176.683 32.1026C177.534 26.949 180.369 23.3592 185.189 21.3334C187.164 20.7287 189.146 20.2842 191.134 20.0001Z" fill="#FF0603"/>
<path fill-rule="evenodd" clip-rule="evenodd" d="M68.3571 48.3076C66.7233 48.4765 65.0835 48.5448 63.4378 48.5128C57.2845 48.3259 52.8094 45.5224 50.0124 40.1025C47.7438 33.9915 48.8711 28.6239 53.3943 23.9999C56.813 21.4592 60.6734 20.1942 64.9751 20.2051C70.6376 19.9961 75.0786 22.1842 78.2981 26.7692C81.1133 32.3973 80.8401 37.8674 77.4782 43.1794C75.0811 46.0371 72.0408 47.7464 68.3571 48.3076Z" fill="#FF0703"/>
<path fill-rule="evenodd" clip-rule="evenodd" d="M94.7981 20.2053C103.801 19.3534 109.233 23.3193 111.093 32.1027C111.196 37.5724 111.23 43.0424 111.196 48.513C108.599 48.513 106.003 48.513 103.407 48.513C103.502 43.1692 103.399 37.8358 103.099 32.513C101.812 29.3546 99.4552 28.0213 96.0279 28.513C93.827 29.1429 92.3581 30.5445 91.6211 32.7181C91.5186 37.9827 91.4844 43.2475 91.5186 48.513C88.854 48.513 86.1894 48.513 83.5248 48.513C83.4906 43.521 83.5248 38.5296 83.6273 33.5386C84.1555 26.348 87.8792 21.9037 94.7981 20.2053Z" fill="#FF0603"/>
<path fill-rule="evenodd" clip-rule="evenodd" d="M46.6305 48.5128C42.1841 48.5721 37.7431 48.5037 33.3075 48.3076C24.3619 46.7669 20.2967 41.4336 21.1119 32.3076C22.6043 25.4139 26.8744 21.619 33.9224 20.923C38.1579 20.8205 42.394 20.7862 46.6305 20.8205C46.6305 23.4871 46.6305 26.1538 46.6305 28.8205C42.0394 28.7245 37.4616 28.827 32.8976 29.1282C29.8825 30.6164 28.6869 33.0436 29.3106 36.4102C29.9462 38.3454 31.2103 39.6787 33.1026 40.4102C37.5984 40.7113 42.1077 40.8139 46.6305 40.7179C46.6305 43.3163 46.6305 45.9144 46.6305 48.5128Z" fill="#FF0603"/>
<path fill-rule="evenodd" clip-rule="evenodd" d="M174.531 20.8205C174.531 23.4188 174.531 26.017 174.531 28.6153C170.464 28.5476 166.433 28.616 162.438 28.8205C159.907 29.1456 158.233 30.5132 157.416 32.923C156.694 36.7792 158.163 39.3433 161.823 40.6153C166.058 40.7179 170.295 40.7522 174.531 40.7179C174.531 43.3163 174.531 45.9144 174.531 48.5128C170.637 48.5128 166.742 48.5128 162.848 48.5128C152.295 47.2945 147.82 41.4141 149.422 30.8717C150.63 26.3122 153.466 23.2695 157.929 21.7435C159.273 21.37 160.64 21.0966 162.028 20.923C166.195 20.8205 170.363 20.7862 174.531 20.8205Z" fill="#FF0402"/>
<path fill-rule="evenodd" clip-rule="evenodd" d="M128.823 27.7949C131.055 27.7014 133.173 28.1459 135.177 29.1282C137.849 31.485 138.362 34.2542 136.714 37.4359C134.233 39.8815 131.261 40.8046 127.798 40.2052C123.227 38.6804 121.758 35.6376 123.391 31.077C124.669 29.0761 126.48 27.982 128.823 27.7949Z" fill="#FFFCFC"/>
<path fill-rule="evenodd" clip-rule="evenodd" d="M190.928 27.7948C193.007 27.6855 194.988 28.0615 196.873 28.923C200.062 31.4334 200.574 34.4078 198.41 37.8461C195.051 40.611 191.395 41.0556 187.444 39.1795C184.166 36.5598 183.721 33.5169 186.112 30.0512C187.467 28.7319 189.072 27.9797 190.928 27.7948Z" fill="#FFFCFC"/>
<path fill-rule="evenodd" clip-rule="evenodd" d="M63.028 28C65.3392 27.825 67.5257 28.2695 69.587 29.3333C72.17 31.5171 72.7507 34.1497 71.3293 37.2307C70.1294 38.8759 68.5239 39.9358 66.5125 40.4102C63.7136 40.9924 61.1858 40.4455 58.9286 38.7692C56.4805 35.7602 56.4805 32.7515 58.9286 29.7435C60.1781 28.8519 61.5445 28.2707 63.028 28Z" fill="#FFFCFC"/>
<path fill-rule="evenodd" clip-rule="evenodd" d="M174.531 20.8203C174.735 23.4507 174.804 26.1173 174.736 28.8203C170.637 28.8203 166.537 28.8203 162.438 28.8203C166.433 28.6158 170.465 28.5475 174.531 28.6152C174.531 26.0168 174.531 23.4187 174.531 20.8203Z" fill="#FF6D6D"/>
<path fill-rule="evenodd" clip-rule="evenodd" d="M33.3074 48.3076C37.7429 48.5037 42.184 48.572 46.6304 48.5127C42.4293 48.7513 38.1932 48.7854 33.9223 48.6153C33.6687 48.5677 33.4638 48.4652 33.3074 48.3076Z" fill="#FFB0B0"/>
<path fill-rule="evenodd" clip-rule="evenodd" d="M68.3572 48.3076C68.2009 48.4652 67.9959 48.5677 67.7423 48.6153C66.2709 48.7837 64.8361 48.7497 63.438 48.5127C65.0837 48.5447 66.7234 48.4764 68.3572 48.3076Z" fill="#FFC2C0"/>
<path fill-rule="evenodd" clip-rule="evenodd" d="M174.531 40.7178C174.735 43.3481 174.804 46.0148 174.736 48.7178C170.738 48.7855 166.775 48.7172 162.848 48.5126C166.742 48.5126 170.637 48.5126 174.531 48.5126C174.531 45.9143 174.531 43.3161 174.531 40.7178Z" fill="#FF9C9B"/>
<path opacity="0.915" fill-rule="evenodd" clip-rule="evenodd" d="M222.084 65.1284C228.092 65.1571 230.994 68.1658 230.795 74.1541C229.2 78.6872 226.023 80.5676 221.264 79.7951C216.115 77.5239 214.646 73.7975 216.857 68.6156C218.189 66.8055 219.932 65.6431 222.084 65.1284ZM222.699 66.5643C227.288 66.8189 229.371 69.2804 228.95 73.9489C227.555 77.8782 224.855 79.2115 220.854 77.9489C217.329 75.6039 216.611 72.5612 218.702 68.8207C219.796 67.6072 221.129 66.8552 222.699 66.5643ZM221.469 69.6412C222.428 69.6072 223.385 69.6414 224.339 69.7438C224.744 70.256 224.847 70.8373 224.646 71.4874C224.492 71.6158 224.322 71.7184 224.134 71.7951C223.248 71.8974 222.361 71.9317 221.469 71.8976C221.469 71.1454 221.469 70.3934 221.469 69.6412Z" fill="#1B0801"/>
<path opacity="0.911" fill-rule="evenodd" clip-rule="evenodd" d="M220.034 68.2052C221.754 68.1376 223.463 68.2401 225.158 68.5129C225.671 68.7523 226.046 69.1283 226.286 69.6411C226.786 71.4799 226.136 72.6766 224.338 73.2309C225.031 74.3084 225.749 75.3683 226.491 76.4104C226.605 76.6617 226.538 76.8668 226.286 77.0258C226.013 77.0258 225.738 77.0258 225.466 77.0258C225.218 76.9086 224.98 76.7718 224.748 76.6155C224.185 75.5558 223.57 74.5302 222.904 73.5386C222.445 73.3388 221.965 73.2703 221.469 73.3334C221.537 74.5039 221.469 75.6662 221.264 76.8206C220.922 76.8206 220.581 76.8206 220.239 76.8206C220.034 73.9521 219.966 71.0803 220.034 68.2052ZM221.469 69.6411C221.469 70.3933 221.469 71.1453 221.469 71.8976C222.361 71.9316 223.248 71.8973 224.134 71.795C224.322 71.7183 224.492 71.6157 224.646 71.4873C224.847 70.8372 224.744 70.2559 224.338 69.7437C223.385 69.6413 222.428 69.6071 221.469 69.6411Z" fill="#1A0801"/>
</g>
<defs>
<clipPath id="clip0_4623_24544">
<rect width="231" height="80" fill="white"/>
</clipPath>
</defs>
</svg>
