<svg width="418" height="80" viewBox="0 0 418 80" fill="none" xmlns="http://www.w3.org/2000/svg">
<path opacity="0.986" fill-rule="evenodd" clip-rule="evenodd" d="M52.6653 2.10815C57.3457 6.6318 61.873 11.3042 66.2473 16.1252C66.3419 17.3805 66.323 18.6341 66.1905 19.8859C63.8188 17.5757 61.091 15.8094 58.0072 14.5868C50.4154 11.4117 42.7247 11.3358 34.9349 14.3589C28.1419 17.3713 23.3495 22.3286 20.5574 29.2307C17.4777 37.797 17.6292 46.3064 21.012 54.7577C25.471 64.0535 32.8398 69.2386 43.1182 70.3133C51.2239 71.1099 58.4222 68.8683 64.7129 63.5896C65.2622 63.0392 65.8117 62.4876 66.361 61.9372C66.4178 61.9942 66.4746 62.0512 66.5314 62.1082C66.4381 63.258 66.3813 64.417 66.361 65.5839C63.1188 69.8141 59.1029 72.8911 54.3134 74.8147C52.6781 75.5384 50.9922 76.1275 49.2556 76.5811C44.067 77.8392 38.7631 78.1241 33.3437 77.4358C22.0071 76.0329 13.1987 70.5253 6.91858 60.9116C1.65293 51.7583 0.289046 42.0717 2.82694 31.8517C6.35439 20.2426 13.7231 12.1324 24.9331 7.52126C32.3393 4.75009 39.9165 4.18029 47.6645 5.81186C49.349 6.1722 50.997 6.64707 52.6085 7.23636C52.6653 5.52741 52.6843 3.81801 52.6653 2.10815Z" fill="#221F1F"/>
<path opacity="0.979" fill-rule="evenodd" clip-rule="evenodd" d="M385.111 2.10828C385.628 2.03808 386.083 2.17107 386.475 2.50714C388.385 4.1942 389.957 6.15056 391.191 8.37608C391.597 12.2806 391.086 16.0603 389.657 19.7151C391.515 22.6761 393.675 25.4112 396.136 27.9202C397.348 28.604 398.56 29.2878 399.773 29.9715C402.949 32.0445 403.878 34.8741 402.557 38.4616C402.017 39.5818 401.392 40.6462 400.682 41.6524C401.268 43.5841 401.837 45.5214 402.387 47.4644C402.362 47.6285 402.305 47.7801 402.216 47.9202C400.364 50.0433 398.47 52.1333 396.533 54.188C396.339 55.1259 396.13 56.057 395.908 56.9801C394.317 57.037 392.726 57.0564 391.135 57.037C391.095 56.2097 391.303 55.4496 391.76 54.7578C392.559 53.8051 393.429 52.9311 394.374 52.1368C395.53 50.6553 396.685 49.1738 397.84 47.6923C395.635 45.3163 393.382 42.9994 391.078 40.7408C390.572 39.2433 390.136 37.7231 389.771 36.1824C387.171 34.5949 384.671 32.8661 382.269 30.9972C380.795 29.3703 379.545 27.585 378.519 25.641C376.681 24.3966 374.862 23.124 373.063 21.8234C372.385 22.2953 371.721 22.7891 371.074 23.3049C371.048 24.3901 370.991 25.4727 370.904 26.5527C371.117 27.4218 371.42 28.2575 371.813 29.0598C371.772 29.1994 371.715 29.3323 371.643 29.4587C370.996 30.4533 370.295 31.4029 369.54 32.3077C368.56 30.9413 368.106 29.4408 368.176 27.8063C368.249 26.2304 368.306 24.654 368.347 23.0769C368.365 22.6454 368.441 22.2275 368.574 21.8234C369.805 20.5128 371.037 19.2023 372.268 17.8918C372.532 17.8157 372.798 17.8157 373.063 17.8918C374.359 18.2866 375.647 18.7045 376.928 19.1453C377.208 19.2258 377.473 19.1878 377.723 19.0314C378.803 18.2527 379.883 17.4739 380.962 16.6952C381.952 15.147 382.956 13.6086 383.974 12.0798C383.898 12.0608 383.823 12.0418 383.747 12.0228C382.118 12.3458 380.488 12.6307 378.86 12.8775C378.304 12.7047 377.869 12.3818 377.553 11.9088C377.477 11.1491 377.477 10.3894 377.553 9.62965C380.022 7.8309 382.542 6.10247 385.111 4.44446C385.123 3.66383 385.123 2.88514 385.111 2.10828Z" fill="#221F1F"/>
<path opacity="0.978" fill-rule="evenodd" clip-rule="evenodd" d="M143.932 6.21075C146.213 6.01519 148.333 6.49007 150.296 7.63525C152.139 9.03491 152.839 10.8773 152.399 13.1623C151.728 15.2405 150.345 16.5891 148.25 17.2079C146.412 17.6441 144.554 17.7202 142.681 17.4358C139.806 16.8699 138.063 15.1605 137.453 12.3076C137.585 9.66784 138.873 7.84448 141.317 6.83753C142.185 6.54636 143.056 6.33747 143.932 6.21075Z" fill="#221F1F"/>
<path opacity="0.983" fill-rule="evenodd" clip-rule="evenodd" d="M334.761 7.80632C340.244 7.7686 345.719 7.80666 351.184 7.92028C351.241 24.2166 351.26 40.5129 351.241 56.8092C352.757 56.7898 354.272 56.8092 355.787 56.8661C355.9 58.13 355.937 59.4018 355.901 60.6838C350.256 60.6838 344.612 60.6838 338.966 60.6838C338.966 44.2736 338.966 27.8633 338.966 11.453C337.565 11.453 336.162 11.453 334.761 11.453C334.754 10.2136 334.754 8.998 334.761 7.80632Z" fill="#221F1F"/>
<path opacity="0.986" fill-rule="evenodd" clip-rule="evenodd" d="M124.837 11.6809C125.633 11.6809 126.429 11.6809 127.224 11.6809C127.224 15.1377 127.224 18.5945 127.224 22.0513C128.778 22.0322 130.332 22.0513 131.884 22.1083C131.997 23.2955 132.034 24.4921 131.998 25.698C130.407 25.698 128.815 25.698 127.224 25.698C127.205 35.347 127.224 44.9949 127.281 54.6439C127.579 55.8906 128.374 56.498 129.668 56.4672C130.387 56.3943 131.088 56.2427 131.77 56.0114C131.837 56.0353 131.894 56.0729 131.941 56.1254C132.017 57.3026 132.017 58.4809 131.941 59.6581C130.92 60.2142 129.86 60.5561 128.759 60.6838C125.524 61.5578 122.323 61.3493 119.155 60.057C116.631 58.6234 115.248 56.4387 115.006 53.5043C114.949 44.2359 114.93 34.9664 114.949 25.698C113.585 25.698 112.221 25.698 110.858 25.698C110.838 24.7855 110.858 23.8738 110.914 22.963C115.615 19.2684 120.256 15.5077 124.837 11.6809Z" fill="#221F1F"/>
<path opacity="0.986" fill-rule="evenodd" clip-rule="evenodd" d="M289.639 11.6808C290.493 11.6282 291.326 11.6852 292.14 11.8518C292.026 15.2432 291.989 18.643 292.026 22.0512C293.996 22.0512 295.967 22.0512 297.936 22.0512C297.936 23.2668 297.936 24.4823 297.936 25.6979C295.967 25.6979 293.996 25.6979 292.026 25.6979C292.007 35.233 292.026 44.7669 292.083 54.3019C292.224 55.7344 293.02 56.4569 294.47 56.4672C295.264 56.3942 296.041 56.2415 296.8 56.0113C296.836 57.2546 296.799 58.49 296.686 59.715C296.029 60.0444 295.347 60.3099 294.64 60.5127C292.889 60.8763 291.127 61.1236 289.355 61.2535C287.513 61.1646 285.714 60.7657 283.957 60.0569C281.446 58.6164 280.063 56.4318 279.808 53.5042C279.751 44.2358 279.732 34.9663 279.751 25.6979C278.387 25.6979 277.023 25.6979 275.66 25.6979C275.64 24.7854 275.66 23.8738 275.716 22.9629C280.445 19.3041 285.085 15.5434 289.639 11.6808Z" fill="#221F1F"/>
<path opacity="0.928" fill-rule="evenodd" clip-rule="evenodd" d="M370.563 17.3789C370.73 17.4441 370.882 17.539 371.018 17.6638C369.957 18.7274 368.896 19.7911 367.835 20.8547C366.832 21.4043 365.96 22.1261 365.221 23.0199C364.765 23.041 364.292 22.9461 363.8 22.735C363.713 22.7516 363.637 22.7895 363.573 22.849C363.514 22.7332 363.42 22.6573 363.289 22.6211C362.806 22.5282 362.333 22.4142 361.868 22.2792C361.716 22.3606 361.564 22.3225 361.414 22.1652C361.428 21.8692 361.542 21.6033 361.755 21.3675C362.924 20.0871 364.345 19.1944 366.017 18.6894C367.556 18.2851 369.071 17.8483 370.563 17.3789Z" fill="#221F1F"/>
<path opacity="0.986" fill-rule="evenodd" clip-rule="evenodd" d="M45.7324 20.2279C56.6659 19.7895 63.58 24.8418 66.4747 35.3846C67.9252 41.8803 67.0538 48.0342 63.8606 53.8461C60.2525 59.3527 55.1379 62.2769 48.517 62.6211C37.487 62.2769 30.895 56.6541 28.7407 45.755C27.7654 39.8348 28.7125 34.2507 31.5821 29.0028C34.9149 23.828 39.6316 20.903 45.7324 20.2279ZM47.6645 24.3305C49.5275 24.5155 50.7587 25.5031 51.3584 27.2934C52.0312 29.3661 52.4102 31.4929 52.4949 33.6752C52.9421 39.8017 52.8284 45.9179 52.154 52.0228C51.9169 53.6855 51.3864 55.2433 50.5628 56.6951C49.4832 57.9669 48.1383 58.3658 46.528 57.8917C46.1114 57.7208 45.7326 57.4929 45.3914 57.208C44.2853 55.706 43.6223 54.0159 43.4024 52.1367C42.7138 45.8803 42.6001 39.6125 43.0614 33.3333C43.1606 31.1419 43.5772 29.0142 44.3117 26.9516C44.8933 25.3591 46.0108 24.4855 47.6645 24.3305Z" fill="#221F1F"/>
<path opacity="0.979" fill-rule="evenodd" clip-rule="evenodd" d="M94.9456 21.2537C101.348 21.3105 105.079 24.5014 106.141 30.8263C106.25 31.7733 106.325 32.7226 106.368 33.6753C106.425 41.387 106.444 49.0975 106.425 56.8092C107.902 56.7898 109.38 56.8092 110.858 56.8662C110.97 58.13 111.008 59.4018 110.971 60.6839C105.365 60.6839 99.757 60.6839 94.15 60.6839C94.169 51.5294 94.15 42.3739 94.0932 33.2195C94.0858 31.4474 93.4607 29.9469 92.2179 28.718C90.3392 27.7119 88.6533 27.9968 87.1601 29.5728C86.5758 30.4714 86.2349 31.4588 86.1372 32.5357C86.0804 40.6269 86.0614 48.718 86.0804 56.8092C87.2074 56.7728 88.3251 56.8104 89.4333 56.9232C89.4901 58.1756 89.5091 59.4292 89.4901 60.6839C83.0874 60.7032 76.6846 60.6839 70.2821 60.6269C70.1511 59.4007 70.1321 58.1665 70.2253 56.9232C71.3714 56.8104 72.527 56.7728 73.6918 56.8092C73.6541 46.4502 73.692 36.0981 73.8055 25.7551C72.5938 25.6981 71.3814 25.6791 70.1685 25.6981C70.1685 24.4825 70.1685 23.267 70.1685 22.0514C75.2453 22.0324 80.322 22.0514 85.3985 22.1084C85.4923 23.9803 85.5492 25.8606 85.569 27.7494C87.4987 23.8475 90.6243 21.6823 94.9456 21.2537Z" fill="#221F1F"/>
<path opacity="0.981" fill-rule="evenodd" clip-rule="evenodd" d="M182.348 21.2537C188.903 21.3495 192.635 24.6543 193.543 31.1682C193.654 32.3819 193.73 33.5967 193.77 34.8149C193.827 42.146 193.846 49.4782 193.827 56.8092C195.304 56.7898 196.782 56.8092 198.26 56.8662C198.372 58.13 198.41 59.4018 198.373 60.6839C192.765 60.7215 187.159 60.6839 181.552 60.5699C181.528 60.5027 181.491 60.4457 181.438 60.399C181.433 51.4497 181.47 42.4856 181.552 33.5044C181.499 32.0537 181.101 30.7051 180.359 29.4588C178.675 27.8124 176.876 27.6795 174.96 29.0599C174.163 29.9941 173.689 31.077 173.539 32.3078C173.372 40.4719 173.315 48.6394 173.369 56.8092C174.534 56.7728 175.69 56.8104 176.835 56.9232C176.892 58.1756 176.911 59.4292 176.892 60.6839C170.451 60.6839 164.011 60.6839 157.57 60.6839C157.551 59.4292 157.57 58.1756 157.627 56.9232C158.764 56.7716 159.9 56.7716 161.037 56.9232C161.094 46.5152 161.113 36.1061 161.094 25.6981C159.92 25.6981 158.745 25.6981 157.57 25.6981C157.57 24.4825 157.57 23.267 157.57 22.0514C162.648 22.0514 167.723 22.0514 172.8 22.0514C172.781 24.0271 172.8 26.0024 172.857 27.9773C174.751 23.9326 177.914 21.6915 182.348 21.2537Z" fill="#221F1F"/>
<path opacity="0.981" fill-rule="evenodd" clip-rule="evenodd" d="M215.763 21.2536C224.448 20.9785 229.847 25.0431 231.959 33.4473C232.58 36.5755 232.769 39.7288 232.527 42.906C225.713 43.1328 218.875 43.2091 212.012 43.1339C212.021 45.9863 212.836 48.5698 214.456 50.8832C216.245 52.8627 218.48 53.8496 221.161 53.8461C224.461 53.853 227.245 52.6746 229.515 50.3134C230.291 50.882 230.973 51.5476 231.561 52.3077C228.449 58.3624 223.467 61.3823 216.615 61.3675C208.094 61.1328 202.563 56.9914 200.021 48.9459C198.444 43.1909 198.671 37.4929 200.703 31.8518C203.549 25.2191 208.569 21.6864 215.763 21.2536ZM215.308 25.4701C215.875 25.601 216.443 25.6201 217.013 25.5271C218.107 25.7887 218.846 26.4534 219.229 27.5214C219.716 28.964 220.018 30.4455 220.138 31.9658C220.337 34.3863 220.432 36.7795 220.423 39.1453C217.619 39.1453 214.816 39.1453 212.012 39.1453C211.982 35.8997 212.19 32.6712 212.637 29.4587C212.821 28.1786 213.333 27.058 214.171 26.0969C214.543 25.8541 214.922 25.6452 215.308 25.4701Z" fill="#221F1F"/>
<path opacity="0.982" fill-rule="evenodd" clip-rule="evenodd" d="M259.861 21.2536C265.318 21.1846 268.898 23.7297 270.602 28.8889C270.916 30.3921 271.105 31.9111 271.17 33.4473C271.227 41.2342 271.246 49.0222 271.227 56.8091C272.705 56.7897 274.182 56.8091 275.66 56.8661C275.772 58.1299 275.81 59.4017 275.773 60.6838C270.177 60.7214 264.588 60.6838 259.009 60.5698C258.99 51.4644 258.933 42.3658 258.839 33.2764C258.906 31.7425 258.469 30.3562 257.531 29.1168C256.205 28.0685 254.784 27.8595 253.269 28.49C252.359 28.9853 251.734 29.726 251.394 30.7123C251.17 31.3402 251.019 31.9863 250.939 32.6496C250.883 40.7031 250.863 48.7556 250.883 56.8091C252.025 56.7738 253.161 56.8114 254.292 56.9231C254.442 58.1641 254.442 59.3994 254.292 60.6268C247.89 60.7031 241.487 60.7031 235.084 60.6268C234.954 59.4006 234.934 58.1664 235.027 56.9231C236.212 56.8103 237.405 56.7727 238.608 56.8091C238.608 46.4387 238.608 36.0684 238.608 25.698C237.395 25.698 236.183 25.698 234.971 25.698C234.971 24.4824 234.971 23.2669 234.971 22.0513C240.048 22.0323 245.124 22.0513 250.201 22.1083C250.295 23.9802 250.352 25.8605 250.371 27.7493C252.354 23.8406 255.519 21.6753 259.861 21.2536Z" fill="#221F1F"/>
<path opacity="0.983" fill-rule="evenodd" clip-rule="evenodd" d="M315.326 21.2536C318.716 21.1165 321.898 21.8573 324.873 23.4758C328.413 25.8427 330.402 29.1664 330.84 33.4473C330.897 41.2342 330.916 49.0223 330.897 56.8092C332.19 56.7738 333.479 56.8114 334.761 56.9231C334.911 58.1641 334.911 59.3995 334.761 60.6268C329.57 60.6838 324.381 60.7032 319.19 60.6838C319.209 59.126 319.19 57.5681 319.133 56.0114C316.06 60.3545 311.93 62.0639 306.745 61.1396C303.083 59.861 300.696 57.3539 299.584 53.6183C298.576 50.0639 298.917 46.5311 300.607 43.02C302.282 40.3169 304.65 38.5117 307.711 37.6069C311.345 36.6439 314.982 36.6257 318.622 37.5499C318.641 36.3339 318.622 35.118 318.565 33.9032C318.288 31.5009 317.057 29.8106 314.871 28.832C310.071 27.4729 306.074 28.7834 302.88 32.7636C302.12 31.8679 301.381 30.9562 300.664 30.0285C304.136 24.7355 309.023 21.8106 315.326 21.2536ZM315.894 40.7408C316.505 40.7989 317.111 40.8935 317.713 41.0257C318.024 41.1476 318.308 41.3186 318.565 41.5385C318.659 45.5271 318.641 49.5157 318.508 53.5043C317.319 54.4137 315.993 54.661 314.53 54.2451C313.163 53.5943 312.348 52.5117 312.087 50.9972C311.653 48.5493 311.728 46.1186 312.314 43.7037C312.849 41.8918 314.043 40.9049 315.894 40.7408Z" fill="#221F1F"/>
<path opacity="0.982" fill-rule="evenodd" clip-rule="evenodd" d="M135.294 22.0513C140.559 22.0513 145.826 22.0513 151.092 22.0513C151.092 33.6376 151.092 45.2228 151.092 56.8091C152.257 56.7726 153.413 56.8102 154.558 56.9231C154.615 58.1755 154.635 59.429 154.615 60.6838C148.213 60.7031 141.81 60.6838 135.407 60.6268C135.277 59.4006 135.257 58.1664 135.35 56.9231C136.496 56.8102 137.652 56.7726 138.817 56.8091C138.817 46.4387 138.817 36.0684 138.817 25.698C137.643 25.698 136.468 25.698 135.294 25.698C135.294 24.4824 135.294 23.2669 135.294 22.0513Z" fill="#221F1F"/>
<path opacity="0.952" fill-rule="evenodd" clip-rule="evenodd" d="M403.523 32.4217C403.768 32.4069 403.995 32.4639 404.205 32.5927C405.43 33.4029 406.624 34.2576 407.785 35.1568C408.508 36.9539 409 38.816 409.263 40.7408C409.689 43.6137 409.973 46.5015 410.115 49.4018C408.357 48.7192 406.785 47.7323 405.399 46.4388C405.109 42.9459 404.843 39.4508 404.603 35.9545C404.306 34.8149 403.909 33.7129 403.41 32.6496C403.451 32.5722 403.489 32.4958 403.523 32.4217Z" fill="#221F1F"/>
<path opacity="0.948" fill-rule="evenodd" clip-rule="evenodd" d="M393.294 44.7295C394.157 45.4041 394.952 46.1643 395.681 47.0087C393.784 48.6634 391.871 50.2964 389.941 51.909C389.567 52.5643 389.207 53.2298 388.861 53.9033C387.42 53.9979 385.98 53.9796 384.542 53.8463C384.852 52.8845 385.363 52.0492 386.077 51.3392C388.641 49.3198 391.047 47.1158 393.294 44.7295Z" fill="#221F1F"/>
<path opacity="0.91" fill-rule="evenodd" clip-rule="evenodd" d="M360.106 58.6323C378.822 58.6323 397.537 58.6323 416.253 58.6323C416.253 59.3161 416.253 59.9998 416.253 60.6836C397.537 60.6836 378.822 60.6836 360.106 60.6836C360.106 59.9998 360.106 59.3161 360.106 58.6323Z" fill="#221F1F"/>
</svg>
