<svg width="408" height="80" viewBox="0 0 408 80" fill="none" xmlns="http://www.w3.org/2000/svg">
<g clip-path="url(#clip0_4623_13539)">
<path d="M233.862 4.06304C230.321 28.8522 226.816 53.3798 223.296 78.027H203.16C204.44 68.7067 205.706 59.4928 206.989 50.1487H182.657C181.347 59.4458 180.041 68.7232 178.721 78.0727H158.522C162.05 53.3525 165.554 28.7756 169.079 4.08139H189.254C187.791 14.1114 186.342 24.0218 184.876 34.0818H209.268C210.738 24.059 212.204 14.0818 213.676 4.06125H233.861L233.862 4.06304ZM0.0449219 78.1681C3.54606 53.3225 7.00733 28.7487 10.4758 4.14049C10.9162 4.07109 11.2316 3.97887 11.5498 3.97887C20.6642 3.98827 29.7854 3.87679 38.8971 4.05811C52.209 4.32539 63.9921 12.8636 68.0703 24.9992C70.5176 32.2767 70.3321 39.6133 68.2195 46.9199C64.8613 58.537 58.144 67.6004 47.4277 73.5142C41.7082 76.6691 35.5277 78.1345 28.9968 78.1443C19.9352 78.1537 10.8736 78.1609 1.81566 78.1676H0.0453699L0.0449219 78.1681ZM21.8551 60.0919C26.6463 60.0887 31.1188 60.326 35.4757 59.0393C40.0643 57.6859 43.8804 55.1975 46.6356 51.2505C49.6362 46.9534 50.9423 42.0985 50.82 36.9302C50.6444 29.4414 46.5231 24.2336 39.5737 22.4974C35.6213 21.5111 31.5861 21.6956 27.5643 21.8939C27.4716 21.897 27.3856 22.0094 27.1566 22.1674L21.8551 60.091V60.0919ZM385.579 30.1953C386.816 21.3929 388.021 12.8251 389.247 4.1096H407.979C404.525 28.7635 401.083 53.3333 397.625 78.0185H378.882C379.124 76.2165 379.349 74.5501 379.604 72.6622C379.197 72.8632 378.933 72.916 378.788 73.0812C375.046 77.355 370.156 79.312 364.646 79.791C357.723 80.3914 351.48 78.6453 346.367 73.7546C342.155 69.7243 340.037 64.6554 339.496 58.9489C338.193 45.1371 346.188 31.4833 358.847 25.9528C365.093 23.22 371.542 22.7284 378.057 25.0055C380.696 25.9295 383.017 27.4079 384.827 29.5895C384.956 29.748 385.148 29.8537 385.579 30.1966V30.1953ZM383.236 50.0458C383.249 44.6562 380.185 40.904 375.062 40.0426C366.469 38.5934 358.717 45.2007 358.852 53.8643C358.925 58.5643 361.449 62.0161 365.819 63.1649C374.035 65.3229 383.008 60.2141 383.236 50.0458ZM277.421 30.1711C277.68 28.5146 277.906 27.0757 278.147 25.5472H296.831C294.364 43.1417 291.921 60.5736 289.47 78.0463H270.755C270.992 76.1986 271.214 74.4951 271.47 72.535C271.039 72.8054 270.827 72.878 270.701 73.0235C267.061 77.2082 262.302 79.2014 256.911 79.7261C249.95 80.403 243.632 78.7792 238.411 73.9045C234.093 69.8716 231.829 64.7624 231.458 58.9936C230.575 45.2642 236.026 34.5676 247.849 27.3922C254.242 23.5141 261.271 22.5207 268.576 24.5278C271.722 25.3923 274.464 26.9996 276.619 29.5009C276.786 29.6956 277.014 29.8344 277.421 30.1711ZM275.143 50.0059C275.167 44.2994 271.645 40.425 265.95 39.8904C257.63 39.1078 250.599 45.5172 250.681 53.8011C250.731 58.5634 253.426 62.1643 257.918 63.2402C266.294 65.2504 274.921 59.9464 275.143 50.0059ZM155.663 54.902H116.616C114.964 60.1228 117.743 65.1787 122.859 66.2483C127.878 67.2977 132.441 66.5456 135.843 62.2382C135.942 62.1133 136.098 62.0336 136.38 61.8124H154.165C153.885 62.522 153.697 63.126 153.425 63.691C150.424 69.9213 145.61 74.3111 139.278 76.9579C130.485 80.6345 121.47 81.0142 112.434 77.9017C103.091 74.6836 97.8686 67.1495 97.7731 57.3344C97.7095 51.041 98.9564 45.0802 102.086 39.6016C107.08 30.8588 114.775 25.9018 124.619 24.1526C129.951 23.2057 135.289 23.2451 140.535 24.727C149.592 27.2879 154.864 33.2155 156.214 42.5193C156.761 46.3047 156.568 50.0869 156.011 53.8558C155.968 54.1199 155.842 54.3706 155.663 54.902H155.663ZM118.473 43.9086H139.915C139.855 43.3109 139.862 42.8292 139.75 42.377C139.249 40.39 138.162 38.7796 136.481 37.5847C130.751 33.5155 120.96 36.5684 118.573 43.169C118.507 43.3637 118.517 43.588 118.473 43.9086H118.473ZM303.479 25.523H322.217C321.844 28.259 321.49 30.8436 321.138 33.4273C321.255 33.5065 321.37 33.5858 321.483 33.665C324.011 30.3614 327.063 27.7674 330.943 26.2331C334.828 24.6948 338.87 24.5098 343.286 24.6155C342.389 31.0647 341.509 37.3814 340.595 43.9448C337.982 42.608 335.4 42.2583 332.737 42.278C325.886 42.3344 321.496 45.4071 319.169 51.7963C317.972 55.0834 317.604 58.5321 317.12 61.9579C316.401 67.0206 315.704 72.0869 314.992 77.1495C314.956 77.4168 314.876 77.6742 314.79 78.0441H296.186C298.463 60.5091 301.137 43.1072 303.479 25.523ZM77.6463 25.5011H96.4092C93.9391 43.0924 91.4886 60.5311 89.0256 78.0566H70.286C72.7463 60.489 75.1931 43.0163 77.6467 25.5011H77.6463ZM99.7137 9.13601C99.6541 15.4393 94.0045 21.0106 87.6685 21.0106C82.1381 21.0106 78.0898 16.6342 78.5509 11.1489C79.0612 5.01979 84.6647 -0.0294606 90.851 0.0627672C96.0503 0.142011 99.7634 3.94395 99.7137 9.13601Z" fill="black"/>
</g>
<defs>
<clipPath id="clip0_4623_13539">
<rect width="408" height="80" fill="white"/>
</clipPath>
</defs>
</svg>
