<svg width="360" height="80" viewBox="0 0 360 80" fill="none" xmlns="http://www.w3.org/2000/svg">
<path d="M45.9157 39.2749C45.9157 50.2843 36.9063 59.312 25.9192 59.312C14.932 59.312 5.92261 50.2843 5.92261 39.2749C5.92261 28.2655 14.932 19.2378 25.9192 19.2378C37.126 19.2378 45.9157 28.0453 45.9157 39.2749Z" fill="white"/>
<path d="M323.45 41.477L321.033 47.2019H325.428L323.231 52.4864H299.279L301.476 47.2019H306.53L314.001 30.2474H308.947L310.705 24.9628H342.788C348.501 24.9628 350.259 25.6234 350.918 27.8253C351.138 30.2474 350.259 31.7887 349.38 33.9906C348.281 36.853 345.205 41.477 339.272 41.477H323.45ZM331.581 36.1924C333.778 36.1924 334.218 35.0915 334.437 34.6511C334.877 33.5502 335.097 33.1098 335.536 32.4492C335.756 31.7887 335.976 30.2474 333.778 30.2474H328.504L326.087 36.1924H331.581ZM79.3167 52.2662L81.5141 47.2019H86.3484L93.8196 30.2474H89.4248L91.6222 24.9628H125.682C127.44 25.4032 129.418 26.284 130.297 28.0455C132.714 32.4492 129.418 36.853 128.099 41.0366C125.682 45.6605 122.166 51.6056 116.453 52.046L114.036 52.2662H79.3167ZM107.004 47.2019C108.323 47.2019 108.982 46.7615 109.861 45.8807C112.058 43.2385 115.794 34.8713 115.794 32.0089C116.014 31.1281 115.135 30.2474 113.596 30.2474H108.103L100.412 47.2019H107.004ZM275.547 52.4864C272.25 52.4864 270.053 52.2662 266.977 52.2662C264.12 52.2662 261.263 51.1652 260.165 48.523C258.846 44.5596 260.604 41.9173 262.362 38.3943C265.438 32.0089 266.977 27.8253 271.811 26.0638C275.986 24.3023 281.04 24.7426 285.874 24.5225C290.489 24.5225 294.884 24.7427 299.498 25.183C301.696 25.6234 304.333 26.5042 305.212 29.1464C305.871 32.4492 303.674 35.7521 303.234 37.0732C300.597 42.7981 300.377 43.2385 298.18 46.7615C296.202 49.8441 291.807 51.8258 288.511 52.046C284.776 52.4864 280.161 52.4864 276.426 52.4864H275.547ZM286.314 43.0183C287.852 39.9356 289.171 37.2934 290.269 34.2107C290.709 32.8896 291.807 29.3666 285.655 29.3666C279.722 29.3666 278.403 32.2291 277.744 33.5502C276.645 35.7521 274.008 40.8164 273.569 42.5779C272.25 46.9817 275.766 47.2019 277.524 47.2019C277.744 47.2019 284.116 47.6422 286.314 43.0183ZM172.048 30.0272C172.048 30.0272 167.653 41.6971 164.577 46.7615C161.94 51.1652 156.886 52.2662 152.271 52.4864C147.217 52.7066 141.943 52.9267 137.109 52.2662C134.911 51.8258 132.934 49.8441 132.494 47.6422C132.055 46.1009 132.714 44.5596 133.373 43.2385C135.351 39.0549 138.867 30.2474 138.867 30.2474H134.032L136.23 24.9628H160.182L158.204 30.2474H153.59L148.096 43.2385C147.656 44.3394 147.657 45.4403 148.535 46.1009C150.293 47.6422 153.15 47.422 155.347 46.9817C157.105 46.3211 158.863 44.7798 159.742 43.0183L165.236 30.0272H160.841L163.038 24.7427H178.86L176.662 30.0272H172.048ZM219.073 30.2474L209.404 52.2662H197.977L189.408 35.5319L184.353 47.2019H188.748L186.551 52.2662H169.85L172.048 47.2019H177.322L184.573 30.2474H179.739L181.717 24.9628H198.856L207.207 41.2568L211.821 30.0272H207.646L209.624 24.9628H225.885L223.687 30.2474H219.073ZM246.541 30.2474L239.509 47.2019H246.98L254.232 39.0549L259.066 39.2751L253.133 52.2662H217.095L219.292 47.2019H224.347L231.598 30.2474L226.983 30.0272L228.961 24.9628H253.572L251.155 30.0272L246.541 30.2474Z" fill="#00000D"/>
<path d="M23.502 59.5324C9.87801 59.5324 2.18703 48.9633 1.96729 39.275C1.96729 29.5868 9.87801 18.7975 23.2823 18.5774C21.7441 17.2562 3.28574 0.081543 3.28574 0.081543L69.6479 39.275L3.72522 77.5878L23.502 59.5324ZM26.3587 57.991C36.6866 57.991 45.2565 49.6239 45.2565 39.0549C45.2565 28.4858 36.9063 20.1187 26.3587 20.1187C16.0308 20.1187 7.46084 28.4858 7.46084 39.0549C7.46084 49.6239 15.811 57.991 26.3587 57.991Z" fill="#EC1C24"/>
<path d="M37.1262 30.9077H17.5691L15.5914 35.3115H18.2283L15.1519 42.3575H12.515L10.5374 46.7613H29.6549C34.9288 46.7613 38.8841 46.9815 41.7408 40.596C43.7184 35.7519 42.4 30.9077 37.1262 30.9077ZM32.9511 39.0547C31.6326 42.1373 29.4352 42.1373 27.6773 42.1373H23.2824L26.3588 35.0913H31.1931C33.1708 35.3115 33.83 37.2932 32.9511 39.0547ZM239.509 69.2205L240.608 66.7984H238.19L241.267 59.312H243.464L243.244 62.1744H245.881L248.079 56.6697H230.499L227.862 62.1744H230.499L232.917 59.312H234.894L231.378 66.7984H229.181L228.082 69.2205H239.509ZM249.837 56.6697L248.738 58.8716H250.935L247.42 66.7984H245.442L244.343 69.0003H255.55L256.429 66.7984H254.012L257.528 58.8716H259.725L260.824 56.6697H249.837ZM317.517 62.1744C319.275 62.6148 319.056 63.9359 318.836 64.5965C318.396 66.1378 318.177 67.8993 315.979 68.7801C313.562 69.6608 309.167 69.6608 306.53 69.0003C305.871 69.0003 305.212 68.1195 304.553 68.5599L303.893 69.2205H298.4L300.597 64.8167H306.75C306.31 65.2571 306.091 65.9176 306.53 66.358C307.629 67.2388 310.486 67.0186 311.145 66.5782C311.584 66.358 311.584 66.1378 311.804 65.6974C312.024 65.2571 311.584 64.8167 311.145 64.8167C308.508 64.1561 305.432 64.3763 303.234 63.2754C302.575 62.835 302.575 62.3946 302.575 61.7341C303.014 59.9726 304.113 57.9909 305.871 57.3303C308.728 56.4495 312.244 56.4495 315.1 57.1101C315.979 57.3303 316.419 57.7707 316.638 57.7707C316.858 57.5505 317.078 57.1101 317.078 57.1101H321.912L320.154 61.2937H314.661C314.88 60.8533 315.32 59.7524 314.221 59.5322C312.683 59.312 310.266 58.8716 309.826 60.1927C309.607 61.5139 311.804 61.5139 313.782 61.7341C314.661 61.5139 315.54 61.7341 317.517 62.1744Z" fill="#00000D"/>
<path fill-rule="evenodd" clip-rule="evenodd" d="M270.932 59.092L269.833 61.2939H272.47C273.129 61.2939 273.569 61.0737 274.008 60.1929C274.448 59.5324 274.228 58.8718 273.789 58.8718H270.932V59.092ZM279.502 56.6699C282.358 56.6699 281.26 58.8718 281.04 59.3122L279.062 62.8352C278.403 63.7159 277.524 63.7159 276.645 63.7159C276.425 63.7159 276.206 63.7159 276.425 63.9361L277.085 64.1563C277.524 64.3765 277.524 64.5967 277.524 65.2573C277.524 66.3582 278.183 66.3582 278.843 66.3582C279.722 66.3582 279.941 65.2573 279.941 64.5967H282.798C282.798 65.4774 282.578 66.3582 282.359 67.0188H283.018L286.534 59.3122H284.336L285.435 56.8901H302.135L299.718 62.1746H297.521L297.081 59.092H293.126L291.807 61.9544H295.543L294.444 64.3765H290.709L289.61 66.7986H293.785L296.642 63.7159H298.839L296.422 69.2206H279.502C278.403 69.4408 277.304 69.4408 276.865 69.4408C275.327 69.4408 273.129 69.0005 272.25 68.3399C271.591 67.6793 271.371 66.138 271.152 65.2573C271.152 64.3765 270.712 63.9361 270.053 63.9361H268.954L267.636 66.7986H269.833L268.734 69.2206H257.308L258.407 66.7986H260.824L264.34 59.092H261.703L262.801 56.6699H279.502Z" fill="#00000D"/>
<path d="M354.874 24.9629C356.412 24.9629 357.95 26.0638 357.95 27.8253C357.95 29.5868 356.412 30.6878 354.874 30.6878C353.335 30.6878 351.797 29.5868 351.797 27.8253C351.797 26.0638 353.335 24.9629 354.874 24.9629ZM354.874 30.2474C356.192 30.2474 357.071 29.3667 357.071 27.8253C357.071 26.5042 355.972 25.4033 354.874 25.4033C353.555 25.4033 352.676 26.284 352.676 27.8253C352.676 29.1465 353.775 30.2474 354.874 30.2474ZM353.775 26.284H355.093C355.972 26.284 356.412 26.5042 356.412 27.1648C356.412 27.8253 355.972 28.0455 355.533 28.0455L356.412 29.5868H355.752L354.874 28.2657H354.434V29.5868H353.775V26.284ZM354.434 27.6052H355.093C355.533 27.6052 355.752 27.6051 355.752 27.1648C355.752 26.7244 355.313 26.7244 355.093 26.7244H354.434V27.6052Z" fill="#00000D"/>
</svg>
