<svg width="152" height="80" viewBox="0 0 152 80" fill="none" xmlns="http://www.w3.org/2000/svg">
<g clip-path="url(#clip0_4623_25533)">
<path opacity="0.365" fill-rule="evenodd" clip-rule="evenodd" d="M71.7777 0.136543C71.2329 0.318577 70.6881 0.500584 70.1433 0.682618C69.6216 0.760297 69.1678 0.669266 68.7812 0.40958C69.7521 0.157648 70.751 0.066645 71.7777 0.136543Z" fill="#E698A0"/>
<path opacity="0.875" fill-rule="evenodd" clip-rule="evenodd" d="M71.7777 0.136719C73.2304 0.136719 74.6834 0.136719 76.1361 0.136719C76.7717 0.318753 77.4074 0.50076 78.043 0.682794C75.4096 0.682794 72.7766 0.682794 70.1433 0.682794C70.6881 0.50076 71.2329 0.318753 71.7777 0.136719Z" fill="#E1494D"/>
<path opacity="0.62" fill-rule="evenodd" clip-rule="evenodd" d="M76.1362 0.136706C79.9381 0.0793952 83.661 0.443436 87.3047 1.22886C84.2238 0.946453 81.1367 0.764419 78.043 0.682781C77.4075 0.500747 76.7717 0.31874 76.1362 0.136706Z" fill="#E58087"/>
<path opacity="0.263" fill-rule="evenodd" clip-rule="evenodd" d="M67.6917 0.409668C67.5779 0.606692 67.3965 0.743211 67.1469 0.819224C66.1404 0.906023 65.1415 1.04254 64.1505 1.22878C63.901 1.21712 63.7193 1.12609 63.6057 0.955743C64.9636 0.751456 66.3256 0.569422 67.6917 0.409668Z" fill="#D98D9B"/>
<path fill-rule="evenodd" clip-rule="evenodd" d="M67.6918 0.409668C68.0549 0.409668 68.4183 0.409668 68.7814 0.409668C69.1679 0.669354 69.6217 0.760385 70.1434 0.682706C72.7767 0.682706 75.4097 0.682706 78.043 0.682706C81.1367 0.764344 84.2238 0.946378 87.3047 1.22878C87.9135 1.14832 88.4583 1.23932 88.9391 1.50182C89.43 1.76344 89.9748 1.94548 90.5735 2.04789C90.7552 2.04789 90.9366 2.04789 91.1183 2.04789C91.1485 2.21647 91.2392 2.35299 91.3907 2.45745C91.9281 2.59274 92.4729 2.63823 93.0251 2.59397C93.7475 2.56926 94.383 2.75129 94.9319 3.14004C96.486 3.84131 98.1204 4.38739 99.8351 4.77827C100.661 5.29791 101.568 5.66195 102.559 5.87042C103.691 6.57469 104.872 7.21177 106.1 7.78168C104.288 8.78127 102.472 9.78242 100.652 10.7851C98.9207 11.0643 97.3773 11.7014 96.0215 12.6964C95.2577 13.2164 94.4405 13.6715 93.5699 14.0615C93.1196 14.1051 92.7565 14.2872 92.4803 14.6076C92.03 14.6512 91.6669 14.8332 91.3907 15.1537C90.7508 15.6564 90.0246 16.0204 89.2115 16.2458C88.4144 16.5082 87.5972 16.6902 86.7599 16.7919C86.7599 17.065 86.7599 17.338 86.7599 17.611C86.5782 17.702 86.3968 17.7931 86.2151 17.8841C85.4439 18.0421 84.8084 18.4061 84.3083 18.9762C82.5415 19.4512 80.9978 20.2703 79.6774 21.4336C79.4808 21.5477 79.3446 21.7295 79.2688 21.9796C79.1781 21.8887 79.0871 21.7975 78.9964 21.7066C78.5911 22.1598 78.0918 22.4329 77.4982 22.5257C76.9861 22.4517 76.623 22.6338 76.4086 23.0718C75.0033 23.3653 73.8227 24.0023 72.8674 24.983C71.6536 26.0441 70.4733 26.0441 69.3262 24.983C68.631 24.316 67.8138 23.8609 66.8746 23.6179C66.7226 23.2656 66.4502 23.0382 66.0574 22.9353C66.0898 22.6226 66.1805 22.304 66.3298 21.9796C67.1579 21.6574 67.8841 21.2023 68.509 20.6144C69.4373 20.3778 70.3455 20.0592 71.233 19.6588C71.9622 19.4367 72.507 19.0271 72.8674 18.4301C72.9606 18.2013 73.142 18.1103 73.4122 18.1571C73.9309 18.0922 74.2942 17.8192 74.5018 17.338C75.0611 17.3647 75.5151 17.1827 75.8638 16.7919C76.3141 16.7483 76.6772 16.5663 76.9534 16.2458C78.4892 15.2021 80.1236 14.292 81.8566 13.5155C82.9503 13.4175 83.8583 12.9625 84.5807 12.1503C85.8972 11.3537 87.2592 10.6256 88.6667 9.96598C89.0826 9.98591 89.355 9.80388 89.4839 9.41991C89.5746 9.41991 89.6656 9.41991 89.7563 9.41991C90.1031 9.26242 90.1031 9.08039 89.7563 8.87383C86.2922 7.83359 82.7509 7.28751 79.1326 7.23561C76.0929 6.91907 73.0058 6.87359 69.871 7.09909C67.6934 7.24645 65.6049 7.656 63.6058 8.32776C62.4036 8.42403 61.2233 8.65155 60.0645 9.01035C59.4489 9.16036 58.9951 9.47888 58.7025 9.96598C58.313 10.2493 57.8589 10.4313 57.3405 10.5121C55.9725 10.6978 54.7919 11.2439 53.7993 12.1503C52.9328 12.7214 52.1156 13.3585 51.3477 14.0615C50.9317 14.0416 50.6593 14.2236 50.5305 14.6076C49.9857 15.2447 49.4409 15.8818 48.8961 16.5189C48.533 16.5189 48.3513 16.7009 48.3513 17.065C47.9683 17.1941 47.7866 17.4672 47.8065 17.8841C47.542 18.4256 47.2696 18.9716 46.9893 19.5223C46.6934 19.5551 46.5117 19.7371 46.4445 20.0684C46.1516 21.6067 46.1061 23.154 46.3083 24.71C46.5033 25.3596 46.8212 25.9056 47.2617 26.3482C47.4278 26.5915 47.5185 26.8645 47.5341 27.1673C48.044 28.4078 48.8612 29.409 49.9857 30.1708C51.9344 31.7399 54.0229 33.1051 56.2509 34.2663C56.9995 34.962 57.9074 35.4628 58.9749 35.768C60.9329 36.4408 62.9307 36.9413 64.9678 37.2697C67.3036 37.7216 69.6645 37.9947 72.0502 38.0889C74.2294 38.0889 76.4086 38.0889 78.5878 38.0889C80.0269 38.1992 81.3889 38.0173 82.6739 37.5428C84.333 37.5106 85.9675 37.2831 87.5771 36.8602C88.1047 36.8269 88.4678 36.5994 88.6667 36.1776C88.7574 36.1776 88.8484 36.1776 88.9391 36.1776C89.0031 36.3406 89.1393 36.4315 89.3477 36.4506C90.7781 36.0818 92.0949 35.5357 93.2975 34.8124C93.7554 34.4007 94.3002 34.1276 94.9319 33.9933C95.8831 33.7448 96.7003 33.2899 97.3835 32.6281C98.7679 32.2068 99.8575 31.3877 100.652 30.1708C101.215 29.6992 101.669 29.1532 102.014 28.5325C102.397 28.4034 102.579 28.1304 102.559 27.7134C103.533 26.8891 103.987 25.797 103.921 24.437C104.284 23.7088 104.284 22.9809 103.921 22.2527C103.921 22.1618 103.921 22.0706 103.921 21.9796C104.328 20.7419 104.056 19.6497 103.104 18.7032C102.848 18.2801 102.666 17.825 102.559 17.338C102.541 16.9397 102.632 16.5756 102.832 16.2458C104.148 15.4492 105.51 14.7211 106.918 14.0615C107.334 14.0815 107.606 13.8994 107.735 13.5155C107.828 13.2866 108.009 13.1956 108.28 13.2424C109.24 13.0348 110.148 12.6708 111.004 12.1503C111.554 12.6116 112.098 13.0667 112.638 13.5155C112.91 13.6065 113.092 13.7885 113.183 14.0615C113.277 14.7982 113.64 15.3442 114.272 15.6998C114.592 15.9765 114.774 16.3406 114.817 16.7919C114.921 17.8381 115.284 18.7482 115.907 19.5223C115.907 19.7043 115.907 19.8863 115.907 20.0684C116.106 22.8812 115.743 25.6116 114.817 28.2595C114.774 28.7108 114.592 29.0748 114.272 29.3516C113.889 29.4808 113.708 29.7538 113.728 30.1708C113.345 30.2999 113.163 30.5729 113.183 30.9899C112.377 32.2529 111.378 33.3451 110.186 34.2663C109.77 34.2464 109.498 34.4285 109.369 34.8124C108.851 34.8774 108.487 35.1504 108.28 35.6315C107.864 35.6116 107.591 35.7937 107.462 36.1776C106.538 36.9205 105.539 37.5575 104.466 38.0889C101.643 39.1788 98.9188 40.3619 96.2939 41.6383C96.2032 41.6383 96.1122 41.6383 96.0215 41.6383C94.5083 42.04 92.9649 42.4039 91.3907 42.7305C87.5324 43.5821 83.6281 44.1282 79.6774 44.3687C75.8156 44.2789 72.002 44.3698 68.2366 44.6418C68.1459 44.6418 68.0549 44.6418 67.9642 44.6418C67.737 44.301 67.3739 44.1189 66.8746 44.0957C64.1105 43.8431 61.3865 43.388 58.7025 42.7305C58.4323 42.6835 58.2509 42.7747 58.1577 43.0035C58.067 43.0035 57.976 43.0035 57.8853 43.0035C57.5988 42.5241 57.1447 42.342 56.5233 42.4575C56.4326 42.4575 56.3416 42.4575 56.2509 42.4575C55.9022 42.0667 55.4481 41.8846 54.8889 41.9114C54.2174 41.8385 53.5816 41.6564 52.9821 41.3653C52.2169 40.7108 51.309 40.3469 50.2581 40.2732C49.7408 40.422 49.2867 40.2398 48.8961 39.7271C48.4371 39.0942 47.8013 38.8211 46.9893 38.908C46.539 38.8643 46.1759 38.6824 45.8997 38.3619C45.7708 37.978 45.4984 37.7959 45.0825 37.8158C44.0743 37.403 43.1664 36.8569 42.3584 36.1776C41.6625 35.1908 40.7545 34.4626 39.6344 33.9933C37.577 32.4965 36.124 30.6762 35.276 28.5325C35.2324 28.0812 35.051 27.7172 34.7312 27.4404C33.7841 24.3704 33.6933 21.276 34.4588 18.1571C34.8696 17.698 35.142 17.1519 35.276 16.5189C35.6609 15.6558 36.115 14.8366 36.638 14.0615C39.0825 11.8371 41.6251 9.74381 44.2652 7.78168C45.4456 6.91643 46.7169 6.18832 48.0789 5.59738C48.6381 5.62411 49.0922 5.4421 49.4409 5.05131C51.7004 4.47839 53.8797 3.75031 55.9785 2.86701C57.1983 2.42387 58.4693 2.05983 59.7921 1.77486C60.8842 1.67703 61.9738 1.54051 63.0609 1.3653C63.2124 1.26084 63.3031 1.12432 63.3333 0.955743C63.4241 0.955743 63.515 0.955743 63.6058 0.955743C63.7193 1.12609 63.901 1.21712 64.1506 1.22878C65.1416 1.04254 66.1404 0.906023 67.147 0.819224C67.3965 0.743211 67.5779 0.606692 67.6918 0.409668Z" fill="#DB2227"/>
<path opacity="0.145" fill-rule="evenodd" clip-rule="evenodd" d="M63.3332 0.955566C63.303 1.12414 63.2123 1.26066 63.0608 1.36512C61.9737 1.54033 60.884 1.67685 59.792 1.77468C60.9077 1.35882 62.0881 1.08578 63.3332 0.955566Z" fill="#CC9AAF"/>
<path opacity="0.024" fill-rule="evenodd" clip-rule="evenodd" d="M88.939 1.50152C89.6227 1.37961 90.1675 1.56164 90.5734 2.04759C89.9746 1.94518 89.4298 1.76314 88.939 1.50152Z" fill="#C2A1BB"/>
<path opacity="0.945" fill-rule="evenodd" clip-rule="evenodd" d="M91.1182 2.04785C91.8174 2.10833 92.4532 2.29036 93.025 2.59393C92.4728 2.63819 91.928 2.5927 91.3906 2.45741C91.2391 2.35294 91.1484 2.21642 91.1182 2.04785Z" fill="#E2696B"/>
<path opacity="0.533" fill-rule="evenodd" clip-rule="evenodd" d="M55.9786 2.8667C53.8797 3.75 51.7005 4.47808 49.4409 5.051C51.5044 4.05824 53.6836 3.33015 55.9786 2.8667Z" fill="#E46A6F"/>
<path opacity="0.533" fill-rule="evenodd" clip-rule="evenodd" d="M94.9319 3.14014C96.6793 3.42057 98.3137 3.96665 99.8351 4.77836C98.1203 4.38748 96.4859 3.84141 94.9319 3.14014Z" fill="#E4747A"/>
<path opacity="0.145" fill-rule="evenodd" clip-rule="evenodd" d="M49.4409 5.0514C49.0922 5.44219 48.6381 5.6242 48.0789 5.59747C48.4275 5.20667 48.8816 5.02467 49.4409 5.0514Z" fill="#D69CAD"/>
<path opacity="0.024" fill-rule="evenodd" clip-rule="evenodd" d="M99.8352 4.77832C100.87 4.87997 101.777 5.24404 102.559 5.87047C101.568 5.66201 100.661 5.29797 99.8352 4.77832Z" fill="#C493AD"/>
<path opacity="0.188" fill-rule="evenodd" clip-rule="evenodd" d="M79.1326 7.23526C76.7221 7.55665 74.316 7.55665 71.914 7.23526C69.1461 7.61724 66.3769 7.98131 63.6057 8.32741C65.6049 7.65566 67.6934 7.2461 69.8709 7.09874C73.0057 6.87324 76.0929 6.91873 79.1326 7.23526Z" fill="#DE8892"/>
<path opacity="0.533" fill-rule="evenodd" clip-rule="evenodd" d="M79.1326 7.23535C82.7509 7.28726 86.2921 7.83333 89.7562 8.87358C90.103 9.08013 90.103 9.26216 89.7562 9.41965C87.7563 8.68772 85.7585 8.14165 83.7634 7.78143C82.6615 7.57591 81.6174 7.57591 80.6308 7.78143C80.1001 7.61504 79.6006 7.43303 79.1326 7.23535Z" fill="#E3757B"/>
<path opacity="0.784" fill-rule="evenodd" clip-rule="evenodd" d="M63.6056 8.32764C63.4482 8.85829 63.1758 8.94929 62.7884 8.60067C61.4016 9.00335 60.0396 9.45839 58.7024 9.96586C58.995 9.47876 59.4488 9.16024 60.0644 9.01023C61.2232 8.65143 62.4035 8.42391 63.6056 8.32764Z" fill="#E26468"/>
<path opacity="0.533" fill-rule="evenodd" clip-rule="evenodd" d="M89.484 9.41993C89.3551 9.8039 89.0827 9.98594 88.6667 9.96601C88.7956 9.58203 89.068 9.4 89.484 9.41993Z" fill="#D68A99"/>
<path opacity="0.694" fill-rule="evenodd" clip-rule="evenodd" d="M44.2652 7.78174C41.6251 9.74387 39.0825 11.8372 36.6379 14.0616C38.15 12.1772 39.8754 10.4935 41.8136 9.01041C42.5608 8.45387 43.378 8.04432 44.2652 7.78174Z" fill="#E27176"/>
<path opacity="0.188" fill-rule="evenodd" clip-rule="evenodd" d="M57.3405 10.5117C56.2114 11.1224 55.0311 11.6684 53.7993 12.1499C54.7919 11.2435 55.9725 10.6974 57.3405 10.5117Z" fill="#E7797D"/>
<path fill-rule="evenodd" clip-rule="evenodd" d="M100.652 10.7852C99.2761 11.7923 97.7324 12.4294 96.0215 12.6964C97.3772 11.7014 98.9207 11.0643 100.652 10.7852Z" fill="#E45755"/>
<path opacity="0.694" fill-rule="evenodd" clip-rule="evenodd" d="M112.638 13.5154C112.098 13.0666 111.554 12.6115 111.004 12.1502C110.148 12.6707 109.24 13.0348 108.28 13.2423C109.229 12.4479 110.318 12.0383 111.548 12.0137C112.083 12.4098 112.446 12.9104 112.638 13.5154Z" fill="#E47075"/>
<path opacity="0.784" fill-rule="evenodd" clip-rule="evenodd" d="M84.5807 12.1504C83.8583 12.9626 82.9504 13.4176 81.8567 13.5156C82.6897 12.9161 83.5976 12.4611 84.5807 12.1504Z" fill="#E46C6E"/>
<path opacity="0.694" fill-rule="evenodd" clip-rule="evenodd" d="M107.735 13.5151C107.606 13.8991 107.333 14.0812 106.917 14.0612C107.046 13.6772 107.319 13.4952 107.735 13.5151Z" fill="#D78693"/>
<path opacity="0.024" fill-rule="evenodd" clip-rule="evenodd" d="M51.3477 14.0615C51.2189 14.4455 50.9465 14.6275 50.5305 14.6076C50.6594 14.2236 50.9318 14.0416 51.3477 14.0615Z" fill="#C7A4BC"/>
<path opacity="0.024" fill-rule="evenodd" clip-rule="evenodd" d="M93.5698 14.0615C93.3555 14.4995 92.9923 14.6816 92.4802 14.6076C92.7564 14.2871 93.1196 14.1051 93.5698 14.0615Z" fill="#BB94B1"/>
<path opacity="0.192" fill-rule="evenodd" clip-rule="evenodd" d="M92.4802 14.6074C92.2659 15.0454 91.9027 15.2275 91.3906 15.1535C91.6668 14.833 92.03 14.651 92.4802 14.6074Z" fill="#C99FB6"/>
<path opacity="0.784" fill-rule="evenodd" clip-rule="evenodd" d="M113.183 14.0615C113.68 14.5114 114.044 15.0574 114.272 15.6997C113.64 15.3442 113.277 14.7982 113.183 14.0615Z" fill="#E57C81"/>
<path opacity="0.694" fill-rule="evenodd" clip-rule="evenodd" d="M89.2114 16.2456C88.7347 16.5113 88.3261 16.8754 87.9856 17.3378C87.8949 17.2468 87.8039 17.1557 87.7132 17.0647C87.41 17.2845 87.0924 17.4665 86.7598 17.6108C86.7598 17.3378 86.7598 17.0647 86.7598 16.7917C87.5971 16.6899 88.4143 16.5079 89.2114 16.2456Z" fill="#E35C5E"/>
<path opacity="0.463" fill-rule="evenodd" clip-rule="evenodd" d="M76.9534 16.2455C76.6772 16.566 76.314 16.748 75.8638 16.7916C76.0781 16.3536 76.4413 16.1716 76.9534 16.2455Z" fill="#E28189"/>
<path opacity="0.875" fill-rule="evenodd" clip-rule="evenodd" d="M102.831 16.2456C102.632 16.5754 102.541 16.9395 102.559 17.3378C102.122 17.1229 101.94 16.7588 102.014 16.2456C102.287 16.2456 102.559 16.2456 102.831 16.2456Z" fill="#E56A6D"/>
<path opacity="0.145" fill-rule="evenodd" clip-rule="evenodd" d="M48.8961 16.5186C48.8054 16.7916 48.6237 16.9736 48.3513 17.0646C48.3513 16.7006 48.533 16.5186 48.8961 16.5186Z" fill="#DD9FAC"/>
<path opacity="0.063" fill-rule="evenodd" clip-rule="evenodd" d="M35.276 16.5186C35.142 17.1516 34.8696 17.6977 34.4588 18.1568C34.4482 17.4499 34.7206 16.9038 35.276 16.5186Z" fill="#D3A5B7"/>
<path opacity="0.365" fill-rule="evenodd" clip-rule="evenodd" d="M75.8637 16.7916C75.515 17.1824 75.0609 17.3644 74.5017 17.3377C74.8504 16.9469 75.3045 16.7649 75.8637 16.7916Z" fill="#D792A1"/>
<path opacity="0.024" fill-rule="evenodd" clip-rule="evenodd" d="M48.3512 17.0649C48.3711 17.4818 48.1894 17.7549 47.8064 17.8841C47.7865 17.4672 47.9682 17.1941 48.3512 17.0649Z" fill="#D2A6B9"/>
<path opacity="0.263" fill-rule="evenodd" clip-rule="evenodd" d="M74.5017 17.3379C74.2941 17.8191 73.9308 18.0921 73.4121 18.157C73.6197 17.6758 73.9831 17.4028 74.5017 17.3379Z" fill="#CA8A9F"/>
<path opacity="0.145" fill-rule="evenodd" clip-rule="evenodd" d="M86.2152 17.8838C85.715 18.4539 85.0795 18.8179 84.3083 18.9759C84.8085 18.4058 85.444 18.0418 86.2152 17.8838Z" fill="#D6A1B1"/>
<path opacity="0.463" fill-rule="evenodd" clip-rule="evenodd" d="M114.817 16.792C115.335 17.616 115.698 18.5261 115.907 19.5224C115.284 18.7483 114.921 17.8382 114.817 16.792Z" fill="#E4747A"/>
<path opacity="0.984" fill-rule="evenodd" clip-rule="evenodd" d="M72.8675 18.4302C72.5071 19.0271 71.9623 19.4367 71.233 19.6588C70.3456 20.0593 69.4374 20.3778 68.509 20.6145C69.8754 19.7477 71.3281 19.0196 72.8675 18.4302Z" fill="#E36162"/>
<path opacity="0.533" fill-rule="evenodd" clip-rule="evenodd" d="M84.3083 18.9761C82.906 19.7807 81.3626 20.5999 79.6775 21.4334C80.9978 20.2702 82.5415 19.4511 84.3083 18.9761Z" fill="#DF7F88"/>
<path opacity="0.114" fill-rule="evenodd" clip-rule="evenodd" d="M103.104 18.7031C104.056 19.6497 104.328 20.7418 103.921 21.9796C103.786 20.8474 103.514 19.7553 103.104 18.7031Z" fill="#D39EAF"/>
<path opacity="0.145" fill-rule="evenodd" clip-rule="evenodd" d="M68.509 20.6143C67.8841 21.2021 67.1579 21.6573 66.3298 21.9794C66.2391 21.9794 66.1481 21.9794 66.0574 21.9794C66.7406 21.3176 67.5578 20.8626 68.509 20.6143Z" fill="#D39AAC"/>
<path opacity="0.784" fill-rule="evenodd" clip-rule="evenodd" d="M115.907 20.0684C116.221 21.6572 116.266 23.2954 116.043 24.983C115.879 26.1986 115.471 27.2907 114.817 28.2595C115.743 25.6116 116.106 22.8812 115.907 20.0684Z" fill="#E5676A"/>
<path opacity="0.365" fill-rule="evenodd" clip-rule="evenodd" d="M34.4587 18.1572C33.6933 21.2761 33.784 24.3705 34.7311 27.4405C33.9027 25.9871 33.5396 24.3945 33.6415 22.6623C33.5532 21.0592 33.8256 19.5575 34.4587 18.1572Z" fill="#E48B93"/>
<path fill-rule="evenodd" clip-rule="evenodd" d="M66.0574 21.9795C66.1481 21.9795 66.2391 21.9795 66.3298 21.9795C66.1806 22.3039 66.0899 22.6225 66.0574 22.9351C66.4502 23.0381 66.7226 23.2655 66.8746 23.6177C66.7066 23.648 66.5704 23.7389 66.466 23.8908C66.0514 23.4752 65.6428 23.0656 65.2402 22.6621C65.4118 22.3044 65.6842 22.0767 66.0574 21.9795Z" fill="#E35C5A"/>
<path opacity="0.114" fill-rule="evenodd" clip-rule="evenodd" d="M77.4983 22.5258C77.2221 22.8463 76.859 23.0282 76.4087 23.0719C76.6231 22.6339 76.9862 22.4518 77.4983 22.5258Z" fill="#D495A5"/>
<path opacity="0.694" fill-rule="evenodd" clip-rule="evenodd" d="M46.9893 19.522C46.2293 21.8275 46.3203 24.103 47.2617 26.3479C46.8213 25.9053 46.5034 25.3592 46.3083 24.7097C46.1062 23.1536 46.1517 21.6063 46.4445 20.068C46.5118 19.7368 46.6935 19.5547 46.9893 19.522Z" fill="#E36569"/>
<path opacity="0.145" fill-rule="evenodd" clip-rule="evenodd" d="M103.921 22.2524C104.284 22.9806 104.284 23.7086 103.921 24.4367C103.794 23.7555 103.794 23.0276 103.921 22.2524Z" fill="#DC9CA9"/>
<path opacity="0.365" fill-rule="evenodd" clip-rule="evenodd" d="M76.4087 23.0718C75.2812 23.774 74.1006 24.411 72.8674 24.983C73.8227 24.0023 75.0033 23.3653 76.4087 23.0718Z" fill="#E58288"/>
<path opacity="0.345" fill-rule="evenodd" clip-rule="evenodd" d="M66.8745 23.6177C67.8138 23.8607 68.631 24.3158 69.3261 24.9829C68.3041 24.8627 67.4869 24.4076 66.8745 23.6177Z" fill="#DC6D76"/>
<path opacity="0.945" fill-rule="evenodd" clip-rule="evenodd" d="M103.921 24.437C103.987 25.797 103.533 26.8892 102.559 27.7135C103.025 26.6 103.48 25.5079 103.921 24.437Z" fill="#E77273"/>
<path opacity="0.063" fill-rule="evenodd" clip-rule="evenodd" d="M34.7311 27.4404C35.0509 27.7173 35.2323 28.0812 35.2759 28.5326C34.839 28.3177 34.6573 27.9537 34.7311 27.4404Z" fill="#D4A5B7"/>
<path opacity="0.365" fill-rule="evenodd" clip-rule="evenodd" d="M102.559 27.7134C102.579 28.1303 102.397 28.4033 102.014 28.5325C101.995 28.1156 102.176 27.8425 102.559 27.7134Z" fill="#D58393"/>
<path opacity="0.62" fill-rule="evenodd" clip-rule="evenodd" d="M47.5339 27.167C48.4522 28.0874 49.2694 29.0884 49.9855 30.1704C48.8611 29.4086 48.0439 28.4074 47.5339 27.167Z" fill="#DC8A95"/>
<path opacity="0.62" fill-rule="evenodd" clip-rule="evenodd" d="M102.014 28.5322C101.669 29.1528 101.215 29.6989 100.652 30.1705C100.808 29.3767 101.262 28.8307 102.014 28.5322Z" fill="#DF858E"/>
<path opacity="0.145" fill-rule="evenodd" clip-rule="evenodd" d="M114.272 29.3516C114.292 29.7685 114.111 30.0415 113.728 30.1707C113.708 29.7537 113.889 29.4807 114.272 29.3516Z" fill="#E6A4AB"/>
<path opacity="0.063" fill-rule="evenodd" clip-rule="evenodd" d="M113.728 30.1704C113.748 30.5873 113.566 30.8604 113.183 30.9895C113.163 30.5726 113.345 30.2996 113.728 30.1704Z" fill="#D098AB"/>
<path opacity="0.784" fill-rule="evenodd" clip-rule="evenodd" d="M100.652 30.1704C99.8575 31.3873 98.7679 32.2065 97.3835 32.6277C98.4707 31.8095 99.5603 30.9903 100.652 30.1704Z" fill="#E46F74"/>
<path opacity="0.145" fill-rule="evenodd" clip-rule="evenodd" d="M97.3835 32.6279C96.7003 33.2898 95.8831 33.7447 94.9319 33.9931C95.6151 33.3313 96.4323 32.8764 97.3835 32.6279Z" fill="#DD939F"/>
<path opacity="0.024" fill-rule="evenodd" clip-rule="evenodd" d="M110.186 34.2661C110.057 34.65 109.785 34.8321 109.369 34.8122C109.498 34.4283 109.77 34.2462 110.186 34.2661Z" fill="#C99EB5"/>
<path opacity="0.784" fill-rule="evenodd" clip-rule="evenodd" d="M39.6345 33.9932C40.7546 34.4625 41.6625 35.1907 42.3585 36.1775C42.0635 36.1668 41.7911 36.0756 41.5413 35.9044C40.844 35.3278 40.2082 34.6908 39.6345 33.9932Z" fill="#DF7B82"/>
<path opacity="0.114" fill-rule="evenodd" clip-rule="evenodd" d="M109.369 34.8125C109.162 35.2936 108.798 35.5666 108.28 35.6316C108.487 35.1505 108.85 34.8775 109.369 34.8125Z" fill="#D18FA0"/>
<path opacity="0.62" fill-rule="evenodd" clip-rule="evenodd" d="M56.251 34.2661C59.072 35.4514 61.9774 36.3614 64.9678 36.9965C64.9678 37.0874 64.9678 37.1786 64.9678 37.2695C62.9308 36.9411 60.933 36.4406 58.975 35.7678C57.9074 35.4626 56.9995 34.9618 56.251 34.2661Z" fill="#E37277"/>
<path opacity="0.463" fill-rule="evenodd" clip-rule="evenodd" d="M93.2974 34.8125C92.0947 35.5358 90.7779 36.0819 89.3476 36.4507C89.1392 36.4316 89.003 36.3407 88.939 36.1777C90.3917 35.7225 91.8447 35.2677 93.2974 34.8125Z" fill="#E46C72"/>
<path opacity="0.063" fill-rule="evenodd" clip-rule="evenodd" d="M108.28 35.6314C108.151 36.0152 107.878 36.1974 107.462 36.1774C107.591 35.7935 107.864 35.6114 108.28 35.6314Z" fill="#E49CA4"/>
<path opacity="0.463" fill-rule="evenodd" clip-rule="evenodd" d="M88.6667 36.1772C88.4678 36.5991 88.1047 36.8265 87.5771 36.8598C85.9674 37.2828 84.333 37.5102 82.6738 37.5424C84.6613 37.1615 86.6588 36.7064 88.6667 36.1772Z" fill="#D58A9A"/>
<path opacity="0.145" fill-rule="evenodd" clip-rule="evenodd" d="M64.9678 37.2696C64.9678 37.1787 64.9678 37.0875 64.9678 36.9966C67.378 37.2748 69.7386 37.6388 72.0502 38.0887C69.6645 37.9945 67.3036 37.7215 64.9678 37.2696Z" fill="#C79CB4"/>
<path opacity="0.533" fill-rule="evenodd" clip-rule="evenodd" d="M82.6739 37.5425C81.389 38.017 80.027 38.1989 78.5879 38.0886C79.8818 37.6705 81.2438 37.4884 82.6739 37.5425Z" fill="#DC95A1"/>
<path opacity="0.145" fill-rule="evenodd" clip-rule="evenodd" d="M45.0825 37.8159C45.4985 37.796 45.7709 37.9781 45.8997 38.362C45.4838 38.3819 45.2114 38.1998 45.0825 37.8159Z" fill="#DD9FAB"/>
<path opacity="0.984" fill-rule="evenodd" clip-rule="evenodd" d="M46.9893 38.9078C47.8013 38.821 48.4371 39.094 48.8961 39.7269C48.4327 39.5997 48.0241 39.5997 47.6703 39.7269C47.4801 39.4017 47.2532 39.1287 46.9893 38.9078Z" fill="#E27C81"/>
<path opacity="0.188" fill-rule="evenodd" clip-rule="evenodd" d="M104.466 38.0889C103.541 38.7581 102.588 39.3951 101.606 40.0001C101.062 39.7896 100.607 39.9715 100.244 40.5462C100.153 40.4553 100.062 40.3641 99.9714 40.2732C98.7829 40.8326 97.5571 41.2875 96.2939 41.6384C98.9188 40.3619 101.643 39.1788 104.466 38.0889Z" fill="#E17D84"/>
<path opacity="0.345" fill-rule="evenodd" clip-rule="evenodd" d="M50.2581 40.2729C51.309 40.3467 52.2169 40.7106 52.9821 41.3651C51.9881 41.1557 51.0802 40.7917 50.2581 40.2729Z" fill="#E1666B"/>
<path opacity="0.063" fill-rule="evenodd" clip-rule="evenodd" d="M54.8889 41.9113C55.4482 41.8845 55.9022 42.0666 56.2509 42.4573C55.6917 42.4841 55.2376 42.302 54.8889 41.9113Z" fill="#DAA9B8"/>
<path opacity="0.62" fill-rule="evenodd" clip-rule="evenodd" d="M56.5232 42.4574C57.1445 42.342 57.5986 42.5241 57.8852 43.0035C57.3668 42.9227 56.9127 42.7406 56.5232 42.4574Z" fill="#D18597"/>
<path opacity="0.114" fill-rule="evenodd" clip-rule="evenodd" d="M96.0214 41.6382C95.3121 41.713 94.6311 42.077 93.9784 42.7303C93.2353 42.5976 92.5088 42.7795 91.7992 43.2764C91.6949 43.1246 91.5587 43.0337 91.3906 43.0034C91.3906 42.9124 91.3906 42.8213 91.3906 42.7303C92.9648 42.4038 94.5083 42.0398 96.0214 41.6382Z" fill="#D291A2"/>
<path opacity="0.114" fill-rule="evenodd" clip-rule="evenodd" d="M58.1577 43.0033C58.2509 42.7745 58.4323 42.6833 58.7025 42.7302C58.7932 42.9124 58.8842 43.0942 58.9749 43.2763C58.6728 43.2607 58.4004 43.1698 58.1577 43.0033Z" fill="#BF97B3"/>
<path opacity="0.188" fill-rule="evenodd" clip-rule="evenodd" d="M91.3908 42.7305C91.3908 42.8214 91.3908 42.9126 91.3908 43.0035C90.7043 43.1914 90.0233 43.4644 89.3477 43.8226C88.5589 43.8084 87.7872 43.8084 87.0323 43.8226C86.7302 43.8382 86.4578 43.9291 86.2151 44.0957C84.2808 44.2559 82.2833 44.529 80.2223 44.9148C80.0362 44.8157 79.8546 44.7247 79.6775 44.6417C79.6775 44.5508 79.6775 44.4596 79.6775 44.3687C83.6281 44.1281 87.5325 43.5821 91.3908 42.7305Z" fill="#E4767C"/>
<path opacity="0.345" fill-rule="evenodd" clip-rule="evenodd" d="M58.7024 42.7305C61.3864 43.3879 64.1104 43.8431 66.8744 44.0957C67.3737 44.1189 67.7369 44.301 67.964 44.6417C66.2441 44.603 64.5187 44.3299 62.7884 43.8226C62.6067 43.9135 62.4253 44.0047 62.2436 44.0957C61.2077 43.6148 60.1181 43.3418 58.9748 43.2765C58.8841 43.0944 58.7931 42.9126 58.7024 42.7305Z" fill="#DC7C86"/>
<path opacity="0.024" fill-rule="evenodd" clip-rule="evenodd" d="M87.0323 43.8228C86.8359 44.3366 86.5635 44.4275 86.2151 44.0958C86.4578 43.9292 86.7302 43.8383 87.0323 43.8228Z" fill="#B3A1C2"/>
<path opacity="0.875" fill-rule="evenodd" clip-rule="evenodd" d="M68.2366 44.6415C72.002 44.3695 75.8156 44.2786 79.6774 44.3684C79.6774 44.4594 79.6774 44.5506 79.6774 44.6415C79.3143 44.6415 78.9509 44.6415 78.5878 44.6415C76.2269 44.6415 73.8663 44.6415 71.5054 44.6415C70.3316 44.6549 69.242 44.6549 68.2366 44.6415Z" fill="#E14E53"/>
<path opacity="0.188" fill-rule="evenodd" clip-rule="evenodd" d="M71.5054 44.6416C73.8663 44.6416 76.2269 44.6416 78.5878 44.6416C78.0278 44.8371 77.4375 45.0192 76.8172 45.1877C75.6369 44.8237 74.4563 44.8237 73.276 45.1877C72.6557 45.0192 72.0654 44.8371 71.5054 44.6416Z" fill="#DE8993"/>
<path opacity="0.024" fill-rule="evenodd" clip-rule="evenodd" d="M90.0288 57.2013C89.9381 57.2013 89.8471 57.2013 89.7564 57.2013C84.1702 57.2915 78.6315 57.2005 73.1399 56.9283C76.3602 56.7773 79.5835 56.6861 82.8101 56.6553C85.3143 56.6558 87.7205 56.8377 90.0288 57.2013Z" fill="#A29AC4"/>
<path opacity="0.024" fill-rule="evenodd" clip-rule="evenodd" d="M95.4768 57.2015C103.149 56.8836 110.867 56.8383 118.631 57.0649C118.782 57.1695 118.873 57.306 118.903 57.4745C118.722 57.4745 118.54 57.4745 118.359 57.4745C110.778 57.202 103.151 57.1111 95.4768 57.2015Z" fill="#B3A2C4"/>
<path opacity="0.376" fill-rule="evenodd" clip-rule="evenodd" d="M0.680908 57.4743C8.2614 57.2018 15.8886 57.1109 23.5626 57.2013C23.7307 57.2316 23.8669 57.3225 23.9712 57.4743C24.1902 58.908 24.1448 60.3188 23.835 61.7064C18.751 61.8429 13.6662 61.8885 8.58055 61.8429C8.58055 63.026 8.58055 64.2093 8.58055 65.3924C8.31194 64.1719 8.22112 62.8976 8.30815 61.5699C13.393 61.5699 18.4778 61.5699 23.5626 61.5699C23.5626 60.2047 23.5626 58.8395 23.5626 57.4743C15.9354 57.4743 8.30815 57.4743 0.680908 57.4743Z" fill="#9196C6"/>
<path opacity="0.376" fill-rule="evenodd" clip-rule="evenodd" d="M37.4553 58.5665C36.8985 58.4215 36.4444 58.1029 36.0932 57.6109C33.5526 57.4744 31.01 57.429 28.466 57.4744C28.3753 57.4744 28.2843 57.4744 28.1936 57.4744C28.2238 57.3059 28.3145 57.1694 28.466 57.0648C30.9176 56.8827 33.3692 56.8827 35.8208 57.0648C36.5008 57.4282 37.0456 57.9287 37.4553 58.5665Z" fill="#9796C4"/>
<path fill-rule="evenodd" clip-rule="evenodd" d="M72.8674 56.9282C72.9581 56.9282 73.0491 56.9282 73.1398 56.9282C78.6314 57.2004 84.1701 57.2914 89.7563 57.2013C89.7563 58.4755 89.7563 59.7495 89.7563 61.0238C85.0778 60.9337 80.447 61.0246 75.8638 61.2968C75.4097 61.2968 74.9559 61.2968 74.5018 61.2968C73.8597 61.2523 73.2242 61.2976 72.595 61.4333C72.4435 61.5379 72.3528 61.6744 72.3226 61.8429C72.0799 62.0095 71.8075 62.1004 71.5054 62.1159C70.8001 62.1053 70.2553 62.3783 69.871 62.935C69.3523 63 68.9889 63.2731 68.7814 63.7542C68.3984 63.8833 68.2167 64.1563 68.2366 64.5733C68.1458 64.7554 68.0549 64.9372 67.9642 65.1193C67.5648 65.3506 67.3376 65.7146 67.2832 66.2115C67.2377 66.7576 67.1924 67.3036 67.147 67.8497C67.1042 68.7546 67.2856 69.5737 67.6918 70.3071C67.92 70.4004 68.011 70.5823 67.9642 70.8531C67.9443 71.2701 68.126 71.5431 68.509 71.6723C69.1763 73.0126 70.2659 73.8317 71.7778 74.1296C71.8105 74.4261 71.9922 74.6082 72.3226 74.6757C76.0834 75.7517 79.806 75.7517 83.491 74.6757C83.491 73.2196 83.491 71.7632 83.491 70.3071C80.0405 70.3071 76.5903 70.3071 73.1398 70.3071C73.1398 69.124 73.1398 67.9406 73.1398 66.7576C78.5878 66.7576 84.0358 66.7576 89.4839 66.7576C89.4839 70.398 89.4839 74.0387 89.4839 77.6791C89.2294 77.9707 89.1385 78.3346 89.2115 78.7712C87.7963 78.6836 86.4343 78.7748 85.1254 79.0443C83.2186 79.0443 81.3118 79.0443 79.405 79.0443C77.1193 79.2146 74.8494 79.2146 72.595 79.0443C71.4209 78.8859 70.2406 78.7947 69.0538 78.7712C68.6174 78.3415 68.0726 78.1593 67.4194 78.2252C66.6062 77.9996 65.88 77.6357 65.2401 77.133C64.9244 76.6552 64.4703 76.3821 63.8781 76.3139C62.3502 74.7898 61.1696 73.0604 60.3369 71.1262C60.3372 68.9372 60.4279 66.7529 60.6093 64.5733C60.7921 64.2055 60.7921 63.8869 60.6093 63.6176C60.9337 63.4271 61.2061 63.1996 61.4265 62.935C62.2358 62.0318 63.053 61.1218 63.8781 60.2047C64.9898 59.2834 66.2608 58.6464 67.6918 58.2934C68.2101 58.2126 68.6642 58.0305 69.0538 57.7473C70.4343 57.817 71.7053 57.5439 72.8674 56.9282Z" fill="#2A3D9B"/>
<path opacity="0.192" fill-rule="evenodd" clip-rule="evenodd" d="M23.5626 57.2015C15.8887 57.1111 8.26142 57.202 0.680923 57.4745C0.409121 64.6174 0.318303 71.8076 0.408522 79.0445C0.0457922 71.7445 0.0457922 64.4181 0.408522 57.0649C8.17278 56.8383 15.8908 56.8836 23.5626 57.2015Z" fill="#A8A1C7"/>
<path opacity="0.698" fill-rule="evenodd" clip-rule="evenodd" d="M28.1935 57.4746C28.2843 57.4746 28.3752 57.4746 28.4659 57.4746C28.4659 64.4827 28.4659 71.4904 28.4659 78.4985C28.4659 78.6806 28.4659 78.8625 28.4659 79.0446C28.257 78.8611 28.0753 78.6337 27.9211 78.362C27.9849 71.367 28.0759 64.4046 28.1935 57.4746Z" fill="#7D7EB9"/>
<path fill-rule="evenodd" clip-rule="evenodd" d="M28.4661 57.4745C31.01 57.4292 33.5526 57.4745 36.0933 57.611C36.4444 58.103 36.8985 58.4217 37.4553 58.5667C37.7277 58.6576 37.9094 58.8397 38.0001 59.1127C38.2831 59.6673 38.737 60.0312 39.3621 60.2049C39.9761 60.3753 40.4302 60.7392 40.7241 61.297C40.9317 61.7781 41.2951 62.0512 41.8137 62.1161C42.638 62.852 43.4552 63.5802 44.2653 64.3004C44.3942 64.6843 44.6666 64.8665 45.0826 64.8465C45.355 64.9374 45.5366 65.1196 45.6274 65.3926C45.809 65.7566 46.0814 66.0296 46.4446 66.2117C47.4326 66.8381 48.3407 67.566 49.1686 68.396C49.4641 68.9658 49.9179 69.3298 50.5306 69.4882C51.0563 69.5622 51.4197 69.8352 51.6202 70.3073C51.7076 70.7299 51.98 70.9121 52.4374 70.8533C52.4374 66.3938 52.4374 61.934 52.4374 57.4745C53.8901 57.4745 55.3431 57.4745 56.7958 57.4745C56.7958 64.4826 56.7958 71.4903 56.7958 78.4984C53.7087 78.4984 50.6213 78.4984 47.5342 78.4984C47.0801 78.2254 46.717 77.8614 46.4446 77.4062C45.9709 76.6573 45.3351 76.1112 44.5377 75.768C44.2422 75.1982 43.7884 74.8342 43.1757 74.6759C42.994 74.3119 42.7216 74.0389 42.3585 73.8568C41.9742 73.1976 41.4294 72.7425 40.7241 72.4916C40.0764 72.1661 39.5316 71.711 39.0897 71.1264C38.2554 70.0162 37.2567 69.1062 36.0933 68.396C35.3951 68.3329 34.941 67.9687 34.7313 67.3039C34.3164 66.5219 33.6806 66.0667 32.8245 65.9387C32.8245 70.1252 32.8245 74.3119 32.8245 78.4984C31.3718 78.4984 29.9188 78.4984 28.4661 78.4984C28.4661 71.4903 28.4661 64.4826 28.4661 57.4745Z" fill="#2A3D9B"/>
<path opacity="0.51" fill-rule="evenodd" clip-rule="evenodd" d="M52.1649 57.4746C52.2556 57.4746 52.3466 57.4746 52.4373 57.4746C52.4373 61.9341 52.4373 66.3939 52.4373 70.8534C51.98 70.9122 51.7076 70.73 51.6201 70.3074C51.7882 70.3377 51.9244 70.4286 52.0287 70.5804C52.1649 66.2126 52.2104 61.844 52.1649 57.4746Z" fill="#6975B8"/>
<path opacity="0.376" fill-rule="evenodd" clip-rule="evenodd" d="M56.7956 79.0445C56.7956 78.8624 56.7956 78.6805 56.7956 78.4984C56.7956 71.4904 56.7956 64.4826 56.7956 57.4745C55.3429 57.4745 53.8899 57.4745 52.4372 57.4745C52.3465 57.4745 52.2555 57.4745 52.1648 57.4745C52.195 57.3061 52.2857 57.1695 52.4372 57.065C53.9583 56.8449 55.4565 56.8905 56.9318 57.2015C57.1579 64.5287 57.1127 71.8098 56.7956 79.0445Z" fill="#8B93C5"/>
<path opacity="0.604" fill-rule="evenodd" clip-rule="evenodd" d="M72.8673 56.9282C71.7053 57.5439 70.4342 57.817 69.0537 57.7473C70.2553 57.3023 71.5266 57.0292 72.8673 56.9282Z" fill="#8282BA"/>
<path opacity="0.071" fill-rule="evenodd" clip-rule="evenodd" d="M118.358 57.4746C118.54 57.4746 118.722 57.4746 118.903 57.4746C118.903 58.7489 118.903 60.0229 118.903 61.2971C118.722 61.3881 118.54 61.4793 118.358 61.5702C118.358 60.205 118.358 58.8398 118.358 57.4746Z" fill="#7472B0"/>
<path fill-rule="evenodd" clip-rule="evenodd" d="M0.680908 57.4746C8.30815 57.4746 15.9354 57.4746 23.5626 57.4746C23.5626 58.8398 23.5626 60.205 23.5626 61.5702C18.4778 61.5702 13.393 61.5702 8.30815 61.5702C7.94741 62.9537 7.94741 64.3644 8.30815 65.8023C13.1197 65.9388 17.9321 65.9844 22.7454 65.9388C22.7454 67.304 22.7454 68.6691 22.7454 70.0343C17.933 70.0343 13.1206 70.0343 8.30815 70.0343C8.30815 71.4904 8.30815 72.9468 8.30815 74.4029C13.4364 74.6752 18.612 74.7661 23.835 74.676C23.835 75.9502 23.835 77.2242 23.835 78.4985C16.117 78.4985 8.39894 78.4985 0.680908 78.4985C0.680908 71.4904 0.680908 64.4827 0.680908 57.4746Z" fill="#293D9B"/>
<path opacity="0.024" fill-rule="evenodd" clip-rule="evenodd" d="M69.0537 57.7475C68.6641 58.0306 68.21 58.2127 67.6917 58.2936C68.0008 57.8258 68.4549 57.6437 69.0537 57.7475Z" fill="#AA9CC2"/>
<path opacity="0.376" fill-rule="evenodd" clip-rule="evenodd" d="M95.4767 57.2013C103.151 57.1109 110.778 57.2018 118.358 57.4743C110.731 57.4743 103.104 57.4743 95.4767 57.4743C95.4767 64.4824 95.4767 71.4901 95.4767 78.4982C95.4767 78.6803 95.4767 78.8622 95.4767 79.0443C95.2754 79.08 95.0937 79.0344 94.9319 78.9077C95.1122 71.6455 95.2939 64.41 95.4767 57.2013Z" fill="#8791C5"/>
<path fill-rule="evenodd" clip-rule="evenodd" d="M118.359 57.4746C118.359 58.8398 118.359 60.205 118.359 61.5702C113.317 61.4801 108.323 61.571 103.376 61.8432C103.108 63.1552 103.017 64.5203 103.104 65.9388C107.917 65.9388 112.729 65.9388 117.541 65.9388C117.541 67.304 117.541 68.6691 117.541 70.0343C112.729 70.0343 107.917 70.0343 103.104 70.0343C103.017 71.5431 103.107 72.9995 103.376 74.4029C108.414 74.6752 113.499 74.7661 118.631 74.676C118.631 75.9502 118.631 77.2242 118.631 78.4985C110.913 78.4985 103.195 78.4985 95.4768 78.4985C95.4768 71.4904 95.4768 64.4827 95.4768 57.4746C103.104 57.4746 110.731 57.4746 118.359 57.4746Z" fill="#293D9B"/>
<path fill-rule="evenodd" clip-rule="evenodd" d="M131.434 58.2935C133.825 59.8564 136.004 61.6767 137.971 63.7543C138.179 64.2354 138.542 64.5084 139.061 64.5734C139.357 65.1432 139.81 65.5072 140.423 65.6655C141.065 66.2195 141.701 66.7656 142.33 67.3038C142.702 67.9481 143.246 68.4033 143.964 68.669C144.247 69.2235 144.701 69.5875 145.326 69.7611C145.78 70.0341 146.143 70.3981 146.416 70.8533C146.609 71.1001 146.881 71.191 147.233 71.1263C147.233 66.6668 147.233 62.207 147.233 57.7475C148.595 57.7475 149.957 57.7475 151.319 57.7475C151.319 64.7555 151.319 71.7633 151.319 78.7713C148.323 78.7713 145.326 78.7713 142.33 78.7713C141.945 78.1122 141.401 77.6571 140.695 77.4062C140.332 77.224 140.06 76.951 139.878 76.587C139.408 76.0227 138.863 75.5678 138.244 75.2219C137.859 74.5627 137.315 74.1076 136.609 73.8567C135.785 73.1208 134.968 72.3926 134.158 71.6724C133.594 70.8333 132.868 70.1963 131.979 69.7611C131.016 69.2276 130.199 68.4994 129.527 67.5768C129.231 67.007 128.778 66.643 128.165 66.4847C128.078 66.062 127.805 65.8799 127.348 65.9386C127.348 70.2163 127.348 74.4937 127.348 78.7713C125.986 78.7713 124.624 78.7713 123.262 78.7713C123.262 71.7633 123.262 64.7555 123.262 57.7475C125.715 57.7021 128.167 57.7475 130.617 57.884C130.896 58.024 131.169 58.1606 131.434 58.2935Z" fill="#2A3D9B"/>
<path opacity="0.698" fill-rule="evenodd" clip-rule="evenodd" d="M151.591 57.2012C151.682 64.438 151.591 71.6282 151.319 78.7711C151.319 71.7631 151.319 64.7553 151.319 57.7472C149.957 57.7472 148.595 57.7472 147.233 57.7472C147.233 62.2068 147.233 66.6666 147.233 71.1261C146.881 71.1908 146.609 71.0999 146.416 70.853C146.687 66.3501 146.778 61.7997 146.688 57.2012C148.323 57.2012 149.957 57.2012 151.591 57.2012Z" fill="#6771B5"/>
<path opacity="0.376" fill-rule="evenodd" clip-rule="evenodd" d="M151.591 57.2012C151.909 64.4358 151.954 71.7169 151.728 79.0442C148.707 79.359 145.665 79.4046 142.602 79.1807C142.451 79.0761 142.36 78.9396 142.33 78.7711C145.326 78.7711 148.323 78.7711 151.319 78.7711C151.591 71.6282 151.682 64.438 151.591 57.2012Z" fill="#8F94C5"/>
<path opacity="0.604" fill-rule="evenodd" clip-rule="evenodd" d="M131.434 58.2937C131.169 58.1607 130.896 58.0242 130.616 57.8842C128.166 57.7476 125.715 57.7023 123.262 57.7476C123.262 64.7557 123.262 71.7635 123.262 78.7715C124.624 78.7715 125.986 78.7715 127.348 78.7715C127.348 74.4938 127.348 70.2164 127.348 65.9388C127.805 65.8801 128.077 66.0622 128.165 66.4848C127.963 66.4491 127.782 66.4947 127.62 66.6214C127.935 70.6511 127.98 74.7011 127.756 78.7715C127.014 79.1199 126.197 79.3018 125.305 79.3176C124.464 79.3116 123.647 79.2207 122.853 79.0446C122.717 71.764 122.671 64.4832 122.717 57.2016C125.351 57.1562 127.985 57.2016 130.616 57.3381C131.141 57.4533 131.413 57.7719 131.434 58.2937Z" fill="#6C72B5"/>
<path opacity="0.698" fill-rule="evenodd" clip-rule="evenodd" d="M38 59.1128C38.614 59.2832 39.0681 59.6471 39.362 60.2049C38.7368 60.0313 38.283 59.6673 38 59.1128Z" fill="#767AB8"/>
<path opacity="0.604" fill-rule="evenodd" clip-rule="evenodd" d="M89.7562 57.2012C89.847 57.2012 89.9379 57.2012 90.0286 57.2012C90.3893 58.4937 90.3893 59.8133 90.0286 61.1602C88.4711 61.2178 86.9274 61.3543 85.3978 61.5698C82.2336 61.3025 79.0558 61.2115 75.8638 61.2967C80.4469 61.0245 85.0777 60.9336 89.7562 61.0237C89.7562 59.7494 89.7562 58.4754 89.7562 57.2012Z" fill="#7379B8"/>
<path opacity="0.024" fill-rule="evenodd" clip-rule="evenodd" d="M40.7241 61.2969C41.2428 61.3619 41.6062 61.6349 41.8137 62.116C41.2951 62.051 40.9317 61.778 40.7241 61.2969Z" fill="#A29CC5"/>
<path opacity="0.604" fill-rule="evenodd" clip-rule="evenodd" d="M63.8781 60.2046C63.053 61.1217 62.2358 62.0318 61.4265 62.935C61.8637 61.6779 62.6809 60.7676 63.8781 60.2046Z" fill="#8684BB"/>
<path opacity="0.51" fill-rule="evenodd" clip-rule="evenodd" d="M74.5017 61.2968C73.8199 61.5346 73.0934 61.7165 72.3225 61.8429C72.3527 61.6744 72.4435 61.5379 72.5949 61.4333C73.2242 61.2976 73.8597 61.2523 74.5017 61.2968Z" fill="#7F81BB"/>
<path opacity="0.192" fill-rule="evenodd" clip-rule="evenodd" d="M118.903 61.2969C113.827 61.8394 108.651 62.0215 103.376 61.843C108.323 61.5707 113.317 61.4798 118.359 61.5699C118.54 61.479 118.722 61.3878 118.903 61.2969Z" fill="#9FA0CA"/>
<path opacity="0.024" fill-rule="evenodd" clip-rule="evenodd" d="M71.5053 62.116C71.0474 62.5278 70.5025 62.8008 69.8708 62.9351C70.2552 62.3784 70.8 62.1054 71.5053 62.116Z" fill="#B4A4C5"/>
<path opacity="0.024" fill-rule="evenodd" clip-rule="evenodd" d="M69.8709 62.9351C69.6633 63.4162 69.2999 63.6892 68.7812 63.7542C68.9888 63.2731 69.3522 63 69.8709 62.9351Z" fill="#A79CC3"/>
<path opacity="0.024" fill-rule="evenodd" clip-rule="evenodd" d="M137.971 63.7544C138.49 63.8194 138.853 64.0924 139.061 64.5735C138.542 64.5085 138.179 64.2355 137.971 63.7544Z" fill="#9B91BE"/>
<path opacity="0.024" fill-rule="evenodd" clip-rule="evenodd" d="M68.7814 63.7544C68.8013 64.1713 68.6196 64.4444 68.2366 64.5735C68.2167 64.1566 68.3984 63.8835 68.7814 63.7544Z" fill="#A197C2"/>
<path opacity="0.024" fill-rule="evenodd" clip-rule="evenodd" d="M44.2651 64.3003C44.6811 64.2804 44.9535 64.4625 45.0823 64.8464C44.6664 64.8663 44.394 64.6842 44.2651 64.3003Z" fill="#A79EC5"/>
<path opacity="0.024" fill-rule="evenodd" clip-rule="evenodd" d="M139.061 64.5732C139.674 64.7316 140.127 65.0956 140.423 65.6654C139.81 65.507 139.357 65.1431 139.061 64.5732Z" fill="#A29AC4"/>
<path opacity="0.071" fill-rule="evenodd" clip-rule="evenodd" d="M8.58057 65.3926C13.393 65.3926 18.2054 65.3926 23.0178 65.3926C23.0178 66.9399 23.0178 68.4869 23.0178 70.0342C22.9271 70.0342 22.8362 70.0342 22.7454 70.0342C22.7454 68.669 22.7454 67.3038 22.7454 65.9387C18.0238 65.7565 13.3022 65.5747 8.58057 65.3926Z" fill="#7E78B1"/>
<path opacity="0.024" fill-rule="evenodd" clip-rule="evenodd" d="M45.6272 65.3926C46.172 65.3926 46.4444 65.6656 46.4444 66.2117C46.0813 66.0296 45.8089 65.7565 45.6272 65.3926Z" fill="#A09BC5"/>
<path opacity="0.071" fill-rule="evenodd" clip-rule="evenodd" d="M103.376 61.8428C103.376 63.0258 103.376 64.2092 103.376 65.3923C108.19 65.3467 113.002 65.3923 117.814 65.5288C118.175 67.0575 118.175 68.5592 117.814 70.0339C117.723 70.0339 117.632 70.0339 117.541 70.0339C117.541 68.6687 117.541 67.3035 117.541 65.9383C112.729 65.9383 107.916 65.9383 103.104 65.9383C103.016 64.5199 103.107 63.1547 103.376 61.8428Z" fill="#7676B2"/>
<path opacity="0.698" fill-rule="evenodd" clip-rule="evenodd" d="M8.30815 61.5698C8.22112 62.8976 8.31194 64.1719 8.58056 65.3923C13.3022 65.5745 18.0238 65.7563 22.7454 65.9384C17.9322 65.984 13.1197 65.9384 8.30815 65.8019C7.94741 64.3641 7.94741 62.9533 8.30815 61.5698Z" fill="#5D6CB3"/>
<path opacity="0.443" fill-rule="evenodd" clip-rule="evenodd" d="M34.7313 67.3037C34.1276 67.1117 33.6283 66.7478 33.2331 66.2115C33.187 70.5362 33.0508 74.8136 32.8245 79.0443C32.8245 78.8622 32.8245 78.6803 32.8245 78.4982C32.8245 74.3117 32.8245 70.125 32.8245 65.9385C33.6806 66.0665 34.3164 66.5217 34.7313 67.3037Z" fill="#868DC3"/>
<path opacity="0.894" fill-rule="evenodd" clip-rule="evenodd" d="M67.9642 65.1196C67.3502 66.8155 67.2595 68.5449 67.6918 70.3073C67.2856 69.574 67.1042 68.7549 67.147 67.85C67.1925 67.3039 67.2377 66.7579 67.2832 66.2118C67.3377 65.7149 67.5649 65.3509 67.9642 65.1196Z" fill="#5E67B0"/>
<path opacity="0.604" fill-rule="evenodd" clip-rule="evenodd" d="M128.165 66.4849C128.777 66.6432 129.231 67.0072 129.527 67.577C128.914 67.4187 128.46 67.0547 128.165 66.4849Z" fill="#9A8FBD"/>
<path opacity="0.941" fill-rule="evenodd" clip-rule="evenodd" d="M60.6092 64.5732C60.4278 66.7529 60.3371 68.9372 60.3368 71.1261C60.1328 70.8446 59.9513 70.526 59.792 70.1705C60.0957 69.5969 60.0957 69.0055 59.792 68.3958C59.9331 67.0573 60.2055 65.7831 60.6092 64.5732Z" fill="#6266AF"/>
<path opacity="0.51" fill-rule="evenodd" clip-rule="evenodd" d="M142.33 67.3037C143.041 67.5612 143.585 68.0163 143.964 68.6689C143.246 68.4032 142.702 67.9481 142.33 67.3037Z" fill="#8C87BC"/>
<path opacity="0.114" fill-rule="evenodd" clip-rule="evenodd" d="M49.1685 68.396C49.7811 68.5544 50.2349 68.9183 50.5305 69.4881C49.9178 69.3298 49.464 68.9658 49.1685 68.396Z" fill="#9E8FBB"/>
<path opacity="0.071" fill-rule="evenodd" clip-rule="evenodd" d="M143.964 68.6689C144.578 68.8393 145.032 69.2033 145.326 69.7611C144.701 69.5874 144.247 69.2235 143.964 68.6689Z" fill="#8C87BC"/>
<path opacity="0.8" fill-rule="evenodd" clip-rule="evenodd" d="M131.979 69.7612C132.868 70.1965 133.594 70.8334 134.158 71.6725C133.214 71.2897 132.487 70.6524 131.979 69.7612Z" fill="#9089BB"/>
<path opacity="0.063" fill-rule="evenodd" clip-rule="evenodd" d="M22.7456 70.0342C22.8363 70.0342 22.9273 70.0342 23.018 70.0342C22.55 70.2319 22.0505 70.414 21.5198 70.5803C17.2383 70.3222 12.9253 70.2313 8.58075 70.3072C8.58075 71.6724 8.58075 73.0376 8.58075 74.4028C8.48996 74.4028 8.39914 74.4028 8.30835 74.4028C8.30835 72.9467 8.30835 71.4903 8.30835 70.0342C13.1208 70.0342 17.9332 70.0342 22.7456 70.0342Z" fill="#C9AFC6"/>
<path opacity="0.063" fill-rule="evenodd" clip-rule="evenodd" d="M117.541 70.0342C117.632 70.0342 117.723 70.0342 117.814 70.0342C117.346 70.2319 116.846 70.414 116.315 70.5803C112.034 70.3222 107.721 70.2313 103.376 70.3072C103.376 71.6724 103.376 73.0376 103.376 74.4028C103.107 72.9994 103.017 71.543 103.104 70.0342C107.916 70.0342 112.729 70.0342 117.541 70.0342Z" fill="#C5B1CA"/>
<path opacity="0.251" fill-rule="evenodd" clip-rule="evenodd" d="M36.0933 68.396C37.2567 69.1062 38.2553 70.0162 39.0897 71.1264C37.9263 70.4162 36.9276 69.5062 36.0933 68.396Z" fill="#908EC0"/>
<path opacity="0.071" fill-rule="evenodd" clip-rule="evenodd" d="M89.7562 77.6794C89.6655 77.6794 89.5745 77.6794 89.4838 77.6794C89.4838 74.039 89.4838 70.3983 89.4838 66.7579C84.0358 66.7579 78.5878 66.7579 73.1397 66.7579C73.1397 67.941 73.1397 69.1243 73.1397 70.3074C76.5902 70.3074 80.0405 70.3074 83.491 70.3074C83.491 71.7635 83.491 73.2199 83.491 74.676C83.4003 74.676 83.3093 74.676 83.2186 74.676C83.2186 73.4017 83.2186 72.1277 83.2186 70.8535C80.1867 70.8857 77.2356 70.9766 74.3655 71.1265C73.8932 70.922 73.3939 70.7855 72.8673 70.7169C72.6679 69.343 72.6679 67.9322 72.8673 66.4849C78.497 66.4849 84.1265 66.4849 89.7562 66.4849C89.7562 70.2165 89.7562 73.9478 89.7562 77.6794Z" fill="#7F82BB"/>
<path opacity="0.251" fill-rule="evenodd" clip-rule="evenodd" d="M67.9641 70.853C68.3471 70.9822 68.5288 71.2552 68.5089 71.6721C68.1259 71.543 67.9442 71.27 67.9641 70.853Z" fill="#9594C3"/>
<path opacity="0.698" fill-rule="evenodd" clip-rule="evenodd" d="M68.509 71.6724C69.5117 72.6274 70.6013 73.4466 71.7779 74.1297C70.266 73.8318 69.1764 73.0127 68.509 71.6724Z" fill="#9089BC"/>
<path opacity="0.8" fill-rule="evenodd" clip-rule="evenodd" d="M40.7241 72.4917C41.4294 72.7426 41.9742 73.1978 42.3585 73.8569C41.6533 73.606 41.1085 73.1508 40.7241 72.4917Z" fill="#8885BB"/>
<path opacity="0.024" fill-rule="evenodd" clip-rule="evenodd" d="M42.3584 73.8564C42.7215 74.0386 42.9939 74.3116 43.1756 74.6756C42.6308 74.6756 42.3584 74.4025 42.3584 73.8564Z" fill="#AAA2C8"/>
<path opacity="0.604" fill-rule="evenodd" clip-rule="evenodd" d="M60.3369 71.1265C61.1696 73.0607 62.3502 74.7901 63.8781 76.3142C61.8411 75.1808 60.6605 73.4517 60.3369 71.1265Z" fill="#8A88BD"/>
<path opacity="0.8" fill-rule="evenodd" clip-rule="evenodd" d="M43.1755 74.6758C43.7882 74.8341 44.242 75.1981 44.5375 75.7679C43.9249 75.6096 43.4711 75.2456 43.1755 74.6758Z" fill="#877EB5"/>
<path opacity="0.251" fill-rule="evenodd" clip-rule="evenodd" d="M136.609 73.8564C137.315 74.1074 137.859 74.5625 138.244 75.2216C137.539 74.9707 136.994 74.5156 136.609 73.8564Z" fill="#9594C2"/>
<path opacity="0.8" fill-rule="evenodd" clip-rule="evenodd" d="M71.7778 74.1299C75.5443 75.0104 79.3579 75.1923 83.2187 74.676C83.3094 74.676 83.4004 74.676 83.4911 74.676C79.806 75.752 76.0834 75.752 72.3226 74.676C71.9922 74.6085 71.8105 74.4264 71.7778 74.1299Z" fill="#6B6EB2"/>
<path opacity="0.894" fill-rule="evenodd" clip-rule="evenodd" d="M44.5376 75.7681C45.3349 76.1113 45.9707 76.6573 46.4444 77.4063C45.9238 77.2493 45.4698 76.9763 45.0824 76.5872C44.9007 76.3141 44.7193 76.0411 44.5376 75.7681Z" fill="#7978B6"/>
<path opacity="0.071" fill-rule="evenodd" clip-rule="evenodd" d="M138.244 75.2217C138.863 75.5676 139.408 76.0225 139.878 76.5869C139.086 76.4304 138.541 75.9755 138.244 75.2217Z" fill="#8A85B9"/>
<path opacity="0.024" fill-rule="evenodd" clip-rule="evenodd" d="M45.0826 76.5869C44.9009 76.769 44.9009 76.769 45.0826 76.5869V76.5869Z" fill="#B3A3C3"/>
<path opacity="0.698" fill-rule="evenodd" clip-rule="evenodd" d="M63.8782 76.314C64.4704 76.3822 64.9245 76.6553 65.2402 77.1331C64.6006 77.108 64.1468 76.8349 63.8782 76.314Z" fill="#797BB8"/>
<path opacity="0.698" fill-rule="evenodd" clip-rule="evenodd" d="M140.695 77.4062C141.401 77.6572 141.945 78.1123 142.33 78.7714C141.624 78.5205 141.08 78.0654 140.695 77.4062Z" fill="#9591C1"/>
<path opacity="0.165" fill-rule="evenodd" clip-rule="evenodd" d="M89.4839 77.6792C89.5746 77.6792 89.6656 77.6792 89.7563 77.6792C89.8751 78.4612 89.6482 79.0982 89.0753 79.5905C87.8073 79.3546 86.5815 79.2636 85.3979 79.3174C85.3979 79.1353 85.3072 79.0444 85.1255 79.0444C86.4344 78.7749 87.7964 78.6837 89.2115 78.7713C89.1385 78.3348 89.2295 77.9708 89.4839 77.6792Z" fill="#6167AE"/>
<path opacity="0.071" fill-rule="evenodd" clip-rule="evenodd" d="M67.4194 78.225C68.0727 78.1592 68.6175 78.3413 69.0538 78.7711C68.4006 78.8369 67.8558 78.6548 67.4194 78.225Z" fill="#8D85B9"/>
<path opacity="0.165" fill-rule="evenodd" clip-rule="evenodd" d="M0.681123 57.4746C0.681123 64.4827 0.681123 71.4904 0.681123 78.4985C8.39915 78.4985 16.1172 78.4985 23.8352 78.4985C23.8352 77.2242 23.8352 75.9502 23.8352 74.676C18.6122 74.7661 13.4366 74.6752 8.30836 74.4029C8.39915 74.4029 8.48997 74.4029 8.58076 74.4029C13.8472 74.4029 19.1136 74.4029 24.38 74.4029C24.4637 75.93 24.3727 77.4317 24.1076 78.9081C16.2085 79.0446 8.30888 79.0902 0.408721 79.0446C0.318502 71.8077 0.40932 64.6175 0.681123 57.4746Z" fill="#5562AD"/>
<path opacity="0.165" fill-rule="evenodd" clip-rule="evenodd" d="M28.4661 78.498C29.9188 78.498 31.3718 78.498 32.8245 78.498C32.8245 78.6802 32.8245 78.862 32.8245 79.0441C31.3718 79.0441 29.9188 79.0441 28.4661 79.0441C28.4661 78.862 28.4661 78.6802 28.4661 78.498Z" fill="#4A5BAA"/>
<path opacity="0.165" fill-rule="evenodd" clip-rule="evenodd" d="M47.5339 78.498C50.6211 78.498 53.7085 78.498 56.7956 78.498C56.7956 78.6802 56.7956 78.862 56.7956 79.0441C53.7978 79.0897 50.8014 79.0441 47.8063 78.9076C47.6549 78.803 47.5642 78.6665 47.5339 78.498Z" fill="#4D5DAB"/>
<path opacity="0.165" fill-rule="evenodd" clip-rule="evenodd" d="M103.376 74.4028C108.643 74.4028 113.909 74.4028 119.176 74.4028C119.176 75.9501 119.176 77.4972 119.176 79.0445C111.276 79.0445 103.376 79.0445 95.4768 79.0445C95.4768 78.8624 95.4768 78.6805 95.4768 78.4984C103.195 78.4984 110.913 78.4984 118.631 78.4984C118.631 77.2241 118.631 75.9501 118.631 74.6759C113.499 74.766 108.414 74.6751 103.376 74.4028Z" fill="#505EAC"/>
<path fill-rule="evenodd" clip-rule="evenodd" d="M72.595 79.0444C74.8494 79.2148 77.1193 79.2148 79.405 79.0444C79.0419 79.2265 78.6785 79.4084 78.3154 79.5905C76.5903 79.5905 74.8649 79.5905 73.1398 79.5905C72.9581 79.4084 72.7767 79.2265 72.595 79.0444Z" fill="#5160AD"/>
<path opacity="0.251" fill-rule="evenodd" clip-rule="evenodd" d="M79.405 79.0444C81.3118 79.0444 83.2187 79.0444 85.1255 79.0444C85.3072 79.0444 85.3979 79.1354 85.3979 79.3175C84.3213 79.4149 83.1862 79.5971 81.9928 79.8635C80.794 79.5995 79.5682 79.5086 78.3154 79.5905C78.6785 79.4084 79.0419 79.2265 79.405 79.0444Z" fill="#A4A1C9"/>
<path opacity="0.251" fill-rule="evenodd" clip-rule="evenodd" d="M69.0537 78.7715C70.2406 78.795 71.4209 78.8862 72.5949 79.0445C72.7766 79.2266 72.958 79.4085 73.1397 79.5906C71.6919 79.5884 70.3299 79.3154 69.0537 78.7715Z" fill="#9393C3"/>
</g>
<defs>
<clipPath id="clip0_4623_25533">
<rect width="152" height="80" fill="white"/>
</clipPath>
</defs>
</svg>
