<svg width="114" height="80" viewBox="0 0 114 80" fill="none" xmlns="http://www.w3.org/2000/svg">
<g clip-path="url(#clip0_4623_25020)">
<path fill-rule="evenodd" clip-rule="evenodd" d="M9.07531 40.1187C9.07531 22.888 30.5088 8.91825 56.9544 8.91825C83.393 8.91825 104.828 22.888 104.828 40.1187C104.828 57.3494 83.3923 71.3178 56.9544 71.3178C30.5088 71.3178 9.07531 57.3494 9.07531 40.1187ZM56.998 79.9578C88.4578 79.9578 113.956 62.0679 113.956 40.0019C113.956 17.9331 88.4578 0.0424805 56.998 0.0424805C25.5438 0.0424805 0.0439453 17.9331 0.0439453 40.0019C0.0439453 62.0679 25.5438 79.9578 56.998 79.9578Z" fill="#236AB3"/>
<path fill-rule="evenodd" clip-rule="evenodd" d="M37.7774 22.095L37.3596 27.662C35.085 27.0528 32.5089 25.6835 30.0341 26.9519C28.2132 27.8129 28.2694 29.9562 28.8188 31.363C30.2876 33.9 33.5953 33.5453 36.3231 33.5453V38.3577C34.7108 38.3577 32.9066 38.4063 31.2833 38.8841C30.4886 39.1178 29.4514 39.567 29.0821 39.9377C28.5701 40.4523 28.2105 41.3501 28.1502 42.1839C28.1024 42.8536 28.2292 43.6193 28.5673 44.095C30.5371 46.7327 34.4288 45.3106 36.9051 44.805L37.6125 50.4867C34.4101 51.8407 30.1796 52.3977 26.5802 51.3914C25.464 51.0792 24.5106 50.7189 23.4623 49.9804C22.139 48.9303 21.1572 47.6778 20.5766 46.287C19.892 44.6492 19.7618 42.8195 20.28 40.9002C20.835 38.567 22.8568 36.7902 24.9277 35.7769C22.8679 34.585 21.4925 33.1392 20.7851 31.1113C20.3895 29.6203 20.4872 28.1467 20.8787 26.7802C21.1406 25.8677 21.3103 25.3483 22.0136 24.2801C22.9753 22.8092 24.97 21.6256 26.7839 21.0811C29.3661 20.3057 32.2637 20.442 34.9339 21.0665C36.513 21.4601 36.7721 21.6827 37.7774 22.095ZM89.8649 27.662C86.2773 27.2551 81.2763 26.849 79.1513 30.8561C76.5732 35.5746 76.6764 42.5741 78.6462 47.5457C79.7056 49.6751 81.8804 51.0958 84.002 51.7043C88.0441 52.4144 92.4423 51.9568 94.7682 48.2543C97.2958 43.435 97.4447 36.2324 95.0184 31.363C94.0587 29.3859 91.9746 27.9471 89.8649 27.662ZM89.8531 35.2609C90.7053 37.7332 90.6499 41.8967 89.7651 44.3411C88.9476 46.2195 87.4053 46.4518 85.9856 46.0908C85.2415 45.7828 84.4807 45.0623 84.1087 43.9816C83.4172 41.4565 83.3805 37.3966 84.2846 35.0029C85.0302 32.9702 86.7852 33.1746 88.0441 33.3812C88.8596 33.5328 89.515 34.256 89.8531 35.2609ZM44.2321 28.1675C41.4024 29.589 40.0895 32.3798 40.2918 35.5238C40.2918 40.4808 46.4049 40.7986 49.337 43.8411C49.9065 44.7605 49.3488 45.9219 48.516 46.2508C45.9268 47.4553 42.8692 45.618 40.5426 44.3495L40.7934 50.4873C44.2847 52.0089 49.5386 52.8699 53.0258 50.6883C55.3489 49.2175 56.5635 46.8836 56.664 44.3495C56.664 38.7054 50.5537 38.1532 47.0333 35.8576C46.5739 35.6149 46.5995 34.8624 46.7194 34.4118C46.8497 33.9257 47.0998 33.441 47.6568 33.281C50.6895 32.3686 53.3272 33.7491 55.7023 35.0189L55.4508 29.1328C52.1666 27.712 47.819 26.6459 44.2321 28.1675ZM62.8789 28.1675C60.0465 29.589 58.7342 32.3798 58.9358 35.5238C58.9358 40.4808 65.051 40.7986 67.9824 43.8411C68.5492 44.7605 67.9949 45.9219 67.1621 46.2508C64.5708 47.4553 61.5126 45.618 59.1873 44.3495L59.4388 50.4873C62.9288 52.0089 68.1834 52.8699 71.6719 50.6883C73.993 49.2175 75.2089 46.8836 75.3094 44.3495C75.3094 38.7054 69.2358 38.131 65.6863 35.8625C65.2561 35.5502 65.2374 34.8193 65.3995 34.3596C65.5471 33.9396 65.9316 33.3958 66.3591 33.2629C69.3446 32.3992 71.9726 33.7484 74.3498 35.0182L74.0955 29.1321C70.8114 27.712 66.4665 26.6459 62.8789 28.1675Z" fill="#CF432A"/>
</g>
<defs>
<clipPath id="clip0_4623_25020">
<rect width="114" height="80" fill="white"/>
</clipPath>
</defs>
</svg>
