<svg width="343" height="80" viewBox="0 0 343 80" fill="none" xmlns="http://www.w3.org/2000/svg">
<g clip-path="url(#clip0_4623_13536)">
<path fill-rule="evenodd" clip-rule="evenodd" d="M37.5795 31.0588C36.6138 32.992 35.5288 34.8026 33.9582 36.1327C29.1288 39.9999 14.8871 37.9453 14.8871 39.7578C14.8871 41.4509 29.0098 40.1209 32.2683 43.9881C35.6478 47.9744 31.4216 60.4177 33.1131 60.4177C34.319 60.4177 35.406 54.2573 37.5795 49.1834C38.5455 46.8864 39.872 44.8337 41.441 43.6208C46.7522 39.5154 60.27 41.5681 60.27 39.7559C60.3909 37.7032 46.2701 40.119 42.6489 36.0117C39.0272 31.7833 43.7354 20.1837 41.925 20.1837C40.84 20.1856 39.9933 26.1055 37.5795 31.0588ZM267.279 67.6653L282.849 0.00830078H342.959L339.34 17.1644H305.182L301.68 30.0918H333.787L330.045 47.0097H299.146L295.526 61.3824H328.841L324.977 79.9895H264.506L267.279 67.6653ZM267.279 43.7441C267.926 41.4705 268.491 39.1742 268.97 36.8592C271.021 26.4689 270.418 18.3753 267.279 12.5746C262.572 3.87549 252.192 0.00830078 236.018 0.00830078H204.512L191.958 55.2224L186.405 79.9914H222.618C225.513 79.9914 228.291 79.8704 230.949 79.3879C249.897 76.4896 261.725 63.1988 267.279 43.7441ZM230.949 17.4064C243.62 17.4064 249.173 24.7755 246.518 36.2537C243.983 47.3708 240.485 56.9155 230.949 60.6578C228.171 61.7458 224.795 62.3509 220.809 62.3509H214.655L224.795 17.4064H230.949ZM191.958 26.467L180.614 79.9895H157.922L164.56 48.6989L174.821 0.00830078H197.632L191.958 26.467ZM164.56 7.86178L171.2 0.00830078H144.283L128.954 18.8556L120.384 0.00830078H93.9478L111.45 38.1873L83.8072 69.7222L74.8747 79.9914H14.405L22.0091 46.8883H0.0405273L3.05881 29.9727H25.9915L32.7504 0.00830078H92.8628L89.2415 17.1644H55.6846L52.6682 30.0918H79.464L75.7214 47.0097H49.5287L46.0302 61.3824H78.7401L74.8786 79.9895H102.037L120.384 59.4507L129.317 79.9895H155.268L138.249 38.9119L164.56 7.86178Z" fill="#2D4F9E"/>
</g>
<defs>
<clipPath id="clip0_4623_13536">
<rect width="343" height="80" fill="white"/>
</clipPath>
</defs>
</svg>
