<svg width="469" height="80" viewBox="0 0 469 80" fill="none" xmlns="http://www.w3.org/2000/svg">
<path opacity="0.996" fill-rule="evenodd" clip-rule="evenodd" d="M42.114 25.2526C34.509 25.3695 26.8905 25.3695 19.2585 25.2526C20.0477 21.8406 20.8319 18.339 21.6113 14.7476C23.4418 9.45667 26.9148 5.66314 32.0307 3.36711C34.6421 2.20792 37.3759 1.48967 40.2318 1.21223C62.5943 1.10004 84.9568 1.1224 107.319 1.27957C102.545 6.3092 97.7496 11.3147 92.9337 16.2964C78.0713 16.3896 63.2153 16.3671 48.3656 16.2291C47.0112 16.2338 45.7789 16.6153 44.6684 17.3738C44.2356 17.8522 43.8547 18.3685 43.5256 18.9227C43.0026 20.9695 42.4872 23.0122 41.9795 25.0506C42.0543 25.1022 42.099 25.1695 42.114 25.2526Z" fill="#1A63B6"/>
<path opacity="0.997" fill-rule="evenodd" clip-rule="evenodd" d="M126.545 1.14475C137.972 1.0999 149.4 1.14475 160.828 1.27943C157.312 17.6102 153.839 33.9515 150.408 50.303C150.265 51.0033 150.063 51.6767 149.803 52.3232C142.503 52.373 135.22 52.373 127.956 52.3232C130.86 37.6633 133.818 22.9377 136.83 8.14811C126.724 18.3613 116.619 28.5746 106.513 38.7878C114.083 38.7272 121.633 38.7057 129.166 38.7205C129.267 38.8054 129.379 38.8727 129.502 38.9225C126.366 43.3225 123.228 47.7212 120.091 52.1212C102.031 52.233 83.9707 52.2114 65.9106 52.0538C81.1357 36.9144 96.4174 21.7631 111.756 6.59929C114.905 4.27485 118.4 2.70367 122.243 1.88549C123.684 1.57128 125.117 1.32427 126.545 1.14475Z" fill="#1A63B6"/>
<path opacity="0.998" fill-rule="evenodd" clip-rule="evenodd" d="M169.029 1.14502C176.648 1.14502 184.265 1.14502 191.884 1.14502C189.342 13.5632 186.699 25.9538 183.952 38.3167C198.472 38.407 212.992 38.4959 227.512 38.5861C224.55 42.7423 221.615 46.9174 218.706 51.1114C218.344 51.607 217.941 52.0568 217.496 52.4582C209.301 52.38 200.831 52.38 192.086 52.4582C191.817 52.3679 191.548 52.279 191.279 52.1888C189.027 52.2723 186.763 52.3167 184.49 52.3235C175.77 52.2346 167.053 52.1443 158.341 52.0541C161.809 34.9901 165.372 18.0206 169.029 1.14502Z" fill="#1A63B6"/>
<path opacity="0.997" fill-rule="evenodd" clip-rule="evenodd" d="M273.088 48.4176C266.284 41.5341 259.495 34.621 252.72 27.6769C251.127 35.386 249.604 43.1072 248.149 50.8419C248.07 51.4223 247.891 51.9611 247.611 52.458C240.101 52.4648 232.572 52.4203 225.025 52.3233C224.968 51.7348 225.013 51.1516 225.159 50.5725C228.669 34.1698 232.186 17.7392 235.713 1.27957C243.621 1.17519 251.194 1.17519 258.434 1.27957C256.733 9.19526 255.007 17.0965 253.258 24.9833C263.325 17.0082 273.431 9.08455 283.575 1.21223C294.286 1.10004 304.997 1.1224 315.707 1.27957C303.315 10.1678 290.902 19.0343 278.466 27.8789C286.863 35.8641 295.199 43.922 303.473 52.054C294.599 52.2116 285.726 52.2331 276.853 52.1213C275.515 50.9388 274.261 49.7038 273.088 48.4176Z" fill="#1A63B6"/>
<path opacity="0.997" fill-rule="evenodd" clip-rule="evenodd" d="M393.281 1.14467C412.013 1.12218 430.746 1.14467 449.478 1.21201C453.903 1.50682 457.892 2.94332 461.444 5.52177C464.693 8.28675 466.151 11.8108 465.813 16.0942C463.392 28.1766 460.949 40.2531 458.486 52.3231C450.808 52.474 443.168 52.474 435.563 52.3231C436.513 47.3871 437.567 42.4713 438.723 37.5756C439.183 35.3386 439.653 33.0261 440.134 30.6396C441.026 27.1253 441.81 23.5114 442.487 19.7979C442.317 17.382 441.039 16.0127 438.656 15.6901C430.455 15.8696 422.253 15.8696 414.052 15.6901C413.754 15.979 413.575 16.3382 413.515 16.7676C411.122 28.6411 408.634 40.4928 406.053 52.3231C398.345 52.3676 390.636 52.4134 382.929 52.4578C382.794 52.3905 382.66 52.3231 382.525 52.2558C386.21 35.212 389.795 18.175 393.281 1.14467Z" fill="#1A63B6"/>
<path opacity="0.998" fill-rule="evenodd" clip-rule="evenodd" d="M329.286 1.2793C347.973 1.2793 366.661 1.2793 385.349 1.2793C384.422 6.02866 383.437 10.7648 382.391 15.4881C367.289 15.5329 352.185 15.5779 337.083 15.6227C335.801 15.8673 334.837 16.6081 334.193 17.845C333.811 18.8125 333.43 19.7776 333.05 20.7406C346.898 20.7854 360.745 20.8304 374.593 20.8753C373.86 24.9559 373.009 29.0413 372.039 33.1311C358.202 33.2362 344.377 33.2133 330.563 33.0638C330.375 33.1621 330.263 33.3184 330.227 33.5352C329.891 35.1702 329.577 36.8093 329.286 38.451C346.988 38.4066 364.69 38.451 382.391 38.5857C378.784 43.2093 375.175 47.8342 371.568 52.4577C349.202 52.3971 326.817 52.3756 304.413 52.3904C304.34 51.7534 304.43 51.1244 304.682 50.5049C307.015 38.2396 309.502 26.006 312.144 13.8045C314.252 7.33883 318.621 3.36576 325.252 1.88536C326.614 1.65883 327.959 1.45681 329.286 1.2793Z" fill="#1A63B6"/>
<path opacity="0.994" fill-rule="evenodd" clip-rule="evenodd" d="M19.2585 25.2524C26.8905 25.3693 34.509 25.3693 42.1139 25.2524C56.6657 25.2971 71.2081 25.2522 85.7409 25.1177C85.8844 25.2107 86.0413 25.2781 86.2115 25.3197C78.7311 32.9035 71.2471 40.4901 63.7594 48.0806C63.6249 48.1709 63.4905 48.1709 63.356 48.0806C63.194 47.8948 63.0148 47.7386 62.8183 47.6093C62.7735 47.4746 62.6838 47.3843 62.5494 47.3399C59.0071 44.4214 55.2426 41.8167 51.2561 39.5285C51.2113 39.3938 51.1217 39.3035 50.9872 39.2591C48.1406 37.7305 45.3398 36.3392 42.5845 35.084C41.7976 34.7971 40.9685 34.482 40.0973 34.1412C39.7047 33.9554 39.3237 33.7318 38.9545 33.4678C38.7027 33.5473 38.4786 33.4571 38.2823 33.1985C37.9887 33.2806 37.7198 33.1904 37.4756 32.9291C37.1994 32.9763 36.9305 32.886 36.669 32.6598C34.3254 31.9837 31.9503 31.2645 29.5435 30.5049C29.4987 30.5493 29.4538 30.5951 29.409 30.6396C29.0588 30.3944 28.7002 30.3042 28.3335 30.3702C28.0791 30.2854 27.855 30.1507 27.6613 29.9662C27.2937 29.9837 26.9351 29.9837 26.5857 29.9662C26.1289 29.8072 25.6808 29.6268 25.2413 29.4274C24.8292 29.4423 24.4259 29.4423 24.0313 29.4274C22.9357 29.2107 21.8601 28.9414 20.8046 28.6194C20.5301 28.7251 20.2612 28.6802 19.998 28.4847C19.9532 28.5295 19.9083 28.5745 19.8635 28.6194C19.3766 28.4398 18.8611 28.35 18.3174 28.35C14.5521 27.8642 10.7427 27.505 6.88971 27.2726C5.74627 27.2814 4.6484 27.2814 3.59584 27.2726C3.2194 27.1884 2.83838 27.0986 2.45307 27.0032C2.31983 26.7577 2.14062 26.5557 1.91529 26.3971C1.96006 26.3523 2.00497 26.3073 2.04974 26.2625C1.81997 26.0044 1.64063 25.7127 1.51196 25.387C7.36927 25.2969 13.2176 25.2071 19.0569 25.1177C19.1084 25.1926 19.1756 25.2374 19.2585 25.2524Z" fill="#EC1D24"/>
<path opacity="0.263" fill-rule="evenodd" clip-rule="evenodd" d="M7.29321 27.4072C7.47243 27.4971 7.47243 27.4971 7.29321 27.4072V27.4072Z" fill="#2060B3"/>
<path opacity="0.997" fill-rule="evenodd" clip-rule="evenodd" d="M18.3176 28.3501C18.8613 28.3501 19.3767 28.4399 19.8637 28.6195C19.9085 28.5746 19.9534 28.5296 19.9981 28.4848C20.2614 28.6803 20.5303 28.7252 20.8048 28.6195C21.8603 28.9415 22.9359 29.2108 24.0314 29.4275C24.426 29.4424 24.8294 29.4424 25.2414 29.4275C25.6809 29.6269 26.129 29.8073 26.5859 29.9663C26.9353 29.9838 27.2938 29.9838 27.6614 29.9663C27.8551 30.1508 28.0793 30.2855 28.3336 30.3703C28.7004 30.3043 29.059 30.3945 29.4092 30.6397C29.454 30.5952 29.4989 30.5494 29.5436 30.505C31.9504 31.2646 34.3255 31.9838 36.6691 32.6599C36.9306 32.8861 37.1995 32.9764 37.4758 32.9292C37.7199 33.1905 37.9888 33.2807 38.2825 33.1986C38.4788 33.4572 38.7029 33.5474 38.9547 33.4679C39.3239 33.7319 39.7049 33.9555 40.0975 34.1413C38.9329 40.241 37.6334 46.3016 36.1986 52.3232C28.7856 52.4201 21.3912 52.4646 14.0154 52.4578C13.821 52.3676 13.7314 52.21 13.7465 51.9865C15.3596 44.2666 16.9729 36.544 18.5865 28.8215C18.5378 28.6283 18.4483 28.4712 18.3176 28.3501Z" fill="#1A63B6"/>
<path opacity="0.263" fill-rule="evenodd" clip-rule="evenodd" d="M50.9873 39.2593C51.1217 39.3037 51.2114 39.394 51.2562 39.5286C51.077 39.5286 50.9873 39.4384 50.9873 39.2593Z" fill="#2060B3"/>
<path opacity="0.263" fill-rule="evenodd" clip-rule="evenodd" d="M62.5493 47.3398C62.6838 47.3843 62.7734 47.4745 62.8182 47.6092C62.639 47.6092 62.5493 47.519 62.5493 47.3398Z" fill="#2060B3"/>
<path opacity="0.263" fill-rule="evenodd" clip-rule="evenodd" d="M273.088 48.4175C272.998 48.5077 272.998 48.5077 273.088 48.4175V48.4175Z" fill="#2060B3"/>
<path opacity="0.989" fill-rule="evenodd" clip-rule="evenodd" d="M398.658 54.7474C400.362 54.7245 402.065 54.7474 403.767 54.8147C401.329 62.5979 398.909 70.3864 396.507 78.1817C394.85 78.1817 393.191 78.1817 391.533 78.1817C393.906 70.3743 396.28 62.5629 398.658 54.7474Z" fill="#1A63B6"/>
<path opacity="0.993" fill-rule="evenodd" clip-rule="evenodd" d="M409.548 54.7474C414.97 54.7245 420.394 54.7474 425.816 54.8147C427.234 54.8996 428.579 55.2592 429.849 55.8922C431.011 57.0208 431.391 58.3891 430.992 59.9999C430.558 61.8895 429.886 63.6847 428.975 65.3871C427.948 66.8039 426.627 67.6794 425.009 68.0134C424.555 68.074 424.107 68.1642 423.665 68.2827C425.571 68.2854 426.736 69.2066 427.16 71.0437C426.655 73.4262 425.983 75.7602 425.144 78.047C423.379 78.1777 421.631 78.2221 419.901 78.1817C419.749 77.9703 419.726 77.7454 419.833 77.5083C420.382 75.8706 420.852 74.21 421.245 72.5252C421.031 71.0329 420.157 70.2693 418.623 70.2356C415.887 70.3299 413.176 70.3299 410.489 70.2356C410.315 70.3151 410.203 70.4497 410.153 70.6396C409.421 73.1514 408.637 75.643 407.801 78.1144C406.046 78.2235 404.298 78.2019 402.557 78.047C402.513 77.9797 402.467 77.9124 402.423 77.845C404.768 70.1319 407.143 62.4322 409.548 54.7474ZM413.851 58.5184C416.373 58.6329 418.883 58.6329 421.379 58.5184C421.994 58.5858 422.599 58.676 423.194 58.7878C424.734 58.6679 425.362 59.3858 425.077 60.9427C424.835 62.272 424.386 63.5299 423.732 64.7137C423.024 65.5959 422.104 66.113 420.976 66.2625C417.794 66.3528 414.613 66.3528 411.431 66.2625C412.372 63.7265 413.178 61.1447 413.851 58.5184Z" fill="#1A63B6"/>
<path opacity="0.994" fill-rule="evenodd" clip-rule="evenodd" d="M373.249 54.8824C380.195 54.8379 387.142 54.8824 394.087 55.017C393.599 56.3073 393.152 57.6096 392.743 58.9228C390.097 58.8783 387.454 58.9228 384.811 59.0575C382.583 65.316 380.388 71.5787 378.223 77.8453C378.168 77.9733 378.079 78.0622 377.954 78.1147C377.215 78.1376 376.475 78.1591 375.736 78.182C374.901 78.1309 374.094 78.1309 373.316 78.182C373.204 78.0702 373.091 77.9571 372.98 77.8453C375.202 71.5692 377.399 65.2837 379.567 58.9901C377.059 58.9228 374.549 58.8999 372.039 58.9228C372.442 57.5773 372.845 56.2305 373.249 54.8824Z" fill="#1A63B6"/>
<path opacity="0.994" fill-rule="evenodd" clip-rule="evenodd" d="M438.588 54.8821C444.773 54.8592 450.957 54.8821 457.141 54.9495C457.186 54.9939 457.232 55.0397 457.276 55.0842C456.932 55.938 456.641 56.8135 456.402 57.7104C456.288 58.1279 456.086 58.4875 455.797 58.7879C451.422 58.7542 447.053 58.7098 442.689 58.6532C442.026 60.532 441.377 62.4175 440.739 64.3098C444.951 64.4444 449.164 64.4889 453.377 64.4444C453.06 65.5326 452.702 66.6101 452.302 67.6768C448.089 67.7885 443.877 67.8559 439.664 67.8788C438.833 69.9273 438.116 72.0148 437.513 74.1414C441.994 74.1414 446.476 74.1414 450.957 74.1414C450.618 75.3629 450.236 76.5751 449.814 77.7778C449.59 77.868 449.367 77.9569 449.142 78.0471C443.092 78.0027 437.042 77.9569 430.992 77.9124C433.418 70.2168 435.95 62.5401 438.588 54.8821Z" fill="#1A63B6"/>
</svg>
