<svg width="512" height="80" viewBox="0 0 512 80" fill="none" xmlns="http://www.w3.org/2000/svg">
<path opacity="0.985" fill-rule="evenodd" clip-rule="evenodd" d="M67.6667 3.48193C67.8444 3.48193 68.0223 3.48193 68.2 3.48193C69.3508 10.5826 67.0842 16.3352 61.4 20.7414C58.4772 22.5033 55.3883 23.5922 52.1334 24.0067C51.5303 24.1413 50.9524 24.3186 50.4 24.5398C50.2136 24.4665 50.0358 24.4225 49.8667 24.4065C49.0178 24.6051 48.1511 24.7171 47.2667 24.7397C47.1446 24.7891 47.0334 24.8557 46.9334 24.9397C46.6702 24.9197 46.4035 24.8757 46.1334 24.8064C45.289 24.8957 44.4444 24.9836 43.6 25.0729C42.0578 25.0449 40.4134 24.9557 38.6667 24.8064C38.6223 24.8504 38.5778 24.8957 38.5334 24.9397C38.2052 24.8437 37.8719 24.7557 37.5334 24.6731C36.0883 27.6105 35.7106 30.6759 36.4 33.8693C36.6358 34.7249 36.9914 35.5246 37.4667 36.2683C40.6382 34.0119 44.1715 32.7684 48.0667 32.5365C51.4274 32.6111 54.3386 33.7666 56.8 36.0017C56.889 36.179 56.889 36.3576 56.8 36.5348C54.6187 40.6291 52.5075 44.7607 50.4667 48.9297C49.0563 48.5112 47.634 48.1327 46.2 47.7968C44.5544 47.5436 42.91 47.5436 41.2667 47.7968C40.6478 47.9514 40.07 48.1953 39.5334 48.5298C39.489 48.7964 39.4444 49.0629 39.4 49.3295C39.95 53.0986 40.0167 56.8744 39.6 60.6581C39.1959 62.8945 38.3514 64.9377 37.0667 66.7889C34.8878 69.8556 32.1988 72.3666 29 74.3191C24.4731 76.4169 19.9398 76.8394 15.4 75.5852C16.4135 73.5594 17.2802 71.4709 18 69.3212C18.1152 68.0297 18.2707 66.7196 18.4667 65.3895C18.073 60.2236 17.2284 55.0711 15.9334 49.9292C15.9943 49.8746 16.0388 49.808 16.0667 49.7293C14.6319 43.392 14.9652 36.9946 17.0667 30.5373C18.0372 27.9824 19.4372 25.6274 21.2667 23.4736C21.2388 23.395 21.1943 23.3283 21.1334 23.2737C19.1602 22.8219 17.1602 22.6886 15.1334 22.8739C14.9654 23.0218 14.8098 23.0444 14.6667 22.9405C12.869 23.2484 11.069 23.5816 9.2667 23.9401C9.16631 24.1387 9.05521 24.16 8.93337 24.0067C6.2603 24.7637 3.57141 25.6074 0.866699 26.539C0.934077 20.0977 3.08963 14.456 7.33337 9.61271C11.7026 5.53468 16.9026 3.57989 22.9334 3.74849C25.6626 3.82966 28.418 4.05183 31.2 4.41488C33.0179 4.53376 34.84 4.80032 36.6667 5.21455C39.9939 5.8007 43.2606 6.44483 46.4667 7.14707C49.9722 7.76868 53.4388 7.76868 56.8667 7.14707C60.4028 6.35874 63.9139 5.24813 67.4 3.81513C67.5675 3.75955 67.6564 3.64853 67.6667 3.48193Z" fill="#EC1D2E"/>
<path opacity="0.979" fill-rule="evenodd" clip-rule="evenodd" d="M305.8 8.14678C305.933 8.13532 306.044 8.17983 306.133 8.28006C306.177 11.9675 306.223 15.6543 306.267 19.3421C309.777 19.2981 313.289 19.2528 316.8 19.2088C316.933 19.2981 317.067 19.3861 317.2 19.4754C317.331 23.3964 317.287 27.3055 317.067 31.2038C313.471 31.1639 309.871 31.1185 306.267 31.0706C306.177 37.4239 306.177 43.7759 306.267 50.1293C306.664 51.1022 307.197 51.9898 307.867 52.7948C309.156 54.061 310.512 55.2605 311.933 56.3933C312.111 56.5266 312.111 56.6599 311.933 56.7932C305.38 59.1362 298.824 61.4912 292.267 63.8569C288.228 61.9137 285.761 58.7817 284.867 54.4608C284.673 53.308 284.495 52.1538 284.333 50.9956C284.481 44.4103 284.504 37.8131 284.4 31.2038C281.201 31.0692 277.979 31.0692 274.733 31.2038C274.713 31.0639 274.736 30.9306 274.8 30.804C285.195 23.3218 295.528 15.7689 305.8 8.14678Z" fill="#EC1D2E"/>
<path opacity="0.983" fill-rule="evenodd" clip-rule="evenodd" d="M99.1333 56.6597C92.6552 58.7855 86.1885 61.0072 79.7333 63.3236C78.1285 62.5772 76.5952 61.7109 75.1333 60.7247C73.7488 59.6091 72.7932 58.2097 72.2667 56.5264C71.9451 55.4069 71.7005 54.274 71.5333 53.1278C71.6004 48.4871 71.6448 43.6891 71.6667 38.7338C71.5777 38.0234 71.4889 37.3117 71.4 36.6014C71.4444 36.5574 71.4889 36.5121 71.5333 36.4681C71.4236 34.8568 71.3569 33.2348 71.3333 31.6035C71.3225 30.4946 71.0559 29.4284 70.5333 28.4048C69.6613 26.8401 68.5947 25.418 67.3333 24.1399C67.1988 23.9373 67.1321 23.7147 67.1333 23.4735C73.4231 21.2838 79.7343 18.9954 86.0667 16.6097C86.7612 16.4938 87.4279 16.5831 88.0667 16.8763C89.4992 17.6706 90.588 18.8035 91.3333 20.2748C93.012 24.1306 93.8343 28.1729 93.8 32.4031C93.4388 37.5143 93.4611 42.6229 93.8667 47.7301C94.0977 50.1691 94.8977 52.3908 96.2667 54.394C97.0357 55.3216 97.9913 55.9426 99.1333 56.2598C99.1333 56.3931 99.1333 56.5264 99.1333 56.6597Z" fill="#EC1D2E"/>
<path opacity="0.984" fill-rule="evenodd" clip-rule="evenodd" d="M122.867 16.543C124.606 16.5683 126.006 17.2787 127.067 18.6754C128.04 20.2028 128.818 21.8021 129.4 23.4734C134.62 21.313 139.864 19.2472 145.133 17.276C148.761 23.0842 152.405 28.8818 156.067 34.6687C155.9 34.93 155.679 35.1299 155.4 35.2685C150.04 38.058 144.707 40.8795 139.4 43.7316C137.472 40.7889 135.561 37.8341 133.667 34.8687C132.591 35.1685 131.524 35.5231 130.467 35.9349C129.99 40.6876 130.19 45.4189 131.067 50.129C131.459 51.8549 132.214 53.4103 133.333 54.7937C134.117 55.5147 134.984 56.0918 135.933 56.5263C135.227 56.7875 134.537 57.0981 133.867 57.4593C128.365 59.3051 122.854 61.2603 117.333 63.3235C115.66 62.5651 114.082 61.6548 112.6 60.5913C111.299 59.4318 110.388 58.0323 109.867 56.393C109.504 54.8737 109.26 53.341 109.133 51.7949C109.292 48.7229 109.38 45.7908 109.4 42.9986C109.377 38.8204 109.221 34.6221 108.933 30.4039C108.655 29.4163 108.255 28.4833 107.733 27.605C106.798 26.2682 105.798 24.9808 104.733 23.74C105.06 23.5041 105.416 23.3042 105.8 23.1402C111.557 21.0531 117.246 18.854 122.867 16.543Z" fill="#EC1D2E"/>
<path opacity="0.982" fill-rule="evenodd" clip-rule="evenodd" d="M247.933 16.9429C248.625 17.1548 249.292 17.444 249.933 17.8092C257.261 21.8475 264.551 25.9351 271.8 30.0707C269.943 32.0166 268.009 33.8612 266 35.6018C261.865 33.4587 257.844 31.1263 253.933 28.6047C253 28.1702 252.023 28.0369 251 28.2048C250.244 28.574 249.999 29.1738 250.267 30.0041C250.701 30.7664 251.301 31.3662 252.067 31.8033C257.356 35.2472 262.689 38.6232 268.067 41.9325C269.817 42.9974 271.307 44.3515 272.533 45.9974C273.929 48.6657 273.507 50.998 271.267 52.9945C270.644 53.4837 270.023 53.9714 269.4 54.4606C266.385 56.3438 263.319 58.1217 260.2 59.7917C255.749 62.132 251.283 64.4204 246.8 66.6555C238.783 61.9055 230.804 57.1075 222.867 52.2615C224.781 50.237 226.759 48.2818 228.8 46.3973C233.88 49.1908 238.88 52.1002 243.8 55.127C244.908 55.3202 245.864 55.031 246.667 54.2607C246.727 53.9914 246.837 53.7475 247 53.5276C246.539 52.5414 245.828 51.7857 244.867 51.2619C238.373 47.6128 232.017 43.7477 225.8 39.6667C224.428 38.6512 223.472 37.341 222.933 35.735C222.655 33.6826 223.3 31.9726 224.867 30.6038C225.4 30.16 225.933 29.7149 226.467 29.2711C233.659 25.2114 240.813 21.1011 247.933 16.9429Z" fill="#EC1D2E"/>
<path opacity="0.986" fill-rule="evenodd" clip-rule="evenodd" d="M350.867 16.943C351.269 16.9217 351.669 16.943 352.067 17.0097C356.177 18.1718 360.177 19.5939 364.067 21.2745C369.94 23.7229 374.763 27.5213 378.533 32.6698C379.068 33.6454 379.468 34.6676 379.733 35.7352C379.823 38.6673 379.823 41.5994 379.733 44.5315C379.444 48.7311 377.688 52.1737 374.467 54.8605C371.615 57.1143 368.571 58.9588 365.333 60.3916C361.659 62.3774 357.813 63.8435 353.8 64.7897C349.303 63.8901 344.88 62.7346 340.533 61.3245C337.957 60.293 335.491 59.0268 333.133 57.5261C328.879 54.0142 325.789 49.6827 323.867 44.5315C321.923 37.777 323.679 31.9794 329.133 27.1388C334.256 23.335 339.833 20.5149 345.867 18.6756C347.503 18.0052 349.169 17.4281 350.867 16.943ZM348.2 29.0713C352.419 31.353 355.463 34.6396 357.333 38.9339C358.621 43.1188 358.132 47.1171 355.867 50.9289C347.772 47.1931 344.839 40.973 347.067 32.27C347.405 31.1891 347.783 30.1229 348.2 29.0713Z" fill="#EC1D2E"/>
<path opacity="0.984" fill-rule="evenodd" clip-rule="evenodd" d="M195.933 17.2093C196.617 17.2039 197.328 17.2266 198.067 17.2759C203.267 23.496 208.421 29.76 213.533 36.0681C213.515 36.1707 213.469 36.26 213.4 36.3346C205.189 40.2836 197.012 44.282 188.867 48.3296C190.669 50.0236 192.781 50.9352 195.2 51.0618C195.779 51.2524 196.379 51.3417 197 51.3284C200.645 51.1018 204.223 50.3901 207.733 49.1959C209.228 48.8707 210.717 48.4269 212.2 47.8632C212.348 48.0258 212.371 48.2043 212.267 48.3963C209.552 52.5785 206.885 56.7994 204.267 61.0577C202.451 61.9826 200.563 62.7156 198.6 63.2567C196.98 63.5619 195.359 63.8058 193.733 63.9898C190.796 63.8845 187.817 63.8845 184.8 63.9898C174.385 63.3327 166.675 58.3348 161.667 48.996C157.995 38.8416 160.705 30.601 169.8 24.273C172.535 22.4511 175.468 21.0517 178.6 20.0747C184.292 18.526 190.071 17.5718 195.933 17.2093ZM183.933 30.0039C184.375 29.9786 184.708 30.1559 184.933 30.537C186.464 32.5109 188.043 34.4434 189.667 36.3346C186.971 37.8487 184.283 39.3814 181.6 40.9327C180.365 38.4004 180.144 35.7789 180.933 33.0693C181.6 31.7152 182.6 30.693 183.933 30.0039Z" fill="#EC1D2E"/>
<path opacity="0.984" fill-rule="evenodd" clip-rule="evenodd" d="M511.933 36.4017C511.933 36.535 511.933 36.6682 511.933 36.8015C503.649 40.6999 495.428 44.6982 487.267 48.7965C489.537 50.8383 492.227 51.8153 495.333 51.7286C497.523 51.6273 499.723 51.3395 501.933 50.8623C504.927 50.116 507.86 49.2936 510.733 48.3967C510.753 48.5366 510.731 48.6699 510.667 48.7965C508.044 52.9721 505.423 57.149 502.8 61.3246C502.171 61.7271 501.527 62.1043 500.867 62.4575C498.239 63.5064 495.505 64.1515 492.667 64.39C488.776 64.3447 485.131 64.3447 481.733 64.39C472.559 63.3731 465.581 58.8417 460.8 50.7957C457.719 44.6369 457.696 38.5061 460.733 32.4033C462.987 28.9301 465.875 26.1086 469.4 23.9402C474.481 21.0521 479.971 19.2968 485.867 18.6757C486.804 18.5158 487.737 18.3372 488.667 18.1426C488.711 18.1866 488.756 18.2319 488.8 18.2759C490.049 18.1253 491.293 17.948 492.533 17.7428C492.667 17.7868 492.8 17.8321 492.933 17.8761C494.14 17.7268 495.317 17.6602 496.467 17.6761C501.609 23.9402 506.764 30.1816 511.933 36.4017ZM482.467 30.4042C482.643 30.3815 482.799 30.4255 482.933 30.5375C484.593 32.6859 486.305 34.797 488.067 36.8682C485.373 38.3369 482.685 39.8243 480 41.333C478.711 38.798 478.488 36.1764 479.333 33.4696C480.055 32.1048 481.099 31.0826 482.467 30.4042Z" fill="#EC1D2E"/>
<path opacity="0.984" fill-rule="evenodd" clip-rule="evenodd" d="M407.4 17.7427C408.552 18.7396 409.597 19.8498 410.533 21.0746C411.427 22.4101 412.315 23.7428 413.2 25.073C417.855 22.9005 422.632 21.1013 427.533 19.6752C437.067 17.2189 442.867 20.928 444.933 30.8039C445.056 36.4269 444.989 42.0459 444.733 47.6635C444.319 52.1017 446.052 55.367 449.933 57.4595C450.077 57.5741 450.1 57.7074 450 57.8593C443.744 60.2436 437.523 62.6866 431.333 65.1896C429.155 63.4116 427.199 61.4125 425.467 59.1921C424.836 57.8646 424.459 56.4652 424.333 54.9938C424.46 49.3202 424.504 43.7225 424.467 38.2008C424.001 35.8005 422.712 33.9559 420.6 32.6698C418.431 33.3628 416.252 34.0292 414.067 34.669C414.044 40.0894 414.067 45.5084 414.133 50.9288C414.48 52.8654 415.324 54.554 416.667 55.9934C417.377 56.7038 418.089 57.4155 418.8 58.1259C418.889 58.2151 418.889 58.3031 418.8 58.3924C412.617 60.4396 406.373 62.4827 400.067 64.5232C397.22 63.3437 395.197 61.3445 394 58.5257C393.911 58.1698 393.823 57.8153 393.733 57.4595C393.689 48.8404 393.644 40.2226 393.6 31.6036C391.887 29.4471 390.176 27.2934 388.467 25.1396C388.684 24.897 388.951 24.7198 389.267 24.6065C393.988 22.8672 398.7 21.1346 403.4 19.4086C404.759 18.8835 406.092 18.3291 407.4 17.7427Z" fill="#EC1D2E"/>
<path opacity="0.169" fill-rule="evenodd" clip-rule="evenodd" d="M99.1333 56.6597C99.311 56.749 99.311 56.749 99.1333 56.6597V56.6597Z" fill="#EC1D2D"/>
</svg>
