<svg width="329" height="80" viewBox="0 0 329 80" fill="none" xmlns="http://www.w3.org/2000/svg">
<path fill-rule="evenodd" clip-rule="evenodd" d="M2.73853 1.15039H326.394V78.8493H2.73853V1.15039Z" fill="#28539C"/>
<path fill-rule="evenodd" clip-rule="evenodd" d="M110.225 27.5813C103.051 27.4485 96.4073 33.0269 94.9458 40.7304C93.2186 48.4339 98.1346 54.942 106.372 54.8092C114.743 54.5435 121.12 51.3559 123.113 41.2617C124.973 32.361 117.931 27.7141 110.225 27.5813ZM112.484 35.9489C111.554 39.9335 110.624 44.0508 109.295 48.0354C108.897 49.6292 107.834 51.4887 106.239 51.2249C104.911 50.9574 104.911 48.8342 105.043 47.2403C105.841 42.9883 107.036 38.7399 108.365 34.6226C109.029 32.6303 109.694 30.9018 111.421 31.0365C113.68 31.3003 112.75 34.3551 112.484 35.9489ZM79.9323 27.5813C72.6248 27.4485 66.1145 33.0269 64.5182 40.7304C62.9239 48.4339 67.7088 54.942 76.0774 54.8092C84.3149 54.5435 90.9581 51.3559 92.8182 41.2617C94.6801 32.361 87.5055 27.7141 79.9323 27.5813ZM82.1909 35.9489C81.2609 39.9335 80.198 44.0508 79.0022 48.0354C78.6036 49.6292 77.5407 51.4887 75.8135 51.2249C74.4849 50.9574 74.4849 48.8342 74.8834 47.2403C75.5478 42.9883 76.7435 38.7399 77.9393 34.6226C78.8694 32.6303 79.2679 30.9018 80.9952 31.0365C83.3867 31.3003 82.4567 34.3551 82.1909 35.9489ZM49.1079 47.6369C48.8422 48.5667 48.1779 49.6292 46.7164 49.4964C44.8563 49.6292 44.8563 48.0354 44.9873 47.1057L48.3089 34.7535C48.7075 33.2925 49.6375 32.0972 52.0291 32.23C53.7563 32.23 54.9521 33.1597 56.1478 34.3551L58.938 30.6362C56.4136 28.7767 53.6234 27.9798 50.4347 27.847C39.9385 27.9798 34.3582 34.2223 32.8967 40.0681C31.0366 45.5118 32.8967 54.2779 42.1972 54.6782H58.6722L62.3924 39.9353H50.9662L49.1079 47.6369ZM169.349 27.05C169.482 26.9172 169.482 26.7844 169.482 26.6516C169.215 25.1906 169.215 23.9952 169.082 22.667H169.215L168.552 21.6045L159.65 27.5813C160.182 29.1752 161.245 30.9018 161.909 32.4956L169.349 27.05ZM168.552 48.301C169.215 47.5023 170.012 46.84 170.813 46.0413L171.61 45.379L172.54 44.7149L173.47 44.0508L174.533 43.2539L175.463 42.7227L176.659 42.0586L177.851 41.3963L179.181 40.865L179.314 40.7322L177.188 36.8805C176.326 37.8754 175.394 38.8075 174.398 39.6697L172.538 37.8102L171.475 36.482C171.342 35.9507 170.942 35.4195 170.813 35.021L163.238 39.6697L168.154 48.5685L168.552 48.301ZM169.617 34.3551L162.575 34.0894C162.841 35.0192 162.841 35.9489 162.575 37.1443C162.575 37.5427 162.442 38.2068 162.177 39.0037L169.617 34.3551ZM169.349 28.5111L163.238 33.0269L170.012 33.2925C169.883 32.8941 169.883 32.4956 169.748 31.9643L169.48 30.3705C169.349 29.7064 169.349 29.0423 169.349 28.5111ZM223.026 42.8555H229.138L230.469 37.6755H224.222L225.42 32.7613H234.984L236.182 27.9779H214.523L208.015 54.6763H229.538L230.998 49.3636H221.434L223.026 42.8555ZM206.819 27.9779L199.375 36.8786L196.987 27.9779H183.832L188.351 42.8555L185.428 54.6763H198.183L200.705 43.5196L213.327 27.9779H206.819ZM289.19 27.9779H270.59L263.151 54.6763H275.906L278.829 44.8478L281.352 54.6763H293.844L291.185 44.4493C294.909 42.3242 296.369 40.1973 297.164 35.6833C297.83 28.9095 292.514 28.1126 289.19 27.9779ZM284.675 33.0269C284.542 35.152 284.013 37.1443 283.479 39.1366C283.082 40.1991 282.95 41.5273 281.089 41.5273H279.493L281.619 31.3002H283.612C284.542 31.1674 285.075 32.0972 284.675 33.0269ZM247.739 27.9779L231.528 54.6763H237.245L239.9 50.1605H248.536L249.199 54.6763H261.291L258.1 27.9779H247.739ZM242.958 45.2462L247.207 38.2068L247.874 45.2462H242.958ZM145.168 27.9779H129.092L122.316 54.6763H137.861C149.42 54.5435 153.539 47.1057 154.734 39.8006C155.797 32.4956 151.147 28.3782 145.168 27.9779ZM143.84 35.2848L140.518 47.5041C140.119 49.098 139.322 50.4261 137.196 50.559H135.203L140.119 32.0972H142.777C143.707 32.0972 144.371 33.4254 143.84 35.2848Z" fill="#F4CF53"/>
<path fill-rule="evenodd" clip-rule="evenodd" d="M189.148 26.1204C189.015 25.1906 188.085 24.7922 187.288 24.3937C189.148 23.8625 190.873 23.5968 191.274 23.0656C191.407 22.9327 191.006 22.4015 190.078 21.6045L199.777 21.4717C203.23 21.4717 207.483 18.2841 207.616 15.0964C206.686 15.6277 205.093 16.2918 203.763 16.4246L183.302 16.159C179.717 15.7605 175.729 16.159 173.736 17.3544C170.68 19.6123 170.942 23.0656 171.475 26.5188C171.075 30.3706 172.005 34.7536 174.398 36.8787C175.729 35.5505 176.792 34.2223 177.188 32.0972C177.589 32.7613 178.251 33.1598 179.049 33.4254C179.582 32.0972 179.582 30.9019 179.582 29.5737C179.979 30.1049 180.512 30.6362 181.309 30.9019C181.972 29.0424 182.106 27.4486 182.106 25.8547C184.498 27.0501 187.153 27.1829 189.148 26.1204ZM176.258 29.308C175.461 28.9096 174.799 28.2455 173.869 27.847C173.869 26.9173 173.869 25.8548 173.335 25.0578C174.265 25.7219 175.328 25.9876 176.526 26.1204C176.258 27.1829 176.126 28.2455 176.258 29.308ZM182.104 21.8702C181.307 23.0655 180.377 23.3312 178.914 23.0656C177.587 23.8625 176.258 23.7297 174.799 22.9327C176.126 22.4015 177.321 21.7374 177.851 20.6748C179.582 21.0733 180.907 21.0733 181.44 19.3466C182.767 20.1435 184.095 20.0107 185.426 19.4795C185.027 20.9405 183.964 21.7374 182.104 21.8702ZM179.715 42.1914L178.519 42.8555L177.323 43.254L176.26 43.9181L175.33 44.5803L174.4 45.2444L173.337 45.9067L172.675 46.5708L171.745 47.102L170.281 48.563L168.822 50.0241C167.039 51.9156 165.222 53.7754 163.372 55.6024L162.044 57.0634L161.247 57.7257L160.449 58.3898L159.652 59.1867L158.855 59.718L157.792 60.3821L156.995 61.0462L155.797 61.4501L154.867 62.1124L153.539 62.6437L152.609 63.1749L153.937 64.9034C167.089 59.4579 167.757 50.0277 181.309 43.9181L180.113 42.0568L179.715 42.1914ZM154.07 60.7861L155.266 60.2548L156.063 59.5907L157.126 59.1922L157.923 58.53L158.853 57.8659L159.518 57.2036L161.112 56.0083L162.441 54.6801C164.035 53.0863 165.495 51.2268 167.089 49.633L167.357 49.3673L161.909 39.6697C160.182 43.3905 155.797 48.967 155.266 54.8111C152.874 56.6705 149.686 58.7956 151.679 61.8505H151.811L153.007 61.3192L154.07 60.7861Z" fill="#F4CF53"/>
</svg>
