<svg width="87" height="80" viewBox="0 0 87 80" fill="none" xmlns="http://www.w3.org/2000/svg">
<g clip-path="url(#clip0_4623_21834)">
<path opacity="0.978" fill-rule="evenodd" clip-rule="evenodd" d="M40.7873 0.0964752C50.1796 -0.481073 58.7479 1.84288 66.4933 7.06836C72.8087 11.5532 77.4487 17.3685 80.412 24.5141C82.7081 25.4493 84.3447 27.0558 85.3207 29.3334C86.1842 31.8967 86.6796 34.5312 86.8062 37.237C87.1524 41.2024 86.8721 45.1221 85.9666 48.9961C85.2102 51.9866 83.3908 54.0428 80.5089 55.1647C77.1774 63.4378 71.6874 69.8957 64.0389 74.5382C56.3704 78.8878 48.1031 80.6227 39.2371 79.7431C27.6024 78.5042 18.2909 73.2672 11.3029 64.0322C9.35946 61.2917 7.75555 58.3575 6.49105 55.229C4.83669 54.5791 3.46956 53.551 2.38971 52.1447C1.44544 50.6714 0.842636 49.065 0.581249 47.3254C-0.337903 41.6672 -0.122631 36.0554 1.22713 30.49C1.99088 27.6421 3.74548 25.6715 6.49105 24.5784C10.9055 14.21 18.3547 6.89538 28.8385 2.63463C32.7021 1.19986 36.6846 0.353812 40.7873 0.0964752Z" fill="#FDFDFE"/>
<path opacity="0.875" fill-rule="evenodd" clip-rule="evenodd" d="M41.627 2.21702C40.9721 2.30461 40.3049 2.34745 39.6248 2.34553C40.279 2.253 40.9469 2.21016 41.627 2.21702Z" fill="#324C8D"/>
<path fill-rule="evenodd" clip-rule="evenodd" d="M84.7718 36.5943C84.8616 37.9849 84.9049 39.3772 84.901 40.771C84.9165 41.3092 84.8952 41.8446 84.8364 42.3774C84.7557 43.0091 84.6911 43.6517 84.6426 44.3051C84.5238 45.337 84.33 46.3436 84.0613 47.3252C84.0013 47.3939 83.9793 47.4795 83.9968 47.5823C83.9251 47.7171 83.8818 47.8671 83.8676 48.0321C83.7416 48.3698 83.6125 48.7125 83.4801 49.0602C82.9214 50.5454 81.9958 51.7556 80.7028 52.6907C80.2339 53.0095 79.7391 53.2559 79.2172 53.4296C79.0183 53.409 78.8678 53.4733 78.7651 53.6224C74.9409 63.4358 68.2018 70.5143 58.5491 74.8594C57.5984 75.189 56.6618 75.5424 55.7395 75.9196C54.5666 76.2749 53.393 76.5962 52.2195 76.8835C51.9883 76.8867 51.7732 76.9297 51.5736 77.012C50.8741 77.1604 50.1636 77.2889 49.4422 77.3975C49.1057 77.4046 48.7828 77.4476 48.4734 77.526C39.597 78.6325 31.3085 76.9509 23.607 72.4818C16.3867 67.9549 11.2519 61.7329 8.20277 53.8152C5.79235 53.0342 4.18844 51.4492 3.39097 49.0602C3.35519 48.8516 3.2906 48.6588 3.19721 48.4819C2.80722 47.2502 2.54887 45.9864 2.42215 44.6907C2.37326 43.8445 2.30867 43.0092 2.22839 42.1847C2.06033 38.4612 2.42628 34.7985 3.32638 31.1967C3.59365 30.2572 3.99196 29.3791 4.52126 28.5622C5.05372 27.9038 5.66731 27.3362 6.36202 26.8594C6.96443 26.5631 7.57801 26.2953 8.20277 26.0562C11.6622 17.3777 17.5074 10.8021 25.7384 6.32925C26.5722 6.02146 27.3688 5.64665 28.1282 5.20475C29.6902 4.60832 31.262 4.0514 32.8431 3.53407C34.2589 3.20738 35.6798 2.91821 37.1059 2.6666C37.3345 2.65037 37.5496 2.60753 37.7518 2.53808C38.3854 2.49436 39.0099 2.4301 39.6248 2.34531C40.3049 2.34723 40.9721 2.30439 41.627 2.2168C51.0827 1.77693 59.5438 4.40077 67.0101 10.0883C72.3503 14.4065 76.2798 19.7505 78.7974 26.1204C80.0672 26.4736 81.1439 27.1376 82.0268 28.1124C82.7379 29.0349 83.2979 30.0416 83.7061 31.1325C84.2809 32.9097 84.6362 34.7303 84.7718 36.5943Z" fill="#042976"/>
<path opacity="0.58" fill-rule="evenodd" clip-rule="evenodd" d="M37.7516 2.5381C37.5494 2.60755 37.3344 2.65039 37.1057 2.66662C37.1328 2.62025 37.1755 2.58812 37.2349 2.57023C37.406 2.53827 37.5779 2.52756 37.7516 2.5381Z" fill="#8F9FC2"/>
<path fill-rule="evenodd" clip-rule="evenodd" d="M46.2128 4.20882C46.2987 4.20882 46.3853 4.20882 46.4712 4.20882C46.9976 4.29949 47.5356 4.36375 48.0859 4.40159C48.7382 4.45763 49.3841 4.54335 50.0235 4.65862C50.2024 4.73297 50.3962 4.77583 50.6048 4.78714C60.3259 6.7356 67.9583 11.7905 73.5012 19.9518C74.8828 22.0792 76.0453 24.3281 76.989 26.6988C77.1097 27.0375 77.2176 27.3803 77.3119 27.7269C78.0398 27.9546 78.7613 28.2009 79.4756 28.4659C80.4063 29.1169 81.0735 29.9737 81.4778 31.0361C81.9984 32.3941 82.3427 33.7971 82.5112 35.245C82.539 35.8577 82.6036 36.4574 82.705 37.0442C83.0047 40.3859 82.7999 43.7058 82.0914 47.004C81.8266 48.0078 81.461 48.9717 80.9934 49.8956C80.6175 50.5906 80.0905 51.1368 79.411 51.5341C78.7303 51.7761 78.0411 52.001 77.3442 52.2088C73.9294 61.5068 67.7503 68.3071 58.8075 72.6104C56.7251 73.5511 54.5724 74.3004 52.3487 74.8594C50.1591 75.3645 47.9418 75.6748 45.6961 75.7911C43.4956 75.8348 41.2996 75.7706 39.1081 75.5984C31.2478 74.7187 24.4446 71.6022 18.6983 66.249C14.6145 62.2888 11.5896 57.6302 9.62372 52.2731C9.33727 52.1459 9.04663 52.0388 8.75178 51.9518C8.62164 51.8603 8.47095 51.8175 8.29967 51.8233C7.23668 51.4822 6.45084 50.8182 5.94221 49.8313C5.18291 48.4045 4.72007 46.8838 4.55356 45.2691C4.48084 44.6159 4.39468 43.9733 4.29521 43.3414C4.0262 40.8527 4.04771 38.3681 4.3598 35.8875C4.45868 35.5823 4.50176 35.261 4.48898 34.9237C4.62726 34.118 4.79951 33.3255 5.00568 32.5462C5.09765 32.4167 5.14067 32.2668 5.13486 32.0964C5.44481 30.8473 6.04761 29.7656 6.94332 28.8514C7.75312 28.265 8.65735 27.9116 9.65601 27.7912C12.0132 21.0217 16.0608 15.4635 21.7986 11.1165C25.4027 8.44561 29.3856 6.52857 33.7473 5.36545C33.9185 5.37123 34.0696 5.32844 34.1994 5.23694C35.7799 4.80693 37.3946 4.50704 39.0435 4.33734C39.5518 4.33984 40.0472 4.29698 40.5291 4.20882C40.615 4.20882 40.7015 4.20882 40.7874 4.20882C42.5959 4.12831 44.4043 4.12831 46.2128 4.20882Z" fill="#FEFDFE"/>
<path opacity="0.831" fill-rule="evenodd" clip-rule="evenodd" d="M46.2127 4.20888C44.4043 4.12836 42.5958 4.12836 40.7874 4.20888C42.5958 4.04496 44.4043 4.04496 46.2127 4.20888Z" fill="#8693BD"/>
<path opacity="0.835" fill-rule="evenodd" clip-rule="evenodd" d="M40.529 4.20867C40.0472 4.29684 39.5518 4.33969 39.0435 4.33719C39.5246 4.2426 40.02 4.19974 40.529 4.20867Z" fill="#5969A5"/>
<path opacity="0.988" fill-rule="evenodd" clip-rule="evenodd" d="M46.4709 4.20861C46.947 4.2063 47.4204 4.23843 47.8919 4.305C47.972 4.31991 48.0366 4.35203 48.0856 4.40138C47.5354 4.36354 46.9973 4.29928 46.4709 4.20861Z" fill="#5765A3"/>
<path opacity="0.98" fill-rule="evenodd" clip-rule="evenodd" d="M50.0234 4.65841C50.2385 4.6401 50.4323 4.68296 50.6047 4.78692C50.3961 4.77561 50.2023 4.73275 50.0234 4.65841Z" fill="#8995C0"/>
<path opacity="0.875" fill-rule="evenodd" clip-rule="evenodd" d="M34.1994 5.23684C34.0696 5.32835 33.9185 5.37114 33.7473 5.36536C33.8771 5.27386 34.0283 5.23106 34.1994 5.23684Z" fill="#9BA7CA"/>
<path fill-rule="evenodd" clip-rule="evenodd" d="M49.0546 6.71508C49.3117 6.84032 49.5913 6.90457 49.8943 6.90785C58.6569 8.74451 65.6434 13.2854 70.8531 20.5303C72.2062 22.4988 73.3688 24.5764 74.3408 26.7633C74.4138 26.9525 74.4674 27.1453 74.5023 27.3416C74.1173 27.2777 73.7298 27.2349 73.3397 27.2131C72.885 27.0761 72.4116 27.0118 71.9188 27.0203C71.8974 27.0203 71.8755 27.0203 71.8542 27.0203C71.6313 26.944 71.395 26.9012 71.1437 26.8918C70.6477 26.856 70.1529 26.8131 69.6582 26.7633C69.3475 26.693 69.0246 26.6502 68.6894 26.6348C65.469 26.2643 62.2396 25.9858 59.0012 25.7994C58.54 25.7219 58.0666 25.679 57.5802 25.6709C55.4275 25.5736 53.2742 25.4879 51.1214 25.4139C50.6809 25.3606 50.2288 25.3285 49.7651 25.3175C47.9786 25.2854 46.1914 25.2746 44.4043 25.2854C39.6635 25.2593 34.9266 25.3879 30.1949 25.6709C29.6448 25.6858 29.1066 25.7287 28.5802 25.7994C25.946 25.9384 23.3194 26.1526 20.7005 26.442C19.9337 26.491 19.1802 26.5767 18.4399 26.699C17.6721 26.7387 16.9186 26.8243 16.1793 26.956C16.1578 26.956 16.1363 26.956 16.1148 26.956C15.4545 27.0023 14.8087 27.088 14.1771 27.2131C14.1125 27.2131 14.0479 27.2131 13.9834 27.2131C13.4984 27.2694 13.014 27.3336 12.5301 27.4058C12.4412 27.394 12.3874 27.3512 12.3687 27.2773C15.9321 18.902 21.8742 12.8083 30.1949 8.9962C30.9932 8.62808 31.8109 8.31752 32.6493 8.06448C32.9503 8.02869 33.2306 7.94303 33.4889 7.80745C35.4479 7.16051 37.4721 6.73217 39.5602 6.52231C39.8528 6.50496 40.1324 6.4621 40.3998 6.3938C42.1166 6.27775 43.8391 6.24562 45.5669 6.29741C46.7288 6.43421 47.8914 6.57346 49.0546 6.71508Z" fill="#FF6319"/>
<path fill-rule="evenodd" clip-rule="evenodd" d="M40.3997 6.39334C40.1323 6.46164 39.8526 6.5045 39.5601 6.52185C39.821 6.41409 40.1013 6.37123 40.3997 6.39334Z" fill="#FFA478"/>
<path fill-rule="evenodd" clip-rule="evenodd" d="M49.0547 6.71484C49.3511 6.73939 49.6315 6.80365 49.8943 6.90761C49.5914 6.90434 49.3117 6.84008 49.0547 6.71484Z" fill="#FF9664"/>
<path fill-rule="evenodd" clip-rule="evenodd" d="M33.4888 7.80713C33.2305 7.94271 32.9501 8.02837 32.6492 8.06416C32.9075 7.92857 33.1878 7.84292 33.4888 7.80713Z" fill="#FF8F59"/>
<path fill-rule="evenodd" clip-rule="evenodd" d="M44.4043 25.2853C46.1914 25.2745 47.9786 25.2853 49.7651 25.3174C50.2288 25.3284 50.681 25.3605 51.1214 25.4138C48.8718 25.3859 46.6326 25.343 44.4043 25.2853Z" fill="#FFA87E"/>
<path opacity="0.98" fill-rule="evenodd" clip-rule="evenodd" d="M30.1948 25.6709C30.1455 25.7202 30.0809 25.7524 30.001 25.7673C29.5278 25.7994 29.0542 25.8101 28.5801 25.7994C29.1065 25.7287 29.6447 25.6858 30.1948 25.6709Z" fill="#FED5C4"/>
<path fill-rule="evenodd" clip-rule="evenodd" d="M57.5801 25.6709C58.0664 25.679 58.5399 25.7219 59.001 25.7994C58.5127 25.8116 58.0393 25.7688 57.5801 25.6709Z" fill="#FFA478"/>
<path opacity="0.98" fill-rule="evenodd" clip-rule="evenodd" d="M20.7005 26.4419C20.6735 26.4883 20.6305 26.5204 20.5713 26.5383C19.8616 26.6054 19.1511 26.659 18.4399 26.6989C19.1802 26.5766 19.9337 26.4909 20.7005 26.4419Z" fill="#FED3C1"/>
<path opacity="0.996" fill-rule="evenodd" clip-rule="evenodd" d="M68.6892 26.6348C69.0244 26.6503 69.3474 26.693 69.658 26.7633C69.3176 26.7833 68.9947 26.7405 68.6892 26.6348Z" fill="#FCC7B0"/>
<path opacity="0.996" fill-rule="evenodd" clip-rule="evenodd" d="M18.4398 26.6987C17.7017 26.8432 16.9482 26.9288 16.1792 26.9558C16.9185 26.824 17.672 26.7384 18.4398 26.6987Z" fill="#F9D7C9"/>
<path fill-rule="evenodd" clip-rule="evenodd" d="M71.1436 26.8916C71.3948 26.901 71.6312 26.9438 71.854 27.0201C71.5983 27.0361 71.3619 26.9933 71.1436 26.8916Z" fill="#FFA275"/>
<path opacity="0.98" fill-rule="evenodd" clip-rule="evenodd" d="M16.1146 26.9561C16.0654 27.0054 16.0008 27.0375 15.9209 27.0524C15.3411 27.1272 14.7598 27.1807 14.177 27.2131C14.8085 27.088 15.4544 27.0023 16.1146 26.9561Z" fill="#FDD8C9"/>
<path fill-rule="evenodd" clip-rule="evenodd" d="M71.9187 27.0203C72.4115 27.0118 72.8849 27.076 73.3396 27.213C72.8533 27.1794 72.3792 27.1151 71.9187 27.0203Z" fill="#FF9A68"/>
<path opacity="0.996" fill-rule="evenodd" clip-rule="evenodd" d="M13.9834 27.2129C13.9564 27.2593 13.9134 27.2914 13.8542 27.3093C13.3392 27.384 12.8225 27.4375 12.3041 27.4699C12.2888 27.387 12.3103 27.3227 12.3687 27.2771C12.3875 27.351 12.4413 27.3938 12.5301 27.4057C13.014 27.3334 13.4985 27.2692 13.9834 27.2129Z" fill="#FBD8CA"/>
<path opacity="0.98" fill-rule="evenodd" clip-rule="evenodd" d="M19.0857 29.6546C19.7849 29.5801 20.4954 29.5694 21.2171 29.6225C21.3177 29.636 21.4038 29.6681 21.4754 29.7189C20.6798 29.6705 19.8832 29.6491 19.0857 29.6546Z" fill="#8F94C4"/>
<path fill-rule="evenodd" clip-rule="evenodd" d="M19.0857 29.6547C19.8832 29.6491 20.6798 29.6705 21.4755 29.7189C22.454 29.8062 23.4228 29.9562 24.3819 30.1687C24.5726 30.2914 24.7879 30.3557 25.0278 30.3615C25.5276 30.4987 26.0227 30.6486 26.5133 30.8113C26.6123 30.9234 26.7415 30.9877 26.9009 31.0041C27.0106 30.9938 27.1183 31.0044 27.2238 31.0362C27.5797 31.2004 27.9242 31.3824 28.2572 31.5824C28.2786 32.9429 28.257 34.2923 28.1926 35.6306C28.0428 35.5989 27.9137 35.5347 27.8051 35.4378C27.6104 35.2981 27.395 35.191 27.1592 35.1165C26.2675 34.7055 25.3418 34.3842 24.3819 34.1527C24.2464 34.0812 24.0956 34.0383 23.9298 34.0241C21.9479 33.6105 20.0964 33.8997 18.3752 34.8916C16.0826 36.695 15.1891 39.0404 15.6948 41.9278C15.9969 43.0118 16.5674 43.9222 17.4064 44.6587C17.6654 44.8645 17.9453 45.0251 18.2461 45.1406C18.5422 45.3102 18.8651 45.4173 19.2149 45.4619C20.4223 45.6234 21.6065 45.5163 22.7672 45.1406C22.8316 44.2309 22.8531 43.3099 22.8318 42.3776C21.9276 42.3776 21.0234 42.3776 20.1191 42.3776C20.1191 41.0924 20.1191 39.8073 20.1191 38.5221C23.2624 38.5221 26.4057 38.5221 29.549 38.5221C29.549 42.2062 29.549 45.8903 29.549 49.5743C27.3099 49.5743 25.0709 49.5743 22.8318 49.5743C22.8318 49.3816 22.8318 49.1888 22.8318 48.996C22.0897 49.1869 21.3362 49.3154 20.5712 49.3816C20.2367 49.4039 19.9137 49.4467 19.6024 49.5101C17.2926 49.6914 15.1181 49.2523 13.079 48.1928C10.6245 46.6472 9.21428 44.4303 8.84852 41.5422C8.79511 40.6958 8.80589 39.8604 8.88081 39.0362C8.97699 38.7961 9.02007 38.5391 9.00999 38.2651C9.98708 34.1334 12.506 31.4025 16.5668 30.0723C17.0788 29.9469 17.5955 29.8505 18.1169 29.7832C18.4524 29.7677 18.7753 29.7249 19.0857 29.6547Z" fill="#323493"/>
<path opacity="0.992" fill-rule="evenodd" clip-rule="evenodd" d="M19.0858 29.6547C18.7754 29.7249 18.4524 29.7677 18.1169 29.7832C18.4227 29.6775 18.7456 29.6347 19.0858 29.6547Z" fill="#8186BC"/>
<path fill-rule="evenodd" clip-rule="evenodd" d="M19.3441 29.8474C22.3379 29.7815 25.2444 30.4134 28.0635 31.743C28.0705 32.8577 28.0382 34.0464 27.9666 35.3093C25.9042 34.1324 23.7082 33.5756 21.3786 33.6386C17.9443 34.1637 15.942 36.1343 15.3719 39.5503C15.1494 41.1644 15.4939 42.6423 16.4053 43.984C17.6041 45.3423 19.0897 45.9421 20.8619 45.7832C21.5768 45.6966 22.2764 45.5359 22.961 45.3013C23.0207 44.2571 23.0422 43.2183 23.0256 42.1848C22.1055 42.2056 21.1905 42.1842 20.2806 42.1205C20.2273 40.9913 20.2381 39.8668 20.3129 38.747C23.2711 38.7306 26.2852 38.7199 29.3552 38.7149C29.3552 42.2704 29.3552 45.826 29.3552 49.3816C27.2668 49.3923 25.1784 49.3816 23.0902 49.3495C23.0278 49.161 23.0278 48.9897 23.0902 48.8354C23.0509 48.7795 22.9971 48.7474 22.9287 48.739C20.454 49.3791 18.0535 49.4541 15.7271 48.9639C12.0794 48.0337 9.89414 45.7311 9.17147 42.0563C8.67382 38.2935 9.80411 35.1127 12.5623 32.5141C14.5274 30.8878 16.788 29.9988 19.3441 29.8474Z" fill="#002876"/>
<path opacity="0.969" fill-rule="evenodd" clip-rule="evenodd" d="M24.3821 30.1685C24.6186 30.1828 24.8339 30.247 25.028 30.3612C24.7881 30.3554 24.5727 30.2912 24.3821 30.1685Z" fill="#9498C6"/>
<path opacity="0.992" fill-rule="evenodd" clip-rule="evenodd" d="M26.5134 30.811C26.6728 30.8274 26.8019 30.8917 26.901 31.0038C26.7416 30.9874 26.6124 30.9232 26.5134 30.811Z" fill="#7E83BB"/>
<path fill-rule="evenodd" clip-rule="evenodd" d="M77.4733 32.8673C77.5153 34.026 77.4726 35.1611 77.3441 36.2729C77.0858 36.1873 76.8274 36.1015 76.5691 36.0159C76.4121 35.8633 76.2183 35.7776 75.9878 35.7589C75.4575 35.6335 74.9188 35.6014 74.3731 35.6625C74.2051 35.7192 74.065 35.8156 73.9532 35.9516C73.8602 36.7822 73.8279 37.6175 73.8564 38.4576C74.8136 38.5216 75.7824 38.543 76.7628 38.5219C76.7628 39.8713 76.7628 41.2207 76.7628 42.5701C75.7727 42.5701 74.7819 42.5701 73.7918 42.5701C73.7918 44.9047 73.7918 47.2395 73.7918 49.5741C71.6604 49.5741 69.529 49.5741 67.3976 49.5741C67.3976 47.2823 67.3976 44.9905 67.3976 42.6986C66.3835 42.7404 65.3927 42.6976 64.4265 42.5701C64.4911 41.2318 64.5124 39.8824 64.4911 38.5219C65.4812 38.5219 66.472 38.5219 67.4621 38.5219C67.4621 37.1082 67.4621 35.6946 67.4621 34.2809C67.5235 33.0525 68.1268 32.2065 69.2706 31.7428C69.6491 31.6165 70.0366 31.5309 70.4332 31.4858C71.1004 31.4429 71.7682 31.4429 72.4354 31.4858C74.1619 31.8078 75.8411 32.2683 77.4733 32.8673Z" fill="#2E3192"/>
<path fill-rule="evenodd" clip-rule="evenodd" d="M70.3041 31.7107C72.6977 31.6578 75.0119 32.1076 77.2473 33.0601C77.3009 34.0461 77.2906 35.0314 77.215 36.0159C76.3005 35.5233 75.3316 35.3412 74.3086 35.4698C73.8913 35.5926 73.6543 35.871 73.5981 36.3051C73.6194 37.0976 73.6414 37.8901 73.6627 38.6826C74.6115 38.6906 75.57 38.7227 76.5369 38.779C76.5801 39.9785 76.5801 41.1779 76.5369 42.3774C75.57 42.3902 74.5902 42.3902 73.5981 42.3774C73.5981 44.712 73.5981 47.0467 73.5981 49.3814C71.5959 49.3814 69.5936 49.3814 67.5914 49.3814C67.6024 47.0895 67.5914 44.7976 67.5591 42.5059C66.7091 42.5036 65.7403 42.4822 64.6527 42.4416C64.6313 41.1566 64.6423 39.9143 64.685 38.7147C65.6764 38.7355 66.6672 38.7355 67.656 38.7147C67.645 37.151 67.656 35.5874 67.6883 34.024C67.853 33.0677 68.3807 32.393 69.2707 31.9999C69.6175 31.8816 69.9624 31.7853 70.3041 31.7107Z" fill="#002876"/>
<path fill-rule="evenodd" clip-rule="evenodd" d="M55.1257 31.9678C57.2784 31.9678 59.4318 31.9678 61.5845 31.9678C61.5845 37.8152 61.5845 43.6626 61.5845 49.5099C59.4318 49.5099 57.2784 49.5099 55.1257 49.5099C55.1257 43.6626 55.1257 37.8152 55.1257 31.9678Z" fill="#2C3091"/>
<path opacity="0.988" fill-rule="evenodd" clip-rule="evenodd" d="M55.1257 31.9677C57.2894 31.9036 59.4635 31.8822 61.6491 31.9035C61.6491 37.7937 61.6491 43.6839 61.6491 49.5742C59.4635 49.5955 57.2894 49.574 55.1257 49.5099C57.2784 49.5099 59.4318 49.5099 61.5845 49.5099C61.5845 43.6625 61.5845 37.8151 61.5845 31.9677C59.4318 31.9677 57.2784 31.9677 55.1257 31.9677Z" fill="#5E64A9"/>
<path fill-rule="evenodd" clip-rule="evenodd" d="M55.3842 32.1606C57.3864 32.1606 59.3886 32.1606 61.3908 32.1606C61.3908 37.8795 61.3908 43.5984 61.3908 49.3173C59.3576 49.3489 57.3341 49.3168 55.3196 49.2209C55.3202 43.5552 55.3422 37.8684 55.3842 32.1606Z" fill="#002876"/>
<path opacity="0.824" fill-rule="evenodd" clip-rule="evenodd" d="M5.13482 32.0962C5.14063 32.2666 5.09762 32.4165 5.00565 32.546C4.99983 32.3756 5.04285 32.2257 5.13482 32.0962Z" fill="#8797BE"/>
<path opacity="0.969" fill-rule="evenodd" clip-rule="evenodd" d="M28.2572 31.5825C28.343 32.9428 28.343 34.3137 28.2572 35.695C28.218 35.687 28.1965 35.6656 28.1926 35.6307C28.257 34.2924 28.2786 32.943 28.2572 31.5825Z" fill="#B8BCD9"/>
<path opacity="0.992" fill-rule="evenodd" clip-rule="evenodd" d="M77.4732 32.8677C77.5378 34.0131 77.5591 35.1697 77.5378 36.3376C77.4544 36.3528 77.3899 36.3314 77.344 36.2733C77.4725 35.1615 77.5152 34.0264 77.4732 32.8677Z" fill="#757BB6"/>
<path opacity="0.969" fill-rule="evenodd" clip-rule="evenodd" d="M23.9299 34.0239C24.0957 34.0381 24.2465 34.081 24.382 34.1524C24.2059 34.1736 24.0551 34.1308 23.9299 34.0239Z" fill="#9B9FCA"/>
<path opacity="0.992" fill-rule="evenodd" clip-rule="evenodd" d="M67.4621 34.2812C67.4621 35.6949 67.4621 37.1086 67.4621 38.5222C66.472 38.5222 65.4812 38.5222 64.4911 38.5222C64.5124 39.8827 64.4911 41.2321 64.4265 42.5704C64.4265 41.1996 64.4265 39.8288 64.4265 38.458C65.4166 38.458 66.4074 38.458 67.3976 38.458C67.3762 37.0546 67.3976 35.6624 67.4621 34.2812Z" fill="#696FB0"/>
<path opacity="0.969" fill-rule="evenodd" clip-rule="evenodd" d="M27.1592 35.1167C27.395 35.1912 27.6103 35.2983 27.8051 35.438C27.5519 35.3977 27.3366 35.2906 27.1592 35.1167Z" fill="#9EA2CC"/>
<path opacity="0.969" fill-rule="evenodd" clip-rule="evenodd" d="M4.48876 34.9238C4.50155 35.2612 4.45847 35.5825 4.35959 35.8877C4.35597 35.5516 4.39905 35.2303 4.48876 34.9238Z" fill="#A3ACCE"/>
<path opacity="0.875" fill-rule="evenodd" clip-rule="evenodd" d="M82.5112 35.2451C82.6411 35.829 82.7056 36.4287 82.705 37.0443C82.6036 36.4576 82.539 35.8579 82.5112 35.2451Z" fill="#A6AFCF"/>
<path opacity="0.969" fill-rule="evenodd" clip-rule="evenodd" d="M75.9878 35.7593C76.2184 35.778 76.4121 35.8638 76.5691 36.0163C76.3463 35.9788 76.1525 35.8932 75.9878 35.7593Z" fill="#9C9FCA"/>
<path opacity="0.988" fill-rule="evenodd" clip-rule="evenodd" d="M84.7717 36.5942C84.9584 37.9828 85.001 39.375 84.9009 40.7709C84.9048 39.3771 84.8615 37.9848 84.7717 36.5942Z" fill="#626AAB"/>
<path opacity="0.98" fill-rule="evenodd" clip-rule="evenodd" d="M9.01 38.2651C9.02008 38.5391 8.977 38.7962 8.88083 39.0362C8.87075 38.7622 8.91383 38.5052 9.01 38.2651Z" fill="#9094C4"/>
<path opacity="0.98" fill-rule="evenodd" clip-rule="evenodd" d="M20.0547 38.522C23.2301 38.4578 26.4164 38.4364 29.6137 38.4577C29.6352 42.1741 29.6136 45.8795 29.5491 49.5742C29.5491 45.8901 29.5491 42.206 29.5491 38.522C26.4058 38.522 23.2626 38.522 20.1193 38.522C20.0978 38.522 20.0762 38.522 20.0547 38.522Z" fill="#878DC0"/>
<path opacity="0.969" fill-rule="evenodd" clip-rule="evenodd" d="M40.3998 45.0765C40.3533 45.0496 40.321 45.0068 40.3029 44.948C40.2706 42.8062 40.2596 40.6643 40.2706 38.5223C38.1605 38.5223 36.0511 38.5223 33.941 38.5223C33.941 40.964 33.941 43.4058 33.941 45.8476C33.8764 43.3953 33.8551 40.9322 33.8764 38.458C36.0291 38.458 38.1825 38.458 40.3352 38.458C40.3152 40.6661 40.3365 42.8723 40.3998 45.0765Z" fill="#A5A9CF"/>
<path fill-rule="evenodd" clip-rule="evenodd" d="M40.3997 45.0762C40.5444 45.4062 40.7814 45.6525 41.1102 45.8151C42.4168 46.3003 43.644 46.1612 44.7917 45.3975C44.926 45.2643 45.0339 45.1143 45.1146 44.9477C45.1579 42.8058 45.2005 40.6639 45.2438 38.522C47.2996 38.5861 49.3665 38.6076 51.4443 38.5862C51.4443 42.206 51.4443 45.8259 51.4443 49.4457C49.3561 49.4457 47.2674 49.4457 45.1792 49.4457C45.1792 49.2315 45.1792 49.0173 45.1792 48.8031C44.8317 48.8808 44.4868 48.9665 44.1458 49.0601C43.8655 49.0655 43.6072 49.1298 43.3708 49.2529C42.7578 49.3489 42.1546 49.456 41.5623 49.5742C40.2893 49.6783 39.0188 49.6568 37.7516 49.5099C36.2021 49.2269 35.0286 48.413 34.2316 47.0682C34.0837 46.6725 33.9868 46.2655 33.9409 45.8473C33.9409 43.4055 33.9409 40.9637 33.9409 38.522C36.051 38.522 38.1605 38.522 40.2705 38.522C40.2596 40.664 40.2705 42.8059 40.3028 44.9477C40.3209 45.0065 40.3532 45.0493 40.3997 45.0762Z" fill="#2E3192"/>
<path fill-rule="evenodd" clip-rule="evenodd" d="M45.2438 38.522C47.3319 38.522 49.4207 38.522 51.5088 38.522C51.5088 42.206 51.5088 45.8901 51.5088 49.5742C49.3987 49.5742 47.2893 49.5742 45.1792 49.5742C45.1792 49.5313 45.1792 49.4885 45.1792 49.4457C47.2673 49.4457 49.3561 49.4457 51.4442 49.4457C51.4442 45.8259 51.4442 42.206 51.4442 38.5862C49.3664 38.6076 47.2996 38.5861 45.2438 38.522Z" fill="#2B2C8F"/>
<path opacity="0.992" fill-rule="evenodd" clip-rule="evenodd" d="M45.1793 49.5745C47.2894 49.5745 49.3989 49.5745 51.509 49.5745C51.509 45.8904 51.509 42.2063 51.509 38.5223C49.4208 38.5223 47.3321 38.5223 45.2439 38.5223C45.2006 40.6641 45.158 42.8061 45.1147 44.948C45.1147 42.7846 45.1147 40.6213 45.1147 38.458C47.2675 38.458 49.4208 38.458 51.5735 38.458C51.5735 42.1849 51.5735 45.9118 51.5735 49.6387C49.4312 49.6601 47.2998 49.6386 45.1793 49.5745Z" fill="#8B8FC2"/>
<path opacity="0.98" fill-rule="evenodd" clip-rule="evenodd" d="M73.8564 38.458C74.8466 38.458 75.8374 38.458 76.8275 38.458C76.8488 39.8614 76.8275 41.2536 76.7629 42.6347C76.7629 42.6133 76.7629 42.5919 76.7629 42.5705C76.7629 41.2211 76.7629 39.8717 76.7629 38.5223C75.7825 38.5434 74.8136 38.522 73.8564 38.458Z" fill="#8D93C3"/>
<path fill-rule="evenodd" clip-rule="evenodd" d="M34.1347 38.715C36.1156 38.715 38.0959 38.715 40.0768 38.715C40.0658 40.8141 40.0768 42.9132 40.1091 45.0122C40.401 45.6654 40.9067 46.0616 41.6269 46.2009C42.8198 46.4673 43.9178 46.2639 44.9209 45.5905C45.0985 45.4246 45.238 45.2318 45.3407 45.0122C45.3517 42.9192 45.384 40.8308 45.4376 38.7471C47.3965 38.715 49.3555 38.7042 51.3151 38.715C51.3151 42.2705 51.3151 45.8261 51.3151 49.3816C49.3555 49.3924 47.3965 49.3816 45.4376 49.3495C45.3517 49.1353 45.3517 48.9211 45.4376 48.7069C45.393 48.6384 45.3607 48.5634 45.3407 48.482C43.2487 49.1748 41.074 49.4961 38.8173 49.4459C37.8317 49.3533 36.8952 49.0855 36.0078 48.6427C35.0686 48.0937 34.4764 47.2905 34.2316 46.233C34.1373 43.7292 34.105 41.2232 34.1347 38.715Z" fill="#002876"/>
<path opacity="0.969" fill-rule="evenodd" clip-rule="evenodd" d="M64.4266 38.458C64.4266 39.8288 64.4266 41.1997 64.4266 42.5705C65.3928 42.6979 66.3836 42.7408 67.3976 42.699C67.3976 44.9908 67.3976 47.2826 67.3976 49.5745C67.3763 49.5745 67.3543 49.5745 67.333 49.5745C67.333 47.3041 67.333 45.0336 67.333 42.7632C66.3429 42.7632 65.3521 42.7632 64.362 42.7632C64.3407 41.3171 64.362 39.8819 64.4266 38.458Z" fill="#A3A6CE"/>
<path opacity="0.992" fill-rule="evenodd" clip-rule="evenodd" d="M76.7627 42.5703C76.7627 42.5917 76.7627 42.6132 76.7627 42.6346C75.7939 42.6346 74.8251 42.6346 73.8563 42.6346C73.8776 44.9802 73.8563 47.3149 73.7917 49.6386C71.6493 49.6599 69.5179 49.6385 67.3975 49.5743C69.5289 49.5743 71.6603 49.5743 73.7917 49.5743C73.7917 47.2397 73.7917 44.905 73.7917 42.5703C74.7818 42.5703 75.7726 42.5703 76.7627 42.5703Z" fill="#7075B3"/>
<path opacity="0.988" fill-rule="evenodd" clip-rule="evenodd" d="M20.0547 38.522C20.0762 38.522 20.0978 38.522 20.1193 38.522C20.1193 39.8071 20.1193 41.0923 20.1193 42.3774C21.0235 42.3774 21.9277 42.3774 22.832 42.3774C22.8532 43.3098 22.8317 44.2308 22.7674 45.1404C22.7674 44.2408 22.7674 43.3412 22.7674 42.4417C21.8632 42.4417 20.9589 42.4417 20.0547 42.4417C20.0547 41.1351 20.0547 39.8285 20.0547 38.522Z" fill="#575EA6"/>
<path opacity="0.98" fill-rule="evenodd" clip-rule="evenodd" d="M84.8363 42.3774C84.8473 43.0368 84.7827 43.6794 84.6426 44.3052C84.691 43.6517 84.7556 43.0091 84.8363 42.3774Z" fill="#8B98C1"/>
<path opacity="0.988" fill-rule="evenodd" clip-rule="evenodd" d="M2.22838 42.1846C2.30866 43.0091 2.37325 43.8444 2.42214 44.6906C2.27636 43.8709 2.21178 43.0356 2.22838 42.1846Z" fill="#A7ADD0"/>
<path opacity="0.969" fill-rule="evenodd" clip-rule="evenodd" d="M4.29517 43.3413C4.39463 43.9733 4.48079 44.6158 4.55352 45.269C4.38378 44.647 4.29768 44.0044 4.29517 43.3413Z" fill="#A3ACCD"/>
<path opacity="0.996" fill-rule="evenodd" clip-rule="evenodd" d="M18.2461 45.1406C18.587 45.2109 18.9099 45.3179 19.2149 45.4619C18.8652 45.4173 18.5422 45.3103 18.2461 45.1406Z" fill="#AEAFD1"/>
<path opacity="0.824" fill-rule="evenodd" clip-rule="evenodd" d="M3.19716 48.4819C3.29055 48.6589 3.35514 48.8517 3.39092 49.0602C3.25826 48.8991 3.19367 48.7063 3.19716 48.4819Z" fill="#6878AC"/>
<path opacity="0.98" fill-rule="evenodd" clip-rule="evenodd" d="M44.1459 49.0601C43.9043 49.163 43.646 49.2273 43.3708 49.2528C43.6072 49.1297 43.8656 49.0655 44.1459 49.0601Z" fill="#898EC1"/>
<path opacity="0.988" fill-rule="evenodd" clip-rule="evenodd" d="M20.5714 49.3813C20.2667 49.493 19.9438 49.5358 19.6025 49.5099C19.9139 49.4464 20.2368 49.4036 20.5714 49.3813Z" fill="#ACAFD3"/>
<path opacity="0.98" fill-rule="evenodd" clip-rule="evenodd" d="M37.7517 49.5103C39.0189 49.6571 40.2894 49.6786 41.5624 49.5745C40.9624 49.6682 40.3488 49.711 39.7216 49.703C39.3451 49.6923 38.9679 49.6816 38.5914 49.6709C38.2955 49.6534 38.0159 49.5999 37.7517 49.5103Z" fill="#999EC9"/>
<path opacity="0.988" fill-rule="evenodd" clip-rule="evenodd" d="M67.333 49.5742C67.3543 49.5742 67.3763 49.5742 67.3976 49.5742C69.518 49.6383 71.6494 49.6598 73.7918 49.6385C72.7261 49.6813 71.6501 49.7027 70.5624 49.7027C69.4638 49.7027 68.3871 49.6599 67.333 49.5742Z" fill="#CDCFE4"/>
<path opacity="0.98" fill-rule="evenodd" clip-rule="evenodd" d="M8.29956 51.8233C8.47085 51.8175 8.62153 51.8603 8.75168 51.9518C8.58039 51.9576 8.42971 51.9148 8.29956 51.8233Z" fill="#8F9AC3"/>
<path fill-rule="evenodd" clip-rule="evenodd" d="M49.2483 54.1366C50.4884 54.161 51.7156 54.1182 52.9298 54.0081C54.8261 53.9551 56.7205 53.8694 58.6136 53.7511C59.0573 53.7497 59.4881 53.7069 59.9053 53.6225C62.4094 53.4508 64.907 53.2366 67.3975 52.98C68.1306 52.9477 68.863 52.8942 69.5935 52.8193C69.6297 52.7947 69.651 52.7626 69.6581 52.7229C70.1542 52.6895 70.6496 52.6467 71.1437 52.5944C71.568 52.5717 71.9768 52.5075 72.3708 52.4017C72.4787 52.4017 72.5859 52.4017 72.6938 52.4017C73.2499 52.3729 73.7879 52.2873 74.3085 52.1446C74.4861 52.1245 74.6579 52.1459 74.8252 52.2089C71.1598 61.3494 64.7656 67.8285 55.6425 71.6466C52.7826 72.7165 49.8328 73.4131 46.794 73.735C46.4536 73.7151 46.1307 73.7581 45.8252 73.8635C44.361 73.94 42.8967 73.94 41.4332 73.8635C40.5851 73.7363 39.7242 73.6508 38.8497 73.6065C37.802 73.4741 36.7686 73.2813 35.7494 73.0282C35.6196 72.9369 35.4685 72.8939 35.2973 72.8996C26.905 70.6577 20.2847 65.9451 15.4365 58.7631C14.0687 56.6413 12.9385 54.3923 12.0457 52.0161C24.386 53.7475 36.7867 54.4543 49.2483 54.1366Z" fill="#FF6319"/>
<path fill-rule="evenodd" clip-rule="evenodd" d="M74.3085 52.1445C73.788 52.2872 73.25 52.3728 72.6938 52.4016C73.2157 52.2694 73.7537 52.1837 74.3085 52.1445Z" fill="#FF9461"/>
<path fill-rule="evenodd" clip-rule="evenodd" d="M72.3707 52.4014C71.9767 52.5072 71.5679 52.5715 71.1436 52.5941C71.535 52.4729 71.9438 52.4086 72.3707 52.4014Z" fill="#FF9C6C"/>
<path fill-rule="evenodd" clip-rule="evenodd" d="M69.658 52.7227C69.6509 52.7623 69.6296 52.7944 69.5935 52.819C68.863 52.8939 68.1305 52.9474 67.3975 52.9797C68.1389 52.8668 68.892 52.7811 69.658 52.7227Z" fill="#FF925D"/>
<path opacity="0.831" fill-rule="evenodd" clip-rule="evenodd" d="M79.2173 53.4295C79.0765 53.5052 78.926 53.5694 78.7651 53.6223C78.8678 53.4732 79.0183 53.4089 79.2173 53.4295Z" fill="#91A1C4"/>
<path fill-rule="evenodd" clip-rule="evenodd" d="M59.9053 53.6225C59.488 53.7068 59.0572 53.7496 58.6135 53.751C59.0295 53.6521 59.4596 53.6092 59.9053 53.6225Z" fill="#FF9866"/>
<path fill-rule="evenodd" clip-rule="evenodd" d="M52.9298 54.0078C51.7156 54.1179 50.4884 54.1607 49.2483 54.1363C50.4645 54.0687 51.6917 54.0259 52.9298 54.0078Z" fill="#FFA071"/>
<path fill-rule="evenodd" clip-rule="evenodd" d="M35.2974 72.8994C35.4685 72.8937 35.6197 72.9367 35.7495 73.028C35.5783 73.0337 35.4272 72.9907 35.2974 72.8994Z" fill="#FFA477"/>
<path fill-rule="evenodd" clip-rule="evenodd" d="M38.8496 73.6064C39.7241 73.6508 40.5851 73.7362 41.4331 73.8635C40.556 73.8429 39.6951 73.7568 38.8496 73.6064Z" fill="#FF9461"/>
<path fill-rule="evenodd" clip-rule="evenodd" d="M46.794 73.7347C46.4846 73.8131 46.1617 73.8562 45.8252 73.8632C46.1307 73.7578 46.4536 73.7148 46.794 73.7347Z" fill="#FF935E"/>
<path opacity="0.824" fill-rule="evenodd" clip-rule="evenodd" d="M39.1079 75.5986C41.2994 75.7708 43.4954 75.8351 45.6959 75.7914C43.5729 75.8916 41.4415 75.8595 39.3017 75.695C39.2216 75.6802 39.157 75.6481 39.1079 75.5986Z" fill="#7483B4"/>
<path opacity="0.824" fill-rule="evenodd" clip-rule="evenodd" d="M52.2194 76.8833C52.023 76.9803 51.8073 77.0234 51.5735 77.0118C51.7731 76.9296 51.9881 76.8865 52.2194 76.8833Z" fill="#7E91B9"/>
<path opacity="0.831" fill-rule="evenodd" clip-rule="evenodd" d="M49.4422 77.3975C49.1354 77.4958 48.8125 77.5388 48.4734 77.526C48.7828 77.4476 49.1057 77.4045 49.4422 77.3975Z" fill="#91A1C4"/>
</g>
<defs>
<clipPath id="clip0_4623_21834">
<rect width="87" height="80" fill="white"/>
</clipPath>
</defs>
</svg>
