<svg width="67" height="80" viewBox="0 0 67 80" fill="none" xmlns="http://www.w3.org/2000/svg">
<g clip-path="url(#clip0_4623_25024)">
<path opacity="0.978" fill-rule="evenodd" clip-rule="evenodd" d="M32.7229 0.0268555C42.8812 0.0392922 51.4212 3.7187 58.3437 11.065C63.3371 16.6506 66.187 23.1877 66.8929 30.6766C67.4112 39.919 64.7221 48.0458 58.8261 55.057C52.75 61.8498 45.1656 65.6719 36.0729 66.5238C35.9893 66.5158 35.8912 66.4976 35.7781 66.4703C34.4713 66.623 33.1404 66.6412 31.7849 66.5238C31.6675 66.5887 31.5512 66.5796 31.4365 66.497C31.0061 66.4847 30.5773 66.4579 30.1501 66.4167C30.0997 66.4226 30.0547 66.4402 30.0161 66.4703C28.4751 66.2447 26.9298 65.9676 25.3797 65.6397C17.6259 63.5998 11.2924 59.3399 6.37849 52.8601C0.699301 44.811 -1.1767 35.9341 0.750489 26.2291C3.01102 16.8874 8.21917 9.71612 16.3749 4.7154C21.4326 1.79466 26.8821 0.231807 32.7229 0.0268555Z" fill="#02154F"/>
<path fill-rule="evenodd" clip-rule="evenodd" d="M36.1532 1.58084C36.4089 1.65526 36.6769 1.69099 36.9572 1.688C40.2927 2.05264 43.4905 2.90998 46.5516 4.26C46.6272 4.36926 46.7344 4.42284 46.8732 4.42075C54.4517 8.02284 59.8921 13.6848 63.1944 21.4067C63.6286 22.521 64.0123 23.6462 64.3468 24.7824C64.3356 24.9429 64.3715 25.0858 64.454 25.2111C64.4583 25.4435 64.5119 25.6578 64.6148 25.8541C66.7363 35.4052 64.9766 44.1571 59.3352 52.11C54.4458 58.5389 48.0497 62.6648 40.1464 64.4877C39.6152 64.5649 39.0883 64.6544 38.5652 64.7557C38.3031 64.7573 38.0528 64.7932 37.8148 64.8628C35.0598 65.2577 32.3085 65.276 29.5604 64.9164C29.3047 64.8419 29.0367 64.806 28.7564 64.8092C28.3785 64.7733 28.0033 64.7198 27.6308 64.6485C27.4346 64.5499 27.2202 64.4963 26.9876 64.4877C26.9699 64.4877 26.9517 64.4877 26.934 64.4877C26.7684 64.4192 26.5899 64.3833 26.398 64.3806C24.991 64.0601 23.6151 63.6497 22.2708 63.1482C22.1481 63.0533 22.005 62.9997 21.842 62.9874C13.7564 59.7183 7.86945 54.1274 4.18081 46.2158C3.03136 43.5995 2.23625 40.8846 1.79561 38.0711C1.80301 37.8078 1.76731 37.5577 1.68841 37.321C1.70042 36.9866 1.66466 36.6651 1.58121 36.3565C1.53876 36.0548 1.52091 35.7511 1.52761 35.4455C1.49148 34.3028 1.47358 33.1597 1.47401 32.0162C1.47085 31.2718 1.52445 30.5395 1.63481 29.8193C1.71585 29.5284 1.7516 29.2247 1.74201 28.9084C1.74201 28.8726 1.74201 28.8369 1.74201 28.8012C1.84085 28.5305 1.89445 28.2448 1.90281 27.9439C3.42859 19.8974 7.37714 13.3334 13.7484 8.25197C20.3546 3.2241 27.8227 1.00039 36.1532 1.58084Z" fill="#FAFBFC"/>
<path opacity="0.843" fill-rule="evenodd" clip-rule="evenodd" d="M36.1533 1.58074C36.4336 1.57775 36.7016 1.61348 36.9573 1.68791C36.677 1.69089 36.409 1.65517 36.1533 1.58074Z" fill="#868FAA"/>
<path opacity="0.824" fill-rule="evenodd" clip-rule="evenodd" d="M34.5451 2.75959C33.4726 2.75705 32.4006 2.77491 31.3291 2.81317C31.9975 2.73684 32.6766 2.70113 33.3659 2.70601C33.7684 2.70602 34.1613 2.72388 34.5451 2.75959Z" fill="#4E577D"/>
<path fill-rule="evenodd" clip-rule="evenodd" d="M34.5453 2.75963C34.9789 2.74353 35.4077 2.76139 35.8317 2.81322C36.1962 2.88047 36.5714 2.9162 36.9573 2.92038C37.124 2.90774 37.2848 2.92561 37.4397 2.97397C37.6787 3.03525 37.929 3.07097 38.1901 3.08113C45.3108 4.21522 51.3232 7.39454 56.2265 12.619C60.8999 17.7721 63.5884 23.8271 64.2933 30.7837C64.2724 31.4204 64.3078 32.0455 64.4005 32.6592C64.4048 33.2494 64.3871 33.8389 64.3469 34.4274C64.3469 34.4632 64.3469 34.4988 64.3469 34.5346C64.2986 35.3473 64.2627 36.1689 64.2397 36.9994C64.1041 38.2932 63.8811 39.5792 63.5697 40.8574C63.0267 42.3958 62.473 43.9318 61.9081 45.4656C58.371 53.1993 52.6803 58.6916 44.8365 61.9425C43.6203 62.3845 42.3875 62.7687 41.1381 63.0945C40.981 63.0983 40.8385 63.1336 40.7093 63.2017C40.5361 63.2113 40.3753 63.2467 40.2269 63.3089C35.6275 64.3361 31.0355 64.3007 26.4517 63.2017C26.3391 63.1422 26.2142 63.1063 26.0765 63.0945C18.6486 61.1468 12.7081 57.0568 8.25448 50.8239C5.6716 47.036 3.9832 42.8743 3.18928 38.339C3.15969 37.9533 3.10609 37.5782 3.02848 37.2138C3.02848 37.1959 3.02848 37.178 3.02848 37.1602C2.87325 35.5745 2.80175 33.9849 2.81408 32.3912C2.80277 31.9251 2.82067 31.4607 2.86768 30.9981C2.98795 30.3321 3.0594 29.6533 3.08208 28.9619C4.37191 21.0663 8.08821 14.5916 14.2309 9.53793C17.3815 7.02482 20.9014 5.16724 24.7901 3.96526C25.8133 3.7139 26.8317 3.47277 27.8453 3.24188C28.199 3.23521 28.5383 3.18162 28.8637 3.08113C29.0357 3.09774 29.1965 3.07988 29.3461 3.02755C30.0166 2.97308 30.6775 2.90164 31.3293 2.81322C32.4007 2.77495 33.4727 2.75709 34.5453 2.75963Z" fill="#03154F"/>
<path opacity="0.851" fill-rule="evenodd" clip-rule="evenodd" d="M35.8315 2.81313C36.2191 2.80019 36.5943 2.83591 36.9571 2.92029C36.5712 2.91611 36.196 2.88038 35.8315 2.81313Z" fill="#5F688A"/>
<path opacity="0.851" fill-rule="evenodd" clip-rule="evenodd" d="M31.3291 2.81299C30.6774 2.90141 30.0165 2.97285 29.3459 3.02732C29.9929 2.89397 30.6538 2.82252 31.3291 2.81299Z" fill="#656D8F"/>
<path opacity="0.949" fill-rule="evenodd" clip-rule="evenodd" d="M37.4397 2.97401C37.6369 2.96515 37.8337 2.97409 38.0293 3.0008C38.0958 3.01324 38.1494 3.04003 38.1901 3.08118C37.9291 3.07102 37.6788 3.03529 37.4397 2.97401Z" fill="#9DA2B9"/>
<path opacity="0.867" fill-rule="evenodd" clip-rule="evenodd" d="M28.8636 3.08105C28.5383 3.18154 28.199 3.23513 27.8452 3.2418C28.1716 3.14878 28.5109 3.0952 28.8636 3.08105Z" fill="#949CB4"/>
<path fill-rule="evenodd" clip-rule="evenodd" d="M62.3636 24.8358C58.2809 24.818 54.2073 24.8359 50.1428 24.8894C46.4653 24.9173 42.5434 24.9529 38.3776 24.9966C37.3158 24.9623 36.2256 24.9444 35.108 24.943C24.9776 24.9787 14.8472 25.0144 4.7168 25.0501C6.86037 18.0214 10.9787 12.4576 17.0716 8.35892C24.6174 3.62611 32.7019 2.31332 41.3256 4.42054C50.2077 7.0136 56.7115 12.4434 60.836 20.7099C61.446 22.0485 61.9552 23.4237 62.3636 24.8358Z" fill="#F26F22"/>
<path opacity="0.867" fill-rule="evenodd" clip-rule="evenodd" d="M46.5515 4.25977C46.6759 4.28613 46.7831 4.33971 46.8731 4.42052C46.7343 4.42261 46.6271 4.36902 46.5515 4.25977Z" fill="#878FAA"/>
<path opacity="0.925" fill-rule="evenodd" clip-rule="evenodd" d="M50.1428 24.8894C54.2073 24.8358 58.2809 24.8179 62.3636 24.8358C58.9472 24.8716 55.5259 24.9073 52.0992 24.943C51.4517 24.9024 50.7994 24.8846 50.1428 24.8894Z" fill="#CE6228"/>
<path opacity="0.867" fill-rule="evenodd" clip-rule="evenodd" d="M64.3467 24.7822C64.4148 24.9111 64.4502 25.054 64.4539 25.2109C64.3714 25.0856 64.3355 24.9427 64.3467 24.7822Z" fill="#737B98"/>
<path opacity="0.867" fill-rule="evenodd" clip-rule="evenodd" d="M64.4541 25.2109C64.5399 25.4113 64.5935 25.6256 64.6149 25.8539C64.512 25.6577 64.4584 25.4433 64.4541 25.2109Z" fill="#7E87A4"/>
<path fill-rule="evenodd" clip-rule="evenodd" d="M9.40672 26.9794C9.96443 26.903 10.3664 27.1174 10.6127 27.6224C10.6411 28.5308 10.2034 28.888 9.29952 28.6941C8.87506 28.4574 8.70531 28.1002 8.79032 27.6224C8.97063 27.3797 9.17608 27.1654 9.40672 26.9794Z" fill="#F8F9FA"/>
<path opacity="0.902" fill-rule="evenodd" clip-rule="evenodd" d="M16.1605 27.1935C15.6245 27.1264 15.0885 27.1264 14.5525 27.1935C14.8066 27.1131 15.0746 27.0774 15.3565 27.0863C15.6384 27.0774 15.9064 27.1131 16.1605 27.1935Z" fill="#A9B0C3"/>
<path fill-rule="evenodd" clip-rule="evenodd" d="M16.1604 27.1933C17.2201 27.3881 18.0868 27.9061 18.76 28.7473C18.8881 28.9676 18.9862 29.1998 19.0548 29.4438C19.3389 29.4883 19.6251 29.5151 19.9124 29.5242C24.5043 29.551 29.0957 29.56 33.6876 29.551C33.6876 29.9083 33.6876 30.2654 33.6876 30.6227C33.4534 30.6209 33.2213 30.6388 32.9908 30.6763C32.9828 32.8375 32.9646 34.9988 32.9372 37.1599C32.8847 37.3092 32.867 37.4699 32.8836 37.6421C32.3653 37.6421 31.8475 37.6421 31.3292 37.6421C31.3469 36.4004 31.3292 35.168 31.2756 33.9448C30.7214 33.936 30.1677 33.9448 29.614 33.9716C29.3643 34.275 29.0963 34.5607 28.81 34.829C27.9385 35.2106 27.3398 34.9516 27.0144 34.052C26.8649 33.3865 27.1061 32.94 27.738 32.7124C28.6396 32.6807 29.5331 32.6449 30.418 32.6053C30.7584 32.5971 31.0977 32.5792 31.4364 32.5517C31.4364 31.9265 31.4364 31.3014 31.4364 30.6763C29.7212 30.6763 28.006 30.6763 26.2908 30.6763C26.3053 31.7134 26.2876 32.7494 26.2372 33.7841C26.1836 35.0787 26.1659 36.3826 26.1836 37.6957C25.6476 37.6957 25.1116 37.6957 24.5756 37.6957C24.5756 37.0884 24.5756 36.4811 24.5756 35.8738C24.5065 35.8612 24.4529 35.879 24.4148 35.9274C24.2653 36.0129 24.1045 36.0665 23.9324 36.0882C23.5594 36.144 23.1842 36.1798 22.8068 36.1953C22.2269 36.1822 21.7262 35.9768 21.306 35.5791C20.717 35.0357 20.2973 34.3837 20.0464 33.6233C20.0035 33.5291 20.0127 33.4398 20.0732 33.3554C20.5181 33.1733 20.9024 32.9054 21.2256 32.5517C21.6453 31.7735 21.4754 31.1573 20.7164 30.7031C20.5594 30.6552 20.3986 30.6284 20.234 30.6227C19.9135 30.6624 19.5919 30.6803 19.2692 30.6763C19.2692 31.4086 19.2692 32.1409 19.2692 32.8732C18.2685 32.8642 17.2678 32.8732 16.2676 32.9C16.161 32.92 16.0715 32.9646 15.9996 33.0339C15.9176 33.0871 15.8822 33.1675 15.8924 33.2751C15.908 33.3922 15.9257 33.5084 15.946 33.6233C16.8588 33.762 17.77 33.9138 18.6796 34.0788C19.1979 34.2046 19.6358 34.4636 19.9928 34.8558C20.0582 36.4151 19.3346 37.3707 17.822 37.7225C16.5844 37.8929 15.4588 37.625 14.4452 36.9187C14.4174 36.8887 14.3991 36.8529 14.3916 36.8116C14.4367 36.7488 14.4811 36.6863 14.5256 36.624C14.725 36.3668 14.9485 36.1345 15.1956 35.9274C15.5397 36.0726 15.8967 36.1798 16.2676 36.2489C16.4852 36.3302 16.7173 36.366 16.9644 36.3561C17.1354 36.356 17.2962 36.3382 17.4468 36.3025C17.7272 36.2515 17.9866 36.1443 18.224 35.981C18.3361 35.7466 18.3269 35.5233 18.1972 35.3112C17.2758 35.1626 16.3646 34.9661 15.4636 34.7218C14.9957 34.5042 14.6296 34.1738 14.3648 33.7305C14.1172 32.5814 14.5551 31.8491 15.678 31.5336C16.2398 31.5031 16.794 31.4674 17.3396 31.4264C17.3927 31.169 17.4104 30.901 17.3932 30.6227C16.0441 30.6049 14.7041 30.6228 13.3732 30.6763C13.3196 33.007 13.3019 35.3467 13.3196 37.6957C12.8372 37.6957 12.3548 37.6957 11.8724 37.6957C11.8901 36.579 11.8724 35.4716 11.8188 34.3735C11.8188 33.1411 11.8188 31.9087 11.8188 30.6763C11.3737 30.6317 10.927 30.6138 10.4788 30.6227C10.4422 31.2946 10.4064 31.9732 10.3716 32.6588C9.6126 32.6946 8.8622 32.7303 8.12043 32.766C7.90067 32.7519 7.68627 32.7698 7.47723 32.8196C7.21276 32.8051 6.96267 32.8408 6.72683 32.9268C6.59502 33.554 6.85413 33.8041 7.50403 33.6769C8.23368 33.5791 8.95728 33.6059 9.67483 33.7573C10.2198 33.9091 10.5682 34.2574 10.72 34.8022C11.0064 35.8132 10.8009 36.6974 10.1036 37.4546C9.72317 37.6301 9.33012 37.773 8.92443 37.8832C8.81138 37.9444 8.71313 38.0247 8.62963 38.1244C8.58685 38.2186 8.5958 38.3079 8.65643 38.3923C8.828 38.5725 8.9888 38.7601 9.13883 38.9549C8.89173 39.2915 8.62373 39.613 8.33483 39.9194C8.23947 39.917 8.15017 39.8813 8.06683 39.8122C7.53008 39.3731 7.10128 38.8462 6.78043 38.2315C6.26345 38.1382 5.80785 37.9239 5.41363 37.5885C5.10934 37.1935 5.00214 36.747 5.09203 36.2489C5.27914 35.8116 5.60969 35.5795 6.08363 35.5523C6.47544 35.5698 6.83274 35.6858 7.15563 35.9006C7.72078 36.692 8.31934 36.7188 8.95123 35.981C9.05248 35.8411 9.13288 35.6893 9.19243 35.5256C8.88535 35.2082 8.51015 35.0117 8.06683 34.9361C7.5476 34.8932 7.02945 34.8396 6.51243 34.7754C5.56462 34.5959 5.11797 34.0243 5.17243 33.0607C5.11486 32.693 5.20421 32.3715 5.44043 32.0962C5.93376 31.6279 6.52336 31.3779 7.20923 31.3461C7.6734 31.3193 8.13795 31.3104 8.60283 31.3193C8.59822 31.0858 8.58031 30.8536 8.54923 30.6227C7.44147 30.6227 6.33378 30.6227 5.22603 30.6227C5.22603 30.2476 5.22603 29.8725 5.22603 29.4974C7.44158 29.5064 9.65703 29.4974 11.8724 29.4706C12.3146 28.1801 13.2081 27.421 14.5524 27.1933C15.0884 27.1263 15.6244 27.1263 16.1604 27.1933Z" fill="#FCFCFD"/>
<path fill-rule="evenodd" clip-rule="evenodd" d="M44.0859 27.3008C44.393 27.4455 44.697 27.6062 44.9971 27.783C45.0518 27.8099 45.0609 27.8456 45.0239 27.8902C44.3448 28.8232 43.425 29.243 42.2635 29.1494C41.7661 29.0394 41.3464 28.7983 41.0039 28.426C40.8458 28.2354 40.73 28.021 40.6555 27.783C40.6614 27.7326 40.6791 27.6879 40.7091 27.6491C40.9203 27.5042 41.1524 27.406 41.4059 27.3544C41.6975 27.5114 41.9832 27.6811 42.2635 27.8634C42.9855 28.0365 43.5933 27.8489 44.0859 27.3008Z" fill="#F8F9FA"/>
<path fill-rule="evenodd" clip-rule="evenodd" d="M17.2325 29.1763C17.2577 29.2877 17.2936 29.3949 17.3397 29.4978C16.0624 29.5513 14.776 29.5692 13.4805 29.5514C13.6643 28.8555 14.1108 28.4358 14.8205 28.2922C15.3463 28.2347 15.8646 28.2705 16.3749 28.3994C16.7667 28.5491 17.0524 28.8081 17.2325 29.1763Z" fill="#091851"/>
<path opacity="0.851" fill-rule="evenodd" clip-rule="evenodd" d="M1.90274 27.9438C1.89438 28.2448 1.84078 28.5305 1.74194 28.8012C1.76183 28.5024 1.81543 28.2166 1.90274 27.9438Z" fill="#656F90"/>
<path opacity="0.867" fill-rule="evenodd" clip-rule="evenodd" d="M17.2324 29.1763C17.315 29.2425 17.3686 29.3318 17.3932 29.4442C17.3868 29.4767 17.3686 29.4946 17.3396 29.4978C17.2935 29.3948 17.2576 29.2877 17.2324 29.1763Z" fill="#838AA6"/>
<path fill-rule="evenodd" clip-rule="evenodd" d="M36.7964 37.5351C36.4555 37.5364 36.1162 37.5185 35.778 37.4815C35.7603 37.4815 35.7421 37.4815 35.7244 37.4815C35.6167 37.4052 35.4913 37.3696 35.3492 37.3744C34.4316 37.0373 33.8956 36.3854 33.7412 35.4186C34.0687 35.1517 34.4262 34.9462 34.8132 34.8024C34.9456 35.4266 35.3026 35.8552 35.8852 36.0884C35.9817 36.1238 36.0889 36.1417 36.2068 36.142C36.3692 36.1534 36.5118 36.1177 36.6356 36.0348C36.9443 35.8829 37.1234 35.6328 37.1716 35.2846C37.2048 35.2787 37.2316 35.2608 37.252 35.231C37.2944 34.8613 37.2676 34.5041 37.1716 34.1594C37.0585 33.9505 36.88 33.8344 36.6356 33.8111C36.2969 33.7843 35.957 33.7754 35.6172 33.7843C35.6542 33.5 35.6724 33.2143 35.6708 32.927C35.8257 32.9433 35.9683 32.9255 36.0996 32.8734C36.6169 32.6867 36.9653 32.3295 37.1448 31.8017C37.1925 31.2153 36.9159 30.9295 36.314 30.9444C36.2068 30.9533 36.0996 30.9622 35.9924 30.9712C35.6944 31.2153 35.3819 31.4386 35.0544 31.641C34.7569 31.4866 34.4889 31.2902 34.2504 31.0515C34.2585 30.4906 34.4997 30.053 34.974 29.7387C36.3794 29.0873 37.5854 29.3463 38.592 30.5157C39.0749 31.4761 39.039 32.4228 38.4848 33.3556C38.4044 33.4449 38.324 33.5342 38.2436 33.6235C38.4393 33.846 38.6445 34.0603 38.86 34.2665C39.3295 35.4038 39.0883 36.3416 38.1364 37.0797C37.9311 37.1732 37.7349 37.2804 37.5468 37.4012C37.3035 37.4838 37.0532 37.5285 36.7964 37.5351Z" fill="#FBFBFC"/>
<path opacity="0.843" fill-rule="evenodd" clip-rule="evenodd" d="M1.74202 28.9082C1.75162 29.2246 1.71587 29.5282 1.63482 29.8191C1.62523 29.5028 1.66098 29.1991 1.74202 28.9082Z" fill="#848DA9"/>
<path opacity="0.902" fill-rule="evenodd" clip-rule="evenodd" d="M52.2332 29.4976C55.5028 29.4976 58.7724 29.4976 62.042 29.4976C62.0591 29.8827 62.0414 30.2577 61.9884 30.6228C61.9884 30.2656 61.9884 29.9084 61.9884 29.5511C58.7273 29.5689 55.476 29.5511 52.2332 29.4976Z" fill="#C0C5D3"/>
<path fill-rule="evenodd" clip-rule="evenodd" d="M52.2332 29.4976C55.476 29.5511 58.7274 29.5689 61.9884 29.5511C61.9884 29.9084 61.9884 30.2656 61.9884 30.6228C61.5596 30.6228 61.1308 30.6228 60.702 30.6228C60.702 32.9805 60.702 35.3381 60.702 37.6958C60.1563 37.7133 59.6203 37.6955 59.094 37.6422C59.1036 36.4628 59.0859 35.2839 59.0404 34.1057C58.938 34.0905 58.8485 34.1084 58.7724 34.1593C57.9073 34.5336 57.0588 34.9444 56.2264 35.3917C55.9696 35.0303 55.7461 34.6463 55.5564 34.2397C55.5703 34.1721 55.6062 34.1185 55.6636 34.0789C55.9327 33.9803 56.1647 33.8285 56.3604 33.6235C55.9187 33.1126 55.4363 33.0679 54.9132 33.4895C54.7551 33.62 54.6302 33.7719 54.538 33.945C54.3461 34.2749 54.3279 34.6143 54.4844 34.9631C54.5685 35.1488 54.6666 35.3274 54.7792 35.4989C55.0686 35.8327 55.3634 36.1542 55.6636 36.4634C55.5183 36.902 55.3039 37.295 55.0204 37.6422C53.496 36.756 52.7724 35.4343 52.8496 33.6771C53.0597 32.7349 53.6043 32.0651 54.4844 31.6677C54.6414 31.6166 54.8022 31.5898 54.9668 31.5873C55.3607 31.5862 55.7542 31.6041 56.146 31.6409C56.8471 31.8485 57.4903 32.17 58.0756 32.6054C58.3516 32.4674 58.6373 32.3602 58.9332 32.2839C58.9862 31.7399 59.0045 31.1862 58.9868 30.6228C56.6016 30.605 54.225 30.6229 51.858 30.6764C51.8044 32.9892 51.7867 35.3112 51.8044 37.6422C51.7352 37.6295 51.6816 37.6474 51.6436 37.6958C51.1971 37.6958 50.7501 37.6958 50.3036 37.6958C50.3036 37.035 50.3036 36.3741 50.3036 35.7132C50.1808 35.7183 50.0736 35.7541 49.982 35.8204C49.8619 35.8046 49.7547 35.8225 49.6604 35.874C49.4503 35.8702 49.2536 35.906 49.0708 35.9811C47.2457 36.2277 46.2091 35.4419 45.962 33.6235C45.9732 33.4938 45.955 33.3688 45.9084 33.2484C46.0043 33.2125 46.0938 33.1768 46.1764 33.1412C46.5988 33.0047 46.9027 32.7368 47.0876 32.3375C47.1878 32.1608 47.2414 31.9643 47.2484 31.7481C47.2559 31.6204 47.22 31.5132 47.1412 31.4266C47.0008 31.0096 46.7151 30.7506 46.2836 30.6496C45.7835 30.6228 45.2834 30.6139 44.7828 30.6228C44.7292 32.9535 44.7115 35.2933 44.7292 37.6422C44.2452 37.6519 43.7628 37.634 43.282 37.5886C43.282 37.1957 43.282 36.8027 43.282 36.4098C43.282 34.4808 43.282 32.5518 43.282 30.6228C43.1389 30.6228 42.9963 30.6228 42.8532 30.6228C42.5852 30.6228 42.3172 30.6228 42.0492 30.6228C41.9956 32.9535 41.9779 35.2933 41.9956 37.6422C41.4596 37.6422 40.9236 37.6422 40.3876 37.6422C40.3876 36.3741 40.3876 35.106 40.3876 33.8378C39.9765 33.8378 39.5659 33.8378 39.1548 33.8378C39.1548 33.3377 39.1548 32.8376 39.1548 32.3375C39.5477 32.3375 39.9411 32.3375 40.334 32.3375C40.387 31.7755 40.4053 31.204 40.3876 30.6228C40.0301 30.6228 39.6731 30.6228 39.3156 30.6228C39.3156 30.2477 39.3156 29.8726 39.3156 29.4976C43.6213 29.4976 47.9275 29.4976 52.2332 29.4976Z" fill="#FCFCFD"/>
<path opacity="0.843" fill-rule="evenodd" clip-rule="evenodd" d="M13.3733 30.6764C14.7042 30.6229 16.0442 30.6051 17.3933 30.6228C17.4104 30.9012 17.3928 31.1691 17.3397 31.4266C17.3397 31.1765 17.3397 30.9265 17.3397 30.6764C16.0174 30.6764 14.6956 30.6764 13.3733 30.6764Z" fill="#848EA9"/>
<path opacity="0.902" fill-rule="evenodd" clip-rule="evenodd" d="M44.7828 30.623C44.7828 32.9807 44.7828 35.3384 44.7828 37.6961C44.2822 37.7049 43.7821 37.6961 43.282 37.6693C43.2295 37.2542 43.2113 36.8344 43.2284 36.4101C43.2461 36.4101 43.2643 36.4101 43.282 36.4101C43.282 36.803 43.282 37.196 43.282 37.5889C43.7628 37.6343 44.2452 37.6521 44.7292 37.6425C44.7115 35.2935 44.7292 32.9538 44.7828 30.623Z" fill="#BCC1D0"/>
<path opacity="0.902" fill-rule="evenodd" clip-rule="evenodd" d="M13.3732 30.6763C13.3732 33.0339 13.3732 35.3916 13.3732 37.7493C12.8549 37.7493 12.3372 37.7493 11.8188 37.7493C11.8188 36.624 11.8188 35.4988 11.8188 34.3735C11.8724 35.4716 11.8901 36.579 11.8724 37.6957C12.3548 37.6957 12.8372 37.6957 13.3196 37.6957C13.302 35.3468 13.3196 33.007 13.3732 30.6763Z" fill="#B8BDCE"/>
<path opacity="0.824" fill-rule="evenodd" clip-rule="evenodd" d="M39.3157 30.623C39.6732 30.623 40.0302 30.623 40.3877 30.623C40.4054 31.2042 40.3871 31.7758 40.3341 32.3377C40.3341 31.784 40.3341 31.2303 40.3341 30.6766C39.9846 30.6939 39.6448 30.6761 39.3157 30.623Z" fill="#4E567B"/>
<path fill-rule="evenodd" clip-rule="evenodd" d="M49.3923 34.5882C49.0348 34.6596 48.6778 34.6596 48.3203 34.5882C47.9869 34.4873 47.7549 34.2729 47.6235 33.9452C48.1108 33.6137 48.4415 33.1672 48.6151 32.6056C48.6677 31.94 48.6409 31.2791 48.5347 30.623C49.1243 30.623 49.7139 30.623 50.3035 30.623C50.3357 31.6098 50.2912 32.5921 50.1695 33.5701C50.0988 34.0598 49.8399 34.3991 49.3923 34.5882Z" fill="#051650"/>
<path fill-rule="evenodd" clip-rule="evenodd" d="M22.914 30.6763C23.45 30.6763 23.986 30.6763 24.522 30.6763C24.5285 31.4807 24.5102 32.2845 24.4684 33.0875C24.4121 33.5854 24.216 34.0229 23.8788 34.4003C23.7282 34.4715 23.5851 34.5518 23.45 34.6414C23.1488 34.6872 22.8449 34.705 22.5388 34.695C22.2799 34.5523 22.0832 34.3469 21.9492 34.0788C22.1711 33.8567 22.3946 33.6334 22.6192 33.409C22.7661 33.1868 22.8824 32.9546 22.9676 32.7124C23.0089 32.6716 23.0357 32.618 23.048 32.5517C23.1097 31.916 23.0646 31.2909 22.914 30.6763Z" fill="#02154E"/>
<path opacity="0.851" fill-rule="evenodd" clip-rule="evenodd" d="M3.08208 28.9619C3.0594 29.6534 2.98795 30.3321 2.86768 30.9981C2.89742 30.3074 2.96887 29.6287 3.08208 28.9619Z" fill="#727B9A"/>
<path opacity="0.902" fill-rule="evenodd" clip-rule="evenodd" d="M64.2932 30.7837C64.3521 31.3993 64.388 32.0244 64.4004 32.6591C64.3076 32.0455 64.2723 31.4203 64.2932 30.7837Z" fill="#A9AFC3"/>
<path opacity="0.843" fill-rule="evenodd" clip-rule="evenodd" d="M51.8579 30.6765C54.2249 30.6229 56.6015 30.6051 58.9867 30.6229C59.0044 31.1862 58.9862 31.7399 58.9331 32.284C58.9331 31.7481 58.9331 31.2123 58.9331 30.6765C56.5747 30.6765 54.2163 30.6765 51.8579 30.6765Z" fill="#6F7A9A"/>
<path opacity="0.902" fill-rule="evenodd" clip-rule="evenodd" d="M42.0493 30.623C42.0493 32.9807 42.0493 35.3384 42.0493 37.6961C41.486 37.7136 40.9317 37.6957 40.3877 37.6425C40.9237 37.6425 41.4597 37.6425 41.9957 37.6425C41.978 35.2935 41.9957 32.9538 42.0493 30.623Z" fill="#BFC4D3"/>
<path opacity="0.902" fill-rule="evenodd" clip-rule="evenodd" d="M17.3396 31.4267C16.7939 31.4676 16.2397 31.5033 15.678 31.5338C15.7187 31.4927 15.7723 31.4659 15.8388 31.4535C16.3389 31.4267 16.839 31.4178 17.3396 31.4267Z" fill="#B5BBCC"/>
<path opacity="0.843" fill-rule="evenodd" clip-rule="evenodd" d="M24.5221 30.6763C24.558 30.9883 24.5757 31.3098 24.5757 31.6408C24.5848 32.1346 24.5489 32.6168 24.4685 33.0875C24.5103 32.2845 24.5285 31.4807 24.5221 30.6763Z" fill="#8891AC"/>
<path opacity="0.867" fill-rule="evenodd" clip-rule="evenodd" d="M54.9668 31.5876C55.0997 31.552 55.2423 31.5342 55.3956 31.534C55.6588 31.5298 55.9091 31.5655 56.146 31.6412C55.7542 31.6044 55.3608 31.5865 54.9668 31.5876Z" fill="#8891AC"/>
<path opacity="0.902" fill-rule="evenodd" clip-rule="evenodd" d="M47.1412 31.4268C47.22 31.5134 47.256 31.6206 47.2484 31.7483C47.2415 31.9645 47.1879 32.161 47.0876 32.3377C47.1836 32.037 47.2018 31.7334 47.1412 31.4268Z" fill="#9AA0B8"/>
<path opacity="0.843" fill-rule="evenodd" clip-rule="evenodd" d="M22.914 30.6763C23.0646 31.2909 23.1096 31.916 23.048 32.5517C23.0356 32.618 23.0088 32.6716 22.9676 32.7124C23.0581 32.0443 23.0228 31.3835 22.8604 30.7299C22.8668 30.6973 22.885 30.6795 22.914 30.6763Z" fill="#79829F"/>
<path opacity="0.922" fill-rule="evenodd" clip-rule="evenodd" d="M30.418 32.6054C29.5331 32.6451 28.6396 32.6808 27.738 32.7126C27.7788 32.6714 27.8324 32.6446 27.8988 32.6322C28.7382 32.6054 29.5781 32.5965 30.418 32.6054Z" fill="#C1C5D3"/>
<path opacity="0.867" fill-rule="evenodd" clip-rule="evenodd" d="M10.4788 30.623C10.4961 31.3328 10.4782 32.0383 10.4252 32.7396C9.65713 32.7664 8.88882 32.7753 8.12036 32.7664C8.86213 32.7306 9.61253 32.695 10.3716 32.6592C10.4063 31.9736 10.4421 31.2949 10.4788 30.623Z" fill="#A2AABF"/>
<path opacity="0.867" fill-rule="evenodd" clip-rule="evenodd" d="M1.47396 32.0161C1.47353 33.1596 1.49144 34.3027 1.52756 35.4455C1.41875 34.3034 1.40091 33.1603 1.47396 32.0161Z" fill="#929AB2"/>
<path opacity="0.851" fill-rule="evenodd" clip-rule="evenodd" d="M7.47721 32.82C7.23794 32.8813 6.98784 32.917 6.72681 32.9272C6.96265 32.8413 7.21274 32.8055 7.47721 32.82Z" fill="#555D80"/>
<path opacity="0.851" fill-rule="evenodd" clip-rule="evenodd" d="M19.2691 32.8735C18.3134 32.9181 17.3486 32.9448 16.3747 32.9538C16.2509 32.9893 16.1255 33.0161 15.9995 33.0342C16.0713 32.9649 16.1608 32.9203 16.2675 32.9003C17.2677 32.8735 18.2684 32.8645 19.2691 32.8735Z" fill="#616C8F"/>
<path opacity="0.867" fill-rule="evenodd" clip-rule="evenodd" d="M64.4003 32.6592C64.4362 32.8728 64.4539 33.096 64.4539 33.329C64.4603 33.7072 64.4244 34.0733 64.3467 34.4274C64.3869 33.8389 64.4046 33.2495 64.4003 32.6592Z" fill="#A3AABF"/>
<path opacity="0.851" fill-rule="evenodd" clip-rule="evenodd" d="M46.1764 33.1411C46.0939 33.1766 46.0044 33.2124 45.9084 33.2483C45.9551 33.3687 45.9733 33.4937 45.962 33.6234C45.8865 33.4777 45.8505 33.3169 45.8548 33.1411C45.962 33.1411 46.0692 33.1411 46.1764 33.1411Z" fill="#666F90"/>
<path opacity="0.949" fill-rule="evenodd" clip-rule="evenodd" d="M36.0995 32.8734C35.9682 32.9255 35.8256 32.9434 35.6707 32.927C35.6723 33.2143 35.6541 33.5001 35.6171 33.7843C35.5469 33.5055 35.5469 33.2197 35.6171 32.927C35.7742 32.8743 35.935 32.8564 36.0995 32.8734Z" fill="#BBBFCF"/>
<path opacity="0.843" fill-rule="evenodd" clip-rule="evenodd" d="M42.8533 30.623C42.9964 30.623 43.139 30.623 43.2821 30.623C43.2821 32.552 43.2821 34.4811 43.2821 36.4101C43.2644 36.4101 43.2462 36.4101 43.2285 36.4101C43.2285 34.4989 43.2285 32.5878 43.2285 30.6766C43.0913 30.6928 42.9664 30.6749 42.8533 30.623Z" fill="#7F89A6"/>
<path opacity="0.867" fill-rule="evenodd" clip-rule="evenodd" d="M51.858 30.6763C51.858 33.0161 51.858 35.3559 51.858 37.6957C51.7867 37.6957 51.7148 37.6957 51.6436 37.6957C51.6816 37.6473 51.7352 37.6294 51.8044 37.6421C51.7867 35.3111 51.8044 32.9891 51.858 30.6763Z" fill="#ACB3C6"/>
<path opacity="0.843" fill-rule="evenodd" clip-rule="evenodd" d="M54.538 33.9453C54.4914 34.1211 54.4554 34.2997 54.4308 34.4811C54.456 34.6415 54.4737 34.8022 54.4844 34.9634C54.3279 34.6146 54.3461 34.2753 54.538 33.9453Z" fill="#7F87A4"/>
<path opacity="0.902" fill-rule="evenodd" clip-rule="evenodd" d="M26.2373 33.7842C26.2373 35.1059 26.2373 36.4276 26.2373 37.7494C25.6836 37.7494 25.1294 37.7494 24.5757 37.7494C24.5757 37.7315 24.5757 37.7136 24.5757 37.6958C25.1117 37.6958 25.6477 37.6958 26.1837 37.6958C26.166 36.3827 26.1837 35.0788 26.2373 33.7842Z" fill="#BDC2D2"/>
<path opacity="0.851" fill-rule="evenodd" clip-rule="evenodd" d="M48.3203 34.5879C48.6778 34.6593 49.0348 34.6593 49.3923 34.5879C49.3698 34.6266 49.3344 34.6534 49.2851 34.6683C48.9994 34.704 48.7132 34.704 48.4275 34.6683C48.3782 34.6534 48.3428 34.6266 48.3203 34.5879Z" fill="#6A7394"/>
<path opacity="0.906" fill-rule="evenodd" clip-rule="evenodd" d="M23.45 34.6416C23.4275 34.6803 23.3921 34.7071 23.3428 34.722C23.0652 34.7657 22.7972 34.7568 22.5388 34.6952C22.8449 34.7052 23.1488 34.6874 23.45 34.6416Z" fill="#505070"/>
<path opacity="0.902" fill-rule="evenodd" clip-rule="evenodd" d="M37.1716 34.1592C37.2676 34.5039 37.2944 34.8611 37.252 35.2308C37.2317 35.2606 37.2049 35.2785 37.1716 35.2844C37.2231 34.9105 37.2231 34.5354 37.1716 34.1592Z" fill="#A4AABF"/>
<path opacity="0.851" fill-rule="evenodd" clip-rule="evenodd" d="M2.81396 32.3911C2.80163 33.9848 2.87313 35.5744 3.02836 37.16C2.79547 35.5769 2.72402 33.9872 2.81396 32.3911Z" fill="#636C8D"/>
<path opacity="0.902" fill-rule="evenodd" clip-rule="evenodd" d="M31.2756 33.9453C31.3292 35.1685 31.3469 36.4009 31.3292 37.6426C31.8475 37.6426 32.3653 37.6426 32.8836 37.6426C32.867 37.4704 32.8847 37.3097 32.9372 37.1603C32.9372 37.3389 32.9372 37.5176 32.9372 37.6961C32.3835 37.6961 31.8293 37.6961 31.2756 37.6961C31.2756 36.4459 31.2756 35.1956 31.2756 33.9453Z" fill="#C2C7D5"/>
<path opacity="0.902" fill-rule="evenodd" clip-rule="evenodd" d="M64.3467 34.5347C64.3558 35.16 64.3467 35.7852 64.3199 36.4101C64.3103 36.6167 64.2835 36.8132 64.2395 36.9995C64.2625 36.169 64.2985 35.3474 64.3467 34.5347Z" fill="#ABB1C4"/>
<path opacity="0.843" fill-rule="evenodd" clip-rule="evenodd" d="M24.4148 35.9277C24.4529 35.8792 24.5065 35.8614 24.5756 35.8741C24.5756 36.4813 24.5756 37.0887 24.5756 37.6959C24.5756 37.7138 24.5756 37.7317 24.5756 37.7495C24.5574 37.1313 24.5038 36.524 24.4148 35.9277Z" fill="#828CA8"/>
<path opacity="0.851" fill-rule="evenodd" clip-rule="evenodd" d="M49.6604 35.8743C49.4776 35.9495 49.2809 35.9852 49.0708 35.9815C49.2536 35.9063 49.4503 35.8705 49.6604 35.8743Z" fill="#76819F"/>
<path opacity="0.851" fill-rule="evenodd" clip-rule="evenodd" d="M36.6357 36.0347C36.5118 36.1176 36.3693 36.1532 36.2069 36.1418C36.0889 36.1416 35.9817 36.1237 35.8853 36.0883C36.1377 36.0961 36.388 36.0783 36.6357 36.0347Z" fill="#646E91"/>
<path opacity="0.867" fill-rule="evenodd" clip-rule="evenodd" d="M23.9325 36.0884C23.5643 36.2253 23.1891 36.261 22.8069 36.1955C23.1842 36.18 23.5594 36.1442 23.9325 36.0884Z" fill="#9FA7BC"/>
<path opacity="0.906" fill-rule="evenodd" clip-rule="evenodd" d="M16.2676 36.249C16.6589 36.292 17.0523 36.3098 17.4468 36.3026C17.2962 36.3382 17.1354 36.3561 16.9644 36.3562C16.7173 36.366 16.4852 36.3303 16.2676 36.249Z" fill="#494666"/>
<path opacity="0.843" fill-rule="evenodd" clip-rule="evenodd" d="M51.6435 37.696C51.189 37.7492 50.7243 37.767 50.2499 37.7495C50.259 37.0884 50.2499 36.4276 50.2231 35.767C50.1502 35.8141 50.0698 35.832 49.9819 35.8205C50.0736 35.7542 50.1808 35.7185 50.3035 35.7134C50.3035 36.3742 50.3035 37.0351 50.3035 37.696C50.75 37.696 51.197 37.696 51.6435 37.696Z" fill="#677192"/>
<path opacity="0.867" fill-rule="evenodd" clip-rule="evenodd" d="M1.58121 36.3564C1.66467 36.6651 1.70042 36.9866 1.68841 37.3209C1.61091 37.0116 1.57521 36.6901 1.58121 36.3564Z" fill="#7E86A2"/>
<path opacity="0.906" fill-rule="evenodd" clip-rule="evenodd" d="M58.7725 34.1594C58.8486 34.1085 58.9381 34.0906 59.0405 34.1058C59.086 35.284 59.1037 36.4629 59.0941 37.6423C59.0496 36.4901 59.0137 35.3291 58.9869 34.1594C58.9156 34.1594 58.8437 34.1594 58.7725 34.1594Z" fill="#484769"/>
<path opacity="0.867" fill-rule="evenodd" clip-rule="evenodd" d="M35.3491 37.3745C35.4912 37.3696 35.6166 37.4053 35.7243 37.4816C35.5823 37.4864 35.4569 37.4508 35.3491 37.3745Z" fill="#7D85A3"/>
<path opacity="0.867" fill-rule="evenodd" clip-rule="evenodd" d="M35.7781 37.4814C36.1163 37.5184 36.4556 37.5363 36.7965 37.535C36.6818 37.5706 36.5569 37.5885 36.4213 37.5886C36.1929 37.5934 35.9785 37.5576 35.7781 37.4814Z" fill="#929AB3"/>
<path opacity="0.949" fill-rule="evenodd" clip-rule="evenodd" d="M3.02845 37.2139C3.10606 37.5783 3.15966 37.9534 3.18925 38.3391C3.06216 37.9817 3.00856 37.6066 3.02845 37.2139Z" fill="#9EA4BA"/>
<path opacity="0.851" fill-rule="evenodd" clip-rule="evenodd" d="M1.68834 37.3208C1.76724 37.5576 1.80294 37.8077 1.79554 38.071C1.70383 37.8362 1.66813 37.5862 1.68834 37.3208Z" fill="#595E83"/>
<path fill-rule="evenodd" clip-rule="evenodd" d="M4.74365 41.7148C10.9294 41.7375 17.2453 41.7911 23.6913 41.8756C23.9952 41.8578 24.2985 41.8399 24.6025 41.822C30.3082 41.8956 36.0257 41.967 41.7545 42.0363C46.3249 42.04 50.7737 42.04 55.1008 42.0363C56.0121 42.0721 56.9233 42.1078 57.8344 42.1435C59.1085 42.1367 60.3413 42.1188 61.5329 42.0899C61.8051 42.1332 62.0822 42.16 62.3637 42.1703C59.5304 50.6466 54.0814 56.8087 46.0157 60.6566C39.1002 63.6621 32.0609 64.1266 24.8973 62.0497C16.6257 59.3888 10.5065 54.1998 6.53925 46.4838C5.7665 44.9611 5.16795 43.3715 4.74365 41.7148Z" fill="#F26F22"/>
<path opacity="0.843" fill-rule="evenodd" clip-rule="evenodd" d="M21.842 62.9873C22.005 62.9996 22.1481 63.0532 22.2708 63.1481C22.1079 63.1357 21.9648 63.0821 21.842 62.9873Z" fill="#7D86A4"/>
<path opacity="0.867" fill-rule="evenodd" clip-rule="evenodd" d="M26.0764 63.0942C26.2142 63.106 26.3391 63.1419 26.4516 63.2014C26.3053 63.2191 26.1804 63.1832 26.0764 63.0942Z" fill="#8089A6"/>
<path opacity="0.843" fill-rule="evenodd" clip-rule="evenodd" d="M41.138 63.0942C41.0126 63.1768 40.87 63.2127 40.7092 63.2014C40.8384 63.1334 40.981 63.098 41.138 63.0942Z" fill="#737D9C"/>
<path opacity="0.867" fill-rule="evenodd" clip-rule="evenodd" d="M40.7092 63.2017C40.5661 63.2885 40.4053 63.3238 40.2268 63.3088C40.3753 63.2467 40.5361 63.2113 40.7092 63.2017Z" fill="#7E86A2"/>
<path opacity="0.867" fill-rule="evenodd" clip-rule="evenodd" d="M26.3979 64.3804C26.5898 64.3831 26.7683 64.419 26.9339 64.4875C26.7399 64.4972 26.5609 64.4613 26.3979 64.3804Z" fill="#747D9B"/>
<path opacity="0.843" fill-rule="evenodd" clip-rule="evenodd" d="M26.9875 64.4878C27.2202 64.4964 27.4346 64.5499 27.6307 64.6485C27.4003 64.6351 27.1859 64.5816 26.9875 64.4878Z" fill="#7B84A1"/>
<path opacity="0.867" fill-rule="evenodd" clip-rule="evenodd" d="M38.5651 64.7554C38.3282 64.8341 38.0779 64.87 37.8147 64.8625C38.0527 64.7929 38.303 64.757 38.5651 64.7554Z" fill="#969EB6"/>
<path opacity="0.902" fill-rule="evenodd" clip-rule="evenodd" d="M28.7563 64.8093C29.0367 64.8061 29.3047 64.842 29.5603 64.9164C29.28 64.9197 29.012 64.8838 28.7563 64.8093Z" fill="#A5ACC0"/>
<path opacity="0.972" fill-rule="evenodd" clip-rule="evenodd" d="M52.4477 68.3992C53.6365 68.2819 54.7798 68.4518 55.8781 68.9083C57.5166 69.8514 58.4369 71.2713 58.6385 73.1682C58.7789 74.3765 58.654 75.5735 58.2633 76.7583C57.6517 78.2639 56.5797 79.2284 55.0473 79.6518C54.7139 79.7702 54.3741 79.8773 54.0289 79.9733C52.6535 80.0783 51.3585 79.7836 50.1429 79.0891C49.4391 78.6015 48.9031 77.9944 48.5349 77.2673C47.8579 75.8436 47.6703 74.3165 47.9721 72.6859C48.3285 70.7232 49.4273 69.3745 51.2685 68.6404C51.6641 68.5343 52.0575 68.4539 52.4477 68.3992ZM53.0373 70.3818C54.9642 70.4236 56.0271 71.4058 56.2265 73.3289C56.3835 74.4938 56.205 75.6014 55.6905 76.6511C54.9026 77.6579 53.8756 78.0421 52.6085 77.8031C51.5424 77.5411 50.8365 76.889 50.4913 75.8473C50.093 74.4124 50.2002 73.0192 50.8129 71.6678C51.3548 70.8828 52.0966 70.4542 53.0373 70.3818Z" fill="#01154E"/>
<path opacity="0.957" fill-rule="evenodd" clip-rule="evenodd" d="M3.3501 68.6138C4.11835 68.6138 4.88665 68.6138 5.6549 68.6138C5.66653 72.2435 5.66653 75.9408 5.6549 79.7055C4.87791 79.7597 4.10961 79.7597 3.3501 79.7055C3.3501 76.0083 3.3501 72.311 3.3501 68.6138Z" fill="#01154F"/>
<path opacity="0.96" fill-rule="evenodd" clip-rule="evenodd" d="M22.1635 68.6138C22.9139 68.6138 23.6643 68.6138 24.4147 68.6138C24.4324 72.2933 24.4147 75.9729 24.3611 79.6519C23.6772 79.7195 22.9981 79.7371 22.3243 79.7055C22.3217 79.3733 22.3131 79.0518 22.2975 78.741C20.9281 80.1283 19.4541 80.2982 17.8755 79.2501C16.8834 78.2566 16.401 77.051 16.4283 75.6332C16.4149 74.5396 16.7097 73.5392 17.3127 72.6325C18.3654 71.5008 19.625 71.1885 21.0915 71.6948C21.4684 71.884 21.8076 72.1251 22.1099 72.4182C22.0987 71.047 22.1169 69.7787 22.1635 68.6138ZM20.3411 73.1684C21.3504 73.2037 21.9309 73.7219 22.0831 74.7223C22.2011 75.4226 22.1834 76.1192 22.0295 76.812C21.6586 77.971 20.8997 78.3552 19.7515 77.9641C19.2943 77.686 18.9995 77.2841 18.8671 76.7584C18.6908 75.996 18.6908 75.2458 18.8671 74.5079C19.0998 73.7288 19.5907 73.2825 20.3411 73.1684Z" fill="#01154E"/>
<path opacity="0.94" fill-rule="evenodd" clip-rule="evenodd" d="M26.2373 68.6138C26.9877 68.6138 27.7381 68.6138 28.4885 68.6138C28.4976 69.2927 28.4885 69.9716 28.4617 70.6499C27.7247 70.5969 26.9829 70.5792 26.2373 70.5964C26.2373 69.9357 26.2373 69.2745 26.2373 68.6138Z" fill="#01154F"/>
<path opacity="0.962" fill-rule="evenodd" clip-rule="evenodd" d="M60.166 68.6138C60.8987 68.6138 61.6309 68.6138 62.3636 68.6138C62.4338 69.3082 62.4247 69.9866 62.3368 70.6499C61.6175 70.5969 60.8939 70.5792 60.166 70.5964C60.166 69.9357 60.166 69.2745 60.166 68.6138Z" fill="#01154F"/>
<path opacity="0.956" fill-rule="evenodd" clip-rule="evenodd" d="M64.4005 68.6138C65.1332 68.6138 65.8654 68.6138 66.5981 68.6138C66.5981 72.311 66.5981 76.0083 66.5981 79.7055C65.8627 79.7227 65.1305 79.7045 64.4005 79.6519C64.3951 75.8357 64.3951 72.1567 64.4005 68.6138Z" fill="#01154E"/>
<path opacity="0.963" fill-rule="evenodd" clip-rule="evenodd" d="M11.8724 71.4535C12.8254 71.3635 13.6562 71.6314 14.3648 72.2573C14.7507 72.7808 14.9469 73.3702 14.9544 74.0255C14.9635 75.5028 14.9903 76.9763 15.0348 78.4461C15.0337 78.8121 15.0155 79.2317 14.9812 79.7053C14.2565 79.7225 13.5238 79.7225 12.7836 79.7053C12.7927 78.2586 12.7836 76.8118 12.7568 75.3651C12.7541 74.907 12.7182 74.4429 12.6496 73.9719C12.4433 73.5106 12.0863 73.2427 11.5776 73.1682C10.777 73.158 10.241 73.5331 9.96961 74.2934C9.92389 74.5061 9.88819 74.7205 9.86241 74.9364C9.84456 76.508 9.82666 78.0802 9.80881 79.6518C9.07101 79.7696 8.33846 79.7696 7.61121 79.6518C7.58441 76.9726 7.57546 74.2934 7.58441 71.6143C8.28121 71.6143 8.97801 71.6143 9.67481 71.6143C9.68082 71.9272 9.70762 72.2487 9.75521 72.5788C10.3268 71.9406 11.0326 71.5655 11.8724 71.4535Z" fill="#01154E"/>
<path opacity="0.963" fill-rule="evenodd" clip-rule="evenodd" d="M33.0979 71.4537C33.7068 71.4521 34.3141 71.4789 34.9203 71.5341C36.2716 71.7055 36.9952 72.4648 37.0911 73.8114C37.1061 75.0797 37.1061 76.348 37.0911 77.6158C37.1136 78.3172 37.2653 78.987 37.5467 79.6251C37.529 79.6428 37.5108 79.661 37.4931 79.6787C36.7647 79.6991 36.0588 79.7082 35.3759 79.7055C35.2435 79.4473 35.1363 79.197 35.0543 78.9554C34.1785 79.7543 33.1515 80.0667 31.9723 79.8931C30.2244 79.4092 29.608 78.2754 30.1231 76.4905C30.3075 76.0383 30.62 75.7077 31.0611 75.4992C31.3565 75.3535 31.6598 75.2281 31.9723 75.1241C32.9227 74.927 33.8698 74.7126 34.8131 74.4811C34.901 74.1591 34.8742 73.8467 34.7327 73.5434C34.4192 73.2755 34.0525 73.1507 33.6339 73.1684C32.9323 73.0896 32.4408 73.4111 32.1599 74.1329C32.1213 74.1629 32.0763 74.1805 32.0259 74.1864C31.3731 74.0584 30.7476 73.9512 30.1499 73.8649C30.3327 72.8881 30.8687 72.1824 31.7579 71.7484C32.2039 71.6112 32.6504 71.5132 33.0979 71.4537ZM34.8131 75.9547C34.8828 76.0468 34.9187 76.1631 34.9203 76.303C35.0141 77.7095 34.3532 78.3702 32.9371 78.2856C32.1803 77.9801 31.975 77.4711 32.3207 76.7584C32.4311 76.6239 32.556 76.5521 32.6959 76.5441C32.8894 76.4439 33.0953 76.3635 33.3123 76.303C33.8205 76.1894 34.3205 76.0731 34.8131 75.9547Z" fill="#01154E"/>
<path opacity="0.968" fill-rule="evenodd" clip-rule="evenodd" d="M43.2284 71.4535C44.1047 71.3774 44.8905 71.6008 45.5868 72.1233C46.0713 72.7003 46.3125 73.3701 46.3104 74.1326C46.3463 75.9721 46.3463 77.8122 46.3104 79.6517C45.5723 79.7696 44.8401 79.7696 44.1128 79.6517C44.0822 78.6513 44.0913 77.6509 44.1396 76.6511C44.1208 75.7744 44.0763 74.8994 44.0056 74.0255C43.7928 73.4832 43.3908 73.1976 42.7996 73.1681C41.9886 73.2378 41.4794 73.6665 41.272 74.4541C41.2125 76.1854 41.1674 77.9178 41.138 79.6517C40.401 79.7332 39.6682 79.7508 38.9404 79.7053C38.9323 77.0009 38.9323 74.3036 38.9404 71.6142C39.6372 71.6142 40.334 71.6142 41.0308 71.6142C41.0313 71.9223 41.0404 72.2438 41.0576 72.5787C41.4821 72.1184 41.9913 71.7878 42.5852 71.5874C42.8087 71.5494 43.0231 71.5049 43.2284 71.4535Z" fill="#01154F"/>
<path opacity="0.95" fill-rule="evenodd" clip-rule="evenodd" d="M26.2373 71.6143C26.9877 71.6143 27.7381 71.6143 28.4885 71.6143C28.4885 74.3111 28.4885 77.0085 28.4885 79.7053C27.7349 79.7563 26.9931 79.7386 26.2641 79.6518C26.2373 76.9726 26.2282 74.2934 26.2373 71.6143Z" fill="#01154E"/>
<path opacity="0.96" fill-rule="evenodd" clip-rule="evenodd" d="M60.166 71.6143C60.8987 71.6143 61.6309 71.6143 62.3636 71.6143C62.422 74.2966 62.422 76.9935 62.3636 79.7053C61.6223 79.7096 60.8896 79.7096 60.166 79.7053C60.166 77.0085 60.166 74.3111 60.166 71.6143Z" fill="#01154E"/>
</g>
<defs>
<clipPath id="clip0_4623_25024">
<rect width="67" height="80" fill="white"/>
</clipPath>
</defs>
</svg>
