<svg width="120" height="80" viewBox="0 0 120 80" fill="none" xmlns="http://www.w3.org/2000/svg">
<g clip-path="url(#clip0_4623_12969)">
<path opacity="0.683" fill-rule="evenodd" clip-rule="evenodd" d="M95.969 0.463522C95.7622 0.463522 95.6589 0.566472 95.6589 0.772403C95.3991 0.877947 95.2955 1.08388 95.3488 1.39016C95.142 1.39016 95.0387 1.49311 95.0387 1.69904C94.8319 1.69904 94.7287 1.80199 94.7287 2.00792C94.4688 2.11347 94.3653 2.3194 94.4186 2.62568C94.2118 2.62568 94.1085 2.72863 94.1085 2.93456C93.9017 2.93456 93.7984 3.03751 93.7984 3.24345C93.5386 3.34899 93.435 3.55492 93.4884 3.86121C93.2815 3.86121 93.1783 3.96416 93.1783 4.17009C92.9715 4.17009 92.8682 4.27304 92.8682 4.47897C92.6084 4.58451 92.5048 4.79044 92.5581 5.09673C92.3513 5.09673 92.2481 5.19968 92.2481 5.40561C92.0412 5.40561 91.938 5.50856 91.938 5.71449C91.6781 5.82003 91.5746 6.02596 91.6279 6.33225C91.4211 6.33225 91.3178 6.4352 91.3178 6.64113C91.111 6.64113 91.0077 6.74408 91.0077 6.95001C90.7479 7.05555 90.6443 7.26148 90.6977 7.56777C90.4908 7.56777 90.3876 7.67072 90.3876 7.87665C90.1808 7.87665 90.0775 7.9796 90.0775 8.18553C89.8177 8.29107 89.7141 8.49701 89.7674 8.80329C89.5606 8.80329 89.4574 8.90624 89.4574 9.11217C89.044 9.21512 89.044 9.3181 89.4574 9.42105C89.48 9.89268 89.2732 10.2016 88.8372 10.3477C88.7339 9.93586 88.6304 9.93586 88.5271 10.3477C88.3203 10.3477 88.217 10.4506 88.217 10.6566C88.0102 10.6566 87.907 10.7595 87.907 10.9655C87.6471 11.071 87.5436 11.2769 87.5969 11.5832C87.3901 11.5832 87.2868 11.6862 87.2868 11.8921C87.08 11.8921 86.9767 11.995 86.9767 12.201C86.7169 12.3065 86.6133 12.5124 86.6667 12.8187C86.4598 12.8187 86.3566 12.9217 86.3566 13.1276C86.1498 13.1276 86.0465 13.2306 86.0465 13.4365C85.7867 13.542 85.6831 13.748 85.7364 14.0543C85.5296 14.0543 85.4263 14.1572 85.4263 14.3631C85.013 14.4661 85.013 14.5691 85.4263 14.672C85.3857 14.9427 85.489 15.1487 85.7364 15.2898C86.8735 15.7531 88.0102 16.2164 89.1473 16.6797C88.4356 16.9836 88.5392 17.2409 89.4574 17.4519C89.8505 17.1653 90.2639 17.1138 90.6977 17.2975C92.7104 18.2484 94.6744 19.278 96.5891 20.3863C125.53 20.5922 125.53 20.7981 96.5891 21.0041C103.941 21.0586 111.279 21.2131 118.605 21.4674C119.075 21.0316 119.489 21.0831 119.845 21.6218C119.92 22.6689 119.817 23.75 119.535 24.8651C119.328 24.8651 119.225 24.968 119.225 25.1739C118.811 25.2769 118.811 25.3799 119.225 25.4828C119.19 25.6735 119.087 25.828 118.915 25.9461C118.303 26.0992 117.683 26.1507 117.054 26.1006C116.951 24.8651 116.847 24.8651 116.744 26.1006C116.464 26.3196 116.361 26.6285 116.434 27.0272C115.786 28.4762 115.372 30.0206 115.194 31.6604C114.913 31.8794 114.81 32.1883 114.884 32.5871C114.594 32.917 114.491 33.3287 114.574 33.8226C114.293 34.0416 114.19 34.3505 114.264 34.7492C113.974 35.0791 113.87 35.4909 113.953 35.9848C113.512 36.6072 113.305 37.3278 113.333 38.1469C113.085 38.5954 112.93 39.11 112.868 39.6913C112.121 39.4939 111.345 39.3908 110.543 39.3824C109.684 39.3914 108.96 39.5971 108.372 40.0002C107.959 40.3091 107.959 40.618 108.372 40.9268C108.372 41.8535 108.372 42.7801 108.372 43.7068C108.077 44.1451 107.974 44.6597 108.062 45.2512C107.782 45.4702 107.678 45.779 107.752 46.1778C107.492 46.2834 107.389 46.4892 107.442 46.7956C107.054 48.2628 106.537 49.7043 105.891 51.1199C105.685 51.1199 105.581 51.2228 105.581 51.4288C105.375 51.4288 105.271 51.5316 105.271 51.7377C105.064 51.7377 104.961 51.8405 104.961 52.0465C104.754 52.0465 104.651 52.1494 104.651 52.3554C104.444 52.3554 104.341 52.4583 104.341 52.6643C103.928 52.7672 103.928 52.8703 104.341 52.9732C103.771 53.6431 103.047 54.0549 102.171 54.2087C101.964 53.797 101.757 53.797 101.55 54.2087C101.055 54.1259 100.641 54.2291 100.31 54.5176C99.3138 54.4218 98.3836 54.5247 97.5194 54.8265C96.6924 54.9293 96.6924 55.0325 97.5194 55.1353C94.937 56.5234 92.2496 57.759 89.4574 58.8419C89.2505 58.4302 89.044 58.4302 88.8372 58.8419C88.0102 58.9448 88.0102 59.0479 88.8372 59.1508C88.1265 59.6966 87.2998 60.0055 86.3566 60.0774C86.1498 59.6657 85.9432 59.6657 85.7364 60.0774C85.3361 60.0042 85.026 60.1071 84.8062 60.3863C84.4059 60.3131 84.0958 60.416 83.876 60.6952C82.6357 60.798 82.6357 60.9012 83.876 61.0041C83.5448 61.2926 83.1315 61.3957 82.6357 61.3129C82.3256 60.9012 82.0155 60.9012 81.7054 61.3129C81.3051 61.2397 80.995 61.3426 80.7752 61.6218C80.2794 61.539 79.866 61.6422 79.5349 61.9307C77.8812 62.0336 77.8812 62.1367 79.5349 62.2396C79.0949 62.5333 78.5783 62.6362 77.9845 62.5485C77.5712 62.1367 77.1575 62.1367 76.7442 62.5485C75.0905 62.6513 75.0905 62.7545 76.7442 62.8573C76.3042 63.1511 75.7876 63.254 75.1938 63.1662C74.6769 62.7545 74.1603 62.7545 73.6434 63.1662C72.9504 63.0751 72.3302 63.1783 71.7829 63.4751C70.9894 63.3818 70.2657 63.485 69.6124 63.784C68.6161 63.6882 67.6859 63.7911 66.8217 64.0929C60.0512 64.3984 53.3327 64.5012 46.6667 64.4017C45.525 64.3508 44.3882 64.4021 43.2558 64.5562C41.8533 65.1113 40.4062 65.4717 38.9147 65.6373C38.6046 65.2255 38.2946 65.2255 37.9845 65.6373C37.5842 65.5641 37.2741 65.6669 37.0543 65.9462C36.8896 66.3462 36.4763 66.5522 35.8139 66.5639C35.5039 66.1522 35.1938 66.1522 34.8837 66.5639C34.3879 66.4811 33.9746 66.5843 33.6434 66.8728C33.2431 66.7996 32.933 66.9024 32.7132 67.1817C32.2174 67.0989 31.804 67.2021 31.4729 67.4906C31.0725 67.4174 30.7625 67.5202 30.5426 67.7994C30.1783 67.8671 29.8682 67.7642 29.6124 67.4906C30.4515 66.6439 30.9166 65.7173 31.0077 64.7106C31.9891 64.4669 32.7643 63.7979 33.3333 62.7029C33.1625 62.2711 33.0592 61.859 33.0232 61.4674C32.5026 61.3454 31.986 61.397 31.4729 61.6218C31.266 61.5702 31.0595 61.519 30.8527 61.4674C31.1628 61.3645 31.4729 61.2614 31.7829 61.1585C30.5426 60.9525 29.3023 60.7468 28.062 60.5407C28.4753 60.3347 28.4753 60.129 28.062 59.923C27.6366 59.7988 27.2232 59.6444 26.8217 59.4597C26.4285 59.7463 26.0152 59.7979 25.5814 59.6141C25.0893 59.3479 24.5724 59.1418 24.031 58.9963C24.2378 58.8935 24.4443 58.7903 24.6512 58.6875C23.0397 58.5642 21.4893 58.0496 20 57.1431C19.8967 56.8342 19.7932 56.5253 19.6899 56.2164C18.876 56.4882 18.1525 56.2822 17.5194 55.5987C12.5581 55.4958 7.59689 55.3926 2.63565 55.2898C7.39354 55.2382 12.1481 55.0838 16.8992 54.8265C16.8474 54.7236 16.796 54.6204 16.7442 54.5176C14.3389 54.7211 11.9099 54.824 9.45735 54.8265C6.96734 54.8258 4.59007 54.6198 2.32557 54.2087C3.91016 49.779 5.25382 45.2487 6.35658 40.618C6.77001 40.3091 6.77001 40.0002 6.35658 39.6913C4.37168 39.2817 2.35618 39.2817 0.310068 39.6913C0.258378 39.434 0.206719 39.1764 0.155029 38.9191C1.73081 33.0004 3.2812 27.0802 4.80619 21.1585C20.5153 21.107 20.5153 20.9525 4.80619 20.6952C8.94055 20.5922 13.0749 20.4893 17.2093 20.3863C17.986 19.8447 18.8127 19.3814 19.6899 18.9963C19.8967 19.0993 20.1032 19.2023 20.3101 19.3052C21.0335 18.9449 21.7572 18.5845 22.4806 18.2241C22.2738 18.1212 22.0673 18.0182 21.8605 17.9153C22.8186 17.1705 23.8524 16.9131 24.9612 17.1431C25.8794 16.9321 25.9829 16.6747 25.2713 16.3709C26.1222 16.6768 26.9491 16.5739 27.7519 16.062C28.1653 15.856 28.1653 15.6501 27.7519 15.4442C28.8093 14.8818 29.8946 14.7274 31.0077 14.9809C31.8933 14.7475 32.7718 14.4901 33.6434 14.2087C33.3333 14.1057 33.0232 14.0028 32.7132 13.8998C34.3919 14.1026 36.0459 13.8967 37.6744 13.2821C36.1113 12.9708 36.2146 12.8164 37.9845 12.8187C38.1696 13.016 38.4279 13.119 38.7597 13.1276C42.0918 12.4746 45.4512 12.0113 48.8372 11.7377C54.2118 11.6347 59.5867 11.5317 64.9612 11.4288C66.1327 10.9226 67.3212 10.4593 68.5271 10.0388C69.1234 10.4409 69.6921 10.3895 70.2326 9.88437C69.5829 9.71276 69.5312 9.55832 70.0775 9.42105C70.7529 9.73722 71.4248 9.68573 72.093 9.26661C72.8164 8.95773 73.5401 8.64885 74.2636 8.33997C74.0567 8.23702 73.8502 8.13404 73.6434 8.03109C74.6769 7.61926 75.7107 7.2074 76.7442 6.79557C78.3659 6.84366 79.9163 6.43183 81.3953 5.56005C81.8087 5.35412 81.8087 5.14822 81.3953 4.94229C82.4012 4.64267 83.3829 4.28233 84.3411 3.86121C84.9374 4.26334 85.506 4.21185 86.0465 3.70677C85.8397 3.60382 85.6332 3.50084 85.4263 3.39789C87.048 3.44598 88.5984 3.03415 90.0775 2.16236C90.4908 1.95643 90.4908 1.75053 90.0775 1.5446C91.1606 1.25367 92.1941 0.841839 93.1783 0.309082C94.1556 0.428217 95.0859 0.479677 95.969 0.463522Z" fill="#F9F7F7"/>
<path opacity="0.01" fill-rule="evenodd" clip-rule="evenodd" d="M96.2791 0.154297C96.6924 0.360227 96.6924 0.360227 96.2791 0.154297V0.154297Z" fill="#FEFFFE"/>
<path opacity="0.01" fill-rule="evenodd" clip-rule="evenodd" d="M95.969 0.463379C96.0722 0.463379 96.1758 0.463379 96.2791 0.463379C96.2217 0.67036 96.1181 0.67036 95.969 0.463379Z" fill="#FEFFFE"/>
<path opacity="0.01" fill-rule="evenodd" clip-rule="evenodd" d="M95.6589 0.771973C95.7622 0.771973 95.8658 0.771973 95.969 0.771973C96.0223 1.07826 95.9188 1.28419 95.6589 1.38973C95.6589 1.1838 95.6589 0.977903 95.6589 0.771973Z" fill="#FEFFFE"/>
<path opacity="0.012" fill-rule="evenodd" clip-rule="evenodd" d="M95.3489 1.39014C95.4521 1.39014 95.5557 1.39014 95.659 1.39014C95.6016 1.59712 95.498 1.59712 95.3489 1.39014Z" fill="#FEFFFE"/>
<path opacity="0.016" fill-rule="evenodd" clip-rule="evenodd" d="M95.0388 1.69873C95.1421 1.69873 95.2456 1.69873 95.3489 1.69873C95.2915 1.90571 95.188 1.90571 95.0388 1.69873Z" fill="#FEFFFE"/>
<path opacity="0.01" fill-rule="evenodd" clip-rule="evenodd" d="M94.7288 2.00781C94.832 2.00781 94.9356 2.00781 95.0388 2.00781C95.0922 2.3141 94.9886 2.52003 94.7288 2.62557C94.7288 2.41964 94.7288 2.21374 94.7288 2.00781Z" fill="#FEFFFE"/>
<path opacity="0.012" fill-rule="evenodd" clip-rule="evenodd" d="M94.4187 2.62549C94.522 2.62549 94.6255 2.62549 94.7288 2.62549C94.6714 2.83247 94.5678 2.83247 94.4187 2.62549Z" fill="#FEFFFE"/>
<path fill-rule="evenodd" clip-rule="evenodd" d="M96.279 22.3936C95.8656 22.3936 95.452 22.3936 95.0387 22.3936C91.1922 19.8604 87.0061 18.0071 82.4805 16.8338C81.9828 17.0193 81.5695 17.3282 81.2402 17.7604C80.079 19.2733 78.9937 20.8177 77.9844 22.3936C77.5711 22.3936 77.1574 22.3936 76.7441 22.3936C81.2247 16.3324 85.7726 10.3093 90.3875 4.32413C74.8842 10.0728 59.4836 16.096 44.186 22.3936C43.4625 22.3936 42.7388 22.3936 42.0154 22.3936C49.261 19.3164 56.5996 16.382 64.0309 13.5905C50.6917 12.383 37.772 14.1333 25.2712 18.8415C22.9819 19.8774 20.8114 21.0614 18.7596 22.3936C18.3463 22.3936 17.9326 22.3936 17.5193 22.3936C23.5066 18.5917 30.0182 15.9662 37.0542 14.5172C46.6855 12.6074 56.4015 11.9896 66.2015 12.6639C75.0238 9.3055 83.8092 5.85636 92.558 2.31641C92.8746 2.47134 92.9264 2.67727 92.7131 2.93417C89.4132 7.3026 86.0542 11.6269 82.6356 15.9071C85.5066 17.1186 88.4005 18.3027 91.3177 19.4593C93.1053 20.2722 94.759 21.2503 96.279 22.3936Z" fill="#181917"/>
<path opacity="0.016" fill-rule="evenodd" clip-rule="evenodd" d="M94.1086 2.93457C94.2119 2.93457 94.3155 2.93457 94.4187 2.93457C94.3614 3.14155 94.2578 3.14155 94.1086 2.93457Z" fill="#FEFFFE"/>
<path opacity="0.01" fill-rule="evenodd" clip-rule="evenodd" d="M93.7983 3.24316C93.9016 3.24316 94.0052 3.24316 94.1084 3.24316C94.1618 3.54945 94.0582 3.75538 93.7983 3.86092C93.7983 3.65499 93.7983 3.44909 93.7983 3.24316Z" fill="#FEFFFE"/>
<path opacity="0.012" fill-rule="evenodd" clip-rule="evenodd" d="M93.4883 3.86084C93.5915 3.86084 93.6951 3.86084 93.7984 3.86084C93.741 4.06782 93.6374 4.06782 93.4883 3.86084Z" fill="#FEFFFE"/>
<path opacity="0.016" fill-rule="evenodd" clip-rule="evenodd" d="M93.1782 4.16992C93.2815 4.16992 93.385 4.16992 93.4883 4.16992C93.4309 4.3769 93.3274 4.3769 93.1782 4.16992Z" fill="#FEFFFE"/>
<path opacity="0.01" fill-rule="evenodd" clip-rule="evenodd" d="M92.8682 4.479C92.9714 4.479 93.075 4.479 93.1782 4.479C93.2316 4.78529 93.128 4.99122 92.8682 5.09676C92.8682 4.89083 92.8682 4.68493 92.8682 4.479Z" fill="#FEFFFE"/>
<path fill-rule="evenodd" clip-rule="evenodd" d="M76.7442 22.3937C75.5984 22.5871 75.3398 22.2783 75.969 21.4671C79.7932 16.525 83.6177 11.5829 87.4418 6.64082C87.6487 6.43489 87.6487 6.22899 87.4418 6.02306C73.8555 11.427 60.2636 16.8325 46.6667 22.2393C45.8462 22.3929 45.0192 22.4444 44.186 22.3937C59.4837 16.0961 74.8843 10.0729 90.3876 4.32422C85.7727 10.3094 81.2248 16.3325 76.7442 22.3937Z" fill="#EFE8E8"/>
<path opacity="0.012" fill-rule="evenodd" clip-rule="evenodd" d="M92.5581 5.09668C92.6614 5.09668 92.7649 5.09668 92.8682 5.09668C92.8108 5.30366 92.7073 5.30366 92.5581 5.09668Z" fill="#FEFFFE"/>
<path opacity="0.016" fill-rule="evenodd" clip-rule="evenodd" d="M92.248 5.40527C92.3513 5.40527 92.4549 5.40527 92.5581 5.40527C92.5008 5.61225 92.3972 5.61225 92.248 5.40527Z" fill="#FEFFFE"/>
<path opacity="0.01" fill-rule="evenodd" clip-rule="evenodd" d="M91.938 5.71436C92.0412 5.71436 92.1448 5.71436 92.2481 5.71436C92.3014 6.02064 92.1978 6.22657 91.938 6.33212C91.938 6.12619 91.938 5.92029 91.938 5.71436Z" fill="#FEFFFE"/>
<path opacity="0.012" fill-rule="evenodd" clip-rule="evenodd" d="M91.6279 6.33203C91.7312 6.33203 91.8348 6.33203 91.938 6.33203C91.8806 6.53901 91.7771 6.53901 91.6279 6.33203Z" fill="#FEFFFE"/>
<path opacity="0.016" fill-rule="evenodd" clip-rule="evenodd" d="M91.3179 6.64111C91.4211 6.64111 91.5247 6.64111 91.6279 6.64111C91.5706 6.84809 91.467 6.84809 91.3179 6.64111Z" fill="#FEFFFE"/>
<path opacity="0.01" fill-rule="evenodd" clip-rule="evenodd" d="M91.0078 6.94971C91.1111 6.94971 91.2146 6.94971 91.3179 6.94971C91.3712 7.25599 91.2677 7.46192 91.0078 7.56747C91.0078 7.36154 91.0078 7.15564 91.0078 6.94971Z" fill="#FEFFFE"/>
<path fill-rule="evenodd" clip-rule="evenodd" d="M76.7443 22.3936C77.1576 22.3936 77.5713 22.3936 77.9846 22.3936C83.6693 22.3936 89.3542 22.3936 95.0389 22.3936C95.4522 22.3936 95.8659 22.3936 96.2792 22.3936C103.001 22.2907 109.719 22.3937 116.434 22.7025C116.01 23.8689 115.597 25.0014 115.194 26.1002C114.863 25.8115 114.449 25.7086 113.954 25.7913C114.12 25.2918 114.224 24.777 114.264 24.2469C114.432 24.2284 114.535 24.1254 114.574 23.938C99.7421 23.5269 84.962 23.5269 70.2327 23.938C70.0088 24.067 69.8538 24.2729 69.7676 24.5558C66.1421 22.6633 62.7313 22.9722 59.535 25.4824C58.7437 24.5992 57.7617 24.0844 56.5893 23.938C40.104 23.6808 23.5666 23.5263 6.97686 23.4747C23.6178 23.3717 40.2584 23.2688 56.8993 23.1658C53.4742 23.1076 50.0634 22.9531 46.6668 22.7025C33.0659 22.9076 19.4742 23.1135 5.89159 23.3202C5.74762 23.1367 5.69593 22.9307 5.73655 22.7025C9.60911 22.395 13.5368 22.2921 17.5195 22.3936C17.9328 22.3936 18.3465 22.3936 18.7598 22.3936C26.5117 22.3936 34.2637 22.3936 42.0156 22.3936C42.739 22.3936 43.4628 22.3936 44.1862 22.3936C45.0193 22.4443 45.8463 22.3928 46.6668 22.2392C60.2637 16.8323 73.8556 11.4269 87.442 6.02295C87.6488 6.22888 87.6488 6.43478 87.442 6.64071C83.6178 11.5828 79.7933 16.5249 75.9691 21.467C75.34 22.2781 75.5986 22.587 76.7443 22.3936Z" fill="#EC202A"/>
<path opacity="0.01" fill-rule="evenodd" clip-rule="evenodd" d="M90.6978 7.56738C90.801 7.56738 90.9046 7.56738 91.0078 7.56738C90.9505 7.77436 90.8469 7.77436 90.6978 7.56738Z" fill="#FEFFFE"/>
<path opacity="0.016" fill-rule="evenodd" clip-rule="evenodd" d="M90.3877 7.87646C90.491 7.87646 90.5945 7.87646 90.6978 7.87646C90.6404 8.08345 90.5368 8.08345 90.3877 7.87646Z" fill="#FEFFFE"/>
<path opacity="0.01" fill-rule="evenodd" clip-rule="evenodd" d="M90.0776 8.18555C90.1809 8.18555 90.2845 8.18555 90.3877 8.18555C90.441 8.49183 90.3375 8.69776 90.0776 8.80331C90.0776 8.59738 90.0776 8.39148 90.0776 8.18555Z" fill="#FEFFFE"/>
<path opacity="0.01" fill-rule="evenodd" clip-rule="evenodd" d="M89.7673 8.80322C89.8706 8.80322 89.9742 8.80322 90.0774 8.80322C90.02 9.0102 89.9165 9.0102 89.7673 8.80322Z" fill="#FEFFFE"/>
<path opacity="0.012" fill-rule="evenodd" clip-rule="evenodd" d="M89.4573 9.11182C89.5605 9.11182 89.6641 9.11182 89.7674 9.11182C89.71 9.3188 89.6064 9.3188 89.4573 9.11182Z" fill="#FEFFFE"/>
<path opacity="0.012" fill-rule="evenodd" clip-rule="evenodd" d="M88.5271 10.3477C88.6304 10.3477 88.7339 10.3477 88.8372 10.3477C88.7798 10.5546 88.6762 10.5546 88.5271 10.3477Z" fill="#FEFFFE"/>
<path opacity="0.016" fill-rule="evenodd" clip-rule="evenodd" d="M88.217 10.6562C88.3203 10.6562 88.4239 10.6562 88.5271 10.6562C88.4698 10.8632 88.3662 10.8632 88.217 10.6562Z" fill="#FEFFFE"/>
<path opacity="0.01" fill-rule="evenodd" clip-rule="evenodd" d="M87.907 10.9653C88.0102 10.9653 88.1138 10.9653 88.2171 10.9653C88.2704 11.2716 88.1668 11.4775 87.907 11.5831C87.907 11.3772 87.907 11.1713 87.907 10.9653Z" fill="#FEFFFE"/>
<path opacity="0.011" fill-rule="evenodd" clip-rule="evenodd" d="M43.2559 11.8918C43.9157 11.5431 44.6391 11.4916 45.4264 11.7374C44.7101 11.8908 43.9867 11.9423 43.2559 11.8918Z" fill="#FEFFFE"/>
<path opacity="0.012" fill-rule="evenodd" clip-rule="evenodd" d="M87.5969 11.583C87.7002 11.583 87.8037 11.583 87.907 11.583C87.8496 11.79 87.7461 11.79 87.5969 11.583Z" fill="#FEFFFE"/>
<path opacity="0.016" fill-rule="evenodd" clip-rule="evenodd" d="M87.2869 11.8921C87.3901 11.8921 87.4937 11.8921 87.5969 11.8921C87.5396 12.0991 87.436 12.0991 87.2869 11.8921Z" fill="#FEFFFE"/>
<path opacity="0.01" fill-rule="evenodd" clip-rule="evenodd" d="M86.9768 12.2007C87.0801 12.2007 87.1836 12.2007 87.2869 12.2007C87.3402 12.507 87.2367 12.7129 86.9768 12.8184C86.9768 12.6125 86.9768 12.4066 86.9768 12.2007Z" fill="#FEFFFE"/>
<path opacity="0.012" fill-rule="evenodd" clip-rule="evenodd" d="M37.9844 12.8185C38.3258 12.4793 38.7391 12.4278 39.2247 12.6641C38.8238 12.8154 38.4101 12.8669 37.9844 12.8185Z" fill="#FEFFFE"/>
<path opacity="0.012" fill-rule="evenodd" clip-rule="evenodd" d="M86.6667 12.8184C86.77 12.8184 86.8736 12.8184 86.9768 12.8184C86.9195 13.0253 86.8159 13.0253 86.6667 12.8184Z" fill="#FEFFFE"/>
<path opacity="0.016" fill-rule="evenodd" clip-rule="evenodd" d="M86.3567 13.1274C86.4599 13.1274 86.5635 13.1274 86.6668 13.1274C86.6094 13.3344 86.5058 13.3344 86.3567 13.1274Z" fill="#FEFFFE"/>
<path fill-rule="evenodd" clip-rule="evenodd" d="M42.0156 22.394C34.2636 22.394 26.5117 22.394 18.7598 22.394C20.8115 21.0618 22.9821 19.8778 25.2714 18.8419C37.7722 14.1337 50.6919 12.3834 64.0311 13.5909C56.5998 16.3824 49.2612 19.3168 42.0156 22.394Z" fill="#5FB845"/>
<path opacity="0.01" fill-rule="evenodd" clip-rule="evenodd" d="M86.0464 13.4365C86.1496 13.4365 86.2532 13.4365 86.3565 13.4365C86.4098 13.7428 86.3062 13.9487 86.0464 14.0543C86.0464 13.8484 86.0464 13.6425 86.0464 13.4365Z" fill="#FEFFFE"/>
<path opacity="0.012" fill-rule="evenodd" clip-rule="evenodd" d="M85.7363 14.0542C85.8396 14.0542 85.9431 14.0542 86.0464 14.0542C85.989 14.2612 85.8855 14.2612 85.7363 14.0542Z" fill="#FEFFFE"/>
<path opacity="0.016" fill-rule="evenodd" clip-rule="evenodd" d="M85.4263 14.3628C85.5295 14.3628 85.6331 14.3628 85.7363 14.3628C85.679 14.5698 85.5754 14.5698 85.4263 14.3628Z" fill="#FEFFFE"/>
<path fill-rule="evenodd" clip-rule="evenodd" d="M72.4032 16.216C72.6324 16.1755 72.8392 16.227 73.0234 16.3704C71.4355 18.3503 69.8851 20.358 68.3722 22.3936C65.4268 21.7818 62.5843 22.0906 59.8451 23.3202C59.2581 23.1052 58.6897 22.8478 58.1396 22.548C62.9127 20.4002 67.6671 18.2895 72.4032 16.216Z" fill="#63B945"/>
<path fill-rule="evenodd" clip-rule="evenodd" d="M95.0386 22.3938C89.354 22.3938 83.669 22.3938 77.9844 22.3938C78.9937 20.8179 80.0789 19.2735 81.2402 17.7606C81.5695 17.3284 81.9828 17.0195 82.4805 16.834C87.0061 18.0073 91.1921 19.8606 95.0386 22.3938Z" fill="#60B945"/>
<path fill-rule="evenodd" clip-rule="evenodd" d="M70.2326 23.9384C84.9622 23.8358 99.6391 23.9387 114.264 24.2472C114.224 24.7773 114.12 25.2921 113.954 25.7916C112.733 29.4151 111.7 33.1217 110.853 36.9113C106.718 36.9113 102.584 36.9113 98.4496 36.9113C99.1752 34.2296 99.8986 31.5526 100.62 28.8804C99.9678 28.7881 99.3476 28.8909 98.7597 29.1893C97.8453 31.7157 97.1216 34.2896 96.5892 36.9113C87.5969 36.9113 78.6047 36.9113 69.6124 36.9113C70.2748 34.3149 70.9985 31.741 71.783 29.1893C70.8977 28.7869 69.9675 28.7869 68.9923 29.1893C69.0307 29.3768 69.134 29.4797 69.3024 29.4982C69.8775 33.8936 67.9138 36.3646 63.4109 36.9113C53.2286 37.0139 43.0996 36.9107 33.0233 36.6025C33.6676 34.1175 34.391 31.6465 35.1938 29.1893C34.5132 28.7974 33.8416 28.7974 33.1783 29.1893C32.3538 31.7549 31.5786 34.3288 30.8527 36.9113C28.7275 37.0114 26.6602 36.9086 24.6512 36.6025C25.2717 34.233 25.8918 31.8648 26.5117 29.4982C26.68 29.4797 26.7833 29.3768 26.8217 29.1893C26.0549 28.7887 25.3312 28.7887 24.6512 29.1893C23.8648 31.7456 23.1411 34.3195 22.4806 36.9113C16.1219 37.0133 9.81702 36.9104 3.56592 36.6025C4.5995 32.381 5.63311 28.1598 6.66669 23.9384C23.3076 23.9384 39.9482 23.9384 56.5892 23.9384C57.7616 24.0848 58.7436 24.5996 59.5349 25.4828C62.7312 22.9726 66.142 22.6637 69.7675 24.5561C69.8537 24.2732 70.0087 24.0673 70.2326 23.9384Z" fill="#F7F4F4"/>
<path fill-rule="evenodd" clip-rule="evenodd" d="M70.2327 23.9382C84.962 23.5271 99.7421 23.5271 114.574 23.9382C114.535 24.1256 114.432 24.2286 114.264 24.2471C99.6392 23.9386 84.9623 23.8356 70.2327 23.9382Z" fill="#F5888F"/>
<path fill-rule="evenodd" clip-rule="evenodd" d="M117.364 22.394C118.991 22.4372 119.302 23.1064 118.295 24.4018C116.708 24.3475 116.398 23.6782 117.364 22.394Z" fill="#606060"/>
<path fill-rule="evenodd" clip-rule="evenodd" d="M63.1007 24.556C64.9407 24.3672 66.6976 24.6246 68.372 25.3282C68.9345 26.0947 69.141 26.9699 68.9921 27.9537C67.8368 28.0535 66.6997 27.9503 65.5813 27.6448C64.9106 26.9592 64.1354 26.8562 63.2557 27.3359C63.0234 27.6865 63.0749 27.9954 63.4107 28.2626C64.7714 28.6786 66.1149 29.142 67.4417 29.6525C68.0176 30.0176 68.3276 30.5325 68.372 31.1969C67.9909 33.5327 66.647 34.9742 64.341 35.5213C62.7906 35.7273 61.2402 35.7273 59.6898 35.5213C58.3078 34.8791 57.6876 33.798 57.8293 32.278C59.0867 32.1779 60.327 32.2808 61.5503 32.5869C61.8687 33.0576 62.3338 33.2637 62.9456 33.2047C63.5763 33.2498 64.0932 33.044 64.496 32.5869C64.7093 32.3299 64.6576 32.1242 64.341 31.9691C63.4501 31.5753 62.5199 31.318 61.5503 31.1969C59.2476 30.2796 58.7825 28.7868 60.1549 26.7182C61.02 25.8024 62.0021 25.0816 63.1007 24.556Z" fill="#090909"/>
<path fill-rule="evenodd" clip-rule="evenodd" d="M37.9844 25.1736C40.9326 24.7651 43.9301 24.7651 46.9766 25.1736C46.9382 25.361 46.8349 25.4639 46.6665 25.4824C43.8287 25.1755 40.9348 25.0726 37.9844 25.1736Z" fill="#4A4A4A"/>
<path fill-rule="evenodd" clip-rule="evenodd" d="M71.1628 25.1739C74.5241 24.765 77.9349 24.765 81.3954 25.1739C81.357 25.3613 81.2537 25.4642 81.0853 25.4827C77.8335 25.1756 74.5259 25.0726 71.1628 25.1739Z" fill="#494949"/>
<path fill-rule="evenodd" clip-rule="evenodd" d="M91.6279 25.1739C94.9892 24.765 98.4 24.765 101.86 25.1739C101.822 25.3613 101.719 25.4642 101.55 25.4827C98.2986 25.1756 94.991 25.0726 91.6279 25.1739Z" fill="#4A4A4A"/>
<path fill-rule="evenodd" clip-rule="evenodd" d="M103.721 25.1736C106.669 24.7651 109.667 24.7651 112.713 25.1736C112.675 25.361 112.571 25.4639 112.403 25.4824C109.565 25.1755 106.671 25.0726 103.721 25.1736Z" fill="#494949"/>
<path opacity="0.012" fill-rule="evenodd" clip-rule="evenodd" d="M119.535 24.8647C119.948 25.0707 119.948 25.0707 119.535 24.8647V24.8647Z" fill="#FEFFFE"/>
<path fill-rule="evenodd" clip-rule="evenodd" d="M8.52706 35.6757C7.32663 35.7729 6.18967 35.6701 5.11621 35.3668C6.11661 31.9836 7.09854 28.5859 8.06195 25.1737C9.21854 24.8772 10.4072 24.7742 11.6278 24.8648C10.7201 28.5044 9.68644 32.1081 8.52706 35.6757Z" fill="#0A0A0A"/>
<path fill-rule="evenodd" clip-rule="evenodd" d="M14.1086 35.6757C13.0103 35.7723 11.9767 35.6692 11.0078 35.3668C11.8221 31.8523 12.8557 28.4031 14.1086 25.0193C15.2593 24.7644 16.3963 24.8159 17.5194 25.1737C18.1914 26.9241 18.863 28.6743 19.5349 30.4247C20.1008 28.6835 20.6177 26.933 21.0853 25.1737C22.2419 24.8772 23.4304 24.7742 24.6512 24.8648C23.4295 28.5164 22.3957 32.223 21.5504 35.9845C20.3297 36.075 19.1411 35.9722 17.9846 35.6757C17.3188 33.7878 16.5954 31.9345 15.814 30.1158C15.3142 32.0256 14.7455 33.8789 14.1086 35.6757Z" fill="#0C0C0C"/>
<path fill-rule="evenodd" clip-rule="evenodd" d="M29.9224 35.6758C28.6359 35.8549 27.4988 35.6492 26.5115 35.058C27.1326 32.7918 27.7528 30.5268 28.372 28.2627C28.5404 28.2441 28.6436 28.1413 28.6821 27.9538C27.6039 27.7477 26.5701 27.5418 25.5813 27.336C25.7298 26.5439 25.9363 25.7717 26.2015 25.0194C29.5072 24.865 32.8148 24.8135 36.1239 24.865C35.9171 25.8946 35.7106 26.9242 35.5038 27.9538C34.3484 27.854 33.2114 27.9572 32.0929 28.2627C31.2424 30.7013 30.5187 33.1723 29.9224 35.6758Z" fill="#0D0D0D"/>
<path fill-rule="evenodd" clip-rule="evenodd" d="M37.9846 25.1737C40.935 25.0728 43.8289 25.1757 46.6667 25.4826C46.4438 26.1819 46.3405 26.9026 46.3567 27.6448C44.4934 27.5934 42.6329 27.6449 40.7753 27.7992C40.5024 28.2181 40.3988 28.6814 40.4652 29.1892C41.916 29.1379 43.3629 29.1895 44.8063 29.3436C44.4794 30.0794 44.2726 30.8516 44.1861 31.6602C42.6323 31.6089 41.0819 31.6605 39.535 31.8147C39.2621 32.2335 39.1585 32.6968 39.2249 33.2046C40.9821 33.2046 42.739 33.2046 44.4962 33.2046C44.3526 34.0451 44.1461 34.8689 43.876 35.6757C40.8224 35.7767 37.8252 35.6738 34.8838 35.3668C35.8429 31.9126 36.8763 28.5149 37.9846 25.1737Z" fill="#0A0A0A"/>
<path fill-rule="evenodd" clip-rule="evenodd" d="M55.9689 35.6755C54.8318 35.6755 53.6951 35.6755 52.558 35.6755C52.558 35.3666 52.558 35.0578 52.558 34.7489C53.3776 32.5558 52.6542 31.6808 50.3875 32.1234C49.8557 33.2628 49.4424 34.4468 49.1472 35.6755C47.9469 35.7728 46.8098 35.67 45.7363 35.3666C46.5723 31.9331 47.5543 28.5354 48.6821 25.1736C50.9828 24.8194 53.3084 24.768 55.6588 25.0191C57.7732 25.1669 58.5484 26.248 57.9844 28.2624C57.5962 28.726 57.2861 29.2409 57.0542 29.8068C56.5624 30.0774 56.0973 30.3862 55.6588 30.7334C56.2805 30.992 56.5906 31.4553 56.589 32.1234C56.3218 33.3005 56.1149 34.4845 55.9689 35.6755Z" fill="#0B0B0B"/>
<path fill-rule="evenodd" clip-rule="evenodd" d="M71.1629 25.1739C74.526 25.0726 77.8336 25.1756 81.0854 25.4828C80.9988 26.2913 80.792 27.0635 80.4652 27.7994C79.3328 27.9535 78.1961 28.0048 77.0544 27.9538C76.3939 30.5456 75.6702 33.1195 74.8838 35.6758C73.6835 35.7731 72.5464 35.6702 71.473 35.3669C72.0407 32.8987 72.7641 30.4792 73.6435 28.1082C72.615 27.9544 71.5815 27.9028 70.5427 27.9538C70.6221 26.9969 70.8286 26.0703 71.1629 25.1739Z" fill="#0B0B0B"/>
<path fill-rule="evenodd" clip-rule="evenodd" d="M89.1472 35.6757C88.0101 35.6757 86.8734 35.6757 85.7363 35.6757C85.8194 35.1818 85.7158 34.7701 85.4262 34.4402C84.2845 34.3893 83.1478 34.4405 82.0154 34.5947C81.8098 35.0635 81.4997 35.424 81.0852 35.6757C79.9869 35.7724 78.9534 35.6693 77.9844 35.3669C80.2033 31.9778 82.4256 28.5802 84.651 25.1738C85.9118 24.8762 87.2039 24.7732 88.527 24.8649C88.7853 28.464 88.9918 32.0674 89.1472 35.6757Z" fill="#090909"/>
<path fill-rule="evenodd" clip-rule="evenodd" d="M91.628 25.1739C94.9911 25.0726 98.2987 25.1756 101.55 25.4828C101.585 26.27 101.379 26.9907 100.93 27.6449C99.8118 27.9504 98.6748 28.0536 97.5194 27.9538C96.859 30.5456 96.1353 33.1195 95.3489 35.6758C94.1486 35.7731 93.0115 35.6702 91.938 35.3669C92.5058 32.8987 93.2292 30.4792 94.1086 28.1082C93.0801 27.9544 92.0466 27.9028 91.0078 27.9538C91.0698 26.9871 91.2763 26.0605 91.628 25.1739Z" fill="#0B0B0B"/>
<path fill-rule="evenodd" clip-rule="evenodd" d="M103.721 25.1737C106.671 25.0728 109.565 25.1757 112.403 25.4826C112.25 26.1948 112.147 26.9155 112.093 27.6448C110.23 27.5934 108.369 27.6449 106.512 27.7992C106.239 28.2181 106.135 28.6814 106.202 29.1892C107.663 29.0882 109.11 29.1913 110.543 29.4981C110.209 30.1865 110.002 30.9075 109.922 31.6602C108.358 31.5592 106.808 31.6621 105.271 31.9691C105.04 32.3509 104.937 32.7629 104.961 33.2046C106.718 33.2046 108.475 33.2046 110.233 33.2046C110.122 34.0593 109.915 34.8828 109.612 35.6757C106.559 35.7767 103.562 35.6738 100.62 35.3668C101.584 31.9135 102.618 28.5158 103.721 25.1737Z" fill="#0A0A0A"/>
<path opacity="0.01" fill-rule="evenodd" clip-rule="evenodd" d="M119.225 25.1738C119.328 25.1738 119.432 25.1738 119.535 25.1738C119.478 25.3808 119.374 25.3808 119.225 25.1738Z" fill="#FEFFFE"/>
<path opacity="0.01" fill-rule="evenodd" clip-rule="evenodd" d="M116.744 26.1006C116.847 26.1006 116.951 26.1006 117.054 26.1006C117.128 26.4994 117.024 26.8082 116.744 27.0272C116.744 26.7183 116.744 26.4095 116.744 26.1006Z" fill="#FEFFFE"/>
<path opacity="0.01" fill-rule="evenodd" clip-rule="evenodd" d="M116.434 27.0269C116.537 27.0269 116.641 27.0269 116.744 27.0269C116.641 28.6741 116.537 28.6741 116.434 27.0269Z" fill="#FEFFFE"/>
<path fill-rule="evenodd" clip-rule="evenodd" d="M5.73635 22.7026C5.69573 22.9309 5.74742 23.1368 5.89139 23.3204C19.474 23.1137 33.0657 22.9078 46.6666 22.7026C50.0632 22.9533 53.474 23.1077 56.8991 23.166C40.2582 23.2689 23.6176 23.3719 6.97666 23.4748C23.5664 23.5265 40.1038 23.6809 56.5891 23.9382C39.9481 23.9382 23.3075 23.9382 6.66658 23.9382C5.633 28.1596 4.59939 32.3808 3.56581 36.6023C3.3974 36.6208 3.29405 36.7236 3.25573 36.9111C9.71446 37.3213 16.1227 37.3213 22.4805 36.9111C23.141 34.3193 23.8647 31.7454 24.6511 29.1891C25.3441 29.098 25.9643 29.2012 26.5115 29.498C25.8917 31.8646 25.2715 34.2328 24.6511 36.6023C24.4827 36.6208 24.3794 36.7236 24.341 36.9111C26.5599 37.3185 28.7305 37.3185 30.8526 36.9111C31.5785 34.3286 32.3537 31.7547 33.1782 29.1891C33.8415 28.7972 34.5131 28.7972 35.1937 29.1891C34.3909 31.6463 33.6675 34.1173 33.0232 36.6023C32.8548 36.6208 32.7515 36.7236 32.7131 36.9111C42.9965 37.3219 53.2291 37.3219 63.4108 36.9111C67.9137 36.3644 69.8774 33.8934 69.3022 29.498C70.0613 29.1975 70.8883 29.0946 71.7829 29.1891C70.9984 31.7408 70.2746 34.3147 69.6123 36.9111C78.6046 36.9111 87.5968 36.9111 96.5891 36.9111C97.1215 34.2894 97.8452 31.7155 98.7596 29.1891C99.3475 28.8907 99.9677 28.7879 100.62 28.8802C99.8985 31.5524 99.1751 34.2294 98.4495 36.9111C102.584 36.9111 106.718 36.9111 110.853 36.9111C111.699 33.1215 112.733 29.4149 113.953 25.7914C114.449 25.7087 114.863 25.8117 115.194 26.1003C114.097 30.2013 113.063 34.3199 112.093 38.4555C109.92 38.4043 107.749 38.4555 105.581 38.61C106.678 39.4918 107.195 40.6242 107.132 42.0077C106.768 44.9519 105.993 47.7834 104.806 50.5019C102.349 52.828 99.4033 53.8578 95.9689 53.5907C88.0101 53.5907 80.0517 53.5907 72.0929 53.5907C70.9512 53.5397 69.8145 53.591 68.6821 53.7451C58.0498 56.8648 47.4039 59.8507 36.7441 62.7026C39.0901 59.7185 41.4672 56.7842 43.8759 53.8995C44.0443 53.881 44.1475 53.7782 44.186 53.5907C30.7469 53.4869 17.4136 53.178 4.18596 52.664C5.52962 47.928 6.87331 43.1916 8.21697 38.4555C5.94308 38.4555 3.66916 38.4555 1.39526 38.4555C2.70547 33.1286 4.1525 27.8776 5.73635 22.7026Z" fill="#EE3135"/>
<path fill-rule="evenodd" clip-rule="evenodd" d="M51.3179 28.8804C51.7575 29.4388 52.3777 29.6448 53.1783 29.4981C52.525 29.7971 51.8013 29.9003 51.0078 29.807C50.9343 29.4082 51.0375 29.0994 51.3179 28.8804Z" fill="#787878"/>
<path fill-rule="evenodd" clip-rule="evenodd" d="M85.4264 28.5713C85.7312 29.7444 85.8348 30.9799 85.7365 32.2779C84.9848 32.373 84.2614 32.2698 83.5659 31.969C84.1948 30.8311 84.8149 29.6987 85.4264 28.5713Z" fill="#E0E0E0"/>
<path fill-rule="evenodd" clip-rule="evenodd" d="M71.7829 29.1891C70.8883 29.0945 70.0613 29.1974 69.3023 29.4979C69.1339 29.4794 69.0306 29.3766 68.9922 29.1891C69.9674 28.7866 70.8976 28.7866 71.7829 29.1891Z" fill="#F47981"/>
<path fill-rule="evenodd" clip-rule="evenodd" d="M24.6511 29.1891C25.3311 28.7885 26.0548 28.7885 26.8217 29.1891C26.7832 29.3766 26.68 29.4795 26.5116 29.498C25.9643 29.2012 25.3441 29.098 24.6511 29.1891Z" fill="#F5838A"/>
<path fill-rule="evenodd" clip-rule="evenodd" d="M53.1783 29.4982C52.3776 29.6449 51.7575 29.4389 51.3178 28.8804C51.2651 28.4721 51.3683 28.1116 51.6279 27.7994C52.5525 27.6455 53.4828 27.5941 54.4186 27.6449C54.6074 28.6883 54.1941 29.3061 53.1783 29.4982Z" fill="#F7F7F7"/>
<path fill-rule="evenodd" clip-rule="evenodd" d="M25.5813 27.3359C26.5702 27.5417 27.604 27.7476 28.6821 27.9537C28.6436 28.1412 28.5404 28.244 28.372 28.2626C27.3832 28.0569 26.3494 27.8508 25.2712 27.6448C25.3097 27.4574 25.4129 27.3545 25.5813 27.3359Z" fill="#6E6E6E"/>
<path fill-rule="evenodd" clip-rule="evenodd" d="M91.0079 33.2047C90.801 32.587 90.5945 31.9692 90.3877 31.3515C90.3877 30.5277 90.3877 29.7042 90.3877 28.8804C91.0401 28.7881 91.6603 28.8909 92.2482 29.1893C91.5942 30.4569 91.1809 31.7953 91.0079 33.2047Z" fill="#ED272E"/>
<path fill-rule="evenodd" clip-rule="evenodd" d="M78.2945 28.8804C78.9469 28.7881 79.5671 28.8909 80.155 29.1893C79.1469 30.8894 78.0617 32.5369 76.8992 34.1314C77.1987 32.3575 77.6638 30.6071 78.2945 28.8804Z" fill="#EF383B"/>
<path opacity="0.01" fill-rule="evenodd" clip-rule="evenodd" d="M115.194 31.6602C115.607 31.969 115.607 32.2779 115.194 32.5868C115.194 32.2779 115.194 31.969 115.194 31.6602Z" fill="#FEFFFE"/>
<path fill-rule="evenodd" clip-rule="evenodd" d="M90.3876 31.3516C90.5944 31.9693 90.8009 32.5871 91.0077 33.2048C91.0483 33.4754 90.9451 33.6814 90.6976 33.8226C90.3938 33.0238 90.2905 32.2001 90.3876 31.3516Z" fill="#F7959A"/>
<path opacity="0.01" fill-rule="evenodd" clip-rule="evenodd" d="M114.884 32.5869C114.987 32.5869 115.091 32.5869 115.194 32.5869C115.277 33.0808 115.173 33.4926 114.884 33.8224C114.884 33.4107 114.884 32.9987 114.884 32.5869Z" fill="#FEFFFE"/>
<path opacity="0.01" fill-rule="evenodd" clip-rule="evenodd" d="M114.574 33.8223C114.677 33.8223 114.781 33.8223 114.884 33.8223C114.957 34.221 114.854 34.5299 114.574 34.7489C114.574 34.44 114.574 34.1311 114.574 33.8223Z" fill="#FEFFFE"/>
<path opacity="0.01" fill-rule="evenodd" clip-rule="evenodd" d="M114.264 34.749C114.367 34.749 114.47 34.749 114.574 34.749C114.657 35.2429 114.553 35.6547 114.264 35.9845C114.264 35.5728 114.264 35.1608 114.264 34.749Z" fill="#FEFFFE"/>
<path fill-rule="evenodd" clip-rule="evenodd" d="M5.11623 35.3667C6.18969 35.67 7.32665 35.7729 8.52708 35.6756C7.33307 36.0799 6.09276 36.0799 4.80615 35.6756C4.84448 35.4881 4.94783 35.3852 5.11623 35.3667Z" fill="#717171"/>
<path fill-rule="evenodd" clip-rule="evenodd" d="M11.0078 35.3667C11.9768 35.6691 13.0103 35.7723 14.1086 35.6756C13.0175 36.0796 11.8806 36.0796 10.6978 35.6756C10.7361 35.4881 10.8394 35.3852 11.0078 35.3667Z" fill="#6E6E6E"/>
<path fill-rule="evenodd" clip-rule="evenodd" d="M26.5117 35.0581C27.499 35.6493 28.636 35.855 29.9226 35.6759C28.7449 35.9795 27.5046 36.0827 26.2016 35.9847C26.1281 35.586 26.2314 35.2771 26.5117 35.0581Z" fill="#6B6B6B"/>
<path fill-rule="evenodd" clip-rule="evenodd" d="M34.8838 35.3667C37.8252 35.6737 40.8224 35.7766 43.8761 35.6756C40.8246 36.0842 37.7238 36.0842 34.5737 35.6756C34.6122 35.4881 34.7154 35.3852 34.8838 35.3667Z" fill="#6E6E6E"/>
<path fill-rule="evenodd" clip-rule="evenodd" d="M45.7363 35.3667C46.8098 35.67 47.9469 35.7729 49.1472 35.6756C47.9531 36.0799 46.7128 36.0799 45.4263 35.6756C45.4647 35.4881 45.568 35.3852 45.7363 35.3667Z" fill="#707070"/>
<path fill-rule="evenodd" clip-rule="evenodd" d="M52.558 34.749C52.558 35.0579 52.558 35.3668 52.558 35.6757C53.6951 35.6757 54.8318 35.6757 55.9689 35.6757C54.7912 35.9793 53.5509 36.0825 52.248 35.9845C52.1649 35.4906 52.2684 35.0789 52.558 34.749Z" fill="#6F6F6F"/>
<path fill-rule="evenodd" clip-rule="evenodd" d="M71.4729 35.3667C72.5464 35.67 73.6835 35.7729 74.8838 35.6756C73.6897 36.0799 72.4494 36.0799 71.1628 35.6756C71.2013 35.4881 71.3045 35.3852 71.4729 35.3667Z" fill="#717171"/>
<path fill-rule="evenodd" clip-rule="evenodd" d="M77.9844 35.3667C78.9534 35.6691 79.9869 35.7723 81.0852 35.6756C79.994 36.0796 78.8573 36.0796 77.6743 35.6756C77.7128 35.4881 77.816 35.3852 77.9844 35.3667Z" fill="#6C6C6C"/>
<path fill-rule="evenodd" clip-rule="evenodd" d="M85.4263 34.4399C85.7159 34.7698 85.8194 35.1816 85.7363 35.6755C86.8734 35.6755 88.0101 35.6755 89.1472 35.6755C87.9695 35.9791 86.7292 36.0823 85.4263 35.9843C85.4263 35.4694 85.4263 34.9548 85.4263 34.4399Z" fill="#797979"/>
<path fill-rule="evenodd" clip-rule="evenodd" d="M91.938 35.3667C93.0115 35.67 94.1485 35.7729 95.3489 35.6756C94.1548 36.0799 92.9144 36.0799 91.6279 35.6756C91.6664 35.4881 91.7696 35.3852 91.938 35.3667Z" fill="#707070"/>
<path fill-rule="evenodd" clip-rule="evenodd" d="M100.62 35.3667C103.562 35.6737 106.559 35.7766 109.612 35.6756C106.561 36.0842 103.46 36.0842 100.31 35.6756C100.349 35.4881 100.452 35.3852 100.62 35.3667Z" fill="#6F6F6F"/>
<path opacity="0.01" fill-rule="evenodd" clip-rule="evenodd" d="M113.954 35.9844C114.057 35.9844 114.16 35.9844 114.264 35.9844C114.16 37.2199 114.057 37.2199 113.954 35.9844Z" fill="#FEFFFE"/>
<path fill-rule="evenodd" clip-rule="evenodd" d="M3.56594 36.6025C9.81704 36.9105 16.1219 37.0133 22.4807 36.9114C16.1228 37.3216 9.71459 37.3216 3.25586 36.9114C3.29418 36.7239 3.39753 36.6211 3.56594 36.6025Z" fill="#F36871"/>
<path fill-rule="evenodd" clip-rule="evenodd" d="M24.6511 36.6025C26.6601 36.9086 28.7274 37.0115 30.8527 36.9114C28.7305 37.3188 26.56 37.3188 24.3411 36.9114C24.3795 36.7239 24.4828 36.6211 24.6511 36.6025Z" fill="#F36871"/>
<path fill-rule="evenodd" clip-rule="evenodd" d="M33.0232 36.6025C43.0995 36.9108 53.2285 37.014 63.4108 36.9114C53.2291 37.3222 42.9965 37.3222 32.7131 36.9114C32.7516 36.7239 32.8548 36.6211 33.0232 36.6025Z" fill="#F26770"/>
<path opacity="0.01" fill-rule="evenodd" clip-rule="evenodd" d="M113.643 38.1469C113.597 37.8219 113.649 37.513 113.798 37.2202C114.028 37.606 113.976 37.9149 113.643 38.1469Z" fill="#FEFFFE"/>
<path opacity="0.01" fill-rule="evenodd" clip-rule="evenodd" d="M113.333 38.1465C113.437 38.1465 113.54 38.1465 113.643 38.1465C113.54 39.7937 113.437 39.7937 113.333 38.1465Z" fill="#FEFFFE"/>
<path fill-rule="evenodd" clip-rule="evenodd" d="M97.5195 38.7645C99.8559 38.5875 102.13 38.8451 104.341 39.5367C104.822 39.9117 105.183 40.375 105.426 40.9267C105.581 42.0547 105.633 43.1871 105.582 44.3244C105.055 44.2749 104.538 44.3262 104.031 44.4788C105.256 47.9089 104.119 50.2771 100.62 51.583C92.1595 51.9383 83.6838 52.0927 75.1939 52.0464C67.1319 51.9435 59.0699 51.8403 51.0079 51.7375C51.6832 49.3551 52.4069 46.9869 53.1784 44.6332C52.2032 44.1715 51.3248 44.2743 50.5428 44.9421C50.046 47.263 49.3744 49.5281 48.5273 51.7375C46.0466 52.1492 43.566 52.1492 41.0854 51.7375C41.9654 49.3106 42.6888 46.8396 43.2559 44.3244C42.4042 44.2277 41.5772 44.3305 40.7753 44.6332C40.1 47.0156 39.3762 49.3838 38.6048 51.7375C27.7539 52.0464 16.9012 52.1492 6.04663 52.0464C7.15913 47.7943 8.39944 43.5732 9.76756 39.3823C13.1962 38.9403 16.6069 38.9918 20.0001 39.5367C21.9843 41.3174 21.9843 43.1707 20.0001 45.0966C20.1942 45.3282 20.3493 45.5858 20.4652 45.8688C22.0674 43.655 23.6693 41.4416 25.2714 39.2278C41.9124 39.0218 58.553 39.0218 75.1939 39.2278C76.0373 39.4512 76.7093 39.9145 77.2094 40.6178C77.3341 40.194 77.4891 39.7823 77.6745 39.3823C80.6721 39.2794 83.6693 39.1763 86.6668 39.0734C89.7868 39.0774 92.8358 39.2834 95.8141 39.6912C96.3958 39.3486 96.9641 39.0397 97.5195 38.7645Z" fill="#F7F5F5"/>
<path opacity="0.01" fill-rule="evenodd" clip-rule="evenodd" d="M6.35659 39.6909C6.35659 39.9998 6.35659 40.3087 6.35659 40.6176C-1.91216 40.3087 -1.91216 39.9998 6.35659 39.6909Z" fill="#FEFFFE"/>
<path fill-rule="evenodd" clip-rule="evenodd" d="M98.7596 39.6909C100.238 39.5955 101.685 39.7499 103.101 40.1542C104.068 40.898 104.481 41.8759 104.341 43.0886C103.199 43.1396 102.063 43.0883 100.93 42.9342C99.9999 41.9047 99.0697 41.9047 98.1395 42.9342C98.3463 43.1402 98.5528 43.3459 98.7596 43.5519C100.463 43.8071 101.962 44.4764 103.256 45.5596C103.505 47.8923 102.523 49.4883 100.31 50.3473C98.471 50.8016 96.6105 50.9045 94.7286 50.6562C93.5103 49.9294 92.8902 48.8483 92.8682 47.4129C94.1255 47.3128 95.3658 47.4157 96.5891 47.7218C96.9075 48.1925 97.3727 48.3986 97.9844 48.3396C98.6151 48.3847 99.132 48.1789 99.5348 47.7218C99.6762 47.3376 99.5212 47.0803 99.0697 46.9496C97.7624 46.7272 96.5221 46.3155 95.3488 45.7141C94.0114 43.825 94.3215 42.1777 96.279 40.772C97.1032 40.3155 97.9302 39.955 98.7596 39.6909Z" fill="#0A0A0A"/>
<path opacity="0.01" fill-rule="evenodd" clip-rule="evenodd" d="M108.372 40.0001C109.823 39.9489 111.27 40.0004 112.713 40.1546C111.231 40.1212 109.887 40.3785 108.682 40.9268C108.579 40.9268 108.475 40.9268 108.372 40.9268C108.372 40.6179 108.372 40.309 108.372 40.0001Z" fill="#FEFFFE"/>
<path fill-rule="evenodd" clip-rule="evenodd" d="M11.0078 40.0002C13.284 39.9489 15.5578 40.0002 17.8295 40.1546C19.6264 40.3962 20.2983 41.3744 19.845 43.089C19.3929 43.8488 18.8245 44.5182 18.1395 45.0967C19.0047 45.7793 19.263 46.6547 18.9147 47.7222C18.3172 49.2443 17.2319 50.2223 15.6589 50.6565C13.0965 51.0797 10.5126 51.2342 7.90698 51.1199C8.75185 47.3599 9.78543 43.6533 11.0078 40.0002Z" fill="#0E0E0E"/>
<path fill-rule="evenodd" clip-rule="evenodd" d="M26.2016 40.3091C27.4419 40.3091 28.6822 40.3091 29.9225 40.3091C29.8289 41.0995 29.9324 41.8204 30.2326 42.4712C30.4276 45.35 30.5309 48.2331 30.5427 51.1199C29.4056 51.1199 28.2689 51.1199 27.1318 51.1199C27.1318 50.605 27.1318 50.0904 27.1318 49.5755C25.8872 49.5242 24.6469 49.5758 23.4109 49.7299C23.1613 50.0737 22.9545 50.4339 22.7907 50.811C21.5904 50.9083 20.4534 50.8055 19.3799 50.5021C21.5808 47.0399 23.8549 43.6422 26.2016 40.3091Z" fill="#0A0A0A"/>
<path fill-rule="evenodd" clip-rule="evenodd" d="M37.0542 50.8106C35.7513 50.9085 34.511 50.8054 33.3333 50.5017C33.933 47.9896 34.6564 45.5186 35.5039 43.0886C34.3817 42.9709 33.3482 42.6621 32.4031 42.162C32.5383 41.4682 32.7451 40.7989 33.0232 40.1543C36.329 39.9998 39.6366 39.9482 42.9457 39.9998C42.6747 41.0157 42.4679 42.0455 42.3256 43.0886C41.2719 42.9898 40.2381 43.0926 39.2248 43.3975C38.3742 45.8361 37.6505 48.3072 37.0542 50.8106Z" fill="#0C0C0C"/>
<path fill-rule="evenodd" clip-rule="evenodd" d="M45.7365 43.0886C44.8134 42.9645 43.9867 42.6556 43.2559 42.162C43.307 41.4432 43.5135 40.7742 43.876 40.1543C47.1818 39.9998 50.4893 39.9482 53.7985 39.9998C53.5917 41.0293 53.3852 42.0591 53.1783 43.0886C51.938 43.0886 50.6977 43.0886 49.4574 43.0886C48.734 45.7657 48.0103 48.4424 47.2869 51.1195C46.0466 51.1195 44.8062 51.1195 43.5659 51.1195C44.1641 48.406 44.8875 45.7289 45.7365 43.0886Z" fill="#0F0F0F"/>
<path fill-rule="evenodd" clip-rule="evenodd" d="M58.7596 43.7066C58.5913 43.7251 58.488 43.828 58.4496 44.0154C60.022 44.1303 61.4691 44.4392 62.7906 44.9421C62.5891 45.5398 62.4858 46.1575 62.4806 46.7954C60.8269 46.7954 59.173 46.7954 57.5193 46.7954C57.5438 47.2371 57.4406 47.6491 57.2092 48.0309C59.0697 48.2369 60.9302 48.4426 62.7906 48.6486C62.3922 49.4273 62.1854 50.2508 62.1705 51.1197C59.0629 51.2222 55.9621 51.1194 52.8682 50.8108C53.9026 47.2046 54.9364 43.6009 55.9689 40C58.9665 40 61.9637 40 64.9612 40C64.852 40.9044 64.6455 41.7798 64.341 42.6255C62.4834 42.7796 60.6229 42.8312 58.7596 42.7799C58.7596 43.0888 58.7596 43.3977 58.7596 43.7066Z" fill="#111111"/>
<path fill-rule="evenodd" clip-rule="evenodd" d="M73.9535 50.8109C72.8165 50.8109 71.6797 50.8109 70.5427 50.8109C70.5427 50.502 70.5427 50.1931 70.5427 49.8842C71.3734 47.538 70.5464 46.6113 68.062 47.1043C67.8487 48.3658 67.5386 49.6013 67.1318 50.8109C65.9315 50.9082 64.7944 50.8053 63.7209 50.502C64.5448 47.0617 65.5265 43.664 66.6667 40.3089C69.3985 39.8889 72.1374 39.9405 74.8837 40.4634C76.0596 41.0975 76.4211 42.0754 75.969 43.3978C75.5445 44.5548 74.7693 45.3783 73.6434 45.8688C74.3389 46.1505 74.649 46.6651 74.5737 47.4132C74.236 48.5242 74.0295 49.6566 73.9535 50.8109Z" fill="#0B0B0B"/>
<path fill-rule="evenodd" clip-rule="evenodd" d="M79.5349 50.5018C78.3256 50.7891 77.0853 50.8919 75.814 50.8107C76.7228 47.169 77.7563 43.5653 78.9147 39.9999C80.1721 39.8998 81.4124 40.0027 82.6357 40.3088C81.3616 43.636 80.3278 47.0337 79.5349 50.5018Z" fill="#0A0A0A"/>
<path fill-rule="evenodd" clip-rule="evenodd" d="M87.5968 43.7066C87.4284 43.7251 87.3252 43.828 87.2867 44.0154C88.8591 44.1303 90.3063 44.4392 91.6278 44.9421C91.4263 45.5398 91.323 46.1575 91.3177 46.7954C89.6641 46.7954 88.0101 46.7954 86.3565 46.7954C86.381 47.2371 86.2777 47.6491 86.0464 48.0309C87.9069 48.2369 89.7673 48.4426 91.6278 48.6486C91.2294 49.4273 91.0225 50.2508 91.0076 51.1197C87.9001 51.2222 84.7993 51.1194 81.7053 50.8108C82.7419 47.1994 83.7754 43.596 84.8061 40C87.8036 40 90.8008 40 93.7983 40C93.6892 40.9044 93.4827 41.7798 93.1782 42.6255C91.3205 42.7796 89.4601 42.8312 87.5968 42.7799C87.5968 43.0888 87.5968 43.3977 87.5968 43.7066Z" fill="#111111"/>
<path opacity="0.01" fill-rule="evenodd" clip-rule="evenodd" d="M108.682 40.9268C109.095 41.8534 109.095 42.78 108.682 43.7067C108.682 42.78 108.682 41.8534 108.682 40.9268Z" fill="#FEFFFE"/>
<path fill-rule="evenodd" clip-rule="evenodd" d="M26.2017 40.3087C27.4835 40.0045 28.8274 39.9016 30.2327 39.9998C30.2327 40.8236 30.2327 41.6471 30.2327 42.4709C29.9325 41.8201 29.8289 41.0992 29.9226 40.3087C28.6823 40.3087 27.442 40.3087 26.2017 40.3087Z" fill="#6B6B6B"/>
<path fill-rule="evenodd" clip-rule="evenodd" d="M13.7984 42.7798C14.6253 42.7798 15.452 42.7798 16.279 42.7798C16.3453 43.2876 16.2418 43.7509 15.9689 44.1697C15.1484 44.3233 14.3215 44.3748 13.4883 44.3242C13.5282 43.7941 13.6315 43.2792 13.7984 42.7798Z" fill="#F3F3F3"/>
<path fill-rule="evenodd" clip-rule="evenodd" d="M32.4031 42.1621C33.3482 42.6622 34.3817 42.9711 35.5038 43.0888C34.3668 43.0888 33.23 43.0888 32.093 43.0888C32.0195 42.69 32.1227 42.3811 32.4031 42.1621Z" fill="#666666"/>
<path fill-rule="evenodd" clip-rule="evenodd" d="M43.2558 42.1621C43.9867 42.6557 44.8134 42.9646 45.7365 43.0888C44.8062 43.0888 43.876 43.0888 42.9458 43.0888C42.8723 42.69 42.9755 42.3811 43.2558 42.1621Z" fill="#6A6A6A"/>
<path fill-rule="evenodd" clip-rule="evenodd" d="M71.1627 44.6332C70.3621 44.7799 69.7419 44.5739 69.3022 44.0154C69.3143 43.6809 69.4179 43.372 69.6123 43.0888C70.4204 42.733 71.2474 42.6817 72.0929 42.9343C72.5475 43.8789 72.2374 44.4451 71.1627 44.6332Z" fill="#FBFBFB"/>
<path opacity="0.01" fill-rule="evenodd" clip-rule="evenodd" d="M108.372 43.7065C108.475 43.7065 108.579 43.7065 108.682 43.7065C108.77 44.298 108.667 44.8126 108.372 45.2509C108.372 44.736 108.372 44.2214 108.372 43.7065Z" fill="#FEFFFE"/>
<path fill-rule="evenodd" clip-rule="evenodd" d="M58.7598 43.7065C60.1458 44.0111 61.593 44.114 63.1009 44.0154C63.1744 44.4142 63.0711 44.7231 62.7908 44.9421C61.4692 44.4392 60.0221 44.1303 58.4497 44.0154C58.4882 43.8279 58.5914 43.7251 58.7598 43.7065Z" fill="#828282"/>
<path fill-rule="evenodd" clip-rule="evenodd" d="M87.5969 43.7065C88.983 44.0111 90.4301 44.114 91.938 44.0154C92.0115 44.4142 91.9083 44.7231 91.628 44.9421C90.3064 44.4392 88.8593 44.1303 87.2869 44.0154C87.3253 43.8279 87.4286 43.7251 87.5969 43.7065Z" fill="#828282"/>
<path fill-rule="evenodd" clip-rule="evenodd" d="M26.8216 43.7065C27.1265 44.8797 27.23 46.1152 27.1317 47.4131C26.3801 47.5082 25.6567 47.4051 24.9612 47.1042C25.59 45.9663 26.2102 44.834 26.8216 43.7065Z" fill="#DFDFDF"/>
<path fill-rule="evenodd" clip-rule="evenodd" d="M69.3022 44.0156C69.7419 44.5741 70.3621 44.7801 71.1627 44.6334C70.5094 44.9324 69.7856 45.0355 68.9922 44.9423C68.9187 44.5435 69.0219 44.2346 69.3022 44.0156Z" fill="#818181"/>
<path opacity="0.01" fill-rule="evenodd" clip-rule="evenodd" d="M108.062 45.251C108.165 45.251 108.269 45.251 108.372 45.251C108.446 45.6497 108.342 45.9586 108.062 46.1776C108.062 45.8687 108.062 45.5599 108.062 45.251Z" fill="#FEFFFE"/>
<path fill-rule="evenodd" clip-rule="evenodd" d="M33.3334 44.6334C33.0023 44.3449 32.5889 44.2418 32.0931 44.3246C32.0931 45.2512 32.0931 46.1778 32.0931 47.1045C31.7895 46.1392 31.686 45.1097 31.783 44.0157C32.4354 43.9233 33.0556 44.0262 33.6435 44.3246C33.605 44.512 33.5018 44.6149 33.3334 44.6334Z" fill="#F3636A"/>
<path fill-rule="evenodd" clip-rule="evenodd" d="M33.3334 44.6334C33.068 45.8909 32.7062 47.1264 32.2482 48.34C32.0962 47.9406 32.0445 47.5285 32.0931 47.1044C32.0931 46.1778 32.0931 45.2512 32.0931 44.3245C32.589 44.2417 33.0023 44.3449 33.3334 44.6334Z" fill="#EC1A25"/>
<path opacity="0.01" fill-rule="evenodd" clip-rule="evenodd" d="M107.752 46.1777C107.855 46.1777 107.959 46.1777 108.062 46.1777C108.115 46.4841 108.012 46.6899 107.752 46.7955C107.752 46.5895 107.752 46.3838 107.752 46.1777Z" fill="#FEFFFE"/>
<path fill-rule="evenodd" clip-rule="evenodd" d="M12.5581 46.4863C13.4941 46.4353 14.4242 46.4869 15.3488 46.6407C15.7705 47.2393 15.6673 47.7539 15.0387 48.1851C14.1141 48.339 13.184 48.3905 12.248 48.3396C12.3514 47.7218 12.4548 47.104 12.5581 46.4863Z" fill="#F1F1F1"/>
<path opacity="0.01" fill-rule="evenodd" clip-rule="evenodd" d="M107.442 46.7954C107.545 46.7954 107.649 46.7954 107.752 46.7954C107.649 48.8547 107.545 48.8547 107.442 46.7954Z" fill="#FEFFFE"/>
<path opacity="0.01" fill-rule="evenodd" clip-rule="evenodd" d="M3.2557 48.9575C3.58856 49.1895 3.64022 49.4984 3.41074 49.8842C3.26103 49.5913 3.20934 49.2825 3.2557 48.9575Z" fill="#FEFFFE"/>
<path fill-rule="evenodd" clip-rule="evenodd" d="M19.3799 50.502C20.4534 50.8053 21.5904 50.9081 22.7908 50.8108C21.5966 51.2152 20.3563 51.2152 19.0698 50.8108C19.1083 50.6233 19.2115 50.5205 19.3799 50.502Z" fill="#6F6F6F"/>
<path fill-rule="evenodd" clip-rule="evenodd" d="M33.3333 50.502C34.5109 50.8056 35.7513 50.9087 37.0542 50.8108C35.7571 51.2158 34.4136 51.2158 33.0232 50.8108C33.0616 50.6233 33.1649 50.5205 33.3333 50.502Z" fill="#727272"/>
<path fill-rule="evenodd" clip-rule="evenodd" d="M63.721 50.502C64.7945 50.8053 65.9315 50.9081 67.1318 50.8108C65.9377 51.2152 64.6974 51.2152 63.4109 50.8108C63.4493 50.6233 63.5526 50.5205 63.721 50.502Z" fill="#6E6E6E"/>
<path fill-rule="evenodd" clip-rule="evenodd" d="M70.5427 49.8843C70.5427 50.1932 70.5427 50.502 70.5427 50.8109C71.6797 50.8109 72.8165 50.8109 73.9535 50.8109C72.7758 51.1145 71.5355 51.2177 70.2326 51.1198C70.1495 50.6259 70.2531 50.2142 70.5427 49.8843Z" fill="#6E6E6E"/>
<path fill-rule="evenodd" clip-rule="evenodd" d="M79.5349 50.502C79.0549 50.9016 78.4347 51.1077 77.6744 51.1197C76.9935 51.1182 76.3733 51.0153 75.814 50.8108C77.0853 50.8921 78.3256 50.7892 79.5349 50.502Z" fill="#727272"/>
<path opacity="0.01" fill-rule="evenodd" clip-rule="evenodd" d="M106.202 50.811C106.615 51.0171 106.615 51.0171 106.202 50.811V50.811Z" fill="#FEFFFE"/>
<path opacity="0.012" fill-rule="evenodd" clip-rule="evenodd" d="M105.891 51.1196C105.995 51.1196 106.098 51.1196 106.201 51.1196C106.144 51.3266 106.041 51.3266 105.891 51.1196Z" fill="#FEFFFE"/>
<path opacity="0.012" fill-rule="evenodd" clip-rule="evenodd" d="M105.581 51.4287C105.685 51.4287 105.788 51.4287 105.891 51.4287C105.834 51.6357 105.73 51.6357 105.581 51.4287Z" fill="#FEFFFE"/>
<path opacity="0.01" fill-rule="evenodd" clip-rule="evenodd" d="M105.271 51.7373C105.375 51.7373 105.478 51.7373 105.581 51.7373C105.478 52.4579 105.064 52.87 104.341 52.9728C104.341 52.87 104.341 52.7668 104.341 52.6639C104.548 52.6639 104.651 52.5611 104.651 52.3551C104.858 52.3551 104.961 52.2522 104.961 52.0462C105.168 52.0462 105.271 51.9433 105.271 51.7373Z" fill="#FEFFFE"/>
<path opacity="0.01" fill-rule="evenodd" clip-rule="evenodd" d="M2.32552 52.0464C2.65839 52.2784 2.71005 52.5872 2.48056 52.973C2.33085 52.6802 2.27916 52.3713 2.32552 52.0464Z" fill="#FEFFFE"/>
<path opacity="0.01" fill-rule="evenodd" clip-rule="evenodd" d="M2.3257 54.2084C2.22235 54.2084 2.11897 54.2084 2.01562 54.2084C2.11897 52.9729 2.22235 52.9729 2.3257 54.2084Z" fill="#FEFFFE"/>
<path fill-rule="evenodd" clip-rule="evenodd" d="M4.18606 52.6641C17.4137 53.178 30.747 53.4869 44.1861 53.5907C44.1476 53.7782 44.0443 53.8811 43.876 53.8996C43.6561 53.6204 43.3461 53.5175 42.9457 53.5907C34.4704 53.5907 25.9947 53.5907 17.5194 53.5907C12.9716 53.5907 8.42379 53.5907 3.87598 53.5907C3.8024 53.1919 3.90575 52.8831 4.18606 52.6641Z" fill="#CE2730"/>
<path fill-rule="evenodd" clip-rule="evenodd" d="M17.5193 53.5908C25.9946 53.5908 34.4703 53.5908 42.9456 53.5908C40.1202 57.1056 37.3295 60.6577 34.5736 64.2472C47.1379 60.8356 59.6442 57.2835 72.0929 53.5908C80.0517 53.5908 88.0101 53.5908 95.9689 53.5908C93.5922 55.2906 91.0083 56.6805 88.217 57.7607C73.9918 62.8279 59.3664 64.4239 44.341 62.5483C40.399 63.4626 36.523 64.5953 32.7131 65.946C32.3965 65.791 32.3447 65.5853 32.558 65.3283C33.7022 64.0344 34.7875 62.696 35.8139 61.3128C29.3091 59.6353 23.2108 57.0614 17.5193 53.5908Z" fill="#050505"/>
<path fill-rule="evenodd" clip-rule="evenodd" d="M42.9458 53.5907C43.3461 53.5175 43.6562 53.6203 43.8761 53.8996C41.4674 56.7842 39.0903 59.7186 36.7443 62.7027C47.4041 59.8508 58.05 56.8648 68.6823 53.7451C69.8147 53.591 70.9514 53.5397 72.0931 53.5907C59.6444 57.2834 47.1381 60.8355 34.5737 64.2471C37.3297 60.6576 40.1204 57.1054 42.9458 53.5907Z" fill="#F1E2E2"/>
<path fill-rule="evenodd" clip-rule="evenodd" d="M47.5968 53.5905C50.6995 53.5392 53.8003 53.5905 56.8992 53.7449C52.8772 55.0132 48.8462 56.1459 44.8062 57.1426C45.8102 55.9911 46.7404 54.8072 47.5968 53.5905Z" fill="#060000"/>
<path opacity="0.01" fill-rule="evenodd" clip-rule="evenodd" d="M2.0154 54.2085C1.80867 54.4145 1.80867 54.4145 2.0154 54.2085V54.2085Z" fill="#FEFFFE"/>
<path opacity="0.012" fill-rule="evenodd" clip-rule="evenodd" d="M101.55 54.2085C101.757 54.2085 101.964 54.2085 102.17 54.2085C101.964 54.6202 101.757 54.6202 101.55 54.2085Z" fill="#FEFFFE"/>
<path opacity="0.012" fill-rule="evenodd" clip-rule="evenodd" d="M100.31 54.8265C100.31 54.7236 100.31 54.6204 100.31 54.5176C101.55 54.6204 101.55 54.7236 100.31 54.8265Z" fill="#FEFFFE"/>
<path opacity="0.01" fill-rule="evenodd" clip-rule="evenodd" d="M97.5193 55.1351C97.5193 55.0322 97.5193 54.929 97.5193 54.8262C98.4495 54.8262 99.3798 54.8262 100.31 54.8262C99.4458 55.1279 98.5156 55.2308 97.5193 55.1351Z" fill="#FEFFFE"/>
<path opacity="0.01" fill-rule="evenodd" clip-rule="evenodd" d="M88.8372 59.1507C88.8372 59.0478 88.8372 58.9447 88.8372 58.8418C89.044 58.8418 89.2505 58.8418 89.4573 58.8418C89.3513 59.1006 89.1448 59.2038 88.8372 59.1507Z" fill="#FEFFFE"/>
<path opacity="0.012" fill-rule="evenodd" clip-rule="evenodd" d="M85.7363 60.386C85.7363 60.2832 85.7363 60.18 85.7363 60.0771C85.9431 60.0771 86.1497 60.0771 86.3565 60.0771C86.2504 60.336 86.0439 60.4392 85.7363 60.386Z" fill="#FEFFFE"/>
<path opacity="0.01" fill-rule="evenodd" clip-rule="evenodd" d="M84.8062 60.6951C84.8062 60.5923 84.8062 60.4891 84.8062 60.3862C85.1162 60.3862 85.4263 60.3862 85.7364 60.3862C85.5165 60.6655 85.2065 60.7683 84.8062 60.6951Z" fill="#FEFFFE"/>
<path opacity="0.01" fill-rule="evenodd" clip-rule="evenodd" d="M83.876 61.0037C83.876 60.9008 83.876 60.7977 83.876 60.6948C84.1861 60.6948 84.4961 60.6948 84.8062 60.6948C84.5864 60.9741 84.2763 61.0769 83.876 61.0037Z" fill="#FEFFFE"/>
<path opacity="0.01" fill-rule="evenodd" clip-rule="evenodd" d="M81.7053 61.6214C81.7053 61.5185 81.7053 61.4154 81.7053 61.3125C82.0154 61.3125 82.3255 61.3125 82.6356 61.3125C82.4157 61.5917 82.1056 61.6946 81.7053 61.6214Z" fill="#FEFFFE"/>
<path opacity="0.01" fill-rule="evenodd" clip-rule="evenodd" d="M80.7751 61.6216C81.0852 61.6216 81.3953 61.6216 81.7054 61.6216C81.3953 62.0333 81.0852 62.0333 80.7751 61.6216Z" fill="#FEFFFE"/>
<path opacity="0.013" fill-rule="evenodd" clip-rule="evenodd" d="M79.5349 62.2395C79.5349 62.1367 79.5349 62.0335 79.5349 61.9307C80.7752 62.0335 80.7752 62.1367 79.5349 62.2395Z" fill="#FEFFFE"/>
<path opacity="0.01" fill-rule="evenodd" clip-rule="evenodd" d="M76.7441 62.8572C76.7441 62.7544 76.7441 62.6512 76.7441 62.5483C77.1575 62.5483 77.5711 62.5483 77.9845 62.5483C77.6533 62.8368 77.24 62.94 76.7441 62.8572Z" fill="#FEFFFE"/>
<path opacity="0.01" fill-rule="evenodd" clip-rule="evenodd" d="M73.6433 63.4749C73.6433 63.372 73.6433 63.2689 73.6433 63.166C74.1602 63.166 74.6768 63.166 75.1937 63.166C74.7537 63.4598 74.2371 63.5626 73.6433 63.4749Z" fill="#FEFFFE"/>
<path opacity="0.01" fill-rule="evenodd" clip-rule="evenodd" d="M71.783 63.784C71.783 63.6811 71.783 63.578 71.783 63.4751C72.4031 63.4751 73.0233 63.4751 73.6434 63.4751C73.0961 63.7719 72.476 63.8751 71.783 63.784Z" fill="#FEFFFE"/>
<path opacity="0.011" fill-rule="evenodd" clip-rule="evenodd" d="M69.6123 64.0926C69.6123 63.9897 69.6123 63.8865 69.6123 63.7837C70.3357 63.7837 71.0594 63.7837 71.7828 63.7837C71.1295 64.0827 70.4058 64.1859 69.6123 64.0926Z" fill="#FEFFFE"/>
<path opacity="0.01" fill-rule="evenodd" clip-rule="evenodd" d="M66.8218 64.4017C66.8218 64.2988 66.8218 64.1956 66.8218 64.0928C67.752 64.0928 68.6822 64.0928 69.6125 64.0928C68.7483 64.3945 67.8181 64.4974 66.8218 64.4017Z" fill="#FEFFFE"/>
<path opacity="0.01" fill-rule="evenodd" clip-rule="evenodd" d="M46.6667 64.4014C47.8085 64.3504 48.9452 64.4017 50.0776 64.5558C48.8813 64.806 47.7446 64.7544 46.6667 64.4014Z" fill="#FEFFFE"/>
<path opacity="0.01" fill-rule="evenodd" clip-rule="evenodd" d="M66.8217 64.4014C65.7439 64.7544 64.6072 64.806 63.4109 64.5558C64.5433 64.4017 65.68 64.3504 66.8217 64.4014Z" fill="#FEFFFE"/>
<path opacity="0.013" fill-rule="evenodd" clip-rule="evenodd" d="M50.6978 65.0194C54.7784 64.6611 58.9129 64.6095 63.1009 64.865C58.9678 65.0194 54.8333 65.071 50.6978 65.0194Z" fill="#FEFFFE"/>
<path opacity="0.012" fill-rule="evenodd" clip-rule="evenodd" d="M37.9844 65.9461C37.9844 65.8432 37.9844 65.7401 37.9844 65.6372C38.2945 65.6372 38.6045 65.6372 38.9146 65.6372C38.6948 65.9164 38.3847 66.0193 37.9844 65.9461Z" fill="#FEFFFE"/>
<path opacity="0.01" fill-rule="evenodd" clip-rule="evenodd" d="M37.0542 65.9458C37.3643 65.9458 37.6744 65.9458 37.9844 65.9458C37.6744 66.3575 37.3643 66.3575 37.0542 65.9458Z" fill="#FEFFFE"/>
<path opacity="0.01" fill-rule="evenodd" clip-rule="evenodd" d="M34.8838 66.5635C35.1939 66.5635 35.5039 66.5635 35.814 66.5635C35.5039 66.9752 35.1939 66.9752 34.8838 66.5635Z" fill="#FEFFFE"/>
<path opacity="0.01" fill-rule="evenodd" clip-rule="evenodd" d="M33.6433 67.1814C33.6433 67.0786 33.6433 66.9754 33.6433 66.8726C34.8836 66.9754 34.8836 67.0786 33.6433 67.1814Z" fill="#FEFFFE"/>
<path opacity="0.01" fill-rule="evenodd" clip-rule="evenodd" d="M28.9922 67.1816C29.31 67.3043 29.3618 67.51 29.1472 67.7994C29.0033 67.6159 28.9515 67.4099 28.9922 67.1816Z" fill="#FEFFFE"/>
<path opacity="0.01" fill-rule="evenodd" clip-rule="evenodd" d="M32.7131 67.4905C32.7131 67.3877 32.7131 67.2845 32.7131 67.1816C33.0232 67.1816 33.3333 67.1816 33.6434 67.1816C33.4235 67.4609 33.1134 67.5637 32.7131 67.4905Z" fill="#FEFFFE"/>
<path opacity="0.01" fill-rule="evenodd" clip-rule="evenodd" d="M31.4729 67.7991C31.4729 67.6963 31.4729 67.5931 31.4729 67.4902C31.8862 67.4902 32.2999 67.4902 32.7132 67.4902C32.382 67.7787 31.9687 67.8819 31.4729 67.7991Z" fill="#FEFFFE"/>
<path opacity="0.012" fill-rule="evenodd" clip-rule="evenodd" d="M30.5427 68.1082C30.5427 68.0053 30.5427 67.9022 30.5427 67.7993C30.8528 67.7993 31.1629 67.7993 31.473 67.7993C31.2531 68.0785 30.943 68.1814 30.5427 68.1082Z" fill="#FEFFFE"/>
<path opacity="0.01" fill-rule="evenodd" clip-rule="evenodd" d="M30.5425 68.1081C30.3097 68.4395 29.9996 68.4911 29.6123 68.2626C29.9063 68.1134 30.2163 68.0621 30.5425 68.1081Z" fill="#FEFFFE"/>
<path opacity="0.01" fill-rule="evenodd" clip-rule="evenodd" d="M19.3799 69.0347C19.8283 68.691 20.3452 68.6394 20.9303 68.8803C20.4236 69.0329 19.9067 69.0842 19.3799 69.0347Z" fill="black"/>
<path opacity="0.014" fill-rule="evenodd" clip-rule="evenodd" d="M54.4187 69.0347C54.8671 68.691 55.384 68.6394 55.9691 68.8803C55.4624 69.0329 54.9455 69.0842 54.4187 69.0347Z" fill="black"/>
<path opacity="0.013" fill-rule="evenodd" clip-rule="evenodd" d="M67.7519 69.0346C66.5073 69.0859 65.267 69.0343 64.031 68.8802C65.3299 68.6294 66.5702 68.6809 67.7519 69.0346Z" fill="black"/>
<path opacity="0.014" fill-rule="evenodd" clip-rule="evenodd" d="M91.6279 69.0347C92.0763 68.691 92.5932 68.6394 93.1783 68.8803C92.6717 69.0329 92.1548 69.0842 91.6279 69.0347Z" fill="black"/>
<path opacity="0.012" fill-rule="evenodd" clip-rule="evenodd" d="M98.4497 69.0348C99.0041 68.6882 99.6243 68.6367 100.31 68.8804C99.6984 69.0333 99.0782 69.0848 98.4497 69.0348Z" fill="black"/>
<path opacity="0.014" fill-rule="evenodd" clip-rule="evenodd" d="M103.411 69.0347C103.859 68.691 104.376 68.6394 104.961 68.8803C104.455 69.0329 103.938 69.0842 103.411 69.0347Z" fill="black"/>
<path opacity="0.425" fill-rule="evenodd" clip-rule="evenodd" d="M111.163 71.1971C110.956 71.1971 110.853 71.3 110.853 71.506C110.646 71.506 110.543 71.6089 110.543 71.8149C110.129 71.8149 109.716 71.8149 109.302 71.8149C109.302 71.6089 109.199 71.506 108.992 71.506C108.992 71.3 108.889 71.1971 108.682 71.1971C108.582 70.5108 108.789 69.9443 109.302 69.4983C109.013 69.0016 109.219 68.7443 109.922 68.7261C110.625 68.7443 110.832 69.0016 110.543 69.4983C111.056 69.9443 111.263 70.5108 111.163 71.1971Z" fill="black"/>
<path opacity="0.709" fill-rule="evenodd" clip-rule="evenodd" d="M11.3179 77.3744C11.1112 77.3744 11.0078 77.4773 11.0078 77.6833C10.5944 77.7862 10.5944 77.8893 11.0078 77.9922C10.4529 78.4546 9.78107 78.6606 8.99233 78.61C8.35645 78.6337 7.78799 78.4793 7.2869 78.1466C7.39025 78.0438 7.49363 77.9406 7.59698 77.8378C7.12306 77.3287 6.91633 76.711 6.97682 75.9845C7.21534 74.2615 7.5771 72.5627 8.0621 70.8879C8.53332 69.801 9.3602 69.1832 10.5427 69.0347C11.2178 69.3507 11.8896 69.4022 12.5582 69.1891C12.8744 71.9147 12.4609 74.6433 11.3179 77.3744ZM10.0776 71.1968C10.1023 72.2103 9.89558 73.1369 9.45744 73.9768C9.43273 72.9633 9.63946 72.0367 10.0776 71.1968Z" fill="black"/>
<path opacity="0.01" fill-rule="evenodd" clip-rule="evenodd" d="M67.752 69.3435C67.752 69.2407 67.752 69.1375 67.752 69.0347C68.3485 69.0998 68.4518 69.3056 68.062 69.6524C68.062 69.4464 67.9588 69.3435 67.752 69.3435Z" fill="black"/>
<path opacity="0.591" fill-rule="evenodd" clip-rule="evenodd" d="M21.2404 69.9615C20.8271 70.3732 20.8271 70.7853 21.2404 71.197C21.2404 72.2265 21.2404 73.2563 21.2404 74.2858C21.1372 74.2858 21.0336 74.2858 20.9303 74.2858C20.9303 74.0798 20.8271 73.977 20.6203 73.977C20.517 72.7414 20.4134 72.7414 20.3102 73.977C19.8969 74.3887 19.8969 74.8007 20.3102 75.2125C20.3102 75.4185 20.4134 75.5214 20.6203 75.5214C20.5155 76.2485 20.3604 76.9691 20.1552 77.6835C19.5511 77.8716 18.9824 78.0776 18.4497 78.3013C18.0575 77.9881 17.851 77.5248 17.8296 76.9113C18.0072 75.9303 18.059 74.9521 17.9846 73.977C17.6767 75.1946 17.4699 76.4301 17.3645 77.6835C17.2612 77.5807 17.1576 77.4775 17.0544 77.3746C17.0407 76.4557 17.0925 75.5291 17.2094 74.5947C17.499 74.2648 17.6026 73.8531 17.5195 73.3592C17.988 72.7488 18.2463 72.0282 18.2947 71.197C18.393 71.7533 18.5998 71.8562 18.9148 71.5059C19.0113 70.8709 19.1663 70.2531 19.38 69.6526C19.69 69.5498 20.0001 69.4466 20.3102 69.3438C20.7846 69.387 21.0947 69.593 21.2404 69.9615Z" fill="black"/>
<path opacity="0.672" fill-rule="evenodd" clip-rule="evenodd" d="M56.279 69.9615C55.9893 70.2914 55.8858 70.7031 55.9689 71.197C56.0721 71.197 56.1757 71.197 56.279 71.197C57.2421 71.286 57.8622 71.8009 58.1394 72.7414C58.5233 72.212 58.7301 71.5943 58.7596 70.8882C60.1217 70.8749 60.225 71.0293 59.0697 71.3515C59.4706 71.5028 59.8842 71.5544 60.31 71.5059C60.31 71.8148 60.31 72.1237 60.31 72.4326C60.0501 72.5382 59.9466 72.7439 59.9999 73.0503C59.7196 73.2693 59.6163 73.5782 59.6898 73.977C59.43 74.0826 59.3264 74.2883 59.3797 74.5947C59.1199 74.7004 59.0163 74.9061 59.0697 75.2125C58.8098 75.3181 58.7062 75.5238 58.7596 75.8302C58.4793 76.0492 58.376 76.3581 58.4495 76.7569C58.1897 76.8625 58.0861 77.0682 58.1394 77.3746C57.8796 77.4803 57.776 77.686 57.8293 77.9924C57.5695 78.098 57.4659 78.3038 57.5193 78.6102C57.2594 78.7158 57.1559 78.9215 57.2092 79.2279C57.0024 79.2279 56.8991 79.3308 56.8991 79.5368C56.1072 79.8111 55.2802 79.9139 54.4185 79.8457C54.4185 79.5368 54.4185 79.2279 54.4185 78.919C54.6709 78.2608 54.8259 77.5402 54.8836 76.7569C54.9869 77.0658 55.0904 77.3746 55.1937 77.6835C54.976 74.4743 54.7174 74.5771 54.4185 77.9924C53.7983 77.9924 53.1782 77.9924 52.558 77.9924C52.5208 77.3024 52.6241 76.633 52.8681 75.9847C52.7559 75.6063 52.6008 75.2461 52.403 74.9036C52.3186 75.7543 52.1636 76.578 51.9379 77.3746C51.731 77.3746 51.6278 77.4775 51.6278 77.6835C51.2145 77.7864 51.2145 77.8895 51.6278 77.9924C50.8101 78.5876 49.8799 78.7421 48.8371 78.4557C48.3397 77.5547 48.1329 76.4736 48.2169 75.2125C48.3202 75.2125 48.4238 75.2125 48.527 75.2125C48.8371 75.6242 49.1472 75.6242 49.4572 75.2125C49.5605 75.2125 49.6641 75.2125 49.7673 75.2125C49.7673 75.0065 49.6641 74.9036 49.4572 74.9036C49.4572 74.6976 49.354 74.5947 49.1472 74.5947C49.2005 74.2883 49.0969 74.0826 48.8371 73.977C48.8811 73.0142 49.2948 72.242 50.0774 71.6604C49.7258 71.3465 49.829 71.1405 50.3875 71.0426C51.0076 70.8366 51.6278 70.8366 52.2479 71.0426C52.0963 71.522 52.3031 71.8824 52.8681 72.1237C52.8169 73.1584 52.8687 74.1879 53.0231 75.2125C53.278 74.4041 53.4331 73.5804 53.4883 72.7414C53.7943 71.749 54.1044 70.7195 54.4185 69.6526C54.7286 69.5498 55.0386 69.4466 55.3487 69.3438C55.8231 69.387 56.1332 69.593 56.279 69.9615ZM55.9689 71.197C56.0697 73.6224 55.9664 75.9902 55.6588 78.3013C55.7404 76.587 55.6371 74.8882 55.3487 73.2048C55.5007 72.4801 55.7075 71.8108 55.9689 71.197ZM52.8681 72.1237C53.0749 72.3297 53.2814 72.5354 53.4883 72.7414C53.4331 73.5804 53.278 74.4041 53.0231 75.2125C52.8687 74.1879 52.8169 73.1584 52.8681 72.1237ZM58.1394 72.7414C58.0179 73.26 57.8628 73.7749 57.6743 74.2858C57.4675 73.6681 57.4675 73.0503 57.6743 72.4326C57.7931 72.6043 57.9481 72.7071 58.1394 72.7414ZM51.3177 73.977C50.5884 73.6548 50.5366 73.2431 51.1627 72.7414C51.3146 73.1408 51.3664 73.5529 51.3177 73.977ZM49.7673 75.2125C50.039 75.172 50.2458 75.2749 50.3875 75.5214C50.745 75.888 50.745 76.1969 50.3875 76.448C50.3875 76.242 50.2842 76.1391 50.0774 76.1391C50.0597 75.7966 49.9565 75.4877 49.7673 75.2125Z" fill="black"/>
<path opacity="0.01" fill-rule="evenodd" clip-rule="evenodd" d="M56.5891 69.9615C56.5485 69.7332 56.6002 69.5272 56.7441 69.3438C56.9587 69.6332 56.9069 69.8389 56.5891 69.9615Z" fill="black"/>
<path opacity="0.709" fill-rule="evenodd" clip-rule="evenodd" d="M67.752 69.3438C67.9589 69.3438 68.0621 69.4466 68.0621 69.6526C68.5793 70.2639 68.7858 70.9845 68.6823 71.8148C68.931 71.3663 69.086 70.8517 69.1474 70.2704C69.2507 70.6821 69.3542 71.0942 69.4575 71.5059C70.4153 71.5433 71.3973 71.4401 72.4032 71.197C72.7201 71.3067 72.9269 71.5127 73.0234 71.8148C72.61 72.0208 72.61 72.2265 73.0234 72.4326C72.9511 73.9248 72.641 75.366 72.0931 76.7569C72.3245 77.1387 72.4277 77.5507 72.4032 77.9924C72.1136 78.3223 72.01 78.734 72.0931 79.2279C71.9899 79.2279 71.8863 79.2279 71.7831 79.2279C71.8497 78.7093 71.6429 78.4004 71.1629 78.3013C70.1998 78.1323 69.2696 77.8234 68.3722 77.3746C68.4938 76.3794 68.3387 75.4528 67.9071 74.5947C67.7552 74.9941 67.7034 75.4061 67.752 75.8302C67.4717 76.0492 67.3685 76.3581 67.442 76.7569C67.2352 76.7569 67.1319 76.8597 67.1319 77.0658C66.9251 77.0658 66.8218 77.1686 66.8218 77.3746C66.615 77.3746 66.5117 77.4775 66.5117 77.6835C66.2041 77.6304 65.9976 77.7336 65.8916 77.9924C64.6513 77.9924 63.411 77.9924 62.1707 77.9924C62.8888 75.1306 63.5089 72.2475 64.0311 69.3438C65.2714 69.3438 66.5117 69.3438 67.752 69.3438ZM68.6823 71.8148C69.05 72.7451 68.9986 73.6718 68.5272 74.5947C68.2575 74.4069 68.1024 74.1496 68.0621 73.8225C68.2141 73.0979 68.4209 72.4285 68.6823 71.8148ZM66.2017 72.7414C66.2265 73.7549 66.0196 74.6815 65.5815 75.5214C65.5567 74.5079 65.7635 73.5813 66.2017 72.7414ZM70.8528 73.0503C71.2485 73.324 71.2485 73.6329 70.8528 73.977C70.5235 73.6912 70.5235 73.3824 70.8528 73.0503ZM68.3722 77.3746C68.2689 77.3746 68.1654 77.3746 68.0621 77.3746C68.1502 76.7831 68.0469 76.2685 67.752 75.8302C67.7034 75.4061 67.7552 74.9941 67.9071 74.5947C68.3387 75.4528 68.4938 76.3794 68.3722 77.3746ZM70.2327 75.2125C70.6302 75.5856 70.6302 75.9976 70.2327 76.448C70.1068 76.1215 70.1068 75.7095 70.2327 75.2125Z" fill="black"/>
<path opacity="0.01" fill-rule="evenodd" clip-rule="evenodd" d="M91.0078 69.3438C91.4211 69.5498 91.4211 69.5498 91.0078 69.3438V69.3438Z" fill="black"/>
<path opacity="0.68" fill-rule="evenodd" clip-rule="evenodd" d="M93.4884 69.6523C92.9746 70.452 92.8711 71.2758 93.1784 72.1234C93.1784 72.2262 93.1784 72.3294 93.1784 72.4323C92.6587 72.6432 92.4518 73.0553 92.5582 73.6678C92.1033 74.9419 91.7418 76.2803 91.4729 77.6832C91.0391 77.9078 90.574 78.0622 90.0776 78.1465C90.4909 78.2494 90.9046 78.3526 91.3179 78.4554C90.1808 78.2494 89.0441 78.2494 87.907 78.4554C87.7703 77.4621 87.4602 76.8959 86.9768 76.7566C87.5331 75.0262 88.2565 73.3274 89.1473 71.6601C89.0441 71.5572 88.9405 71.454 88.8373 71.3512C89.4094 71.0028 90.0295 70.8483 90.6977 70.8879C90.6515 70.5629 90.703 70.254 90.8528 69.9612C90.956 70.3729 91.0596 70.785 91.1629 71.1967C91.2689 69.5739 92.0441 69.059 93.4884 69.6523ZM90.0776 73.3589C90.2565 72.9657 90.463 72.9657 90.6977 73.3589C90.552 73.6563 90.3452 73.6563 90.0776 73.3589ZM90.0776 75.2122C89.8549 74.7065 89.8035 74.1919 89.9225 73.6678C90.4425 74.1768 90.4943 74.6917 90.0776 75.2122ZM90.0776 75.2122C90.1511 75.6109 90.0478 75.9198 89.7675 76.1388C89.2661 75.3431 89.3697 75.0343 90.0776 75.2122Z" fill="black"/>
<path opacity="0.01" fill-rule="evenodd" clip-rule="evenodd" d="M98.1394 70.2704C98.0362 70.2704 97.9326 70.2704 97.8293 70.2704C97.9326 69.0349 98.0362 69.0349 98.1394 70.2704Z" fill="black"/>
<path opacity="0.716" fill-rule="evenodd" clip-rule="evenodd" d="M100.62 70.2704C100.813 70.8372 101.227 71.1976 101.86 71.3515C101.675 71.8543 101.779 72.3692 102.171 72.8959C101.738 74.38 101.325 75.8729 100.93 77.3746C100.723 77.3746 100.62 77.4775 100.62 77.6835C100.413 77.6835 100.31 77.7864 100.31 77.9924C99.7162 77.9047 99.1997 78.0075 98.7597 78.3013C98.0657 78.6216 97.3423 78.6729 96.5891 78.4557C98.6462 78.2015 98.6462 78.0471 96.5891 77.9924C97.1553 75.4271 97.6722 72.8532 98.1395 70.2704C98.4198 70.0514 98.5231 69.7425 98.4496 69.3438C99.0697 69.3438 99.6899 69.3438 100.31 69.3438C100.237 69.7425 100.34 70.0514 100.62 70.2704ZM99.3798 73.977C99.3119 73.614 99.4152 73.3051 99.6899 73.0503C100.035 73.4281 100.087 73.8398 99.8449 74.2858C99.7262 74.1141 99.5711 74.0112 99.3798 73.977ZM99.3798 73.977C99.635 74.5808 99.6868 75.1986 99.5348 75.8302C99.4161 75.6585 99.261 75.5556 99.0697 75.5214C98.9817 74.9299 99.0849 74.4153 99.3798 73.977ZM99.0697 75.5214C99.2517 75.9127 99.2517 76.2216 99.0697 76.448C98.6741 76.1039 98.6741 75.795 99.0697 75.5214Z" fill="black"/>
<path opacity="0.01" fill-rule="evenodd" clip-rule="evenodd" d="M100.62 70.2704C100.574 69.9454 100.625 69.6366 100.775 69.3438C101.005 69.7295 100.953 70.0384 100.62 70.2704Z" fill="black"/>
<path opacity="0.735" fill-rule="evenodd" clip-rule="evenodd" d="M104.961 70.8878C104.305 73.0908 103.736 75.3561 103.256 77.6832C102.551 78.0882 101.879 78.0882 101.24 77.6832C102 75.0682 102.672 72.3915 103.256 69.6523C103.783 69.3725 104.351 69.2696 104.961 69.3434C104.961 69.8583 104.961 70.3729 104.961 70.8878Z" fill="black"/>
<path opacity="0.01" fill-rule="evenodd" clip-rule="evenodd" d="M21.5503 69.6523C21.9636 69.8584 21.9636 69.8584 21.5503 69.6523V69.6523Z" fill="black"/>
<path opacity="0.01" fill-rule="evenodd" clip-rule="evenodd" d="M93.4884 69.6523C93.8289 69.9924 93.8806 70.4042 93.6434 70.8879C93.4915 70.4885 93.4397 70.0764 93.4884 69.6523Z" fill="black"/>
<path opacity="0.01" fill-rule="evenodd" clip-rule="evenodd" d="M105.271 70.8879C105.223 70.4638 105.274 70.0517 105.426 69.6523C105.664 70.1361 105.612 70.5478 105.271 70.8879Z" fill="black"/>
<path opacity="0.693" fill-rule="evenodd" clip-rule="evenodd" d="M14.7287 76.139C15.1342 74.7336 15.5479 73.2921 15.969 71.8147C16.5646 71.4623 17.1848 71.4107 17.8294 71.6603C17.5485 72.1851 17.4453 72.7515 17.5194 73.3591C17.2298 73.689 17.1262 74.1007 17.2093 74.5946C16.8248 75.5667 16.5147 76.5962 16.2791 77.6834C15.7237 77.8904 15.2068 78.0964 14.7287 78.3012C14.6254 78.3012 14.5218 78.3012 14.4186 78.3012C13.9684 78.0535 13.4517 77.899 12.8682 77.8379C12.4637 77.5895 12.257 77.2291 12.248 76.7568C13.0039 74.4967 13.3657 72.2317 13.3333 69.9614C13.483 70.2542 13.5347 70.5631 13.4884 70.8881C15.5454 70.9427 15.5454 71.0972 13.4884 71.3514C14.1324 71.4107 14.7525 71.5651 15.3488 71.8147C14.7296 73.2368 14.5228 74.6783 14.7287 76.139ZM14.7287 76.139C14.6856 76.7064 14.4787 76.8093 14.1085 76.4479C14.2502 76.2014 14.457 76.0986 14.7287 76.139Z" fill="black"/>
<path opacity="0.011" fill-rule="evenodd" clip-rule="evenodd" d="M21.2402 69.9614C21.3435 69.9614 21.4471 69.9614 21.5503 69.9614C21.6334 70.4553 21.5298 70.8671 21.2402 71.1969C21.2402 70.7852 21.2402 70.3732 21.2402 69.9614Z" fill="black"/>
<path opacity="0.01" fill-rule="evenodd" clip-rule="evenodd" d="M56.2791 69.9614C56.3823 69.9614 56.4859 69.9614 56.5891 69.9614C56.5891 70.2703 56.5891 70.5792 56.5891 70.8881C57.7277 71.0564 57.6242 71.1593 56.2791 71.1969C56.2791 70.7852 56.2791 70.3732 56.2791 69.9614Z" fill="black"/>
<path opacity="0.641" fill-rule="evenodd" clip-rule="evenodd" d="M108.682 71.1969C108.889 71.1969 108.992 71.2998 108.992 71.5058C109.199 71.5058 109.302 71.6087 109.302 71.8147C109.633 72.1032 110.047 72.2064 110.543 72.1236C110.211 72.4121 109.798 72.5152 109.302 72.4325C109.396 73.2229 109.292 73.9438 108.992 74.5946C108.889 71.2998 108.785 71.2998 108.682 74.5946C108.336 75.6235 107.923 76.653 107.442 77.6834C107.029 77.7863 107.029 77.8895 107.442 77.9923C107.407 78.1829 107.304 78.3373 107.132 78.4556C106.138 78.7305 105.207 78.6277 104.341 78.1468C104.444 78.0439 104.548 77.9407 104.651 77.8379C104.192 77.4366 103.986 76.9217 104.031 76.2935C104.466 74.5094 104.776 72.7077 104.961 70.8881C105.064 70.8881 105.168 70.8881 105.271 70.8881C105.983 71.4703 106.81 71.6247 107.752 71.3514C107.977 70.9193 108.132 70.4559 108.217 69.9614C108.282 70.4427 108.437 70.8544 108.682 71.1969ZM106.512 73.0502C107.18 73.1651 107.18 73.474 106.512 73.9769C106.33 73.7505 106.33 73.4416 106.512 73.0502ZM105.891 75.2124C106.594 75.6572 106.646 76.1721 106.047 76.7568C105.893 76.2521 105.842 75.7372 105.891 75.2124Z" fill="black"/>
<path opacity="0.01" fill-rule="evenodd" clip-rule="evenodd" d="M111.473 71.1969C111.424 70.7729 111.476 70.3608 111.628 69.9614C111.865 70.4451 111.813 70.8569 111.473 71.1969Z" fill="black"/>
<path opacity="0.01" fill-rule="evenodd" clip-rule="evenodd" d="M97.8294 70.2705C97.8781 70.6946 97.8263 71.1066 97.6744 71.506C97.4372 71.0223 97.4889 70.6106 97.8294 70.2705Z" fill="black"/>
<path opacity="0.01" fill-rule="evenodd" clip-rule="evenodd" d="M15.969 71.1968C16.4174 70.8531 16.9343 70.8015 17.5194 71.0424C17.0127 71.195 16.4958 71.2463 15.969 71.1968Z" fill="black"/>
<path opacity="0.01" fill-rule="evenodd" clip-rule="evenodd" d="M22.1707 71.1969C22.512 70.8577 22.9254 70.8062 23.411 71.0425C23.01 71.1938 22.5964 71.2454 22.1707 71.1969Z" fill="black"/>
<path opacity="0.656" fill-rule="evenodd" clip-rule="evenodd" d="M24.9612 73.3592C24.484 74.1259 24.0189 74.1259 23.5659 73.3592C23.1931 74.0317 23.0381 74.7526 23.1007 75.5214C22.8111 75.8513 22.7076 76.263 22.7907 76.7569C22.501 77.0868 22.3975 77.4985 22.4806 77.9924C21.8604 77.9924 21.2403 77.9924 20.6201 77.9924C20.7234 77.1686 20.8269 76.3452 20.9302 75.5214C21.2198 75.1915 21.3234 74.7798 21.2403 74.2859C21.5879 73.5279 21.8462 72.7041 22.0155 71.8148C22.8893 71.6208 23.7162 71.312 24.4961 70.8882C25.0424 71.0253 24.9907 71.1798 24.341 71.3515C24.6896 71.4284 24.9997 71.5829 25.2713 71.8148C25.0204 72.3001 24.9169 72.815 24.9612 73.3592Z" fill="black"/>
<path opacity="0.718" fill-rule="evenodd" clip-rule="evenodd" d="M33.0232 71.197C33.8179 71.3727 34.4898 71.7848 35.0387 72.4325C35.1429 71.9463 35.4012 71.5343 35.8139 71.197C36.6408 71.6087 37.4675 71.6087 38.2945 71.197C38.6455 71.8746 38.8523 72.5953 38.9146 73.3591C38.7221 74.7315 38.412 76.0698 37.9844 77.3746C37.5711 77.4774 37.5711 77.5806 37.9844 77.6834C37.8377 78.1177 37.5277 78.3237 37.0542 78.3012C36.0911 78.1322 35.1608 77.8234 34.2635 77.3746C34.2948 75.7919 34.4498 74.2475 34.7286 72.7414C34.6253 72.6385 34.5218 72.5353 34.4185 72.4325C34.0111 73.7465 33.7528 75.0848 33.6433 76.4479C33.3537 76.7778 33.2501 77.1895 33.3332 77.6834C33.0436 78.0133 32.9401 78.4251 33.0232 78.919C32.8163 78.919 32.7131 79.0218 32.7131 79.2278C32.5063 79.2278 32.403 79.3307 32.403 79.5367C31.266 79.9485 30.1292 79.9485 28.9922 79.5367C28.5993 78.6805 28.5993 77.8567 28.9922 77.0657C28.9922 76.8597 28.9922 76.6539 28.9922 76.4479C29.3249 75.8774 29.3249 75.2597 28.9922 74.5946C29.1835 74.6289 29.3385 74.7318 29.4573 74.9035C29.6625 74.1891 29.8176 73.4685 29.9224 72.7414C30.519 72.2317 30.8291 71.6655 30.8526 71.0425C31.5922 70.8708 32.3156 70.922 33.0232 71.197ZM34.2635 77.3746C34.0567 77.0657 33.8501 76.7568 33.6433 76.4479C33.7528 75.0848 34.0111 73.7465 34.4185 72.4325C34.5218 72.5353 34.6253 72.6385 34.7286 72.7414C34.4498 74.2475 34.2948 75.7919 34.2635 77.3746ZM31.7829 73.3591C31.8015 73.1914 31.9047 73.0885 32.0929 73.0502C32.4877 73.2841 32.4877 73.4898 32.0929 73.668C32.0929 73.462 31.9897 73.3591 31.7829 73.3591ZM36.7441 73.0502C37.1398 73.3239 37.1398 73.6328 36.7441 73.9769C36.4148 73.6912 36.4148 73.3823 36.7441 73.0502ZM31.7829 73.3591C31.9897 73.3591 32.0929 73.462 32.0929 73.668C32.1416 74.0921 32.0898 74.5041 31.9379 74.9035C31.8191 74.7318 31.6641 74.6289 31.4728 74.5946C31.3897 74.1007 31.4932 73.689 31.7829 73.3591ZM31.4728 74.5946C31.781 75.1611 31.781 75.676 31.4728 76.139C31.0945 75.588 31.0945 75.0734 31.4728 74.5946ZM36.1239 75.2124C36.5215 75.5855 36.5215 75.9976 36.1239 76.4479C35.9981 76.1214 35.9981 75.7094 36.1239 75.2124ZM28.9922 77.0657C29.23 77.2732 29.4368 77.5305 29.6123 77.8379C29.1283 77.8959 28.9215 77.6387 28.9922 77.0657ZM30.5425 77.9923C31.1122 78.0353 31.2154 78.2413 30.8526 78.6101C30.6052 78.4689 30.5019 78.2629 30.5425 77.9923Z" fill="black"/>
<path opacity="0.01" fill-rule="evenodd" clip-rule="evenodd" d="M33.0232 71.1969C33.3646 70.8577 33.7779 70.8062 34.2635 71.0425C33.8626 71.1938 33.4489 71.2454 33.0232 71.1969Z" fill="black"/>
<path opacity="0.01" fill-rule="evenodd" clip-rule="evenodd" d="M44.8062 71.1969C45.1475 70.8577 45.5609 70.8062 46.0465 71.0425C45.6455 71.1938 45.2319 71.2454 44.8062 71.1969Z" fill="black"/>
<path opacity="0.01" fill-rule="evenodd" clip-rule="evenodd" d="M47.2869 71.1969C47.6283 70.8577 48.0416 70.8062 48.5272 71.0425C48.1262 71.1938 47.7126 71.2454 47.2869 71.1969Z" fill="black"/>
<path opacity="0.01" fill-rule="evenodd" clip-rule="evenodd" d="M75.504 71.1969C75.0782 71.2454 74.6646 71.1938 74.2637 71.0425C74.7493 70.8062 75.1626 70.8577 75.504 71.1969Z" fill="black"/>
<path opacity="0.01" fill-rule="evenodd" clip-rule="evenodd" d="M85.1163 71.1969C84.6906 71.2454 84.2769 71.1938 83.876 71.0425C84.3616 70.8062 84.7749 70.8577 85.1163 71.1969Z" fill="black"/>
<path opacity="0.01" fill-rule="evenodd" clip-rule="evenodd" d="M26.2015 71.5058C25.9946 71.5058 25.8914 71.6087 25.8914 71.8147C25.723 71.7962 25.6197 71.6933 25.5813 71.5058C25.816 71.1126 26.0225 71.1126 26.2015 71.5058Z" fill="black"/>
<path opacity="0.682" fill-rule="evenodd" clip-rule="evenodd" d="M29.3024 72.4323C29.1495 73.1446 29.0463 73.8652 28.9923 74.5945C28.6596 75.165 28.6596 75.7827 28.9923 76.4477C28.801 76.4135 28.646 76.3106 28.5272 76.1389C28.4239 77.1684 28.3204 78.1982 28.2171 79.2277C27.6937 78.7504 27.0736 78.4416 26.3567 78.301C25.8215 78.6334 25.2531 78.685 24.6512 78.4555C24.5309 77.9436 24.4277 77.3259 24.3412 76.6022C24.3126 75.733 24.6227 75.0124 25.2714 74.44C25.0119 74.1277 24.9086 73.7673 24.9613 73.3589C25.2119 72.8277 25.5219 72.3128 25.8915 71.8145C26.0984 71.8145 26.2016 71.7117 26.2016 71.5057C27.054 71.5755 27.881 71.4726 28.6822 71.1968C28.8906 71.6443 29.0974 72.0561 29.3024 72.4323ZM27.1319 72.7412C27.5275 73.0148 27.5275 73.3237 27.1319 73.6678C26.8026 73.3821 26.8026 73.0732 27.1319 72.7412ZM26.5117 75.2122C26.9139 75.6289 26.8621 76.0406 26.3567 76.4477C26.1771 76.0067 26.2289 75.5946 26.5117 75.2122Z" fill="black"/>
<path opacity="0.706" fill-rule="evenodd" clip-rule="evenodd" d="M43.566 71.8145C43.1526 71.9174 43.1526 72.0206 43.566 72.1234C43.6047 73.4488 43.3979 74.7356 42.9458 75.9844C43.472 77.2527 43.0587 78.0249 41.7055 78.301C41.0447 78.0496 40.3213 77.8952 39.535 77.8377C39.1095 77.4541 38.7995 76.9908 38.6047 76.4477C38.9095 74.8728 39.4261 73.3796 40.1551 71.969C39.8128 71.6196 39.9161 71.362 40.4652 71.1968C41.2922 71.6085 42.1188 71.6085 42.9458 71.1968C43.2627 71.3064 43.4695 71.5125 43.566 71.8145ZM41.3954 72.7412C41.6584 74.086 41.4516 75.4247 40.7753 76.7566C40.672 76.6538 40.5685 76.5506 40.4652 76.4477C40.8547 75.2283 41.1647 73.9928 41.3954 72.7412Z" fill="black"/>
<path opacity="0.012" fill-rule="evenodd" clip-rule="evenodd" d="M53.4883 72.7414C53.2815 72.5353 53.075 72.3296 52.8682 72.1236C53.3941 71.0357 53.6006 71.2414 53.4883 72.7414Z" fill="black"/>
<path opacity="0.73" fill-rule="evenodd" clip-rule="evenodd" d="M75.5039 71.1968C76.3739 71.2962 77.1491 71.6051 77.8295 72.1234C77.8236 73.901 77.5653 75.6514 77.0543 77.3744C76.8474 77.3744 76.7442 77.4772 76.7442 77.6833C76.3308 77.7861 76.3308 77.8893 76.7442 77.9921C76.0388 78.4051 75.315 78.8172 74.5736 79.2277C74.4704 77.5804 74.3668 77.5804 74.2636 79.2277C73.9374 79.5458 73.5237 79.7518 73.0233 79.8454C72.5488 79.8022 72.2388 79.5962 72.093 79.2277C72.3826 78.8978 72.4862 78.486 72.4031 77.9921C72.9687 76.3131 73.3823 74.5626 73.6434 72.7412C73.8757 72.4227 74.0822 72.0623 74.2636 71.6601C74.7467 71.5952 75.16 71.4408 75.5039 71.1968ZM75.5039 73.0501C76.0388 73.156 76.1938 73.4649 75.969 73.9767C75.6468 73.7469 75.4918 73.438 75.5039 73.0501ZM75.5039 75.5211C75.5039 75.3151 75.4006 75.2122 75.1938 75.2122C75.1457 73.7914 75.3526 73.6885 75.8139 74.9033C75.8006 75.1863 75.6974 75.3923 75.5039 75.5211ZM75.1938 75.2122C75.4006 75.2122 75.5039 75.3151 75.5039 75.5211C75.5622 76.0162 75.4071 76.4283 75.0388 76.7566C74.7969 76.1738 74.8487 75.6589 75.1938 75.2122Z" fill="black"/>
<path opacity="0.705" fill-rule="evenodd" clip-rule="evenodd" d="M82.6358 72.1234C82.5468 73.3021 82.5468 74.4348 82.6358 75.5211C82.0947 75.9946 81.7846 76.6124 81.7056 77.3744C81.4987 77.3744 81.3955 77.4772 81.3955 77.6833C80.9821 77.7861 80.9821 77.8893 81.3955 77.9921C80.4125 78.7267 79.3787 78.7779 78.2947 78.1466C78.398 78.0437 78.5015 77.9406 78.6048 77.8377C78.1459 77.4365 77.9393 76.9216 77.9846 76.2933C78.1412 74.3424 78.6581 72.6436 79.535 71.1968C80.619 71.3753 81.6525 71.6842 82.6358 72.1234ZM80.4652 73.0501C81.1338 73.165 81.1338 73.4738 80.4652 73.9767C80.2832 73.7503 80.2832 73.4414 80.4652 73.0501ZM79.8451 75.2122C80.5474 75.657 80.5992 76.1719 80.0001 76.7566C79.8469 76.2519 79.7955 75.737 79.8451 75.2122Z" fill="black"/>
<path opacity="0.732" fill-rule="evenodd" clip-rule="evenodd" d="M85.1164 71.1968C85.7164 71.3975 86.3365 71.5004 86.9768 71.5057C86.9768 71.7117 87.0801 71.8145 87.2869 71.8145C87.4553 72.1982 87.5589 72.6099 87.597 73.0501C87.29 74.272 87.0835 75.5075 86.9768 76.7566C86.6872 77.0865 86.5837 77.4982 86.6668 77.9921C86.0466 77.9921 85.4265 77.9921 84.8063 77.9921C85.0172 76.5339 85.3272 75.0927 85.7365 73.6678C85.6333 73.4618 85.5297 73.2561 85.4265 73.0501C84.8172 74.6426 84.4035 76.2902 84.1861 77.9921C83.566 77.9921 82.9458 77.9921 82.3257 77.9921C82.5092 77.1807 82.6125 76.3569 82.6358 75.5211C83.0289 74.7782 83.2358 73.9545 83.2559 73.0501C83.5009 72.7075 83.6559 72.2958 83.721 71.8145C84.224 71.6295 84.6891 71.4235 85.1164 71.1968Z" fill="black"/>
<path opacity="0.01" fill-rule="evenodd" clip-rule="evenodd" d="M86.9768 71.5057C86.9954 71.3379 87.0987 71.2351 87.2869 71.1968C87.6816 71.4306 87.6816 71.6363 87.2869 71.8145C87.0801 71.8145 86.9768 71.7117 86.9768 71.5057Z" fill="black"/>
<path opacity="0.01" fill-rule="evenodd" clip-rule="evenodd" d="M94.1085 71.506C93.9016 71.506 93.7984 71.6089 93.7984 71.8149C93.5916 71.8149 93.4883 71.9178 93.4883 72.1238C93.385 72.1238 93.2815 72.1238 93.1782 72.1238C93.1782 71.8149 93.1782 71.506 93.1782 71.1971C93.5785 71.1239 93.8886 71.2268 94.1085 71.506Z" fill="black"/>
<path opacity="0.684" fill-rule="evenodd" clip-rule="evenodd" d="M97.2093 72.4323C96.7997 74.2695 96.4896 76.1228 96.2791 77.9921C94.222 78.0468 94.222 78.2013 96.2791 78.4555C95.969 78.507 95.6589 78.5583 95.3488 78.6099C94.2998 78.6399 93.266 78.4854 92.248 78.1466C92.262 77.3324 92.3138 76.457 92.4031 75.5211C92.8499 74.9636 92.9017 74.3458 92.5581 73.6678C93.0555 73.4247 93.2623 73.013 93.1783 72.4323C93.3851 72.4323 93.4884 72.3294 93.4884 72.1234C93.6952 72.1234 93.7984 72.0206 93.7984 71.8145C94.0053 71.8145 94.1085 71.7117 94.1085 71.5057C94.9609 71.5755 95.7879 71.4726 96.5891 71.1968C96.7975 71.6443 97.0043 72.0561 97.2093 72.4323ZM95.0387 72.7412C95.4344 73.0148 95.4344 73.3237 95.0387 73.6678C94.7094 73.3821 94.7094 73.0732 95.0387 72.7412ZM94.4186 75.2122C94.8208 75.6289 94.769 76.0406 94.2636 76.4477C94.084 76.0067 94.1358 75.5946 94.4186 75.2122Z" fill="black"/>
<path opacity="0.01" fill-rule="evenodd" clip-rule="evenodd" d="M111.163 71.1968C111.266 71.1968 111.37 71.1968 111.473 71.1968C111.416 71.4037 111.312 71.4037 111.163 71.1968Z" fill="black"/>
<path opacity="0.707" fill-rule="evenodd" clip-rule="evenodd" d="M46.3566 72.4326C45.809 73.7978 45.5504 75.2391 45.5814 76.7569C46.1823 75.4954 46.5441 74.1571 46.6666 72.7415C46.942 71.6644 47.6654 71.2527 48.8372 71.5059C48.5314 72.7239 48.3249 73.9594 48.217 75.2125C47.7789 76.0524 47.5721 76.979 47.5969 77.9924C46.9038 77.9013 46.2837 78.0045 45.7364 78.3013C44.9733 78.7566 44.2499 78.705 43.5659 78.1469C43.5218 76.3813 43.7286 74.5796 44.186 72.7415C44.4756 72.4116 44.5792 71.9998 44.4961 71.5059C45.1162 71.5059 45.7364 71.5059 46.3566 71.5059C46.3566 71.8148 46.3566 72.1237 46.3566 72.4326ZM46.3566 72.4326C46.3566 72.6386 46.4598 72.7415 46.6666 72.7415C46.5441 74.1571 46.1823 75.4954 45.5814 76.7569C45.5504 75.2391 45.809 73.7978 46.3566 72.4326Z" fill="black"/>
<path opacity="0.01" fill-rule="evenodd" clip-rule="evenodd" d="M110.853 71.5059C110.956 71.5059 111.06 71.5059 111.163 71.5059C111.105 71.7128 111.002 71.7128 110.853 71.5059Z" fill="black"/>
<path opacity="0.01" fill-rule="evenodd" clip-rule="evenodd" d="M29.9224 72.7414C29.7156 72.6386 29.5091 72.5354 29.3022 72.4326C29.5506 71.7243 29.7574 71.8272 29.9224 72.7414Z" fill="black"/>
<path opacity="0.01" fill-rule="evenodd" clip-rule="evenodd" d="M38.9148 71.8145C39.3281 72.0205 39.3281 72.0205 38.9148 71.8145V71.8145Z" fill="black"/>
<path opacity="0.013" fill-rule="evenodd" clip-rule="evenodd" d="M43.5659 72.1233C43.5659 72.0205 43.5659 71.9173 43.5659 71.8145C44.0459 71.9136 44.2527 72.2225 44.1861 72.7411C43.9793 72.5351 43.7727 72.3294 43.5659 72.1233Z" fill="black"/>
<path opacity="0.01" fill-rule="evenodd" clip-rule="evenodd" d="M60.6201 72.4322C60.5795 72.204 60.6312 71.9979 60.7751 71.8145C60.9897 72.1039 60.9379 72.3096 60.6201 72.4322Z" fill="black"/>
<path opacity="0.01" fill-rule="evenodd" clip-rule="evenodd" d="M73.0232 71.8145C73.5032 71.9136 73.71 72.2225 73.6433 72.7411C73.4365 72.6382 73.23 72.5351 73.0232 72.4322C73.0232 72.2262 73.0232 72.0205 73.0232 71.8145Z" fill="black"/>
<path opacity="0.015" fill-rule="evenodd" clip-rule="evenodd" d="M82.6357 72.1233C82.6543 71.9556 82.7576 71.8528 82.9458 71.8145C83.2339 72.1817 83.3371 72.5934 83.2559 73.05C83.0491 72.7411 82.8426 72.4322 82.6357 72.1233Z" fill="black"/>
<path opacity="0.016" fill-rule="evenodd" clip-rule="evenodd" d="M97.2092 72.4322C97.1686 72.204 97.2204 71.9979 97.3642 71.8145C97.5788 72.1039 97.527 72.3096 97.2092 72.4322Z" fill="black"/>
<path opacity="0.01" fill-rule="evenodd" clip-rule="evenodd" d="M110.543 71.8145C110.646 71.8145 110.75 71.8145 110.853 71.8145C110.795 72.0214 110.692 72.0214 110.543 71.8145Z" fill="black"/>
<path opacity="0.01" fill-rule="evenodd" clip-rule="evenodd" d="M60.3101 72.4326C60.4133 72.4326 60.5169 72.4326 60.6201 72.4326C60.6735 72.739 60.5699 72.9447 60.3101 73.0504C60.3101 72.8444 60.3101 72.6386 60.3101 72.4326Z" fill="black"/>
<path opacity="0.01" fill-rule="evenodd" clip-rule="evenodd" d="M60 73.0503C60.1033 73.0503 60.2068 73.0503 60.3101 73.0503C60.3836 73.4491 60.2803 73.7579 60 73.9769C60 73.6681 60 73.3592 60 73.0503Z" fill="black"/>
<path opacity="0.011" fill-rule="evenodd" clip-rule="evenodd" d="M20.3101 73.9771C20.4133 73.9771 20.5169 73.9771 20.6201 73.9771C20.827 73.9771 20.9302 74.0799 20.9302 74.2859C20.9302 74.6977 20.9302 75.1097 20.9302 75.5215C20.827 75.5215 20.7234 75.5215 20.6201 75.5215C20.4133 75.5215 20.3101 75.4186 20.3101 75.2126C20.3101 74.8008 20.3101 74.3888 20.3101 73.9771Z" fill="black"/>
<path opacity="0.016" fill-rule="evenodd" clip-rule="evenodd" d="M48.8371 73.9771C48.7838 74.2835 48.8873 74.4892 49.1472 74.5948C49.354 74.5948 49.4573 74.6977 49.4573 74.9037C49.4573 75.0065 49.4573 75.1097 49.4573 75.2126C49.1472 75.2126 48.8371 75.2126 48.527 75.2126C48.4439 74.7187 48.5475 74.3069 48.8371 73.9771Z" fill="black"/>
<path opacity="0.01" fill-rule="evenodd" clip-rule="evenodd" d="M59.6899 73.9771C59.7932 73.9771 59.8968 73.9771 60 73.9771C60.0534 74.2835 59.9498 74.4892 59.6899 74.5948C59.6899 74.3888 59.6899 74.1831 59.6899 73.9771Z" fill="black"/>
<path opacity="0.01" fill-rule="evenodd" clip-rule="evenodd" d="M59.3799 74.5947C59.4831 74.5947 59.5867 74.5947 59.69 74.5947C59.7433 74.9011 59.6397 75.1069 59.3799 75.2125C59.3799 75.0065 59.3799 74.8007 59.3799 74.5947Z" fill="black"/>
<path opacity="0.01" fill-rule="evenodd" clip-rule="evenodd" d="M108.682 74.5947C108.785 74.5947 108.889 74.5947 108.992 74.5947C108.889 75.4185 108.785 75.4185 108.682 74.5947Z" fill="black"/>
<path opacity="0.012" fill-rule="evenodd" clip-rule="evenodd" d="M59.0698 75.2124C59.1731 75.2124 59.2766 75.2124 59.3799 75.2124C59.4332 75.5188 59.3297 75.7245 59.0698 75.8302C59.0698 75.6241 59.0698 75.4184 59.0698 75.2124Z" fill="black"/>
<path opacity="0.01" fill-rule="evenodd" clip-rule="evenodd" d="M23.1008 75.521C23.5142 75.9327 23.5142 76.3448 23.1008 76.7565C23.1008 76.3448 23.1008 75.9327 23.1008 75.521Z" fill="black"/>
<path opacity="0.01" fill-rule="evenodd" clip-rule="evenodd" d="M58.7598 75.8301C58.863 75.8301 58.9666 75.8301 59.0698 75.8301C59.1433 76.2288 59.0401 76.5377 58.7598 76.7567C58.7598 76.4478 58.7598 76.139 58.7598 75.8301Z" fill="black"/>
<path opacity="0.011" fill-rule="evenodd" clip-rule="evenodd" d="M67.752 75.8301C68.0469 76.2684 68.1501 76.783 68.062 77.3745C67.8552 77.2716 67.6487 77.1685 67.4419 77.0656C67.4419 76.9627 67.4419 76.8596 67.4419 76.7567C67.7222 76.5377 67.8255 76.2288 67.752 75.8301Z" fill="black"/>
<path opacity="0.014" fill-rule="evenodd" clip-rule="evenodd" d="M33.6433 76.4478C33.8501 76.7566 34.0566 77.0655 34.2635 77.3744C34.1574 77.6332 33.9509 77.7364 33.6433 77.6833C33.6433 77.2715 33.6433 76.8595 33.6433 76.4478Z" fill="black"/>
<path opacity="0.013" fill-rule="evenodd" clip-rule="evenodd" d="M22.7908 76.7568C22.894 76.7568 22.9976 76.7568 23.1008 76.7568C22.9976 77.9924 22.894 77.9924 22.7908 76.7568Z" fill="black"/>
<path opacity="0.01" fill-rule="evenodd" clip-rule="evenodd" d="M58.4497 76.7568C58.553 76.7568 58.6565 76.7568 58.7598 76.7568C58.8131 77.0632 58.7096 77.269 58.4497 77.3746C58.4497 77.1686 58.4497 76.9629 58.4497 76.7568Z" fill="black"/>
<path opacity="0.01" fill-rule="evenodd" clip-rule="evenodd" d="M61.5503 77.0654C61.883 77.2974 61.9348 77.6063 61.7054 77.9921C61.5556 77.6993 61.5041 77.3904 61.5503 77.0654Z" fill="black"/>
<path opacity="0.01" fill-rule="evenodd" clip-rule="evenodd" d="M67.1318 77.0654C67.2351 77.0654 67.3387 77.0654 67.4419 77.0654C67.3845 77.2724 67.281 77.2724 67.1318 77.0654Z" fill="black"/>
<path opacity="0.01" fill-rule="evenodd" clip-rule="evenodd" d="M11.3179 77.3745C11.7313 77.5805 11.7313 77.5805 11.3179 77.3745V77.3745Z" fill="black"/>
<path opacity="0.01" fill-rule="evenodd" clip-rule="evenodd" d="M37.9844 77.3745C38.3977 77.5805 38.3977 77.5805 37.9844 77.3745V77.3745Z" fill="black"/>
<path opacity="0.012" fill-rule="evenodd" clip-rule="evenodd" d="M51.938 77.3745C52.3278 77.7214 52.2245 77.9271 51.6279 77.9923C51.6279 77.8894 51.6279 77.7862 51.6279 77.6834C51.8348 77.6834 51.938 77.5805 51.938 77.3745Z" fill="black"/>
<path opacity="0.01" fill-rule="evenodd" clip-rule="evenodd" d="M58.1396 77.3745C58.2429 77.3745 58.3465 77.3745 58.4497 77.3745C58.5031 77.6809 58.3995 77.8866 58.1396 77.9923C58.1396 77.7862 58.1396 77.5805 58.1396 77.3745Z" fill="black"/>
<path opacity="0.01" fill-rule="evenodd" clip-rule="evenodd" d="M66.8218 77.3745C66.925 77.3745 67.0286 77.3745 67.1319 77.3745C67.0745 77.5815 66.9709 77.5815 66.8218 77.3745Z" fill="black"/>
<path opacity="0.01" fill-rule="evenodd" clip-rule="evenodd" d="M77.0542 77.3745C77.4675 77.5805 77.4675 77.5805 77.0542 77.3745V77.3745Z" fill="black"/>
<path opacity="0.01" fill-rule="evenodd" clip-rule="evenodd" d="M81.7053 77.3745C82.0951 77.7214 81.9919 77.9271 81.3953 77.9923C81.3953 77.8894 81.3953 77.7862 81.3953 77.6834C81.6021 77.6834 81.7053 77.5805 81.7053 77.3745Z" fill="black"/>
<path opacity="0.012" fill-rule="evenodd" clip-rule="evenodd" d="M100.93 77.3745C101.137 77.3745 101.24 77.4774 101.24 77.6834C101.137 77.5805 101.033 77.4774 100.93 77.3745Z" fill="black"/>
<path opacity="0.01" fill-rule="evenodd" clip-rule="evenodd" d="M11.0078 77.6836C11.1112 77.6836 11.2145 77.6836 11.3179 77.6836C11.2604 77.8905 11.1571 77.8905 11.0078 77.6836Z" fill="black"/>
<path opacity="0.01" fill-rule="evenodd" clip-rule="evenodd" d="M33.3333 77.6836C33.4365 77.6836 33.5401 77.6836 33.6433 77.6836C33.7264 78.1775 33.6229 78.5892 33.3333 78.9191C33.3333 78.5074 33.3333 78.0953 33.3333 77.6836Z" fill="black"/>
<path opacity="0.01" fill-rule="evenodd" clip-rule="evenodd" d="M66.5117 77.6836C66.615 77.6836 66.7185 77.6836 66.8218 77.6836C66.7644 77.8905 66.6609 77.8905 66.5117 77.6836Z" fill="black"/>
<path opacity="0.01" fill-rule="evenodd" clip-rule="evenodd" d="M76.7441 77.6836C76.8474 77.6836 76.951 77.6836 77.0542 77.6836C76.9969 77.8905 76.8933 77.8905 76.7441 77.6836Z" fill="black"/>
<path opacity="0.01" fill-rule="evenodd" clip-rule="evenodd" d="M100.62 77.6836C100.723 77.6836 100.827 77.6836 100.93 77.6836C100.873 77.8905 100.769 77.8905 100.62 77.6836Z" fill="black"/>
<path opacity="0.01" fill-rule="evenodd" clip-rule="evenodd" d="M107.442 77.6836C107.855 77.8896 107.855 77.8896 107.442 77.6836V77.6836Z" fill="black"/>
<path opacity="0.01" fill-rule="evenodd" clip-rule="evenodd" d="M57.8293 77.9922C57.9326 77.9922 58.0362 77.9922 58.1394 77.9922C58.1928 78.2986 58.0892 78.5043 57.8293 78.6099C57.8293 78.4039 57.8293 78.1982 57.8293 77.9922Z" fill="black"/>
<path opacity="0.01" fill-rule="evenodd" clip-rule="evenodd" d="M65.8914 78.3011C65.8914 78.1982 65.8914 78.095 65.8914 77.9922C66.0982 77.9922 66.3047 77.9922 66.5115 77.9922C66.4055 78.251 66.199 78.3542 65.8914 78.3011Z" fill="black"/>
<path opacity="0.012" fill-rule="evenodd" clip-rule="evenodd" d="M100.31 77.9922C100.413 77.9922 100.517 77.9922 100.62 77.9922C100.563 78.1991 100.459 78.1991 100.31 77.9922Z" fill="black"/>
<path opacity="0.013" fill-rule="evenodd" clip-rule="evenodd" d="M14.4186 78.3014C13.9702 78.6452 13.4532 78.6968 12.8682 78.4558C13.3749 78.3032 13.8917 78.252 14.4186 78.3014Z" fill="black"/>
<path opacity="0.011" fill-rule="evenodd" clip-rule="evenodd" d="M14.7288 78.3014C15.2556 78.252 15.7725 78.3032 16.2791 78.4558C15.694 78.6968 15.1771 78.6452 14.7288 78.3014Z" fill="black"/>
<path opacity="0.01" fill-rule="evenodd" clip-rule="evenodd" d="M18.4497 78.3014C18.9765 78.252 19.4934 78.3032 20.0001 78.4558C19.415 78.6968 18.8981 78.6452 18.4497 78.3014Z" fill="black"/>
<path opacity="0.01" fill-rule="evenodd" clip-rule="evenodd" d="M20.6201 78.6099C21.0685 78.2661 21.5854 78.2146 22.1705 78.4555C21.6638 78.6081 21.1469 78.6594 20.6201 78.6099Z" fill="black"/>
<path opacity="0.014" fill-rule="evenodd" clip-rule="evenodd" d="M37.0543 78.3009C36.3945 78.6497 35.6711 78.7012 34.8838 78.4554C35.6001 78.3019 36.3235 78.2506 37.0543 78.3009Z" fill="black"/>
<path opacity="0.014" fill-rule="evenodd" clip-rule="evenodd" d="M41.7055 78.3009C41.0456 78.6497 40.3222 78.7012 39.5349 78.4554C40.2512 78.3019 40.9746 78.2506 41.7055 78.3009Z" fill="black"/>
<path opacity="0.011" fill-rule="evenodd" clip-rule="evenodd" d="M45.7363 78.3014C46.2631 78.252 46.78 78.3032 47.2867 78.4558C46.7016 78.6968 46.1847 78.6452 45.7363 78.3014Z" fill="black"/>
<path opacity="0.01" fill-rule="evenodd" clip-rule="evenodd" d="M54.4186 78.919C54.3153 78.919 54.2117 78.919 54.1085 78.919C53.6583 78.6713 53.1417 78.5169 52.5581 78.4557C52.8682 78.4041 53.1783 78.3529 53.4883 78.3013C53.9628 78.3445 54.2728 78.5505 54.4186 78.919Z" fill="black"/>
<path opacity="0.01" fill-rule="evenodd" clip-rule="evenodd" d="M65.8916 78.3014C64.7099 78.6551 63.4696 78.7067 62.1707 78.4558C63.4066 78.3017 64.6469 78.2501 65.8916 78.3014Z" fill="black"/>
<path opacity="0.013" fill-rule="evenodd" clip-rule="evenodd" d="M71.1627 78.3009C70.5029 78.6497 69.7795 78.7012 68.9922 78.4554C69.7085 78.3019 70.4319 78.2506 71.1627 78.3009Z" fill="black"/>
<path opacity="0.01" fill-rule="evenodd" clip-rule="evenodd" d="M82.3257 78.61C82.8801 78.2634 83.5003 78.2119 84.1861 78.4556C83.5744 78.6085 82.9542 78.66 82.3257 78.61Z" fill="black"/>
<path opacity="0.01" fill-rule="evenodd" clip-rule="evenodd" d="M84.8062 78.6099C85.2545 78.2661 85.7714 78.2146 86.3565 78.4555C85.8499 78.6081 85.333 78.6594 84.8062 78.6099Z" fill="black"/>
<path opacity="0.013" fill-rule="evenodd" clip-rule="evenodd" d="M98.7598 78.3013C99.2767 78.3013 99.7933 78.3013 100.31 78.3013C99.7933 78.713 99.2767 78.713 98.7598 78.3013Z" fill="black"/>
<path opacity="0.01" fill-rule="evenodd" clip-rule="evenodd" d="M101.55 78.6099C101.999 78.2661 102.516 78.2146 103.101 78.4555C102.594 78.6081 102.077 78.6594 101.55 78.6099Z" fill="black"/>
<path opacity="0.01" fill-rule="evenodd" clip-rule="evenodd" d="M57.5193 78.6099C57.6225 78.6099 57.7261 78.6099 57.8294 78.6099C57.8827 78.9163 57.7791 79.122 57.5193 79.2276C57.5193 79.0216 57.5193 78.8159 57.5193 78.6099Z" fill="black"/>
<path opacity="0.012" fill-rule="evenodd" clip-rule="evenodd" d="M33.0232 78.9189C33.1264 78.9189 33.23 78.9189 33.3333 78.9189C33.2759 79.1259 33.1723 79.1259 33.0232 78.9189Z" fill="black"/>
<path opacity="0.01" fill-rule="evenodd" clip-rule="evenodd" d="M54.1084 78.9189C54.1491 79.1472 54.0973 79.3532 53.9534 79.5367C53.7388 79.2473 53.7906 79.0416 54.1084 78.9189Z" fill="black"/>
<path opacity="0.01" fill-rule="evenodd" clip-rule="evenodd" d="M32.7131 79.228C32.8164 79.228 32.92 79.228 33.0232 79.228C32.9658 79.435 32.8623 79.435 32.7131 79.228Z" fill="black"/>
<path opacity="0.012" fill-rule="evenodd" clip-rule="evenodd" d="M57.2092 79.228C57.3125 79.228 57.4161 79.228 57.5193 79.228C57.4619 79.435 57.3584 79.435 57.2092 79.228Z" fill="black"/>
<path opacity="0.01" fill-rule="evenodd" clip-rule="evenodd" d="M71.783 79.228C71.8236 79.4563 71.7718 79.6623 71.628 79.8458C71.4134 79.5564 71.4652 79.3507 71.783 79.228Z" fill="black"/>
<path opacity="0.01" fill-rule="evenodd" clip-rule="evenodd" d="M74.2637 79.228C74.3669 79.228 74.4705 79.228 74.5737 79.228C74.4705 80.0518 74.3669 80.0518 74.2637 79.228Z" fill="black"/>
<path opacity="0.01" fill-rule="evenodd" clip-rule="evenodd" d="M28.9923 79.5366C28.7855 79.7426 28.7855 79.7426 28.9923 79.5366V79.5366Z" fill="black"/>
<path opacity="0.012" fill-rule="evenodd" clip-rule="evenodd" d="M32.4031 79.5366C32.5063 79.5366 32.6099 79.5366 32.7132 79.5366C32.6558 79.7436 32.5522 79.7436 32.4031 79.5366Z" fill="black"/>
<path opacity="0.01" fill-rule="evenodd" clip-rule="evenodd" d="M56.8992 79.5366C57.0024 79.5366 57.106 79.5366 57.2092 79.5366C57.1519 79.7436 57.0483 79.7436 56.8992 79.5366Z" fill="black"/>
</g>
<defs>
<clipPath id="clip0_4623_12969">
<rect width="120" height="80" fill="white"/>
</clipPath>
</defs>
</svg>
