<svg width="240" height="80" viewBox="0 0 240 80" fill="none" xmlns="http://www.w3.org/2000/svg">
<path opacity="0.997" fill-rule="evenodd" clip-rule="evenodd" d="M0.46149 1.69246C13.2137 1.67533 25.9658 1.69246 38.7179 1.74374C25.9773 14.2268 13.2423 26.7222 0.512772 39.2309C0.46149 26.7181 0.444392 14.2053 0.46149 1.69246Z" fill="#CE4036"/>
<path fill-rule="evenodd" clip-rule="evenodd" d="M61.2821 1.69238C120.667 1.69238 180.051 1.69238 239.436 1.69238C239.436 27.197 239.436 52.7006 239.436 78.2052C185.931 78.2226 132.428 78.2052 78.9232 78.1539C66.2052 65.3673 53.4873 52.5816 40.7693 39.7949C34.718 39.7611 28.6668 39.7262 22.6155 39.6924C35.4936 27.0021 48.3825 14.3356 61.2821 1.69238Z" fill="#28539C"/>
<path fill-rule="evenodd" clip-rule="evenodd" d="M210.308 11.7436C213.192 11.5074 215.995 11.8664 218.718 12.8206C222.944 14.8931 225.389 18.2606 226.051 22.9231C226.68 26.9119 226.099 30.7067 224.308 34.3077C221.608 38.5211 217.728 40.5724 212.667 40.4616C206.76 40.7385 202.469 38.277 199.795 33.077C198.231 29.0913 197.992 25.0226 199.077 20.8719C200.932 15.4778 204.676 12.4351 210.308 11.7436Z" fill="#FEFEFE"/>
<path fill-rule="evenodd" clip-rule="evenodd" d="M78.718 12.564C80.7009 12.564 82.6839 12.564 84.6667 12.564C84.6496 16.2565 84.6667 19.9486 84.718 23.6409C88.3932 19.966 92.0685 16.2905 95.7437 12.6153C98.3762 12.5469 101.008 12.5469 103.641 12.6153C99.6606 16.2713 95.7287 19.9804 91.8462 23.7435C95.9458 29.0532 100.082 34.3353 104.256 39.5896C101.659 39.6583 99.0599 39.6583 96.4616 39.5896C93.5038 35.6583 90.5294 31.7435 87.5385 27.846C86.6138 28.7537 85.6737 29.643 84.718 30.5127C84.6667 33.5548 84.6496 36.5978 84.6667 39.6409C82.6839 39.6409 80.7009 39.6409 78.718 39.6409C78.718 30.6153 78.718 21.5896 78.718 12.564Z" fill="#FEFEFE"/>
<path fill-rule="evenodd" clip-rule="evenodd" d="M107.744 12.564C109.795 12.564 111.846 12.564 113.897 12.564C113.88 18.6495 113.897 24.7352 113.949 30.8204C114.216 34.0573 115.977 35.6306 119.231 35.5383C122.707 35.7373 124.57 34.0963 124.821 30.6152C124.872 24.5978 124.889 18.5812 124.872 12.564C126.923 12.564 128.974 12.564 131.026 12.564C131.043 18.5469 131.026 24.5301 130.974 30.5127C130.911 35.4276 128.534 38.5558 123.846 39.8973C120.724 40.5465 117.613 40.5127 114.513 39.7947C110.106 38.4604 107.867 35.4686 107.795 30.8204C107.744 24.7352 107.726 18.6495 107.744 12.564Z" fill="#FEFEFE"/>
<path fill-rule="evenodd" clip-rule="evenodd" d="M159.128 39.5384C159.248 32.0687 159.265 24.5815 159.18 17.0769C159.117 17.2465 159.066 17.4175 159.026 17.5897C157.234 24.9292 155.49 32.2789 153.795 39.641C151.777 39.641 149.761 39.641 147.744 39.641C145.984 32.2266 144.24 24.8082 142.513 17.3846C142.517 17.2558 142.466 17.1532 142.359 17.0769C142.308 24.5979 142.29 32.12 142.308 39.641C140.462 39.641 138.615 39.641 136.769 39.641C136.769 30.6154 136.769 21.5897 136.769 12.5641C139.71 12.5299 142.65 12.5641 145.59 12.6666C147.284 19.6482 149.01 26.6225 150.769 33.5897C150.863 33.5046 150.931 33.402 150.974 33.282C152.635 26.3672 154.327 19.4608 156.051 12.5641C158.957 12.5641 161.864 12.5641 164.769 12.5641C164.769 21.5897 164.769 30.6154 164.769 39.641C162.871 39.6748 160.991 39.641 159.128 39.5384Z" fill="#FEFEFE"/>
<path fill-rule="evenodd" clip-rule="evenodd" d="M170.41 12.564C172.393 12.564 174.376 12.564 176.359 12.564C176.341 15.9829 176.359 19.4017 176.41 22.8204C176.452 22.8676 176.503 22.9014 176.564 22.9229C180.256 22.9229 183.949 22.9229 187.641 22.9229C187.743 19.4706 187.777 16.0176 187.743 12.564C189.726 12.564 191.71 12.564 193.692 12.564C193.692 21.5896 193.692 30.6152 193.692 39.6409C191.71 39.6409 189.726 39.6409 187.743 39.6409C187.743 35.607 187.743 31.5722 187.743 27.5383C183.958 27.5045 180.18 27.5383 176.41 27.6409C176.359 31.6409 176.341 35.6409 176.359 39.6409C174.376 39.6409 172.393 39.6409 170.41 39.6409C170.41 30.6152 170.41 21.5896 170.41 12.564Z" fill="#FEFEFE"/>
<path fill-rule="evenodd" clip-rule="evenodd" d="M211.026 16.5641C216.005 16.1935 218.996 18.4499 220 23.3334C220.624 26.6021 220.145 29.679 218.564 32.5641C216.578 35.0523 213.997 36.0267 210.821 35.4872C207.589 34.7169 205.589 32.7169 204.821 29.4872C204.204 26.6298 204.375 23.8257 205.333 21.0769C206.465 18.5945 208.362 17.0902 211.026 16.5641Z" fill="#28539C"/>
<path fill-rule="evenodd" clip-rule="evenodd" d="M142.513 17.3848C142.444 24.8033 142.376 32.2228 142.308 39.6413C142.29 32.1202 142.308 24.5982 142.359 17.0771C142.466 17.1535 142.517 17.256 142.513 17.3848Z" fill="#A2B4D4"/>
<path fill-rule="evenodd" clip-rule="evenodd" d="M159.128 39.5387C159.162 32.2054 159.128 24.8884 159.026 17.59C159.066 17.4178 159.117 17.2468 159.179 17.0771C159.265 24.5818 159.248 32.0689 159.128 39.5387Z" fill="#C3D0E4"/>
<path opacity="0.998" fill-rule="evenodd" clip-rule="evenodd" d="M0.461426 39.7434C6.41025 39.7259 12.359 39.7434 18.3076 39.7947C31.0255 52.5813 43.7435 65.367 56.4614 78.1536C37.7948 78.2049 19.1281 78.2223 0.461426 78.2049C0.461426 65.3844 0.461426 52.5639 0.461426 39.7434Z" fill="#CE4036"/>
<path fill-rule="evenodd" clip-rule="evenodd" d="M211.436 61.1793C212.706 61.1126 213.936 61.1813 215.128 61.3844C214.928 62.7403 215.51 63.4757 216.872 63.5895C218.425 63.7844 219.928 63.6131 221.385 63.0767C222.348 62.5957 222.843 61.8265 222.872 60.769C222.302 60.2542 221.635 59.929 220.872 59.7947C219.018 59.5065 217.207 59.0613 215.436 58.4613C214.348 57.9208 213.886 57.049 214.051 55.8459C214.426 54.4172 215.161 53.2039 216.256 52.2049C217.802 50.9362 219.581 50.1844 221.59 49.9485C222.752 49.8798 223.915 49.8798 225.077 49.9485C226.435 50.089 227.58 50.6531 228.513 51.6408C229.072 52.688 229.123 53.7649 228.667 54.8716C228.536 54.9034 228.417 54.9547 228.308 55.0254C227.282 55.0254 226.256 55.0254 225.231 55.0254C225.136 54.969 225.05 54.9013 224.974 54.8203C225.26 53.6162 224.781 52.9147 223.538 52.7177C222.043 52.4049 220.607 52.5762 219.231 53.2306C218.295 53.7506 217.936 54.5198 218.154 55.5383C218.342 55.6583 218.53 55.7772 218.718 55.8972C220.701 56.3762 222.684 56.8542 224.667 57.3331C226.577 57.7967 227.312 58.9762 226.872 60.8716C226.003 62.9711 224.516 64.4583 222.41 65.3331C219.408 66.4593 216.365 66.5967 213.282 65.7434C211.209 64.8265 210.594 63.3054 211.436 61.1793Z" fill="#FDFDFE"/>
<path fill-rule="evenodd" clip-rule="evenodd" d="M171.231 50.5127C166.215 50.3763 161.19 50.3763 156.154 50.5127C158.648 50.3763 161.178 50.3076 163.744 50.3076C166.274 50.3415 168.803 50.3763 171.333 50.4102C171.321 50.4727 171.286 50.5066 171.231 50.5127Z" fill="#C6D2E5"/>
<path fill-rule="evenodd" clip-rule="evenodd" d="M173.282 50.4101C174.565 50.2747 175.864 50.2747 177.179 50.4101C177.167 50.4727 177.132 50.5065 177.077 50.5127C175.83 50.4101 174.565 50.3763 173.282 50.4101Z" fill="#C5D1E5"/>
<path fill-rule="evenodd" clip-rule="evenodd" d="M171.231 50.513C170.903 51.3612 170.595 52.2155 170.308 53.0771C168.402 53.0432 166.505 53.0781 164.615 53.1796C162.838 57.4022 161.112 61.6412 159.436 65.8976C158.136 65.8976 156.838 65.8976 155.538 65.8976C155.522 65.7571 155.539 65.6196 155.59 65.4873C157.297 61.3591 158.99 57.2217 160.667 53.0771C158.82 53.0945 156.974 53.0771 155.128 53.0258C155.456 52.1827 155.798 51.3447 156.154 50.513C161.19 50.3765 166.215 50.3765 171.231 50.513Z" fill="#FDFEFE"/>
<path fill-rule="evenodd" clip-rule="evenodd" d="M173.282 50.4101C174.565 50.3763 175.83 50.4101 177.077 50.5127C175.012 55.6122 172.927 60.7065 170.821 65.7948C169.521 65.9312 168.223 65.9312 166.923 65.7948C169.096 60.684 171.215 55.5558 173.282 50.4101Z" fill="#FDFDFE"/>
<path fill-rule="evenodd" clip-rule="evenodd" d="M180.872 50.3078C184.393 50.2904 187.915 50.3078 191.436 50.3591C192.562 50.4524 193.502 50.914 194.256 51.7437C194.724 52.5191 194.827 53.3396 194.564 54.2053C193.734 56.3683 192.213 57.7868 190 58.4617C191.227 58.994 191.619 59.8996 191.179 61.1796C190.697 62.3858 190.236 63.5991 189.795 64.8206C189.845 65.1263 189.981 65.3827 190.205 65.5899C190.171 65.6586 190.136 65.7263 190.102 65.795C188.669 65.8976 187.233 65.9314 185.795 65.8976C185.802 65.193 185.922 64.5099 186.154 63.8463C186.482 63.1027 186.79 62.3499 187.077 61.5899C187.179 61.1047 187.128 60.6432 186.923 60.2053C186.599 60.0432 186.257 59.9406 185.897 59.8976C184.187 59.8124 182.478 59.8288 180.769 59.9488C179.962 61.9222 179.141 63.8883 178.308 65.8463C177.043 65.915 175.777 65.915 174.513 65.8463C176.644 60.676 178.764 55.4965 180.872 50.3078Z" fill="#FCFDFE"/>
<path fill-rule="evenodd" clip-rule="evenodd" d="M199.641 50.3078C204.222 50.2904 208.803 50.3078 213.385 50.3591C212.938 51.235 212.563 52.1406 212.256 53.0771C208.939 53.0596 205.624 53.0771 202.308 53.1283C201.874 54.1735 201.429 55.2165 200.974 56.2565C203.982 56.3253 206.992 56.393 210 56.4617C209.645 57.236 209.32 58.0217 209.026 58.8206C208.924 58.9683 208.788 59.0709 208.615 59.1283C205.901 59.0812 203.184 59.0473 200.461 59.0258C200.22 59.0832 199.98 59.1519 199.744 59.2309C199.251 60.5037 198.738 61.7694 198.205 63.0258C201.624 63.0945 205.043 63.1622 208.461 63.2309C208.098 64.1099 207.723 64.9817 207.333 65.8463C202.649 65.8976 197.966 65.915 193.282 65.8976C195.345 60.6781 197.465 55.4822 199.641 50.3078Z" fill="#FDFDFE"/>
<path fill-rule="evenodd" clip-rule="evenodd" d="M186.821 57.1794C185.196 57.2132 183.589 57.1794 182 57.0768C182.472 55.765 182.985 54.4655 183.538 53.1794C185.417 53.0594 187.298 53.043 189.179 53.1281C189.965 53.1455 190.41 53.5383 190.513 54.3076C190.097 56.2942 188.867 57.2512 186.821 57.1794Z" fill="#29539C"/>
<path fill-rule="evenodd" clip-rule="evenodd" d="M182 57.0771C183.589 57.1797 185.196 57.2136 186.821 57.1797C185.196 57.3161 183.555 57.3161 181.897 57.1797C181.91 57.1171 181.945 57.0833 182 57.0771Z" fill="#C5D1E5"/>
<path fill-rule="evenodd" clip-rule="evenodd" d="M211.436 61.1797C212.683 61.0771 213.948 61.0433 215.231 61.0771C215.255 61.2094 215.22 61.312 215.128 61.3848C213.936 61.1817 212.706 61.113 211.436 61.1797Z" fill="#7E98C4"/>
</svg>
