<svg width="363" height="80" viewBox="0 0 363 80" fill="none" xmlns="http://www.w3.org/2000/svg">
<g clip-path="url(#clip0_4623_19425)">
<path opacity="0.993" fill-rule="evenodd" clip-rule="evenodd" d="M22.8746 0C39.217 0 55.5593 0 71.9017 0C56.2046 13.3512 40.4324 26.637 24.5848 39.8574C28.2904 39.9525 31.9959 39.9525 35.7014 39.8574C41.0739 39.3027 45.8247 37.3062 49.9535 33.8681C61.3077 24.3137 72.6617 14.7594 84.0159 5.20499C87.8792 2.30858 92.2023 0.573574 96.9853 0C118.981 0 140.977 0 162.972 0C167.547 0.327692 171.134 2.37166 173.733 6.13191C176.044 9.73472 178.3 13.3711 180.502 17.041C172.809 23.6439 165.066 30.2036 157.272 36.7201C160.835 36.8153 164.398 36.8153 167.961 36.7201C172.528 36.2744 176.661 34.7057 180.36 32.0143C191.238 22.9352 202.118 13.8562 212.997 4.77718C216.762 2.07197 220.943 0.479574 225.539 0C256.276 0 287.012 0 317.75 0C303.287 12.2593 288.798 24.4994 274.281 36.7201C277.986 36.8153 281.692 36.8153 285.398 36.7201C289.065 36.4004 292.485 35.3071 295.659 33.4403C297.171 32.4499 298.643 31.4042 300.077 30.303C310.202 21.7407 320.368 13.2321 330.577 4.77718C334.369 2.12663 338.549 0.534232 343.118 0C344.401 0 345.684 0 346.966 0C350.913 0.278456 354.523 1.53811 357.798 3.77897C360.754 6.15199 362.464 9.21794 362.929 12.9768C362.929 14.1176 362.929 15.2585 362.929 16.3993C362.28 20.7393 360.546 24.5895 357.727 27.9501C351.466 34.6838 343.745 38.7005 334.567 40C339.927 40.2975 344.725 42.0562 348.962 45.2763C353.293 49.252 354.598 54.0767 352.881 59.7504C351.225 64.7357 348.255 68.7524 343.974 71.8004C339.002 75.2127 333.54 77.4943 327.584 78.6453C323.889 79.371 320.184 79.8225 316.467 80C303.07 80 289.673 80 276.276 80C276.278 79.7837 276.373 79.6172 276.561 79.5009C292.233 66.4351 307.863 53.3156 323.451 40.1426C319.65 40.0475 315.85 40.0475 312.049 40.1426C308.597 40.5017 305.366 41.5475 302.357 43.2799C300.663 44.3097 299.048 45.4506 297.512 46.7023C286.2 56.2628 274.845 65.7697 263.449 75.2228C259.598 77.9819 255.323 79.5743 250.623 80C246.727 80 242.831 80 238.936 80C246.18 54.7621 253.377 29.5214 260.528 4.27807C240.046 21.5866 219.523 38.8415 198.959 56.0428C196.582 64.0086 194.278 71.9943 192.047 80C178.839 80 165.633 80 152.426 80C154.639 71.9504 156.919 63.9171 159.267 55.9002C149.152 39.6245 139.01 23.3678 128.839 7.13012C115.774 18.088 102.733 29.0684 89.7168 40.0713C98.0575 53.341 106.324 66.6506 114.515 80C102.354 80 90.1918 80 78.0301 80C73.2632 79.7427 69.534 77.6513 66.8422 73.7255C60.8563 64.0285 54.8705 54.3315 48.8846 44.6346C45.4436 56.413 42.0469 68.2015 38.6944 80C25.8201 80 12.9456 80 0.0712891 80C0.0712891 79.8099 0.0712891 79.6197 0.0712891 79.4296C7.73585 52.9864 15.337 26.5098 22.8746 0Z" fill="#CF202F"/>
</g>
<defs>
<clipPath id="clip0_4623_19425">
<rect width="363" height="80" fill="white"/>
</clipPath>
</defs>
</svg>
