<svg width="552" height="80" viewBox="0 0 552 80" fill="none" xmlns="http://www.w3.org/2000/svg">
<path opacity="0.271" fill-rule="evenodd" clip-rule="evenodd" d="M138.009 1.50635C140.905 1.50635 143.801 1.50635 146.696 1.50635C146.919 1.95287 147.142 2.39873 147.365 2.84526C144.023 2.84526 140.682 2.84526 137.341 2.84526C137.564 2.39873 137.787 1.95287 138.009 1.50635Z" fill="#4F3A39"/>
<path opacity="0.153" fill-rule="evenodd" clip-rule="evenodd" d="M254.282 2.17585C261.962 1.39995 269.758 1.28815 277.67 1.84112C278.696 3.82673 279.475 5.9469 280.009 8.20095C280.642 13.5352 281.422 18.6679 282.348 23.5984C282.126 23.5984 281.902 23.5984 281.68 23.5984C280.175 16.6709 278.615 9.75342 277.002 2.84531C269.549 2.1792 261.975 1.95627 254.282 2.17585Z" fill="#624F4E"/>
<path opacity="0.271" fill-rule="evenodd" clip-rule="evenodd" d="M329.793 1.50635C332.02 1.50635 334.248 1.50635 336.475 1.50635C336.03 1.95287 335.585 2.39873 335.139 2.84526C333.357 2.84526 331.575 2.84526 329.793 2.84526C329.793 2.39873 329.793 1.95287 329.793 1.50635Z" fill="#483434"/>
<path opacity="0.705" fill-rule="evenodd" clip-rule="evenodd" d="M336.475 1.50635C349.394 1.50635 362.314 1.50635 375.233 1.50635C375.233 1.95287 375.233 2.39873 375.233 2.84526C361.868 2.84526 348.504 2.84526 335.139 2.84526C335.585 2.39873 336.03 1.95287 336.475 1.50635Z" fill="#211314"/>
<path opacity="0.392" fill-rule="evenodd" clip-rule="evenodd" d="M418.668 1.50622C418.594 1.91928 418.371 2.254 418 2.51041C416.007 2.84379 414.003 2.95559 411.986 2.84513C411.986 2.6222 411.986 2.39861 411.986 2.17568C414.074 1.52028 416.301 1.29668 418.668 1.50622Z" fill="#4A3636"/>
<path opacity="0.392" fill-rule="evenodd" clip-rule="evenodd" d="M450.744 1.50635C453.194 1.50635 455.644 1.50635 458.094 1.50635C458.094 1.95287 458.094 2.39873 458.094 2.84526C455.471 2.89212 453.022 2.44559 450.744 1.50635Z" fill="#493434"/>
<path opacity="0.153" fill-rule="evenodd" clip-rule="evenodd" d="M538.951 18.9123C537.268 13.9964 535.931 8.86371 534.941 3.51476C527.155 2.73417 519.359 2.62238 511.553 3.18003C509.858 4.99091 508.076 6.66455 506.207 8.20095C507.582 5.813 509.363 3.69284 511.553 1.84112C519.581 1.28346 527.6 1.39526 535.609 2.17585C536.997 7.7397 538.111 13.3189 538.951 18.9123Z" fill="#5A4747"/>
<path opacity="0.169" fill-rule="evenodd" clip-rule="evenodd" d="M138.009 1.50635C137.787 1.95287 137.564 2.39873 137.341 2.84526C136.896 2.84526 136.45 2.84526 136.005 2.84526C134.668 2.84526 133.332 2.84526 131.995 2.84526C133.896 2.28024 135.901 1.83438 138.009 1.50635Z" fill="#B09D9D"/>
<path opacity="0.294" fill-rule="evenodd" clip-rule="evenodd" d="M176.099 4.18434C173.35 3.29664 170.343 2.85011 167.078 2.84543C163.95 2.8461 160.943 3.06903 158.056 3.51488C156.515 6.74233 155.067 10.0896 153.713 13.5567C153.218 14.7745 152.439 15.6669 151.374 16.2345C152.898 13.0513 154.123 9.704 155.049 6.19271C155.689 4.50434 156.691 3.05363 158.056 1.84124C163.848 1.39472 169.639 1.39472 175.43 1.84124C176.764 2.45982 176.986 3.24041 176.099 4.18434Z" fill="#A2908F"/>
<path opacity="0.498" fill-rule="evenodd" clip-rule="evenodd" d="M254.282 2.17595C261.975 1.95637 269.549 2.1793 277.002 2.8454C269.426 2.73361 261.852 2.8454 254.282 3.18013C246.97 10.6185 239.619 17.8707 232.23 24.9375C239.1 16.9388 246.451 9.35185 254.282 2.17595Z" fill="#4C3939"/>
<path opacity="0.294" fill-rule="evenodd" clip-rule="evenodd" d="M329.793 1.50635C329.793 1.95287 329.793 2.39873 329.793 2.84526C328.095 3.07957 326.536 3.07957 325.115 2.84526C326.595 2.33112 328.154 1.88459 329.793 1.50635Z" fill="#B6A4A3"/>
<path opacity="0.169" fill-rule="evenodd" clip-rule="evenodd" d="M375.233 1.50635C377.997 2.06267 380.225 3.40158 381.915 5.52308C379.804 4.2384 377.576 3.34601 375.233 2.84526C375.233 2.39873 375.233 1.95287 375.233 1.50635Z" fill="#A28F8F"/>
<path opacity="0.271" fill-rule="evenodd" clip-rule="evenodd" d="M131.995 2.84521C133.332 2.84521 134.668 2.84521 136.005 2.84521C132.665 3.49994 129.324 4.39233 125.981 5.52304C127.823 4.38229 129.828 3.4899 131.995 2.84521Z" fill="#624D4D"/>
<path opacity="0.294" fill-rule="evenodd" clip-rule="evenodd" d="M146.697 1.50612C151.003 1.31331 152.117 2.87582 150.038 6.19231C150.038 5.74578 150.038 5.29993 150.038 4.8534C150.038 4.18394 150.038 3.51449 150.038 2.84503C149.147 2.84503 148.256 2.84503 147.365 2.84503C147.142 2.3985 146.919 1.95264 146.697 1.50612Z" fill="#AD9C9B"/>
<path opacity="0.8" fill-rule="evenodd" clip-rule="evenodd" d="M158.056 3.51467C160.943 3.06881 163.95 2.84588 167.078 2.84521C170.343 2.8499 173.35 3.29643 176.099 4.18413C175.691 4.78061 175.469 5.45007 175.431 6.1925C174.985 6.1925 174.54 6.1925 174.094 6.1925C174.585 5.38379 174.807 4.49141 174.762 3.51467C169.194 3.51467 163.625 3.51467 158.056 3.51467Z" fill="#3A2A2A"/>
<path opacity="0.663" fill-rule="evenodd" clip-rule="evenodd" d="M411.986 2.17549C411.986 2.39842 411.986 2.62202 411.986 2.84494C409.566 3.59808 407.115 4.26754 404.635 4.85331C404.23 4.7703 404.007 4.54737 403.967 4.18386C406.429 2.73114 409.102 2.06168 411.986 2.17549Z" fill="#806B6B"/>
<path fill-rule="evenodd" clip-rule="evenodd" d="M136.005 2.84521C136.45 2.84521 136.895 2.84521 137.341 2.84521C140.682 2.84521 144.023 2.84521 147.365 2.84521C148.255 2.84521 149.147 2.84521 150.038 2.84521C150.038 3.51467 150.038 4.18413 150.038 4.85358C148.64 6.58614 147.749 8.5945 147.365 10.8787C146.829 11.911 146.607 13.0263 146.696 14.226C145.585 15.5234 145.14 17.0859 145.36 18.9122C144.469 18.9122 144.023 19.3587 144.023 20.2511C142.801 21.8082 141.91 23.5937 141.35 25.6067C140.556 26.2286 139.665 26.4516 138.678 26.2762C135.251 25.2024 131.687 24.31 127.986 23.5984C127.356 23.6707 126.8 23.8936 126.315 24.2678C121.992 22.4978 117.649 22.4978 113.285 24.2678C111.516 23.6907 109.734 23.8025 107.939 24.6025C107.436 25.0517 107.213 25.6094 107.27 26.2762C105.069 26.1148 103.065 26.6725 101.256 27.9498C96.0294 31.445 90.9061 34.9041 85.887 38.3264C82.9828 38.4375 80.0874 38.3257 77.1999 37.9917C71.4384 36.7686 65.6468 35.7644 59.8258 34.9791C59.6033 34.9791 59.3801 34.9791 59.1576 34.9791C53.9695 33.1756 48.6236 31.6138 43.1199 30.2929C42.3345 31.2 41.6663 31.0882 41.1152 29.9582C33.0043 27.9572 24.8741 27.8454 16.7246 29.6235C15.1479 29.7413 14.8138 29.2948 15.7223 28.2845C21.3429 23.4404 26.9115 18.4194 32.4281 13.2218C35.064 11.5107 37.8483 10.0599 40.7811 8.87032C48.9035 8.14195 57.0337 8.14195 65.1717 8.87032C65.7377 9.85174 66.6284 10.4101 67.8446 10.544C76.255 12.869 84.7189 14.9885 93.2376 16.9038C97.2911 17.0437 101.3 16.8201 105.266 16.2343C109.292 16.3823 113.079 15.2663 116.626 12.8871C117.159 12.5811 117.382 12.1346 117.294 11.5481C119.21 11.6358 120.323 10.7428 120.635 8.87032C120.858 8.87032 121.081 8.87032 121.303 8.87032C122.425 9.01425 123.094 8.56773 123.308 7.53141C124.961 7.80722 125.851 7.13777 125.981 5.52304C129.324 4.39233 132.665 3.49994 136.005 2.84521Z" fill="#020101"/>
<path fill-rule="evenodd" clip-rule="evenodd" d="M158.056 3.51465C163.625 3.51465 169.194 3.51465 174.762 3.51465C174.807 4.49138 174.585 5.38377 174.094 6.19247C174.094 7.08486 174.094 7.97791 174.094 8.8703C172.913 10.4917 171.91 12.2765 171.087 14.2259C167.912 23.5488 164.348 32.6976 160.395 41.6736C159.884 42.722 159.996 43.6144 160.729 44.3515C173.312 44.9085 186.008 45.2432 198.819 45.3557C198.447 45.6121 198.225 45.9468 198.15 46.3598C196.711 50.1208 195.375 53.9146 194.141 57.7406C174.985 57.7406 155.829 57.7406 136.673 57.7406C137.221 55.2074 137.89 52.7525 138.678 50.3766C139.462 49.6977 139.907 48.8054 140.014 47.6987C144.108 38.2962 147.671 28.7003 150.706 18.9121C152.077 18.5419 152.3 17.8725 151.374 16.9038C151.374 16.6808 151.374 16.4572 151.374 16.2343C152.439 15.6666 153.218 14.7742 153.713 13.5565C155.067 10.0894 156.515 6.7421 158.056 3.51465Z" fill="#030101"/>
<path fill-rule="evenodd" clip-rule="evenodd" d="M277.002 2.84516C278.615 9.75327 280.175 16.6708 281.68 23.5983C281.292 26.3759 281.737 28.8308 283.016 30.9623C282.734 32.4893 283.179 33.6053 284.353 34.3096C284.398 35.5822 284.174 36.8093 283.685 37.9916C283.909 38.6811 284.355 39.0159 285.021 38.9958C284.663 41.1367 285.109 42.9221 286.358 44.3514C286.358 44.5744 286.358 44.798 286.358 45.0209C285.998 46.1034 285.776 47.2194 285.689 48.3682C286.275 51.4691 286.72 54.5934 287.026 57.7406C286.358 57.7406 285.689 57.7406 285.021 57.7406C279.007 57.7406 272.993 57.7406 266.979 57.7406C267.277 56.0602 266.832 54.7213 265.642 53.7238C266.002 52.6413 266.224 51.5253 266.311 50.3765C266.236 49.9635 266.014 49.6288 265.642 49.3724C253.392 48.9258 241.14 48.9258 228.889 49.3724C226.277 52.3039 223.604 55.0935 220.871 57.7406C214.411 57.7406 207.952 57.7406 201.492 57.7406C201.714 57.294 201.937 56.8482 202.16 56.4016C212.269 46.7856 221.847 36.7437 230.894 26.2761C230.894 25.3837 231.34 24.9372 232.231 24.9372C239.619 17.8704 246.97 10.6182 254.282 3.17989C261.852 2.84516 269.426 2.73336 277.002 2.84516ZM260.296 20.251C260.099 21.7472 260.322 23.0862 260.965 24.2678C260.965 24.4907 260.965 24.7143 260.965 24.9372C261.567 27.9149 262.236 30.8157 262.969 33.6401C257.077 34.3049 251.063 34.5285 244.927 34.3096C249.843 29.2739 254.632 24.1412 259.294 18.9121C259.773 19.2763 260.107 19.7228 260.296 20.251Z" fill="#030101"/>
<path opacity="0.459" fill-rule="evenodd" clip-rule="evenodd" d="M325.115 2.84521C324.589 3.91902 323.699 4.36555 322.442 4.18413C323.12 3.39819 324.011 2.95233 325.115 2.84521Z" fill="#9F8B8B"/>
<path fill-rule="evenodd" clip-rule="evenodd" d="M325.115 2.84521C326.536 3.07952 328.095 3.07952 329.793 2.84521C331.575 2.84521 333.357 2.84521 335.139 2.84521C348.504 2.84521 361.868 2.84521 375.233 2.84521C377.576 3.34597 379.804 4.23835 381.915 5.52304C383.454 8.29191 383.677 11.1927 382.584 14.226C382.454 16.1205 382.008 17.9053 381.247 19.5816C375.512 20.231 369.721 20.4539 363.873 20.2511C364.07 18.7548 363.847 17.4159 363.205 16.2343C362.542 16.3495 362.097 16.1259 361.868 15.5649C353.433 14.2387 344.745 13.7922 335.807 14.226C334.185 14.2414 332.626 14.5761 331.13 15.2302C330.245 15.7764 329.8 16.5577 329.793 17.5732C328.795 18.1168 328.35 19.0092 328.457 20.2511C328.47 21.0718 328.692 21.7413 329.125 22.2594C329.199 22.6725 329.422 23.0072 329.793 23.2636C335.803 23.5984 341.817 23.7095 347.835 23.5984C348.115 24.0817 348.56 24.4164 349.172 24.6025C355.854 24.8255 362.537 25.0491 369.219 25.272C370.158 26.1215 371.271 26.4563 372.56 26.2762C374.041 26.7468 375.266 27.6392 376.235 28.954C376.681 31.6318 376.681 34.3097 376.235 36.9875C375.472 39.1813 374.914 41.4126 374.565 43.682C372.91 46.0927 371.239 48.547 369.553 51.0461C367.531 53.1776 365.192 54.8512 362.537 56.067C362.034 56.5162 361.811 57.0738 361.868 57.7406C361.646 58.633 361.423 58.633 361.2 57.7406C359.584 57.5364 357.801 57.5364 355.854 57.7406C340.953 58.3886 326.028 58.6122 311.082 58.4101C310.108 58.3652 309.217 58.5881 308.41 59.0795C308.187 59.0795 307.964 59.0795 307.741 59.0795C305.839 58.0231 303.834 57.1301 301.727 56.4017C301.05 55.6158 300.159 55.1699 299.054 55.0628C299.177 53.432 298.731 51.9813 297.718 50.7113C298.679 47.6392 299.793 44.6266 301.059 41.6737C301.262 41.2385 301.485 40.792 301.727 40.3348C307.741 39.4424 313.755 39.4424 319.77 40.3348C319.351 40.9486 319.127 41.6181 319.101 42.3431C318.268 44.1339 318.936 45.3617 321.106 46.0251C331.575 46.4717 342.044 46.4717 352.513 46.0251C353.016 45.5759 353.239 45.0183 353.181 44.3515C355.111 44.5389 356.114 43.6466 356.188 41.6737C356.817 40.0074 356.483 38.6685 355.186 37.6569C353.662 36.5035 351.88 36.0576 349.84 36.318C337.699 35.832 325.671 35.832 313.755 36.318C313.533 36.318 313.31 36.318 313.087 36.318C313.145 35.6512 312.921 35.0936 312.419 34.6444C310.321 33.7527 308.539 32.5255 307.073 30.9624C306.965 29.1615 306.965 27.1532 307.073 24.9373C308.291 23.1692 309.183 21.1609 309.746 18.9122C310.773 16.636 311.998 14.4047 313.421 12.2176C315.259 9.82831 317.153 7.59634 319.101 5.52304C319.547 5.30011 319.992 5.07651 320.438 4.85358C320.394 5.1468 320.505 5.3704 320.772 5.52304C321.437 5.14413 321.993 4.6976 322.442 4.18413C323.699 4.36555 324.59 3.91902 325.115 2.84521Z" fill="#030202"/>
<path fill-rule="evenodd" clip-rule="evenodd" d="M418.668 1.50635C429.36 1.50635 440.052 1.50635 450.744 1.50635C453.022 2.44559 455.471 2.89212 458.094 2.84526C461.624 3.22016 464.186 5.00559 465.779 8.20091C465.957 11.8843 465.4 15.4551 464.108 18.9122C463.663 18.9122 463.44 19.1351 463.44 19.5817C457.527 19.7999 451.735 19.577 446.066 18.9122C447.17 16.8202 446.502 15.3694 444.061 14.5607C435.6 14.226 427.135 14.1142 418.668 14.226C417.389 14.0359 416.275 14.2588 415.327 14.8955C414.055 15.0548 413.163 15.7243 412.654 16.9038C412.769 17.5679 412.546 18.0138 411.986 18.2428C410.166 20.0356 410.389 21.7092 412.654 23.2637C418.887 23.5984 425.124 23.7095 431.365 23.5984C438.27 24.4908 445.175 24.4908 452.08 23.5984C452.303 23.5984 452.526 23.5984 452.748 23.5984C454.486 25.2151 456.379 26.7776 458.428 28.2846C459.681 31.8267 459.681 35.3976 458.428 38.9959C457.005 42.0667 455.78 45.1904 454.753 48.3683C453.576 48.8784 452.907 49.7715 452.748 51.0461C450.775 51.9077 449.216 53.2466 448.071 55.0628C445.152 56.632 442.033 57.5251 438.715 57.7407C422.232 58.633 405.749 58.633 389.266 57.7407C384.174 58.1042 381.501 55.7611 381.247 50.7114C381.515 48.5912 381.738 46.471 381.915 44.3515C381.8 43.6874 382.024 43.2416 382.584 43.0126C383.252 42.1202 383.92 41.2272 384.588 40.3348C390.157 40.3348 395.726 40.3348 401.294 40.3348C400.877 42.6866 401.545 44.5838 403.299 46.0252C413.545 46.4717 423.792 46.4717 434.038 46.0252C435.785 45.6155 436.898 44.6113 437.379 43.0126C440.729 38.9055 439.615 36.8971 434.038 36.9875C433.369 36.9875 432.701 36.9875 432.033 36.9875C426.364 36.3228 420.572 36.0998 414.659 36.3181C409.984 36.0543 405.306 35.8314 400.626 35.6486C398.167 35.4986 395.717 35.2751 393.275 34.9792C392.92 33.6108 392.141 32.4948 390.936 31.6319C390.819 28.8282 390.485 26.1504 389.934 23.5984C389.934 23.3755 389.934 23.1519 389.934 22.9289C390.6 22.9865 391.156 22.7629 391.605 22.2595C392.342 19.9298 393.121 17.6985 393.944 15.5649C395.048 13.8036 396.161 12.0188 397.285 10.2093C398.898 9.26467 400.012 7.92576 400.626 6.19254C401.951 6.42216 402.842 5.97564 403.299 4.85363C403.299 4.4071 403.521 4.18417 403.967 4.18417C404.007 4.54769 404.23 4.77062 404.635 4.85363C407.115 4.26785 409.566 3.5984 411.986 2.84526C414.003 2.95572 416.007 2.84392 418 2.51053C418.372 2.25413 418.594 1.9194 418.668 1.50635Z" fill="#030101"/>
<path fill-rule="evenodd" clip-rule="evenodd" d="M538.951 18.9122C538.951 19.1351 538.951 19.3587 538.951 19.5817C538.58 21.9328 539.026 23.9412 540.287 25.6068C540.276 26.9892 540.053 28.3281 539.619 29.6235C539.946 31.7356 540.391 33.744 540.955 35.6486C540.955 35.8715 540.955 36.0951 540.955 36.3181C541.964 41.9957 543.077 47.5743 544.297 53.0545C544.626 54.5982 544.849 56.1601 544.965 57.7407C538.022 58.1698 531.34 57.7233 524.918 56.4017C524.451 53.9944 523.782 51.6513 522.913 49.3725C510.885 48.9259 498.857 48.9259 486.828 49.3725C484.001 52.0918 481.328 54.8814 478.809 57.7407C478.587 57.7407 478.364 57.7407 478.141 57.7407C471.783 57.9596 465.546 57.7366 459.431 57.0712C459.876 57.0712 460.099 56.8483 460.099 56.4017C463.24 53.256 466.136 49.9087 468.786 46.3599C468.786 45.9134 469.008 45.6904 469.454 45.6904C474.772 41.3684 479.784 36.6822 484.489 31.6319C491.198 24.5778 497.769 17.4374 504.202 10.2093C504.202 8.87036 504.871 8.20091 506.207 8.20091C508.076 6.66451 509.858 4.99087 511.553 3.17999C519.359 2.62233 527.155 2.73413 534.941 3.51472C535.932 8.86367 537.268 13.9964 538.951 18.9122ZM516.899 18.2427C518.12 23.5515 519.234 28.9072 520.24 34.3097C514.222 34.4208 508.208 34.3097 502.198 33.975C507.443 29.0551 512.343 23.8113 516.899 18.2427Z" fill="#030101"/>
<path opacity="0.294" fill-rule="evenodd" clip-rule="evenodd" d="M322.442 4.18424C321.993 4.69771 321.437 5.14424 320.772 5.52315C320.505 5.37051 320.394 5.14691 320.438 4.85369C320.911 4.2485 321.58 4.02558 322.442 4.18424Z" fill="#AA9797"/>
<path opacity="0.278" fill-rule="evenodd" clip-rule="evenodd" d="M403.299 4.85352C402.843 5.97552 401.951 6.42205 400.626 6.19243C401.304 5.40649 402.194 4.96063 403.299 4.85352Z" fill="#877373"/>
<path opacity="0.569" fill-rule="evenodd" clip-rule="evenodd" d="M125.981 5.52295C125.851 7.13768 124.961 7.80713 123.308 7.53132C124.173 6.86989 125.064 6.20044 125.981 5.52295Z" fill="#7F6C6B"/>
<path opacity="0.447" fill-rule="evenodd" clip-rule="evenodd" d="M150.038 4.85352C150.038 5.30004 150.038 5.7459 150.038 6.19243C149.723 7.58423 149.278 8.92314 148.701 10.2092C148.256 10.4321 147.81 10.6557 147.365 10.8786C147.749 8.59444 148.64 6.58607 150.038 4.85352Z" fill="#5A4646"/>
<path opacity="0.169" fill-rule="evenodd" clip-rule="evenodd" d="M174.094 6.19238C174.54 6.19238 174.985 6.19238 175.431 6.19238C175.104 7.19322 174.659 8.08627 174.094 8.87021C174.094 7.97782 174.094 7.08477 174.094 6.19238Z" fill="#B3A1A1"/>
<path opacity="0.569" fill-rule="evenodd" clip-rule="evenodd" d="M400.626 6.19238C400.012 7.9256 398.898 9.26452 397.285 10.2091C397.285 9.98619 397.285 9.76259 397.285 9.53966C398.175 8.20075 399.289 7.08477 400.626 6.19238Z" fill="#978585"/>
<path opacity="0.271" fill-rule="evenodd" clip-rule="evenodd" d="M65.1716 8.87047C57.0337 8.1421 48.9035 8.1421 40.7811 8.87047C37.8482 10.0601 35.064 11.5108 32.4281 13.2219C26.9115 18.4196 21.3429 23.4405 15.7222 28.2847C15.5759 27.4981 15.7986 26.8286 16.3905 26.2763C22.7616 20.2291 29.444 14.5388 36.4375 9.2052C46.05 6.19733 55.628 6.08553 65.1716 8.87047Z" fill="#6D5958"/>
<path opacity="0.663" fill-rule="evenodd" clip-rule="evenodd" d="M123.308 7.53125C123.094 8.56757 122.425 9.0141 121.303 8.87016C121.831 8.26698 122.5 7.82046 123.308 7.53125Z" fill="#948080"/>
<path opacity="0.498" fill-rule="evenodd" clip-rule="evenodd" d="M381.915 5.52295C382.751 5.5745 383.307 6.02102 383.586 6.86186C383.919 9.08245 384.03 11.3137 383.92 13.5564C383.474 13.7794 383.029 14.0029 382.584 14.2259C383.677 11.1926 383.454 8.29182 381.915 5.52295Z" fill="#4F3B3B"/>
<path opacity="0.392" fill-rule="evenodd" clip-rule="evenodd" d="M458.094 1.50635C468.042 4.55438 470.046 10.3559 464.108 18.9122C465.4 15.4551 465.957 11.8843 465.779 8.20091C464.186 5.00559 461.625 3.22016 458.094 2.84526C458.094 2.39873 458.094 1.95287 458.094 1.50635Z" fill="#756060"/>
<path opacity="0.392" fill-rule="evenodd" clip-rule="evenodd" d="M120.635 8.87012C120.323 10.7426 119.21 11.6356 117.294 11.5479C118.26 10.5016 119.373 9.6092 120.635 8.87012Z" fill="#705C5C"/>
<path opacity="0.271" fill-rule="evenodd" clip-rule="evenodd" d="M397.285 9.53955C397.285 9.76248 397.285 9.98608 397.285 10.209C396.161 12.0185 395.048 13.8033 393.944 15.5647C393.944 15.3417 393.944 15.1181 393.944 14.8952C394.505 12.769 395.619 10.9842 397.285 9.53955Z" fill="#574242"/>
<path opacity="0.078" fill-rule="evenodd" clip-rule="evenodd" d="M148.701 10.209C148.028 11.5774 147.359 12.9163 146.697 14.2257C146.607 13.0261 146.829 11.9107 147.365 10.8784C147.81 10.6555 148.256 10.4319 148.701 10.209Z" fill="#998686"/>
<path opacity="0.498" fill-rule="evenodd" clip-rule="evenodd" d="M65.1719 8.87012C74.3795 10.6743 83.5116 12.7938 92.5695 15.2299C96.7961 15.5647 101.028 15.6758 105.266 15.5647C105.266 15.7876 105.266 16.0112 105.266 16.2341C101.301 16.8199 97.2913 17.0435 93.2378 16.9036C84.7191 14.9883 76.2552 12.8688 67.8448 10.5438C66.6286 10.4099 65.7379 9.85154 65.1719 8.87012Z" fill="#5F4B4B"/>
<path opacity="0.302" fill-rule="evenodd" clip-rule="evenodd" d="M319.101 5.52295C317.153 7.59625 315.259 9.82822 313.421 12.2175C311.998 14.4046 310.773 16.6359 309.746 18.9121C311.035 13.1588 314.154 8.69617 319.101 5.52295Z" fill="#907C7C"/>
<path opacity="0.604" fill-rule="evenodd" clip-rule="evenodd" d="M418.668 14.2258C418.446 14.6723 418.223 15.1182 418 15.5647C417.332 15.5647 416.664 15.5647 415.995 15.5647C415.55 15.5647 415.327 15.3418 415.327 14.8952C416.275 14.2586 417.389 14.0357 418.668 14.2258Z" fill="#4B3737"/>
<path opacity="0.459" fill-rule="evenodd" clip-rule="evenodd" d="M418.668 14.226C427.135 14.1142 435.6 14.226 444.061 14.5607C446.502 15.3694 447.17 16.8202 446.066 18.9122C446.066 18.4657 445.843 18.2428 445.398 18.2428C446.131 17.6423 446.131 17.0846 445.398 16.5691C443.955 15.9586 442.508 15.4009 441.054 14.8955C433.311 15.5067 425.627 15.7296 418 15.5649C418.223 15.1184 418.446 14.6725 418.668 14.226Z" fill="#8C7878"/>
<path opacity="0.271" fill-rule="evenodd" clip-rule="evenodd" d="M117.294 11.5483C117.382 12.1348 117.159 12.5813 116.626 12.8873C113.079 15.2665 109.292 16.3825 105.266 16.2345C105.266 16.0116 105.266 15.788 105.266 15.5651C109.374 14.6392 113.384 13.3003 117.294 11.5483Z" fill="#584343"/>
<path opacity="0.663" fill-rule="evenodd" clip-rule="evenodd" d="M335.807 14.2261C335.807 14.6726 335.807 15.1185 335.807 15.565C333.549 15.575 331.544 16.2445 329.793 17.5734C329.8 16.5578 330.245 15.7765 331.129 15.2303C332.626 14.5762 334.185 14.2415 335.807 14.2261Z" fill="#665352"/>
<path opacity="0.035" fill-rule="evenodd" clip-rule="evenodd" d="M335.807 14.2258C344.745 13.792 353.433 14.2385 361.868 15.5647C353.062 15.5205 344.375 15.5205 335.807 15.5647C335.807 15.1182 335.807 14.6723 335.807 14.2258Z" fill="#877474"/>
<path opacity="0.078" fill-rule="evenodd" clip-rule="evenodd" d="M415.327 14.8955C415.327 15.342 415.55 15.565 415.995 15.565C415.04 16.2592 413.926 16.7057 412.654 16.9039C413.163 15.7243 414.055 15.0548 415.327 14.8955Z" fill="#988585"/>
<path opacity="0.278" fill-rule="evenodd" clip-rule="evenodd" d="M146.696 14.2261C146.549 15.9446 146.103 17.5071 145.36 18.9123C145.14 17.086 145.585 15.5235 146.696 14.2261Z" fill="#958181"/>
<path opacity="0.294" fill-rule="evenodd" clip-rule="evenodd" d="M174.094 8.87012C170.349 20.5334 165.894 31.9141 160.729 43.0124C173.757 43.4589 186.676 43.9048 199.487 44.3513C186.568 44.3513 173.648 44.3513 160.729 44.3513C159.996 43.6142 159.884 42.7218 160.395 41.6735C164.348 32.6974 167.912 23.5486 171.087 14.2258C171.91 12.2763 172.913 10.4915 174.094 8.87012Z" fill="#AE9C9B"/>
<path opacity="0.302" fill-rule="evenodd" clip-rule="evenodd" d="M363.205 16.2344C363.847 17.416 364.07 18.7549 363.873 20.2511C363.427 19.8046 362.982 19.3587 362.536 18.9122C362.759 18.0198 362.982 17.1268 363.205 16.2344Z" fill="#735F5F"/>
<path opacity="0.035" fill-rule="evenodd" clip-rule="evenodd" d="M383.92 13.5566C383.725 15.9439 382.833 17.9523 381.247 19.5817C382.008 17.9054 382.454 16.1207 382.584 14.2261C383.029 14.0032 383.474 13.7796 383.92 13.5566Z" fill="#9B8887"/>
<path opacity="0.278" fill-rule="evenodd" clip-rule="evenodd" d="M151.374 16.9038C152.3 17.8725 152.077 18.542 150.706 18.9122C150.744 18.1697 150.966 17.5003 151.374 16.9038Z" fill="#8D7878"/>
<path opacity="0.604" fill-rule="evenodd" clip-rule="evenodd" d="M504.202 10.209C497.769 17.4371 491.198 24.5775 484.489 31.6316C479.784 36.682 474.772 41.3681 469.454 45.6902C479.036 36.202 488.28 26.3837 497.186 16.2341C499.256 13.8194 501.595 11.811 504.202 10.209Z" fill="#513C3C"/>
<path opacity="0.169" fill-rule="evenodd" clip-rule="evenodd" d="M145.36 18.9121C145.033 19.9129 144.588 20.806 144.023 21.5899C144.023 21.1434 144.023 20.6975 144.023 20.251C144.023 19.3586 144.469 18.9121 145.36 18.9121Z" fill="#B8A6A6"/>
<path opacity="0.078" fill-rule="evenodd" clip-rule="evenodd" d="M150.706 18.9121C147.671 28.7002 144.108 38.2962 140.014 47.6987C143.071 37.8356 146.634 28.2403 150.706 18.9121Z" fill="#A18E8E"/>
<path opacity="0.169" fill-rule="evenodd" clip-rule="evenodd" d="M329.793 17.5732C329.359 18.8686 329.136 20.2076 329.125 21.59C329.125 21.8129 329.125 22.0365 329.125 22.2594C328.692 21.7413 328.47 21.0718 328.456 20.2511C328.35 19.0092 328.795 18.1168 329.793 17.5732Z" fill="#B3A0A0"/>
<path opacity="0.302" fill-rule="evenodd" clip-rule="evenodd" d="M393.943 14.8955C393.943 15.1184 393.943 15.342 393.943 15.565C393.121 17.6985 392.342 19.9298 391.605 22.2595C391.156 22.763 390.6 22.9866 389.934 22.929C391.161 20.0932 392.497 17.4153 393.943 14.8955Z" fill="#8E7B7A"/>
<path opacity="0.294" fill-rule="evenodd" clip-rule="evenodd" d="M362.536 18.9121C362.982 19.3586 363.427 19.8045 363.873 20.251C369.721 20.4539 375.512 20.2309 381.247 19.5816C375.273 20.9017 369.036 21.3483 362.536 20.9205C362.536 20.251 362.536 19.5816 362.536 18.9121Z" fill="#B9A7A6"/>
<path opacity="0.294" fill-rule="evenodd" clip-rule="evenodd" d="M445.398 18.2427C445.843 18.2427 446.066 18.4656 446.066 18.9121C445.703 18.9523 445.481 19.1752 445.398 19.5816C451.517 20.4666 457.532 20.4666 463.44 19.5816C463.44 19.1351 463.663 18.9121 464.108 18.9121C464.108 19.5816 464.108 20.251 464.108 20.9205C457.648 20.9205 451.189 20.9205 444.729 20.9205C444.55 19.85 444.774 18.9577 445.398 18.2427Z" fill="#B5A3A2"/>
<path opacity="0.8" fill-rule="evenodd" clip-rule="evenodd" d="M446.066 18.9121C451.735 19.5769 457.527 19.7998 463.44 19.5816C457.532 20.4666 451.517 20.4666 445.398 19.5816C445.481 19.1752 445.703 18.9523 446.066 18.9121Z" fill="#392929"/>
<path opacity="0.459" fill-rule="evenodd" clip-rule="evenodd" d="M260.296 20.251C260.519 20.251 260.742 20.251 260.965 20.251C261.682 21.4875 261.682 22.8264 260.965 24.2677C260.322 23.0861 260.099 21.7472 260.296 20.251Z" fill="#8D7979"/>
<path opacity="0.169" fill-rule="evenodd" clip-rule="evenodd" d="M309.746 18.9121C309.183 21.1608 308.291 23.1692 307.073 24.9372C307.31 22.5794 308.2 20.571 309.746 18.9121Z" fill="#A49191"/>
<path opacity="0.531" fill-rule="evenodd" clip-rule="evenodd" d="M411.986 18.2427C410.696 20.4278 411.364 21.6549 413.991 21.9247C420.122 22.0385 426.137 22.3732 432.033 22.9289C432.033 23.3754 431.811 23.5983 431.365 23.5983C425.124 23.7095 418.887 23.5983 412.654 23.2636C410.39 21.7091 410.166 20.0355 411.986 18.2427Z" fill="#877474"/>
<path opacity="0.459" fill-rule="evenodd" clip-rule="evenodd" d="M329.125 21.5898C335.903 21.9875 342.585 22.4334 349.172 22.9288C349.172 23.1517 349.172 23.3753 349.172 23.5982C348.726 23.5982 348.281 23.5982 347.835 23.5982C341.817 23.7093 335.803 23.5982 329.793 23.2635C329.421 23.0071 329.199 22.6724 329.125 22.2593C329.125 22.0364 329.125 21.8128 329.125 21.5898Z" fill="#8D7A7A"/>
<path opacity="0.078" fill-rule="evenodd" clip-rule="evenodd" d="M363.205 22.9287C365.013 22.9789 366.795 23.2018 368.55 23.5982C366.798 23.8385 365.016 24.0614 363.205 24.2676C363.205 23.8211 363.205 23.3752 363.205 22.9287Z" fill="#9F8D8D"/>
<path opacity="0.271" fill-rule="evenodd" clip-rule="evenodd" d="M138.678 26.2763C137.341 26.2763 136.005 26.2763 134.668 26.2763C130.272 25.2802 125.371 24.8337 119.967 24.9374C115.418 24.7875 111.186 25.234 107.271 26.2763C107.213 25.6096 107.436 25.0519 107.939 24.6027C109.734 23.8027 111.517 23.6909 113.285 24.268C117.649 22.4979 121.992 22.4979 126.315 24.268C126.8 23.8937 127.356 23.6708 127.986 23.5985C131.687 24.3101 135.251 25.2025 138.678 26.2763Z" fill="#594545"/>
<path opacity="0.604" fill-rule="evenodd" clip-rule="evenodd" d="M363.205 22.9291C363.205 23.3756 363.205 23.8214 363.205 24.268C358.524 24.0852 353.847 23.8623 349.172 23.5985C349.172 23.3756 349.172 23.152 349.172 22.9291C353.437 22.1076 358.115 22.1076 363.205 22.9291Z" fill="#5F4A4A"/>
<path opacity="0.604" fill-rule="evenodd" clip-rule="evenodd" d="M452.08 23.5982C445.175 24.4906 438.27 24.4906 431.365 23.5982C431.81 23.5982 432.033 23.3753 432.033 22.9287C433.985 22.5833 435.99 22.3597 438.047 22.2593C442.707 22.7881 447.384 23.2347 452.08 23.5982Z" fill="#5B4747"/>
<path opacity="0.271" fill-rule="evenodd" clip-rule="evenodd" d="M260.965 20.2511C260.742 20.2511 260.519 20.2511 260.296 20.2511C260.107 19.7229 259.773 19.2764 259.294 18.9122C254.632 24.1413 249.843 29.274 244.927 34.3097C251.266 34.9751 257.725 35.198 264.306 34.9791C257.298 35.6446 250.17 35.8682 242.922 35.6486C248.019 28.5336 254.033 22.2856 260.965 16.9038C260.965 18.0198 260.965 19.1351 260.965 20.2511Z" fill="#574242"/>
<path opacity="0.976" fill-rule="evenodd" clip-rule="evenodd" d="M347.835 23.5985C348.281 23.5985 348.726 23.5985 349.172 23.5985C353.847 23.8623 358.524 24.0852 363.205 24.2679C365.016 24.0618 366.798 23.8388 368.55 23.5985C369.619 23.4191 370.51 23.6427 371.223 24.2679C370.931 24.2244 370.708 24.3356 370.555 24.6027C371.637 24.7607 372.305 25.3183 372.56 26.2763C371.271 26.4564 370.158 26.1217 369.219 25.2721C362.536 25.0492 355.854 24.8256 349.172 24.6027C348.56 24.4166 348.115 24.0818 347.835 23.5985Z" fill="#1F1616"/>
<path opacity="0.271" fill-rule="evenodd" clip-rule="evenodd" d="M144.024 20.251C144.024 20.6975 144.024 21.1434 144.024 21.5899C143.497 24.2202 142.272 26.4515 140.348 28.2844C139.9 27.781 139.343 27.5574 138.678 27.615C138.678 27.1685 138.678 26.7226 138.678 26.2761C139.665 26.4515 140.556 26.2285 141.351 25.6066C141.91 23.5936 142.801 21.8081 144.024 20.251Z" fill="#513D3C"/>
<path opacity="0.078" fill-rule="evenodd" clip-rule="evenodd" d="M538.951 19.5815C539.448 21.5163 539.894 23.5246 540.287 25.6066C539.025 23.941 538.58 21.9327 538.951 19.5815Z" fill="#907D7D"/>
<path opacity="0.078" fill-rule="evenodd" clip-rule="evenodd" d="M134.668 26.2764C136.005 26.2764 137.341 26.2764 138.678 26.2764C138.678 26.7229 138.678 27.1688 138.678 27.6153C137.209 27.3642 135.872 26.9177 134.668 26.2764Z" fill="#9A8888"/>
<path opacity="0.271" fill-rule="evenodd" clip-rule="evenodd" d="M131.995 52.3852C132.68 47.5363 134.35 43.0737 137.007 38.996C137.5 36.5144 138.057 34.0601 138.678 31.632C135.857 30.9518 133.073 30.0595 130.325 28.9542C129.458 29.8138 128.678 29.702 127.986 28.6195C121.736 27.5256 115.499 27.5256 109.275 28.6195C107.02 30.0795 104.57 31.0837 101.925 31.632C103.213 30.3105 104.772 29.3063 106.602 28.6195C109.976 27.9306 113.317 27.1493 116.626 26.2764C124.341 26.9947 131.915 28.4454 139.346 30.6278C140.131 32.5277 140.02 34.4243 139.012 36.3182C136.823 41.8124 134.484 47.1681 131.995 52.3852Z" fill="#64504F"/>
<path opacity="0.271" fill-rule="evenodd" clip-rule="evenodd" d="M260.965 24.9374C261.631 24.9173 262.077 25.252 262.301 25.9416C262.846 28.5638 263.514 31.1305 264.306 33.6403C263.86 33.6403 263.415 33.6403 262.97 33.6403C262.236 30.8159 261.568 27.9151 260.965 24.9374Z" fill="#675252"/>
<path opacity="0.729" fill-rule="evenodd" clip-rule="evenodd" d="M389.934 23.5981C390.485 26.1501 390.819 28.8279 390.936 31.6316C392.141 32.4945 392.92 33.6105 393.275 34.9789C388.688 31.8793 387.575 28.0855 389.934 23.5981Z" fill="#7B6767"/>
<path opacity="0.569" fill-rule="evenodd" clip-rule="evenodd" d="M520.908 32.9705C521.023 33.6346 520.8 34.0805 520.24 34.3094C519.234 28.9069 518.12 23.5513 516.899 18.2425C517.43 16.4671 517.875 16.5789 518.235 18.5772C519.462 23.481 520.352 28.2783 520.908 32.9705Z" fill="#796666"/>
<path opacity="0.078" fill-rule="evenodd" clip-rule="evenodd" d="M540.287 25.6064C540.934 27.017 541.157 28.5795 540.955 30.2926C540.51 30.0697 540.065 29.8461 539.619 29.6232C540.053 28.3278 540.276 26.9889 540.287 25.6064Z" fill="#988585"/>
<path fill-rule="evenodd" clip-rule="evenodd" d="M131.995 52.3849C131.156 53.6194 130.042 54.5118 128.654 55.0628C118.069 51.2683 107.154 49.3717 95.9106 49.3724C91.98 50.313 88.1932 51.6519 84.5506 53.3891C75.2454 59.7275 64.9994 63.1866 53.8118 63.7657C49.9938 63.7543 46.2071 63.4196 42.4518 62.7615C36.4228 59.7416 30.4087 56.729 24.4094 53.7238C24.0178 53.8638 23.6837 54.0874 23.4071 54.3933C20.2348 52.6179 16.7823 51.5026 13.0494 51.046C11.9357 51.046 10.822 51.046 9.70825 51.046C9.07437 50.6095 8.29474 50.3859 7.36943 50.3766C5.60843 50.5366 3.93784 50.9831 2.35767 51.7155C2.35767 51.046 2.35767 50.3766 2.35767 49.7071C3.02316 49.7647 3.58 49.5411 4.02825 49.0377C6.77263 42.2748 11.3389 37.2539 17.7271 33.9749C22.5958 33.1809 27.4962 32.8462 32.4283 32.9707C32.9542 34.0445 33.8451 34.491 35.1012 34.3096C37.8216 34.7675 40.4945 35.437 43.12 36.318C43.5655 36.0951 44.011 35.8715 44.4565 35.6485C51.9014 38.2226 59.6976 40.231 67.8447 41.6736C69.9343 42.3973 72.1615 42.8432 74.5271 43.0126C76.7543 43.0126 78.9822 43.0126 81.2094 43.0126C85.6271 41.8256 89.8591 40.152 93.9059 37.9916C94.9504 37.4835 95.6186 36.7023 95.9106 35.6485C98.5421 35.121 100.547 33.7821 101.925 31.6318C104.57 31.0835 107.02 30.0793 109.275 28.6192C115.499 27.5254 121.736 27.5254 127.986 28.6192C128.678 29.7018 129.458 29.8136 130.325 28.954C133.073 30.0592 135.857 30.9516 138.678 31.6318C138.057 34.0599 137.5 36.5141 137.007 38.9958C134.35 43.0735 132.68 47.5361 131.995 52.3849Z" fill="#020101"/>
<path opacity="0.169" fill-rule="evenodd" clip-rule="evenodd" d="M14.3858 28.9541C13.6758 29.6738 13.6758 30.3432 14.3858 30.9625C15.3846 30.1558 16.2756 30.1558 17.0587 30.9625C15.8526 31.9057 14.5161 32.2405 13.0493 31.9667C12.287 30.4778 12.7325 29.4736 14.3858 28.9541Z" fill="#A79595"/>
<path opacity="0.992" fill-rule="evenodd" clip-rule="evenodd" d="M281.68 23.5981C281.902 23.5981 282.126 23.5981 282.348 23.5981C283.033 25.9238 283.479 28.3781 283.685 30.9622C283.462 30.9622 283.239 30.9622 283.016 30.9622C281.737 28.8306 281.292 26.3757 281.68 23.5981Z" fill="#4F3F3F"/>
<path opacity="0.294" fill-rule="evenodd" clip-rule="evenodd" d="M283.016 30.9624C283.239 30.9624 283.462 30.9624 283.685 30.9624C283.595 32.1621 283.818 33.2774 284.353 34.3097C283.179 33.6054 282.734 32.4894 283.016 30.9624Z" fill="#B3A1A1"/>
<path opacity="0.569" fill-rule="evenodd" clip-rule="evenodd" d="M307.073 30.9624C308.539 32.5256 310.321 33.7527 312.419 34.6444C312.921 35.0936 313.145 35.6513 313.087 36.3181C310.252 35.4873 308.248 33.7018 307.073 30.9624Z" fill="#8D7A7A"/>
<path opacity="0.48" fill-rule="evenodd" clip-rule="evenodd" d="M371.223 24.268C375.729 25.1209 377.957 27.9105 377.906 32.6362C377.349 35.4258 376.792 38.2147 376.235 41.0044C375.829 42.0527 375.272 42.9458 374.565 43.6822C374.914 41.4127 375.471 39.1814 376.235 36.9876C376.681 34.3098 376.681 31.632 376.235 28.9542C375.266 27.6393 374.041 26.747 372.56 26.2763C372.305 25.3183 371.637 24.7607 370.555 24.6027C370.708 24.3356 370.931 24.2245 371.223 24.268Z" fill="#8A7676"/>
<path opacity="0.569" fill-rule="evenodd" clip-rule="evenodd" d="M452.748 23.5981C457.579 24.8674 460.252 27.9918 460.767 32.9705C460.069 38.7145 458.065 43.8465 454.753 48.368C455.78 45.1901 457.005 42.0664 458.428 38.9956C459.681 35.3973 459.681 31.8264 458.428 28.2843C456.379 26.7774 454.486 25.2149 452.748 23.5981Z" fill="#958281"/>
<path opacity="0.604" fill-rule="evenodd" clip-rule="evenodd" d="M15.7224 28.2847C14.814 29.2949 15.1481 29.7415 16.7248 29.6236C24.8743 27.8456 33.0045 27.9574 41.1154 29.9584C41.6665 31.0884 42.3347 31.2002 43.1201 30.2931C48.6238 31.6139 53.9697 33.1758 59.1577 34.9793C58.044 34.9793 56.9303 34.9793 55.8166 34.9793C46.433 32.2044 37.0777 30.419 27.7507 29.6236C23.948 29.8198 20.384 30.2657 17.0589 30.9626C16.2758 30.1559 15.3848 30.1559 14.386 30.9626C13.676 30.3433 13.676 29.6739 14.386 28.9542C14.6143 28.3932 15.0598 28.1696 15.7224 28.2847Z" fill="#624E4D"/>
<path opacity="0.078" fill-rule="evenodd" clip-rule="evenodd" d="M32.4282 32.9709C34.1384 32.7688 35.6976 32.9924 37.1059 33.6404C36.2432 33.4817 35.5749 33.7047 35.1012 34.3099C33.8451 34.4913 32.9541 34.0448 32.4282 32.9709Z" fill="#8E7B7B"/>
<path opacity="0.729" fill-rule="evenodd" clip-rule="evenodd" d="M539.619 29.6235C540.065 29.8465 540.51 30.0701 540.955 30.293C541.598 31.4746 541.821 32.8135 541.624 34.3097C541.064 34.5387 540.84 34.9845 540.955 35.6486C540.391 33.744 539.946 31.7357 539.619 29.6235Z" fill="#4C3838"/>
<path opacity="0.153" fill-rule="evenodd" clip-rule="evenodd" d="M107.27 26.2762C101.987 29.1522 96.8641 32.3876 91.9011 35.9833C90.024 37.1488 88.0193 37.9301 85.887 38.3264C90.9061 34.9041 96.0294 31.445 101.256 27.9498C103.065 26.6725 105.069 26.1148 107.27 26.2762Z" fill="#655151"/>
<path opacity="0.078" fill-rule="evenodd" clip-rule="evenodd" d="M262.969 33.6401C263.415 33.6401 263.86 33.6401 264.306 33.6401C264.306 34.0867 264.306 34.5325 264.306 34.979C257.725 35.198 251.266 34.975 244.927 34.3096C251.063 34.5285 257.077 34.3049 262.969 33.6401Z" fill="#A49292"/>
<path opacity="0.169" fill-rule="evenodd" clip-rule="evenodd" d="M55.8164 34.979C56.9302 34.979 58.0438 34.979 59.1576 34.979C59.3801 34.979 59.6033 34.979 59.8258 34.979C60.0483 35.4255 60.2715 35.8714 60.4941 36.3179C58.8169 36.0321 57.2577 35.5862 55.8164 34.979Z" fill="#A08D8D"/>
<path opacity="0.498" fill-rule="evenodd" clip-rule="evenodd" d="M101.925 31.6318C100.547 33.7821 98.5422 35.121 95.9106 35.6486C97.5645 33.8136 99.5692 32.4747 101.925 31.6318Z" fill="#503D3C"/>
<path opacity="0.498" fill-rule="evenodd" clip-rule="evenodd" d="M516.899 18.2427C512.343 23.8112 507.443 29.0551 502.198 33.9749C508.208 34.3096 514.222 34.4207 520.24 34.3096C520.8 34.0807 521.023 33.6348 520.908 32.9707C521.532 33.6857 521.755 34.5781 521.576 35.6485C514.435 35.8708 507.307 35.6479 500.193 34.9791C503.527 31.526 506.757 27.9558 509.882 24.2678C511.952 21.8531 514.291 19.8447 516.899 18.2427Z" fill="#5E4A4A"/>
<path opacity="0.741" fill-rule="evenodd" clip-rule="evenodd" d="M313.755 36.3181C325.671 35.8321 337.699 35.8321 349.84 36.3181C349.84 36.5411 349.84 36.7647 349.84 36.9876C344.371 36.7693 339.025 36.9929 333.802 37.657C330.409 36.8698 326.957 36.8698 323.445 37.657C320.112 36.9796 316.881 36.533 313.755 36.3181Z" fill="#6F5A5A"/>
<path opacity="0.459" fill-rule="evenodd" clip-rule="evenodd" d="M393.275 34.979C395.717 35.2749 398.168 35.4985 400.626 35.6485C400.849 36.095 401.072 36.5408 401.294 36.9874C400.234 36.3762 399.232 36.3762 398.287 36.9874C396.445 36.6058 394.775 35.9363 393.275 34.979Z" fill="#8C7777"/>
<path opacity="0.078" fill-rule="evenodd" clip-rule="evenodd" d="M541.624 34.3096C541.662 35.052 541.884 35.7215 542.292 36.3179C541.846 36.3179 541.401 36.3179 540.955 36.3179C540.955 36.095 540.955 35.8714 540.955 35.6485C540.84 34.9844 541.064 34.5385 541.624 34.3096Z" fill="#AB9898"/>
<path opacity="0.078" fill-rule="evenodd" clip-rule="evenodd" d="M284.353 34.3096C285 35.7201 285.223 37.2826 285.021 38.9958C284.355 39.0158 283.909 38.6811 283.685 37.9916C284.174 36.8093 284.398 35.5822 284.353 34.3096Z" fill="#968484"/>
<path opacity="0.271" fill-rule="evenodd" clip-rule="evenodd" d="M400.626 35.6484C405.306 35.8312 409.984 36.0541 414.659 36.3179C414.185 36.9231 413.517 37.146 412.654 36.9873C409.006 37.6461 405.22 37.6461 401.294 36.9873C401.072 36.5408 400.848 36.095 400.626 35.6484Z" fill="#5F4A4A"/>
<path opacity="0.569" fill-rule="evenodd" clip-rule="evenodd" d="M414.659 36.3178C420.572 36.0995 426.364 36.3225 432.033 36.9872C426.342 36.769 420.773 36.9919 415.327 37.6567C414.258 37.8361 413.368 37.6125 412.654 36.9872C413.517 37.1459 414.185 36.923 414.659 36.3178Z" fill="#816E6E"/>
<path opacity="0.153" fill-rule="evenodd" clip-rule="evenodd" d="M35.1011 34.3097C35.5749 33.7046 36.2431 33.4816 37.1058 33.6403C48.2727 35.9225 59.4101 38.3774 70.5175 41.0043C69.8039 41.6296 68.9131 41.8532 67.8446 41.6738C59.6975 40.2311 51.9013 38.2227 44.4564 35.6487C44.0109 35.8716 43.5654 36.0952 43.1199 36.3181C40.4944 35.4371 37.8215 34.7677 35.1011 34.3097Z" fill="#5E4A4A"/>
<path opacity="0.392" fill-rule="evenodd" clip-rule="evenodd" d="M349.84 36.9876C349.84 36.7646 349.84 36.541 349.84 36.3181C351.88 36.0577 353.662 36.5035 355.186 37.657C353.378 37.6068 351.596 37.3839 349.84 36.9876Z" fill="#443131"/>
<path opacity="0.169" fill-rule="evenodd" clip-rule="evenodd" d="M415.327 37.6567C420.773 36.9919 426.342 36.769 432.033 36.9872C432.701 36.9872 433.369 36.9872 434.038 36.9872C434.483 37.4337 434.928 37.8796 435.374 38.3261C428.83 37.8562 422.147 37.6332 415.327 37.6567Z" fill="#AE9C9C"/>
<path opacity="0.604" fill-rule="evenodd" clip-rule="evenodd" d="M59.8259 34.979C65.6469 35.7643 71.4385 36.7685 77.2 37.9916C80.0875 38.3256 82.983 38.4374 85.8871 38.3263C84.5433 39.2588 82.9836 39.7054 81.2095 39.6652C74.2444 38.8598 67.3396 37.7439 60.4942 36.3179C60.2716 35.8714 60.0485 35.4255 59.8259 34.979Z" fill="#624F4E"/>
<path opacity="0.078" fill-rule="evenodd" clip-rule="evenodd" d="M333.802 37.6571C339.025 36.993 344.371 36.7694 349.84 36.9876C351.595 37.3839 353.378 37.6069 355.186 37.6571C356.483 38.6686 356.817 40.0075 356.188 41.6738C356.113 43.6467 355.111 44.5391 353.181 44.3516C353.94 43.6996 354.608 42.9183 355.186 42.0085C355.573 41.0546 355.573 39.9386 355.186 38.6612C353.319 38.9511 351.426 38.6164 349.506 37.6571C344.568 37.7943 339.333 37.7943 333.802 37.6571Z" fill="#A39090"/>
<path opacity="0.294" fill-rule="evenodd" clip-rule="evenodd" d="M319.769 43.6819C319.209 43.453 318.986 43.0071 319.101 42.343C319.127 41.618 319.35 40.9485 319.769 40.3346C313.755 39.4422 307.741 39.4422 301.727 40.3346C301.485 40.7919 301.262 41.2384 301.059 41.6735C300.613 41.6735 300.391 41.4506 300.391 41.0041C300.594 40.5689 300.816 40.1224 301.059 39.6652C307.503 38.9971 313.962 38.7735 320.438 38.9957C320.472 40.6044 320.25 42.1663 319.769 43.6819Z" fill="#B5A3A2"/>
<path opacity="0.294" fill-rule="evenodd" clip-rule="evenodd" d="M402.631 43.0125C401.995 42.0625 401.773 40.9472 401.962 39.6652C396.049 39.447 390.258 39.6699 384.588 40.3347C383.92 41.2271 383.252 42.1201 382.584 43.0125C382.565 41.6187 383.011 40.3909 383.92 39.3305C390.376 38.9958 396.836 38.8846 403.299 38.9958C403.076 40.3347 402.853 41.6736 402.631 43.0125Z" fill="#B2A09F"/>
<path opacity="0.498" fill-rule="evenodd" clip-rule="evenodd" d="M32.4283 32.9706C27.4962 32.8461 22.5958 33.1808 17.7271 33.9748C11.3389 37.2538 6.77263 42.2747 4.02825 49.0376C3.58 49.541 3.02316 49.7646 2.35767 49.707C5.23876 42.7132 9.91641 37.2464 16.3906 33.3054C21.8256 32.2523 27.1715 32.1405 32.4283 32.9706Z" fill="#544040"/>
<path opacity="0.3" fill-rule="evenodd" clip-rule="evenodd" d="M434.038 36.9873C439.615 36.8969 440.729 38.9053 437.379 43.0124C438.835 39.9061 438.167 38.3443 435.374 38.3262C434.928 37.8797 434.483 37.4338 434.038 36.9873Z" fill="#634F4F"/>
<path opacity="0.153" fill-rule="evenodd" clip-rule="evenodd" d="M285.021 38.9956C285.526 40.7047 285.971 42.4902 286.358 44.3513C285.109 42.922 284.663 41.1365 285.021 38.9956Z" fill="#7D6A6A"/>
<path opacity="0.498" fill-rule="evenodd" clip-rule="evenodd" d="M95.9106 35.6484C95.6186 36.7022 94.9504 37.4834 93.9059 37.9915C89.8591 40.1519 85.6272 41.8255 81.2095 43.0125C81.2095 42.5659 81.2095 42.1201 81.2095 41.6735C86.4037 40.4116 91.3038 38.4032 95.9106 35.6484Z" fill="#5A4645"/>
<path opacity="0.498" fill-rule="evenodd" clip-rule="evenodd" d="M70.5177 41.0044C71.8976 41.0158 73.234 41.2387 74.5271 41.6739C74.5271 42.1204 74.5271 42.5662 74.5271 43.0128C72.1615 42.8434 69.9343 42.3975 67.8447 41.6739C68.9132 41.8533 69.804 41.6297 70.5177 41.0044Z" fill="#4E3B3A"/>
<path opacity="0.569" fill-rule="evenodd" clip-rule="evenodd" d="M74.5271 41.6738C76.7543 41.6738 78.9822 41.6738 81.2095 41.6738C81.2095 42.1204 81.2095 42.5662 81.2095 43.0127C78.9822 43.0127 76.7543 43.0127 74.5271 43.0127C74.5271 42.5662 74.5271 42.1204 74.5271 41.6738Z" fill="#8C7A7A"/>
<path opacity="0.663" fill-rule="evenodd" clip-rule="evenodd" d="M160.729 44.3516C173.648 44.3516 186.568 44.3516 199.487 44.3516C200.299 45.2078 200.077 45.8773 198.819 46.3599C198.596 46.3599 198.373 46.3599 198.151 46.3599C198.225 45.9469 198.447 45.6121 198.819 45.3557C186.008 45.2433 173.312 44.9085 160.729 44.3516Z" fill="#655050"/>
<path opacity="0.271" fill-rule="evenodd" clip-rule="evenodd" d="M319.101 42.3433C318.986 43.0074 319.209 43.4532 319.769 43.6822C320.219 44.1956 320.775 44.6422 321.44 45.0211C331.9 45.2206 342.48 44.9977 353.181 44.3516C353.239 45.0184 353.016 45.5761 352.513 46.0253C342.044 46.4718 331.575 46.4718 321.106 46.0253C318.936 45.3618 318.268 44.1341 319.101 42.3433Z" fill="#553F3F"/>
<path opacity="0.271" fill-rule="evenodd" clip-rule="evenodd" d="M384.588 40.3349C390.257 39.6701 396.049 39.4472 401.962 39.6654C401.772 40.9474 401.995 42.0628 402.63 43.0127C402.604 43.8536 402.939 44.523 403.633 45.0211C413.408 45.1088 423.32 44.9977 433.369 44.6864C434.8 44.3028 436.136 43.7451 437.379 43.0127C436.898 44.6114 435.785 45.6156 434.038 46.0253C423.791 46.4718 413.545 46.4718 403.299 46.0253C401.545 44.5839 400.877 42.6867 401.294 40.3349C395.726 40.3349 390.157 40.3349 384.588 40.3349Z" fill="#4F3A3A"/>
<path opacity="0.459" fill-rule="evenodd" clip-rule="evenodd" d="M286.358 45.021C286.993 45.971 287.216 47.0863 287.026 48.3683C286.58 48.3683 286.135 48.3683 285.689 48.3683C285.776 47.2195 285.998 46.1035 286.358 45.021Z" fill="#8E7A7A"/>
<path opacity="0.3" fill-rule="evenodd" clip-rule="evenodd" d="M540.955 36.3179C541.401 36.3179 541.846 36.3179 542.292 36.3179C543.209 41.8141 544.323 47.3934 545.633 53.0543C545.187 53.0543 544.742 53.0543 544.296 53.0543C543.077 47.5741 541.964 41.9955 540.955 36.3179Z" fill="#695655"/>
<path opacity="0.604" fill-rule="evenodd" clip-rule="evenodd" d="M468.786 46.3599C466.136 49.9086 463.24 53.2559 460.099 56.4017C460.099 55.9552 460.099 55.5093 460.099 55.0628C462.772 51.9384 465.667 49.0377 468.786 46.3599Z" fill="#4D3A39"/>
<path opacity="0.078" fill-rule="evenodd" clip-rule="evenodd" d="M140.014 47.6987C139.907 48.8053 139.462 49.6977 138.678 50.3766C138.448 49.049 138.894 48.156 140.014 47.6987Z" fill="#A79595"/>
<path opacity="0.271" fill-rule="evenodd" clip-rule="evenodd" d="M230.894 26.2764C221.847 36.744 212.269 46.7858 202.16 56.4019C202.16 56.179 202.16 55.9554 202.16 55.7324C211.272 45.4877 220.85 35.6695 230.894 26.2764Z" fill="#574343"/>
<path opacity="0.392" fill-rule="evenodd" clip-rule="evenodd" d="M266.311 50.3767C265.865 50.3767 265.42 50.3767 264.974 50.3767C253.506 49.5988 241.923 49.487 230.226 50.0419C227.64 52.7445 224.968 55.3106 222.207 57.7407C221.761 57.7407 221.316 57.7407 220.871 57.7407C223.604 55.0937 226.277 52.304 228.889 49.3725C241.14 48.926 253.392 48.926 265.642 49.3725C266.014 49.6289 266.236 49.9636 266.311 50.3767Z" fill="#513C3C"/>
<path opacity="0.392" fill-rule="evenodd" clip-rule="evenodd" d="M524.918 56.4018C524.472 56.1789 524.027 55.9553 523.581 55.7323C522.93 53.8505 522.484 51.8421 522.245 49.7072C510.659 49.5954 499.077 49.7072 487.496 50.0419C484.911 52.7445 482.238 55.3106 479.478 57.7407C479.255 57.7407 479.032 57.7407 478.809 57.7407C481.328 54.8814 484.001 52.0918 486.828 49.3725C498.856 48.926 510.885 48.926 522.913 49.3725C523.782 51.6513 524.45 53.9944 524.918 56.4018Z" fill="#523D3D"/>
<path opacity="0.035" fill-rule="evenodd" clip-rule="evenodd" d="M454.753 48.3682C454.594 49.6428 453.926 50.5359 452.748 51.046C452.907 49.7713 453.576 48.8783 454.753 48.3682Z" fill="#927F7F"/>
<path opacity="0.302" fill-rule="evenodd" clip-rule="evenodd" d="M264.974 50.3765C265.42 50.3765 265.865 50.3765 266.311 50.3765C266.224 51.5253 266.002 52.6412 265.642 53.7237C265.007 52.7738 264.784 51.6585 264.974 50.3765Z" fill="#887676"/>
<path opacity="0.271" fill-rule="evenodd" clip-rule="evenodd" d="M9.7082 51.0459C9.7082 51.2688 9.7082 51.4924 9.7082 51.7154C7.33309 51.4811 5.10566 51.9269 3.02584 53.0543C2.49293 52.7483 2.27014 52.3018 2.35761 51.7154C3.93778 50.983 5.60837 50.5365 7.36937 50.3765C8.29468 50.3858 9.07431 50.6094 9.7082 51.0459Z" fill="#4E3939"/>
<path opacity="0.035" fill-rule="evenodd" clip-rule="evenodd" d="M300.39 41.0044C300.39 41.4509 300.613 41.6739 301.059 41.6739C299.792 44.6268 298.678 47.6394 297.718 50.7115C298.731 51.9815 299.176 53.4322 299.054 55.063C297.891 54.0501 297.222 52.7112 297.049 51.0462C297.274 47.306 298.388 43.9587 300.39 41.0044Z" fill="#917E7E"/>
<path opacity="0.035" fill-rule="evenodd" clip-rule="evenodd" d="M9.70825 51.0459C10.822 51.0459 11.9357 51.0459 13.0494 51.0459C13.0494 51.4924 13.0494 51.9383 13.0494 52.3848C11.9245 52.3051 10.8108 52.0822 9.70825 51.7154C9.70825 51.4924 9.70825 51.2688 9.70825 51.0459Z" fill="#8B7878"/>
<path opacity="0.153" fill-rule="evenodd" clip-rule="evenodd" d="M131.995 52.3851C131.967 54.4504 131.076 56.0129 129.322 57.0713C121.639 53.9342 113.843 51.9259 105.934 51.0462C102.593 50.1538 99.2517 50.1538 95.9105 51.0462C93.1219 51.4104 90.449 52.191 87.8917 53.3893C81.8415 56.8664 75.6042 59.9908 69.1811 62.7617C59.4015 66.0936 50.0458 66.3165 41.1152 63.4311C36.0443 60.9468 31.0325 58.3808 26.0799 55.7324C25.8572 55.9553 25.6344 56.1789 25.4117 56.4018C21.5567 54.0728 17.4359 52.7339 13.0493 52.3851C13.0493 51.9386 13.0493 51.4927 13.0493 51.0462C16.7822 51.5028 20.2347 52.6181 23.407 54.3935C23.6836 54.0875 24.0177 53.8639 24.4093 53.724C30.4086 56.7292 36.4227 59.7418 42.4517 62.7617C46.207 63.4198 49.9937 63.7545 53.8117 63.7659C64.9993 63.1868 75.2453 59.7277 84.5505 53.3893C88.193 51.6521 91.9799 50.3131 95.9105 49.3726C107.154 49.3719 118.069 51.2685 128.654 55.0629C130.042 54.512 131.156 53.6196 131.995 52.3851Z" fill="#574343"/>
<path opacity="0.035" fill-rule="evenodd" clip-rule="evenodd" d="M95.9106 51.0462C99.2518 50.1539 102.593 50.1539 105.934 51.0462C102.593 51.0462 99.2518 51.0462 95.9106 51.0462Z" fill="#887575"/>
<path opacity="0.153" fill-rule="evenodd" clip-rule="evenodd" d="M452.748 51.0459C451.586 52.8822 450.026 54.2211 448.071 55.0626C449.216 53.2464 450.775 51.9075 452.748 51.0459Z" fill="#6D5A59"/>
<path opacity="0.278" fill-rule="evenodd" clip-rule="evenodd" d="M374.565 43.6821C372.462 50.2542 368.23 54.9404 361.868 57.7407C361.811 57.0739 362.034 56.5163 362.536 56.0671C365.192 54.8513 367.531 53.1777 369.553 51.0461C371.239 48.5471 372.909 46.0928 374.565 43.6821Z" fill="#8A7676"/>
<path opacity="0.271" fill-rule="evenodd" clip-rule="evenodd" d="M285.689 48.3682C286.135 48.3682 286.58 48.3682 287.026 48.3682C288.024 51.8969 288.246 55.4677 287.694 59.0795C286.875 59.6572 285.983 59.6572 285.021 59.0795C285.021 58.6329 285.021 58.1871 285.021 57.7405C285.689 57.7405 286.358 57.7405 287.026 57.7405C286.721 54.5934 286.275 51.4691 285.689 48.3682Z" fill="#564241"/>
<path opacity="0.498" fill-rule="evenodd" clip-rule="evenodd" d="M299.054 55.063C300.159 55.1701 301.05 55.616 301.727 56.4019C301.281 56.4019 300.836 56.4019 300.391 56.4019C299.722 56.179 299.277 55.7324 299.054 55.063Z" fill="#5C4A4A"/>
<path opacity="0.569" fill-rule="evenodd" clip-rule="evenodd" d="M201.492 57.7407C207.952 57.7407 214.411 57.7407 220.871 57.7407C221.316 57.7407 221.761 57.7407 222.207 57.7407C221.984 58.4102 221.539 58.8567 220.871 59.0796C214.411 58.6331 207.952 58.1872 201.492 57.7407Z" fill="#816E6E"/>
<path opacity="0.459" fill-rule="evenodd" clip-rule="evenodd" d="M448.07 55.063C447.029 56.4849 445.692 57.6009 444.061 58.4103C443.121 57.6283 442.342 57.8513 441.722 59.0797C441.5 58.8568 441.277 58.6332 441.054 58.4103C439.659 59.0108 438.211 59.4573 436.71 59.7492C436.71 59.5263 436.71 59.3027 436.71 59.0797C437.519 58.7905 438.187 58.344 438.715 57.7408C442.033 57.5252 445.152 56.6322 448.07 55.063Z" fill="#917E7E"/>
<path opacity="0.569" fill-rule="evenodd" clip-rule="evenodd" d="M459.431 57.0713C465.546 57.7367 471.783 57.9597 478.141 57.7407C471.788 58.6264 465.328 58.6264 458.762 57.7407C458.845 57.3344 459.068 57.1115 459.431 57.0713Z" fill="#816F6F"/>
<path opacity="0.078" fill-rule="evenodd" clip-rule="evenodd" d="M198.151 46.3599C198.373 46.3599 198.596 46.3599 198.819 46.3599C197.723 50.6578 196.163 54.7863 194.141 58.7448C174.764 59.0795 155.385 59.1913 136.005 59.0795C135.846 55.7684 136.737 52.8676 138.678 50.3766C137.89 52.7525 137.221 55.2074 136.673 57.7406C155.829 57.7406 174.985 57.7406 194.141 57.7406C195.375 53.9147 196.711 50.1209 198.151 46.3599Z" fill="#998786"/>
<path opacity="0.078" fill-rule="evenodd" clip-rule="evenodd" d="M202.16 55.7324C202.16 55.9554 202.16 56.1789 202.16 56.4019C201.937 56.8484 201.714 57.2943 201.492 57.7408C207.952 58.1873 214.411 58.6332 220.871 59.0797C213.951 59.302 207.046 59.079 200.155 58.4102C200.513 57.2313 201.181 56.3389 202.16 55.7324Z" fill="#A79595"/>
<path opacity="0.078" fill-rule="evenodd" clip-rule="evenodd" d="M265.642 53.7236C266.832 54.7211 267.277 56.06 266.979 57.7404C272.993 57.7404 279.007 57.7404 285.021 57.7404C285.021 58.1869 285.021 58.6328 285.021 59.0793C279.226 59.1904 273.434 59.0793 267.647 58.7446C266.444 57.3293 265.776 55.6557 265.642 53.7236Z" fill="#968484"/>
<path opacity="0.035" fill-rule="evenodd" clip-rule="evenodd" d="M300.391 56.4019C300.836 56.4019 301.281 56.4019 301.727 56.4019C303.834 57.1302 305.839 58.0233 307.741 59.0797C304.767 59.4077 302.317 58.5147 300.391 56.4019Z" fill="#978484"/>
<path opacity="0.741" fill-rule="evenodd" clip-rule="evenodd" d="M355.854 57.7407C355.575 58.2241 355.13 58.5588 354.518 58.7449C339.925 59.2999 325.447 59.1888 311.082 58.4102C326.028 58.6124 340.952 58.3888 355.854 57.7407Z" fill="#564141"/>
<path opacity="0.078" fill-rule="evenodd" clip-rule="evenodd" d="M381.915 44.3516C381.738 46.4711 381.515 48.5912 381.247 50.7114C381.501 55.7611 384.174 58.1042 389.266 57.7407C389.488 58.1872 389.712 58.6331 389.934 59.0796C384.717 59.2557 381.153 56.9126 379.242 52.0503C379.752 49.503 380.643 46.937 381.915 44.3516Z" fill="#9B8888"/>
<path opacity="0.741" fill-rule="evenodd" clip-rule="evenodd" d="M389.266 57.7407C405.749 58.6331 422.232 58.6331 438.715 57.7407C438.187 58.3439 437.519 58.7904 436.711 59.0796C421.137 59.0669 405.767 59.0669 390.602 59.0796C390.38 59.0796 390.157 59.0796 389.934 59.0796C389.712 58.6331 389.488 58.1872 389.266 57.7407Z" fill="#564141"/>
<path opacity="0.078" fill-rule="evenodd" clip-rule="evenodd" d="M460.099 55.063C460.099 55.5095 460.099 55.9554 460.099 56.4019C460.099 56.8484 459.876 57.0714 459.43 57.0714C459.068 57.1115 458.845 57.3345 458.762 57.7408C465.328 58.6265 471.787 58.6265 478.141 57.7408C478.364 57.7408 478.587 57.7408 478.809 57.7408C479.032 57.7408 479.255 57.7408 479.478 57.7408C479.403 58.1539 479.181 58.4886 478.809 58.745C471.685 59.0797 464.557 59.1915 457.426 59.0797C457.507 57.2106 458.399 55.8717 460.099 55.063Z" fill="#A59393"/>
<path opacity="0.078" fill-rule="evenodd" clip-rule="evenodd" d="M544.296 53.0542C544.742 53.0542 545.187 53.0542 545.633 53.0542C545.818 55.0278 545.595 56.9243 544.965 58.7446C537.814 59.2554 530.686 59.1436 523.581 58.4098C523.581 57.5175 523.581 56.6244 523.581 55.732C524.027 55.955 524.472 56.1786 524.918 56.4015C531.34 57.723 538.022 58.1695 544.965 57.7404C544.848 56.1598 544.626 54.598 544.296 53.0542Z" fill="#9E8B8B"/>
<path opacity="0.169" fill-rule="evenodd" clip-rule="evenodd" d="M361.2 57.7405C359.344 58.7233 357.339 59.281 355.186 59.4142C339.48 59.9698 323.888 59.858 308.409 59.0795C309.217 58.5881 310.107 58.3651 311.082 58.41C325.447 59.1886 339.925 59.2997 354.518 58.7447C355.13 58.5586 355.575 58.2239 355.854 57.7405C357.801 57.5364 359.584 57.5364 361.2 57.7405Z" fill="#BEADAD"/>
<path opacity="0.169" fill-rule="evenodd" clip-rule="evenodd" d="M436.711 59.0794C436.711 59.3023 436.711 59.5259 436.711 59.7488C423.693 60.1646 411.108 60.3882 398.955 60.4183C396.103 59.9898 393.319 59.5433 390.602 59.0794C405.767 59.0666 421.137 59.0666 436.711 59.0794Z" fill="#B9A8A8"/>
<path opacity="0.153" fill-rule="evenodd" clip-rule="evenodd" d="M530.932 63.096C530.486 63.096 530.263 63.319 530.263 63.7655C524.957 63.3765 519.834 63.8231 514.894 65.1044C514.894 64.435 514.894 63.7655 514.894 63.096C520.24 62.2037 525.586 62.2037 530.932 63.096Z" fill="#534140"/>
<path opacity="0.8" fill-rule="evenodd" clip-rule="evenodd" d="M548.974 63.7659C548.308 63.8235 547.752 63.5999 547.303 63.0965C543.46 63.6387 539.563 63.9734 535.609 64.1006C533.23 64.588 531.893 66.038 531.6 68.4521C531.377 68.4521 531.154 68.4521 530.932 68.4521C530.932 67.7826 530.932 67.1132 530.932 66.4437C533.609 62.7885 537.284 61.4496 541.958 62.427C544.565 62.435 546.904 62.8816 548.974 63.7659Z" fill="#574343"/>
<path fill-rule="evenodd" clip-rule="evenodd" d="M548.974 63.7656C548.974 64.8816 548.974 65.9969 548.974 67.1129C545.418 66.7916 541.854 66.5687 538.282 66.4435C537.614 66.4435 536.946 66.4435 536.278 66.4435C536.278 67.3359 536.278 68.2289 536.278 69.1213C536.946 69.1213 537.614 69.1213 538.282 69.1213C540.091 69.0711 541.873 68.8482 543.628 68.4518C544.576 69.0885 545.69 69.3114 546.969 69.1213C547.192 69.1213 547.415 69.1213 547.638 69.1213C547.928 71.3559 547.483 73.3643 546.301 75.1464C545.187 75.8159 544.296 76.7082 543.628 77.8242C538.951 77.8242 534.273 77.8242 529.595 77.8242C529.595 76.2624 529.595 74.6999 529.595 73.138C530.458 73.2967 531.126 73.0738 531.6 72.4686C532.733 72.5924 533.624 73.1508 534.273 74.1422C536.946 74.5887 539.619 74.5887 542.292 74.1422C543.182 73.4728 543.182 72.8033 542.292 72.1338C538.493 71.9049 534.93 71.5702 531.6 71.1297C531.6 70.2373 531.6 69.3442 531.6 68.4518C531.893 66.0378 533.23 64.5877 535.609 64.1004C539.563 63.9732 543.46 63.6385 547.303 63.0962C547.752 63.5996 548.308 63.8232 548.974 63.7656Z" fill="#0C0606"/>
<path fill-rule="evenodd" clip-rule="evenodd" d="M472.795 65.7742C470.559 66.9953 468.109 67.4412 465.445 67.1132C464.331 70.6834 463.218 74.2542 462.104 77.8245C460.784 78.04 459.67 78.04 458.762 77.8245C459.377 74.4142 460.268 71.067 461.435 67.7826C459.937 67.1306 458.378 66.907 456.758 67.1132C456.615 66.0126 456.838 65.0084 457.426 64.1006C462.341 63.5443 467.242 63.6554 472.127 64.4353C472.37 64.8926 472.592 65.3391 472.795 65.7742Z" fill="#0C0505"/>
<path fill-rule="evenodd" clip-rule="evenodd" d="M482.151 75.8159C481.116 76.0308 480.67 76.7002 480.814 77.8243C479.255 77.8243 477.696 77.8243 476.137 77.8243C475.957 76.7538 476.181 75.8614 476.805 75.1464C477.772 74.722 478.217 73.9407 478.141 72.8033C478.066 71.1973 477.397 69.9702 476.137 69.1213C475.485 67.4028 475.039 65.6181 474.8 63.7657C476.417 63.6264 477.976 63.85 479.478 64.4351C479.961 66.1556 480.741 67.7175 481.817 69.1213C483.933 67.4477 486.048 65.774 488.165 64.1004C489.554 63.5595 490.89 63.6713 492.174 64.4351C488.847 66.9864 485.617 69.6643 482.485 72.4686C482.155 73.5625 482.044 74.6785 482.151 75.8159Z" fill="#0D0606"/>
<path opacity="0.271" fill-rule="evenodd" clip-rule="evenodd" d="M510.885 63.7657C510.885 63.9887 510.885 64.2123 510.885 64.4352C505.794 63.6988 500.671 63.587 495.515 64.1005C493.596 68.559 492.037 73.1334 490.838 77.8243C490.088 76.6273 489.976 75.2884 490.504 73.8076C491.763 70.1303 493.21 66.56 494.847 63.0963C499.714 62.3385 504.615 62.2267 509.548 62.7616C510.16 62.9477 510.605 63.2824 510.885 63.7657Z" fill="#594545"/>
<path fill-rule="evenodd" clip-rule="evenodd" d="M510.885 64.4352C510.885 66.2206 510.885 68.0054 510.885 69.7908C510.662 70.4603 510.216 70.9068 509.548 71.1298C508.88 71.1298 508.212 71.1298 507.544 71.1298C507.491 72.0871 507.713 72.9801 508.212 73.8076C507.378 75.028 506.933 76.3669 506.875 77.8243C505.761 77.8243 504.648 77.8243 503.534 77.8243C503.534 76.7083 503.534 75.593 503.534 74.477C500.996 73.819 498.323 73.5954 495.515 73.8076C495.293 75.1465 495.07 76.4854 494.847 77.8243C493.511 77.8243 492.174 77.8243 490.838 77.8243C492.036 73.1334 493.596 68.5591 495.515 64.1005C500.671 63.587 505.794 63.6988 510.885 64.4352Z" fill="#0E0707"/>
<path fill-rule="evenodd" clip-rule="evenodd" d="M530.264 63.7657C530.238 64.4907 530.014 65.1602 529.595 65.7741C526.052 66.329 522.488 66.6638 518.904 66.7783C517.919 67.2536 517.474 68.0342 517.567 69.1213C520.375 69.3336 523.048 69.11 525.586 68.4519C525.808 68.4519 526.032 68.4519 526.254 68.4519C527.127 69.0993 527.573 69.9923 527.591 71.1297C523.691 71.5622 519.794 72.0087 515.897 72.4686C515.785 72.6916 515.674 72.9152 515.562 73.1381C519.099 73.8042 522.662 74.0271 526.254 73.8075C526.243 75.19 526.02 76.5289 525.586 77.8243C520.686 77.8243 515.785 77.8243 510.885 77.8243C510.885 76.7083 510.885 75.593 510.885 74.477C512.487 72.5965 513.377 70.3652 513.558 67.7824C514.122 66.9985 514.567 66.1054 514.894 65.1046C519.834 63.8233 524.957 63.3767 530.264 63.7657Z" fill="#0E0707"/>
<path opacity="0.392" fill-rule="evenodd" clip-rule="evenodd" d="M514.894 63.0962C514.894 63.7656 514.894 64.4351 514.894 65.1046C514.567 66.1054 514.122 66.9985 513.558 67.7824C513.497 66.007 513.943 64.4451 514.894 63.0962Z" fill="#816D6D"/>
<path opacity="0.392" fill-rule="evenodd" clip-rule="evenodd" d="M482.15 75.8159C482.044 74.6784 482.154 73.5625 482.485 72.4686C485.617 69.6642 488.847 66.9864 492.174 64.4351C490.89 63.6713 489.554 63.5595 488.165 64.1004C486.048 65.774 483.933 67.4477 481.816 69.1213C480.74 67.7174 479.961 66.1556 479.478 64.4351C477.976 63.85 476.417 63.6264 474.8 63.7656C475.039 65.618 475.485 67.4028 476.136 69.1213C475.134 67.9109 474.02 66.7956 472.795 65.774C472.592 65.3389 472.37 64.8923 472.127 64.4351C467.241 63.6552 462.341 63.5441 457.426 64.1004C456.838 65.0082 456.615 66.0123 456.758 67.1129C458.377 66.9067 459.936 67.1303 461.435 67.7824C460.268 71.0667 459.376 74.414 458.762 77.8242C458.037 77.7439 457.591 77.2974 457.426 76.4853C457.482 73.8945 458.373 71.4396 460.099 69.1213C458.6 68.4692 457.041 68.2456 455.421 68.4518C455.1 66.3196 455.545 64.4224 456.758 62.7615C464.331 62.3149 471.904 62.3149 479.478 62.7615C480.622 64.0502 481.514 65.5009 482.15 67.1129C484.122 66.0318 485.903 64.6928 487.496 63.0962C489.453 62.4374 491.458 62.2145 493.51 62.4267C493.615 63.3459 493.504 64.239 493.176 65.1046C488.733 68.0227 485.058 71.5929 482.15 75.8159Z" fill="#503C3C"/>
<path opacity="0.294" fill-rule="evenodd" clip-rule="evenodd" d="M510.885 63.7656C512.401 65.7211 512.401 67.7295 510.885 69.7907C510.885 68.0053 510.885 66.2205 510.885 64.4351C510.885 64.2122 510.885 63.9886 510.885 63.7656Z" fill="#A49291"/>
<path opacity="0.729" fill-rule="evenodd" clip-rule="evenodd" d="M530.932 63.0962C530.932 64.2122 530.932 65.3275 530.932 66.4435C530.405 66.6329 529.959 66.9677 529.595 67.4477C526.032 67.6706 522.467 67.8942 518.904 68.1171C521.12 68.4505 523.347 68.5623 525.586 68.4518C523.048 69.1099 520.375 69.3335 517.567 69.1213C517.474 68.0341 517.919 67.2535 518.904 66.7782C522.488 66.6637 526.052 66.329 529.595 65.774C530.014 65.1601 530.238 64.4907 530.264 63.7656C530.264 63.3191 530.486 63.0962 530.932 63.0962Z" fill="#6F5B5B"/>
<path opacity="0.498" fill-rule="evenodd" clip-rule="evenodd" d="M505.539 69.1213C505.465 69.5344 505.242 69.8691 504.871 70.1255C502.43 70.4595 499.98 70.5707 497.52 70.4602C497.467 69.5029 497.69 68.6098 498.188 67.7824C500.824 67.119 503.497 66.896 506.207 67.1129C506.365 67.9772 506.143 68.6467 505.539 69.1213Z" fill="#4C3838"/>
<path opacity="0.741" fill-rule="evenodd" clip-rule="evenodd" d="M538.282 67.1128C538.282 66.8899 538.282 66.6663 538.282 66.4434C541.854 66.5685 545.418 66.7915 548.974 67.1128C548.974 67.3357 548.974 67.5593 548.974 67.7823C547.415 67.7823 545.855 67.7823 544.296 67.7823C544.074 67.7823 543.851 67.7823 543.628 67.7823C541.992 67.1309 540.21 66.908 538.282 67.1128Z" fill="#685352"/>
<path opacity="0.078" fill-rule="evenodd" clip-rule="evenodd" d="M498.856 68.4517C499.835 68.0098 500.949 67.7869 502.198 67.7822C503.628 67.8197 504.741 68.2662 505.539 69.1211C505.316 69.1211 505.093 69.1211 504.871 69.1211C503.008 68.4671 501.003 68.2442 498.856 68.4517Z" fill="#A49292"/>
<path opacity="0.447" fill-rule="evenodd" clip-rule="evenodd" d="M538.282 66.4434C538.282 66.6663 538.282 66.8899 538.282 67.1128C537.392 67.3357 537.392 67.5593 538.282 67.7823C538.282 68.2288 538.282 68.6747 538.282 69.1212C537.614 69.1212 536.946 69.1212 536.278 69.1212C536.278 68.2288 536.278 67.3357 536.278 66.4434C536.946 66.4434 537.614 66.4434 538.282 66.4434Z" fill="#4C3838"/>
<path opacity="0.213" fill-rule="evenodd" clip-rule="evenodd" d="M538.282 67.7822C540.064 67.7822 541.846 67.7822 543.628 67.7822C543.628 68.0052 543.628 68.2288 543.628 68.4517C541.873 68.848 540.09 69.0709 538.282 69.1211C538.282 68.6746 538.282 68.2288 538.282 67.7822Z" fill="#8A7878"/>
<path opacity="0.169" fill-rule="evenodd" clip-rule="evenodd" d="M544.296 67.7822C545.855 67.7822 547.415 67.7822 548.974 67.7822C548.306 68.2288 547.638 68.6746 546.969 69.1211C545.69 69.3113 544.576 69.0883 543.628 68.4517C544.074 68.4517 544.296 68.2288 544.296 67.7822Z" fill="#BBA8A8"/>
<path opacity="0.498" fill-rule="evenodd" clip-rule="evenodd" d="M526.254 68.4517C527.145 68.4517 528.036 68.4517 528.927 68.4517C529.156 69.7792 528.711 70.6722 527.591 71.1295C527.573 69.9921 527.127 69.099 526.254 68.4517Z" fill="#614E4E"/>
<path opacity="0.392" fill-rule="evenodd" clip-rule="evenodd" d="M513.558 67.7822C513.377 70.365 512.487 72.5963 510.885 74.4768C510.811 74.0637 510.588 73.729 510.217 73.4726C511.273 71.4569 512.386 69.5603 513.558 67.7822Z" fill="#584444"/>
<path opacity="0.078" fill-rule="evenodd" clip-rule="evenodd" d="M547.638 69.1211C548.56 69.4304 549.006 70.0998 548.974 71.1295C548.707 73.2992 547.816 75.0839 546.301 76.4851C546.301 76.0386 546.301 75.5927 546.301 75.1462C547.483 73.3641 547.928 71.3557 547.638 69.1211Z" fill="#A18E8E"/>
<path opacity="0.078" fill-rule="evenodd" clip-rule="evenodd" d="M530.932 68.4517C531.154 68.4517 531.377 68.4517 531.6 68.4517C531.6 69.344 531.6 70.2371 531.6 71.1295C531.6 71.576 531.6 72.0219 531.6 72.4684C530.709 72.4684 529.818 72.4684 528.927 72.4684C529.437 71.9543 530.105 71.6195 530.932 71.4642C530.774 70.4928 530.774 69.4886 530.932 68.4517Z" fill="#A59292"/>
<path opacity="0.392" fill-rule="evenodd" clip-rule="evenodd" d="M476.136 69.1211C477.397 69.97 478.066 71.1971 478.141 72.8031C478.217 73.9405 477.772 74.7218 476.805 75.1462C476.799 73.1077 476.577 71.0993 476.136 69.1211Z" fill="#4F3A3A"/>
<path opacity="0.604" fill-rule="evenodd" clip-rule="evenodd" d="M531.6 71.1299C534.93 71.5704 538.494 71.9051 542.292 72.1341C543.183 72.8035 543.183 73.473 542.292 74.1424C539.619 74.589 536.946 74.589 534.273 74.1424C533.624 73.151 532.733 72.5926 531.6 72.4688C531.6 72.0223 531.6 71.5764 531.6 71.1299Z" fill="#53403F"/>
<path opacity="0.271" fill-rule="evenodd" clip-rule="evenodd" d="M527.591 71.1299C527.314 72.59 527.202 74.1525 527.257 75.8161C527.099 76.8999 526.542 77.5694 525.586 77.8244C526.02 76.529 526.243 75.1901 526.254 73.8077C522.662 74.0273 519.099 73.8044 515.562 73.1383C515.674 72.9153 515.785 72.6917 515.897 72.4688C519.794 72.0089 523.692 71.5624 527.591 71.1299Z" fill="#5E4949"/>
<path opacity="0.271" fill-rule="evenodd" clip-rule="evenodd" d="M528.927 72.4688C529.818 72.4688 530.709 72.4688 531.6 72.4688C531.126 73.0739 530.458 73.2969 529.595 73.1382C529.595 74.7 529.595 76.2626 529.595 77.8244C528.798 77.5098 528.352 76.8403 528.259 75.816C528.411 74.6733 528.634 73.5573 528.927 72.4688Z" fill="#604C4C"/>
<path opacity="0.392" fill-rule="evenodd" clip-rule="evenodd" d="M503.534 74.477C501.167 74.2674 498.94 74.491 496.852 75.1464C496.503 76.2972 495.835 77.1896 494.847 77.8242C495.07 76.4853 495.293 75.1464 495.515 73.8075C498.323 73.5953 500.996 73.8189 503.534 74.477Z" fill="#544040"/>
<path opacity="0.498" fill-rule="evenodd" clip-rule="evenodd" d="M509.548 71.1299C509.258 72.3329 509.258 73.6718 509.548 75.1466C508.924 75.8616 508.701 76.754 508.88 77.8244C508.212 77.8244 507.543 77.8244 506.875 77.8244C506.933 76.367 507.378 75.0281 508.212 73.8077C507.713 72.9803 507.491 72.0872 507.543 71.1299C508.212 71.1299 508.88 71.1299 509.548 71.1299Z" fill="#4F3C3C"/>
<path opacity="0.078" fill-rule="evenodd" clip-rule="evenodd" d="M496.852 75.1464C498.94 74.491 501.167 74.2674 503.534 74.4769C503.534 75.5929 503.534 76.7082 503.534 77.8242C502.096 77.4379 501.874 76.6567 502.866 75.4811C500.873 75.1477 498.869 75.0359 496.852 75.1464Z" fill="#A08D8D"/>
<path opacity="0.153" fill-rule="evenodd" clip-rule="evenodd" d="M510.885 74.4771C510.885 75.593 510.885 76.7083 510.885 77.8243C509.765 77.3671 509.319 76.474 509.548 75.1465C509.994 74.9236 510.439 74.7 510.885 74.4771Z" fill="#5E4B4A"/>
<path opacity="0.604" fill-rule="evenodd" clip-rule="evenodd" d="M472.795 65.7739C472.909 66.6589 472.686 67.4402 472.127 68.117C470.134 68.4504 468.13 68.5622 466.113 68.4518C465.312 71.6236 464.31 74.748 463.106 77.8241C462.645 78.6529 462.311 78.6529 462.104 77.8241C463.217 74.2539 464.331 70.683 465.445 67.1128C468.109 67.4409 470.559 66.995 472.795 65.7739Z" fill="#614D4D"/>
<path opacity="0.078" fill-rule="evenodd" clip-rule="evenodd" d="M482.151 75.8159C482.199 76.8382 481.754 77.5076 480.814 77.8243C480.67 76.7003 481.116 76.0308 482.151 75.8159Z" fill="#988484"/>
<path opacity="0.392" fill-rule="evenodd" clip-rule="evenodd" d="M546.301 75.1465C546.301 75.593 546.301 76.0389 546.301 76.4854C545.775 77.5592 544.884 78.0057 543.628 77.8243C544.296 76.7083 545.187 75.8159 546.301 75.1465Z" fill="#584343"/>
</svg>
