<svg width="346" height="80" viewBox="0 0 346 80" fill="none" xmlns="http://www.w3.org/2000/svg">
<g clip-path="url(#clip0_4623_25510)">
<path opacity="0.927" fill-rule="evenodd" clip-rule="evenodd" d="M38.5958 0.454365C44.6452 0.281032 50.1951 1.84649 55.245 5.15134C57.2038 6.60709 59.0704 8.17285 60.8452 9.8483C66.488 3.96921 73.3998 0.838002 81.5809 0.454365C95.3995 1.36255 101.201 8.63527 98.9869 22.2725C97.167 28.2425 94.0391 33.3941 89.6028 37.7271C85.2961 42.241 80.8057 46.5341 76.1321 50.6059C68.073 56.9556 60.1017 63.4204 52.2179 69.9998C47.9212 73.1395 43.5821 76.2204 39.2012 79.2422C26.7237 71.251 15.6747 61.5541 6.05425 50.1513C2.64638 45.448 0.678752 40.1953 0.151367 34.3938C0.385303 27.5101 3.61424 22.611 9.83816 19.6968C11.7364 17.0804 14.1581 15.1107 17.1032 13.7877C19.0349 11.1959 21.4566 9.22618 24.3683 7.87861C27.9779 3.19952 32.7205 0.724971 38.5958 0.454365Z" fill="#110601"/>
<path fill-rule="evenodd" clip-rule="evenodd" d="M291.966 0.151367C295.169 0.339852 297.79 1.65288 299.836 4.09076C302.818 0.272882 306.451 -0.585603 310.734 1.515C313.289 4.46864 313.543 7.65046 311.491 11.0605C308.37 15.7508 304.486 19.6902 299.836 22.8786C294.957 19.5602 290.971 15.4186 287.879 10.4544C286.226 7.19682 286.579 4.21682 288.939 1.515C289.942 0.960458 290.951 0.505913 291.966 0.151367Z" fill="#E71D23"/>
<path fill-rule="evenodd" clip-rule="evenodd" d="M36.4768 1.96965C43.0505 1.45602 49.1047 2.92056 54.6395 6.36359C56.8006 8.02177 58.869 9.78935 60.8451 11.6666C63.0364 9.47238 65.4076 7.50268 67.9588 5.75753C75.0992 1.57783 82.5662 0.870562 90.3595 3.63632C96.7773 7.14359 99.3504 12.5478 98.0787 19.8484C97.2711 24.5984 95.354 28.8409 92.3272 32.5757C83.201 43.4848 72.6563 52.6766 60.6937 60.1515C49.4017 52.7475 39.2608 43.9597 30.2712 33.7878C27.1747 29.9118 24.9546 25.5684 23.6115 20.7575C22.143 10.4709 26.4313 4.20844 36.4768 1.96965Z" fill="#EC1C23"/>
<path opacity="0.981" fill-rule="evenodd" clip-rule="evenodd" d="M116.998 9.24261C124.264 9.19201 131.529 9.24261 138.794 9.39413C140.362 9.64595 141.421 10.5044 141.972 11.9699C142.431 13.6608 142.532 15.3781 142.275 17.1214C140.602 18.6684 138.987 20.2847 137.431 21.9699C137.28 34.2926 137.229 46.6159 137.28 58.9396C142.217 59.0147 147.061 58.9138 151.81 58.6366C149.886 50.342 151.248 42.665 155.897 35.6062C161.172 29.8372 167.731 26.8069 175.573 26.5153C176.865 26.5478 178.177 26.5478 179.508 26.5153C194.94 27.6702 203.063 35.9529 203.877 51.3638C203.224 65.5023 195.909 73.6841 181.93 75.9093C178.921 75.9029 175.894 75.9029 172.849 75.9093C168.639 75.279 164.704 73.8647 161.043 71.6669C160.515 78.2162 157.336 80.0847 151.507 77.2729C150.004 75.8417 148.339 74.6802 146.513 73.7881C141.288 73.989 136.041 74.0902 130.772 74.0911C124.959 74.1299 119.157 73.9784 113.366 73.6366C112.578 73.3532 112.124 72.7978 112.003 71.9699C111.802 70.2526 111.802 68.5356 112.003 66.8184C112.445 66.0729 113 65.4162 113.668 64.8487C115.308 64.0032 116.872 63.0435 118.36 61.9699C118.562 48.7375 118.562 35.5053 118.36 22.2729C118.039 21.345 117.484 20.5875 116.696 20.0002C115.658 19.4559 114.699 18.7993 113.82 18.0305C113.341 16.1447 113.24 14.2256 113.517 12.2729C114.184 10.6432 115.344 9.63292 116.998 9.24261ZM174.816 38.6366C179.315 38.6905 182.594 40.7108 184.654 44.6972C186.822 49.0235 187.528 53.569 186.773 58.3335C186.403 60.8244 185.041 62.4911 182.687 63.3335C175.559 64.5926 170.968 61.7138 168.913 54.6972C167.544 50.4417 167.544 46.1993 168.913 41.9699C170.363 39.922 172.33 38.8111 174.816 38.6366Z" fill="black"/>
<path fill-rule="evenodd" clip-rule="evenodd" d="M22.8547 10.1513C23.0784 10.1116 23.2803 10.1622 23.4601 10.3028C21.6874 15.6779 21.9396 20.981 24.2169 26.2119C25.2259 28.0301 26.2351 29.8482 27.2441 31.6664C36.741 43.0961 47.6387 52.894 59.937 61.0604C59.9875 61.1613 60.0378 61.2625 60.0883 61.3634C58.1125 62.8867 56.0946 64.3513 54.0341 65.7573C53.7314 65.9595 53.4287 65.9595 53.1259 65.7573C42.116 58.4385 32.1767 49.8022 23.3088 39.8482C20.2951 36.2382 18.0753 32.1979 16.6491 27.727C15.9051 23.834 16.107 19.9955 17.2545 16.2119C18.6612 13.744 20.5279 11.7237 22.8547 10.1513Z" fill="#FADE00"/>
<path fill-rule="evenodd" clip-rule="evenodd" d="M15.5896 15.9093C15.8549 15.8696 16.0567 15.9705 16.195 16.2123C15.6109 17.2341 15.2577 18.3453 15.1355 19.5456C14.4771 25.0896 15.587 30.2411 18.4654 35.0002C20.0487 37.596 21.8651 40.0202 23.9142 42.2729C32.5996 51.6041 42.1853 59.786 52.6719 66.8184C52.8253 67.2717 52.674 67.6253 52.2178 67.879C50.3283 69.266 48.3606 70.5284 46.3149 71.6669C33.4094 63.3966 22.209 53.1947 12.7138 41.0608C8.97777 35.0908 8.06963 28.7272 9.98943 21.9699C11.3961 19.502 13.2628 17.4817 15.5896 15.9093Z" fill="#F2801F"/>
<path fill-rule="evenodd" clip-rule="evenodd" d="M8.62717 21.6665C7.1266 27.2923 7.58067 32.8477 9.98938 38.3332C11.8385 42.0014 14.1592 45.3347 16.9518 48.3332C25.655 57.7092 35.2913 65.8911 45.8608 72.8786C43.7439 74.5398 41.5747 76.1562 39.3525 77.7271C32.747 73.3338 26.4403 68.5356 20.4329 63.3332C16.4383 59.4356 12.5535 55.4456 8.77853 51.3635C3.9955 45.9235 1.67472 39.5598 1.81615 32.2726C2.4114 27.6435 4.68175 24.1083 8.62717 21.6665Z" fill="#EA1C23"/>
<path opacity="0.979" fill-rule="evenodd" clip-rule="evenodd" d="M274.106 25.9091C282.493 24.9858 289.506 27.6122 295.144 33.7879C297.478 36.8922 298.84 40.377 299.231 44.2425C299.355 49.8597 296.833 53.6979 291.663 55.7576C283.909 56.201 276.139 56.3525 268.354 56.2122C270.177 60.0122 273.205 62.2849 277.436 63.0303C280.677 63.2594 283.805 62.7543 286.82 61.5152C288.987 60.1528 291.308 59.3446 293.782 59.091C296.107 60.5543 297.672 62.6249 298.474 65.3031C298.677 65.9091 298.677 66.5152 298.474 67.1213C297.844 68.3573 296.988 69.4179 295.901 70.3031C287.306 75.7734 278.124 77.2885 268.354 74.8485C257.077 71.0737 251.326 63.1949 251.1 51.2122C251.755 36.2761 259.424 27.8419 274.106 25.9091ZM277.436 36.2122C280.661 36.0576 283.335 37.1688 285.457 39.5455C286.455 42.1082 285.597 43.5728 282.884 43.9394C281.108 44.2173 279.342 44.4697 277.587 44.697C274.27 44.6837 270.89 44.6837 267.446 44.697C269.156 39.9531 272.486 37.1246 277.436 36.2122Z" fill="black"/>
<path opacity="0.977" fill-rule="evenodd" clip-rule="evenodd" d="M319.21 26.5151C320.654 26.5257 322.119 26.5257 323.599 26.5151C327.61 26.7527 331.494 27.6112 335.254 29.0909C337.342 30.0724 338.656 31.6885 339.189 33.9394C338.587 37.1648 337.83 40.3467 336.919 43.4848C336.692 43.6745 336.44 43.826 336.162 43.9394C334.346 44.1415 332.529 44.1415 330.713 43.9394C330.159 43.5857 329.602 43.2324 329.048 42.8788C328.249 41.6245 327.392 40.4124 326.475 39.2424C324.014 37.973 321.39 37.5185 318.605 37.8788C317.212 38.0085 316.507 38.766 316.486 40.1515C317.021 41.7476 318.132 42.8082 319.815 43.3333C323.348 44.4445 326.878 45.5554 330.41 46.6667C340.04 50.2373 343.318 56.9545 340.249 66.8182C337.261 72.6245 332.466 75.8064 325.87 76.3636C319.092 77.1194 312.432 76.5133 305.891 74.5454C303.702 73.8809 301.837 72.7194 300.29 71.0606C299.724 70.2409 299.473 69.3318 299.534 68.3333C299.824 64.9445 300.684 61.7124 302.107 58.6363C303.66 57.5973 305.325 57.4457 307.102 58.1818C308.524 59.5048 309.835 60.9191 311.037 62.4242C315.12 65.3563 319.561 66.0633 324.356 64.5454C326.157 63.1073 326.257 61.5921 324.659 60C320.23 58.0842 315.689 56.4682 311.037 55.1515C300.784 50.7006 298.311 43.5794 303.62 33.7879C306.305 30.597 309.687 28.526 313.761 27.5757C315.602 27.1221 317.418 26.7685 319.21 26.5151Z" fill="black"/>
<path opacity="0.977" fill-rule="evenodd" clip-rule="evenodd" d="M202.666 27.7275C209.326 27.6769 215.986 27.7275 222.645 27.879C224.069 28.2138 225.028 29.0723 225.521 30.4548C225.723 32.172 225.723 33.889 225.521 35.6063C225.253 36.3948 224.799 37.0514 224.158 37.576C222.884 38.0941 221.572 38.4981 220.223 38.7881C220.037 39.2123 219.936 39.6669 219.92 40.1517C220.403 42.5617 221.16 44.8851 222.191 47.1214C223.871 51.1093 225.637 55.0487 227.488 58.9396C230.4 52.856 233.024 46.6438 235.359 40.3032C235.215 39.769 235.013 39.2638 234.753 38.7881C233.404 38.4981 232.093 38.0941 230.818 37.576C229.624 36.3651 229.12 34.9002 229.305 33.182C228.882 30.5472 229.891 28.7793 232.332 27.879C238.991 27.6769 245.651 27.6769 252.311 27.879C253.39 28.0911 254.248 28.6466 254.884 29.5457C255.364 31.5326 255.465 33.5529 255.186 35.6063C254.847 36.2499 254.393 36.8054 253.824 37.2729C252.647 37.7054 251.487 38.1599 250.343 38.6366C245.785 49.6993 241.345 60.8105 237.024 71.9699C236.6 73.0008 235.944 73.8596 235.056 74.5457C230.342 75.0411 225.599 75.142 220.829 74.8487C220.012 74.6396 219.357 74.1851 218.861 73.4851C214.118 61.869 209.376 50.2526 204.633 38.6366C203.49 38.1599 202.33 37.7054 201.152 37.2729C200.584 36.8054 200.13 36.2499 199.79 35.6063C199.588 33.7881 199.588 31.9699 199.79 30.1517C200.444 28.9381 201.403 28.1302 202.666 27.7275Z" fill="black"/>
<path opacity="0.697" fill-rule="evenodd" clip-rule="evenodd" d="M342.216 73.1816C346.236 74.3104 346.842 76.381 344.032 79.3938C341.266 80.3822 339.649 79.4225 339.189 76.515C339.365 74.6222 340.376 73.511 342.216 73.1816ZM341.611 74.6968C344.244 74.3671 345.001 75.4783 343.881 78.0301C343.379 77.1422 343.279 76.2332 343.578 75.3029C343.003 74.8435 342.349 74.6413 341.611 74.6968ZM341.005 74.9998C341.057 76.015 341.005 77.025 340.854 78.0301C340.382 77.1835 340.282 76.2744 340.551 75.3029C340.666 75.1344 340.818 75.0335 341.005 74.9998ZM341.913 77.4241C342.034 77.1135 342.234 77.0629 342.519 77.2725C342.688 77.7804 342.991 78.1844 343.427 78.4847C342.722 78.6868 342.013 78.6868 341.308 78.4847C342.059 78.3129 342.261 77.9595 341.913 77.4241Z" fill="#070000"/>
</g>
<defs>
<clipPath id="clip0_4623_25510">
<rect width="346" height="80" fill="white"/>
</clipPath>
</defs>
</svg>
