<svg width="330" height="80" viewBox="0 0 330 80" fill="none" xmlns="http://www.w3.org/2000/svg">
<g clip-path="url(#clip0_4623_25996)">
<path fill-rule="evenodd" clip-rule="evenodd" d="M240.857 0.0439453C241.496 3.14586 242.737 5.9852 244.584 8.56206C245.549 9.82072 246.513 11.0795 247.478 12.3381C248.662 13.5822 249.846 14.8262 251.03 16.0703C254.316 19.097 257.575 22.1559 260.808 25.247C262.691 27.3217 264.532 29.4292 266.333 31.5697C270.128 36.7359 272.014 42.5467 271.989 49.0011C271.733 59.3713 267.494 67.6549 259.273 73.8529C251.263 79.3467 242.551 80.8396 233.14 78.3315C223.999 75.5012 217.349 69.7783 213.189 61.1636C209.792 53.2198 209.675 45.2874 212.838 37.3656C213.92 34.8216 215.352 32.5095 217.135 30.4281C218.167 29.2115 219.219 28.0114 220.292 26.8277C223.856 23.1711 227.452 19.5415 231.079 15.9386C234.049 12.8783 236.65 9.54129 238.884 5.92759C239.849 4.06853 240.506 2.10735 240.857 0.0439453ZM226.738 30.4281C226.792 30.4648 226.822 30.5233 226.826 30.6038C225.713 34.9032 224.967 39.265 224.589 43.6883C224.342 47.8841 224.445 52.0703 224.896 56.2459C223.091 55.9746 221.614 55.1254 220.468 53.6993C218.465 51.1509 217.646 48.2529 218.012 45.0055C218.405 40.8922 220.014 37.3506 222.836 34.3798C224.096 33.0158 225.396 31.6986 226.738 30.4281Z" fill="#DE191F"/>
<path fill-rule="evenodd" clip-rule="evenodd" d="M0.0439453 10.0547C23.2249 10.0547 46.4059 10.0547 69.5869 10.0547C69.5869 33.3548 69.5869 56.6558 69.5869 79.9559C46.4059 79.9559 23.2249 79.9559 0.0439453 79.9559C0.0439453 56.6558 0.0439453 33.3548 0.0439453 10.0547Z" fill="#DF1A20"/>
<path fill-rule="evenodd" clip-rule="evenodd" d="M78.181 17.0801C82.6535 17.0801 87.126 17.0801 91.5985 17.0801C91.5836 32.9747 91.5985 48.8693 91.6424 64.7639C96.9041 64.7639 102.166 64.7639 107.428 64.7639C107.471 69.3014 107.486 73.8379 107.471 78.3754C97.7162 78.4043 87.9679 78.3754 78.2249 78.2875C78.181 57.8853 78.1664 37.4823 78.181 17.0801Z" fill="#DE191F"/>
<path fill-rule="evenodd" clip-rule="evenodd" d="M112.821 17.0801C117.147 17.0801 121.474 17.0801 125.8 17.0801C125.785 28.9352 125.8 40.7903 125.844 52.6454C125.843 55.863 126.428 58.9655 127.598 61.9538C129.144 64.6252 131.468 65.9424 134.569 65.9055C138.543 65.9214 141.072 64.0184 142.155 60.1975C142.8 58.0496 143.15 55.8542 143.207 53.6114C143.251 41.434 143.266 29.2572 143.251 17.0801C147.607 17.0801 151.962 17.0801 156.318 17.0801C156.318 29.5827 156.318 42.0671 156.318 54.5334C156.234 57.8818 155.868 61.2048 155.222 64.5005C153.317 72.4671 148.391 77.4287 140.445 79.3852C136.347 80.1694 132.254 80.1405 128.168 79.2974C120.495 77.2346 115.716 72.331 113.829 64.5883C113.271 61.7466 112.949 58.8785 112.865 55.9824C112.821 43.0147 112.806 30.0475 112.821 17.0801Z" fill="#DE191F"/>
<path fill-rule="evenodd" clip-rule="evenodd" d="M167.28 17.08C171.724 17.08 176.166 17.08 180.61 17.08C180.595 25.481 180.61 33.8817 180.654 42.283C186.05 33.9186 191.415 25.5326 196.746 17.1239C202.242 17.0507 207.738 17.0653 213.233 17.1678C206.458 26.7829 199.706 36.4134 192.975 46.0591C200.341 56.8016 207.708 67.5449 215.074 78.2874C209.315 78.4042 203.557 78.4042 197.798 78.2874C192.101 69.4356 186.385 60.5952 180.654 51.7671C180.61 60.6365 180.595 69.5059 180.61 78.3752C176.166 78.3752 171.724 78.3752 167.28 78.3752C167.28 57.9432 167.28 37.512 167.28 17.08Z" fill="#DE191F"/>
<path fill-rule="evenodd" clip-rule="evenodd" d="M278.216 17.0801C282.659 17.0801 287.102 17.0801 291.545 17.0801C291.545 37.5121 291.545 57.9433 291.545 78.3754C287.102 78.3754 282.659 78.3754 278.216 78.3754C278.216 57.9433 278.216 37.5121 278.216 17.0801Z" fill="#DE191F"/>
<path fill-rule="evenodd" clip-rule="evenodd" d="M300.666 17.0801C305.109 17.0801 309.552 17.0801 313.996 17.0801C313.981 32.9747 313.996 48.8693 314.039 64.7639C319.301 64.7639 324.563 64.7639 329.825 64.7639C329.956 69.2882 330 73.8256 329.956 78.3754C320.193 78.3754 310.429 78.3754 300.666 78.3754C300.666 57.9433 300.666 37.5121 300.666 17.0801Z" fill="#DE191F"/>
<path fill-rule="evenodd" clip-rule="evenodd" d="M30.2112 50.6259C30.3281 50.9183 30.5328 51.1238 30.825 51.2406C31.8533 51.9264 32.9056 51.9405 33.9821 51.2845C34.5831 50.798 34.9193 50.1684 34.9906 49.3965C35.0198 40.0002 35.0491 30.6039 35.0783 21.2077C35.2264 20.3845 35.5626 19.6527 36.0868 19.0123C36.284 18.9614 36.4301 18.8443 36.5253 18.661C38.0924 17.71 39.6416 17.7392 41.1732 18.7488C41.3778 19.0123 41.6116 19.2465 41.8747 19.4514C41.9126 19.5576 41.9711 19.6454 42.0501 19.7148C42.0933 19.9185 42.181 20.0941 42.3132 20.2417C42.4846 20.7234 42.5868 21.2209 42.6201 21.7346C42.6786 30.926 42.6786 40.117 42.6201 49.3087C42.5831 51.7772 41.8084 53.9725 40.2962 55.8948C39.8869 56.2461 39.5069 56.6263 39.1562 57.0364C38.6572 57.3903 38.1602 57.7416 37.6653 58.0902C37.4036 58.1631 37.1698 58.2799 36.9638 58.4415C33.9657 59.6964 30.9548 59.7253 27.9311 58.5293C27.6667 58.3387 27.3743 58.1921 27.0541 58.0902C26.5592 57.7416 26.0623 57.3903 25.5633 57.0364C25.4395 56.8248 25.2642 56.6781 25.0371 56.5974C24.8679 56.2812 24.634 56.0178 24.3355 55.807C23.0496 54.1262 22.3041 52.2233 22.0993 50.099C22.0408 40.4981 22.0408 30.8966 22.0993 21.2955C22.5022 19.2239 23.7591 18.1116 25.8702 17.9585C27.8021 18.1036 29.0298 19.0988 29.5534 20.9442C29.6693 30.5135 29.7278 40.0854 29.7288 49.6599C29.7999 50.0367 29.9606 50.3581 30.2112 50.6259Z" fill="#FEFFFE"/>
<path fill-rule="evenodd" clip-rule="evenodd" d="M17.3199 61.2512C17.3784 61.4856 17.5245 61.6314 17.7584 61.6902C18.0439 61.9792 18.3947 62.1258 18.8107 62.1293C24.8178 62.1882 30.8396 62.2171 36.8761 62.2171C42.9274 62.2171 48.9492 62.1583 54.9415 62.0415C51.9125 54.7748 48.8578 47.5151 45.7772 40.2632C45.0594 38.0679 45.2932 35.9603 46.4788 33.9405C49.4113 29.1497 52.32 24.349 55.2045 19.5388C55.4968 19.3046 55.7599 19.0411 55.9938 18.7484C57.6286 17.7763 59.2364 17.8202 60.8171 18.8801C62.1451 20.2049 62.452 21.7417 61.7379 23.4905C59.1947 27.5886 56.6515 31.6866 54.1083 35.7846C53.4593 36.7866 53.2547 37.8694 53.4945 39.0338C57.4131 49.2406 61.374 59.4272 65.3773 69.5936C49.1246 69.7693 32.8423 69.8281 16.5306 69.7693C15.4593 69.7429 14.4363 69.5085 13.4613 69.0668C13.3138 68.9342 13.1384 68.8463 12.9351 68.8033C12.5291 68.5118 12.1199 68.2193 11.7073 67.9251C11.415 67.5739 11.0935 67.2516 10.7427 66.9592C10.581 66.6351 10.3764 66.3427 10.1288 66.081C10.0272 65.7605 9.88098 65.4681 9.69033 65.2029C9.41873 64.5249 9.2287 63.8224 9.1203 63.0953C8.98902 49.2503 8.95982 35.4044 9.03261 21.5585C9.37383 19.3433 10.6601 18.1724 12.8912 18.0459C14.8905 18.1453 16.1183 19.1699 16.5745 21.1194C16.6902 34.1732 16.7486 47.2279 16.7499 60.2852C16.8526 60.6681 17.0427 60.9895 17.3199 61.2512Z" fill="#FEFFFE"/>
<path fill-rule="evenodd" clip-rule="evenodd" d="M36.5254 18.6606C36.4302 18.8439 36.2841 18.961 36.0869 19.0119C36.1821 18.8286 36.3282 18.7116 36.5254 18.6606Z" fill="#F27073"/>
<path fill-rule="evenodd" clip-rule="evenodd" d="M41.1733 18.7485C41.4949 18.8949 41.7287 19.129 41.8749 19.4511C41.6118 19.2462 41.3779 19.012 41.1733 18.7485Z" fill="#F27073"/>
<path fill-rule="evenodd" clip-rule="evenodd" d="M55.9939 18.7485C55.76 19.0412 55.4969 19.3047 55.2046 19.5389C55.38 19.1876 55.6431 18.9242 55.9939 18.7485Z" fill="#F27073"/>
<path fill-rule="evenodd" clip-rule="evenodd" d="M42.0503 19.7148C42.2291 19.8388 42.3168 20.0144 42.3134 20.2417C42.1811 20.0941 42.0934 19.9185 42.0503 19.7148Z" fill="#F27073"/>
<path fill-rule="evenodd" clip-rule="evenodd" d="M30.2112 50.6255C30.4451 50.8011 30.6497 51.0057 30.8251 51.2402C30.5328 51.1234 30.3281 50.9179 30.2112 50.6255Z" fill="#F27073"/>
<path fill-rule="evenodd" clip-rule="evenodd" d="M24.3357 55.8066C24.6341 56.0174 24.868 56.2808 25.0373 56.597C24.7388 56.3862 24.5049 56.1228 24.3357 55.8066Z" fill="#F27073"/>
<path fill-rule="evenodd" clip-rule="evenodd" d="M40.2963 55.8945C40.004 56.3626 39.6239 56.7437 39.1562 57.0361C39.507 56.626 39.887 56.2458 40.2963 55.8945Z" fill="#F27073"/>
<path fill-rule="evenodd" clip-rule="evenodd" d="M25.0371 56.5972C25.2642 56.678 25.4395 56.8246 25.5633 57.0362C25.3362 56.9555 25.1608 56.8088 25.0371 56.5972Z" fill="#F27073"/>
<path fill-rule="evenodd" clip-rule="evenodd" d="M27.0542 58.0898C27.3744 58.1917 27.6668 58.3384 27.9312 58.5289C27.5874 58.4736 27.2951 58.3278 27.0542 58.0898Z" fill="#F27073"/>
<path fill-rule="evenodd" clip-rule="evenodd" d="M37.6654 58.0898C37.4831 58.298 37.2492 58.4156 36.9639 58.4411C37.1699 58.2795 37.4037 58.1627 37.6654 58.0898Z" fill="#F27073"/>
<path fill-rule="evenodd" clip-rule="evenodd" d="M17.3201 61.2515C17.4955 61.3683 17.6416 61.5149 17.7585 61.6905C17.5247 61.6317 17.3786 61.4859 17.3201 61.2515Z" fill="#F27073"/>
<path fill-rule="evenodd" clip-rule="evenodd" d="M54.9415 62.0415C48.9493 62.1583 42.9275 62.2171 36.8762 62.2171C30.8397 62.2171 24.8179 62.1882 18.8108 62.1293C30.8605 62.1583 42.9041 62.1293 54.9415 62.0415Z" fill="#F27073"/>
<path fill-rule="evenodd" clip-rule="evenodd" d="M9.69043 65.2031C9.88108 65.4683 10.0273 65.7608 10.1289 66.0813C9.89152 65.8398 9.74542 65.5474 9.69043 65.2031Z" fill="#F27073"/>
<path fill-rule="evenodd" clip-rule="evenodd" d="M10.7427 66.9595C11.0935 67.2519 11.415 67.5742 11.7073 67.9254C11.2981 67.691 10.9766 67.3696 10.7427 66.9595Z" fill="#F27073"/>
<path fill-rule="evenodd" clip-rule="evenodd" d="M12.9351 68.8037C13.1384 68.8467 13.3138 68.9346 13.4612 69.0672C13.2342 69.0707 13.0588 68.9829 12.9351 68.8037Z" fill="#F27073"/>
<path fill-rule="evenodd" clip-rule="evenodd" d="M65.3774 69.5938C65.4567 69.6561 65.4859 69.7439 65.4651 69.8572C49.139 69.8862 32.8276 69.8572 16.5308 69.7694C32.8425 69.8282 49.1247 69.7694 65.3774 69.5938Z" fill="#F27073"/>
</g>
<defs>
<clipPath id="clip0_4623_25996">
<rect width="330" height="80" fill="white"/>
</clipPath>
</defs>
</svg>
