<svg width="104" height="80" viewBox="0 0 104 80" fill="none" xmlns="http://www.w3.org/2000/svg">
<g clip-path="url(#clip0_4623_24901)">
<path fill-rule="evenodd" clip-rule="evenodd" d="M89.5614 14.6741C89.6261 15.2752 89.8432 15.8187 90.2128 16.3045C90.1136 16.3945 90.041 16.5032 89.9957 16.6306C90.37 17.1469 90.7317 17.6541 91.0813 18.1524C91.2632 18.2267 91.3357 18.3715 91.2984 18.5872C91.5122 19.3072 91.7294 20.0319 91.9497 20.7611C92.098 20.84 92.2428 20.9124 92.384 20.9785C94.0276 24.4885 95.6197 28.0393 97.1606 31.6306C97.2055 32.2265 97.4227 32.7337 97.8119 33.1524C97.9939 33.2267 98.0664 33.3715 98.0291 33.5872C98.074 34.183 98.2911 34.6902 98.6804 35.1089C99.1346 35.6715 99.4241 36.3237 99.5489 37.0654C99.5938 37.6613 99.811 38.1685 100.2 38.5872C101.371 41.0054 102.493 43.4691 103.566 45.9785C103.994 47.418 104.103 48.8674 103.891 50.3263C103.375 51.1726 103.158 52.1148 103.24 53.1524C102.54 56.173 101.744 59.1441 100.852 62.0654C100.542 62.5035 100.398 63.0106 100.417 63.5872C100.476 63.9348 100.403 64.2245 100.2 64.4567C99.7463 65.4765 99.4568 66.5635 99.3318 67.7176C98.9501 68.4467 98.733 69.2439 98.6804 70.1089C98.2434 71.5626 97.7366 73.0119 97.1606 74.4567C95.5248 77.3441 93.0642 79.1195 89.7785 79.7828C64.7376 79.9278 39.6964 79.9278 14.6554 79.7828C11.8882 79.2896 9.6447 77.9491 7.92468 75.7611C7.94053 75.4291 7.79571 75.2117 7.49044 75.1089C7.0371 74.7098 6.74768 74.2026 6.62197 73.5872C6.45674 72.6559 6.1671 71.7863 5.75349 70.9785C5.77303 70.4019 5.62843 69.8948 5.31925 69.4567C5.26671 68.5917 5.04959 67.7945 4.6679 67.0654C4.46511 66.8332 4.39259 66.5435 4.45078 66.1959C4.39824 65.3308 4.18112 64.5337 3.79942 63.8045C3.59663 63.5724 3.52411 63.2826 3.5823 62.935C3.60184 62.3585 3.45724 61.8513 3.14806 61.4132C1.91895 57.5417 0.905659 53.5924 0.108398 49.5654C0.186344 48.1909 0.439722 46.8504 0.868315 45.5437C2.23095 42.3102 3.64223 39.1217 5.10214 35.9785C5.49143 35.5598 5.70855 35.0526 5.75349 34.4567C6.14279 34.038 6.35991 33.5308 6.40485 32.935C6.79414 32.5163 7.01126 32.0091 7.05621 31.4132C7.06858 31.1722 7.14088 30.9548 7.27333 30.7611C7.62158 30.59 7.7664 30.3002 7.70756 29.8915C9.10364 26.5902 10.5512 23.3293 12.0499 20.1089C12.3995 19.6106 12.7612 19.1035 13.1355 18.5872C13.0157 18.2604 13.0157 17.8982 13.1355 17.5002C13.2604 16.7585 13.5498 16.1063 14.004 15.5437C14.3933 15.125 14.6104 14.6178 14.6554 14.0219C15.0447 13.6032 15.2618 13.0961 15.3067 12.5002C15.7297 12.1045 15.9468 11.5972 15.9581 10.9785C15.9207 10.7629 15.9933 10.618 16.1752 10.5437C16.4859 10.2653 16.6307 9.903 16.6094 9.45672C17.2866 7.53163 18.1912 5.72004 19.3234 4.02194C21.0241 2.03113 23.1591 0.763001 25.7284 0.217588C43.098 0.072653 60.4675 0.072653 77.837 0.217588C80.5994 0.737501 82.8792 2.07809 84.6762 4.23933C86.4851 7.6437 88.1135 11.122 89.5614 14.6741Z" fill="#0C0682"/>
<path fill-rule="evenodd" clip-rule="evenodd" d="M77.1857 4.23933C60.0285 4.16938 42.8761 4.24183 25.7285 4.45672C25.8942 4.28979 26.1113 4.18109 26.3799 4.13064C43.3516 3.9497 60.2869 3.98594 77.1857 4.23933Z" fill="#E1DBEA"/>
<path fill-rule="evenodd" clip-rule="evenodd" d="M77.1857 4.23915C79.2948 4.5895 80.9232 5.67646 82.0709 7.50002C88.0783 20.9083 94.0854 34.3142 100.092 47.7174C100.237 48.5146 100.237 49.3115 100.092 50.1087C98.1485 57.0196 96.2668 63.9761 94.4467 70.9783C93.5046 73.5157 91.7316 75.1461 89.1273 75.8696C64.3757 76.0146 39.6241 76.0146 14.8726 75.8696C12.9552 75.3274 11.4716 74.2042 10.4216 72.5C8.56438 66.7411 6.86368 60.9439 5.31932 55.1087C5.33886 54.5322 5.19425 54.025 4.88508 53.587C4.35183 52.1609 4.06241 50.6755 4.0166 49.1305C4.04114 48.0287 4.29451 46.9779 4.77652 45.9783C10.4939 33.0072 16.2115 20.0363 21.9289 7.06524C22.8951 5.73211 24.1616 4.86254 25.7285 4.45654C42.8761 4.24165 60.0285 4.1692 77.1857 4.23915Z" fill="#FDFCFD"/>
<path opacity="0.133" fill-rule="evenodd" clip-rule="evenodd" d="M16.6096 9.45654C16.6309 9.90283 16.4861 10.2652 16.1754 10.5435C16.1541 10.0972 16.2989 9.73489 16.6096 9.45654Z" fill="#8281BE"/>
<path fill-rule="evenodd" clip-rule="evenodd" d="M86.7388 50.9782C84.0257 51.1232 81.2757 51.1956 78.4883 51.1956C75.6173 51.1915 72.7948 51.0467 70.0207 50.7608C69.7106 46.9943 69.4212 43.226 69.1522 39.4565C69.0658 38.1871 68.921 36.9552 68.7179 35.7608C68.627 33.723 68.4461 31.6939 68.1751 29.6739C64.485 36.7736 60.9025 43.9476 57.4278 51.1956C53.8121 51.4128 50.1934 51.4854 46.5718 51.413C43.0315 44.1784 39.3767 37.0045 35.6073 29.8912C34.9677 36.9967 34.3526 44.098 33.7618 51.1956C28.1842 51.3384 22.6839 51.1936 17.2607 50.7608C21.076 37.7665 24.9118 24.7591 28.768 11.7391C33.3998 11.5941 38.0319 11.5941 42.6637 11.7391C45.6582 19.4321 48.7341 27.0771 51.8912 34.6739C54.8907 27.0717 57.8941 19.463 60.9017 11.8478C65.5335 11.5579 70.1655 11.5579 74.7973 11.8478C78.87 24.8776 82.8507 37.921 86.7388 50.9782Z" fill="#FE0303"/>
<path opacity="0.867" fill-rule="evenodd" clip-rule="evenodd" d="M15.9585 10.978C15.9472 11.5968 15.7301 12.104 15.3071 12.4998C15.3521 11.904 15.5692 11.3967 15.9585 10.978Z" fill="#665CAC"/>
<path opacity="0.278" fill-rule="evenodd" clip-rule="evenodd" d="M15.3071 12.5C15.2622 13.0959 15.0451 13.603 14.6558 14.0217C14.7007 13.4259 14.9178 12.9187 15.3071 12.5Z" fill="#7B7ABB"/>
<path opacity="0.278" fill-rule="evenodd" clip-rule="evenodd" d="M14.6558 14.022C14.6108 14.6178 14.3937 15.125 14.0044 15.5437C14.0493 14.9478 14.2665 14.4407 14.6558 14.022Z" fill="#7574B8"/>
<path fill-rule="evenodd" clip-rule="evenodd" d="M89.5615 14.6738C90.2337 15.7471 90.7403 16.9064 91.0814 18.1521C90.7318 17.6538 90.3701 17.1467 89.9958 16.6303C90.0411 16.503 90.1137 16.3943 90.2129 16.3043C89.8433 15.8184 89.6262 15.2749 89.5615 14.6738Z" fill="#554AA1"/>
<path fill-rule="evenodd" clip-rule="evenodd" d="M13.1359 17.5C13.016 17.898 13.016 18.2602 13.1359 18.587C12.7616 19.1033 12.3999 19.6104 12.0503 20.1087C12.2995 19.1767 12.6615 18.3072 13.1359 17.5Z" fill="#493F9B"/>
<path fill-rule="evenodd" clip-rule="evenodd" d="M91.2983 18.5869C91.7827 19.3121 92.1445 20.1093 92.3839 20.9782C92.2428 20.9121 92.098 20.8397 91.9497 20.7608C91.7293 20.0317 91.5122 19.3069 91.2983 18.5869Z" fill="#4E459F"/>
<path opacity="0.133" fill-rule="evenodd" clip-rule="evenodd" d="M7.70768 29.8911C7.76651 30.2998 7.6217 30.5896 7.27344 30.7607C7.30818 30.4013 7.45278 30.1115 7.70768 29.8911Z" fill="#8988C1"/>
<path opacity="0.133" fill-rule="evenodd" clip-rule="evenodd" d="M7.05614 31.4131C7.0112 32.009 6.79408 32.5161 6.40479 32.9348C6.44973 32.339 6.66685 31.8318 7.05614 31.4131Z" fill="#8382BE"/>
<path opacity="0.278" fill-rule="evenodd" clip-rule="evenodd" d="M97.1606 31.6304C97.5499 32.0491 97.7671 32.5562 97.812 33.1521C97.4227 32.7334 97.2056 32.2262 97.1606 31.6304Z" fill="#7B7ABB"/>
<path opacity="0.278" fill-rule="evenodd" clip-rule="evenodd" d="M6.40477 32.9346C6.35983 33.5304 6.14271 34.0376 5.75342 34.4563C5.79836 33.8604 6.01548 33.3533 6.40477 32.9346Z" fill="#7978BA"/>
<path opacity="0.278" fill-rule="evenodd" clip-rule="evenodd" d="M98.0293 33.5869C98.4186 34.0056 98.6357 34.5128 98.6807 35.1087C98.2914 34.69 98.0742 34.1828 98.0293 33.5869Z" fill="#7978BA"/>
<path opacity="0.412" fill-rule="evenodd" clip-rule="evenodd" d="M5.7539 34.4565C5.70895 35.0524 5.49183 35.5596 5.10254 35.9783C5.14748 35.3824 5.3646 34.8752 5.7539 34.4565Z" fill="#6E6CB4"/>
<path fill-rule="evenodd" clip-rule="evenodd" d="M68.7181 35.7607C68.9211 36.9551 69.0659 38.187 69.1523 39.4564C68.9808 39.2153 68.8722 38.9255 68.8266 38.5868C68.7183 37.6475 68.682 36.7055 68.7181 35.7607Z" fill="#FFBDBE"/>
<path opacity="0.412" fill-rule="evenodd" clip-rule="evenodd" d="M99.5488 37.0654C99.9381 37.4841 100.155 37.9913 100.2 38.5872C99.8109 38.1685 99.5938 37.6613 99.5488 37.0654Z" fill="#6B69B3"/>
<path fill-rule="evenodd" clip-rule="evenodd" d="M17.261 50.7607C22.6842 51.1936 28.1845 51.3384 33.762 51.1955C28.2266 51.4125 22.654 51.4849 17.0439 51.4129C16.9924 51.1323 17.0647 50.9149 17.261 50.7607Z" fill="#FF3334"/>
<path fill-rule="evenodd" clip-rule="evenodd" d="M70.021 50.7607C72.7951 51.0466 75.6177 51.1914 78.4886 51.1955C81.276 51.1955 84.026 51.1231 86.7392 50.9781C86.8571 50.9912 86.9294 51.0636 86.9563 51.1955C81.3131 51.4129 75.668 51.4853 70.021 51.4129C70.021 51.1955 70.021 50.9781 70.021 50.7607Z" fill="#FF3535"/>
<path opacity="0.773" fill-rule="evenodd" clip-rule="evenodd" d="M103.891 50.3262C103.839 51.3305 103.622 52.2725 103.24 53.1523C103.158 52.1147 103.375 51.1725 103.891 50.3262Z" fill="#4B419F"/>
<path fill-rule="evenodd" clip-rule="evenodd" d="M4.88505 53.5869C5.19422 54.025 5.33882 54.5321 5.31928 55.1087C5.01011 54.6706 4.8655 54.1634 4.88505 53.5869Z" fill="#6561B1"/>
<path fill-rule="evenodd" clip-rule="evenodd" d="M71.3238 62.7176C71.5059 61.3752 71.6508 59.9985 71.758 58.5872C71.9908 57.3756 72.7144 56.6148 73.9292 56.3046C75.0148 56.1596 76.1004 56.1596 77.186 56.3046C78.6997 56.6856 79.532 57.6639 79.6829 59.2393C79.8763 61.3541 79.8038 63.4554 79.4657 65.5437C78.356 67.38 76.7277 68.0682 74.5806 67.6089C72.8074 67.2828 71.758 66.2322 71.4323 64.4567C71.3244 63.8815 71.2882 63.3017 71.3238 62.7176Z" fill="#0C0581"/>
<path fill-rule="evenodd" clip-rule="evenodd" d="M24.4258 57.2827C24.3899 58.011 24.4262 58.7355 24.5343 59.4566C24.5847 59.7255 24.6933 59.9429 24.86 60.1088C24.86 60.3262 24.86 60.5436 24.86 60.761C24.8242 61.4892 24.8604 62.2138 24.9686 62.9349C25.0189 63.2038 25.1275 63.4212 25.2942 63.587C25.5101 64.8818 25.6549 66.1862 25.7285 67.5001C24.802 67.5647 23.8973 67.4923 23.0145 67.2827C22.9307 65.1494 22.6411 63.0479 22.146 60.9784C22.0505 61.4927 21.9419 61.9999 21.8203 62.5001C21.5392 63.319 21.3946 64.1886 21.3861 65.1088C21.1636 65.864 21.0187 66.661 20.9519 67.5001C20.0111 67.5001 19.0701 67.5001 18.1293 67.5001C17.9005 65.4616 17.6111 63.4327 17.2608 61.4131C17.116 60.2538 16.9714 60.2538 16.8266 61.4131C16.5834 63.4394 16.3663 65.4684 16.1753 67.5001C15.3068 67.5001 14.4383 67.5001 13.5698 67.5001C13.9509 63.7951 14.4214 60.0994 14.9811 56.4131C16.139 56.1234 17.2971 56.1234 18.455 56.4131C18.9203 58.2042 19.2822 60.0157 19.5406 61.8479C19.9603 60.1286 20.3585 58.3894 20.7348 56.6305C21.9567 56.4142 23.1869 56.3416 24.4258 56.4131C24.4258 56.7029 24.4258 56.9929 24.4258 57.2827Z" fill="#0D0682"/>
<path fill-rule="evenodd" clip-rule="evenodd" d="M41.1441 56.4129C39.7691 56.4129 38.3939 56.4129 37.0189 56.4129C37.0189 60.0361 37.0189 63.6592 37.0189 67.2824C37.7425 67.2824 38.4664 67.2824 39.1901 67.2824C39.1202 66.009 39.1925 64.777 39.4072 63.5868C39.4072 64.8911 39.4072 66.1955 39.4072 67.4998C38.5387 67.4998 37.6702 67.4998 36.8018 67.4998C36.8018 63.7318 36.8018 59.9635 36.8018 56.1955C38.2899 56.125 39.7374 56.1974 41.1441 56.4129Z" fill="#333198"/>
<path fill-rule="evenodd" clip-rule="evenodd" d="M41.1438 56.413C42.7053 56.3458 43.6824 57.0704 44.0749 58.5869C44.5539 60.4593 44.0836 62.0173 42.6636 63.2608C43.1489 64.6099 43.6554 65.9504 44.1835 67.2825C43.3239 67.5347 42.4554 67.571 41.5781 67.3912C41.1304 66.0791 40.6238 64.811 40.0582 63.5869C39.8411 63.2971 39.624 63.2971 39.4069 63.5869C39.1921 64.7771 39.1198 66.0091 39.1897 67.2825C38.4661 67.2825 37.7422 67.2825 37.0186 67.2825C37.0186 63.6593 37.0186 60.0362 37.0186 56.413C38.3936 56.413 39.7688 56.413 41.1438 56.413Z" fill="#070380"/>
<path fill-rule="evenodd" clip-rule="evenodd" d="M58.5138 58.8042C58.2977 61.5918 58.2252 64.4179 58.2966 67.2824C57.5005 67.2824 56.7045 67.2824 55.9083 67.2824C55.9083 64.384 55.9083 61.4853 55.9083 58.5868C55.1122 58.5868 54.3162 58.5868 53.52 58.5868C53.52 57.8622 53.52 57.1374 53.52 56.4129C55.9418 56.1966 58.4026 56.1242 60.9021 56.1955C60.9021 57.065 60.9021 57.9346 60.9021 58.8042C60.1059 58.8042 59.3099 58.8042 58.5138 58.8042Z" fill="#100782"/>
<path fill-rule="evenodd" clip-rule="evenodd" d="M64.5931 56.6307C63.7463 56.4285 62.8778 56.3561 61.9876 56.4133C61.9876 60.0365 61.9876 63.6596 61.9876 67.2828C62.8561 67.2828 63.7246 67.2828 64.5931 67.2828C63.6955 67.497 62.7545 67.5694 61.7705 67.5002C61.7705 63.7322 61.7705 59.9639 61.7705 56.1959C62.8114 56.0661 63.7522 56.2111 64.5931 56.6307Z" fill="#5251A9"/>
<path fill-rule="evenodd" clip-rule="evenodd" d="M64.5927 56.6304C64.5927 58.0071 64.5927 59.384 64.5927 60.7608C65.3889 60.7608 66.1849 60.7608 66.981 60.7608C67.1962 59.3523 67.2685 57.903 67.1982 56.413C67.9943 56.413 68.7903 56.413 69.5865 56.413C69.5865 60.0362 69.5865 63.6593 69.5865 67.2825C68.718 67.2825 67.8495 67.2825 66.981 67.2825C66.981 65.9058 66.981 64.5288 66.981 63.1521C66.1849 63.1521 65.3889 63.1521 64.5927 63.1521C64.5927 64.5288 64.5927 65.9058 64.5927 67.2825C63.7243 67.2825 62.8558 67.2825 61.9873 67.2825C61.9873 63.6593 61.9873 60.0362 61.9873 56.413C62.8775 56.3558 63.746 56.4282 64.5927 56.6304Z" fill="#020180"/>
<path fill-rule="evenodd" clip-rule="evenodd" d="M69.5869 56.413C68.7907 56.413 67.9947 56.413 67.1986 56.413C67.2689 57.903 67.1966 59.3523 66.9814 60.7608C66.9814 59.2391 66.9814 57.7173 66.9814 56.1956C67.8938 56.1267 68.7623 56.1993 69.5869 56.413Z" fill="#3E399D"/>
<path fill-rule="evenodd" clip-rule="evenodd" d="M69.5869 56.4131C69.8033 60.0707 69.8756 63.7663 69.804 67.5C68.82 67.5692 67.879 67.4968 66.9814 67.2827C67.8499 67.2827 68.7184 67.2827 69.5869 67.2827C69.5869 63.6594 69.5869 60.0363 69.5869 56.4131Z" fill="#6867B4"/>
<path fill-rule="evenodd" clip-rule="evenodd" d="M85.2192 56.4131C84.0613 56.4131 82.9032 56.4131 81.7453 56.4131C81.7453 60.1088 81.7453 63.8044 81.7453 67.5001C81.5289 63.7699 81.4566 60.0018 81.5282 56.1957C82.8001 56.1257 84.0305 56.1981 85.2192 56.4131Z" fill="#8C8BC6"/>
<path opacity="0.999" fill-rule="evenodd" clip-rule="evenodd" d="M81.7451 67.5001C81.7451 63.8045 81.7451 60.1088 81.7451 56.4132C82.903 56.4132 84.0611 56.4132 85.219 56.4132C85.9637 58.5228 86.5788 60.6967 87.0645 62.9349C87.1731 60.6897 87.2091 58.4434 87.1731 56.1958C87.9693 56.1958 88.7652 56.1958 89.5614 56.1958C89.5614 59.9638 89.5614 63.7321 89.5614 67.5001C88.331 67.5001 87.1008 67.5001 85.8704 67.5001C85.4398 65.3732 84.897 63.2717 84.242 61.1958C84.1334 63.296 84.0974 65.3975 84.1334 67.5001C83.3373 67.5001 82.5413 67.5001 81.7451 67.5001Z" fill="#0B0581"/>
<path fill-rule="evenodd" clip-rule="evenodd" d="M28.7684 56.4131C30.2159 56.4131 31.6632 56.4131 33.1107 56.4131C33.8691 60.1024 34.5928 63.7981 35.2819 67.5C34.3412 67.5 33.4002 67.5 32.4594 67.5C32.495 66.9159 32.4587 66.3361 32.3508 65.7609C31.41 65.4711 30.4691 65.4711 29.5283 65.7609C29.4052 66.3409 29.2966 66.9205 29.2026 67.5C28.3341 67.5 27.4656 67.5 26.5972 67.5C27.1552 63.7653 27.8788 60.0696 28.7684 56.4131Z" fill="#0D0782"/>
<path fill-rule="evenodd" clip-rule="evenodd" d="M47.2234 56.4131C48.671 56.4131 50.1183 56.4131 51.5658 56.4131C52.2662 60.114 52.9901 63.8096 53.737 67.5C52.7962 67.5 51.8552 67.5 50.9145 67.5C50.9746 66.8592 50.9023 66.2433 50.6973 65.6522C49.7592 65.5437 48.8184 65.5074 47.8748 65.5435C47.9349 66.1844 47.8626 66.8003 47.6577 67.3913C46.7922 67.4998 45.9238 67.5361 45.0522 67.5C45.615 63.7733 46.3387 60.0777 47.2234 56.4131Z" fill="#100883"/>
<path fill-rule="evenodd" clip-rule="evenodd" d="M75.0145 58.3697C76.127 58.1444 76.8144 58.5792 77.0772 59.674C77.222 61.1957 77.222 62.7175 77.0772 64.2392C77.0179 64.6368 76.8368 64.9629 76.5344 65.2175C75.1365 65.716 74.3766 65.2449 74.2546 63.8044C74.1098 62.2827 74.1098 60.761 74.2546 59.2392C74.5534 58.9773 74.8065 58.6875 75.0145 58.3697Z" fill="#F5F4F9"/>
<path fill-rule="evenodd" clip-rule="evenodd" d="M39.6242 58.5869C39.6242 59.4565 39.6242 60.326 39.6242 61.1956C40.0585 61.1956 40.4927 61.1956 40.927 61.1956C40.4695 61.406 39.9627 61.4787 39.4071 61.413C39.3381 60.4278 39.4104 59.4856 39.6242 58.5869Z" fill="#9594CA"/>
<path fill-rule="evenodd" clip-rule="evenodd" d="M39.624 58.5871C40.2461 58.4904 40.7889 58.6354 41.2524 59.0219C41.3972 59.6741 41.3972 60.3263 41.2524 60.9784C41.1693 61.0993 41.0607 61.1717 40.9267 61.1958C40.4925 61.1958 40.0583 61.1958 39.624 61.1958C39.624 60.3263 39.624 59.4567 39.624 58.5871Z" fill="#F2F1F8"/>
<path fill-rule="evenodd" clip-rule="evenodd" d="M53.5199 56.4131C53.5199 57.1377 53.5199 57.8624 53.5199 58.587C54.3161 58.587 55.112 58.587 55.9082 58.587C55.9082 61.4855 55.9082 64.3842 55.9082 67.2827C55.9082 67.355 55.9082 67.4277 55.9082 67.5C55.6919 64.64 55.6196 61.7413 55.6911 58.8044C54.8949 58.8044 54.0989 58.8044 53.3028 58.8044C53.2344 57.9629 53.3067 57.1657 53.5199 56.4131Z" fill="#7373BA"/>
<path fill-rule="evenodd" clip-rule="evenodd" d="M58.5136 58.8042C58.5136 61.7027 58.5136 64.6014 58.5136 67.4999C57.6452 67.4999 56.7767 67.4999 55.9082 67.4999C55.9082 67.4275 55.9082 67.3549 55.9082 67.2825C56.7044 67.2825 57.5003 67.2825 58.2965 67.2825C58.2251 64.4179 58.2976 61.5918 58.5136 58.8042Z" fill="#4C4CA6"/>
<path opacity="0.992" fill-rule="evenodd" clip-rule="evenodd" d="M24.426 57.2827C24.6568 58.1825 24.8016 59.1245 24.8602 60.1088C24.6934 59.9429 24.5849 59.7255 24.5345 59.4566C24.4264 58.7355 24.3901 58.011 24.426 57.2827Z" fill="#4D44A2"/>
<path fill-rule="evenodd" clip-rule="evenodd" d="M30.7222 59.022C31.0576 59.1807 31.2385 59.4705 31.265 59.8915C31.4697 61.0496 31.6508 62.2089 31.8078 63.3698C31.2287 63.3698 30.6499 63.3698 30.0708 63.3698C30.1939 61.9055 30.411 60.4563 30.7222 59.022Z" fill="#DEDBED"/>
<path fill-rule="evenodd" clip-rule="evenodd" d="M49.3944 58.8042C49.7969 60.2772 50.0865 61.799 50.2628 63.3694C49.6838 63.3694 49.1049 63.3694 48.5259 63.3694C48.6568 61.8096 48.9462 60.2879 49.3944 58.8042Z" fill="#E4E2F1"/>
<path fill-rule="evenodd" clip-rule="evenodd" d="M71.7578 58.5869C71.6505 59.9982 71.5057 61.375 71.3235 62.7173C71.2875 61.5556 71.3238 60.3963 71.4321 59.2391C71.4825 58.9702 71.591 58.7528 71.7578 58.5869Z" fill="#5552AA"/>
<path fill-rule="evenodd" clip-rule="evenodd" d="M17.2609 61.413C17.1161 61.413 16.9715 61.413 16.8267 61.413C16.9715 60.2536 17.1161 60.2536 17.2609 61.413Z" fill="#9391C9"/>
<path opacity="0.545" fill-rule="evenodd" clip-rule="evenodd" d="M3.14823 61.4131C3.45741 61.8511 3.60201 62.3583 3.58247 62.9348C3.27329 62.4968 3.12869 61.9896 3.14823 61.4131Z" fill="#5A59AB"/>
<path opacity="0.992" fill-rule="evenodd" clip-rule="evenodd" d="M24.86 60.7607C25.0908 61.6605 25.2357 62.6025 25.2943 63.5868C25.1275 63.421 25.019 63.2036 24.9686 62.9347C24.8605 62.2136 24.8242 61.489 24.86 60.7607Z" fill="#4C42A1"/>
<path opacity="0.133" fill-rule="evenodd" clip-rule="evenodd" d="M100.852 62.0654C100.872 62.642 100.727 63.1491 100.418 63.5872C100.398 63.0106 100.543 62.5035 100.852 62.0654Z" fill="#7170B6"/>
<path fill-rule="evenodd" clip-rule="evenodd" d="M40.0586 63.587C39.701 64.8402 39.4839 66.1446 39.4072 67.5C39.4072 66.1957 39.4072 64.8913 39.4072 63.587C39.6243 63.2972 39.8415 63.2972 40.0586 63.587Z" fill="#B5B5DA"/>
<path fill-rule="evenodd" clip-rule="evenodd" d="M21.8205 62.5C21.886 63.4326 21.7414 64.3022 21.3862 65.1087C21.3947 64.1885 21.5393 63.3189 21.8205 62.5Z" fill="#B5B1D8"/>
<path opacity="0.133" fill-rule="evenodd" clip-rule="evenodd" d="M100.201 64.4565C100.075 65.6107 99.786 66.6976 99.332 67.7174C99.4571 66.5633 99.7465 65.4763 100.201 64.4565Z" fill="#7573B7"/>
<path opacity="0.412" fill-rule="evenodd" clip-rule="evenodd" d="M3.7998 63.8042C4.1815 64.5333 4.39862 65.3305 4.45116 66.1955C4.06947 65.4664 3.85235 64.6692 3.7998 63.8042Z" fill="#6B6AB3"/>
<path opacity="0.278" fill-rule="evenodd" clip-rule="evenodd" d="M4.66797 67.0654C5.04966 67.7946 5.26678 68.5917 5.31933 69.4567C4.93763 68.7276 4.72051 67.9304 4.66797 67.0654Z" fill="#7675B8"/>
<path opacity="0.278" fill-rule="evenodd" clip-rule="evenodd" d="M99.332 67.7173C99.2795 68.5823 99.0624 69.3795 98.6807 70.1086C98.7332 69.2436 98.9503 68.4464 99.332 67.7173Z" fill="#7776B9"/>
<path opacity="0.133" fill-rule="evenodd" clip-rule="evenodd" d="M5.31962 69.4565C5.62879 69.8946 5.77339 70.4018 5.75385 70.9783C5.44468 70.5402 5.30007 70.0331 5.31962 69.4565Z" fill="#7776B9"/>
<path opacity="0.278" fill-rule="evenodd" clip-rule="evenodd" d="M98.6805 70.1089C98.5304 71.2171 98.2771 72.3041 97.9206 73.3698C97.7692 73.8228 97.5159 74.1852 97.1606 74.4567C97.7367 73.0119 98.2434 71.5626 98.6805 70.1089Z" fill="#7877B9"/>
<path opacity="0.133" fill-rule="evenodd" clip-rule="evenodd" d="M5.75342 70.978C6.16703 71.7859 6.45667 72.6554 6.62189 73.5867C6.12122 72.8074 5.8318 71.9378 5.75342 70.978Z" fill="#8281BE"/>
<path opacity="0.133" fill-rule="evenodd" clip-rule="evenodd" d="M7.49043 75.1089C7.7957 75.2117 7.94052 75.4291 7.92467 75.7611C7.6194 75.6582 7.47458 75.4408 7.49043 75.1089Z" fill="#7C7ABB"/>
</g>
<defs>
<clipPath id="clip0_4623_24901">
<rect width="104" height="80" fill="white"/>
</clipPath>
</defs>
</svg>
