<svg width="740" height="80" viewBox="0 0 740 80" fill="none" xmlns="http://www.w3.org/2000/svg">
<path opacity="0.993" fill-rule="evenodd" clip-rule="evenodd" d="M571.5 0.166701C580.46 -0.183299 589.347 0.430034 598.167 2.00003C607.513 3.59003 615.457 7.7567 622 14.5C627.67 21.8867 630.28 30.2767 629.833 39.6667C630.41 56.7534 622.853 68.5334 607.167 75C599.727 77.63 592.06 79.0734 584.167 79.3334C574.837 79.8967 565.503 79.23 556.167 77.3334C535.95 72.8967 525.84 60.34 525.833 39.6667C525.28 28.34 529.057 18.7834 537.167 11C543.223 6.46003 550.003 3.46003 557.5 2.00003C562.183 1.13003 566.85 0.516701 571.5 0.166701ZM575.167 24.5C583.23 23.5167 588.063 26.96 589.667 34.8334C590.64 40.4334 589.863 45.7667 587.333 50.8334C583.907 54.3667 579.74 55.6467 574.833 54.6667C570.223 53.61 567.39 50.7767 566.333 46.1667C565.127 41.1034 565.35 36.1034 567 31.1667C568.623 27.5567 571.343 25.3334 575.167 24.5Z" fill="#C82637"/>
<path opacity="0.991" fill-rule="evenodd" clip-rule="evenodd" d="M5.16659 2.50018C21.2779 2.44352 37.3893 2.50018 53.4999 2.66685C57.5536 14.6068 61.6093 26.5502 65.6666 38.5002C69.6453 26.6202 73.5896 14.7302 77.4999 2.83352C93.8316 2.50018 110.165 2.39018 126.5 2.50018C126.5 27.5002 126.5 52.5002 126.5 77.5002C114.167 77.5002 101.833 77.5002 89.4999 77.5002C89.5556 65.0569 89.4999 52.6102 89.3333 40.1669C85.0429 52.5368 80.6539 64.8702 76.1666 77.1669C69.0589 77.5002 61.9479 77.6102 54.8333 77.5002C50.6579 64.9202 46.3803 52.3635 41.9999 39.8335C41.8333 52.3902 41.7776 64.9435 41.8333 77.5002C29.6089 77.6102 17.3869 77.5002 5.16659 77.1669C5.09692 76.9702 4.98559 76.8035 4.83325 76.6669C5.15659 51.9735 5.26759 27.2535 5.16659 2.50018Z" fill="#C82637"/>
<path opacity="0.99" fill-rule="evenodd" clip-rule="evenodd" d="M159.167 2.50018C177.168 2.39018 195.168 2.50018 213.167 2.83352C223.801 27.6569 234.246 52.5469 244.5 77.5002C230.833 77.5569 217.166 77.5002 203.5 77.3335C202.434 74.4702 201.434 71.5802 200.5 68.6669C192.167 68.4435 183.833 68.4435 175.5 68.6669C174.444 71.5569 173.555 74.5035 172.833 77.5002C159.056 77.5002 145.278 77.5002 131.5 77.5002C140.525 52.4268 149.747 27.4268 159.167 2.50018ZM187.833 23.8335C190.109 31.5569 192.332 39.3335 194.5 47.1669C190.06 47.5569 185.615 47.6102 181.167 47.3335C183.558 39.5502 185.78 31.7169 187.833 23.8335Z" fill="#C82637"/>
<path opacity="0.991" fill-rule="evenodd" clip-rule="evenodd" d="M233.167 2.5C261.167 2.5 289.167 2.5 317.167 2.5C317.167 11.5 317.167 20.5 317.167 29.5C309.61 29.5 302.056 29.5 294.5 29.5C294.5 45.5 294.5 61.5 294.5 77.5C281.531 77.61 268.587 77.5 255.667 77.1667C255.5 61.2767 255.444 45.39 255.5 29.5C247.944 29.5567 240.388 29.5 232.833 29.3333C232.753 20.4267 232.864 11.4833 233.167 2.5Z" fill="#C82637"/>
<path opacity="0.99" fill-rule="evenodd" clip-rule="evenodd" d="M335.5 2.49982C353.5 2.44315 371.5 2.49982 389.5 2.66648C400.1 27.4765 410.653 52.3098 421.167 77.1665C407.39 77.6098 393.61 77.6098 379.833 77.1665C378.943 74.3898 378.057 71.6098 377.167 68.8331C368.727 68.4998 360.28 68.3898 351.833 68.4998C351.113 71.4965 350.223 74.4431 349.167 77.3331C335.39 77.5565 321.61 77.5565 307.833 77.3331C317.157 52.4198 326.377 27.4765 335.5 2.49982ZM364.5 24.1665C366.747 31.8498 368.967 39.5731 371.167 47.3331C366.833 47.4998 362.5 47.5565 358.167 47.4998C360.173 39.6931 362.287 31.9165 364.5 24.1665Z" fill="#C82637"/>
<path opacity="0.991" fill-rule="evenodd" clip-rule="evenodd" d="M423.167 2.5C442.29 2.50333 461.347 2.50333 480.333 2.5C487.217 2.86 493.937 4.13667 500.5 6.33333C514 11.73 520.777 21.73 520.833 36.3333C520.16 53.8867 511.827 66.22 495.833 73.3333C490.09 75.6433 484.147 77.0333 478 77.5C459.79 77.4967 441.513 77.4967 423.167 77.5C423.167 52.5 423.167 27.5 423.167 2.5ZM460.167 25.1667C464.817 24.8633 469.37 25.3633 473.833 26.6667C479.583 29.0967 482.473 33.4867 482.5 39.8333C482.523 48.2533 478.3 53.0867 469.833 54.3333C466.627 54.7633 463.403 54.93 460.167 54.8333C460.167 44.9433 460.167 35.0567 460.167 25.1667Z" fill="#C82637"/>
<path opacity="0.989" fill-rule="evenodd" clip-rule="evenodd" d="M634.167 2.5C655.403 2.50333 676.57 2.50333 697.667 2.5C703.917 2.79333 709.973 4.07333 715.833 6.33333C724.06 10.1133 728.17 16.56 728.167 25.6667C728.27 32.1367 726.437 37.97 722.667 43.1667C720.153 45.7867 717.207 47.7867 713.833 49.1667C720.723 58.5 727.61 67.8333 734.5 77.1667C721.5 77.61 708.5 77.61 695.5 77.1667C689.563 69.2867 683.563 61.4533 677.5 53.6667C676.06 53.5 674.617 53.4433 673.167 53.5C673.167 61.5 673.167 69.5 673.167 77.5C660.197 77.61 647.253 77.5 634.333 77.1667C634.167 52.2767 634.11 27.39 634.167 2.5ZM673.167 22.1667C678.39 22.11 683.613 22.1667 688.833 22.3333C694.37 24.1567 695.98 27.7667 693.667 33.1667C692.78 34.3867 691.613 35.22 690.167 35.6667C684.52 36.1467 678.853 36.3133 673.167 36.1667C673.167 31.5 673.167 26.8333 673.167 22.1667Z" fill="#C82637"/>
</svg>
