<svg width="326" height="80" viewBox="0 0 326 80" fill="none" xmlns="http://www.w3.org/2000/svg">
<g clip-path="url(#clip0_4623_12961)">
<path fill-rule="evenodd" clip-rule="evenodd" d="M298.892 8.45649C298.892 8.40381 298.889 8.34782 298.889 8.29183V0.0102539H290.642L290.633 0.0228435C290.572 0.0228435 290.509 0.0102539 290.448 0.0102539C285.781 0.0102539 282.005 3.79705 282.005 8.45649C282.005 8.50718 282.005 8.56151 282.005 8.62115V79.9957H298.889V8.62115C298.889 8.56151 298.892 8.50718 298.892 8.45649Z" fill="#E31019"/>
<path fill-rule="evenodd" clip-rule="evenodd" d="M325.974 8.45649C325.974 8.40381 325.965 8.34782 325.965 8.29183V0.0102539H317.728L317.715 0.0228435C317.65 0.0228435 317.592 0.0102539 317.529 0.0102539C312.872 0.0102539 309.084 3.79705 309.084 8.45649C309.084 8.50718 309.094 8.56151 309.094 8.62115V79.9957H325.965V8.62115C325.965 8.56151 325.974 8.50718 325.974 8.45649Z" fill="#E31019"/>
<path fill-rule="evenodd" clip-rule="evenodd" d="M273.862 59.4986L256.837 59.4711V71.0355H234.337V51.6563H273.727V47.8775H273.76V24.2009C273.76 19.5941 270.069 15.8544 265.477 15.7729L265.471 15.7583H225.901C221.238 15.7583 217.466 19.5325 217.466 24.1919C217.466 24.2479 217.466 24.3003 217.466 24.351V71.5563C217.466 76.2161 221.257 79.9956 225.911 79.9956H265.347C269.988 79.9956 273.759 76.2608 273.788 71.6322L273.862 71.5563V59.4986ZM256.837 24.0091V43.3956H234.337V24.351C234.337 24.3003 234.348 24.2479 234.348 24.1919C234.348 24.1356 234.337 24.0922 234.337 24.0415V24.0091H256.837Z" fill="#E31019"/>
<path fill-rule="evenodd" clip-rule="evenodd" d="M145.274 25.0898C145.309 24.7982 145.319 24.5034 145.319 24.2009C145.319 19.5941 141.621 15.8544 137.026 15.7729L137.022 15.7583H97.4503C92.7842 15.7583 89.0097 19.5325 89.0097 24.1919C89.0097 24.2479 89.0097 24.3003 89.0097 24.3477L88.9915 36.4246L105.891 36.4011V24.351C105.891 24.3003 105.895 24.2479 105.895 24.1919C105.895 24.1356 105.891 24.0922 105.891 24.0415V24.0091H128.398V43.3956H89.0097V71.5563C89.0097 76.2161 92.7879 79.9956 97.4576 79.9956H145.274V51.6563H145.289V43.3956H145.274V25.0898ZM105.891 51.6563H128.398V71.0355H105.891V51.6563Z" fill="#E31019"/>
<path fill-rule="evenodd" clip-rule="evenodd" d="M80.5346 24.0922C80.4785 19.4855 76.7288 15.7583 72.1082 15.7583H56.1814C52.6784 15.7583 49.668 17.9088 48.3926 20.9535C47.1593 18.0228 44.3157 15.916 40.9628 15.7729L40.9446 15.7583H24.6956C21.1472 15.7583 18.1076 17.9558 16.8614 21.0532V15.7583H0V79.9956H16.8614V24.1883H32.1128V28.2103C32.129 28.1921 32.1343 28.1742 32.1526 28.1596V79.9956H49.0232V28.6519C49.0285 28.6519 49.0358 28.6649 49.0378 28.6718V24.1883H63.767V79.9956H80.6397V24.1919L80.5346 24.0922Z" fill="#E31019"/>
<path fill-rule="evenodd" clip-rule="evenodd" d="M189.099 44.1742L212.549 15.7583H202.429L184.475 37.5743L172.311 20.2365L172.235 20.2024C170.807 17.5523 168.013 15.7583 164.8 15.7583C164.579 15.7583 164.364 15.7729 164.143 15.7818L164.092 15.7583H149.545L173.852 50.4513L149.545 79.9956H159.522L178.476 57.0446L191.612 75.7804L191.764 75.8825C193.235 78.3424 195.928 79.9956 199.009 79.9956H214.213L189.099 44.1742Z" fill="#E31019"/>
</g>
<defs>
<clipPath id="clip0_4623_12961">
<rect width="326" height="80" fill="white"/>
</clipPath>
</defs>
</svg>
