<svg width="437" height="80" viewBox="0 0 437 80" fill="none" xmlns="http://www.w3.org/2000/svg">
<path opacity="0.994" fill-rule="evenodd" clip-rule="evenodd" d="M126.832 77.8916C109.874 77.8358 92.8985 77.7982 75.9061 77.7777C75.6216 77.7971 75.3371 77.8153 75.0526 77.8347C75.4161 77.8552 75.7576 77.9122 76.0768 78.0056C75.3878 78.0854 74.705 77.9908 74.0283 77.7207C72.9827 76.8261 72.2051 75.7435 71.6954 74.4728C71.5723 73.7207 71.5154 72.9606 71.5247 72.1936C71.757 68.7384 71.9277 65.282 72.0368 61.8233C69.384 67.1931 66.7476 72.5686 64.1276 77.9486C59.5484 77.968 54.9774 78.025 50.4144 78.1196C47.7863 78.025 45.1498 77.968 42.5052 77.9486C41.664 72.6859 40.7916 67.4255 39.8877 62.1651C38.4766 67.4267 37.073 72.6882 35.677 77.9486C24.2589 78.0056 12.8408 78.025 1.42261 78.0056C9.58712 52.6996 17.743 27.381 25.8901 2.05119C25.948 1.91797 26.0428 1.82304 26.1746 1.76629C36.3464 1.81392 47.3094 1.81392 59.0634 1.76629C59.1393 1.8423 59.2151 1.9182 59.291 1.99421C60.0685 9.11592 60.903 16.2195 61.7946 23.3047C64.8135 16.3246 67.8103 9.33495 70.785 2.33609C70.856 2.07922 71.0077 1.88925 71.2402 1.76629C82.1652 1.76629 93.0902 1.76629 104.015 1.76629C104.314 17.0975 104.579 32.4443 104.812 47.8062C112.663 32.556 120.496 17.3046 128.312 2.05119C128.463 1.97518 128.616 1.89928 128.767 1.82327C141.453 1.81677 152.7 1.79774 162.509 1.76629C162.586 1.8423 162.661 1.9182 162.737 1.99421C166.62 20.942 170.603 39.8597 174.686 58.7463C180.742 51.5817 186.754 44.3828 192.724 37.1509C186.459 25.4591 180.238 13.7402 174.06 1.99421C174.096 1.90213 174.153 1.82612 174.231 1.76629C186.313 1.81369 199.287 1.81369 213.151 1.76629C214.258 4.47956 215.319 7.21461 216.338 9.97141C218.159 7.23637 219.979 4.50133 221.8 1.76629C241.705 1.74087 263.005 1.77882 285.7 1.88025C286.605 4.57905 287.61 7.23808 288.716 9.85746C290.48 7.17939 292.244 4.50133 294.008 1.82327C316.909 1.74646 338.722 1.76549 359.444 1.88025C358.985 4.95842 358.512 8.03535 358.021 11.111C357.945 11.4529 357.945 11.7948 358.021 12.1367C368.784 2.67535 381.245 -0.876335 395.405 1.48139C401.103 2.43238 406.301 4.55968 410.996 7.86315C411.967 8.6652 412.915 9.48196 413.841 10.3133C409.917 17.5632 405.934 24.7806 401.892 31.9657C406.79 35.8894 409.142 41.0176 408.948 47.3503C408.29 58.6062 403.169 67.1349 393.585 72.9344C388.576 75.8472 383.227 77.7082 377.538 78.5184C374.479 78.8956 371.389 79.1429 368.264 79.2592C367.728 79.1726 367.196 79.0586 366.67 78.9173C360.301 78.5173 354.118 77.1122 348.121 74.7008C347.857 75.7526 347.648 76.8159 347.495 77.8916C339.995 77.968 332.504 78.0443 325.019 78.1196C324.937 78.0557 324.841 78.0181 324.734 78.0056C324.178 78.0728 323.628 78.148 323.084 78.2335C320.991 78.0854 318.867 78.0854 316.711 78.2335C315.877 78.1572 315.042 78.082 314.208 78.0056C306.249 77.9737 298.207 78.0124 290.082 78.1196C288.668 78.0261 287.246 77.9691 285.814 77.9486C285.651 77.8951 285.518 77.8005 285.416 77.6637C283.944 73.6979 282.426 69.7469 280.864 65.8119C277.962 69.8575 275.06 73.903 272.158 77.9486C252.492 78.1104 232.843 78.0922 213.208 77.8916C211.667 73.8518 210.094 69.8244 208.485 65.8119C205.653 69.9076 202.751 73.9532 199.78 77.9486C180.51 78.0056 161.238 78.025 141.968 78.0056C141.673 75.2694 141.37 72.5344 141.058 69.8005C137.405 69.805 133.782 69.805 130.19 69.8005C129.057 72.5002 127.939 75.1976 126.832 77.8916ZM252.584 13.96C256.772 21.6625 260.906 29.4118 264.988 37.2079C258.12 45.3959 251.273 53.601 244.447 61.8233C240.235 54.0717 236.081 46.2848 231.986 38.4614C238.811 30.2587 245.677 22.0915 252.584 13.96ZM322.344 16.923C322.415 16.9705 322.454 17.0465 322.458 17.1509C320.229 31.4768 317.972 45.7982 315.687 60.1139C311.889 52.8683 308.077 45.6318 304.25 38.4045C310.263 31.225 316.295 24.0645 322.344 16.923ZM352.73 44.9572C353.012 44.9857 353.012 45.0609 352.73 45.1851C352.62 45.1315 352.62 45.0552 352.73 44.9572Z" fill="#080808"/>
<path fill-rule="evenodd" clip-rule="evenodd" d="M378.904 6.43863C379.246 6.46211 379.548 6.38621 379.815 6.21071C387.328 4.86097 394.649 5.52581 401.778 8.20501C403.636 8.96467 405.419 9.87635 407.127 10.9401C407.351 11.1064 407.54 11.2964 407.696 11.5099C404.675 17.1815 401.564 22.8035 398.364 28.376C398.204 28.4118 398.052 28.3739 397.909 28.262C395.269 26.4571 392.424 25.0516 389.374 24.0455C387.157 23.5422 384.919 23.4283 382.66 23.7036C381.082 23.9897 379.925 24.8444 379.189 26.2677C378.749 27.8009 379.261 28.8456 380.725 29.4016C383.604 30.2639 386.525 30.948 389.488 31.4529C393.425 32.3794 396.953 34.1275 400.071 36.695C402.333 38.85 403.641 41.4905 403.997 44.6153C404.53 52.0534 402.292 58.5116 397.283 63.9885C392.814 68.3064 387.56 71.2512 381.522 72.8204C378.941 73.454 376.323 73.8711 373.669 74.074C363.829 74.7532 354.535 72.8534 345.788 68.376C345.648 68.2871 345.534 68.1731 345.446 68.0341C348.901 61.7412 352.429 55.4916 356.03 49.2876C358.556 51.5589 361.364 53.4016 364.451 54.8147C366.047 55.4005 367.678 55.8563 369.345 56.1822C372.082 56.6346 374.623 56.1412 376.969 54.7007C378.216 53.674 378.614 52.401 378.164 50.8831C377.88 50.4466 377.519 50.0854 377.083 49.8005C376.379 49.4893 375.658 49.2238 374.921 49.0027C371.696 48.5936 368.509 47.9851 365.362 47.1794C362.538 46.3167 359.997 44.9492 357.737 43.0768C354.849 40.3076 353.407 36.9081 353.412 32.8774C353.926 25.666 356.847 19.6451 362.175 14.8147C367.08 10.6877 372.656 7.89572 378.904 6.43863Z" fill="#FD4603"/>
<path opacity="0.882" fill-rule="evenodd" clip-rule="evenodd" d="M379.814 6.21094C379.548 6.38644 379.245 6.46233 378.904 6.43886C379.178 6.29436 379.481 6.21834 379.814 6.21094Z" fill="#922C06"/>
<path fill-rule="evenodd" clip-rule="evenodd" d="M57.2993 27.2934C57.2564 27.8578 57.3321 28.3895 57.5269 28.8888C57.9338 32.2632 58.2941 35.6432 58.608 39.0312C58.6813 39.8518 58.852 40.6495 59.1201 41.4244C59.4732 40.8307 59.7956 40.2233 60.0874 39.601C64.741 28.6074 69.4259 17.6482 74.142 6.72355C82.6012 6.66657 91.0605 6.64754 99.5198 6.66657C99.6526 19.2776 99.7474 31.8894 99.8043 44.5013C99.9094 48.2689 100.004 52.0295 100.089 55.7834C99.9375 59.6774 99.9375 63.5897 100.089 67.5213C100.158 67.5076 100.196 67.4689 100.203 67.4073C109.977 48.2506 119.782 29.105 129.62 9.97142C130.195 8.897 130.707 7.79535 131.157 6.66657C140.375 6.62862 149.593 6.66657 158.811 6.78053C163.166 27.3492 167.471 47.9384 171.727 68.5469C171.807 68.8694 171.921 69.1726 172.069 69.4586C180.872 58.915 189.653 48.3543 198.414 37.7777C192.997 27.4168 187.534 17.0844 182.026 6.78053C191.358 6.62862 200.69 6.62862 210.022 6.78053C211.341 10.2316 212.649 13.6885 213.948 17.1509C214.284 18.5466 214.568 19.952 214.801 21.3674C214.878 21.6714 214.953 21.6714 215.029 21.3674C215.849 19.7679 216.741 18.2104 217.703 16.6951C219.885 13.3712 222.065 10.0474 224.247 6.72355C233.579 6.64754 242.91 6.64754 252.242 6.72355C251.465 7.73016 250.687 8.73689 249.909 9.7435C242.902 17.9655 235.923 26.2086 228.97 34.4728C228.057 35.5965 227.165 36.7361 226.295 37.8916C231.977 48.7794 237.744 59.6056 243.593 70.3703C252.664 59.5395 261.692 48.6757 270.678 37.7777C265.203 27.4389 259.741 17.0875 254.291 6.72355C263.622 6.64754 272.954 6.64754 282.286 6.72355C283.706 10.1973 285.053 13.711 286.326 17.2649C286.687 18.6929 286.952 20.1364 287.123 21.5953C287.968 20.3215 288.726 18.9919 289.399 17.6067C291.769 13.998 294.141 10.3893 296.511 6.78053C305.843 6.62862 315.175 6.62862 324.507 6.78053C315.879 17.1486 307.23 27.5 298.56 37.8347C304.1 48.3783 309.657 58.9196 315.232 69.4586C315.882 70.6848 316.47 71.9384 316.996 73.2193C307.625 73.2569 298.256 73.2193 288.887 73.1053C286.697 67.7298 284.629 62.2985 282.684 56.809C282.57 56.2016 282.457 55.5931 282.343 54.9857C281.898 55.535 281.48 56.1047 281.091 56.6951C280.771 57.4119 280.391 58.0956 279.953 58.7463C276.52 63.5703 273.087 68.3954 269.654 73.2193C251.938 73.3708 234.224 73.3708 216.508 73.2193C214.552 68.0444 212.561 62.8785 210.534 57.7207C210.376 56.8067 210.205 55.8951 210.022 54.9857C209.177 56.2575 208.362 57.5498 207.575 58.8603C204.196 63.5931 200.839 68.3406 197.503 73.1053C180.433 73.2193 163.363 73.2569 146.292 73.2193C145.936 70.4671 145.632 67.7139 145.382 64.9572C139.199 64.9002 133.015 64.8808 126.832 64.9002C125.808 67.6751 124.746 70.4489 123.646 73.2193C107.865 73.2387 92.0847 73.2193 76.3042 73.1623C76.2321 72.9264 76.194 72.6791 76.1904 72.4216C76.2668 71.7743 76.3616 71.1281 76.4749 70.4842C76.4916 68.6928 76.5864 66.907 76.7594 65.1281C76.8745 64.0466 76.9503 62.9446 76.987 61.8233C77.3467 54.752 77.7641 47.6865 78.2388 40.6267C78.4131 40.0854 78.489 39.5156 78.4664 38.9173C78.4853 38.2324 78.4663 37.5486 78.4095 36.866C77.6499 38.6928 76.8912 40.5161 76.1335 42.3361C71.1452 52.6301 66.1568 62.9253 61.1685 73.2193C56.3136 73.3332 51.458 73.3708 46.6019 73.3332C45.2323 64.6324 43.8476 55.9338 42.4481 47.2364C42.1838 45.421 41.9942 43.5976 41.8791 41.7663C41.7854 40.1435 41.8044 38.5287 41.936 36.923C41.716 36.8945 41.5074 36.8375 41.3101 36.752C38.2198 48.7874 35.1661 60.8295 32.149 72.8774C24.1069 73.029 16.065 73.029 8.02295 72.8774C15.2213 50.8649 22.3528 28.832 29.4177 6.78053C37.915 6.62862 46.4122 6.62862 54.9094 6.78053C55.8364 13.5997 56.6331 20.4373 57.2993 27.2934ZM252.584 13.96C245.677 22.0915 238.811 30.2587 231.985 38.4614C236.081 46.2848 240.235 54.0717 244.447 61.8233C251.273 53.601 258.12 45.3959 264.988 37.2079C260.906 29.4118 256.772 21.6625 252.584 13.96Z" fill="#FD4603"/>
<path fill-rule="evenodd" clip-rule="evenodd" d="M328.945 6.66657C337.252 6.62862 345.56 6.66657 353.868 6.78053C350.827 26.0808 347.772 45.3777 344.706 64.6723C344.252 67.5156 343.854 70.3646 343.512 73.2193C335.165 73.2569 326.82 73.2193 318.475 73.1053C321.994 50.9674 325.483 28.8216 328.945 6.66657Z" fill="#FD4603"/>
<path opacity="0.97" fill-rule="evenodd" clip-rule="evenodd" d="M426.473 11.5669C428.79 11.579 430.991 12.2058 433.074 13.4472C435.402 15.1597 436.332 17.4579 435.862 20.3418C435.428 22.4059 434.423 24.1343 432.846 25.527C429.021 28.4458 424.754 29.4525 420.043 28.547C418.505 27.958 417.177 27.0463 416.06 25.8119C414.568 23.8606 414.227 21.7334 415.036 19.4301C416.726 15.3439 419.742 12.8558 424.083 11.9658C424.896 11.8301 425.693 11.6972 426.473 11.5669ZM425.221 13.7321C425.978 13.7644 426.718 13.7644 427.441 13.7321C429.53 13.8856 431.237 14.7594 432.562 16.3532C433.9 19.0815 433.559 21.5887 431.537 23.8746C428.269 26.7407 424.57 27.4814 420.442 26.0968C417.817 24.9254 416.775 22.9311 417.312 20.1139C418.066 17.6325 419.602 15.8282 421.921 14.7008C422.998 14.2461 424.097 13.9231 425.221 13.7321ZM424.083 17.2649C425.332 17.2917 426.622 17.3107 427.953 17.3219C428.87 17.6556 429.041 18.2063 428.465 18.9743C428.184 19.2195 427.862 19.3905 427.497 19.4871C426.247 19.5441 424.995 19.5631 423.742 19.5441C423.905 18.7922 424.019 18.0325 424.083 17.2649Z" fill="#070808"/>
<path opacity="0.968" fill-rule="evenodd" clip-rule="evenodd" d="M421.921 15.6695C423.968 15.6771 425.959 15.6771 427.896 15.6695C430.889 15.6606 431.762 17.0281 430.513 19.772C430.243 20.0881 429.919 20.3349 429.546 20.5128C428.922 20.6687 428.315 20.8585 427.725 21.0826C428.332 22.2601 428.94 23.4378 429.546 24.6153C428.633 24.7102 427.723 24.6911 426.815 24.5584C426.283 23.4188 425.753 22.2792 425.222 21.1396C424.572 20.9736 423.965 20.9357 423.401 21.0256C423.22 22.2157 422.973 23.3934 422.661 24.5584C421.894 24.6699 421.116 24.7079 420.328 24.6723C420.871 21.6736 421.402 18.6727 421.921 15.6695ZM424.084 17.2649C424.019 18.0326 423.905 18.7922 423.742 19.5441C424.995 19.5632 426.247 19.5441 427.498 19.4871C427.862 19.3905 428.184 19.2196 428.465 18.9743C429.041 18.2063 428.87 17.6556 427.953 17.3219C426.623 17.3107 425.332 17.2917 424.084 17.2649Z" fill="#080808"/>
<path opacity="0.875" fill-rule="evenodd" clip-rule="evenodd" d="M214.802 21.3674C214.878 21.3674 214.953 21.3674 215.029 21.3674C214.953 21.6714 214.878 21.6714 214.802 21.3674Z" fill="#762406"/>
<path opacity="0.922" fill-rule="evenodd" clip-rule="evenodd" d="M57.2992 27.2935C57.4294 27.8022 57.5052 28.3339 57.5268 28.8889C57.3321 28.3896 57.2563 27.8579 57.2992 27.2935Z" fill="#A83206"/>
<path fill-rule="evenodd" clip-rule="evenodd" d="M141.513 29.0029C141.774 28.9737 142.02 29.0117 142.253 29.1169C142.29 31.5864 142.329 34.0548 142.366 36.5243C142.785 40.661 143.146 44.8012 143.448 48.9459C140.26 48.9835 137.074 48.9459 133.888 48.832C136.376 42.1813 138.918 35.5716 141.513 29.0029Z" fill="#0B0907"/>
<path opacity="0.882" fill-rule="evenodd" clip-rule="evenodd" d="M78.4666 38.9175C78.4892 39.5158 78.4132 40.0856 78.239 40.6269C78.2513 40.0332 78.3272 39.4633 78.4666 38.9175Z" fill="#952D06"/>
<path opacity="0.882" fill-rule="evenodd" clip-rule="evenodd" d="M100.089 55.7834C100.051 59.6775 100.089 63.5521 100.203 67.4074C100.196 67.4689 100.158 67.5077 100.089 67.5213C99.9375 63.5897 99.9375 59.6775 100.089 55.7834Z" fill="#B33404"/>
<path opacity="0.882" fill-rule="evenodd" clip-rule="evenodd" d="M76.9871 61.8235C76.9503 62.9449 76.8745 64.0468 76.7595 65.1283C76.7187 64.0013 76.7945 62.9004 76.9871 61.8235Z" fill="#A13006"/>
<path opacity="0.125" fill-rule="evenodd" clip-rule="evenodd" d="M126.832 77.8918C126.675 77.975 126.505 78.0513 126.32 78.1197C109.573 78.073 92.8252 78.0342 76.0767 78.0058C75.7575 77.9123 75.4161 77.8553 75.0525 77.8348C75.337 77.8154 75.6215 77.7972 75.906 77.7778C92.8985 77.7983 109.874 77.836 126.832 77.8918Z" fill="#130D0A"/>
</svg>
