<svg width="263" height="80" viewBox="0 0 263 80" fill="none" xmlns="http://www.w3.org/2000/svg">
<g clip-path="url(#clip0_4623_5219)">
<path fill-rule="evenodd" clip-rule="evenodd" d="M5.24976 68.7765H262.235V25.448H5.24976V68.7765Z" fill="#0061A9"/>
<path fill-rule="evenodd" clip-rule="evenodd" d="M214.441 60.2944H5.24976V62.9039H213.527L214.441 60.2944Z" fill="#FFE822"/>
<path fill-rule="evenodd" clip-rule="evenodd" d="M82.6851 35.4988L75.7648 45.938C75.7648 45.938 76.287 40.4567 76.287 39.152C76.4175 38.1082 76.287 35.4973 73.8051 35.4973H62.9669L55.916 54.8115H64.4044L69.4971 40.8466L68.4528 54.8115H76.0259L85.2975 41.1075L80.2048 54.8115H88.6917L95.8746 35.4973L82.6851 35.4988ZM128.91 54.4216C128.388 54.5521 125.253 55.203 121.728 55.203C115.722 55.4654 110.368 52.9849 110.368 48.6779C110.238 40.9771 117.941 36.802 123.687 35.7567C126.167 35.2348 131.129 34.5825 135.961 35.7567L133.087 42.5427C132.306 40.7161 130.215 40.7161 129.302 40.7161C127.342 40.5856 125.514 41.2395 124.339 41.7599C121.466 43.0646 118.986 47.2397 123.034 48.9373C125.253 49.8506 128.127 49.0678 131.131 48.6764L128.91 54.4216ZM215.878 54.813H206.605L213.657 35.4988H223.06L215.878 54.813ZM103.446 54.813H94.1761L101.227 35.4988H110.629L103.446 54.813ZM153.982 35.4988L151.502 42.4152H146.668L149.281 35.4988H140.401L133.219 54.813H142.098L144.58 48.2865H149.281L146.931 54.813H155.81L162.991 35.4988H153.982ZM196.943 48.4169L201.644 35.4988H192.503L185.452 54.813H203.733L206.084 48.4169H196.943ZM246.173 35.4988L241.21 48.8098C241.34 47.5051 241.603 42.1543 241.733 39.152C241.864 37.8472 241.603 36.9339 240.95 36.2801C240.167 35.4973 239.253 35.4973 239.253 35.4973H228.413L221.232 54.8115H229.198L234.16 41.1075L233.638 54.8115H246.826L254.009 35.4973L246.173 35.4988ZM171.871 49.5927L172.654 47.5051H182.841L184.537 42.6762H174.351L175.136 40.5886H185.844L187.671 35.4988H168.216L161.033 54.813H180.882L182.711 49.5927H171.871Z" fill="white"/>
<path fill-rule="evenodd" clip-rule="evenodd" d="M56.6992 44.3724C57.2213 43.4591 56.5686 41.763 55.3922 40.4568C54.3479 39.1521 52.9119 38.7606 52.7813 38.1083C54.2173 35.2364 52.6508 32.7575 50.4315 31.7137C50.4981 31.0221 50.3894 30.3249 50.1157 29.6862C49.8419 29.0475 49.4118 28.488 48.865 28.059C49.3872 26.8847 50.0399 23.623 47.5595 21.6644C48.6039 17.6183 44.4265 15.2698 42.2057 15.1393C41.1599 14.355 39.7239 13.8331 37.7642 13.7026C39.2017 11.6136 38.8086 8.87368 37.11 7.30802C37.2405 5.09001 35.674 3.00096 33.4532 2.21813C32.67 0.391535 28.491 0.652477 28.0994 2.34861C25.6191 3.26191 24.1816 5.87284 24.4427 8.35179C23.0052 9.91745 23.0052 12.5284 24.4427 14.355C23.1357 14.2245 21.3081 14.6159 20.1332 15.1378H20.0026C18.9583 14.6159 17.9124 14.355 16.7375 14.6159C16.4764 14.355 15.6932 14.094 15.171 13.9636C14.7746 13.2844 14.1841 12.7392 13.4754 12.3979C13.2143 11.2237 12.3005 10.3104 11.3867 9.91745C11.5172 9.00415 11.1256 7.96038 10.8645 7.43849C10.3423 6.65566 10.4729 5.35095 10.6034 5.09001C11.2562 4.43765 10.734 3.78529 10.4729 3.52285C9.16595 2.21813 7.8605 2.87049 7.46887 3.52285C6.16342 1.17436 4.72743 0.652478 3.94266 0.913421C2.76776 0.000120282 1.07068 0.652478 1.07068 1.69625C0.287417 2.21813 -0.234761 2.47908 0.94014 4.56812C0.679051 8.87368 1.20123 10.1799 4.07471 12.5284C3.1594 13.4417 2.76776 15.2683 3.55103 16.705C3.28994 18.794 4.46484 20.8816 5.90233 21.9253C6.29397 24.9262 9.16595 26.6238 11.1256 27.0152C12.4311 28.9723 14.2587 29.8856 16.0878 30.0161C16.2184 30.9294 16.4794 31.7122 17.0016 32.495C16.61 34.1911 16.61 35.7583 17.1322 37.1935C15.8267 38.6287 15.3045 40.8482 15.9573 43.0662C14.3907 44.8928 13.867 47.8951 14.9129 50.3741C14.9129 50.3741 14.5213 51.028 14.2602 51.6788C13.2158 52.2022 12.1715 53.3764 11.6493 54.9421C11.1271 56.1163 11.3882 57.682 11.6493 58.9882C9.95222 60.4234 8.90636 64.0781 11.9104 66.9485C11.2577 69.039 9.82167 70.8641 8.12459 73.0836C6.94969 74.6493 6.6871 75.4321 8.12459 77.2602C9.16895 78.6954 11.1271 79.8696 12.8257 79.8696C15.9588 80.0001 18.1795 79.3463 18.4406 76.9978C18.7017 75.6931 17.7879 72.9532 17.7879 72.2993C17.6573 71.6469 17.9184 70.6032 18.5712 68.9055C21.4446 68.2532 22.8806 66.1656 23.1402 64.0766C25.2304 62.9024 26.797 60.4219 26.0137 57.6805C26.4053 57.2891 26.5359 56.8992 26.797 56.2453C26.797 57.4196 27.5802 58.2039 27.9719 58.9867C26.797 61.9876 28.3635 64.729 30.1911 65.9032C27.0565 70.4712 30.4522 72.6892 31.366 73.6025C32.5409 74.6463 32.6715 76.6049 34.4991 77.2587C36.0656 77.7806 41.0293 77.2587 41.9416 75.1697C42.2027 74.6463 42.4638 73.9954 42.2027 73.6025C42.2027 72.0369 41.2889 70.9931 39.5903 69.9478C37.6307 68.9041 37.6307 69.1665 36.7168 66.2931C39.7209 64.8579 40.243 61.4642 40.1125 60.1595C42.2027 57.5485 42.0722 55.329 40.8958 53.8938C41.2874 52.7196 41.1569 51.8048 40.8958 50.893C42.7234 49.3258 43.5067 46.9773 42.8539 44.4969C43.8983 42.9312 44.1594 41.2351 43.7677 39.2765C44.6816 40.7132 46.1175 41.2351 47.6856 41.2351C47.6856 41.2351 47.8161 41.625 47.9467 41.8875C47.4245 42.7993 47.6856 43.846 48.8605 44.6274C48.991 45.1507 49.2521 45.4102 49.5132 45.6711C49.5132 46.0625 50.5576 47.7602 51.7325 46.8454C51.863 46.8454 53.17 45.9321 53.17 45.9321C54.3479 46.8514 56.9588 46.0685 56.6992 44.3724Z" fill="#040506"/>
<path fill-rule="evenodd" clip-rule="evenodd" d="M44.5541 35.7582C47.8177 35.4972 50.9523 31.8425 47.9498 28.9722C47.5582 29.6245 46.6428 30.2769 45.9901 30.5378C45.8596 31.973 44.9458 33.1473 44.4236 33.8011C44.4236 34.323 44.5541 35.6277 44.5541 35.7582Z" fill="white"/>
<path fill-rule="evenodd" clip-rule="evenodd" d="M49.908 33.0183C49.1248 35.1073 47.0346 36.2816 44.5542 36.673C44.1626 38.3691 46.3818 40.98 49.7775 39.4144C52.2593 38.3691 53.1732 34.4535 49.908 33.0183ZM48.9942 42.2833C48.7331 42.5442 48.7331 43.1966 49.1248 43.5895C49.1248 43.4575 49.3859 42.6762 49.5164 42.4152C49.3859 42.1543 49.1248 42.1543 48.9942 42.2833ZM51.0829 43.8504C50.9524 43.4575 51.0829 42.9371 50.4302 42.8051C49.7775 42.5442 49.7775 44.6332 50.1691 44.5028C50.4302 44.2418 50.6913 43.9794 51.0829 43.8504ZM51.9983 44.1114C51.0844 44.3723 50.4317 45.0247 50.8234 45.5465C50.9539 45.8075 51.0844 45.8075 51.6066 45.4161C51.8677 45.2856 52.3899 44.8927 52.5204 44.7622C52.3899 44.3723 51.9983 44.1114 51.9983 44.1114ZM52.7815 40.0652C52.5204 39.9348 51.9983 39.5434 51.7372 39.1519C51.0844 39.8043 49.6485 40.5886 48.9942 40.7176C49.1248 40.7176 49.2553 41.37 49.3859 41.6294C49.647 41.6294 49.908 41.8918 50.1691 42.1528C50.4302 42.0223 51.344 42.1528 51.6066 43.0661C51.9983 43.327 52.7815 43.7184 53.0426 43.9779C54.087 45.2841 54.8717 45.1536 55.1328 44.8912C56.0466 44.2388 54.7412 43.588 54.0885 42.6732C53.6968 42.2803 52.6525 40.8451 52.6525 40.4537C52.6525 40.3232 52.9136 40.4537 53.1747 40.7146C53.1747 40.8451 54.6106 42.5412 55.3939 43.1936C54.7397 40.9785 52.7815 40.0652 52.7815 40.0652ZM32.1495 37.0644C44.5557 36.9339 46.1222 29.626 44.4252 26.7542C40.6379 30.6698 27.9721 32.8878 21.7029 27.9284C20.528 29.2331 18.96 29.6245 17.6545 29.8855C18.0462 33.5402 24.7054 37.1949 32.1495 37.0644Z" fill="white"/>
<path fill-rule="evenodd" clip-rule="evenodd" d="M23.7917 21.534C24.0528 24.0129 23.0084 26.2324 22.4847 27.0153C23.6596 27.9286 26.0109 29.6247 31.3648 29.7552C39.4615 29.8856 48.079 25.9715 43.2473 19.3145C41.1601 22.0559 30.8441 24.4043 23.7917 21.534ZM13.084 20.7511C15.0422 18.9245 15.1742 16.5746 14.2589 14.8784C13.9993 14.616 13.7368 14.2261 13.3466 13.9636C12.955 17.3574 8.12334 19.9668 4.98877 17.7488C6.16367 22.5777 10.9953 22.7082 13.084 20.7511Z" fill="white"/>
<path fill-rule="evenodd" clip-rule="evenodd" d="M17.0017 24.0129C19.8752 20.7511 17.0017 15.7917 15.6963 15.5308C16.6101 20.3597 11.7785 24.1449 7.46899 22.3168C8.51335 25.3176 13.6061 27.7981 17.0017 24.0129Z" fill="white"/>
<path fill-rule="evenodd" clip-rule="evenodd" d="M13.084 27.0151C15.5643 29.6245 22.2251 29.4941 22.6167 23.3604C22.8778 19.1838 21.0502 16.8353 18.1767 16.0525C21.5724 22.4471 17.524 26.8831 13.084 27.0151ZM18.3073 33.5402C17.1324 40.5886 26.5331 42.8051 32.1495 42.6762C41.6822 42.2833 43.771 37.7168 43.2488 34.9754C37.2422 39.6738 24.4459 39.1519 18.3073 33.5402Z" fill="white"/>
<path fill-rule="evenodd" clip-rule="evenodd" d="M23.1388 48.4169C28.2315 49.4607 32.2799 47.1122 32.2799 43.7185C29.7995 43.7185 21.8333 43.5895 18.0475 38.3691C15.4351 42.0238 18.5697 47.1122 23.1388 48.4169Z" fill="white"/>
<path fill-rule="evenodd" clip-rule="evenodd" d="M30.0591 48.5491C25.4886 50.8976 19.2209 49.2015 16.8711 44.3726C13.4755 49.7234 19.0904 54.5523 23.2693 54.2914C28.3621 54.0289 29.7981 50.7672 30.0591 48.5491Z" fill="white"/>
<path fill-rule="evenodd" clip-rule="evenodd" d="M15.9575 51.4194C14.3909 54.2913 16.3491 57.4226 18.4378 58.2055C22.8778 59.9016 25.8804 57.0312 25.6208 54.9422C22.0946 55.7265 18.4378 54.6827 15.9575 51.4194ZM12.4313 60.164C10.3411 61.8602 11.7786 66.4282 14.9116 67.4719C19.3516 69.0391 21.3098 66.0367 21.5709 64.4696C20.3975 64.732 15.3048 65.7758 12.4313 60.164Z" fill="white"/>
<path fill-rule="evenodd" clip-rule="evenodd" d="M18.1767 58.9896C15.8269 57.8154 14.3894 55.9873 14.2589 53.5083C10.8632 56.9021 13.7367 62.2514 16.8712 63.2952C23.1389 65.5132 25.3581 60.1638 24.836 58.5967C22.3556 60.2943 19.3516 59.642 18.1767 58.9896ZM40.6378 74.5202L40.8989 74.6507C40.3768 75.6944 36.5895 76.6092 35.0214 75.9554C33.1938 75.0436 33.5839 73.9983 32.409 72.9545C29.7982 70.4756 30.1898 69.4303 30.5814 68.1256C30.712 67.4717 30.9731 67.0818 31.4952 66.428C33.3229 67.0818 34.1061 66.9499 35.6742 66.5584C35.6742 66.6889 35.6742 67.0818 35.8047 67.2123C34.6298 67.3428 33.5854 67.6037 33.5854 67.6037L33.9771 68.517C33.9771 68.517 34.8909 68.2561 36.0673 68.1256C36.0673 68.1256 36.1978 68.778 36.3284 69.0389C35.284 69.0389 34.3702 69.4303 34.3702 69.4303L34.6313 70.2131C34.6313 70.2131 36.0688 69.8202 37.1116 69.9507C38.156 70.864 42.3349 71.9093 40.2462 74.1273C39.4629 74.9101 37.5033 75.1711 35.9367 75.1711V75.432C36.1978 75.8249 39.0698 75.9554 40.6378 74.5202ZM38.6782 61.0771C37.4021 62.0282 35.8278 62.4915 34.2397 62.3834C32.0204 62.3834 30.4524 61.4701 29.1469 60.0349C28.3637 63.949 30.844 65.7756 33.5854 65.9076C38.5476 66.167 38.6782 61.599 38.6782 61.0771Z" fill="white"/>
<path fill-rule="evenodd" clip-rule="evenodd" d="M34.1076 61.4686C39.4614 61.5991 41.0295 57.1615 39.9851 55.203C36.9811 58.8577 30.0607 58.0748 28.6247 53.5068C26.7956 56.7716 29.7981 61.4686 34.1076 61.4686Z" fill="white"/>
<path fill-rule="evenodd" clip-rule="evenodd" d="M34.8909 56.6413C37.5018 56.6413 40.3752 54.8132 39.7225 51.5499C36.7185 53.5085 32.9312 53.378 30.3203 51.4194C30.0592 51.8108 29.6676 52.4632 29.4065 52.7242C29.7981 55.2046 32.28 56.6413 34.8909 56.6413Z" fill="white"/>
<path fill-rule="evenodd" clip-rule="evenodd" d="M31.6272 47.505C31.4966 47.6355 31.3661 47.766 31.2356 47.766C31.2356 48.6793 30.9745 49.855 30.7134 50.6363C34.3701 53.7692 42.0753 51.8106 41.5531 45.4175C38.9392 48.0269 34.7603 48.6793 31.6272 47.505Z" fill="white"/>
<path fill-rule="evenodd" clip-rule="evenodd" d="M33.3243 43.7185C33.3243 44.8928 32.9327 45.9365 32.28 46.8513C36.9811 48.2865 42.8571 45.8076 42.596 40.1958C41.0295 41.631 38.156 43.4591 33.3243 43.7185ZM9.68978 17.2268C13.216 15.6612 12.9549 12.0065 10.8647 11.0932C10.3425 11.615 10.473 12.7893 10.473 13.0502C10.473 13.5721 9.55923 13.9635 9.42869 13.7026C9.1661 13.3112 9.95087 12.9198 9.55923 12.0065C9.29815 11.2236 10.212 10.8322 10.212 9.52749C10.212 8.74466 9.55923 7.56892 9.55923 7.30948C9.1661 6.52515 9.1661 5.08997 9.68978 4.43761C9.29815 4.04619 8.77597 3.65478 8.38433 4.43761C7.73161 5.35091 7.9927 6.52515 8.38433 7.43845C8.38433 7.56892 7.73161 7.43845 7.47052 8.48222L7.20793 8.87364H6.94684C6.8163 8.09081 7.07739 7.69939 7.33848 7.17751C7.20793 7.04704 6.94684 6.39468 6.94684 5.22044C6.42467 3.65328 5.24976 2.21809 4.4665 2.08762C5.11922 3.13139 6.29562 5.34941 6.42617 5.61185C6.68575 6.26421 6.16358 6.39468 6.16358 6.39468C5.24976 4.56808 4.33595 2.87045 3.55119 2.08762C3.02901 1.69621 2.50683 1.43526 2.24574 1.82668C2.50683 1.82668 2.76792 2.08762 3.02901 2.34856C3.81227 3.39234 5.51085 6.78609 5.51085 6.78609C5.51085 6.78609 5.38031 6.91657 5.11922 6.91657C4.85813 6.91657 4.59704 6.39468 4.20541 5.48138C3.68173 4.69705 2.89846 3.39234 2.50683 3.00092C2.1152 2.47904 1.85411 2.60951 1.59302 2.87045C1.85411 3.26187 2.1152 3.78375 2.1152 4.17516C2.76792 3.91422 3.55119 4.56658 3.68173 5.21894C3.68173 5.74082 3.94282 7.43695 4.33595 7.96034C4.20541 7.96034 3.81378 8.22128 3.81378 8.22128C3.42064 7.82987 3.15955 6.00327 3.02901 5.35091C3.02901 5.08997 2.89846 4.82902 2.50683 4.69855C2.24574 4.69855 2.24574 4.82902 2.24574 4.95949C1.98465 8.61419 2.24574 9.52749 5.51085 12.0065C5.77194 12.1369 6.03303 12.6588 6.29412 13.1807C6.55521 13.5721 6.94684 14.2245 7.73011 14.094L7.9912 14.3549C7.33848 15.0073 6.29412 14.6159 6.03303 14.3549C5.90249 14.094 5.38031 13.3112 5.38031 13.3112C3.02901 15.6612 6.16358 18.9229 9.68978 17.2268ZM13.3465 67.7328C12.0396 70.6046 10.7341 71.9093 9.29815 73.9984C8.25379 75.3031 8.64542 75.9555 9.29815 76.8688C10.6036 78.3039 12.8243 79.0868 14.5214 78.5664V78.4359C12.4312 78.5664 10.7341 77.7821 9.82032 76.4773L9.95087 76.3469C12.3007 78.1735 15.4352 77.6516 16.6101 76.9992C17.0018 76.8688 17.1323 76.4773 17.1323 76.0874C17.0018 75.0437 16.4796 73.346 16.349 72.4312C16.2185 71.7789 16.4796 70.3437 17.1323 68.7765C16.088 68.907 13.9992 68.6476 13.3465 67.7328ZM43.7709 18.1401C45.468 19.3144 45.7306 21.6643 45.7306 22.5776C47.4277 19.3144 44.9473 17.3573 43.6404 16.9659C43.9015 17.4878 43.9014 18.0096 43.7709 18.1401ZM46.2528 28.8418C49.5164 27.0152 47.4277 23.0995 46.9055 22.8386C46.7749 23.23 46.3833 24.2753 45.2084 25.58C45.8611 26.3613 46.2528 27.5356 46.2528 28.8418ZM23.5305 20.3581C25.8803 21.4019 28.3622 21.7948 30.844 21.7948C37.6338 21.7948 42.3349 19.8362 42.7265 17.8792C42.9876 16.183 39.8531 15.1378 36.5895 14.8783C36.0673 15.4002 35.4146 15.6612 35.152 15.6612C35.0214 15.6612 34.7603 15.5307 35.0214 15.4002C35.5436 15.1393 36.0658 14.6174 35.5436 13.7041C35.9352 13.7041 37.1101 13.1822 37.2407 11.0932C37.2407 9.39702 36.4574 8.35325 35.6741 7.83136C35.6741 7.83136 35.4131 7.57042 35.6741 7.57042C35.9352 5.48288 34.4992 3.78675 32.0174 3.26336V3.00092C32.1479 3.00092 32.1479 2.87045 32.1479 2.87045C32.0174 2.34856 30.1898 2.08762 29.405 2.73998C29.2745 2.87045 29.7966 3.13139 29.9272 3.13139C30.1883 3.13139 30.3188 3.39234 30.0577 3.39234C28.4912 3.26186 25.8788 4.56658 25.8788 8.09081C26.0093 8.09081 26.7926 7.96034 27.0537 7.96034C27.3148 8.09081 27.1842 8.35175 27.0537 8.35175C24.5734 8.48222 23.658 12.7878 26.9232 14.2245C26.9232 14.2245 27.1842 14.3549 26.9232 14.4854C26.5315 14.7464 26.2704 15.2682 26.7926 15.6597C27.0537 15.6597 27.1842 15.9206 27.0537 16.0511C27.0537 16.312 26.6621 16.312 26.401 16.0511C24.7039 15.2682 22.7442 15.6597 21.1777 16.1815C22.3556 17.0963 23.1389 18.662 23.5305 20.3581Z" fill="white"/>
<path fill-rule="evenodd" clip-rule="evenodd" d="M6.55516 9.39554C6.42462 9.52751 6.03298 9.13459 5.64135 8.87365C5.24972 8.74318 4.72754 8.74318 4.72754 8.61271C4.72754 8.61271 5.11917 8.48224 5.51081 8.48224C5.7719 8.48224 6.03298 8.61271 6.29407 8.61271C6.42462 8.87365 6.68571 9.26507 6.55516 9.39554ZM15.1741 72.4312C14.3908 72.1703 13.2144 72.0398 12.5617 72.0398V71.1265C13.345 71.257 14.5214 71.3875 15.4352 71.6499L15.1741 72.4312ZM15.6963 70.7351C14.5214 70.3437 14.2588 70.3437 12.9533 70.2132V69.4304C14.3893 69.4304 14.781 69.4304 15.9559 69.8218L15.6963 70.7351ZM34.2381 11.2236C34.1076 11.2236 33.977 11.2236 33.8465 11.3541C31.4967 10.9627 30.8439 11.4846 29.537 11.4846C29.537 11.3541 29.537 11.0932 29.2759 11.0932C29.2759 11.2236 29.1454 11.3541 29.1454 11.3541C28.7537 11.876 28.6232 12.1369 28.7537 12.2674C28.8843 12.3979 29.1454 12.1369 29.2759 12.0065C29.4065 12.0065 29.9286 12.0065 30.4508 12.2674C30.8424 12.5284 31.6257 13.5721 32.409 13.1807C33.0617 12.9198 33.5839 11.876 33.9755 11.876C34.2366 11.876 34.4977 12.0065 34.4977 11.876C34.6297 11.876 34.3686 11.0932 34.2381 11.2236ZM32.4105 12.7893C31.6272 13.0502 31.2341 12.1369 30.5814 11.876C31.2341 11.7455 32.409 11.6151 33.4548 11.7455C33.1937 11.876 32.541 12.6588 32.4105 12.7893ZM33.3243 5.22045C32.541 5.35092 32.0188 6.39469 32.0188 7.69941C32.1494 8.48224 32.4105 9.26506 32.9327 9.65798C33.1937 9.78845 33.4548 9.91892 33.7159 9.91892C34.4992 9.78845 35.1519 8.74468 35.0214 7.43996C35.0214 6.65714 34.6297 5.87431 34.2381 5.61336C34.1236 5.48537 33.9824 5.38391 33.8246 5.31604C33.6668 5.24818 33.496 5.21556 33.3243 5.22045Z" fill="#040506"/>
<path fill-rule="evenodd" clip-rule="evenodd" d="M34.3685 8.87375C34.4991 8.6128 34.6296 8.09092 34.6296 7.43856C34.499 6.7862 34.3685 6.26432 33.9769 5.8729C33.8463 5.74243 33.5852 5.74243 33.4547 5.74243C32.802 5.74243 32.4103 6.65573 32.5409 7.6995V7.96045C32.6714 7.30809 32.9325 6.7862 33.4547 6.65573C33.9769 6.65573 34.3685 7.30809 34.3685 8.09092V8.87375Z" fill="white"/>
<path fill-rule="evenodd" clip-rule="evenodd" d="M29.6675 5.35084C28.8842 5.48131 28.23 6.52508 28.23 7.8313C28.23 8.61413 28.4911 9.26648 29.0132 9.78837C29.2743 9.91884 29.5354 10.0493 29.9271 10.0493C30.7103 10.0493 31.3646 8.87507 31.3646 7.57035C31.3646 6.78753 31.1035 6.13517 30.5813 5.74375C30.4668 5.61568 30.3257 5.51416 30.1679 5.44629C30.01 5.37842 29.8392 5.34585 29.6675 5.35084Z" fill="#040506"/>
<path fill-rule="evenodd" clip-rule="evenodd" d="M30.712 8.74326C30.8425 8.35185 30.9731 7.96043 30.9731 7.56902C30.844 6.91666 30.712 6.39478 30.3218 6.00336C30.1913 5.87289 29.9302 5.74242 29.6691 5.87289C29.1469 5.87289 28.6248 6.78619 28.6248 7.83146C28.6248 8.22288 28.7553 8.61429 29.0164 8.87523C28.8858 8.74476 28.8858 8.61279 28.8858 8.35185C28.8858 7.56902 29.2775 6.91516 29.7997 6.91516C30.3218 6.91516 30.712 7.56902 30.712 8.35185V8.74326Z" fill="white"/>
</g>
<defs>
<clipPath id="clip0_4623_5219">
<rect width="263" height="80" fill="white"/>
</clipPath>
</defs>
</svg>
