<svg width="261" height="80" viewBox="0 0 261 80" fill="none" xmlns="http://www.w3.org/2000/svg">
<g clip-path="url(#clip0_4623_25205)">
<path d="M84.8477 49.3757C84.8477 32.6974 98.3796 19.167 115.058 19.167C131.746 19.167 145.276 32.6974 145.276 49.3757C145.276 66.0661 131.745 79.5705 115.058 79.5705C98.3796 79.5705 84.8477 66.067 84.8477 49.3757ZM115.034 63.2392C122.684 63.2392 128.877 57.0418 128.877 49.3887C128.877 41.7426 122.684 35.5383 115.034 35.5383C107.372 35.5383 101.19 41.7426 101.19 49.3887C101.19 57.0418 107.372 63.2392 115.034 63.2392Z" fill="#ED1B2D"/>
<path d="M0 0H25.2631L39.5415 47.8313H39.7451L54.2541 0H78.8272V77.907H62.58V22.8113H62.3642L46.7816 77.907H31.8524L16.4752 22.8113H16.2586V77.907H0V0ZM219.505 15.3565H235.752V0H219.505V15.3565ZM219.505 77.907H235.752V20.833H219.505V77.907ZM244.754 77.907H261V0H244.754V77.907ZM152.09 77.907H168.329V72.8513C172.505 77.4652 177.773 79.2278 183.923 79.2278C200.284 79.2278 212.698 65.5183 212.698 49.4844C212.698 33.4765 200.391 19.5313 183.923 19.5313C177.997 19.5313 172.845 21.3887 168.329 25.2426V0H152.09V77.907ZM168.528 49.3887C168.528 41.7426 174.714 35.5383 182.371 35.5383C190.028 35.5383 196.222 41.7426 196.222 49.3887C196.222 57.0417 190.028 63.2391 182.371 63.2391C174.714 63.2391 168.528 57.0417 168.528 49.3887Z" fill="#006BB6"/>
</g>
<defs>
<clipPath id="clip0_4623_25205">
<rect width="261" height="80" fill="white"/>
</clipPath>
</defs>
</svg>
