<svg width="88" height="80" viewBox="0 0 88 80" fill="none" xmlns="http://www.w3.org/2000/svg">
<g clip-path="url(#clip0_4623_25451)">
<path opacity="0.999" fill-rule="evenodd" clip-rule="evenodd" d="M87.9427 38.4269C88.1749 47.1981 85.7197 55.1148 80.5775 62.1775C76.3458 67.8254 71.0593 72.1804 64.7183 75.2422C58.6831 78.1161 52.3635 79.6827 45.7601 79.9425C37.1831 80.2341 29.0653 78.3605 21.407 74.3214C15.8412 71.3113 11.1543 67.2633 7.34617 62.1775C0.849479 53.163 -1.33139 43.1739 0.803566 32.2111C2.54451 24.7007 6.14742 18.2675 11.6123 12.9113C17.273 7.44306 23.9303 3.68928 31.5844 1.64991C41.1099 -0.840779 50.5986 -0.457086 60.0505 2.80099C67.7333 5.54129 74.1803 10.0369 79.3914 16.2878C84.6021 22.727 87.4526 30.1067 87.9427 38.4269Z" fill="#004A26"/>
<path fill-rule="evenodd" clip-rule="evenodd" d="M43.8661 18.168C44.5031 18.519 44.994 19.0178 45.3391 19.6644C46.0638 20.9734 46.0764 22.2907 45.3774 23.6164C44.9978 24.2274 44.513 24.739 43.9234 25.1512C42.341 24.074 41.7288 22.5904 42.0869 20.7003C42.2668 20.0322 42.5858 19.4439 43.0434 18.9354C43.317 18.6745 43.591 18.4187 43.8661 18.168Z" fill="#FCB800"/>
<path fill-rule="evenodd" clip-rule="evenodd" d="M38.4332 24.9976C39.475 25.0328 40.4442 25.3717 41.341 26.0143C42.547 27.117 42.9552 28.4663 42.5653 30.0623C41.2989 30.2951 40.1002 30.0329 38.9688 29.2757C37.6951 28.1533 37.236 26.7528 37.5914 25.0743C37.8776 25.0527 38.1581 25.0271 38.4332 24.9976Z" fill="#FCB800"/>
<path fill-rule="evenodd" clip-rule="evenodd" d="M47.9218 25.0742C49.0092 25.0947 49.6214 25.6447 49.7583 26.7241C49.691 27.6034 49.2319 28.147 48.3809 28.3548C47.3808 28.4382 46.7495 27.997 46.487 27.0311C46.4074 25.9612 46.8857 25.3089 47.9218 25.0742Z" fill="#FCB700"/>
<path fill-rule="evenodd" clip-rule="evenodd" d="M32.3112 28.3742C33.8772 28.2131 35.1846 28.7119 36.233 29.8706C36.8142 30.6408 37.0628 31.5105 36.9791 32.4797C35.9123 32.8186 34.8793 32.8633 33.8799 32.614C32.0763 32.0009 31.0942 30.7411 30.9338 28.8346C31.3662 28.5964 31.8253 28.4429 32.3112 28.3742Z" fill="#FDB800"/>
<path fill-rule="evenodd" clip-rule="evenodd" d="M54.8088 28.3356C55.5414 28.3209 56.2684 28.4488 56.9896 28.7193C57.0137 30.0328 56.5163 31.1008 55.4974 31.9231C54.3703 32.7682 53.1203 33.0112 51.7479 32.6522C51.4885 32.5669 51.2337 32.471 50.9827 32.3644C51.0642 30.3931 52.0459 29.1077 53.9288 28.5083C54.2234 28.4274 54.5164 28.3699 54.8088 28.3356Z" fill="#FDB800"/>
<path fill-rule="evenodd" clip-rule="evenodd" d="M47.6157 30.0238C47.6842 30.0129 47.7477 30.0256 47.807 30.0622C48.596 31.2019 48.7555 32.4297 48.2853 33.7456C47.5572 35.1659 46.4094 36.0356 44.8418 36.3547C43.8662 34.7793 43.9044 33.2317 44.9566 31.7121C45.656 30.853 46.5425 30.2902 47.6157 30.0238Z" fill="#FDB800"/>
<path fill-rule="evenodd" clip-rule="evenodd" d="M40.499 31.8655C41.203 31.8167 41.7448 32.0852 42.1251 32.6713C42.569 33.6123 42.3711 34.3861 41.5321 34.9926C40.6486 35.3961 39.9152 35.2107 39.3321 34.4362C38.8798 33.5198 39.052 32.746 39.8486 32.1149C40.0598 32.004 40.2767 31.9209 40.499 31.8655Z" fill="#FBB700"/>
<path fill-rule="evenodd" clip-rule="evenodd" d="M36.6348 35.5874C37.9116 35.6194 38.9637 36.1182 39.7913 37.0838C40.2003 37.6751 40.4425 38.3274 40.5183 39.0407C39.0204 39.8771 37.4964 39.9347 35.9461 39.2133C34.8625 38.5745 34.2186 37.6344 34.0139 36.3932C34.8063 35.8541 35.6798 35.5855 36.6348 35.5874Z" fill="#FCB800"/>
<path fill-rule="evenodd" clip-rule="evenodd" d="M51.3653 35.5874C52.3191 35.5972 53.193 35.8658 53.9861 36.3932C53.5695 38.3327 52.3769 39.4393 50.4087 39.7121C49.9064 39.7413 49.409 39.7029 48.9166 39.597C48.4184 39.4581 47.9336 39.2854 47.4626 39.079C47.7328 37.1391 48.8297 35.9943 50.7531 35.645C50.9643 35.6383 51.1682 35.6191 51.3653 35.5874Z" fill="#FDB800"/>
<path opacity="0.498" fill-rule="evenodd" clip-rule="evenodd" d="M87.9426 38.3887C87.9935 38.4144 87.9935 38.4144 87.9426 38.3887V38.3887Z" fill="#004A25"/>
<path fill-rule="evenodd" clip-rule="evenodd" d="M43.713 38.3884C44.7403 38.3765 45.346 38.8753 45.5304 39.8848C45.5419 40.7938 45.1145 41.3758 44.2486 41.6306C43.4035 41.7411 42.7978 41.415 42.4312 40.6522C42.1607 39.8238 42.3712 39.1523 43.0626 38.6378C43.2688 38.5131 43.4853 38.4298 43.713 38.3884Z" fill="#FCFDFD"/>
<path fill-rule="evenodd" clip-rule="evenodd" d="M17.6191 51.9711C16.7774 51.9711 15.9356 51.9711 15.0939 51.9711C15.1042 51.9097 15.0912 51.8587 15.0556 51.8177C14.9561 49.6437 14.8605 47.4056 14.7687 45.103C13.9847 46.4958 13.2003 47.8898 12.4156 49.2853C11.922 49.3359 11.4312 49.3359 10.9426 49.2853C10.1969 47.9182 9.45078 46.5495 8.70431 45.1798C8.62285 47.5314 8.53359 49.8083 8.43648 52.0095C7.582 52.0095 6.72748 52.0095 5.873 52.0095C5.86661 50.3853 5.873 48.7608 5.89213 47.1366C5.94734 45.3133 6.11952 43.4907 6.40865 41.669C6.48345 41.3839 6.55359 41.0961 6.61909 40.8057C7.30778 40.8057 7.99648 40.8057 8.68518 40.8057C9.64476 41.8443 10.4865 42.9697 11.2104 44.1822C11.3837 44.5382 11.5498 44.8966 11.7078 45.2565C12.0273 44.4492 12.4355 43.6945 12.9321 42.9927C13.498 42.2591 14.078 41.5362 14.673 40.8248C15.3479 40.7949 16.0175 40.8014 16.6817 40.844C17.1232 42.9881 17.3846 45.1433 17.466 47.3093C17.5437 48.0789 17.5881 48.8525 17.6 49.6306C17.6095 50.3343 17.6287 51.038 17.6574 51.7409C17.6574 51.8253 17.6443 51.9021 17.6191 51.9711Z" fill="#FDFEFD"/>
<path opacity="0.498" fill-rule="evenodd" clip-rule="evenodd" d="M87.9426 41.6113C87.9935 41.637 87.9935 41.637 87.9426 41.6113V41.6113Z" fill="#004A25"/>
<path fill-rule="evenodd" clip-rule="evenodd" d="M49.5286 42.8394C50.0677 42.8191 50.6034 42.8509 51.1356 42.9354C51.8491 43.1099 52.5378 43.3528 53.2017 43.6644C53.2346 43.6909 53.2598 43.7227 53.2782 43.7603C52.9051 44.4187 52.5225 45.071 52.1303 45.7171C51.5534 45.236 50.8903 44.9674 50.1408 44.9114C49.783 44.9148 49.4961 45.0556 49.2799 45.3334C49.2084 45.5832 49.2784 45.7816 49.4903 45.9282C49.6434 46.0049 49.7964 46.0816 49.9495 46.1584C50.554 46.3349 51.1535 46.5267 51.7477 46.7339C52.9407 47.1564 53.6168 47.994 53.7756 49.2471C53.7216 49.9151 53.4986 50.516 53.106 51.0505C52.1659 51.8957 51.0629 52.2603 49.7964 52.144C48.4833 52.0224 47.3229 51.5427 46.3147 50.7051C46.6942 50.11 47.0834 49.5218 47.4817 48.9402C48.1447 49.3526 48.8525 49.6657 49.6051 49.8802C50.0176 49.9696 50.4258 49.9566 50.8295 49.8418C51.0946 49.6987 51.165 49.4877 51.0399 49.2087C50.9699 49.0871 50.8742 48.9912 50.753 48.921C50.0015 48.6528 49.2489 48.3842 48.4956 48.1152C47.9496 47.8232 47.4713 47.4461 47.0608 46.9833C46.3591 45.7041 46.5565 44.5465 47.6538 43.5109C48.2369 43.1606 48.8621 42.9365 49.5286 42.8394Z" fill="#FDFDFD"/>
<path fill-rule="evenodd" clip-rule="evenodd" d="M77.8034 42.916C78.3138 42.9095 78.8238 42.916 79.3338 42.9352C79.9288 43.0446 80.5027 43.2237 81.0556 43.4724C81.261 43.5752 81.4523 43.6968 81.6295 43.8369C81.2737 44.4684 80.9102 45.0954 80.5391 45.717C80.1496 45.448 79.7352 45.2243 79.2956 45.0455C78.9157 44.9381 78.533 44.9128 78.1478 44.9688C77.4476 45.2431 77.3967 45.6015 77.9947 46.0431C78.6777 46.2503 79.3537 46.4805 80.0225 46.7338C80.704 46.982 81.2714 47.3849 81.7251 47.9424C82.0649 48.47 82.1797 49.0455 82.0695 49.669C82.0067 50.2169 81.7963 50.6966 81.4382 51.1079C80.6106 51.8154 79.648 52.1669 78.5495 52.163C77.086 52.13 75.7917 51.6504 74.666 50.7242C75.054 50.1314 75.4683 49.562 75.9095 49.0167C76.3269 49.2677 76.7543 49.5044 77.1912 49.7266C77.7694 49.9764 78.3689 50.0531 78.9895 49.9568C79.1957 49.9012 79.3679 49.7926 79.506 49.6307C79.5714 49.3931 79.5141 49.1948 79.3338 49.0359C79.2064 48.9719 79.0786 48.9082 78.9512 48.8441C78.3647 48.6522 77.7778 48.4604 77.1912 48.2685C76.5232 48.0072 75.9428 47.617 75.4504 47.0983C75.1799 46.6655 75.0586 46.192 75.0869 45.6786C75.0421 44.7516 75.3991 44.0291 76.1582 43.5108C76.6824 43.231 77.2306 43.0331 77.8034 42.916Z" fill="#FDFDFD"/>
<path fill-rule="evenodd" clip-rule="evenodd" d="M23.5877 42.9546C25.2425 42.9753 26.5881 43.6402 27.6242 44.9498C28.5475 46.4036 28.6749 47.9257 28.0068 49.5157C27.0492 51.2466 25.5761 52.1291 23.5877 52.1632C21.5744 52.1429 20.1014 51.2477 19.1686 49.4774C18.3991 47.5002 18.75 45.7544 20.2207 44.24C21.1899 43.4066 22.3121 42.978 23.5877 42.9546Z" fill="#FDFEFD"/>
<path fill-rule="evenodd" clip-rule="evenodd" d="M32.0052 43.1461C32.0672 43.5594 32.1055 43.9814 32.12 44.4123C32.1434 44.4077 32.156 44.3947 32.1583 44.3739C32.5114 43.9496 32.9197 43.5851 33.3826 43.2804C33.8528 43.0452 34.3502 42.9432 34.8748 42.9735C34.9127 43.8594 34.9257 44.7484 34.9131 45.6401C33.5307 45.4402 32.6824 46.0158 32.3687 47.3668C32.3098 47.6323 32.2715 47.9009 32.2539 48.1725C32.2413 49.4387 32.2283 50.7049 32.2157 51.9711C31.3579 52.0091 30.497 52.0221 29.6331 52.0094C29.6331 49.055 29.6331 46.1006 29.6331 43.1461C30.4239 43.1461 31.2144 43.1461 32.0052 43.1461Z" fill="#FDFEFD"/>
<path fill-rule="evenodd" clip-rule="evenodd" d="M36.1757 51.9711C36.1504 49.0212 36.176 46.0795 36.2522 43.1461C37.03 43.1461 37.8083 43.1461 38.5861 43.1461C38.6106 43.5337 38.6362 43.9174 38.6626 44.2972C38.6576 44.3256 38.6642 44.3513 38.6818 44.374C39.0781 43.8993 39.5438 43.5095 40.0783 43.2037C40.4949 43.028 40.9288 42.9512 41.3791 42.9735C41.4549 43.8537 41.4805 44.7423 41.4557 45.6401C40.0733 45.4402 39.2251 46.0158 38.9113 47.3668C38.8524 47.6584 38.8141 47.9523 38.7965 48.2493C38.7774 49.5024 38.7709 50.7559 38.7774 52.0094C37.9035 52.0221 37.0362 52.0094 36.1757 51.9711Z" fill="#FDFEFE"/>
<path fill-rule="evenodd" clip-rule="evenodd" d="M59.4383 42.9546C61.4325 43.0041 62.9055 43.8996 63.8574 45.6404C64.6112 47.5397 64.3112 49.2472 62.9583 50.7627C61.4018 52.1337 59.6288 52.5047 57.64 51.8755C55.7056 51.1108 54.6982 49.6846 54.6174 47.5973C54.7039 45.5119 55.7117 44.0731 57.64 43.2807C58.2174 43.082 58.8169 42.9734 59.4383 42.9546Z" fill="#FDFEFD"/>
<path fill-rule="evenodd" clip-rule="evenodd" d="M65.2922 51.933C65.3305 49.0108 65.3431 46.0816 65.3305 43.1464C66.1722 43.1464 67.014 43.1464 67.8557 43.1464C67.8431 43.4798 67.8557 43.8125 67.894 44.144C69.0816 42.9392 70.472 42.6384 72.0644 43.2423C72.7569 43.5788 73.2352 44.1095 73.4992 44.8346C73.5841 45.1462 73.6545 45.4593 73.7096 45.7747C73.7092 47.8474 73.7092 49.9259 73.7096 52.0097C72.8423 52.0097 71.9753 52.0097 71.1079 52.0097C71.1144 50.0402 71.1079 48.0703 71.0888 46.1008C71.0436 45.7866 70.8714 45.5756 70.5722 45.4677C69.4359 45.3246 68.6007 45.7659 68.0661 46.7915C68.016 48.5162 67.9904 50.2428 67.9896 51.9713C67.1062 52.0158 66.2197 52.0224 65.3305 51.9905C65.3091 51.9759 65.2964 51.9568 65.2922 51.933Z" fill="#FDFEFE"/>
<path fill-rule="evenodd" clip-rule="evenodd" d="M67.8557 43.1461C67.014 43.1461 66.1722 43.1461 65.3305 43.1461C65.3431 46.0814 65.3305 49.0105 65.2922 51.9327C65.2922 48.9909 65.2922 46.0495 65.2922 43.1078C66.1535 43.0951 67.0079 43.1078 67.8557 43.1461Z" fill="#157C63"/>
<path fill-rule="evenodd" clip-rule="evenodd" d="M32.0051 43.1465C32.0434 43.1465 32.0816 43.1465 32.1199 43.1465C32.1073 43.5628 32.1203 43.9718 32.1582 44.3743C32.1559 44.395 32.1432 44.4081 32.1199 44.4127C32.1054 43.9818 32.0671 43.5597 32.0051 43.1465Z" fill="#99C2B5"/>
<path fill-rule="evenodd" clip-rule="evenodd" d="M36.2521 43.1465C36.1759 46.0798 36.1503 49.0216 36.1756 51.9714C36.1373 49.0362 36.1247 46.0948 36.1373 43.1465C36.1756 43.1465 36.2138 43.1465 36.2521 43.1465Z" fill="#99C2B5"/>
<path fill-rule="evenodd" clip-rule="evenodd" d="M38.5862 43.1465C38.6616 43.5152 38.6872 43.8989 38.6627 44.2976C38.6363 43.9177 38.6107 43.534 38.5862 43.1465Z" fill="#99C2B5"/>
<path fill-rule="evenodd" clip-rule="evenodd" d="M42.6799 43.1465C43.5343 43.1465 44.389 43.1465 45.2434 43.1465C45.2434 46.1009 45.2434 49.0554 45.2434 52.0098C44.389 52.0098 43.5343 52.0098 42.6799 52.0098C42.6799 49.0554 42.6799 46.1009 42.6799 43.1465Z" fill="#FEFEFE"/>
<path fill-rule="evenodd" clip-rule="evenodd" d="M23.3966 45.2565C24.3064 45.2235 25.0142 45.5815 25.52 46.3308C26.0377 47.4339 25.8786 48.4381 25.0418 49.3428C24.4445 49.8282 23.7685 49.9817 23.014 49.8032C22.1963 49.5715 21.6924 49.0408 21.5027 48.2109C21.2681 47.1258 21.5807 46.2372 22.44 45.5443C22.7446 45.3827 23.0633 45.2868 23.3966 45.2565Z" fill="#004A26"/>
<path fill-rule="evenodd" clip-rule="evenodd" d="M59.2469 45.2568C60.7479 45.2914 61.5513 46.0588 61.6573 47.559C61.6049 48.5631 61.1331 49.2856 60.2417 49.7269C59.2243 50.0518 58.3634 49.8151 57.6591 49.017C56.9489 47.7228 57.1341 46.5783 58.2138 45.583C58.5391 45.3961 58.8834 45.2875 59.2469 45.2568Z" fill="#004A26"/>
<path fill-rule="evenodd" clip-rule="evenodd" d="M15.0557 51.8179C15.0912 51.8589 15.1043 51.91 15.0939 51.9713C15.9357 51.9713 16.7774 51.9713 17.6191 51.9713C16.7713 52.0097 15.9169 52.0224 15.0557 52.0097C15.0557 51.9456 15.0557 51.8819 15.0557 51.8179Z" fill="#99C2B5"/>
</g>
<defs>
<clipPath id="clip0_4623_25451">
<rect width="88" height="80" fill="white"/>
</clipPath>
</defs>
</svg>
