<svg width="276" height="80" viewBox="0 0 276 80" fill="none" xmlns="http://www.w3.org/2000/svg">
<path opacity="0.998" fill-rule="evenodd" clip-rule="evenodd" d="M103.572 30.2916C96.6402 35.4688 89.7377 40.6808 82.864 45.9285C74.304 52.3818 65.7252 58.804 57.1265 65.1966C57.1265 55.4884 57.1265 45.7802 57.1265 36.072C57.1265 36.0476 57.1265 36.0224 57.1265 35.9979C72.5823 24.3894 88.0396 12.7791 103.498 1.16699C103.572 10.875 103.597 20.5832 103.572 30.2916Z" fill="#4780CA"/>
<path opacity="0.999" fill-rule="evenodd" clip-rule="evenodd" d="M57.1265 35.9982C57.1265 36.0226 57.1265 36.0478 57.1265 36.0723C51.5175 40.2965 45.8967 44.508 40.264 48.7078C39.8121 49.0324 39.393 49.3903 39.0067 49.7823C26.1393 59.4394 13.2705 69.0979 0.40045 78.7587C0.314163 70.9773 0.301841 63.1959 0.363471 55.4146C19.2664 41.2191 38.1628 27.0153 57.0525 12.8022C57.1265 20.534 57.1511 28.2661 57.1265 35.9982Z" fill="#F9AF1C"/>
<path opacity="0.984" fill-rule="evenodd" clip-rule="evenodd" d="M180.489 29.6247C187.588 29.4809 192.975 32.4205 196.649 38.4436C199.362 43.646 199.535 48.9321 197.167 54.3027C194.396 59.7386 189.995 62.9623 183.965 63.9739C177.173 64.6386 171.712 62.2798 167.583 56.8965C163.826 51.1991 163.382 45.246 166.252 39.0364C169.354 33.4235 174.1 30.2862 180.489 29.6247ZM180.563 36.2944C184.96 36.0921 188.349 37.8218 190.732 41.482C192.937 45.7447 192.616 49.7955 189.771 53.6358C186.71 57.0292 182.95 58.1534 178.492 57.0077C174.91 55.7649 172.556 53.3319 171.429 49.708C170.448 45.5468 171.471 41.977 174.499 38.9994C176.251 37.4876 178.272 36.5864 180.563 36.2944Z" fill="black"/>
<path opacity="0.996" fill-rule="evenodd" clip-rule="evenodd" d="M103.572 30.292C103.597 41.3097 103.572 52.3266 103.498 63.3443C96.6839 68.4556 89.8797 73.5817 83.0859 78.7218C83.0156 78.7574 82.9417 78.77 82.864 78.7589C82.864 67.8153 82.864 56.8724 82.864 45.9289C89.7377 40.6812 96.6402 35.4692 103.572 30.292Z" fill="#3F54AB"/>
<path opacity="0.983" fill-rule="evenodd" clip-rule="evenodd" d="M161.112 30.4399C161.26 41.3583 161.309 52.3019 161.26 63.27C159.041 63.27 156.822 63.27 154.604 63.27C154.616 57.8356 154.604 52.4005 154.567 46.9661C149.146 52.3983 143.722 57.8326 138.296 63.27C138.259 63.2455 138.222 63.2203 138.185 63.1958C138.283 57.8134 138.283 52.4279 138.185 47.0402C132.834 52.439 127.46 57.8363 122.062 63.2329C118.758 63.2944 115.455 63.2826 112.152 63.1958C122.999 52.2775 133.871 41.3835 144.767 30.514C144.829 35.924 144.866 41.3339 144.878 46.7438C150.304 41.3191 155.715 35.8847 161.112 30.4399Z" fill="black"/>
<path opacity="0.979" fill-rule="evenodd" clip-rule="evenodd" d="M202.011 30.4399C204.23 30.4399 206.449 30.4399 208.667 30.4399C208.655 37.332 208.667 44.2241 208.704 51.1162C209.36 54.2191 211.246 56.0348 214.362 56.5631C216.507 56.6002 218.652 56.6128 220.796 56.6002C220.796 47.8799 220.796 39.1603 220.796 30.4399C223.015 30.4399 225.234 30.4399 227.453 30.4399C227.453 41.3835 227.453 52.3264 227.453 63.27C222.867 63.2826 218.282 63.27 213.696 63.2329C208.538 62.4592 204.926 59.6801 202.862 54.8957C202.474 53.787 202.203 52.651 202.048 51.4867C201.965 47.7702 201.928 44.0522 201.937 40.3334C201.937 37.0304 201.962 33.7326 202.011 30.4399Z" fill="black"/>
<path opacity="0.975" fill-rule="evenodd" clip-rule="evenodd" d="M244.685 30.4399C247.644 30.4152 250.602 30.4399 253.56 30.514C251.645 32.4357 249.722 34.3499 247.791 36.2574C244.523 35.9869 241.848 37.1112 239.767 39.6294C238.922 40.8077 238.38 42.1172 238.14 43.5571C238.103 50.1283 238.09 56.6987 238.103 63.2699C235.859 63.2699 233.616 63.2699 231.372 63.2699C231.36 56.8722 231.372 50.4736 231.409 44.0759C231.856 38.8171 234.334 34.8523 238.842 32.1815C240.687 31.2196 242.634 30.6391 244.685 30.4399Z" fill="black"/>
<path opacity="0.985" fill-rule="evenodd" clip-rule="evenodd" d="M258.367 30.4402C262.461 29.9222 266.208 30.7991 269.609 33.071C272.962 35.5514 274.946 38.8744 275.562 43.0386C275.599 49.7825 275.612 56.5263 275.599 63.2702C269.36 63.3058 263.123 63.2687 256.888 63.159C252.248 62.0911 249.499 59.2135 248.642 54.5254C248.284 49.7684 250.195 46.2734 254.373 44.0391C256.277 43.2342 258.261 42.926 260.327 43.1127C263.149 43.1801 265.972 43.1927 268.795 43.1498C267.446 38.81 264.5 36.5 259.957 36.2206C257.531 36.3185 255.103 36.3185 252.672 36.2206C254.572 34.2923 256.47 32.3654 258.367 30.4402ZM258.515 48.9673C262.015 48.9673 265.517 48.9673 269.017 48.9673C269.017 51.5114 269.017 54.0563 269.017 56.6004C265.517 56.613 262.015 56.6004 258.515 56.5634C256.468 56.1424 255.358 54.8826 255.187 52.7839C255.371 50.6858 256.48 49.4134 258.515 48.9673Z" fill="black"/>
<path opacity="0.999" fill-rule="evenodd" clip-rule="evenodd" d="M57.1266 36.0723C57.1266 45.7805 57.1266 55.4887 57.1266 65.1969C51.1563 69.7701 45.141 74.2907 39.0808 78.7587C39.0068 69.1002 38.9822 59.4416 39.0068 49.7823C39.3931 49.3903 39.8122 49.0323 40.2641 48.7077C45.8968 44.508 51.5176 40.2964 57.1266 36.0723Z" fill="#DD9920"/>
</svg>
