<svg width="268" height="80" viewBox="0 0 268 80" fill="none" xmlns="http://www.w3.org/2000/svg">
<path fill-rule="evenodd" clip-rule="evenodd" d="M1.82178 0.651855C27.8551 0.651855 53.8884 0.651855 79.9218 0.651855C79.9218 26.7259 79.9218 52.8 79.9218 78.8741C53.8884 78.8741 27.8551 78.8741 1.82178 78.8741C1.82178 52.8 1.82178 26.7259 1.82178 0.651855Z" fill="#014B95"/>
<path fill-rule="evenodd" clip-rule="evenodd" d="M58.1482 13.2149C46.9513 12.943 35.7492 12.9034 24.5416 13.0963C24.064 13.216 23.5907 13.3346 23.1216 13.4519C23.322 13.1044 23.6375 12.9067 24.0682 12.8593C35.1916 12.7012 46.3149 12.7012 57.4382 12.8593C57.731 12.9143 57.9677 13.0328 58.1482 13.2149Z" fill="#D4A928"/>
<path fill-rule="evenodd" clip-rule="evenodd" d="M58.1483 13.2147C58.9842 13.5356 59.7335 14.0097 60.3967 14.6369C62.3951 17.9308 64.3279 21.2493 66.195 24.5925C66.195 24.6714 66.195 24.7506 66.195 24.8295C49.2729 24.9084 32.3907 24.8293 15.5483 24.5925C17.277 21.2886 19.1308 18.0491 21.11 14.8739C21.6494 14.191 22.3198 13.717 23.1217 13.4517C23.5907 13.3344 24.0641 13.2159 24.5417 13.0962C35.7493 12.9032 46.9514 12.9428 58.1483 13.2147Z" fill="#F9BB14"/>
<path opacity="0.984" fill-rule="evenodd" clip-rule="evenodd" d="M160.862 24.1184C164.598 23.5407 167.714 24.6469 170.21 27.4369C172.553 31.6215 173.066 36.0067 171.748 40.5924C171.924 41.2682 171.924 41.9002 171.748 42.4887C171.082 44.1729 170.411 45.8717 169.737 47.585C168.783 49.0122 167.836 50.4344 166.897 51.8517C164.811 53.7046 162.483 54.9294 159.915 55.5258C153.064 56.0141 149.317 52.8141 148.673 45.9258C148.273 41.3 149.022 36.8752 150.922 32.6517C149.985 32.3767 149.038 32.3371 148.082 32.5332C147.179 37.7153 146.39 42.8511 145.715 47.9406C145.069 50.2915 144.675 52.7015 144.532 55.1702C141.692 55.1702 138.852 55.1702 136.012 55.1702C136.889 47.4717 138.072 39.9261 139.562 32.5332C138.891 32.4936 138.221 32.4542 137.55 32.4146C136.775 32.4284 136.065 32.5863 135.42 32.8887C134.782 38.0677 133.914 43.2036 132.817 48.2961C130.565 53.2116 126.779 55.6609 121.457 55.6443C120.06 55.5625 118.679 55.365 117.315 55.0517C116.712 54.4728 116.002 54.0779 115.185 53.8665C114.662 53.4225 114.228 52.9089 113.883 52.3258C113.835 53.2552 113.717 54.164 113.528 55.0517C110.688 55.2098 107.848 55.2098 105.008 55.0517C104.697 53.8343 104.697 52.6095 105.008 51.3776C103.352 51.0616 101.695 51.0616 100.038 51.3776C99.4746 52.517 99.0013 53.7022 98.6184 54.9332C95.7826 55.17 92.9426 55.2489 90.0984 55.1702C90.3978 53.3808 90.9106 51.6426 91.6367 49.9554C95.116 41.8485 98.4293 33.5522 101.577 25.0665C101.695 24.948 101.813 24.8295 101.932 24.7109C105.323 24.5924 108.715 24.5528 112.108 24.5924C112.245 29.4505 112.56 34.2704 113.055 39.0517C113.05 39.8225 112.971 40.5732 112.818 41.3035C112.982 41.5565 113.1 41.8331 113.173 42.1332C114.045 36.2466 115.031 30.3998 116.132 24.5924C118.976 24.5137 121.816 24.5927 124.652 24.8295C123.621 31.7334 122.517 38.6075 121.338 45.4517C121.191 46.5665 121.664 47.1984 122.758 47.348C123.376 47.3347 123.889 47.0977 124.297 46.6369C124.747 45.2063 125.181 43.7841 125.598 42.3702C125.48 42.082 125.401 41.8053 125.362 41.5406C125.721 40.9252 125.919 40.2537 125.953 39.5258C126.638 34.7025 127.348 29.8829 128.083 25.0665C128.202 24.948 128.32 24.8295 128.438 24.7109C136.879 24.5924 145.32 24.5528 153.762 24.5924C153.63 26.0234 153.512 27.4456 153.407 28.8591C155.355 26.4036 157.84 24.8235 160.862 24.1184ZM161.335 32.1776C162.899 32.4436 163.648 33.3917 163.583 35.0221C163.65 38.3354 163.177 41.5749 162.163 44.7406C161.554 46.684 160.253 47.5137 158.258 47.2295C157.894 46.8552 157.618 46.4205 157.43 45.9258C156.901 41.7823 157.532 37.8319 159.323 34.0739C159.814 33.226 160.485 32.5938 161.335 32.1776ZM105.008 34.785C105.106 37.9035 105.106 41.0641 105.008 44.2665C104.049 44.3433 103.102 44.2644 102.168 44.0295C103.354 41.1167 104.301 38.0353 105.008 34.785Z" fill="#004A95"/>
<path opacity="0.985" fill-rule="evenodd" clip-rule="evenodd" d="M260.498 24.1183C263.256 23.7635 265.741 24.2376 267.953 25.5405C267.927 28.6448 267.613 31.7263 267.007 34.785C266.836 35.0104 266.64 35.0498 266.415 34.9035C265.326 33.0954 263.75 32.2262 261.682 32.2961C261.055 32.6884 260.501 33.1625 260.025 33.7183C260.721 35.2854 261.826 36.4706 263.338 37.2739C265.4 39.2356 266.425 41.527 266.415 44.148C266.025 47.4556 264.685 50.3 262.392 52.6813C260.605 54.04 258.633 54.9881 256.475 55.5257C255.214 55.6838 253.95 55.6838 252.688 55.5257C251.226 55.2453 249.884 54.8898 248.665 54.4591C249.148 51.1349 249.621 47.8953 250.085 44.7405C251.029 45.3251 251.896 46.0755 252.688 46.9924C253.46 47.3311 254.21 47.6867 254.937 48.0591C255.85 47.6808 256.638 47.1277 257.303 46.3998C257.481 45.7354 257.403 45.1032 257.067 44.5035C256.238 43.5478 255.292 42.7577 254.227 42.1331C253.642 41.1532 252.97 40.2447 252.215 39.4072C251.377 37.18 251.299 34.9282 251.978 32.6517C250.961 32.3765 249.936 32.3369 248.902 32.5331C248.196 36.6154 247.565 40.645 247.008 44.622C246.216 48.0821 245.664 51.598 245.352 55.1702C242.512 55.1702 239.672 55.1702 236.832 55.1702C237.698 47.5634 238.881 40.0178 240.382 32.5331C239.437 32.4149 238.491 32.3753 237.542 32.4146C237.617 37.0551 235.646 40.4921 231.625 42.7257C232.782 46.5202 234.006 50.1943 235.293 53.748C235.412 54.2156 235.45 54.6897 235.412 55.1702C232.413 55.2098 229.415 55.1702 226.418 55.0517C225.52 51.4191 224.77 47.745 224.17 44.0294C223.463 47.6862 222.792 51.3603 222.158 55.0517C216.794 55.2098 211.43 55.2098 206.065 55.0517C205.835 53.77 205.756 52.4663 205.828 51.1405C204.17 51.1012 202.513 51.1405 200.858 51.2591C200.393 52.5393 199.999 53.843 199.675 55.1702C196.64 55.2837 193.642 55.1652 190.682 54.8146C192.338 50.785 193.995 46.7554 195.652 42.7257C195.573 42.6861 195.494 42.6468 195.415 42.6072C194.416 43.3842 193.312 43.9768 192.102 44.385C190.088 44.9335 188.037 45.289 185.948 45.4517C185.665 47.2072 185.27 48.9058 184.765 50.548C184.903 50.7596 184.982 50.9967 185.002 51.2591C184.525 52.5033 184.288 53.807 184.292 55.1702C181.452 55.1702 178.612 55.1702 175.772 55.1702C176.207 51.4485 176.72 47.7348 177.31 44.0294C177.622 43.7497 177.661 43.3942 177.428 42.9628C178.506 36.884 179.531 30.8002 180.505 24.7109C184.213 24.5528 187.921 24.5528 191.628 24.7109C191.747 24.8294 191.865 24.948 191.983 25.0665C196.61 25.2746 199.135 27.8031 199.557 32.6517C200.675 30.0796 201.819 27.4326 202.988 24.7109C206.38 24.5924 209.772 24.5528 213.165 24.5924C213.363 31.3205 213.757 38.0364 214.348 44.7405C214.343 45.5114 214.265 46.2621 214.112 46.9924C214.503 47.5866 214.701 48.2584 214.703 49.0072C215.375 44.3098 216.045 39.6876 216.715 35.1405C217.508 31.6808 218.06 28.1648 218.372 24.5924C222.396 24.5528 226.419 24.5924 230.442 24.7109C231.814 25.1215 233.312 25.6745 234.938 26.3702C235.639 26.9123 236.152 27.5838 236.477 28.385C236.647 28.0029 236.607 27.6473 236.358 27.3183C236.808 26.4847 237.045 25.5761 237.068 24.5924C242.829 24.5528 248.587 24.5924 254.345 24.7109C254.501 25.7612 254.541 26.8279 254.463 27.9109C256.16 26.1334 258.172 24.869 260.498 24.1183ZM187.842 31.4665C188.321 31.4281 188.795 31.4677 189.262 31.585C190.746 32.9361 190.944 34.5558 189.853 36.4442C189.181 37.1753 188.392 37.7283 187.487 38.1035C187.268 37.9738 187.071 37.816 186.895 37.6294C187.229 35.9837 187.505 34.3244 187.723 32.6517C187.842 32.5331 187.96 32.4146 188.078 32.2961C187.88 32.0565 187.801 31.7798 187.842 31.4665ZM225.945 31.4665C227.792 31.402 228.738 32.3108 228.785 34.1924C228.64 36.4985 227.456 37.9603 225.235 38.5776C225.156 38.3801 225.077 38.1824 224.998 37.985C225.391 35.8211 225.707 33.6484 225.945 31.4665ZM206.065 34.548C206.112 37.7432 206.112 40.9828 206.065 44.2665C205.105 44.3433 204.159 44.2643 203.225 44.0294C203.648 42.2998 204.2 40.7197 204.882 39.2887C205.376 37.7269 205.77 36.1465 206.065 34.548Z" fill="#014A95"/>
<path fill-rule="evenodd" clip-rule="evenodd" d="M15.5483 24.5928C32.3907 24.8296 49.2728 24.9087 66.195 24.8298C49.2738 25.0666 32.3126 25.1458 15.3116 25.0668C15.271 24.8317 15.3499 24.6738 15.5483 24.5928Z" fill="#FDF0CC"/>
<path fill-rule="evenodd" clip-rule="evenodd" d="M66.1949 24.5928C66.8065 25.5803 67.3586 26.6076 67.8516 27.6743C66.8945 27.7786 65.9083 27.8575 64.8933 27.9113C64.7749 35.8911 64.7354 43.8715 64.7749 51.852C65.8004 51.852 66.8261 51.852 67.8516 51.852C67.3813 52.7938 66.908 53.7419 66.4316 54.6965C49.3916 54.6965 32.3516 54.6965 15.3116 54.6965C14.8351 53.7419 14.3618 52.7938 13.8916 51.852C14.9016 51.9224 15.8876 51.8435 16.8499 51.615C16.9683 43.7141 17.0078 35.8129 16.9683 27.9113C15.8505 27.8117 14.825 27.7328 13.8916 27.6743C14.3056 26.7652 14.779 25.8962 15.3116 25.0668C32.3126 25.1458 49.2737 25.0666 66.1949 24.8298C66.1949 24.7509 66.1949 24.6717 66.1949 24.5928Z" fill="#FAFBFD"/>
<path fill-rule="evenodd" clip-rule="evenodd" d="M13.8918 27.6738C14.8252 27.7324 15.8507 27.8113 16.9684 27.9109C17.008 35.8125 16.9684 43.7136 16.8501 51.6146C15.8878 51.8431 14.9018 51.922 13.8918 51.8516C12.0634 48.9033 10.2884 45.9008 8.56678 42.8442C7.5768 40.9875 7.49792 39.0912 8.33011 37.1553C10.1306 33.9409 11.9845 30.7804 13.8918 27.6738Z" fill="#F8BB1C"/>
<path fill-rule="evenodd" clip-rule="evenodd" d="M25.015 27.9111C23.2795 27.9111 21.5438 27.9111 19.8083 27.9111C19.8083 35.8914 19.8083 43.8715 19.8083 51.8518C19.5721 43.8331 19.493 35.7738 19.5716 27.674C21.4299 27.597 23.2442 27.6759 25.015 27.9111Z" fill="#90B0D1"/>
<path fill-rule="evenodd" clip-rule="evenodd" d="M26.6717 27.911C27.8088 27.6771 28.9922 27.5979 30.2217 27.674C30.2217 35.7332 30.2217 43.7925 30.2217 51.8517C28.4071 51.8517 26.5928 51.8517 24.7783 51.8517C24.7783 51.2196 24.7783 50.5876 24.7783 49.9555C25.0074 50.4549 25.0865 51.0081 25.015 51.6147C26.6717 51.6147 28.3283 51.6147 29.985 51.6147C29.985 43.7136 29.985 35.8122 29.985 27.911C28.8805 27.911 27.7762 27.911 26.6717 27.911Z" fill="#4579B0"/>
<path fill-rule="evenodd" clip-rule="evenodd" d="M50.3384 27.9113C48.2084 27.9113 46.0784 27.9113 43.9484 27.9113C43.9484 35.8917 43.9484 43.8718 43.9484 51.8521C43.7122 43.8334 43.6332 35.7741 43.7118 27.6743C45.9636 27.5968 48.1725 27.6757 50.3384 27.9113Z" fill="#719AC4"/>
<path fill-rule="evenodd" clip-rule="evenodd" d="M67.8517 27.6738C69.5981 30.4564 71.2943 33.3008 72.9401 36.2072C74.1317 38.1864 74.2896 40.2406 73.4134 42.3701C71.6098 45.5922 69.756 48.7528 67.8517 51.8516C66.8263 51.8516 65.8006 51.8516 64.7751 51.8516C64.7356 43.871 64.7751 35.8907 64.8934 27.9109C65.9085 27.8571 66.8947 27.7781 67.8517 27.6738Z" fill="#F8BB1B"/>
<path fill-rule="evenodd" clip-rule="evenodd" d="M25.015 27.9111C25.3319 31.2396 25.7262 34.5581 26.1983 37.8667C26.0985 38.8675 26.2563 39.8156 26.6717 40.7111C26.9857 36.485 26.9857 32.2975 26.6717 28.1482C26.6717 28.0692 26.6717 27.9901 26.6717 27.9111C27.7762 27.9111 28.8805 27.9111 29.985 27.9111C29.985 35.8123 29.985 43.7137 29.985 51.6148C28.3284 51.6148 26.6717 51.6148 25.015 51.6148C25.0865 51.0083 25.0074 50.455 24.7783 49.9556C24.3386 46.0864 23.9046 42.2149 23.4767 38.3408C23.3979 38.4197 23.3188 38.4989 23.24 38.5778C23.1217 43.0019 23.0822 47.4264 23.1217 51.8519C22.0172 51.8519 20.9129 51.8519 19.8083 51.8519C19.8083 43.8715 19.8083 35.8915 19.8083 27.9111C21.5438 27.9111 23.2795 27.9111 25.015 27.9111Z" fill="#034A95"/>
<path fill-rule="evenodd" clip-rule="evenodd" d="M26.6716 28.1479C26.9856 32.2973 26.9856 36.4848 26.6716 40.7109C26.2562 39.8154 26.0983 38.8672 26.1982 37.8665C26.388 38.2106 26.5064 38.6055 26.5532 39.0517C26.6716 35.4179 26.7111 31.7834 26.6716 28.1479Z" fill="#2C639A"/>
<path fill-rule="evenodd" clip-rule="evenodd" d="M41.8184 47.5852C41.9287 49.0053 42.0075 50.4275 42.0551 51.8519C40.9506 51.8519 39.8463 51.8519 38.7418 51.8519C38.3647 49.9805 38.2069 48.0842 38.2684 46.163C37.3218 46.163 36.3751 46.163 35.4284 46.163C35.41 47.8258 35.3311 49.4851 35.1918 51.1408C34.1613 51.5788 33.057 51.7369 31.8784 51.6148C32.2197 47.8289 32.4564 44.0363 32.5884 40.2371C33.0442 36.1456 33.4388 32.037 33.7718 27.9111C35.9018 27.9111 38.0318 27.9111 40.1618 27.9111C40.7981 34.4586 41.3503 41.0167 41.8184 47.5852Z" fill="#054B96"/>
<path fill-rule="evenodd" clip-rule="evenodd" d="M50.3382 27.9111C51.3995 28.027 52.1095 28.5803 52.4682 29.5704C52.5404 33.5322 52.4614 37.4829 52.2316 41.4222C51.8143 42.1466 51.1831 42.5811 50.3382 42.7259C49.3156 42.8442 48.2901 42.8838 47.2616 42.8445C47.2616 45.847 47.2616 48.8493 47.2616 51.8519C46.1571 51.8519 45.0528 51.8519 43.9482 51.8519C43.9482 43.8715 43.9482 35.8915 43.9482 27.9111C46.0782 27.9111 48.2082 27.9111 50.3382 27.9111Z" fill="#034B96"/>
<path fill-rule="evenodd" clip-rule="evenodd" d="M61.6983 32.8889C61.6865 34.2848 61.8441 35.6281 62.1716 36.9185C62.1716 36.9975 62.1716 37.0766 62.1716 37.1556C62.2024 40.2091 62.4391 43.2116 62.8816 46.163C63.239 48.0081 63.3969 49.9044 63.355 51.8519C62.1716 51.8519 60.9883 51.8519 59.805 51.8519C59.7685 49.944 59.6109 48.0477 59.3317 46.163C58.4638 46.163 57.5962 46.163 56.7283 46.163C56.7283 46.7952 56.7283 47.4271 56.7283 48.0593C56.5574 48.1584 56.4391 48.3162 56.3733 48.5334C56.2633 49.564 56.1449 50.5911 56.0183 51.6148C54.9928 51.6148 53.9671 51.6148 52.9417 51.6148C52.9417 51.2989 52.9417 50.9827 52.9417 50.6667C53.2593 45.8285 53.6538 41.0089 54.125 36.2074C54.6004 33.8944 54.8371 31.5241 54.835 29.0963C54.835 28.7012 54.835 28.3063 54.835 27.9111C56.965 27.9111 59.095 27.9111 61.225 27.9111C61.5061 29.5571 61.664 31.2164 61.6983 32.8889Z" fill="#094C96"/>
<path fill-rule="evenodd" clip-rule="evenodd" d="M52.4684 29.5703C52.7434 33.4011 52.7826 37.2728 52.5867 41.1851C52.496 41.3169 52.3777 41.3959 52.2317 41.4222C52.4615 37.4828 52.5405 33.5321 52.4684 29.5703Z" fill="#4479B1"/>
<path fill-rule="evenodd" clip-rule="evenodd" d="M47.4983 30.7554C47.4983 33.6787 47.4983 36.6024 47.4983 39.5257C47.8928 39.5257 48.2871 39.5257 48.6817 39.5257C48.2639 39.7535 47.7906 39.8327 47.2617 39.7628C47.1838 36.7183 47.2628 33.7157 47.4983 30.7554Z" fill="#B5CAE0"/>
<path fill-rule="evenodd" clip-rule="evenodd" d="M47.4983 30.7554C48.1543 30.6891 48.746 30.8472 49.2733 31.2295C49.4702 33.9194 49.4309 36.6058 49.155 39.2888C48.9933 39.3748 48.8355 39.4538 48.6816 39.5258C48.2871 39.5258 47.8928 39.5258 47.4983 39.5258C47.4983 36.6024 47.4983 33.6788 47.4983 30.7554Z" fill="#F6F8FB"/>
<path fill-rule="evenodd" clip-rule="evenodd" d="M54.835 29.0962C54.8371 31.5239 54.6005 33.8943 54.125 36.2073C54.2088 33.7879 54.4454 31.4175 54.835 29.0962Z" fill="#527FB1"/>
<path fill-rule="evenodd" clip-rule="evenodd" d="M37.0851 32.415C37.2432 35.8184 37.4799 39.2161 37.7951 42.6076C37.243 42.6076 36.6906 42.6076 36.1384 42.6076C36.2873 39.1595 36.603 35.7618 37.0851 32.415Z" fill="#F2F6FA"/>
<path fill-rule="evenodd" clip-rule="evenodd" d="M58.8583 40.7113C58.8583 41.3435 58.8583 41.9754 58.8583 42.6076C58.3062 42.6076 57.7538 42.6076 57.2017 42.6076C57.39 39.0463 57.666 35.4908 58.03 31.9409C58.3024 34.8935 58.5786 37.8168 58.8583 40.7113Z" fill="#E9EFF6"/>
<path fill-rule="evenodd" clip-rule="evenodd" d="M61.6984 32.8887C62.0811 34.1725 62.2389 35.5158 62.1717 36.9183C61.8442 35.6279 61.6865 34.2846 61.6984 32.8887Z" fill="#87A8CD"/>
<path fill-rule="evenodd" clip-rule="evenodd" d="M37.0849 32.4149C36.6029 35.7617 36.2871 39.1594 36.1383 42.6075C36.6904 42.6075 37.2428 42.6075 37.7949 42.6075C37.2156 42.8382 36.5844 42.9171 35.9016 42.8446C36.0604 39.0378 36.3759 35.2452 36.8483 31.4668C37.0681 31.7486 37.147 32.0646 37.0849 32.4149Z" fill="#5986B7"/>
<path fill-rule="evenodd" clip-rule="evenodd" d="M62.1716 37.1558C62.5882 40.1092 62.8248 43.1116 62.8816 46.1632C62.4391 43.2118 62.2024 40.2093 62.1716 37.1558Z" fill="#638CBB"/>
<path fill-rule="evenodd" clip-rule="evenodd" d="M58.8583 40.7109C59.0896 41.3716 59.1684 42.0827 59.095 42.8443C58.4122 42.9168 57.781 42.8379 57.2017 42.6072C57.7538 42.6072 58.3062 42.6072 58.8583 42.6072C58.8583 41.9751 58.8583 41.3431 58.8583 40.7109Z" fill="#6791BE"/>
<path fill-rule="evenodd" clip-rule="evenodd" d="M32.5883 40.2368C32.4562 44.036 32.2195 47.8286 31.8783 51.6146C33.0569 51.7367 34.1612 51.5786 35.1916 51.1405C35.1916 51.3776 35.1916 51.6146 35.1916 51.8516C34.0083 51.8516 32.8249 51.8516 31.6416 51.8516C31.8544 47.9365 32.1698 44.065 32.5883 40.2368Z" fill="#4D7DB0"/>
<path fill-rule="evenodd" clip-rule="evenodd" d="M41.8184 47.585C42.2905 48.9915 42.3696 50.4138 42.055 51.8516C42.0075 50.4273 41.9286 49.005 41.8184 47.585Z" fill="#648EBD"/>
<path fill-rule="evenodd" clip-rule="evenodd" d="M56.7284 48.0591C56.5878 49.3263 56.43 50.5906 56.2551 51.8517C55.0718 51.8517 53.8884 51.8517 52.7051 51.8517C52.6379 51.3977 52.7167 51.0028 52.9418 50.6665C52.9418 50.9825 52.9418 51.2987 52.9418 51.6146C53.9672 51.6146 54.9929 51.6146 56.0184 51.6146C56.145 50.5909 56.2634 49.5638 56.3734 48.5332C56.4392 48.316 56.5575 48.1582 56.7284 48.0591Z" fill="#4375AA"/>
<path fill-rule="evenodd" clip-rule="evenodd" d="M15.3118 54.6963C32.3518 54.6963 49.3918 54.6963 66.4318 54.6963C64.4582 57.98 62.5256 61.2985 60.6334 64.6518C59.7769 65.5087 58.7907 66.1805 57.6751 66.6667C46.3939 66.8248 35.113 66.8248 23.8318 66.6667C22.6544 66.175 21.6682 65.4243 20.8734 64.4148C19.0201 61.1764 17.1661 57.9368 15.3118 54.6963Z" fill="#F9BB17"/>
<path opacity="0.97" fill-rule="evenodd" clip-rule="evenodd" d="M136.012 56.1184C175.088 55.1472 213.901 57.5572 252.452 63.348C256.333 64.0925 260.356 64.8826 264.522 65.7184C267.421 66.6637 267.34 67.3355 264.285 67.7332C264.74 68.0203 265.175 68.3362 265.587 68.6813C265.745 69.1554 265.745 69.6295 265.587 70.1036C264.555 70.4413 263.49 70.6784 262.392 70.8147C263.196 72.7894 262.565 73.5795 260.498 73.1851C256.546 72.67 252.601 72.0774 248.665 71.4073C248.547 71.2888 248.428 71.1702 248.31 71.0517C247.915 71.1307 247.522 71.2098 247.127 71.2888C247.008 71.1702 246.89 71.0517 246.772 70.9332C214.493 66.4288 182.069 64.7695 149.502 65.9554C133.863 66.7177 118.322 68.377 102.878 70.9332C100.871 71.5516 98.6617 72.0653 96.2518 72.4739C95.3434 72.5434 94.9884 72.1483 95.1868 71.2888C96.0587 71.0297 96.887 70.6741 97.6718 70.2221C96.009 70.3333 94.3523 70.5703 92.7018 70.9332C92.5834 71.0517 92.4651 71.1702 92.3468 71.2888C91.7156 71.2888 91.0846 71.2888 90.4534 71.2888C89.5733 70.9254 89.3761 70.412 89.8618 69.748C90.5393 69.4164 91.2493 69.1794 91.9918 69.0369C102.43 66.708 113.001 65.1277 123.705 64.2962C123.922 64.2075 124.119 64.089 124.297 63.9406C125.007 64.0195 125.717 64.0987 126.427 64.1776C126.869 63.883 127.382 63.7249 127.965 63.7036C130.567 63.4879 133.17 63.2904 135.775 63.111C129.567 63.2636 123.375 63.6981 117.197 64.4147C110.28 65.2955 103.378 66.283 96.4884 67.3776C92.5711 68.4469 88.5873 69.2765 84.5368 69.8665C83.0557 69.4863 82.8586 68.7356 83.9451 67.6147C84.8733 67.2385 85.82 66.8829 86.7851 66.548C86.014 66.2273 85.225 65.9507 84.4184 65.7184C84.0464 64.9622 84.2435 64.3696 85.0101 63.9406C85.2468 64.0195 85.4834 64.0987 85.7201 64.1776C86.4805 63.7543 87.3088 63.4779 88.2051 63.348C87.6941 63.1318 87.1815 62.9344 86.6668 62.7554C86.4625 62.2223 86.5809 61.7878 87.0218 61.4517C91.144 60.5133 95.3252 59.8022 99.5651 59.3184C105.523 58.841 111.44 58.2088 117.315 57.4221C123.581 56.94 129.813 56.5052 136.012 56.1184Z" fill="#E42B38"/>
<path fill-rule="evenodd" clip-rule="evenodd" d="M70.4549 62.5186C73.1245 62.1642 74.1895 63.2705 73.6499 65.8371C72.49 67.2899 71.2674 67.3691 69.9816 66.0741C69.2564 64.7583 69.4143 63.5732 70.4549 62.5186Z" fill="#CEDAEA"/>
<path fill-rule="evenodd" clip-rule="evenodd" d="M70.9283 62.9925C73.1307 62.8664 73.8015 63.8146 72.94 65.837C72.2089 65.3373 72.1694 64.7843 72.8217 64.1777C72.7428 64.0196 72.6638 63.8618 72.585 63.7037C72.0532 63.4965 71.5011 63.4173 70.9283 63.4666C70.8893 64.2607 70.9288 65.0507 71.0467 65.837C71.0985 65.4961 71.2168 65.1802 71.4017 64.8888C73.1364 66.2153 72.8998 66.65 70.6917 66.1925C69.6941 65.0391 69.7729 63.9725 70.9283 62.9925Z" fill="#3E6AA8"/>
</svg>
