<svg width="683" height="80" viewBox="0 0 683 80" fill="none" xmlns="http://www.w3.org/2000/svg">
<path opacity="0.989" fill-rule="evenodd" clip-rule="evenodd" d="M0.980927 2.06723C52.7554 2.03118 104.53 2.06723 156.304 2.17518C156.459 5.37075 156.531 8.53718 156.52 11.6743C104.776 12.0339 53.0011 12.1058 1.19665 11.8901C0.982868 8.6326 0.911031 5.35845 0.980927 2.06723Z" fill="#80288E"/>
<path opacity="0.271" fill-rule="evenodd" clip-rule="evenodd" d="M195.135 11.7822C195.135 31.1403 195.135 50.4981 195.135 69.8561C199.594 69.8561 204.051 69.8561 208.51 69.8561C204.017 70.0713 199.486 70.1434 194.919 70.072C194.848 50.6058 194.919 31.1759 195.135 11.7822Z" fill="#402143"/>
<path opacity="0.997" fill-rule="evenodd" clip-rule="evenodd" d="M195.135 11.7821C199.163 11.746 203.191 11.7821 207.216 11.89C211.228 12.9548 214.141 15.3656 215.953 19.1223C221.24 31.0009 226.526 42.8747 231.809 54.7438C231.869 54.9141 231.977 55.0581 232.132 55.1756C232.301 54.7682 232.264 54.4083 232.025 54.0961C232.025 39.9915 232.025 25.8867 232.025 11.7821C236.626 11.7821 241.23 11.7821 245.831 11.7821C245.902 31.1913 245.831 50.5851 245.615 69.9639C240.647 70.1608 235.685 70.0889 230.73 69.748C228.29 69.2284 226.314 67.9689 224.798 65.97C223.771 64.5643 222.908 63.0531 222.209 61.4363C217.903 50.8036 213.481 40.2251 208.942 29.7008C208.942 29.5568 208.871 29.4849 208.726 29.4849C208.655 29.1971 208.582 29.1971 208.51 29.4849C208.51 42.9418 208.51 56.399 208.51 69.856C204.051 69.856 199.594 69.856 195.135 69.856C195.135 50.4979 195.135 31.1401 195.135 11.7821Z" fill="#231F20"/>
<path opacity="0.998" fill-rule="evenodd" clip-rule="evenodd" d="M299.116 22.3607C290.055 22.3607 280.995 22.3607 271.934 22.3607C271.934 26.4626 271.934 30.5645 271.934 34.6664C279.916 34.6664 287.898 34.6664 295.88 34.6664C295.88 38.1925 295.88 41.7188 295.88 45.2449C287.969 45.2449 280.06 45.2449 272.15 45.2449C272.113 48.9877 272.15 52.7297 272.258 56.471C272.818 58.182 274.005 59.0816 275.817 59.1696C283.944 59.2776 292.068 59.3136 300.194 59.2776C300.194 62.8758 300.194 66.4738 300.194 70.072C289.259 70.1676 278.33 70.0597 267.404 69.7482C259.476 68.6497 255.414 64.08 255.215 56.0393C255.107 41.287 255.071 26.5347 255.107 11.7822C269.848 11.7822 284.591 11.7822 299.331 11.7822C299.403 15.3463 299.331 18.8724 299.116 22.3607Z" fill="#231F20"/>
<path opacity="0.995" fill-rule="evenodd" clip-rule="evenodd" d="M303.214 11.9982C308.5 11.7471 313.82 11.711 319.178 11.8902C321.303 12.6465 322.992 13.9779 324.248 15.8841C327.052 20.2738 329.857 24.6637 332.661 29.0533C335.61 24.4478 338.557 19.842 341.506 15.2365C342.69 13.6184 344.237 12.5029 346.144 11.8902C351.466 11.7462 356.786 11.7462 362.108 11.8902C355.349 21.1015 348.588 30.3126 341.83 39.5239C348.776 49.605 355.679 59.7159 362.539 69.8561C358.227 70.1079 353.912 70.1439 349.596 69.9641C346.649 69.9114 344.384 68.6521 342.8 66.186C339.42 60.717 336.042 55.2476 332.661 49.7786C329.354 55.1039 326.045 60.429 322.738 65.7543C321.161 68.3976 318.822 69.8009 315.727 69.9641C311.412 70.072 307.097 70.1081 302.783 70.072C309.518 59.9788 316.421 49.9761 323.493 40.0636C316.805 30.639 310.044 21.2839 303.214 11.9982Z" fill="#231F20"/>
<path opacity="0.996" fill-rule="evenodd" clip-rule="evenodd" d="M364.265 11.7822C378.935 11.7822 393.604 11.7822 408.274 11.7822C408.343 15.361 408.271 18.9232 408.058 22.4687C399.068 22.5766 390.081 22.6127 381.092 22.5766C381.092 26.5345 381.092 30.4926 381.092 34.4505C389.074 34.4505 397.056 34.4505 405.038 34.4505C405.038 38.0487 405.038 41.6467 405.038 45.2449C397.056 45.2449 389.074 45.2449 381.092 45.2449C381.055 48.8437 381.092 52.4419 381.2 56.0393C381.618 58.0693 382.876 59.1126 384.975 59.1696C393.028 59.2776 401.083 59.3136 409.136 59.2776C409.136 62.8758 409.136 66.4738 409.136 70.072C398.275 70.1687 387.415 70.0608 376.562 69.7482C371.304 69.3701 367.6 66.8153 365.452 62.0841C364.923 60.6131 364.563 59.1019 364.373 57.5505C364.265 42.2945 364.229 27.0384 364.265 11.7822Z" fill="#231F20"/>
<path opacity="0.995" fill-rule="evenodd" clip-rule="evenodd" d="M453.576 54.7438C453.682 54.9538 453.79 55.1697 453.9 55.3915C454.008 40.8551 454.044 26.3187 454.008 11.7821C458.538 11.7821 463.068 11.7821 467.598 11.7821C467.598 31.212 467.598 50.6419 467.598 70.0718C462.559 70.1612 457.524 70.0533 452.498 69.748C450.17 69.2484 448.265 68.0611 446.781 66.1859C445.609 64.4916 444.604 62.6924 443.761 60.7887C439.586 50.3468 435.235 39.9842 430.709 29.7008C430.603 29.4907 430.496 29.2748 430.385 29.0531C430.278 42.6538 430.241 56.2548 430.278 69.856C425.819 69.856 421.362 69.856 416.903 69.856C416.687 50.5344 416.616 31.1764 416.687 11.7821C420.786 11.746 424.884 11.7821 428.983 11.89C433.38 13.0651 436.437 15.7637 438.152 19.9858C443.316 31.568 448.457 43.1541 453.576 54.7438Z" fill="#231F20"/>
<path opacity="0.122" fill-rule="evenodd" clip-rule="evenodd" d="M454.008 11.7822C454.044 26.3188 454.008 40.8552 453.9 55.3916C453.79 55.1699 453.682 54.954 453.576 54.7439C453.721 40.4234 453.863 26.1027 454.008 11.7822Z" fill="#592361"/>
<path opacity="0.995" fill-rule="evenodd" clip-rule="evenodd" d="M494.564 11.7822C511.462 11.7822 528.362 11.7822 545.26 11.7822C545.329 15.361 545.258 18.9232 545.044 22.4687C539.651 22.5766 534.258 22.6127 528.865 22.5766C528.865 38.4083 528.865 54.2403 528.865 70.072C523.327 70.072 517.792 70.072 512.254 70.072C512.254 54.2403 512.254 38.4083 512.254 22.5766C506.421 22.6466 500.596 22.5747 494.78 22.3607C494.564 18.8374 494.493 15.3113 494.564 11.7822Z" fill="#231F20"/>
<path fill-rule="evenodd" clip-rule="evenodd" d="M550.006 11.7822C555.471 11.7822 560.937 11.7822 566.402 11.7822C566.438 31.1403 566.402 50.4983 566.294 69.8561C560.881 70.0709 555.451 70.1428 550.006 70.072C550.006 50.6421 550.006 31.2121 550.006 11.7822Z" fill="#231F20"/>
<path opacity="0.994" fill-rule="evenodd" clip-rule="evenodd" d="M632.63 69.6401C626.771 69.8555 620.875 69.9274 614.94 69.856C613.572 64.9946 611.883 60.245 609.871 55.6073C606.63 49.5178 601.561 47.0711 594.662 48.2672C594.662 55.5355 594.662 62.8035 594.662 70.0718C589.124 70.0718 583.588 70.0718 578.051 70.0718C578.051 50.6419 578.051 31.212 578.051 11.7821C588.261 11.746 598.474 11.7821 608.684 11.89C613.238 12.0755 617.481 13.2989 621.412 15.5601C627.976 20.6417 629.955 27.1544 627.344 35.098C624.946 39.6316 621.244 42.5461 616.234 43.8414C619.768 45.7937 622.607 48.4923 624.756 51.9372C625.746 53.7023 626.68 55.5013 627.56 57.3344C629.105 61.5026 630.794 65.6045 632.63 69.6401ZM594.662 22.3606C598.187 22.3245 601.71 22.3606 605.232 22.4685C609.965 22.8511 612.483 25.4059 612.783 30.1326C612.403 34.8646 609.814 37.2754 605.017 37.3648C601.569 37.623 598.118 37.731 594.662 37.6886C594.662 32.5792 594.662 27.47 594.662 22.3606Z" fill="#231F20"/>
<path opacity="0.996" fill-rule="evenodd" clip-rule="evenodd" d="M636.728 11.7822C651.469 11.7822 666.212 11.7822 680.952 11.7822C681.021 15.361 680.95 18.9232 680.737 22.4687C671.747 22.5766 662.76 22.6127 653.771 22.5766C653.771 26.5345 653.771 30.4926 653.771 34.4505C661.682 34.4144 669.59 34.4505 677.501 34.5584C677.714 38.1039 677.786 41.6661 677.717 45.2449C669.735 45.2449 661.753 45.2449 653.771 45.2449C653.734 48.9877 653.771 52.7297 653.879 56.471C654.539 58.1882 655.796 59.0876 657.654 59.1696C665.707 59.2776 673.762 59.3136 681.815 59.2776C681.815 62.8758 681.815 66.4738 681.815 70.072C670.953 70.1687 660.094 70.0608 649.241 69.7482C640.976 68.5847 636.841 63.7991 636.836 55.3916C636.728 40.8552 636.692 26.3188 636.728 11.7822Z" fill="#231F20"/>
<path opacity="0.992" fill-rule="evenodd" clip-rule="evenodd" d="M11.9831 33.5866C11.9221 33.4163 11.8142 33.2723 11.6595 33.1548C11.5517 42.9415 11.5156 52.7283 11.5517 62.5156C8.02819 62.5156 4.50451 62.5156 0.981039 62.5156C0.909633 48.0718 0.98147 33.6432 1.19677 19.2301C4.51335 19.036 7.8211 19.1079 11.1202 19.446C14.3514 20.5202 16.6165 22.643 17.9156 25.8147C21.9009 34.3966 25.9277 42.9603 29.9963 51.5053C30.0682 42.3661 30.1402 33.2267 30.212 24.0875C31.2003 20.873 33.3936 19.2538 36.7917 19.2301C47.1466 19.0861 57.5015 19.0861 67.8564 19.2301C71.4107 23.8306 75.0063 28.4003 78.6428 32.939C82.2728 28.4055 85.8681 23.836 89.4291 19.2301C101.51 19.0861 113.591 19.0861 125.671 19.2301C128.633 19.6498 130.898 21.1249 132.467 23.6558C136.853 32.8671 141.24 42.0781 145.626 51.2894C145.734 40.5671 145.77 29.8448 145.734 19.1221C149.257 19.1221 152.781 19.1221 156.304 19.1221C156.351 33.6097 156.351 48.0382 156.304 62.4077C152.126 62.6067 147.955 62.5348 143.792 62.1918C142.152 61.7492 140.822 60.8496 139.801 59.4932C135.644 50.8117 131.545 42.1043 127.505 33.3707C127.433 41.3586 127.361 49.3464 127.289 57.3343C126.884 59.8259 125.482 61.445 123.083 62.1918C117.268 62.4398 111.443 62.5478 105.609 62.5156C100.072 62.4437 94.5347 62.3716 88.9977 62.2997C85.5409 57.9409 82.125 53.5511 78.7506 49.1306C75.1808 53.4943 71.6933 57.92 68.2879 62.4077C55.2724 62.5517 42.2567 62.5517 29.2413 62.4077C27.1213 62.1514 25.4313 61.1799 24.1717 59.4932C20.0474 50.879 15.9846 42.2435 11.9831 33.5866ZM40.6748 27.3259C47.7222 27.2898 54.7693 27.3259 61.8161 27.4338C65.381 31.9726 68.9044 36.5423 72.3867 41.1427C68.8938 45.5375 65.4422 49.9632 62.0318 54.4198C54.9132 54.5278 47.7942 54.5638 40.6748 54.5278C40.6748 51.2894 40.6748 48.0511 40.6748 44.8128C46.3555 44.8128 52.0365 44.8128 57.7172 44.8128C57.7172 42.1503 57.7172 39.4875 57.7172 36.8249C52.0365 36.8249 46.3555 36.8249 40.6748 36.8249C40.6748 33.6585 40.6748 30.4923 40.6748 27.3259ZM95.4695 27.3259C102.517 27.3259 109.564 27.3259 116.611 27.3259C116.611 30.4923 116.611 33.6585 116.611 36.8249C110.93 36.8249 105.249 36.8249 99.5683 36.8249C99.5683 39.4875 99.5683 42.1503 99.5683 44.8128C105.249 44.8128 110.93 44.8128 116.611 44.8128C116.611 48.0511 116.611 51.2894 116.611 54.5278C109.49 54.5996 102.371 54.5278 95.2537 54.3119C91.7609 49.917 88.3093 45.4913 84.8988 41.0348C88.4741 36.4879 91.9976 31.9182 95.4695 27.3259Z" fill="#80288F"/>
<path opacity="0.271" fill-rule="evenodd" clip-rule="evenodd" d="M299.116 22.3608C290.163 22.5765 281.176 22.6484 272.15 22.5767C272.15 26.5346 272.15 30.4927 272.15 34.4506C280.097 34.3789 288.006 34.451 295.88 34.6665C287.898 34.6665 279.916 34.6665 271.934 34.6665C271.934 30.5646 271.934 26.4627 271.934 22.3608C280.995 22.3608 290.055 22.3608 299.116 22.3608Z" fill="#502357"/>
<path opacity="0.271" fill-rule="evenodd" clip-rule="evenodd" d="M430.709 29.7009C430.493 43.1214 430.422 56.5785 430.493 70.0719C425.926 70.1434 421.396 70.0713 416.903 69.8561C421.362 69.8561 425.819 69.8561 430.278 69.8561C430.241 56.2549 430.278 42.654 430.386 29.0532C430.496 29.2749 430.603 29.4908 430.709 29.7009Z" fill="#402143"/>
<path opacity="0.122" fill-rule="evenodd" clip-rule="evenodd" d="M208.51 29.4849C208.581 29.4849 208.655 29.4849 208.726 29.4849C208.871 29.4849 208.942 29.5568 208.942 29.7008C208.797 43.0858 208.655 56.4709 208.51 69.8559C208.51 56.399 208.51 42.9418 208.51 29.4849Z" fill="#592361"/>
<path opacity="0.271" fill-rule="evenodd" clip-rule="evenodd" d="M11.9831 33.5866C11.8392 43.2296 11.6955 52.8725 11.5516 62.5156C11.5156 52.7283 11.5516 42.9414 11.6595 33.1548C11.8141 33.2722 11.922 33.4162 11.9831 33.5866Z" fill="#3F2143"/>
<path opacity="0.271" fill-rule="evenodd" clip-rule="evenodd" d="M232.025 54.0962C232.264 54.4084 232.301 54.7683 232.132 55.1756C231.977 55.0582 231.869 54.9142 231.809 54.7439C232.003 54.5908 232.076 54.3749 232.025 54.0962Z" fill="#432147"/>
<path opacity="0.989" fill-rule="evenodd" clip-rule="evenodd" d="M0.980957 69.8561C52.7557 69.7842 104.53 69.8561 156.304 70.0719C156.349 70.1985 156.422 70.3064 156.52 70.3958C156.448 73.4901 156.376 76.5846 156.304 79.679C104.53 79.7869 52.7554 79.823 0.980957 79.7869C0.980957 76.4767 0.980957 73.1663 0.980957 69.8561Z" fill="#7F288E"/>
<path opacity="0.271" fill-rule="evenodd" clip-rule="evenodd" d="M632.63 69.6401C632.746 69.6531 632.819 69.725 632.845 69.856C626.842 70.1429 620.872 70.1429 614.94 69.856C620.875 69.9275 626.77 69.8556 632.63 69.6401Z" fill="#402143"/>
</svg>
