<svg width="272" height="80" viewBox="0 0 272 80" fill="none" xmlns="http://www.w3.org/2000/svg">
<path opacity="0.98" fill-rule="evenodd" clip-rule="evenodd" d="M236.518 0.234863C236.668 0.234863 236.818 0.234863 236.968 0.234863C237.314 5.29747 237.714 10.3554 238.168 15.4086C244.87 15.3585 251.571 15.4086 258.272 15.5588C251.618 19.4895 244.942 23.3957 238.243 27.2771C238.741 34.3362 239.266 41.3972 239.818 48.4602C239.769 48.6105 239.718 48.7607 239.668 48.9109C234.363 44.0236 229.037 39.1661 223.691 34.3382C216.939 37.3929 210.188 40.4477 203.437 43.5025C203.362 43.4524 203.287 43.4023 203.212 43.3522C206.933 37.8481 210.683 32.3645 214.464 26.9015C210.332 23.1386 206.181 19.4078 202.012 15.709C209.262 15.5294 216.513 15.3791 223.766 15.2583C228.02 10.2476 232.271 5.23978 236.518 0.234863ZM213.114 35.2396C215.006 32.2772 216.956 29.3477 218.965 26.4508C218.623 25.9572 218.222 25.5065 217.764 25.0987C215.469 23.1514 213.219 21.1483 211.013 19.0893C215.813 18.9323 220.613 18.8323 225.416 18.7889C228.292 15.4086 231.166 12.0283 234.042 8.64801C234.384 12.0492 234.659 15.4544 234.868 18.864C238.468 18.8389 242.069 18.864 245.669 18.9391C241.956 21.0105 238.281 23.1388 234.642 25.3241C234.827 30.3404 235.127 35.3482 235.543 40.3475C231.84 36.9656 228.164 33.5602 224.516 30.1316C220.713 31.836 216.911 33.5387 213.114 35.2396Z" fill="#FEF200"/>
<path fill-rule="evenodd" clip-rule="evenodd" d="M71.1887 17.5118C80.6928 17.4564 90.1945 17.5815 99.6937 17.8874C116.659 18.5914 133.537 19.5179 150.328 20.6667C163.044 21.7717 175.772 22.8484 188.509 23.8968C195.279 24.4514 202.03 25.1275 208.763 25.9249C187.534 24.6962 166.331 23.4192 145.152 22.0939C122.27 20.6161 99.3659 20.0652 76.4396 20.4414C55.0692 20.7188 34.0156 23.4231 13.2785 28.554C11.9432 28.8946 10.6179 29.2702 9.30278 29.6808C9.02883 29.6042 9.00378 29.4789 9.22777 29.3052C14.3113 26.1848 19.7622 23.9313 25.5806 22.5447C33.6606 20.4873 41.862 19.1853 50.185 18.6385C57.2001 18.072 64.2012 17.6964 71.1887 17.5118Z" fill="#0095DA"/>
<path fill-rule="evenodd" clip-rule="evenodd" d="M77.4898 21.5683C104.577 21.3557 131.606 22.4074 158.579 24.7232C174.231 25.9567 189.909 27.2838 205.612 28.7045C206.142 28.7178 206.642 28.818 207.113 29.0049C187.291 27.9743 167.438 26.8727 147.552 25.6998C121.859 24.2949 96.155 23.9945 70.4385 24.7984C57.6693 25.3263 45.0172 26.8286 32.4819 29.3054C25.4642 30.7963 18.7631 33.1499 12.3783 36.3664C10.8045 37.3188 9.25417 38.2953 7.7275 39.296C5.52788 38.345 3.32748 37.3934 1.12634 36.4416C0.926311 36.2913 0.926311 36.1411 1.12634 35.9908C7.75241 32.5015 14.7036 29.8224 21.98 27.9533C34.7095 24.9089 47.6117 23.0561 60.6868 22.3946C66.3082 22.0444 71.9091 21.769 77.4898 21.5683Z" fill="#0095DA"/>
<path fill-rule="evenodd" clip-rule="evenodd" d="M84.8409 25.9251C113.538 25.6554 142.193 26.632 170.806 28.8547C182.367 29.8046 193.919 30.8313 205.462 31.9345C205.462 32.0847 205.462 32.235 205.462 32.3852C180.117 30.6607 154.713 29.4837 129.249 28.8547C111.088 28.4097 92.9345 28.61 74.7891 29.4556C64.1295 30.0023 53.5275 31.104 42.9835 32.7608C36.6115 33.853 30.4103 35.5558 24.3803 37.8688C21.2867 39.1434 18.5363 40.9212 16.1288 43.2021C13.8447 42.2311 11.5443 41.3046 9.2276 40.4228C9.08493 40.3149 9.06002 40.1898 9.15259 40.0472C12.8855 37.1888 17.0113 35.0606 21.5298 33.6622C26.6413 32.0475 31.8423 30.7954 37.1325 29.9063C46.8182 28.2503 56.5699 27.1987 66.3877 26.7514C72.5598 26.4068 78.7108 26.1314 84.8409 25.9251Z" fill="#0095DA"/>
<path fill-rule="evenodd" clip-rule="evenodd" d="M87.6914 30.7324C109.638 30.589 131.567 30.9394 153.478 31.7841C153.637 31.6944 153.813 31.6444 154.003 31.6338C163.45 32.0327 172.902 32.3581 182.358 32.6104C182.574 32.6433 182.774 32.7184 182.958 32.8357C164.406 32.8597 145.852 32.8848 127.298 32.9108C109.877 32.8895 92.4735 33.4404 75.0892 34.5634C69.0179 35.0261 62.9667 35.6773 56.936 36.5165C51.8279 37.2319 46.877 38.5338 42.0834 40.4226C40.0025 41.2999 38.2772 42.627 36.9074 44.4038C36.1461 45.9012 36.0961 47.4035 36.7574 48.9108C37.2594 49.981 37.8345 50.9826 38.4827 51.9155C32.3012 49.5514 26.1501 47.0975 20.0295 44.554C19.867 44.4241 19.8421 44.2738 19.9545 44.1033C22.1279 41.529 24.8033 39.6511 27.9809 38.4695C32.8642 36.4831 37.9152 35.081 43.1335 34.2629C50.1885 33.0273 57.2897 32.1759 64.4373 31.709C72.2093 31.2976 79.9607 30.972 87.6914 30.7324Z" fill="#0095DA"/>
<path opacity="0.985" fill-rule="evenodd" clip-rule="evenodd" d="M181.608 43.9533C185.56 43.9282 189.51 43.9533 193.46 44.0284C195.464 43.9916 197.314 44.4923 199.011 45.5307C199.301 45.87 199.526 46.2455 199.686 46.6575C199.787 47.4587 199.787 48.26 199.686 49.0612C199.484 50.0211 199.259 50.9725 199.011 51.9157C196.558 51.9657 194.108 51.9155 191.66 51.7655C191.898 51.2342 191.973 50.6833 191.885 50.1129C191.594 49.9081 191.268 49.7828 190.91 49.7373C187.507 49.4866 184.107 49.4866 180.708 49.7373C178.85 49.9062 178.201 50.8576 178.757 52.5918C183.755 52.9218 188.757 53.2223 193.76 53.4932C196.713 53.6437 198.037 55.1711 197.736 58.0753C197.263 60.7998 196.263 63.3036 194.735 65.5871C193.206 67.1669 191.331 67.9932 189.109 68.0659C183.608 68.3634 178.108 68.3634 172.606 68.0659C171.219 68.0347 169.918 67.6842 168.706 67.0143C167.552 65.9913 167.177 64.7143 167.58 63.1833C167.842 62.0755 168.116 60.9737 168.406 59.8781C170.806 59.8781 173.206 59.8781 175.607 59.8781C175.482 60.6265 175.457 61.3776 175.532 62.1317C175.779 62.3145 176.054 62.4396 176.357 62.5072C178.309 62.5543 180.259 62.6294 182.208 62.7326C184.157 62.6294 186.107 62.5543 188.059 62.5072C189.492 62.0681 190.117 61.0916 189.934 59.5777C189.711 59.3517 189.436 59.2266 189.109 59.2021C184.205 59.0041 179.304 58.7536 174.407 58.4509C172.822 58.4476 171.648 57.7715 170.881 56.4227C170.552 53.0331 171.352 49.9282 173.281 47.1082C174.542 45.5474 176.166 44.6211 178.157 44.3288C179.331 44.2064 180.481 44.0813 181.608 43.9533Z" fill="#58585A"/>
<path opacity="0.992" fill-rule="evenodd" clip-rule="evenodd" d="M45.9841 44.2536C50.1851 44.2285 54.3859 44.2536 58.5863 44.3287C60.9903 50.0738 63.2907 55.8578 65.4875 61.6808C65.9916 61.7874 66.2666 61.587 66.3127 61.0798C67.8934 55.4551 69.5187 49.8463 71.1885 44.2536C73.689 44.2536 76.1894 44.2536 78.6899 44.2536C76.4098 52.1344 74.0593 59.9968 71.6386 67.8404C67.4379 68.0407 63.2371 68.0407 59.0364 67.8404C56.761 62.1815 54.4856 56.5228 52.2102 50.8639C52 50.6097 51.725 50.5095 51.3851 50.5634C49.7816 56.385 48.1313 62.194 46.4342 67.9906C43.9337 67.9906 41.4334 67.9906 38.9329 67.9906C41.2233 60.0581 43.5738 52.1458 45.9841 44.2536Z" fill="#58585A"/>
<path opacity="0.986" fill-rule="evenodd" clip-rule="evenodd" d="M148.752 44.2534C150.853 44.2534 152.953 44.2534 155.053 44.2534C154.221 47.3812 153.345 50.4861 152.428 53.568C153.448 52.2674 154.774 51.4411 156.404 51.0891C159.055 50.5884 161.704 50.5884 164.355 51.0891C167.014 51.8787 168.089 53.6565 167.581 56.4224C166.602 60.2639 165.501 64.0698 164.28 67.8403C162.166 67.989 160.042 68.0392 157.904 67.9905C158.902 64.4765 159.851 60.946 160.754 57.399C160.751 56.742 160.451 56.2913 159.854 56.0468C157.476 55.4791 155.125 55.5792 152.803 56.3473C152.333 56.667 151.909 57.0426 151.528 57.4741C151.148 58.263 150.799 59.0642 150.478 59.8778C149.651 62.5612 148.826 65.2403 148.002 67.9154C145.852 67.9905 143.702 68.0156 141.551 67.9905C143.862 60.0479 146.262 52.1355 148.752 44.2534Z" fill="#58585A"/>
<path opacity="0.863" fill-rule="evenodd" clip-rule="evenodd" d="M266.673 46.2065C270.323 46.1308 271.598 47.8334 270.499 51.3145C269.013 52.9641 267.338 53.1894 265.473 51.9906C264.292 50.6419 264.116 49.1646 264.948 47.5586C265.422 46.9563 265.996 46.5056 266.673 46.2065ZM266.373 47.5586C267.645 46.8183 268.77 47.0185 269.748 48.1596C270.308 49.2255 270.208 50.227 269.448 51.1643C269.105 50.7015 268.779 50.2257 268.473 49.737C268.688 49.6672 268.863 49.5419 268.998 49.3614C269.297 48.4845 269.022 47.9085 268.173 47.6337C267.575 47.5588 266.974 47.5337 266.373 47.5586ZM266.373 47.5586C266.227 48.7978 266.178 50.0498 266.223 51.3145C265.183 50.2861 265.059 49.1343 265.848 47.8591C265.971 47.6603 266.145 47.5603 266.373 47.5586ZM267.123 48.46C267.423 48.46 267.723 48.46 268.023 48.46C268.023 48.6603 268.023 48.8607 268.023 49.061C267.723 49.061 267.423 49.061 267.123 49.061C267.123 48.8607 267.123 48.6603 267.123 48.46ZM266.223 51.3145C266.523 51.3145 266.823 51.3145 267.123 51.3145C267.123 50.8638 267.123 50.4131 267.123 49.9624C267.605 50.2124 267.956 50.6129 268.173 51.1643C268.514 51.2866 268.863 51.3617 269.223 51.3896C268.187 51.9121 267.186 51.887 266.223 51.3145Z" fill="#58585A"/>
<path opacity="0.988" fill-rule="evenodd" clip-rule="evenodd" d="M129.249 47.2583C131.399 47.2583 133.55 47.2583 135.7 47.2583C135.442 48.5335 135.092 49.7854 134.65 51.0142C137.899 51.1393 141.15 51.2144 144.402 51.2395C143.987 52.7238 143.537 54.2011 143.051 55.6714C139.751 55.7717 136.45 55.8717 133.15 55.9719C132.456 58.1499 131.856 60.3532 131.349 62.5822C131.367 62.7917 131.417 62.9921 131.499 63.1832C132.75 63.7799 134 63.7548 135.25 63.1081C135.848 62.3392 136.198 61.4628 136.3 60.479C138.3 60.479 140.301 60.479 142.301 60.479C141.872 62.9664 140.722 65.0446 138.851 66.7137C137.494 67.634 135.993 68.1349 134.35 68.216C131.844 68.3471 129.344 68.297 126.848 68.0658C124.406 67.2035 123.631 65.5258 124.523 63.0329C125.233 60.674 125.958 58.3202 126.698 55.9719C125.653 55.8221 124.603 55.7721 123.548 55.8217C123.886 54.2534 124.287 52.701 124.748 51.1644C125.849 51.1893 126.95 51.1644 128.049 51.0893C128.494 49.8275 128.894 48.5505 129.249 47.2583Z" fill="#58585A"/>
<path opacity="0.989" fill-rule="evenodd" clip-rule="evenodd" d="M205.012 47.258C207.214 47.208 209.415 47.2581 211.613 47.4082C211.247 48.6493 210.847 49.8763 210.413 51.089C213.664 51.1141 216.915 51.1892 220.165 51.3143C219.772 52.8125 219.322 54.2897 218.814 55.7463C215.514 55.8214 212.213 55.8465 208.913 55.8214C208.278 58.0871 207.678 60.3657 207.112 62.6571C207.186 62.9548 207.336 63.2053 207.562 63.4082C208.679 63.7237 209.778 63.6737 210.863 63.258C211.039 63.0827 211.213 62.9075 211.388 62.7322C211.721 62.0244 211.996 61.2982 212.213 60.5538C214.237 60.4067 216.237 60.4567 218.214 60.704C217.647 63.1946 216.398 65.2479 214.464 66.8636C213.537 67.4404 212.536 67.8411 211.463 68.0655C208.562 68.3637 205.662 68.3637 202.762 68.0655C200.667 67.5529 199.793 66.2259 200.136 64.0843C200.811 61.3066 201.636 58.5773 202.612 55.8965C201.512 55.8214 200.412 55.7964 199.311 55.8214C199.638 54.286 200.088 52.7836 200.661 51.3143C201.756 51.1645 202.858 51.1144 203.962 51.1641C204.313 49.8611 204.662 48.5592 205.012 47.258Z" fill="#58585A"/>
<path opacity="0.987" fill-rule="evenodd" clip-rule="evenodd" d="M87.2415 50.7137C90.3458 50.6627 93.4463 50.7378 96.5431 50.9391C98.1087 50.9932 99.434 51.569 100.519 52.6668C100.953 53.2949 101.128 53.9961 101.044 54.7701C100.696 58.2186 99.7207 61.4736 98.1184 64.5353C96.743 66.69 94.7677 67.8668 92.1924 68.0659C88.3949 68.2974 84.5943 68.3476 80.7904 68.2161C79.536 68.2153 78.3358 67.9649 77.1897 67.4649C76.0192 66.7427 75.4191 65.6911 75.3894 64.31C75.7634 61.0836 76.6385 58.0037 78.0149 55.0706C79.2016 52.9818 80.977 51.7048 83.3408 51.2396C84.657 51.0142 85.9573 50.839 87.2415 50.7137ZM87.2415 55.6715C88.6925 55.6466 90.1429 55.6715 91.5923 55.7466C92.4657 55.7825 93.2409 56.0579 93.9177 56.5729C94.0195 58.8712 93.3444 60.8994 91.8923 62.6574C91.2798 62.9737 90.6295 63.1739 89.942 63.2584C88.0416 63.3586 86.1413 63.3586 84.241 63.2584C82.7426 63.1608 82.1674 62.3846 82.5157 60.9297C82.8204 59.1931 83.5454 57.6657 84.691 56.3476C85.5424 56.0471 86.3926 55.8217 87.2415 55.6715Z" fill="#58585A"/>
<path opacity="0.987" fill-rule="evenodd" clip-rule="evenodd" d="M115.596 50.7136C117.104 50.6639 118.604 50.739 120.097 50.9389C121.959 51.251 122.909 52.3526 122.948 54.2441C122.803 55.8268 122.403 57.3292 121.747 58.7511C119.797 58.8514 117.847 58.8514 115.896 58.7511C115.828 58.6889 115.778 58.6138 115.746 58.5258C116.019 57.7954 116.094 57.0442 115.971 56.2723C114.119 55.4275 112.294 55.5026 110.496 56.4976C109.713 57.2375 109.138 58.114 108.77 59.1267C107.879 62.0796 107.004 65.0343 106.145 67.9906C103.994 67.9906 101.844 67.9906 99.6936 67.9906C101.272 62.4223 102.897 56.8636 104.569 51.3145C106.635 51.1159 108.711 51.1159 110.796 51.3145C110.478 51.9907 110.303 52.6919 110.27 53.4178C111.687 51.7863 113.462 50.8849 115.596 50.7136Z" fill="#58585A"/>
<path opacity="0.984" fill-rule="evenodd" clip-rule="evenodd" d="M230.817 50.7135C233.618 50.6884 236.419 50.7135 239.218 50.7886C242.393 50.8184 243.768 52.3958 243.344 55.521C242.225 59.6589 240.999 63.7653 239.668 67.8403C237.62 67.9904 235.57 68.0405 233.517 67.9905C233.693 67.2909 233.817 66.5899 233.892 65.8872C232.985 67.046 231.81 67.7721 230.367 68.0656C227.065 68.3602 223.764 68.3602 220.465 68.0656C218.477 67.4606 217.751 66.1335 218.289 64.0844C219.142 59.5759 221.868 57.2972 226.466 57.2487C228.967 57.1485 231.466 57.1485 233.967 57.2487C234.878 57.3156 235.553 57.7412 235.993 58.5257C236.287 57.8014 236.461 57.0503 236.518 56.2722C236.549 55.895 236.45 55.5694 236.218 55.2957C233.88 54.8483 231.531 54.7982 229.166 55.1454C228.46 55.3268 227.96 55.7524 227.666 56.4224C225.518 56.5725 223.368 56.6227 221.215 56.5727C222.09 53.6182 224.04 51.8404 227.066 51.2393C228.332 51.0248 229.583 50.8495 230.817 50.7135ZM227.966 60.9295C230.073 60.8745 232.173 60.9496 234.267 61.1548C234.896 61.5448 235.02 62.0707 234.642 62.7323C234.288 63.2384 233.813 63.564 233.217 63.7088C231.13 64.0641 229.03 64.1642 226.916 64.0093C226.284 63.9833 225.71 63.808 225.191 63.4835C224.996 62.4659 225.371 61.7398 226.316 61.3051C226.887 61.1856 227.438 61.0603 227.966 60.9295Z" fill="#58585A"/>
<path opacity="0.984" fill-rule="evenodd" clip-rule="evenodd" d="M257.971 50.7134C259.223 50.6885 260.472 50.7134 261.722 50.7886C264.939 51.1898 266.064 52.9676 265.098 56.1219C264.927 57.0096 264.652 57.861 264.273 58.6759C262.28 58.8234 260.279 58.8734 258.271 58.8261C258.493 58.0377 258.569 57.2365 258.496 56.4224C258.345 56.1581 258.12 55.9828 257.821 55.8965C255.13 55.1095 253.055 55.8857 251.595 58.2252C250.556 61.4247 249.529 64.6297 248.52 67.8402C246.421 68.0154 244.32 68.0405 242.219 67.9153C242.169 67.8653 242.118 67.8151 242.069 67.7651C243.8 62.2569 245.45 56.7233 247.019 51.1642C249.07 51.1642 251.12 51.1642 253.171 51.1642C252.968 51.9215 252.794 52.6727 252.645 53.4177C254.096 51.8522 255.873 50.9508 257.971 50.7134Z" fill="#58585A"/>
<path opacity="0.944" fill-rule="evenodd" clip-rule="evenodd" d="M37.5826 71.5962C40.4048 71.6339 43.2053 71.6339 45.9841 71.5962C45.8406 72.5531 45.5905 73.4796 45.234 74.3756C46.0717 74.4967 46.8969 74.4716 47.7094 74.3005C47.9276 73.4004 48.2026 72.5241 48.5346 71.6714C49.2329 71.5964 49.933 71.5713 50.6349 71.5962C49.9804 74.1885 49.2802 76.7676 48.5346 79.3333C47.7795 79.4579 47.0294 79.4328 46.2842 79.2582C46.55 78.3176 46.8501 77.3911 47.1843 76.4789C46.3466 76.3578 45.5214 76.3829 44.7089 76.554C44.5145 77.5087 44.2395 78.4352 43.8838 79.3333C43.1287 79.4579 42.3785 79.4328 41.6334 79.2582C42.1601 77.3985 42.7103 75.5456 43.2837 73.6995C42.5905 73.5503 41.8905 73.5002 41.1833 73.5493C40.803 75.473 40.328 77.3761 39.758 79.2582C38.9971 79.4041 38.2221 79.4543 37.4326 79.4084C37.9013 77.4555 38.4515 75.5274 39.0829 73.6244C38.4346 73.5494 37.7846 73.5244 37.1326 73.5493C37.3137 72.9054 37.4637 72.2543 37.5826 71.5962Z" fill="#58585A"/>
<path opacity="0.939" fill-rule="evenodd" clip-rule="evenodd" d="M51.085 71.5962C53.0092 71.5243 54.9096 71.5994 56.786 71.8216C56.6318 72.3893 56.4318 72.9401 56.1859 73.4742C55.0368 73.5493 53.8866 73.5742 52.7353 73.5493C52.7626 73.8634 52.7125 74.1639 52.5853 74.4507C53.6354 74.5509 54.6856 74.651 55.7358 74.7512C55.6089 75.2091 55.4589 75.6598 55.2857 76.1033C54.1901 76.2531 53.0898 76.3032 51.9851 76.2535C51.9902 76.659 51.8902 77.0346 51.6851 77.3803C52.8341 77.4554 53.9844 77.4803 55.1357 77.4554C55.0479 78.07 54.8979 78.6709 54.6856 79.2582C52.7879 79.4083 50.8876 79.4583 48.9846 79.4084C49.6374 76.7936 50.3376 74.1896 51.085 71.5962Z" fill="#58585A"/>
<path opacity="0.951" fill-rule="evenodd" clip-rule="evenodd" d="M60.0867 71.5965C60.8368 71.5965 61.587 71.5965 62.3371 71.5965C61.8375 73.4481 61.3375 75.301 60.8368 77.1552C60.8682 77.2432 60.9183 77.3183 60.9868 77.3805C61.587 77.4807 62.1871 77.4807 62.7872 77.3805C62.8622 77.3054 62.9372 77.2303 63.0122 77.1552C63.5735 75.369 64.0735 73.5662 64.5125 71.7467C65.2734 71.6008 66.0484 71.5507 66.8379 71.5965C66.2762 73.9098 65.5509 76.1633 64.6625 78.357C63.7461 79.2308 62.646 79.6315 61.3619 79.5589C60.4982 79.5358 59.6731 79.3606 58.8865 79.0331C58.4717 78.5832 58.3467 78.0573 58.5114 77.4556C59.0605 75.5063 59.5856 73.5533 60.0867 71.5965Z" fill="#58585A"/>
<path opacity="0.962" fill-rule="evenodd" clip-rule="evenodd" d="M67.4379 71.5962C68.1381 71.5962 68.8381 71.5962 69.5383 71.5962C69.0856 73.5091 68.5856 75.4122 68.038 77.3051C69.0333 77.4549 70.0334 77.5049 71.0385 77.4553C70.9829 78.0787 70.8328 78.6796 70.5885 79.2582C68.7908 79.4082 66.9905 79.4583 65.1875 79.4084C65.8776 76.7844 66.6278 74.1804 67.4379 71.5962Z" fill="#58585A"/>
<path opacity="0.942" fill-rule="evenodd" clip-rule="evenodd" d="M71.3385 71.5963C75.0395 71.5712 78.7402 71.5963 82.4405 71.6714C83.2941 71.8239 83.6942 72.3247 83.6407 73.1738C83.6194 74.2908 83.2192 75.2424 82.4405 76.0282C82.2024 76.1578 81.9523 76.258 81.6903 76.3287C82.3236 76.582 82.5987 77.0578 82.5155 77.7559C83.7475 75.7647 84.9226 73.7366 86.0411 71.6714C87.1402 71.5963 88.2403 71.5714 89.3417 71.5963C89.3651 74.2011 89.415 76.8051 89.4917 79.4085C88.7416 79.4085 87.9914 79.4085 87.2413 79.4085C87.2413 78.9578 87.2413 78.5071 87.2413 78.0564C86.3898 78.0315 85.5396 78.0566 84.6909 78.1315C84.4784 78.5575 84.2283 78.9581 83.9407 79.3334C82.5414 79.4085 81.1411 79.4335 79.74 79.4085C79.9515 78.7769 80.0516 78.126 80.04 77.4555C79.3823 77.4065 78.7323 77.4567 78.0897 77.6057C77.9007 78.1888 77.7007 78.7646 77.4896 79.3334C76.7912 79.4084 76.0912 79.4335 75.3892 79.4085C75.8322 77.4914 76.3323 75.5884 76.8895 73.6996C76.2469 73.5506 75.5969 73.5004 74.9391 73.5494C74.4616 75.4617 73.9365 77.3647 73.3639 79.2583C72.6532 79.4039 71.9281 79.4541 71.1885 79.4085C71.6131 77.708 72.0381 76.0053 72.4637 74.3006C72.5047 74.0258 72.6298 73.8004 72.8388 73.6245C72.1905 73.5495 71.5404 73.5244 70.8884 73.5494C71.0151 72.8922 71.1651 72.2413 71.3385 71.5963ZM79.1399 73.5494C79.7421 73.5244 80.3422 73.5495 80.9402 73.6245C81.1288 74.2226 81.0287 74.7733 80.6401 75.2771C79.9901 75.3773 79.3399 75.3773 78.6898 75.2771C78.9159 74.7227 79.0659 74.1467 79.1399 73.5494ZM87.0913 73.8498C87.2397 74.6724 87.2896 75.5238 87.2413 76.4038C86.7315 76.4519 86.2313 76.4019 85.741 76.2536C86.1995 75.4473 86.6496 74.6459 87.0913 73.8498Z" fill="#58585A"/>
<path opacity="0.954" fill-rule="evenodd" clip-rule="evenodd" d="M94.5928 71.5962C95.3429 71.5962 96.0931 71.5962 96.8432 71.5962C96.6972 72.5533 96.4471 73.4798 96.0931 74.3755C96.8978 74.5001 97.698 74.4751 98.4935 74.3004C98.7907 73.4103 99.0408 72.5089 99.2436 71.5962C99.9938 71.5962 100.744 71.5962 101.494 71.5962C100.818 74.1548 100.118 76.7088 99.3936 79.2582C98.6501 79.4075 97.9 79.4575 97.1433 79.4084C97.3224 78.4404 97.5725 77.489 97.8934 76.5539C97.0994 76.4045 96.2994 76.3544 95.493 76.4037C95.3356 77.3777 95.0855 78.3293 94.7428 79.2582C93.9993 79.4075 93.2492 79.4575 92.4924 79.4084C93.1923 76.8053 93.8925 74.2013 94.5928 71.5962Z" fill="#58585A"/>
<path opacity="0.946" fill-rule="evenodd" clip-rule="evenodd" d="M101.944 71.5961C102.723 71.5297 103.473 71.6048 104.195 71.8215C103.412 74.279 102.687 76.7579 102.019 79.2581C101.308 79.4037 100.583 79.4538 99.8438 79.4083C100.404 76.7648 101.104 74.1608 101.944 71.5961Z" fill="#58585A"/>
<path opacity="0.957" fill-rule="evenodd" clip-rule="evenodd" d="M106.295 71.5963C107.546 71.5713 108.796 71.5963 110.046 71.6714C111.12 72.2594 111.37 73.1108 110.796 74.2254C110.096 74.3256 109.395 74.3256 108.695 74.2254C108.637 73.6316 108.312 73.3563 107.72 73.3991C107.222 73.4423 106.747 73.5675 106.295 73.7747C105.723 74.8905 105.398 76.0672 105.32 77.3052C106.41 77.8695 107.285 77.6441 107.945 76.6291C107.498 76.5543 107.048 76.5292 106.595 76.554C106.695 76.0031 106.795 75.4523 106.895 74.9014C108.149 74.8517 109.399 74.9017 110.646 75.0517C110.344 76.0114 110.019 76.9628 109.67 77.9061C109.274 78.6038 108.699 79.0796 107.945 79.3334C106.406 79.7029 104.905 79.6027 103.444 79.0329C102.88 78.4706 102.705 77.7945 102.919 77.0047C103.25 75.6099 103.7 74.2578 104.27 72.9484C104.844 72.3246 105.519 71.8739 106.295 71.5963Z" fill="#58585A"/>
<path opacity="0.951" fill-rule="evenodd" clip-rule="evenodd" d="M111.846 71.5962C112.596 71.5962 113.346 71.5962 114.096 71.5962C113.908 72.5131 113.658 73.4145 113.346 74.3005C114.14 74.4499 114.94 74.5 115.746 74.4507C115.915 73.4999 116.165 72.5734 116.497 71.6714C117.245 71.5964 117.995 71.5713 118.747 71.5962C118.069 74.1606 117.343 76.7146 116.572 79.2582C115.861 79.4038 115.136 79.454 114.396 79.4084C114.646 78.4068 114.896 77.4054 115.146 76.4038C114.34 76.3545 113.54 76.4045 112.746 76.554C112.534 77.4658 112.284 78.3672 111.996 79.2582C111.252 79.4075 110.502 79.4576 109.745 79.4084C110.476 76.8124 111.176 74.2082 111.846 71.5962Z" fill="#58585A"/>
<path opacity="0.92" fill-rule="evenodd" clip-rule="evenodd" d="M122.348 71.5961C124.109 71.5306 125.86 71.6057 127.599 71.8215C127.924 71.9466 128.149 72.172 128.274 72.4975C128.324 72.9983 128.374 73.4991 128.424 73.9999C128.626 73.2409 128.851 72.4897 129.099 71.7464C130.999 71.5461 132.899 71.5461 134.8 71.7464C134.588 72.3336 134.438 72.9346 134.35 73.5492C133.162 73.5019 131.986 73.5519 130.824 73.6994C130.772 73.9575 130.697 74.208 130.599 74.4506C131.646 74.5754 132.696 74.6505 133.75 74.6759C133.555 75.1873 133.404 75.7132 133.3 76.2534C132.199 76.2534 131.099 76.2534 129.999 76.2534C130.004 76.6589 129.904 77.0345 129.699 77.3802C130.848 77.4553 131.998 77.4802 133.15 77.4553C133.023 78.1124 132.873 78.7634 132.7 79.4083C130.799 79.4083 128.899 79.4083 126.999 79.4083C127.347 78.1636 127.622 76.9117 127.824 75.6525C127.421 76.5569 126.746 77.1327 125.798 77.3802C124.849 77.4553 123.899 77.4802 122.948 77.4553C122.86 78.0699 122.71 78.6708 122.498 79.2581C121.754 79.4074 121.004 79.4575 120.247 79.4083C120.947 76.8043 121.648 74.2001 122.348 71.5961ZM123.998 73.6994C124.57 73.5274 125.17 73.5023 125.798 73.6243C126.059 75.2311 125.359 75.8571 123.698 75.5022C123.772 74.9049 123.922 74.3289 124.148 73.7745C124.114 73.7146 124.064 73.6896 123.998 73.6994Z" fill="#58585A"/>
<path opacity="0.957" fill-rule="evenodd" clip-rule="evenodd" d="M135.1 71.5963C136.751 71.5712 138.401 71.5963 140.051 71.6714C140.861 71.8062 141.261 72.2818 141.251 73.0987C141.185 74.2242 140.785 75.2008 140.051 76.0282C139.813 76.1578 139.563 76.258 139.301 76.3287C139.79 76.5165 140.04 76.867 140.051 77.3804C139.936 78.0668 139.786 78.7428 139.601 79.4085C138.851 79.4085 138.1 79.4085 137.35 79.4085C137.513 78.7685 137.613 78.1174 137.65 77.4555C137 77.4555 136.35 77.4555 135.7 77.4555C135.527 78.1004 135.377 78.7514 135.25 79.4085C134.5 79.4085 133.75 79.4085 133 79.4085C133.652 76.7937 134.352 74.1897 135.1 71.5963ZM136.75 73.5494C137.411 73.5085 138.061 73.5585 138.701 73.6996C138.786 74.2726 138.636 74.7984 138.25 75.2771C137.595 75.4015 136.944 75.3764 136.3 75.202C136.481 74.6578 136.631 74.1069 136.75 73.5494Z" fill="#58585A"/>
<path opacity="0.94" fill-rule="evenodd" clip-rule="evenodd" d="M147.252 73.2489C147.151 73.2489 147.102 73.2989 147.102 73.3991C146.014 73.5192 144.913 73.5943 143.801 73.6245C143.643 73.9823 143.543 74.3579 143.501 74.7512C144.502 74.7263 145.503 74.7512 146.502 74.8264C146.275 75.3807 146.125 75.9567 146.052 76.5541C144.997 76.5045 143.947 76.5545 142.901 76.7043C142.604 77.5944 142.354 78.4958 142.151 79.4085C141.401 79.4085 140.651 79.4085 139.901 79.4085C140.53 76.8377 141.23 74.2837 142.001 71.7465C143.849 71.5965 145.699 71.5464 147.552 71.5963C147.475 72.1517 147.376 72.7026 147.252 73.2489Z" fill="#58585A"/>
<path opacity="0.96" fill-rule="evenodd" clip-rule="evenodd" d="M154.003 74.7512C153.657 75.8658 153.231 76.9677 152.728 78.0564C151.736 79.1727 150.485 79.6735 148.977 79.5588C148.449 79.5081 147.924 79.433 147.402 79.3334C146.436 79.1174 145.986 78.5164 146.052 77.5306C146.295 76.1262 146.644 74.749 147.102 73.3991C147.202 73.3991 147.252 73.3491 147.252 73.2489C147.69 72.5858 148.29 72.1101 149.052 71.8217C150.523 71.4773 151.973 71.5274 153.403 71.9719C153.685 72.2037 153.91 72.4791 154.078 72.7982C154.158 73.4531 154.134 74.104 154.003 74.7512ZM149.802 73.5494C150.473 73.4942 151.123 73.5694 151.753 73.7747C151.58 74.9414 151.255 76.0682 150.778 77.155C150.086 77.457 149.361 77.5321 148.602 77.3804C148.434 76.8568 148.458 76.331 148.677 75.8029C148.877 75.202 149.078 74.601 149.277 74.0001C149.45 73.8294 149.624 73.6792 149.802 73.5494Z" fill="#58585A"/>
<path opacity="0.959" fill-rule="evenodd" clip-rule="evenodd" d="M154.003 74.7512C154.363 73.7419 154.713 72.7153 155.053 71.6713C156.704 71.5711 158.354 71.5711 160.004 71.6713C160.775 71.7927 161.176 72.2434 161.204 73.0235C161.036 74.0517 160.687 75.0031 160.154 75.8779C159.889 76.0941 159.589 76.2443 159.254 76.3286C159.701 76.5006 159.95 76.8262 160.004 77.3051C159.862 78.0025 159.662 78.6786 159.404 79.3333C158.65 79.4579 157.899 79.4328 157.154 79.2582C157.361 78.715 157.485 78.164 157.529 77.6056C156.869 77.4603 156.194 77.4103 155.503 77.4554C155.448 78.0787 155.298 78.6796 155.053 79.2582C154.309 79.4075 153.559 79.4576 152.803 79.4084C153.226 77.8615 153.627 76.3091 154.003 74.7512ZM156.554 73.5493C157.206 73.5243 157.856 73.5494 158.504 73.6244C158.686 74.1728 158.611 74.6986 158.279 75.2019C157.566 75.3724 156.842 75.3975 156.104 75.277C156.359 74.7306 156.509 74.1547 156.554 73.5493Z" fill="#58585A"/>
<path opacity="0.945" fill-rule="evenodd" clip-rule="evenodd" d="M161.955 71.5962C163.093 71.5491 164.219 71.5991 165.33 71.7465C165.38 73.1988 165.431 74.6509 165.48 76.1033C166.355 74.626 167.231 73.1486 168.106 71.6713C169.205 71.5711 170.307 71.5711 171.406 71.6713C171.019 73.6451 170.494 75.6231 169.831 77.6056C169.73 77.8059 169.73 78.0063 169.831 78.2066C171.049 75.991 172.324 73.8126 173.657 71.6713C174.705 71.5962 175.756 71.5713 176.807 71.5962C176.912 73.998 176.987 76.4018 177.032 78.8075C177.662 76.4398 178.338 74.0861 179.058 71.7465C180.253 71.5965 181.454 71.5465 182.658 71.5962C182.808 73.3505 182.984 75.1033 183.183 76.8544C183.585 75.0934 184.01 73.3406 184.459 71.5962C185.209 71.5962 185.959 71.5962 186.709 71.5962C186.127 74.1789 185.426 76.7329 184.609 79.2582C183.413 79.4081 182.213 79.4582 181.008 79.4084C180.799 77.6112 180.625 75.8084 180.483 74C180.057 75.8049 179.632 77.6077 179.208 79.4084C177.757 79.4084 176.308 79.4084 174.857 79.4084C174.788 78.9604 174.737 78.5097 174.707 78.0563C173.85 78.0069 173.001 78.0571 172.156 78.2066C171.975 78.594 171.775 78.9696 171.556 79.3333C170.107 79.4084 168.656 79.4334 167.206 79.4084C167.558 77.7736 167.984 76.1712 168.481 74.6009C167.506 76.1784 166.53 77.7559 165.555 79.3333C164.907 79.4083 164.258 79.4334 163.605 79.4084C163.546 77.8433 163.422 76.2909 163.23 74.7512C162.831 76.3002 162.456 77.8526 162.105 79.4084C161.355 79.4084 160.604 79.4084 159.854 79.4084C160.507 76.7922 161.207 74.1882 161.955 71.5962ZM174.557 74C174.705 74.7722 174.755 75.5735 174.707 76.4037C174.204 76.4285 173.705 76.4034 173.207 76.3286C173.691 75.5693 174.141 74.7931 174.557 74Z" fill="#58585A"/>
<path opacity="0.952" fill-rule="evenodd" clip-rule="evenodd" d="M188.959 71.5963C190.11 71.5713 191.261 71.5963 192.41 71.6714C193.128 71.9087 193.429 72.4095 193.31 73.1737C193.274 73.6524 193.223 74.1282 193.16 74.601C192.41 74.601 191.66 74.601 190.91 74.601C190.973 74.2135 190.872 73.8879 190.61 73.6244C190.041 73.4987 189.49 73.5487 188.959 73.7747C188.388 74.8887 188.062 76.0654 187.984 77.3052C188.545 77.4743 189.121 77.4994 189.709 77.3803C190.033 77.1332 190.234 76.8076 190.309 76.4038C191.054 76.2544 191.804 76.2044 192.56 76.2535C192.02 78.8556 190.419 79.9323 187.759 79.4836C185.882 79.5575 185.158 78.6812 185.584 76.8545C185.896 75.503 186.346 74.201 186.934 72.9484C187.462 72.248 188.137 71.7973 188.959 71.5963Z" fill="#58585A"/>
<path opacity="0.923" fill-rule="evenodd" clip-rule="evenodd" d="M194.21 71.5962C196.06 71.5962 197.912 71.5962 199.761 71.5962C199.74 72.2556 199.59 72.8816 199.311 73.4741C198.162 73.5492 197.011 73.5742 195.861 73.5492C195.837 73.8988 195.736 74.2242 195.561 74.5258C196.609 74.6009 197.659 74.6258 198.711 74.6009C198.635 75.1563 198.536 75.7072 198.411 76.2535C197.311 76.2535 196.21 76.2535 195.111 76.2535C195.069 76.6468 194.968 77.0224 194.81 77.3802C195.96 77.4553 197.11 77.4803 198.261 77.4553C198.087 78.1003 197.937 78.7513 197.811 79.4084C195.858 79.4583 193.907 79.4082 191.96 79.2582C192.734 76.7066 193.484 74.1526 194.21 71.5962Z" fill="#58585A"/>
<path opacity="0.938" fill-rule="evenodd" clip-rule="evenodd" d="M203.662 71.5964C205.363 71.5713 207.063 71.5964 208.763 71.6715C209.414 71.8473 209.763 72.2731 209.813 72.9485C209.693 73.6355 209.468 74.2865 209.138 74.9016C208.901 75.1331 208.626 75.3084 208.313 75.4274C208.587 75.5025 208.763 75.6778 208.838 75.9532C208.886 76.4099 208.886 76.8606 208.838 77.3053C209.913 75.4525 210.988 73.5995 212.063 71.7466C213.159 71.5968 214.26 71.5467 215.364 71.5964C215.301 73.2858 215.451 73.3358 215.814 71.7466C221.614 71.5964 227.416 71.5464 233.217 71.5964C233.043 72.2414 232.893 72.8923 232.767 73.5494C231.616 73.5245 230.466 73.5494 229.316 73.6246C229.205 73.8927 229.105 74.1681 229.016 74.4509C230.067 74.5511 231.117 74.6511 232.167 74.7513C232.042 75.1511 231.916 75.5518 231.792 75.9532C230.709 76.2453 229.583 76.3455 228.416 76.2537C228.421 76.6592 228.322 77.0347 228.116 77.3804C229.265 77.4555 230.416 77.4805 231.567 77.4555C231.499 78.1038 231.349 78.7297 231.117 79.3335C229.214 79.4586 227.314 79.4335 225.416 79.2584C225.953 77.372 226.502 75.4941 227.066 73.6246C226.368 73.5496 225.668 73.5245 224.966 73.5494C224.442 75.4951 223.942 77.4482 223.465 79.4086C222.715 79.4086 221.965 79.4086 221.215 79.4086C221.683 77.4557 222.234 75.5276 222.865 73.6246C221.716 73.5494 220.565 73.5245 219.415 73.5494C218.977 75.5183 218.476 77.4713 217.914 79.4086C217.164 79.4086 216.414 79.4086 215.664 79.4086C216.047 77.4315 216.597 75.5036 217.314 73.6246C216.665 73.5244 216.014 73.5244 215.364 73.6246C215.512 75.5407 215.562 77.4686 215.514 79.4086C214.764 79.4086 214.014 79.4086 213.264 79.4086C213.264 78.9579 213.264 78.5072 213.264 78.0565C212.407 78.0071 211.558 78.0572 210.713 78.2067C210.514 78.5572 210.313 78.9079 210.113 79.2584C209.313 79.4586 208.512 79.4586 207.713 79.2584C207.864 79.1238 207.864 79.0237 207.713 78.9579C207.429 79.1245 207.129 79.2498 206.812 79.3335C205.063 79.4086 203.312 79.4337 201.562 79.4086C202.216 76.7893 202.915 74.1852 203.662 71.5964ZM205.312 73.5494C206.014 73.5245 206.715 73.5496 207.413 73.6246C207.312 74.4747 206.836 74.8003 205.987 74.6011C205.662 74.576 205.338 74.5511 205.012 74.526C205.188 74.2245 205.288 73.899 205.312 73.5494ZM213.114 73.6997C213.262 74.5725 213.312 75.474 213.264 76.4039C212.753 76.452 212.254 76.402 211.763 76.2537C212.255 75.4181 212.705 74.5667 213.114 73.6997ZM204.562 76.2537C205.215 76.2287 205.864 76.2538 206.512 76.3288C206.707 76.7042 206.656 77.0549 206.362 77.3804C205.657 77.5048 204.957 77.4799 204.262 77.3053C204.385 76.9596 204.486 76.609 204.562 76.2537Z" fill="#58585A"/>
<path opacity="0.95" fill-rule="evenodd" clip-rule="evenodd" d="M239.668 72.3474C239.701 73.2216 239.577 74.0729 239.293 74.9014C239.004 75.6418 238.478 76.1174 237.718 76.3286C238.321 76.4309 238.57 76.7814 238.468 77.3803C238.396 78.0243 238.246 78.6504 238.018 79.2582C237.274 79.4075 236.524 79.4576 235.768 79.4084C235.931 78.7684 236.03 78.1173 236.068 77.4554C235.418 77.4554 234.767 77.4554 234.117 77.4554C233.991 78.1125 233.841 78.7635 233.667 79.4084C232.917 79.4084 232.167 79.4084 231.417 79.4084C232.054 76.84 232.755 74.286 233.517 71.7465C235.374 71.5334 237.224 71.5585 239.068 71.8216C239.25 72.0283 239.449 72.2035 239.668 72.3474ZM235.167 73.5493C235.769 73.5243 236.369 73.5494 236.968 73.6244C237.107 73.6827 237.206 73.7829 237.268 73.9249C237.202 74.4408 237.002 74.8915 236.668 75.277C236.069 75.352 235.469 75.377 234.867 75.3521C234.999 74.7569 235.098 74.1559 235.167 73.5493Z" fill="#58585A"/>
<path opacity="0.926" fill-rule="evenodd" clip-rule="evenodd" d="M239.668 72.3473C239.668 72.0968 239.668 71.8465 239.668 71.5961C240.519 71.5961 241.368 71.5961 242.219 71.5961C242.307 72.5134 242.481 73.4148 242.744 74.3003C243.419 73.424 244.094 72.5475 244.769 71.6712C245.645 71.5289 246.496 71.579 247.32 71.8215C245.995 73.3489 244.669 74.8762 243.344 76.4036C243.018 77.3827 242.693 78.3592 242.369 79.3332C241.614 79.4577 240.864 79.4326 240.118 79.2581C240.414 78.3953 240.664 77.519 240.868 76.629C240.523 75.1678 240.123 73.7406 239.668 72.3473Z" fill="#58585A"/>
</svg>
