<svg width="235" height="80" viewBox="0 0 235 80" fill="none" xmlns="http://www.w3.org/2000/svg">
<g clip-path="url(#clip0_4623_25430)">
<path fill-rule="evenodd" clip-rule="evenodd" d="M32.9561 0.200654C41.2209 -0.321251 49.1009 1.38301 56.5963 5.31344C63.4105 9.66391 68.0516 15.7124 70.52 23.4588C74.0121 35.1534 73.8118 46.7825 69.919 58.346C64.6378 71.1741 55.0549 78.2919 41.17 79.6994C33.9269 80.2887 26.915 79.2862 20.1342 76.6919C11.2822 72.5106 5.43894 65.7271 2.60439 56.341C1.62947 52.9313 0.861487 49.4893 0.300472 46.0152C-0.209776 38.9421 0.424623 31.958 2.20371 25.0628C5.38983 13.8552 12.4351 6.26963 23.3397 2.30592C26.5329 1.40727 29.7384 0.705516 32.9561 0.200654Z" fill="#F4D303"/>
<path fill-rule="evenodd" clip-rule="evenodd" d="M34.5588 4.8119C47.7331 4.38845 56.5815 10.4035 61.104 22.857C63.7453 31.0511 64.4465 39.3051 63.2076 47.6189C62.6843 53.4677 60.8478 58.9815 57.6982 64.1603C53.1717 70.7716 46.8942 74.4474 38.8662 75.1878C25.0104 75.5748 15.9283 69.092 11.6198 55.7392C9.44125 47.8353 8.87363 40.2497 9.9169 32.9823C10.416 26.4057 12.5196 20.3572 16.2276 14.837C20.8261 8.74293 26.9365 5.40118 34.5588 4.8119Z" fill="#F1B200"/>
<path fill-rule="evenodd" clip-rule="evenodd" d="M29.1497 15.238C32.4634 15.0842 35.6688 15.5855 38.7661 16.7418C48.693 21.1965 55.8051 28.448 60.1024 38.4962C63.0923 48.492 60.2543 56.345 51.5879 62.0551C45.647 65.321 39.5701 65.5885 33.3569 62.8571C26.4595 59.4987 20.85 54.6199 16.5282 48.2205C13.079 43.3427 11.5765 37.8959 12.0206 31.8796C13.191 26.2945 16.0959 21.8499 20.7354 18.5463C23.3032 16.7885 26.1079 15.6857 29.1497 15.238Z" fill="#E86E17"/>
<path fill-rule="evenodd" clip-rule="evenodd" d="M38.9663 22.6568C46.3938 22.5718 51.3021 26.0471 53.6914 33.0829C54.1229 35.3692 54.0562 37.6415 53.4911 39.8999C50.8359 47.0351 46.1279 52.3484 39.367 55.8398C30.4567 59.3281 23.9456 56.755 19.8338 48.1205C18.9086 45.3162 18.9086 42.5092 19.8338 39.6994C22.8146 32.4386 27.8564 27.1254 34.9595 23.7596C36.2902 23.2745 37.6259 22.907 38.9663 22.6568Z" fill="#D30120"/>
<path opacity="0.998" fill-rule="evenodd" clip-rule="evenodd" d="M106.882 23.2582C115.623 22.9476 121.333 27.0246 124.011 35.4888C125.502 41.7743 124.367 47.5218 120.605 52.7319C116.992 56.4199 112.718 58.2244 107.783 58.1454C100.044 57.6165 94.9686 53.6732 92.5574 46.3158C90.9409 40.1939 91.8759 34.5131 95.3622 29.2732C98.3597 25.6514 102.2 23.6464 106.882 23.2582ZM106.882 31.0777C112.096 30.8756 115.001 33.4152 115.597 38.6968C116.048 41.996 115.38 45.0705 113.593 47.9198C112.164 49.4535 110.394 50.2555 108.284 50.3259C104.806 50.1542 102.503 48.4167 101.372 45.1128C100.238 41.2979 100.572 37.6219 102.374 34.0853C103.508 32.5007 105.011 31.4982 106.882 31.0777Z" fill="#371070"/>
<path opacity="0.996" fill-rule="evenodd" clip-rule="evenodd" d="M198.638 23.2583C201.243 23.2583 203.847 23.2583 206.451 23.2583C206.451 34.6201 206.451 45.9817 206.451 57.3435C203.913 57.3435 201.377 57.3435 198.838 57.3435C198.608 56.4763 198.576 55.6076 198.738 54.737C196.159 57.7784 192.986 58.7476 189.222 57.6443C184.793 56.0156 182.288 52.8411 181.709 48.1205C180.73 43.2878 181.732 38.9435 184.714 35.0879C188.273 31.9552 192.18 31.454 196.434 33.5841C197.202 34.0854 197.837 34.7204 198.338 35.4889C198.306 31.4813 198.406 27.4043 198.638 23.2583ZM193.029 38.6969C195.73 38.3302 197.5 39.4662 198.338 42.1054C198.921 44.1696 198.921 46.2416 198.338 48.321C197.129 51.4875 194.959 52.3897 191.826 51.0277C190.569 49.9484 189.868 48.5784 189.723 46.9174C189.469 44.8623 189.669 42.8573 190.324 40.9024C190.968 39.8211 191.869 39.0861 193.029 38.6969Z" fill="#371070"/>
<path fill-rule="evenodd" clip-rule="evenodd" d="M35.5605 30.4761C36.2715 30.5234 36.9727 30.5234 37.6641 30.4761C40.6464 30.691 43.351 31.6602 45.7779 33.3833C48.6532 36.3927 49.4211 39.7679 48.0819 43.5087C46.1736 47.1576 43.1352 49.1291 38.9663 49.4234C34.7958 50.0326 30.9894 49.1638 27.5469 46.8169C24.5564 43.8174 23.7885 40.3087 25.243 36.2906C26.3671 34.2301 28.0033 32.7263 30.1513 31.7793C31.9284 31.1283 33.7314 30.6938 35.5605 30.4761Z" fill="#390F70"/>
<path opacity="0.996" fill-rule="evenodd" clip-rule="evenodd" d="M136.533 32.2808C138.161 32.2634 139.831 32.2969 141.541 32.3811C144.637 32.4765 147.141 33.713 149.054 36.0904C149.548 37.0391 149.882 38.0417 150.056 39.0979C150.122 44.0437 150.189 48.9892 150.256 53.935C150.459 55.0802 150.692 56.2165 150.957 57.3435C148.283 57.4103 145.611 57.3433 142.943 57.143C142.67 56.503 142.503 55.8345 142.443 55.138C140.367 56.9788 137.93 57.9813 135.13 58.1455C133.095 58.1443 131.159 57.6431 129.32 56.6418C127.026 54.8378 126.058 52.4651 126.415 49.524C127.099 46.1658 129.136 44.1275 132.526 43.4087C135.467 42.8737 138.405 42.339 141.341 41.8047C142.059 41.471 142.393 40.903 142.342 40.1004C142.313 39.7355 142.179 39.4347 141.942 39.1981C142.134 38.9682 142.067 38.7677 141.741 38.5966C139.493 37.2707 137.389 37.4377 135.431 39.0979C135.283 39.5733 135.116 40.0413 134.93 40.5014C132.396 40.7017 129.858 40.7685 127.317 40.7019C127.453 37.1937 129.122 34.7542 132.325 33.3836C133.731 32.9235 135.133 32.5559 136.533 32.2808ZM142.142 46.1154C142.409 47.8223 142.175 49.4933 141.441 51.128C139.978 52.6935 138.208 53.1947 136.132 52.6317C134.959 52.2592 134.425 51.4572 134.529 50.2257C134.501 49.547 134.701 48.9455 135.13 48.4212C135.79 47.9332 136.525 47.5989 137.334 47.4187C139.008 47.1456 140.611 46.7111 142.142 46.1154Z" fill="#371070"/>
<path opacity="0.995" fill-rule="evenodd" clip-rule="evenodd" d="M168.186 32.2809C171.276 31.8614 173.981 32.6634 176.3 34.6869C177.466 36.1524 178.134 37.8233 178.303 39.6994C178.437 45.514 178.437 51.3285 178.303 57.143C175.632 57.4103 172.961 57.4103 170.29 57.143C170.223 52.0637 170.156 46.9842 170.089 41.9049C169.728 39.9731 168.559 39.0374 166.584 39.0979C164.224 39.287 162.855 40.557 162.477 42.9074C162.376 47.7191 162.343 52.5311 162.376 57.3435C159.656 57.4083 156.951 57.3415 154.263 57.143C154.096 49.1222 154.129 41.1021 154.363 33.0829C156.876 33.0408 159.38 32.974 161.875 32.8824C162.132 33.849 162.265 34.8515 162.276 35.8899C163.877 34.0383 165.847 32.8353 168.186 32.2809Z" fill="#371070"/>
<path opacity="0.997" fill-rule="evenodd" clip-rule="evenodd" d="M220.275 32.2808C228.042 31.8714 232.882 35.4135 234.8 42.9074C235.579 49.4006 233.075 54.1124 227.287 57.0427C221.719 59.0664 216.811 58.0304 212.562 53.935C209.192 49.5205 208.525 44.7085 210.558 39.4989C212.606 35.4534 215.845 33.0474 220.275 32.2808ZM221.076 38.6969C224.39 38.435 226.225 39.9723 226.586 43.3084C226.898 45.4624 226.632 47.5342 225.784 49.5239C224.546 51.3854 222.843 52.0204 220.676 51.4287C219.44 50.9942 218.606 50.1589 218.171 48.9224C217.1 45.9548 217.3 43.081 218.772 40.3009C219.403 39.5368 220.171 39.0022 221.076 38.6969Z" fill="#371070"/>
</g>
<defs>
<clipPath id="clip0_4623_25430">
<rect width="235" height="80" fill="white"/>
</clipPath>
</defs>
</svg>
