<svg width="244" height="80" viewBox="0 0 244 80" fill="none" xmlns="http://www.w3.org/2000/svg">
<g clip-path="url(#clip0_4623_8491)">
<path fill-rule="evenodd" clip-rule="evenodd" d="M5.24556 55.2734L0.041748 79.9609H218.006L222.867 55.2734H5.24556Z" fill="#CC2229"/>
<path fill-rule="evenodd" clip-rule="evenodd" d="M237.121 3.79485C237.121 2.01065 238.463 0.665756 240.184 0.665756C241.884 0.665756 243.228 2.01201 243.228 3.79485C243.228 5.60822 241.883 6.9433 240.184 6.9433C238.463 6.9433 237.121 5.60822 237.121 3.79485ZM240.184 7.57184C242.234 7.57184 243.984 5.97662 243.984 3.79485C243.984 1.63216 242.233 0.0385742 240.184 0.0385742C238.116 0.0385742 236.364 1.63216 236.364 3.79485C236.364 5.97662 238.116 7.57184 240.184 7.57184ZM239.39 4.09508H240.147L241.29 5.97826H242.025L240.791 4.0659C241.428 3.98682 241.913 3.64869 241.913 2.86989C241.913 2.01338 241.41 1.63352 240.384 1.63352H238.731V5.97826H239.39V4.09508ZM239.39 3.53607V2.19144H240.285C240.743 2.19144 241.229 2.29016 241.229 2.82817C241.229 3.49571 240.734 3.53607 240.174 3.53607H239.39ZM6.44751 50.6066L17.452 0.294355H50.4562L39.6852 50.3729L6.44751 50.6066ZM54.3552 0.0677518L43.3524 50.3729H76.3569L87.1265 0.0677518H54.3552ZM91.253 0.0677518L80.2545 50.1463L113.26 50.3729L124.258 0.0677518H91.253ZM128.155 0.0677518L117.152 49.914L150.849 50.1463L161.16 0.294355L128.155 0.0677518ZM154.282 50.1463L165.06 0.0677518H198.064L187.288 49.914L154.282 50.1463ZM202.189 0.0677518L191.187 49.914H224.19L235.194 0.294355L202.189 0.0677518Z" fill="black"/>
<path fill-rule="evenodd" clip-rule="evenodd" d="M34.2317 6.73183C24.6071 6.54968 18.9272 17.0451 17.3435 23.8329C16.0706 29.2915 12.985 44.7573 22.6083 46.2118C33.4805 47.8572 39.1326 31.2925 40.2223 27.4725C41.3145 23.6521 43.8574 6.91262 34.2317 6.73183ZM34.5953 26.1985C32.7797 34.3856 29.1305 42.7198 23.8826 42.0274C19.4727 41.4474 22.2474 28.1997 23.1564 24.0153C24.0657 19.8307 28.2421 10.189 32.4174 10.7341C36.5927 11.2808 36.4123 18.0102 34.5953 26.1985ZM72.7298 7.74268C68.9154 7.37837 61.2896 7.61207 61.2896 7.61207L52.2093 45.3024C52.2093 45.3024 53.3946 44.9046 55.4543 45.0243C57.4572 45.1369 58.3486 45.4846 58.3486 45.4846L62.1948 29.1108C62.1948 29.1108 71.1891 30.2817 75.0881 21.8333C76.3483 19.099 77.0853 14.1928 77.0853 13.2832C77.0853 12.3737 76.5439 8.10727 72.7298 7.74268ZM68.5531 21.469C66.1241 26.0678 63.4008 25.3182 63.4008 25.3182L66.7378 11.2808C66.7378 11.2808 67.6858 11.2571 68.7752 11.2571C69.865 11.2571 70.2564 12.5308 70.2564 13.4405C70.2564 14.3499 70.4937 17.789 68.5531 21.469ZM94.079 45.358C94.079 45.358 95.4739 44.9659 97.2617 45.0466C99.0496 45.1257 100.451 45.4387 100.451 45.4387C100.451 45.4387 108.618 12.1027 108.692 12.1027C110.769 12.1027 114.951 12.9202 114.951 12.9202C114.939 12.9148 114.98 11.5895 115.298 10.3114C115.53 9.37254 116.229 7.42855 116.229 7.42855H96.7177C96.7177 7.42855 96.7231 8.59947 96.411 9.99836C96.0985 11.3975 95.242 12.9537 95.242 12.9537C95.242 12.9537 99.8337 12.1013 102.239 12.1013C102.546 12.1041 94.079 45.358 94.079 45.358ZM130.709 45.3136C130.709 45.3136 131.747 44.9381 134.108 44.9381C136.469 44.9381 137.172 45.4832 137.172 45.4832L146.219 7.42991C146.219 7.42991 145.237 7.79422 143.058 7.79422C140.879 7.79422 140.1 7.30475 140.1 7.30475L130.709 45.3136ZM162.824 45.3231C162.824 45.3231 162.679 45.0174 161.002 45.0174C159.322 45.0174 159.077 45.3316 159.077 45.3316L170.699 7.36719C170.699 7.36719 171.334 7.71351 172.112 7.69687C172.937 7.68024 173.876 7.32711 173.876 7.32711L175.148 31.2925L187.133 7.18504C187.133 7.18504 187.855 7.67451 188.638 7.65788C189.46 7.63988 190.492 7.27693 190.492 7.27693L184.682 45.2105C184.682 45.2105 183.655 44.835 182.02 44.835C180.385 44.835 178.872 45.301 178.872 45.301L182.775 22.4686L171.861 45.0297C171.861 45.0297 171.457 44.8645 170.906 44.8476C170.215 44.8296 169.971 45.0131 169.971 45.0131L168.791 23.014L162.824 45.3231ZM220.156 6.91262C220.156 6.91262 218.964 7.17958 218.049 7.17958C217.134 7.17958 216.455 6.91262 216.455 6.91262L196.673 45.2105C196.673 45.2105 197.925 44.8699 198.977 44.8699C200.027 44.8699 201.236 45.1661 201.236 45.1661L206.458 33.9362L214.032 33.9128V45.319C214.032 45.319 215.786 44.7963 217.602 44.7963C219.417 44.7963 220.876 45.1925 220.876 45.1925L220.156 6.91262ZM213.907 29.8492L208.623 29.9228L213.907 19.5345V29.8492ZM25.3231 62.8027C25.3634 59.7322 20.1474 59.5375 20.1474 59.5375L10.0285 59.6111L6.4751 76.6637C6.4751 76.6637 12.9336 76.6582 15.4128 76.6582C17.8944 76.6582 24.0116 75.5094 24.0393 71.2748C24.0671 67.2767 18.6023 67.7034 18.6023 67.7034L18.6537 67.2947C18.6551 67.2947 25.272 66.7926 25.3231 62.8027ZM18.6148 71.4013C18.5761 73.7432 15.3989 75.2034 14.5924 75.2034H12.0621L13.3669 68.4435C13.3669 68.4435 15.2059 68.4822 15.9318 68.4822C16.6576 68.4822 18.6551 69.0554 18.6148 71.4013ZM15.7334 67.0236H13.6679L14.8728 60.9615C14.8728 60.9615 16.92 60.9948 17.7654 61.0351C18.6093 61.0755 19.91 61.6097 19.91 63.4577C19.91 65.306 17.4518 67.0236 15.7334 67.0236ZM45.7299 59.2496C45.7299 59.2496 44.9457 59.4331 44.2212 59.4331C43.4951 59.4331 43.1884 59.2496 43.1884 59.2496L29.4497 76.7179C29.4497 76.7179 30.3577 76.5344 31.203 76.5344C31.7136 76.5347 32.2225 76.5963 32.7187 76.7179L36.2887 71.5028L44.4044 71.4403L45.7938 76.7776C45.7938 76.7776 47.973 76.3509 48.9433 76.3509C49.9133 76.3509 51.7858 76.7776 51.7858 76.7776L45.7299 59.2496ZM37.7391 69.8661L42.0975 64.1628L43.9129 69.8661H37.7391ZM67.1583 76.8333C67.1583 76.8333 65.648 76.4717 64.4973 76.4133C63.3452 76.3577 61.774 76.7166 61.774 76.7166C61.774 76.7166 65.3996 61.3203 65.1609 61.3119C63.3452 61.2688 58.6858 61.7348 58.6858 61.7348C58.6858 61.7348 58.9871 60.9462 58.9871 60.4608C58.9871 59.9768 58.7593 59.4595 58.7593 59.4595L77.0257 59.4317C77.0257 59.4317 76.726 59.9198 76.6634 60.4025C76.6011 60.8879 76.6634 61.6762 76.6634 61.6762C76.6634 61.6762 71.9193 61.1186 70.3701 61.3105C70.2784 61.3244 67.1583 76.8333 67.1583 76.8333ZM92.3078 76.9306C92.3078 76.9306 90.7992 76.5677 89.6471 76.5107C88.4937 76.4537 86.9224 76.8125 86.9224 76.8125C86.9224 76.8125 90.548 61.4163 90.3104 61.4092C88.4937 61.3648 83.8339 61.8322 83.8339 61.8322C83.8339 61.8322 84.1352 61.0422 84.1352 60.5582C84.1352 60.0742 83.9077 59.5555 83.9077 59.5555L102.175 59.5277C102.175 59.5277 101.874 60.0172 101.812 60.4998C101.751 60.9852 101.812 61.7736 101.812 61.7736C101.812 61.7736 97.0674 61.2159 95.5182 61.4079C95.4295 61.4204 92.3078 76.9306 92.3078 76.9306ZM111.03 59.4819L107.311 76.4774L120.816 76.433C120.816 76.433 120.732 76.1243 120.732 75.5345C120.732 74.9422 121.152 74.4483 121.152 74.4483C121.152 74.4483 116.181 74.874 113.055 74.7892L114.497 68.3461L122.305 68.5907C122.305 68.5907 122.242 68.1708 122.242 67.5005C122.242 66.8289 122.668 66.4087 122.668 66.4087L114.859 66.5895C114.859 66.5895 115.882 61.3441 115.949 61.3092C116.569 60.9866 123.937 61.6151 123.937 61.6151C123.937 61.6151 124.002 60.8933 124.002 60.4679C124.002 60.0423 124.547 59.3123 124.547 59.3123L111.03 59.4819ZM150.633 62.8891C150.741 60.8197 149 59.5555 145.794 59.4331C144.341 59.3761 135.318 59.4944 135.318 59.4944L131.504 76.6555C131.504 76.6555 132.895 76.2895 134.104 76.2895C135.313 76.2895 136.831 76.6555 136.831 76.6555L138.648 68.5283L143.609 76.6555C143.609 76.6555 145 76.3509 146.575 76.3509C148.27 76.3509 149.664 76.5955 149.664 76.5955L144.28 67.9218C144.278 67.9205 150.397 67.5548 150.633 62.8891ZM140.339 67.5548C139.187 67.4935 138.829 67.5548 138.829 67.5548L140.282 60.8879H143.126C144.341 60.8879 145.305 61.3689 145.006 63.9807C144.703 66.5881 141.491 67.6172 140.339 67.5548ZM158.622 76.5941C158.622 76.5941 160.07 76.3577 161.404 76.4133C162.738 76.4717 163.946 76.6541 163.946 76.6541L167.704 59.4317C167.704 59.4317 166.552 59.6111 164.979 59.6111C163.406 59.6111 162.312 59.3093 162.312 59.3093L158.622 76.5941ZM202.445 72.6502L201.719 72.5305L199.964 75.8044C199.964 75.8044 202.45 76.8404 205.113 76.9584C207.408 77.0602 215.252 76.2993 215.946 70.7714C216.369 67.3795 211.706 66.0987 210.133 65.5522C208.56 65.0071 207.024 64.2921 207.107 63.0754C207.189 61.9601 208.612 60.2203 210.734 60.3398C212.856 60.4595 214.673 61.0659 214.611 61.7946C214.548 62.5232 214.736 62.4607 214.736 62.4607L215.338 62.8237L217.098 60.2203C217.098 60.2203 215.884 58.7072 211.343 58.7642C206.803 58.8212 202.628 61.3675 202.509 64.8249C202.389 68.2807 206.076 69.0093 207.165 69.3739C208.255 69.7382 211.411 70.7046 211.286 72.2859C211.162 73.867 209.592 75.2648 207.231 75.3218C204.87 75.3774 202.809 74.5375 202.69 73.867C202.57 73.1967 202.445 72.6502 202.445 72.6502ZM180.442 59.4331L176.725 76.4259L190.23 76.3814C190.23 76.3814 190.145 76.0755 190.145 75.4829C190.145 74.8906 190.566 74.3968 190.566 74.3968C190.566 74.3968 185.594 74.8238 182.465 74.7377L183.908 68.296L191.718 68.5408C191.718 68.5408 191.653 68.1193 191.653 67.4476C191.653 66.7774 192.079 66.3574 192.079 66.3574L184.271 66.541C184.271 66.541 185.293 61.2925 185.361 61.2576C185.979 60.9337 193.35 61.5666 193.35 61.5666C193.35 61.5666 193.416 60.8418 193.416 60.4164C193.416 59.988 193.958 59.2635 193.958 59.2635L180.442 59.4331Z" fill="white"/>
</g>
<defs>
<clipPath id="clip0_4623_8491">
<rect width="244" height="80" fill="white"/>
</clipPath>
</defs>
</svg>
