<svg width="410" height="80" viewBox="0 0 410 80" fill="none" xmlns="http://www.w3.org/2000/svg">
<g clip-path="url(#clip0_4623_19429)">
<path fill-rule="evenodd" clip-rule="evenodd" d="M80.2986 19.3954C53.6121 19.4189 26.9558 19.4189 0.329363 19.3954C0.251611 19.4922 0.160138 19.5654 0.0549316 19.6152C0.164726 13.1133 0.164726 6.62979 0.0549316 0.164627C26.8027 0.0547364 53.5505 0.018143 80.2986 0.0547364C80.2986 6.50166 80.2986 12.9485 80.2986 19.3954Z" fill="#FBC62E"/>
<path fill-rule="evenodd" clip-rule="evenodd" d="M80.2986 19.3955C80.3343 22.6636 80.2977 25.9237 80.1888 29.1757C75.1497 29.212 70.1184 29.1754 65.0951 29.0658C64.9415 29.1457 64.7769 29.2007 64.6011 29.2307C69.3735 29.6884 71.8067 32.3076 71.901 37.0878C71.5915 40.0713 70.2194 42.434 67.7845 44.1757C66.9492 44.7955 66.0344 45.2713 65.0402 45.6043C66.5002 45.8318 67.4332 46.6559 67.8394 48.0768C68.099 51.6472 68.2637 55.2735 68.3334 58.9559C65.6986 58.9746 63.0641 58.9559 60.4298 58.901C60.2803 55.8867 60.1521 52.8647 60.0456 49.8351C59.9427 48.6944 59.339 47.9801 58.2343 47.6922C57.0685 47.5713 55.8977 47.5164 54.7216 47.5274C53.7071 47.5285 52.7009 47.5647 51.7029 47.6373C50.6811 51.3285 49.6383 55.0098 48.5743 58.6812C45.7205 58.7362 42.8664 58.7548 40.0121 58.7362C42.8467 48.8867 45.6643 39.034 48.4646 29.1757C42.6936 29.2121 36.9306 29.1754 31.1754 29.0658C31.0931 29.1346 31.0015 29.1896 30.901 29.2307C33.0155 29.3309 34.9549 29.9535 36.7189 31.0988C38.87 33.0548 39.5835 35.4537 38.8595 38.2966C38.113 40.6889 36.6311 42.4658 34.4137 43.6263C36.975 45.4054 37.9447 47.8417 37.3227 50.934C36.4989 54.7252 34.212 57.1252 30.4619 58.1318C28.6826 58.4779 26.8897 58.6801 25.083 58.7362C19.1688 58.723 13.2593 58.723 7.3548 58.7362C7.27247 58.6669 7.18092 58.612 7.08037 58.5713C9.95673 48.7977 12.8108 39.0175 15.6426 29.2307C10.5201 29.1757 5.39734 29.1574 0.274476 29.1757C0.237889 29.1757 0.201291 29.1757 0.164704 29.1757C0.164495 26.007 0.127897 22.8202 0.0549316 19.6153C0.160138 19.5655 0.251611 19.4923 0.329363 19.3955C26.9558 19.419 53.6121 19.419 80.2986 19.3955Z" fill="#FEFEFE"/>
<path fill-rule="evenodd" clip-rule="evenodd" d="M264.058 28.6261C264.547 28.7518 265.06 28.825 265.594 28.8459C265.827 28.8267 266.047 28.8634 266.253 28.9558C266.474 29.1123 266.731 29.1855 267.021 29.1756C271.46 30.4758 273.838 33.4426 274.157 38.0767C274.152 38.8064 274.152 39.5382 274.157 40.2745C274.142 41.2514 273.996 42.2042 273.718 43.1316C273.562 43.3525 273.488 43.6096 273.498 43.9009C271.675 50.469 267.687 55.2129 261.533 58.1316C259.913 58.825 258.23 59.2833 256.483 59.5053C255.549 59.5382 254.635 59.6118 253.739 59.725C253.556 59.725 253.373 59.725 253.19 59.725C252.332 59.6162 251.454 59.5426 250.556 59.5053C250.323 59.5239 250.103 59.4877 249.897 59.3954C249.632 59.2558 249.34 59.1833 249.019 59.1756C245.486 58.369 243.164 56.2437 242.048 52.802C241.682 51.28 241.554 49.8151 241.664 48.4064C241.8 47.8064 241.873 47.1833 241.884 46.5382C241.946 45.8206 242.092 45.125 242.323 44.4503C242.479 44.2294 242.552 43.9723 242.542 43.6811C244.39 37.6009 248.158 33.1503 253.849 30.3294C257.136 28.8532 260.539 28.2854 264.058 28.6261ZM264.277 41.3734C264.154 41.7899 264.082 42.2294 264.058 42.6921C263.522 45.4195 262.407 47.8734 260.71 50.0547C259.717 51.1096 258.528 51.8426 257.142 52.2525C256.611 52.2976 256.098 52.3712 255.605 52.4723C255.569 52.4723 255.532 52.4723 255.495 52.4723C255.189 52.3646 254.86 52.3283 254.507 52.3624C253.094 52.0096 252.179 51.1305 251.763 49.725C251.623 48.4437 251.623 47.1613 251.763 45.8789C252.285 43.2305 253.327 40.8129 254.892 38.6261C256.501 36.5745 258.605 35.6778 261.204 35.9338C262.649 36.1723 263.582 36.9965 264.003 38.4064C264.233 39.3811 264.324 40.3701 264.277 41.3734Z" fill="#018443"/>
<path fill-rule="evenodd" clip-rule="evenodd" d="M264.058 28.6266C264.599 28.5968 265.111 28.6701 265.594 28.8464C265.06 28.8255 264.547 28.7523 264.058 28.6266Z" fill="#057282"/>
<path fill-rule="evenodd" clip-rule="evenodd" d="M397.98 28.6261C397.383 28.7106 396.779 28.8205 396.169 28.9558C396.125 28.9307 396.106 28.894 396.114 28.8459C396.709 28.6682 397.33 28.5949 397.98 28.6261Z" fill="#057282"/>
<path fill-rule="evenodd" clip-rule="evenodd" d="M401.602 28.6262C402.092 28.7519 402.605 28.8251 403.139 28.846C406.075 29.205 408.179 30.7069 409.451 33.3515C409.577 33.7482 409.669 34.1515 409.726 34.5603C409.863 35.6592 409.863 36.7581 409.726 37.857C406.652 37.857 403.578 37.857 400.505 37.857C400.583 36.6372 400.034 35.8866 398.858 35.6042C397.317 35.2471 395.854 35.4306 394.467 36.1537C393.745 36.8416 393.654 37.5932 394.193 38.4064C394.531 38.713 394.915 38.9515 395.345 39.1207C396.151 39.4317 396.957 39.7064 397.76 39.9449C397.981 40.1009 398.238 40.1745 398.529 40.1647C399.112 40.2284 399.661 40.3745 400.175 40.6042C400.396 40.7603 400.653 40.8339 400.944 40.824C403.147 41.2822 405.032 42.3086 406.597 43.9009C406.999 44.4306 407.273 45.0163 407.42 45.6592C407.563 46.7207 407.563 47.7833 407.42 48.846C406.892 51.2756 405.757 53.3636 404.017 55.1097C403.77 55.1734 403.587 55.3196 403.469 55.5493C402.23 56.7207 400.803 57.6174 399.187 58.2416C397.488 58.9053 395.732 59.3262 393.918 59.5053C391.869 59.6482 389.819 59.6482 387.771 59.5053C385.106 59.2064 382.928 58.0339 381.24 55.9888C380.012 54.1141 379.666 52.0987 380.197 49.9449C383.32 49.8614 386.43 49.8251 389.527 49.835C389.598 51.4833 390.476 52.4723 392.162 52.802C392.81 53.0438 393.468 53.0438 394.138 52.802C394.211 52.802 394.284 52.802 394.357 52.802C394.7 52.8537 395.029 52.7811 395.345 52.5822C396.411 52.3394 397.162 51.7163 397.596 50.7141C397.719 50.0636 397.518 49.5317 396.992 49.1207C396.231 48.6833 395.427 48.3537 394.577 48.1317C392.613 47.668 390.675 47.1185 388.759 46.4833C387.148 45.9306 385.812 44.9965 384.752 43.6811C384.26 42.9504 383.985 42.1438 383.929 41.2636C383.965 40.769 383.965 40.2932 383.929 39.835C383.905 39.5295 383.941 39.2361 384.039 38.9559C384.178 38.691 384.251 38.3987 384.258 38.0767C385.11 34.9987 386.903 32.6361 389.637 30.9888C390.745 30.3427 391.916 29.8482 393.15 29.5053C393.441 29.5152 393.698 29.442 393.918 29.2855C394.036 29.1829 394.182 29.1462 394.357 29.1756C394.718 29.1844 395.047 29.1111 395.345 28.9559C395.589 28.8604 395.845 28.8238 396.114 28.846C396.106 28.8941 396.125 28.9308 396.169 28.9559C396.779 28.8206 397.383 28.7107 397.98 28.6262C399.144 28.4827 400.351 28.4827 401.602 28.6262Z" fill="#018443"/>
<path fill-rule="evenodd" clip-rule="evenodd" d="M401.603 28.6266C402.144 28.5968 402.656 28.6701 403.139 28.8464C402.605 28.8255 402.092 28.7523 401.603 28.6266Z" fill="#057282"/>
<path fill-rule="evenodd" clip-rule="evenodd" d="M266.253 28.956C266.544 28.9461 266.801 29.0193 267.021 29.1757C266.73 29.1856 266.474 29.1124 266.253 28.956Z" fill="#057282"/>
<path fill-rule="evenodd" clip-rule="evenodd" d="M395.345 28.9563C395.047 29.1115 394.717 29.1848 394.357 29.1761C394.656 29.0208 394.985 28.9475 395.345 28.9563Z" fill="#057282"/>
<path fill-rule="evenodd" clip-rule="evenodd" d="M0.164704 29.1758C0.201291 29.1758 0.237889 29.1758 0.274476 29.1758C0.274476 46.0989 0.274476 63.0219 0.274476 79.945C0.128117 71.5384 0.0549316 63.0956 0.0549316 54.6153C0.0550963 46.1274 0.0916834 37.6483 0.164704 29.1758Z" fill="#057282"/>
<path fill-rule="evenodd" clip-rule="evenodd" d="M80.1887 29.1758C80.2985 46.0802 80.3351 63.0033 80.2985 79.945C53.6238 79.945 26.9491 79.945 0.274414 79.945C0.274414 63.022 0.274414 46.0989 0.274414 29.1758C5.39727 29.1575 10.52 29.1758 15.6426 29.2308C12.8108 39.0176 9.95667 48.7978 7.0803 58.5714C7.18086 58.6121 7.27241 58.667 7.35474 58.7362C13.2593 58.7231 19.1688 58.7231 25.083 58.7362C26.8896 58.6802 28.6825 58.478 30.4618 58.1319C34.212 57.1253 36.4989 54.7253 37.3226 50.934C37.9447 47.8417 36.975 45.4055 34.4136 43.6264C36.631 42.4659 38.113 40.689 38.8594 38.2967C39.5835 35.4538 38.87 33.0549 36.7189 31.0989C34.9548 29.9536 33.0155 29.331 30.9009 29.2308C31.0015 29.1897 31.093 29.1347 31.1754 29.0659C36.9305 29.1755 42.6936 29.2122 48.4645 29.1758C45.6642 39.034 42.8467 48.8868 40.012 58.7362C42.8663 58.7549 45.7204 58.7362 48.5743 58.6813C49.6382 55.0099 50.681 51.3286 51.7028 47.6373C52.7008 47.5648 53.707 47.5286 54.7215 47.5275C55.8976 47.5165 57.0685 47.5714 58.2343 47.6923C59.3389 47.9802 59.9426 48.6945 60.0455 49.8351C60.1521 52.8648 60.2802 55.8868 60.4297 58.9011C63.064 58.956 65.6986 58.9747 68.3333 58.956C68.2636 55.2736 68.099 51.6472 67.8393 48.0769C67.4332 46.656 66.5001 45.8319 65.0401 45.6044C66.0344 45.2714 66.9491 44.7956 67.7845 44.1758C70.2193 42.434 71.5915 40.0714 71.9009 37.0879C71.8066 32.3077 69.3734 29.6884 64.6011 29.2308C64.7768 29.2008 64.9415 29.1458 65.095 29.0659C70.1183 29.1755 75.1496 29.2121 80.1887 29.1758Z" fill="#018542"/>
<path fill-rule="evenodd" clip-rule="evenodd" d="M116.962 29.3955C122.195 29.249 127.427 29.249 132.66 29.3955C127.481 29.3984 122.248 29.3984 116.962 29.3955Z" fill="#057282"/>
<path fill-rule="evenodd" clip-rule="evenodd" d="M173.825 29.3956C165.751 29.3232 157.701 29.3964 149.675 29.6153C149.675 29.5055 149.675 29.3956 149.675 29.2857C157.743 29.2491 165.794 29.2858 173.825 29.3956Z" fill="#057282"/>
<path fill-rule="evenodd" clip-rule="evenodd" d="M206.976 29.7252C206.976 29.6153 206.976 29.5054 206.976 29.3955C197.931 29.3592 188.892 29.3958 179.862 29.5054C188.9 29.2859 197.973 29.2126 207.086 29.2856C207.115 29.4613 207.078 29.6078 206.976 29.7252Z" fill="#057282"/>
<path fill-rule="evenodd" clip-rule="evenodd" d="M213.233 29.3958C218.52 29.2677 223.826 29.2494 229.15 29.3408C229.682 29.3599 230.195 29.4149 230.687 29.5056C230.619 29.5178 230.564 29.5544 230.522 29.6155C229.973 29.5422 229.424 29.469 228.875 29.3958C223.738 29.4004 218.524 29.4004 213.233 29.3958Z" fill="#057282"/>
<path fill-rule="evenodd" clip-rule="evenodd" d="M284.585 29.3956C289.913 29.2866 295.237 29.2499 300.557 29.2857C300.989 29.3558 301.41 29.429 301.819 29.5055C296.159 29.4076 290.415 29.371 284.585 29.3956Z" fill="#057282"/>
<path fill-rule="evenodd" clip-rule="evenodd" d="M318.505 29.3956C323.869 29.2866 329.229 29.2499 334.586 29.2857C335.091 29.3563 335.585 29.4296 336.068 29.5055C336 29.5177 335.945 29.5543 335.904 29.6154C335.318 29.5421 334.732 29.4689 334.147 29.3956C328.986 29.3983 323.772 29.3983 318.505 29.3956Z" fill="#057282"/>
<path fill-rule="evenodd" clip-rule="evenodd" d="M371.415 31.2638C371.313 30.6601 371.239 30.0373 371.195 29.3957C367.895 29.36 364.601 29.3966 361.316 29.5056C364.607 29.2867 367.936 29.2134 371.305 29.2858C371.386 29.9419 371.423 30.6013 371.415 31.2638Z" fill="#057282"/>
<path fill-rule="evenodd" clip-rule="evenodd" d="M393.918 29.2856C393.698 29.442 393.441 29.5152 393.15 29.5053C393.371 29.3488 393.627 29.2757 393.918 29.2856Z" fill="#057282"/>
<path fill-rule="evenodd" clip-rule="evenodd" d="M116.963 29.3955C122.248 29.3984 127.481 29.3984 132.66 29.3955C132.996 29.4725 133.344 29.5458 133.703 29.6153C133.745 29.5542 133.799 29.5176 133.868 29.5054C134.173 29.4811 134.466 29.5177 134.746 29.6153C135.044 29.7706 135.374 29.8439 135.734 29.8351C137.194 30.053 138.437 30.6757 139.466 31.7032C139.612 31.923 139.795 32.1065 140.015 32.2527C140.834 33.0592 141.273 34.0483 141.332 35.2197C141.342 36.1746 141.305 37.1263 141.222 38.0768C139.833 44.7834 135.735 48.5933 128.928 49.5054C128.175 49.5208 127.443 49.5933 126.732 49.7252C124.793 49.7065 122.853 49.7252 120.914 49.7801C120.739 50.3241 120.555 50.8548 120.366 51.3735C120.21 51.5944 120.136 51.8516 120.146 52.1428C120.066 52.6856 119.919 53.1988 119.707 53.6812C119.551 53.9021 119.477 54.1592 119.487 54.4505C119.294 55.3955 119.038 56.3109 118.719 57.1977C118.563 57.4186 118.49 57.6757 118.499 57.9669C118.475 58.2494 118.402 58.5054 118.28 58.7362C115.068 58.845 111.848 58.8812 108.62 58.8461C108.62 58.7362 108.62 58.6263 108.62 58.5164C108.813 57.5713 109.069 56.6559 109.388 55.7691C109.544 55.5483 109.618 55.2911 109.608 54.9999C110.021 53.3219 110.496 51.6735 111.035 50.0548C111.191 49.834 111.264 49.5768 111.254 49.2856C112.708 43.8658 114.245 38.4812 115.865 33.1318C116.021 32.9109 116.094 32.6537 116.084 32.3625C116.165 31.8197 116.312 31.3063 116.523 30.8241C116.679 30.6027 116.753 30.3463 116.743 30.0548C116.753 29.8036 116.826 29.5839 116.963 29.3955ZM124.647 36.3186C126.259 36.2933 127.87 36.3307 129.477 36.4285C130.674 36.5647 131.443 37.1867 131.782 38.2966C131.746 38.6625 131.708 39.0296 131.672 39.3955C131.167 40.9636 130.143 42.0252 128.598 42.5823C128.136 42.6065 127.697 42.679 127.281 42.8021C126.765 42.7669 126.254 42.7669 125.744 42.8021C124.793 42.7285 123.842 42.6559 122.89 42.5823C123.323 41.2933 123.688 39.9746 123.988 38.6263C124.144 38.4054 124.217 38.1483 124.208 37.857C124.417 37.3735 124.563 36.8614 124.647 36.3186Z" fill="#018442"/>
<path fill-rule="evenodd" clip-rule="evenodd" d="M132.66 29.3954C133.085 29.3608 133.488 29.3974 133.867 29.5053C133.799 29.5175 133.744 29.5541 133.703 29.6152C133.344 29.5458 132.996 29.4725 132.66 29.3954Z" fill="#057282"/>
<path fill-rule="evenodd" clip-rule="evenodd" d="M173.825 29.3956C173.873 29.3885 173.909 29.4067 173.935 29.4506C173.648 30.3606 173.356 31.2581 173.056 32.1429C172.9 32.3638 172.827 32.6209 172.837 32.9121C172.667 33.7066 172.447 34.4759 172.178 35.2198C172.022 35.4407 171.949 35.6978 171.959 35.9891C171.969 36.0989 171.931 36.1902 171.849 36.2638C167.055 36.3187 162.262 36.3374 157.469 36.3187C157.462 36.6308 157.389 36.9242 157.249 37.1978C157.077 37.3737 157.003 37.5934 157.03 37.8572C156.927 38.4209 156.78 38.9704 156.59 39.5055C156.418 39.6814 156.345 39.9011 156.371 40.1649C156.371 40.2011 156.371 40.2385 156.371 40.2748C156.312 40.2814 156.274 40.3176 156.261 40.3847C160.323 40.4759 164.384 40.5308 168.446 40.5495C168.349 40.6989 168.313 40.8638 168.336 41.044C168.253 41.5869 168.107 42.0989 167.897 42.5825C167.741 42.8033 167.668 43.0605 167.678 43.3517C167.394 44.6693 167.029 45.9517 166.58 47.1978C162.451 47.2341 158.353 47.344 154.285 47.5275C154.146 48.2011 153.964 48.8605 153.736 49.5055C153.564 49.6814 153.491 49.9011 153.517 50.1649C153.421 50.7308 153.275 51.2803 153.078 51.8132C153.018 51.8198 152.981 51.8561 152.968 51.9231C157.98 52.033 162.994 52.0693 168.007 52.033C167.451 54.2605 166.829 56.4583 166.141 58.6264C162.03 58.7726 157.895 58.8451 153.736 58.8462C149.601 58.8462 145.502 58.7726 141.442 58.6264C141.489 58.1945 141.599 57.7924 141.771 57.4176C141.927 57.1967 142.001 56.9396 141.991 56.6484C142.074 56.1055 142.22 55.5934 142.43 55.1099C142.586 54.8891 142.659 54.6319 142.649 54.3407C142.73 53.7978 142.877 53.2847 143.088 52.8022C143.244 52.5814 143.318 52.3242 143.308 52.033C143.569 50.8407 143.899 49.6682 144.296 48.5165C144.452 48.2956 144.525 48.0385 144.516 47.7473C144.833 46.4396 145.198 45.1572 145.613 43.9011C145.769 43.6803 145.843 43.4231 145.833 43.1319C145.916 42.5891 146.062 42.077 146.272 41.5934C146.428 41.3726 146.501 41.1154 146.491 40.8242C146.926 39.1165 147.403 37.4308 147.918 35.7693C148.074 35.5484 148.148 35.2913 148.138 35C148.218 34.4572 148.365 33.944 148.577 33.4616C148.733 33.2407 148.807 32.9836 148.797 32.6924C149.023 31.6374 149.316 30.6113 149.675 29.6154C157.701 29.3965 165.751 29.3232 173.825 29.3956Z" fill="#018442"/>
<path fill-rule="evenodd" clip-rule="evenodd" d="M206.976 29.725C206.347 32.1998 205.652 34.6536 204.89 37.0877C201.944 37.0514 199.016 37.0877 196.108 37.1976C194.142 44.4481 192.093 51.6646 189.961 58.8459C186.723 58.8822 183.502 58.8459 180.301 58.736C180.966 56.1514 181.699 53.5866 182.497 51.0437C182.653 50.8228 182.726 50.5657 182.716 50.2745C182.796 49.7404 182.942 49.2283 183.155 48.736C183.311 48.5152 183.385 48.258 183.375 47.9668C183.458 47.4239 183.604 46.9119 183.814 46.4283C183.97 46.2075 184.043 45.9503 184.033 45.6591C184.117 45.1163 184.263 44.6042 184.473 44.1206C184.628 43.8998 184.702 43.6426 184.692 43.3514C184.776 42.8086 184.922 42.2965 185.131 41.813C185.287 41.5921 185.361 41.3349 185.351 41.0437C185.434 40.5009 185.58 39.9888 185.79 39.5053C185.946 39.2844 186.019 39.0272 186.009 38.736C186.069 38.3174 186.178 37.9141 186.339 37.5272C186.441 37.4097 186.478 37.2635 186.448 37.0877C183.594 37.0877 180.74 37.0877 177.886 37.0877C177.886 36.9778 177.886 36.8679 177.886 36.758C177.95 36.1745 178.096 35.625 178.325 35.1097C178.481 34.8888 178.555 34.6316 178.545 34.3404C178.95 32.7173 179.389 31.1056 179.862 29.5053C188.892 29.3957 197.931 29.3591 206.976 29.3954C206.976 29.5053 206.976 29.6152 206.976 29.725Z" fill="#018442"/>
<path fill-rule="evenodd" clip-rule="evenodd" d="M213.233 29.3955C218.524 29.4001 223.738 29.4001 228.875 29.3955C229.424 29.4688 229.973 29.542 230.522 29.6153C230.564 29.5542 230.619 29.5176 230.687 29.5054C231.064 29.4783 231.43 29.5148 231.784 29.6153C232.163 29.7457 232.565 29.819 232.992 29.8351C234.721 30.0141 236.203 30.71 237.438 31.923C237.928 32.5757 238.203 33.3087 238.261 34.1208C238.254 34.6669 238.254 35.2164 238.261 35.7691C237.753 40.323 235.374 43.4186 231.126 45.0548C233.967 46.0362 234.973 47.9955 234.144 50.934C233.724 52.7625 233.23 54.5581 232.663 56.3186C232.543 56.6043 232.469 56.9164 232.443 57.2527C232.422 57.4735 232.495 57.6384 232.663 57.7472C232.807 57.9054 232.991 57.979 233.211 57.9669C233.182 58.2384 233.109 58.4944 232.992 58.7362C229.744 58.8636 226.487 58.8812 223.222 58.7911C223.13 58.6801 223.094 58.5516 223.112 58.4065C223.157 57.3428 223.34 56.3175 223.661 55.3296C223.801 55.0647 223.873 54.7724 223.881 54.4505C224.048 53.5647 224.249 52.6856 224.485 51.8131C224.838 49.9142 224.051 48.8878 222.124 48.7362C221.197 48.5724 220.245 48.4988 219.27 48.5164C218.607 48.5164 217.985 48.59 217.404 48.7362C217.115 49.9318 216.786 51.1032 216.416 52.2527C216.26 52.4735 216.187 52.7307 216.197 53.0219C215.736 54.9054 215.223 56.7735 214.66 58.6263C213.037 58.7713 211.391 58.8439 209.72 58.8461C208.091 58.8461 206.482 58.8098 204.89 58.7362C205.59 56.1516 206.322 53.5878 207.086 51.0439C207.241 50.823 207.315 50.5658 207.305 50.2746C207.389 49.7318 207.535 49.2197 207.744 48.7362C207.9 48.5153 207.974 48.2581 207.964 47.9669C208.157 47.0219 208.413 46.1065 208.732 45.2197C208.888 44.9988 208.962 44.7417 208.952 44.4505C209.035 43.9076 209.181 43.3955 209.391 42.912C209.547 42.6911 209.62 42.434 209.61 42.1428C209.874 40.9406 210.203 39.7691 210.598 38.6263C210.754 38.4054 210.828 38.1483 210.818 37.857C210.842 37.5746 210.916 37.3186 211.037 37.0878C211.193 36.8669 211.267 36.6098 211.257 36.3186C211.866 33.9856 212.525 31.6779 213.233 29.3955ZM220.917 36.3186C222.932 36.2889 224.944 36.3263 226.954 36.4285C227.634 36.6691 228.147 37.1087 228.491 37.7472C228.491 38.223 228.491 38.6999 228.491 39.1757C228.129 40.2527 227.434 41.0406 226.406 41.5384C225.816 41.7406 225.23 41.9054 224.649 42.0329C222.893 42.0329 221.136 42.0329 219.38 42.0329C219.38 41.923 219.38 41.8131 219.38 41.7032C219.46 41.5702 219.498 41.4241 219.49 41.2636C219.646 41.0428 219.719 40.7856 219.709 40.4944C220.178 39.1329 220.58 37.7417 220.917 36.3186Z" fill="#018442"/>
<path fill-rule="evenodd" clip-rule="evenodd" d="M284.585 29.3956C290.415 29.371 296.159 29.4076 301.819 29.5055C302.735 29.5117 303.613 29.6581 304.454 29.9451C304.674 30.1015 304.931 30.1747 305.222 30.1648C306.82 30.5746 307.973 31.5275 308.68 33.022C308.799 33.3033 308.853 33.5967 308.845 33.9011C308.85 34.6363 308.813 35.3692 308.735 36.0989C308.425 37.8176 307.657 39.2824 306.43 40.4945C306.174 40.678 305.954 40.8978 305.771 41.1538C304.981 41.9901 304.066 42.6681 303.027 43.1868C305.682 44.2725 306.707 46.233 306.1 49.0659C305.961 49.3308 305.889 49.6231 305.881 49.9451C304.786 54.1352 302.152 56.8275 297.977 58.022C296.296 58.5352 294.575 58.8099 292.818 58.8462C287.274 58.8824 281.748 58.8462 276.242 58.7363C276.213 58.5604 276.25 58.4143 276.352 58.2967C276.508 58.0758 276.581 57.8187 276.572 57.5275C276.652 56.9846 276.798 56.4714 277.011 55.989C277.167 55.7681 277.24 55.511 277.23 55.2198C277.717 53.2484 278.265 51.3077 278.877 49.3956C279.033 49.1747 279.106 48.9176 279.096 48.6264C279.18 48.0835 279.326 47.5714 279.535 47.0879C279.691 46.867 279.765 46.6099 279.755 46.3187C280.629 43.0725 281.544 39.8484 282.499 36.6484C282.655 36.4275 282.729 36.1703 282.719 35.8791C282.802 35.3363 282.948 34.8242 283.158 34.3407C283.314 34.1198 283.387 33.8626 283.377 33.5714C283.461 33.0297 283.607 32.5165 283.817 32.033C283.972 31.8121 284.046 31.5549 284.036 31.2637C284.157 30.6101 284.339 29.9874 284.585 29.3956ZM297.977 36.4286C299.064 36.8538 299.375 37.6231 298.91 38.7363C298.453 39.8363 297.665 40.5692 296.55 40.9341C295.982 40.9725 295.433 41.0451 294.904 41.1538C293.676 41.0242 292.45 41.0242 291.226 41.1538C291.15 41.0956 291.096 41.0231 291.062 40.9341C291.296 40.2506 291.479 39.5549 291.61 38.8462C291.766 38.6253 291.84 38.3681 291.83 38.0769C292.04 37.5934 292.186 37.0813 292.269 36.5385C294.148 36.2868 296.051 36.2506 297.977 36.4286ZM289.415 46.6484C291.393 46.6264 293.369 46.6626 295.343 46.7582C296.101 46.8626 296.686 47.2297 297.099 47.8571C297.109 48.411 297.072 48.9604 296.989 49.5055C296.302 51.0429 295.095 51.8484 293.367 51.9231C291.534 51.9945 289.741 51.922 287.988 51.7033C288.507 50.033 288.984 48.3484 289.415 46.6484Z" fill="#018442"/>
<path fill-rule="evenodd" clip-rule="evenodd" d="M318.505 29.3955C323.772 29.3981 328.986 29.3981 334.147 29.3955C334.732 29.4688 335.319 29.542 335.904 29.6153C335.945 29.5542 336 29.5176 336.068 29.5054C337.054 29.5206 338.006 29.6672 338.922 29.945C339.143 30.1014 339.4 30.1746 339.691 30.1647C341.546 30.521 342.791 31.5834 343.423 33.3516C343.447 33.8142 343.52 34.2537 343.643 34.6702C343.593 38.2658 342.204 41.2153 339.471 43.5164C338.504 44.1472 337.48 44.6592 336.398 45.0548C337.609 45.3944 338.578 46.0724 339.307 47.0878C339.396 47.301 339.45 47.5208 339.471 47.7472C339.607 48.6988 339.607 49.6516 339.471 50.6043C338.978 52.8724 338.43 55.1252 337.825 57.3625C337.891 57.7406 338.11 57.9417 338.483 57.9669C338.476 58.2889 338.403 58.5812 338.264 58.8461C335.007 58.8461 331.751 58.8461 328.494 58.8461C328.508 58.2219 328.546 57.5988 328.604 56.9779C328.85 55.445 329.215 53.9428 329.702 52.4724C329.852 52.1461 329.962 51.7988 330.031 51.4285C329.969 51.3867 329.933 51.3318 329.921 51.2636C329.921 51.0439 329.921 50.8241 329.921 50.6043C329.957 50.3043 329.884 50.0483 329.702 49.8351C329.118 49.1988 328.387 48.8329 327.506 48.7362C326.56 48.5746 325.591 48.5021 324.597 48.5164C323.974 48.5164 323.37 48.5527 322.786 48.6263C322.432 50.0076 322.03 51.3625 321.578 52.6922C321.423 52.9131 321.349 53.1702 321.359 53.4614C320.896 55.2823 320.383 57.0768 319.822 58.8461C316.584 58.8823 313.363 58.8461 310.162 58.7362C310.355 57.7911 310.611 56.8757 310.931 55.9889C311.086 55.768 311.16 55.5109 311.15 55.2197C311.233 54.6768 311.379 54.1647 311.589 53.6812C311.745 53.4603 311.819 53.2032 311.809 52.912C312.243 51.2043 312.719 49.5197 313.236 47.857C313.392 47.6362 313.465 47.379 313.455 47.0878C313.539 46.545 313.685 46.0329 313.894 45.5494C314.05 45.3285 314.124 45.0713 314.114 44.7801C315.144 40.8768 316.241 36.9944 317.407 33.1318C317.563 32.9109 317.637 32.6537 317.627 32.3625C317.71 31.8197 317.856 31.3073 318.066 30.8241C318.222 30.6027 318.295 30.3463 318.285 30.0548C318.295 29.8036 318.369 29.5839 318.505 29.3955ZM332.226 36.4285C333.652 36.9384 334.146 37.9274 333.708 39.3955C333.154 40.8527 332.111 41.6955 330.58 41.923C329.484 41.9867 328.387 42.0241 327.287 42.0329C326.369 42.0329 325.491 41.9592 324.652 41.8131C324.808 41.5922 324.881 41.3351 324.872 41.0439C325.027 40.823 325.101 40.5658 325.091 40.2746C325.54 39.0274 325.906 37.745 326.189 36.4285C328.196 36.2878 330.208 36.2878 332.226 36.4285Z" fill="#018442"/>
<path fill-rule="evenodd" clip-rule="evenodd" d="M371.415 31.2637C371.506 31.8076 371.542 32.3571 371.525 32.912C371.476 32.9043 371.44 32.923 371.415 32.967C371.485 33.4362 371.559 33.8934 371.635 34.3406C371.765 35.3087 371.839 36.2978 371.854 37.3076C371.864 37.4175 371.827 37.5087 371.744 37.5824C371.845 38.4549 371.955 39.3153 372.074 40.1648C372.165 40.7087 372.201 41.2582 372.183 41.8131C372.171 41.8813 372.135 41.9362 372.074 41.978C372.175 42.8505 372.284 43.7109 372.403 44.5604C372.494 45.1043 372.53 45.6538 372.513 46.2087C372.523 46.3186 372.485 46.4098 372.403 46.4835C372.516 47.3549 372.626 48.2153 372.732 49.0659C372.823 49.6098 372.86 50.1593 372.842 50.7142C372.83 50.7824 372.794 50.8373 372.732 50.8791C372.833 51.7516 372.943 52.612 373.062 53.4615C373.153 54.0054 373.189 54.5549 373.171 55.1098C373.181 55.2197 373.144 55.3109 373.062 55.3846C373.175 56.256 373.284 57.1164 373.391 57.967C373.391 58.0769 373.391 58.1868 373.391 58.2967C373.391 58.4802 373.391 58.6626 373.391 58.8461C370.207 58.8461 367.024 58.8461 363.841 58.8461C363.841 57.5637 363.841 56.2824 363.841 54.9999C360.565 54.9637 357.309 54.9999 354.071 55.1098C353.433 56.3879 352.737 57.6329 351.985 58.8461C348.783 58.8824 345.6 58.8461 342.435 58.7362C348.689 48.9604 354.983 39.2164 361.316 29.5054C364.601 29.3964 367.895 29.3598 371.195 29.3956C371.239 30.0372 371.313 30.6599 371.415 31.2637ZM363.731 39.1758C363.714 42.2208 363.714 45.4439 363.731 48.8461C361.755 48.8461 359.779 48.8461 357.803 48.8461C359.723 45.4428 361.644 42.0362 363.566 38.6263C363.638 38.4945 363.692 38.4945 363.731 38.6263C363.587 38.8131 363.587 38.9967 363.731 39.1758Z" fill="#018442"/>
<path fill-rule="evenodd" clip-rule="evenodd" d="M134.746 29.6155C135.106 29.6067 135.435 29.68 135.734 29.8352C135.374 29.844 135.044 29.7707 134.746 29.6155Z" fill="#057282"/>
<path fill-rule="evenodd" clip-rule="evenodd" d="M231.784 29.6154C232.219 29.5881 232.621 29.6614 232.992 29.8352C232.565 29.8192 232.163 29.7459 231.784 29.6154Z" fill="#057282"/>
<path fill-rule="evenodd" clip-rule="evenodd" d="M304.454 29.9452C304.745 29.9353 305.002 30.0085 305.222 30.165C304.931 30.1749 304.675 30.1017 304.454 29.9452Z" fill="#057282"/>
<path fill-rule="evenodd" clip-rule="evenodd" d="M338.922 29.9452C339.213 29.9353 339.47 30.0085 339.691 30.165C339.4 30.1749 339.143 30.1017 338.922 29.9452Z" fill="#057282"/>
<path fill-rule="evenodd" clip-rule="evenodd" d="M116.743 30.0552C116.753 30.3466 116.679 30.603 116.523 30.8244C116.513 30.533 116.587 30.2766 116.743 30.0552Z" fill="#057282"/>
<path fill-rule="evenodd" clip-rule="evenodd" d="M318.285 30.0552C318.295 30.3466 318.221 30.603 318.066 30.8244C318.056 30.533 318.129 30.2766 318.285 30.0552Z" fill="#057282"/>
<path fill-rule="evenodd" clip-rule="evenodd" d="M284.036 31.2637C284.046 31.5549 283.972 31.812 283.817 32.0329C283.807 31.7417 283.88 31.4846 284.036 31.2637Z" fill="#057282"/>
<path fill-rule="evenodd" clip-rule="evenodd" d="M139.466 31.7031C139.759 31.7768 139.941 31.9592 140.015 32.2526C139.795 32.1064 139.612 31.9229 139.466 31.7031Z" fill="#057282"/>
<path fill-rule="evenodd" clip-rule="evenodd" d="M173.056 32.1431C173.066 32.4343 172.993 32.6914 172.837 32.9123C172.827 32.6211 172.9 32.3639 173.056 32.1431Z" fill="#057282"/>
<path fill-rule="evenodd" clip-rule="evenodd" d="M116.084 32.3628C116.094 32.654 116.021 32.9111 115.865 33.132C115.855 32.8408 115.929 32.5837 116.084 32.3628Z" fill="#057282"/>
<path fill-rule="evenodd" clip-rule="evenodd" d="M317.626 32.3628C317.636 32.654 317.563 32.9111 317.407 33.132C317.397 32.8408 317.471 32.5837 317.626 32.3628Z" fill="#057282"/>
<path fill-rule="evenodd" clip-rule="evenodd" d="M148.797 32.6924C148.806 32.9836 148.733 33.2407 148.577 33.4616C148.567 33.1704 148.641 32.9133 148.797 32.6924Z" fill="#057282"/>
<path fill-rule="evenodd" clip-rule="evenodd" d="M371.525 32.9123C371.632 33.3662 371.67 33.8431 371.635 34.3409C371.559 33.8936 371.485 33.4365 371.415 32.9673C371.44 32.9233 371.477 32.9046 371.525 32.9123Z" fill="#057282"/>
<path fill-rule="evenodd" clip-rule="evenodd" d="M343.423 33.3516C343.603 33.7593 343.676 34.1988 343.643 34.6702C343.52 34.2538 343.447 33.8142 343.423 33.3516Z" fill="#057282"/>
<path fill-rule="evenodd" clip-rule="evenodd" d="M283.377 33.5713C283.387 33.8625 283.314 34.1196 283.158 34.3405C283.148 34.0493 283.222 33.7922 283.377 33.5713Z" fill="#057282"/>
<path fill-rule="evenodd" clip-rule="evenodd" d="M308.845 33.9009C308.917 34.1547 308.954 34.4295 308.954 34.7251C308.966 35.2119 308.893 35.669 308.735 36.0987C308.813 35.369 308.85 34.636 308.845 33.9009Z" fill="#057282"/>
<path fill-rule="evenodd" clip-rule="evenodd" d="M238.261 34.1211C238.407 34.6705 238.407 35.22 238.261 35.7694C238.254 35.2167 238.254 34.6672 238.261 34.1211Z" fill="#057282"/>
<path fill-rule="evenodd" clip-rule="evenodd" d="M178.545 34.3408C178.555 34.632 178.481 34.8892 178.325 35.1101C178.315 34.8188 178.389 34.5617 178.545 34.3408Z" fill="#057282"/>
<path fill-rule="evenodd" clip-rule="evenodd" d="M409.726 34.5605C409.976 35.6726 410.012 36.8089 409.835 37.9671C406.707 38.0034 403.596 37.9671 400.505 37.8573C403.578 37.8573 406.652 37.8573 409.726 37.8573C409.863 36.7583 409.863 35.6594 409.726 34.5605Z" fill="#057282"/>
<path fill-rule="evenodd" clip-rule="evenodd" d="M148.138 35C148.148 35.2912 148.074 35.5484 147.918 35.7692C147.908 35.478 147.982 35.2209 148.138 35Z" fill="#057282"/>
<path fill-rule="evenodd" clip-rule="evenodd" d="M22.3387 35.1101C24.8271 35.0914 27.3153 35.1101 29.8032 35.165C31.3559 35.6606 31.923 36.7046 31.5047 38.2969C30.9798 39.5914 30.0284 40.3606 28.6506 40.6046C26.0938 40.6024 23.5141 40.6024 20.9116 40.6046C21.387 38.7738 21.8627 36.9419 22.3387 35.1101Z" fill="#098744"/>
<path fill-rule="evenodd" clip-rule="evenodd" d="M55.1607 35.1101C57.576 35.0914 59.991 35.1101 62.4056 35.165C63.9407 35.4936 64.7091 36.4452 64.7109 38.0221C64.0549 40.4914 62.4448 41.7551 59.8809 41.8133C57.7732 41.8057 55.6692 41.8057 53.569 41.8133C53.493 41.7551 53.4381 41.6826 53.4043 41.5936C54.0349 39.443 54.6204 37.2826 55.1607 35.1101Z" fill="#088644"/>
<path fill-rule="evenodd" clip-rule="evenodd" d="M141.332 35.2197C141.405 35.5659 141.442 35.9318 141.442 36.3186C141.456 36.9318 141.384 37.5175 141.222 38.0769C141.304 37.1263 141.342 36.1747 141.332 35.2197Z" fill="#057282"/>
<path fill-rule="evenodd" clip-rule="evenodd" d="M172.178 35.2197C172.188 35.5109 172.114 35.7681 171.958 35.989C171.949 35.6977 172.022 35.4406 172.178 35.2197Z" fill="#057282"/>
<path fill-rule="evenodd" clip-rule="evenodd" d="M282.719 35.8789C282.729 36.1701 282.655 36.4273 282.499 36.6481C282.49 36.3569 282.563 36.0998 282.719 35.8789Z" fill="#057282"/>
<path fill-rule="evenodd" clip-rule="evenodd" d="M124.646 36.3188C126.055 36.1914 127.482 36.1727 128.928 36.2639C129.134 36.2859 129.317 36.3408 129.476 36.4287C127.869 36.3309 126.259 36.2936 124.646 36.3188Z" fill="#057282"/>
<path fill-rule="evenodd" clip-rule="evenodd" d="M220.917 36.3188C222.764 36.1914 224.631 36.1727 226.515 36.2639C226.687 36.287 226.833 36.3419 226.954 36.4287C224.945 36.3265 222.932 36.2892 220.917 36.3188Z" fill="#057282"/>
<path fill-rule="evenodd" clip-rule="evenodd" d="M297.977 36.4285C296.051 36.2504 294.148 36.2867 292.269 36.5384C292.269 36.4285 292.269 36.3186 292.269 36.2087C294.025 36.19 295.782 36.2087 297.538 36.2636C297.709 36.2867 297.855 36.3416 297.977 36.4285Z" fill="#057282"/>
<path fill-rule="evenodd" clip-rule="evenodd" d="M332.226 36.4288C330.207 36.2881 328.195 36.2881 326.189 36.4288C327.082 36.2826 328.015 36.209 328.988 36.209C329.921 36.2277 330.854 36.2452 331.787 36.2639C331.958 36.287 332.104 36.342 332.226 36.4288Z" fill="#057282"/>
<path fill-rule="evenodd" clip-rule="evenodd" d="M211.257 36.3188C211.267 36.6101 211.193 36.8672 211.037 37.0881C211.028 36.7969 211.101 36.5397 211.257 36.3188Z" fill="#057282"/>
<path fill-rule="evenodd" clip-rule="evenodd" d="M177.886 36.7583C177.886 36.8682 177.886 36.9781 177.886 37.088C180.74 37.088 183.594 37.088 186.449 37.088C186.478 37.2638 186.441 37.4099 186.339 37.5275C186.339 37.4176 186.339 37.3078 186.339 37.1979C183.565 37.1649 180.803 37.2012 178.051 37.3078C177.793 37.1627 177.738 36.9803 177.886 36.7583Z" fill="#057282"/>
<path fill-rule="evenodd" clip-rule="evenodd" d="M196.108 37.1977C199.016 37.0878 201.944 37.0515 204.89 37.0878C204.739 37.168 204.574 37.2416 204.396 37.3076C201.644 37.201 198.882 37.1647 196.108 37.1977Z" fill="#057282"/>
<path fill-rule="evenodd" clip-rule="evenodd" d="M157.249 37.1978C157.239 37.4494 157.166 37.6692 157.029 37.8571C157.003 37.5934 157.077 37.3736 157.249 37.1978Z" fill="#057282"/>
<path fill-rule="evenodd" clip-rule="evenodd" d="M371.854 37.3076C371.999 38.2384 372.072 39.1911 372.074 40.1648C371.955 39.3153 371.845 38.4549 371.744 37.5823C371.827 37.5087 371.864 37.4175 371.854 37.3076Z" fill="#057282"/>
<path fill-rule="evenodd" clip-rule="evenodd" d="M228.491 37.7471C228.705 38.2064 228.705 38.6822 228.491 39.1756C228.491 38.6998 228.491 38.2229 228.491 37.7471Z" fill="#057282"/>
<path fill-rule="evenodd" clip-rule="evenodd" d="M124.207 37.8569C124.217 38.1481 124.144 38.4053 123.988 38.6262C123.978 38.335 124.052 38.0778 124.207 37.8569Z" fill="#057282"/>
<path fill-rule="evenodd" clip-rule="evenodd" d="M210.818 37.8569C210.828 38.1481 210.754 38.4053 210.598 38.6262C210.588 38.335 210.662 38.0778 210.818 37.8569Z" fill="#057282"/>
<path fill-rule="evenodd" clip-rule="evenodd" d="M274.157 38.0771C274.303 38.8101 274.303 39.542 274.157 40.275C274.152 39.5387 274.152 38.8068 274.157 38.0771Z" fill="#057282"/>
<path fill-rule="evenodd" clip-rule="evenodd" d="M291.83 38.0771C291.84 38.3684 291.766 38.6255 291.61 38.8464C291.601 38.5552 291.674 38.298 291.83 38.0771Z" fill="#057282"/>
<path fill-rule="evenodd" clip-rule="evenodd" d="M384.258 38.0771C384.251 38.3991 384.178 38.6914 384.039 38.9563C384.016 38.6266 384.089 38.3343 384.258 38.0771Z" fill="#057282"/>
<path fill-rule="evenodd" clip-rule="evenodd" d="M131.782 38.2969C131.915 38.6738 131.878 39.0397 131.672 39.3958C131.708 39.0298 131.746 38.6628 131.782 38.2969Z" fill="#057282"/>
<path fill-rule="evenodd" clip-rule="evenodd" d="M186.009 38.7363C186.019 39.0275 185.946 39.2847 185.79 39.5056C185.78 39.2144 185.854 38.9572 186.009 38.7363Z" fill="#057282"/>
<path fill-rule="evenodd" clip-rule="evenodd" d="M363.731 39.1758C363.814 42.4098 363.888 45.6153 363.95 48.7912C362.925 48.9186 361.882 48.9736 360.822 48.956C359.797 48.956 358.79 48.9197 357.803 48.8461C359.779 48.8461 361.755 48.8461 363.731 48.8461C363.714 45.4439 363.714 42.2208 363.731 39.1758Z" fill="#057282"/>
<path fill-rule="evenodd" clip-rule="evenodd" d="M156.59 39.5054C156.581 39.757 156.507 39.9768 156.371 40.1647C156.345 39.901 156.418 39.6812 156.59 39.5054Z" fill="#057282"/>
<path fill-rule="evenodd" clip-rule="evenodd" d="M383.929 39.835C383.965 40.2932 383.965 40.769 383.929 41.2635C383.783 40.7877 383.783 40.3108 383.929 39.835Z" fill="#057282"/>
<path fill-rule="evenodd" clip-rule="evenodd" d="M397.76 39.9452C398.051 39.9353 398.308 40.009 398.529 40.165C398.238 40.1749 397.981 40.1013 397.76 39.9452Z" fill="#057282"/>
<path fill-rule="evenodd" clip-rule="evenodd" d="M156.371 40.2749C160.414 40.3848 164.475 40.4211 168.555 40.3848C168.546 40.6364 168.472 40.8562 168.336 41.0441C168.313 40.8639 168.349 40.6991 168.446 40.5496C164.384 40.5309 160.323 40.476 156.261 40.3848C156.274 40.3178 156.311 40.2815 156.371 40.2749Z" fill="#057282"/>
<path fill-rule="evenodd" clip-rule="evenodd" d="M325.091 40.2749C325.101 40.5661 325.027 40.8233 324.871 41.0441C324.862 40.7529 324.935 40.4958 325.091 40.2749Z" fill="#057282"/>
<path fill-rule="evenodd" clip-rule="evenodd" d="M219.709 40.4946C219.719 40.7858 219.646 41.043 219.49 41.2639C219.48 40.9727 219.554 40.7155 219.709 40.4946Z" fill="#057282"/>
<path fill-rule="evenodd" clip-rule="evenodd" d="M306.43 40.4946C306.32 40.8243 306.1 41.0441 305.771 41.154C305.954 40.8979 306.174 40.6781 306.43 40.4946Z" fill="#057282"/>
<path fill-rule="evenodd" clip-rule="evenodd" d="M400.175 40.6044C400.466 40.5945 400.723 40.6681 400.944 40.8242C400.653 40.8341 400.396 40.7604 400.175 40.6044Z" fill="#057282"/>
<path fill-rule="evenodd" clip-rule="evenodd" d="M146.491 40.8242C146.501 41.1154 146.428 41.3726 146.272 41.5934C146.262 41.3022 146.336 41.0451 146.491 40.8242Z" fill="#057282"/>
<path fill-rule="evenodd" clip-rule="evenodd" d="M296.55 40.9341C296.148 41.0791 295.727 41.189 295.288 41.2638C295.163 41.2506 295.034 41.2143 294.904 41.1539C295.433 41.0451 295.982 40.9725 296.55 40.9341Z" fill="#057282"/>
<path fill-rule="evenodd" clip-rule="evenodd" d="M185.351 41.0439C185.361 41.3352 185.287 41.5923 185.131 41.8132C185.121 41.522 185.195 41.2648 185.351 41.0439Z" fill="#057282"/>
<path fill-rule="evenodd" clip-rule="evenodd" d="M264.277 41.3735C264.289 41.4417 264.325 41.4966 264.387 41.5384C264.306 41.9406 264.196 42.3252 264.058 42.6922C264.082 42.2296 264.154 41.79 264.277 41.3735Z" fill="#057282"/>
<path fill-rule="evenodd" clip-rule="evenodd" d="M219.38 41.7031C219.38 41.813 219.38 41.9229 219.38 42.0328C221.137 42.0328 222.893 42.0328 224.649 42.0328C222.875 42.1603 221.083 42.1789 219.27 42.0877C219.184 41.9438 219.221 41.8152 219.38 41.7031Z" fill="#057282"/>
<path fill-rule="evenodd" clip-rule="evenodd" d="M324.652 41.813C325.491 41.9591 326.369 42.0328 327.286 42.0328C328.386 42.024 329.484 41.9866 330.58 41.9229C330.42 42.0108 330.237 42.0657 330.031 42.0877C328.202 42.1427 326.372 42.1613 324.542 42.1427C324.516 42.0009 324.553 41.891 324.652 41.813Z" fill="#057282"/>
<path fill-rule="evenodd" clip-rule="evenodd" d="M372.184 41.813C372.323 42.7075 372.395 43.6229 372.403 44.5602C372.284 43.7108 372.175 42.8504 372.074 41.9778C372.135 41.9361 372.171 41.8811 372.184 41.813Z" fill="#057282"/>
<path fill-rule="evenodd" clip-rule="evenodd" d="M209.611 42.1431C209.62 42.4343 209.547 42.6914 209.391 42.9123C209.381 42.6211 209.455 42.3639 209.611 42.1431Z" fill="#057282"/>
<path fill-rule="evenodd" clip-rule="evenodd" d="M122.89 42.5825C123.842 42.6561 124.793 42.7287 125.744 42.8023C124.861 42.8507 123.965 42.8869 123.055 42.9122C122.954 42.8518 122.862 42.7792 122.781 42.6924C122.794 42.6254 122.831 42.5891 122.89 42.5825Z" fill="#057282"/>
<path fill-rule="evenodd" clip-rule="evenodd" d="M128.599 42.5825C128.232 42.721 127.848 42.8309 127.446 42.9122C127.404 42.8507 127.349 42.8144 127.281 42.8023C127.697 42.6792 128.136 42.6067 128.599 42.5825Z" fill="#057282"/>
<path fill-rule="evenodd" clip-rule="evenodd" d="M167.897 42.5825C167.907 42.8737 167.833 43.1309 167.677 43.3518C167.668 43.0605 167.741 42.8034 167.897 42.5825Z" fill="#057282"/>
<path fill-rule="evenodd" clip-rule="evenodd" d="M145.833 43.1318C145.843 43.423 145.769 43.6802 145.613 43.9011C145.603 43.6099 145.677 43.3527 145.833 43.1318Z" fill="#057282"/>
<path fill-rule="evenodd" clip-rule="evenodd" d="M273.717 43.1318C273.727 43.423 273.654 43.6802 273.498 43.9011C273.488 43.6099 273.562 43.3527 273.717 43.1318Z" fill="#057282"/>
<path fill-rule="evenodd" clip-rule="evenodd" d="M184.692 43.3516C184.702 43.6428 184.628 43.8999 184.473 44.1208C184.463 43.8296 184.536 43.5724 184.692 43.3516Z" fill="#057282"/>
<path fill-rule="evenodd" clip-rule="evenodd" d="M242.542 43.6812C242.552 43.9724 242.479 44.2295 242.323 44.4504C242.313 44.1592 242.386 43.902 242.542 43.6812Z" fill="#057282"/>
<path fill-rule="evenodd" clip-rule="evenodd" d="M208.952 44.4507C208.962 44.7419 208.888 44.999 208.732 45.2199C208.722 44.9287 208.796 44.6716 208.952 44.4507Z" fill="#057282"/>
<path fill-rule="evenodd" clip-rule="evenodd" d="M314.114 44.7803C314.124 45.0715 314.05 45.3286 313.894 45.5495C313.884 45.2583 313.958 45.0012 314.114 44.7803Z" fill="#057282"/>
<path fill-rule="evenodd" clip-rule="evenodd" d="M184.033 45.6592C184.043 45.9504 183.97 46.2075 183.814 46.4284C183.804 46.1372 183.878 45.8801 184.033 45.6592Z" fill="#057282"/>
<path fill-rule="evenodd" clip-rule="evenodd" d="M407.42 45.6592C407.588 46.1427 407.662 46.6548 407.64 47.1976C407.659 47.7757 407.585 48.3251 407.42 48.846C407.563 47.7834 407.563 46.7207 407.42 45.6592Z" fill="#057282"/>
<path fill-rule="evenodd" clip-rule="evenodd" d="M251.763 45.8789C251.623 47.1613 251.623 48.4437 251.763 49.7251C251.614 49.2866 251.504 48.8284 251.434 48.3514C251.456 47.5525 251.566 46.7284 251.763 45.8789Z" fill="#057282"/>
<path fill-rule="evenodd" clip-rule="evenodd" d="M19.2651 46.2087C21.5339 46.19 23.8026 46.2087 26.0709 46.2636C27.6014 46.2944 28.4796 47.0636 28.7055 48.5713C28.6368 50.4823 27.6488 51.7647 25.7416 52.4175C25.1337 52.5153 24.53 52.6076 23.9304 52.6922C21.8082 52.546 19.6858 52.546 17.5636 52.6922C17.4876 52.634 17.4327 52.5614 17.3989 52.4724C18.0443 50.3878 18.6664 48.2999 19.2651 46.2087Z" fill="#078644"/>
<path fill-rule="evenodd" clip-rule="evenodd" d="M372.513 46.209C372.658 47.1398 372.73 48.0925 372.732 49.0661C372.626 48.2156 372.516 47.3551 372.403 46.4837C372.485 46.4101 372.522 46.3189 372.513 46.209Z" fill="#057282"/>
<path fill-rule="evenodd" clip-rule="evenodd" d="M279.755 46.3188C279.765 46.6101 279.691 46.8672 279.536 47.0881C279.526 46.7969 279.599 46.5397 279.755 46.3188Z" fill="#057282"/>
<path fill-rule="evenodd" clip-rule="evenodd" d="M241.884 46.5386C241.873 47.1836 241.8 47.8067 241.664 48.4067C241.644 47.7584 241.718 47.1353 241.884 46.5386Z" fill="#057282"/>
<path fill-rule="evenodd" clip-rule="evenodd" d="M289.415 46.6484C291.115 46.5209 292.836 46.5023 294.574 46.5935C294.853 46.6144 295.109 46.6693 295.343 46.7583C293.369 46.6627 291.393 46.6264 289.415 46.6484Z" fill="#057282"/>
<path fill-rule="evenodd" clip-rule="evenodd" d="M313.455 47.0879C313.465 47.3791 313.391 47.6362 313.235 47.8571C313.226 47.5659 313.299 47.3088 313.455 47.0879Z" fill="#057282"/>
<path fill-rule="evenodd" clip-rule="evenodd" d="M166.58 47.1978C162.512 47.3813 158.414 47.4912 154.285 47.5274C158.353 47.3439 162.451 47.234 166.58 47.1978Z" fill="#057282"/>
<path fill-rule="evenodd" clip-rule="evenodd" d="M144.515 47.7471C144.525 48.0383 144.452 48.2954 144.296 48.5163C144.286 48.2251 144.359 47.9679 144.515 47.7471Z" fill="#057282"/>
<path fill-rule="evenodd" clip-rule="evenodd" d="M339.471 47.7471C339.636 48.1559 339.708 48.5954 339.691 49.0658C339.7 49.6053 339.626 50.1185 339.471 50.6042C339.607 49.6515 339.607 48.6987 339.471 47.7471Z" fill="#057282"/>
<path fill-rule="evenodd" clip-rule="evenodd" d="M297.099 47.8569C297.178 48.0459 297.252 48.247 297.319 48.4613C297.249 48.8317 297.14 49.1789 296.989 49.5053C297.072 48.9602 297.109 48.4108 297.099 47.8569Z" fill="#057282"/>
<path fill-rule="evenodd" clip-rule="evenodd" d="M183.375 47.9668C183.385 48.258 183.311 48.5151 183.155 48.736C183.145 48.4448 183.219 48.1877 183.375 47.9668Z" fill="#057282"/>
<path fill-rule="evenodd" clip-rule="evenodd" d="M207.964 47.9668C207.974 48.258 207.9 48.5151 207.744 48.736C207.734 48.4448 207.808 48.1877 207.964 47.9668Z" fill="#057282"/>
<path fill-rule="evenodd" clip-rule="evenodd" d="M222.125 48.7365C220.575 48.6299 219 48.6299 217.404 48.7365C217.985 48.5903 218.607 48.5167 219.27 48.5167C220.245 48.4991 221.197 48.5727 222.125 48.7365Z" fill="#057282"/>
<path fill-rule="evenodd" clip-rule="evenodd" d="M322.786 48.6263C323.37 48.5527 323.974 48.5164 324.597 48.5164C325.591 48.5021 326.56 48.5747 327.506 48.7362C325.964 48.6714 324.391 48.6351 322.786 48.6263Z" fill="#057282"/>
<path fill-rule="evenodd" clip-rule="evenodd" d="M279.096 48.6265C279.106 48.9177 279.033 49.1748 278.877 49.3957C278.867 49.1045 278.941 48.8473 279.096 48.6265Z" fill="#057282"/>
<path fill-rule="evenodd" clip-rule="evenodd" d="M306.1 49.0659C306.123 49.3956 306.05 49.6879 305.881 49.945C305.889 49.6231 305.961 49.3308 306.1 49.0659Z" fill="#057282"/>
<path fill-rule="evenodd" clip-rule="evenodd" d="M111.254 49.2856C111.264 49.5769 111.191 49.834 111.035 50.0549C111.025 49.7637 111.098 49.5065 111.254 49.2856Z" fill="#057282"/>
<path fill-rule="evenodd" clip-rule="evenodd" d="M128.928 49.5054C128.221 49.6746 127.49 49.7482 126.732 49.7252C127.442 49.5933 128.175 49.5208 128.928 49.5054Z" fill="#057282"/>
<path fill-rule="evenodd" clip-rule="evenodd" d="M153.736 49.5054C153.726 49.757 153.653 49.9768 153.517 50.1647C153.49 49.901 153.564 49.6812 153.736 49.5054Z" fill="#057282"/>
<path fill-rule="evenodd" clip-rule="evenodd" d="M389.527 49.835C386.43 49.8251 383.32 49.8614 380.197 49.9449C381.714 49.7987 383.268 49.7251 384.862 49.7251C386.436 49.7251 387.991 49.7614 389.527 49.835Z" fill="#057282"/>
<path fill-rule="evenodd" clip-rule="evenodd" d="M329.701 49.835C329.884 50.0481 329.957 50.3042 329.921 50.6042C329.799 50.3734 329.726 50.1174 329.701 49.835Z" fill="#057282"/>
<path fill-rule="evenodd" clip-rule="evenodd" d="M182.716 50.2749C182.726 50.5661 182.653 50.8233 182.497 51.0441C182.487 50.7529 182.56 50.4958 182.716 50.2749Z" fill="#057282"/>
<path fill-rule="evenodd" clip-rule="evenodd" d="M207.305 50.2749C207.315 50.5661 207.241 50.8233 207.086 51.0441C207.076 50.7529 207.149 50.4958 207.305 50.2749Z" fill="#057282"/>
<path fill-rule="evenodd" clip-rule="evenodd" d="M372.842 50.7144C372.981 51.6089 373.054 52.5242 373.061 53.4616C372.943 52.6122 372.833 51.7517 372.732 50.8792C372.794 50.8374 372.83 50.7825 372.842 50.7144Z" fill="#057282"/>
<path fill-rule="evenodd" clip-rule="evenodd" d="M329.921 51.2637C329.933 51.3318 329.969 51.3867 330.031 51.4285C329.962 51.7988 329.852 52.1461 329.701 52.4725C329.735 52.0483 329.809 51.645 329.921 51.2637Z" fill="#057282"/>
<path fill-rule="evenodd" clip-rule="evenodd" d="M120.365 51.3735C120.375 51.6647 120.302 51.9219 120.146 52.1428C120.136 51.8516 120.21 51.5944 120.365 51.3735Z" fill="#057282"/>
<path fill-rule="evenodd" clip-rule="evenodd" d="M287.988 51.7031C289.741 51.9218 291.533 51.9943 293.367 51.9229C291.557 52.0328 289.727 52.0691 287.878 52.0328C287.852 51.891 287.889 51.7811 287.988 51.7031Z" fill="#057282"/>
<path fill-rule="evenodd" clip-rule="evenodd" d="M153.078 51.813C158.054 51.8866 163.031 51.9591 168.007 52.0328C162.993 52.069 157.98 52.0328 152.968 51.9229C152.981 51.8558 153.018 51.8196 153.078 51.813Z" fill="#057282"/>
<path fill-rule="evenodd" clip-rule="evenodd" d="M143.308 52.0332C143.318 52.3244 143.244 52.5816 143.088 52.8024C143.078 52.5112 143.152 52.2541 143.308 52.0332Z" fill="#057282"/>
<path fill-rule="evenodd" clip-rule="evenodd" d="M216.416 52.2529C216.426 52.5441 216.353 52.8013 216.197 53.0222C216.187 52.731 216.26 52.4738 216.416 52.2529Z" fill="#057282"/>
<path fill-rule="evenodd" clip-rule="evenodd" d="M257.142 52.2529C256.78 52.4079 256.395 52.5178 255.989 52.5826C255.864 52.5694 255.736 52.5331 255.605 52.4727C256.098 52.3716 256.61 52.298 257.142 52.2529Z" fill="#057282"/>
<path fill-rule="evenodd" clip-rule="evenodd" d="M254.507 52.3625C254.86 52.3284 255.189 52.3647 255.495 52.4723C255.416 52.5031 255.325 52.5405 255.221 52.5822C254.971 52.5141 254.733 52.4416 254.507 52.3625Z" fill="#057282"/>
<path fill-rule="evenodd" clip-rule="evenodd" d="M395.345 52.5825C395.029 52.7814 394.7 52.8539 394.357 52.8023C394.661 52.6748 394.991 52.6023 395.345 52.5825Z" fill="#057282"/>
<path fill-rule="evenodd" clip-rule="evenodd" d="M321.578 52.6924C321.588 52.9836 321.515 53.2407 321.359 53.4616C321.349 53.1704 321.422 52.9133 321.578 52.6924Z" fill="#057282"/>
<path fill-rule="evenodd" clip-rule="evenodd" d="M392.162 52.8022C392.821 52.8022 393.479 52.8022 394.138 52.8022C393.468 53.044 392.81 53.044 392.162 52.8022Z" fill="#057282"/>
<path fill-rule="evenodd" clip-rule="evenodd" d="M311.809 52.9121C311.818 53.2033 311.745 53.4605 311.589 53.6813C311.579 53.3901 311.653 53.133 311.809 52.9121Z" fill="#057282"/>
<path fill-rule="evenodd" clip-rule="evenodd" d="M119.707 53.6812C119.717 53.9724 119.643 54.2295 119.487 54.4504C119.477 54.1592 119.551 53.902 119.707 53.6812Z" fill="#057282"/>
<path fill-rule="evenodd" clip-rule="evenodd" d="M142.649 54.3408C142.659 54.632 142.586 54.8892 142.43 55.1101C142.42 54.8188 142.494 54.5617 142.649 54.3408Z" fill="#057282"/>
<path fill-rule="evenodd" clip-rule="evenodd" d="M223.881 54.4507C223.873 54.7727 223.801 55.065 223.661 55.3298C223.638 55.0001 223.712 54.7078 223.881 54.4507Z" fill="#057282"/>
<path fill-rule="evenodd" clip-rule="evenodd" d="M109.608 55C109.618 55.2912 109.544 55.5484 109.388 55.7692C109.378 55.478 109.452 55.2209 109.608 55Z" fill="#057282"/>
<path fill-rule="evenodd" clip-rule="evenodd" d="M354.071 55.1098C357.309 54.9999 360.565 54.9636 363.841 54.9999C363.841 56.2823 363.841 57.5636 363.841 58.8461C367.024 58.8461 370.208 58.8461 373.391 58.8461C373.391 58.6625 373.391 58.4801 373.391 58.2966C373.496 58.49 373.533 58.7098 373.501 58.956C370.244 58.956 366.988 58.956 363.731 58.956C363.731 57.6735 363.731 56.3922 363.731 55.1098C360.511 55.1098 357.291 55.1098 354.071 55.1098Z" fill="#057282"/>
<path fill-rule="evenodd" clip-rule="evenodd" d="M373.171 55.1099C373.316 56.0406 373.389 56.9934 373.391 57.967C373.284 57.1165 373.175 56.256 373.062 55.3846C373.144 55.311 373.181 55.2198 373.171 55.1099Z" fill="#057282"/>
<path fill-rule="evenodd" clip-rule="evenodd" d="M404.017 55.1099C403.899 55.3395 403.715 55.4857 403.469 55.5494C403.587 55.3198 403.77 55.1736 404.017 55.1099Z" fill="#057282"/>
<path fill-rule="evenodd" clip-rule="evenodd" d="M277.23 55.2197C277.24 55.5109 277.167 55.7681 277.011 55.989C277.001 55.6977 277.074 55.4406 277.23 55.2197Z" fill="#057282"/>
<path fill-rule="evenodd" clip-rule="evenodd" d="M311.15 55.2197C311.16 55.5109 311.086 55.7681 310.93 55.989C310.92 55.6977 310.994 55.4406 311.15 55.2197Z" fill="#057282"/>
<path fill-rule="evenodd" clip-rule="evenodd" d="M232.663 56.3188C232.573 56.8002 232.573 57.2771 232.663 57.7474C232.495 57.6386 232.422 57.4738 232.443 57.2529C232.47 56.9166 232.543 56.6046 232.663 56.3188Z" fill="#057282"/>
<path fill-rule="evenodd" clip-rule="evenodd" d="M141.991 56.6484C142.001 56.9396 141.927 57.1968 141.771 57.4177C141.761 57.1265 141.835 56.8693 141.991 56.6484Z" fill="#057282"/>
<path fill-rule="evenodd" clip-rule="evenodd" d="M328.604 56.978C328.546 57.5989 328.508 58.222 328.494 58.8462C331.751 58.8462 335.007 58.8462 338.264 58.8462C334.989 58.956 331.696 58.9923 328.384 58.956C328.349 58.2692 328.423 57.6099 328.604 56.978Z" fill="#057282"/>
<path fill-rule="evenodd" clip-rule="evenodd" d="M118.719 57.1978C118.729 57.489 118.655 57.7461 118.499 57.967C118.49 57.6758 118.563 57.4186 118.719 57.1978Z" fill="#057282"/>
<path fill-rule="evenodd" clip-rule="evenodd" d="M276.571 57.5273C276.581 57.8186 276.508 58.0757 276.352 58.2966C276.342 58.0054 276.416 57.7482 276.571 57.5273Z" fill="#057282"/>
<path fill-rule="evenodd" clip-rule="evenodd" d="M223.113 58.4067C223.094 58.5518 223.13 58.6804 223.222 58.7914C226.487 58.8815 229.744 58.8639 232.992 58.7364C229.701 58.9551 226.372 59.0287 223.003 58.9562C222.972 58.7463 223.008 58.5628 223.113 58.4067Z" fill="#057282"/>
<path fill-rule="evenodd" clip-rule="evenodd" d="M108.62 58.5166C108.62 58.6265 108.62 58.7364 108.62 58.8463C111.848 58.8814 115.068 58.8452 118.28 58.7364C116.672 58.8825 115.025 58.9562 113.34 58.9562C111.694 58.9375 110.047 58.9199 108.4 58.9012C108.464 58.7584 108.538 58.6298 108.62 58.5166Z" fill="#057282"/>
<path fill-rule="evenodd" clip-rule="evenodd" d="M141.442 58.6265C145.502 58.7726 149.601 58.8462 153.736 58.8462C157.894 58.8451 162.03 58.7726 166.14 58.6265C166.14 58.7364 166.14 58.8462 166.14 58.9561C157.871 58.9561 149.601 58.9561 141.332 58.9561C141.306 58.8144 141.343 58.7045 141.442 58.6265Z" fill="#057282"/>
<path fill-rule="evenodd" clip-rule="evenodd" d="M214.66 58.6265C214.66 58.7364 214.66 58.8462 214.66 58.9561C211.366 58.9924 208.073 58.9561 204.781 58.8462C204.794 58.7792 204.831 58.7429 204.89 58.7364C206.482 58.81 208.091 58.8462 209.72 58.8462C211.391 58.844 213.038 58.7715 214.66 58.6265Z" fill="#057282"/>
<path fill-rule="evenodd" clip-rule="evenodd" d="M180.301 58.7363C183.502 58.8462 186.723 58.8825 189.961 58.8462C186.723 58.9924 183.466 58.9924 180.191 58.8462C180.205 58.7792 180.242 58.7429 180.301 58.7363Z" fill="#057282"/>
<path fill-rule="evenodd" clip-rule="evenodd" d="M276.242 58.7363C281.749 58.8462 287.274 58.8825 292.818 58.8462C287.274 58.9924 281.712 58.9924 276.133 58.8462C276.146 58.7792 276.183 58.7429 276.242 58.7363Z" fill="#057282"/>
<path fill-rule="evenodd" clip-rule="evenodd" d="M310.162 58.7363C313.363 58.8462 316.584 58.8825 319.822 58.8462C316.584 58.9924 313.327 58.9924 310.052 58.8462C310.065 58.7792 310.103 58.7429 310.162 58.7363Z" fill="#057282"/>
<path fill-rule="evenodd" clip-rule="evenodd" d="M342.435 58.7363C345.6 58.8462 348.783 58.8825 351.985 58.8462C348.783 58.9924 345.563 58.9924 342.325 58.8462C342.338 58.7792 342.376 58.7429 342.435 58.7363Z" fill="#057282"/>
<path fill-rule="evenodd" clip-rule="evenodd" d="M249.019 59.1758C249.34 59.1835 249.632 59.256 249.897 59.3956C249.568 59.4186 249.276 59.345 249.019 59.1758Z" fill="#057282"/>
<path fill-rule="evenodd" clip-rule="evenodd" d="M250.556 59.5054C251.454 59.5427 252.332 59.6164 253.19 59.7252C252.286 59.7669 251.407 59.6944 250.556 59.5054Z" fill="#057282"/>
<path fill-rule="evenodd" clip-rule="evenodd" d="M256.483 59.5054C255.594 59.6955 254.68 59.7691 253.739 59.7252C254.635 59.612 255.549 59.5383 256.483 59.5054Z" fill="#057282"/>
<path fill-rule="evenodd" clip-rule="evenodd" d="M387.771 59.5054C389.819 59.6482 391.869 59.6482 393.918 59.5054C392.88 59.6691 391.819 59.7427 390.735 59.7252C389.723 59.746 388.735 59.6735 387.771 59.5054Z" fill="#057282"/>
</g>
<defs>
<clipPath id="clip0_4623_19429">
<rect width="410" height="80" fill="white"/>
</clipPath>
</defs>
</svg>
