<svg width="106" height="80" viewBox="0 0 106 80" fill="none" xmlns="http://www.w3.org/2000/svg">
<g clip-path="url(#clip0_4623_25855)">
<path opacity="0.989" fill-rule="evenodd" clip-rule="evenodd" d="M0.0646973 0C35.3549 0 70.6452 0 105.935 0C105.935 26.6667 105.935 53.3333 105.935 80C70.6452 80 35.3549 80 0.0646973 80C0.0646973 53.3333 0.0646973 26.6667 0.0646973 0Z" fill="#FEFDFD"/>
<path fill-rule="evenodd" clip-rule="evenodd" d="M1.09872 1.41699C1.09872 1.45993 1.09872 1.50288 1.09872 1.54582C1.05567 21.4064 1.09872 41.2454 1.22799 61.0627C1.22023 61.1327 1.17718 61.1756 1.09872 61.1916C0.926404 41.2453 0.926404 21.3205 1.09872 1.41699Z" fill="#F46B79"/>
<path fill-rule="evenodd" clip-rule="evenodd" d="M1.09888 1.54582C1.09888 1.50288 1.09888 1.45993 1.09888 1.41699C35.5705 1.41699 70.0419 1.41699 104.514 1.41699C104.514 1.45993 104.514 1.50288 104.514 1.54582C70.0419 1.54582 35.5705 1.54582 1.09888 1.54582Z" fill="#ED172C"/>
<path fill-rule="evenodd" clip-rule="evenodd" d="M1.09866 1.5459C35.5702 1.5459 70.0417 1.5459 104.513 1.5459C104.6 21.5142 104.513 41.439 104.255 61.3205C102.114 60.5328 99.9593 59.7814 97.7913 59.066C97.1157 58.7397 96.4908 58.3319 95.917 57.8422C95.6139 57.0524 95.5277 56.2365 95.6584 55.3945C97.0717 50.6654 98.429 45.8989 99.7304 41.095C99.5767 40.9753 99.4044 40.9324 99.2133 40.9662C98.4077 41.0141 97.6321 41.1429 96.8865 41.3527C96.3319 41.3138 95.8148 41.3996 95.3352 41.6103C93.2823 41.8868 91.2571 42.2303 89.2596 42.6409C88.65 42.6855 88.0467 42.7714 87.4499 42.8986C86.6696 42.9166 85.894 42.8737 85.123 42.7697C84.6851 42.6256 84.3189 42.3679 84.0243 41.9968C83.1372 39.6983 82.2324 37.4224 81.3096 35.1691C77.7117 39.27 74.1137 43.371 70.5157 47.4718C70.171 47.6866 69.8263 47.9012 69.4816 48.116C68.4673 48.3187 67.8642 47.9107 67.6718 46.8921C67.5216 46.2522 67.5 45.6081 67.6072 44.9598C69.2291 36.623 70.7589 28.2924 72.1962 19.9678C69.9367 21.2477 67.653 22.5144 65.345 23.7681C64.2785 24.2374 63.2444 24.1945 62.2426 23.6393C61.4715 23.0005 60.8467 22.249 60.3682 21.3849C57.9236 16.4696 55.4459 11.5742 52.9352 6.69888C50.7452 11.2785 48.526 15.8302 46.2779 20.3543C45.6356 21.5276 44.8816 22.6226 44.0157 23.6393C43.3771 24.0392 42.6876 24.168 41.9474 24.0258C39.1558 22.5686 36.3765 21.0872 33.6096 19.5813C33.5234 19.839 33.5234 20.0966 33.6096 20.3543C35.2237 28.5814 36.7749 36.8262 38.2633 45.0886C38.5183 46.1699 38.2813 47.1147 37.5523 47.9227C37.1715 48.0715 36.7837 48.0929 36.3889 47.9871C35.9406 47.7333 35.5097 47.4543 35.0962 47.1498C31.6086 43.0942 28.0967 39.0578 24.5609 35.0403C23.5862 37.1098 22.7245 39.2141 21.9755 41.3527C21.6318 42.1246 21.0501 42.6184 20.2304 42.8341C19.4978 42.9201 18.7654 42.9201 18.0328 42.8341C15.9672 42.4267 13.8989 42.0617 11.8279 41.7391C11.5257 41.5407 11.1809 41.455 10.7938 41.4815C9.35968 41.3404 7.93773 41.1257 6.52793 40.8374C6.48488 40.9018 6.44171 40.9662 6.39866 41.0306C6.75363 42.1152 7.05534 43.2102 7.30354 44.3156C7.26101 44.6671 7.3471 44.9677 7.56207 45.2174C8.27615 47.7824 8.96554 50.3589 9.63037 52.9469C9.60374 53.3327 9.68983 53.6763 9.8889 53.9775C10.353 55.2146 10.3746 56.4598 9.95354 57.7134C9.15272 58.4245 8.22638 58.9183 7.17427 59.1949C5.60094 59.6506 4.04973 60.1444 2.52061 60.6763C2.17779 60.6647 1.87621 60.7505 1.61573 60.934C1.52408 61.0504 1.39481 61.0933 1.22793 61.0628C1.09866 41.2455 1.05561 21.4065 1.09866 1.5459Z" fill="#EF293D"/>
<path fill-rule="evenodd" clip-rule="evenodd" d="M104.513 1.41699C104.643 21.4062 104.685 41.4169 104.643 61.4492C104.476 61.4797 104.347 61.4368 104.255 61.3204C104.513 41.4389 104.6 21.5141 104.513 1.54582C104.513 1.50288 104.513 1.45993 104.513 1.41699Z" fill="#F67D89"/>
<path fill-rule="evenodd" clip-rule="evenodd" d="M99.2133 40.9663C98.9146 41.1683 98.5698 41.2757 98.1792 41.2884C97.7504 41.3525 97.3195 41.374 96.8865 41.3528C97.6321 41.1431 98.4077 41.0142 99.2133 40.9663Z" fill="#F8C2C5"/>
<path fill-rule="evenodd" clip-rule="evenodd" d="M96.8867 41.3529C96.5631 41.4651 96.2184 41.5509 95.8525 41.6105C95.6802 41.6105 95.5078 41.6105 95.3354 41.6105C95.815 41.3997 96.3321 41.3139 96.8867 41.3529Z" fill="#F7828B"/>
<path fill-rule="evenodd" clip-rule="evenodd" d="M10.7939 41.4813C11.1811 41.4547 11.5259 41.5405 11.8281 41.7389C11.4409 41.7655 11.0962 41.6797 10.7939 41.4813Z" fill="#F67882"/>
<path fill-rule="evenodd" clip-rule="evenodd" d="M95.3354 41.6104C95.5077 41.6104 95.6801 41.6104 95.8524 41.6104C93.69 42.0767 91.4925 42.4203 89.2598 42.6409C91.2572 42.2304 93.2825 41.8868 95.3354 41.6104Z" fill="#F7CFD2"/>
<path fill-rule="evenodd" clip-rule="evenodd" d="M85.123 42.7695C85.894 42.8735 86.6696 42.9164 87.4499 42.8984C86.7841 43.0466 86.0946 43.068 85.3816 42.9628C85.2632 42.927 85.1771 42.8625 85.123 42.7695Z" fill="#F67E88"/>
<path fill-rule="evenodd" clip-rule="evenodd" d="M7.30376 44.3154C7.4475 44.5858 7.53373 44.8865 7.5623 45.2172C7.34732 44.9675 7.26123 44.6669 7.30376 44.3154Z" fill="#F7868F"/>
<path fill-rule="evenodd" clip-rule="evenodd" d="M9.63045 52.9468C9.79436 53.2566 9.88058 53.6002 9.88899 53.9774C9.68991 53.6762 9.60382 53.3326 9.63045 52.9468Z" fill="#F7757D"/>
<path fill-rule="evenodd" clip-rule="evenodd" d="M2.52084 60.6763C2.26037 60.8598 1.95879 60.9456 1.61597 60.934C1.87644 60.7505 2.17803 60.6647 2.52084 60.6763Z" fill="#F67681"/>
<path fill-rule="evenodd" clip-rule="evenodd" d="M47.5062 72.9149C46.9029 72.9149 46.2997 72.9149 45.6965 72.9149C45.6965 73.1296 45.6965 73.3443 45.6965 73.559C45.4325 76.6562 43.752 78.3309 40.655 78.5832C39.2727 78.5757 38.1309 78.0604 37.2294 77.0373C36.8086 76.4133 36.4208 75.7691 36.066 75.1049C35.9164 74.3794 35.8086 73.6495 35.7428 72.9149C35.7204 71.7948 35.7635 70.6782 35.8721 69.5655C36.2269 67.1179 37.6058 65.5935 40.0086 64.9922C42.7042 64.7157 44.4924 65.8536 45.3733 68.406C45.6182 69.0276 45.7259 69.6717 45.6965 70.3384C46.2997 70.3384 46.9029 70.3384 47.5062 70.3384C47.5062 71.1973 47.5062 72.056 47.5062 72.9149Z" fill="#242021"/>
<path fill-rule="evenodd" clip-rule="evenodd" d="M55.65 65.1854C55.7312 66.1404 55.645 67.0422 55.3915 67.8907C55.3053 67.8907 55.2192 67.8907 55.133 67.8907C54.8294 67.7037 54.4848 67.6179 54.0988 67.6331C53.8572 67.634 53.6417 67.6769 53.4525 67.7619C52.5709 68.1051 52.0322 68.7492 51.8366 69.6943C51.7221 70.9046 51.7651 72.1069 51.9659 73.3014C52.5354 74.9488 53.6773 75.5715 55.3915 75.1693C56.2032 71.8696 57.0218 68.5846 57.8476 65.3142C59.2167 65.2363 60.5525 65.3222 61.8549 65.5719C62.9193 69.7985 63.9535 74.0497 64.9573 78.3255C63.7939 78.3255 62.6305 78.3255 61.4671 78.3255C61.3734 77.5853 61.2441 76.8554 61.0793 76.1355C60.2175 76.1355 59.3558 76.1355 58.4939 76.1355C58.3741 76.8613 58.288 77.5913 58.2354 78.3255C56.5544 78.347 54.8739 78.3255 53.1939 78.2611C50.7721 77.8866 49.2209 76.5339 48.5403 74.2031C48.5319 73.8259 48.4457 73.4824 48.2817 73.1725C48.2817 72.099 48.2817 71.0254 48.2817 69.9519C48.4909 69.6078 48.5771 69.2214 48.5403 68.7925C49.0947 66.7157 50.4304 65.449 52.5476 64.9922C53.5944 64.8856 54.6286 64.9501 55.65 65.1854Z" fill="#242021"/>
<path fill-rule="evenodd" clip-rule="evenodd" d="M1.09869 65.0562C1.09869 69.4362 1.09869 73.8162 1.09869 78.1962C2.21906 78.1962 3.33929 78.1962 4.45966 78.1962C4.41726 76.7132 4.46031 75.2531 4.58893 73.8162C4.58893 75.2762 4.58893 76.7363 4.58893 78.1962C3.40587 78.3243 2.19941 78.3672 0.969419 78.3251C0.926502 73.8801 0.969677 69.4572 1.09869 65.0562Z" fill="#706E6E"/>
<path fill-rule="evenodd" clip-rule="evenodd" d="M1.09888 65.0565C3.08741 65.0026 5.06948 65.067 7.04522 65.2497C9.46926 66.1499 10.4818 67.8891 10.083 70.4671C9.81221 72.1751 8.84269 73.2487 7.17449 73.6877C6.31653 73.7877 5.4547 73.8306 4.58912 73.8165C4.4605 75.2534 4.41745 76.7135 4.45985 78.1966C3.33948 78.1966 2.21925 78.1966 1.09888 78.1966C1.09888 73.8165 1.09888 69.4365 1.09888 65.0565Z" fill="#231F20"/>
<path fill-rule="evenodd" clip-rule="evenodd" d="M57.8477 65.314C59.1601 65.1859 60.4958 65.1429 61.855 65.1851C61.855 65.314 61.855 65.4428 61.855 65.5716C60.5526 65.322 59.2167 65.236 57.8477 65.314Z" fill="#524F50"/>
<path fill-rule="evenodd" clip-rule="evenodd" d="M102.186 67.2465C101.957 66.6317 101.784 65.9876 101.669 65.3141C100.323 65.2744 98.9872 65.3173 97.6621 65.4429C98.9911 65.1884 100.37 65.1024 101.799 65.1853C101.969 65.8646 102.098 66.5517 102.186 67.2465Z" fill="#5E5B5C"/>
<path fill-rule="evenodd" clip-rule="evenodd" d="M25.5305 68.0192C25.5725 67.0933 25.5293 66.1916 25.4012 65.3139C20.489 65.3139 15.5768 65.3139 10.6646 65.3139C10.6646 69.608 10.6646 73.9022 10.6646 78.1963C10.5356 73.8812 10.4924 69.5441 10.5353 65.1851C15.5768 65.1851 20.6183 65.1851 25.6597 65.1851C25.7017 66.1537 25.6587 67.0984 25.5305 68.0192Z" fill="#696767"/>
<path fill-rule="evenodd" clip-rule="evenodd" d="M25.4011 65.314C20.5662 65.4003 15.7187 65.4861 10.8585 65.5716C10.7722 69.694 10.7722 73.8164 10.8585 77.9388C13.0084 78.0637 15.1414 78.1066 17.2572 78.0676C15.0823 78.196 12.8847 78.2389 10.6646 78.1964C10.6646 73.9023 10.6646 69.6081 10.6646 65.314C15.5767 65.314 20.4889 65.314 25.4011 65.314Z" fill="#161313"/>
<path fill-rule="evenodd" clip-rule="evenodd" d="M25.4013 65.314C25.5294 66.1916 25.5726 67.0934 25.5306 68.0193C24.755 68.0193 23.9793 68.0193 23.2037 68.0193C23.2037 71.4116 23.2037 74.8041 23.2037 78.1964C22.0834 78.1964 20.9631 78.1964 19.8428 78.1964C19.8428 74.7611 19.8428 71.3258 19.8428 67.8905C17.924 67.8481 16.0281 67.891 14.155 68.0193C14.155 68.7063 14.155 69.3934 14.155 70.0805C15.1461 70.0805 16.137 70.0805 17.1281 70.0805C17.1281 71.0251 17.1281 71.9699 17.1281 72.9146C16.137 72.9146 15.1461 72.9146 14.155 72.9146C14.1132 73.712 14.1562 74.485 14.2842 75.2334C15.2514 75.3612 16.2424 75.4041 17.2574 75.3623C17.2574 76.264 17.2574 77.1658 17.2574 78.0676C15.1415 78.1066 13.0086 78.0637 10.8586 77.9388C10.7724 73.8164 10.7724 69.694 10.8586 65.5716C15.7188 65.4861 20.5664 65.4003 25.4013 65.314Z" fill="#231F20"/>
<path fill-rule="evenodd" clip-rule="evenodd" d="M35.6133 78.0676C34.4735 78.1955 33.31 78.2385 32.1231 78.1964C31.4182 76.4346 30.6856 74.6739 29.9255 72.9146C29.889 72.8129 29.8243 72.727 29.7316 72.6569C29.667 74.5029 29.6454 76.3494 29.667 78.1964C28.5036 78.1964 27.3402 78.1964 26.1768 78.1964C26.1768 73.8592 26.1768 69.5222 26.1768 65.1851C28.3875 65.1016 30.5851 65.2089 32.7694 65.5072C34.8252 66.2742 35.6654 67.7557 35.2902 69.9516C35.1179 70.381 34.9454 70.8105 34.7731 71.2399C34.2992 71.8006 33.7607 72.2515 33.1572 72.5925C34.0155 74.4096 34.8341 76.2346 35.6133 78.0676Z" fill="#231F20"/>
<path fill-rule="evenodd" clip-rule="evenodd" d="M55.6499 65.1851C55.7781 66.1059 55.8212 67.0506 55.7792 68.0192C55.6123 68.0497 55.483 68.0068 55.3914 67.8904C55.6449 67.0418 55.7311 66.14 55.6499 65.1851Z" fill="#8C8A8B"/>
<path fill-rule="evenodd" clip-rule="evenodd" d="M65.4744 65.314C65.3905 69.6797 65.4767 74.0168 65.733 78.3252C65.6037 78.3252 65.4744 78.3252 65.3452 78.3252C65.3022 73.9662 65.3454 69.6291 65.4744 65.314Z" fill="#716F6F"/>
<path fill-rule="evenodd" clip-rule="evenodd" d="M71.1622 71.1114C71.1484 71.3534 71.213 71.3963 71.3561 71.2402C71.4207 69.2653 71.4423 67.29 71.4207 65.3143C72.4979 65.3143 73.5752 65.3143 74.6524 65.3143C74.7363 69.68 74.6501 74.0171 74.3939 78.3255C73.2841 78.3664 72.1854 78.3233 71.0976 78.1967C70.4417 76.3859 69.7739 74.5824 69.0939 72.7861C69.031 72.6607 68.9663 72.5319 68.9 72.3996C68.8354 74.3745 68.8138 76.3497 68.8354 78.3255C67.8012 78.3255 66.7671 78.3255 65.7329 78.3255C65.4767 74.0171 65.3905 69.68 65.4744 65.3143C66.6174 65.1439 67.7808 65.1439 68.9646 65.3143C69.7234 67.2397 70.456 69.172 71.1622 71.1114Z" fill="#231F20"/>
<path fill-rule="evenodd" clip-rule="evenodd" d="M74.3939 78.3252C74.6501 74.0167 74.7364 69.6796 74.6525 65.3139C73.5753 65.3139 72.498 65.3139 71.4208 65.3139C71.4424 67.2897 71.4208 69.2649 71.3561 71.2398C71.213 71.3959 71.1484 71.353 71.1622 71.111C71.291 69.1583 71.3342 67.183 71.2915 65.1851C72.4549 65.1851 73.6183 65.1851 74.7817 65.1851C74.7817 69.5651 74.7817 73.9451 74.7817 78.3252C74.6525 78.3252 74.5232 78.3252 74.3939 78.3252Z" fill="#555253"/>
<path fill-rule="evenodd" clip-rule="evenodd" d="M84.2183 73.1725C84.1758 73.524 84.2619 73.8246 84.4769 74.0743C84.4769 74.1172 84.4769 74.1602 84.4769 74.2031C84.4502 74.5889 84.5363 74.9325 84.7354 75.2337C84.7376 75.4997 84.7807 75.7574 84.8647 76.0067C84.8932 76.3374 84.9795 76.638 85.1232 76.9084C85.2871 77.2183 85.3734 77.5618 85.3818 77.939C84.8718 78.1097 84.3117 78.1956 83.7013 78.1967C83.0657 78.1889 82.4625 78.103 81.8915 77.939C81.7496 77.3475 81.6634 76.7462 81.633 76.1355C80.7281 76.1355 79.8232 76.1355 78.9183 76.1355C78.8995 76.6532 78.8564 77.1685 78.7891 77.6814C78.6683 77.819 78.6252 77.9907 78.6598 78.1967C77.5394 78.1967 76.4192 78.1967 75.2988 78.1967C75.2988 78.025 75.2988 77.8531 75.2988 77.6814C76.219 73.5198 77.2101 69.3759 78.272 65.2498C79.6393 65.1443 80.9966 65.1658 82.3439 65.3142C82.8683 67.9621 83.493 70.5816 84.2183 73.1725Z" fill="#242021"/>
<path fill-rule="evenodd" clip-rule="evenodd" d="M102.187 67.2465C102.437 67.9 102.609 68.587 102.704 69.3077C102.821 70.2467 103.036 71.1484 103.35 72.013C103.946 73.9568 104.419 75.9322 104.772 77.9389C103.703 78.1927 102.583 78.2785 101.411 78.1965C101.442 78.0302 101.399 77.9014 101.282 77.8101C101.195 77.2948 101.109 76.7795 101.023 76.2642C100.645 76.0941 100.214 76.0083 99.7304 76.0065C99.2471 76.0083 98.8162 76.0941 98.4377 76.2642C98.3376 76.8199 98.2515 77.3781 98.1792 77.9389C97.0501 78.1873 95.8866 78.2732 94.689 78.1965C94.689 78.0677 94.689 77.9389 94.689 77.8101C94.873 77.5505 94.9591 77.2499 94.9475 76.9083C94.9475 76.8224 94.9475 76.7366 94.9475 76.6507C95.1702 76.3569 95.2563 76.0134 95.206 75.6201C95.7302 73.8856 96.1611 72.1249 96.4987 70.3383C96.6425 70.0679 96.7287 69.7672 96.7573 69.4365C96.9576 68.0797 97.2592 66.7486 97.6621 65.4429C98.9873 65.3173 100.323 65.2744 101.669 65.3141C101.784 65.9876 101.957 66.6317 102.187 67.2465Z" fill="#231F20"/>
<path fill-rule="evenodd" clip-rule="evenodd" d="M90.9403 65.4429C89.3029 65.4429 87.6656 65.4429 86.0281 65.4429C86.0281 69.737 86.0281 74.0313 86.0281 78.3254C85.8991 74.0103 85.8559 69.6732 85.8989 65.3141C87.6022 65.2717 89.2827 65.3148 90.9403 65.4429Z" fill="#838182"/>
<path fill-rule="evenodd" clip-rule="evenodd" d="M90.9403 65.4429C92.5045 65.7604 93.7326 66.5763 94.6244 67.8905C94.7904 68.2809 94.9413 68.6673 95.0769 69.05C95.1894 70.3776 95.2325 71.7089 95.2061 73.0435C94.9741 75.8733 93.4659 77.6124 90.6817 78.2609C89.1312 78.3253 87.5799 78.3468 86.0281 78.3253C86.0281 74.0312 86.0281 69.737 86.0281 65.4429C87.6655 65.4429 89.3028 65.4429 90.9403 65.4429Z" fill="#231F20"/>
<path fill-rule="evenodd" clip-rule="evenodd" d="M53.4524 67.7619C53.6416 67.6769 53.8571 67.634 54.0987 67.6331C54.4847 67.6179 54.8294 67.7037 55.1329 67.8907C54.5773 67.8005 54.0172 67.7576 53.4524 67.7619Z" fill="#6E6C6C"/>
<path fill-rule="evenodd" clip-rule="evenodd" d="M6.78667 69.0501C6.78564 69.4424 6.74259 69.8289 6.6574 70.2096C6.13387 70.8563 5.44448 71.1568 4.58911 71.1113C4.58911 69.9948 4.58911 68.8784 4.58911 67.7619C5.67303 67.6351 6.40559 68.0646 6.78667 69.0501Z" fill="#FAF9F9"/>
<path fill-rule="evenodd" clip-rule="evenodd" d="M29.9255 67.7617C29.843 68.972 29.9292 70.1314 30.184 71.24C30.0924 71.3564 29.9631 71.3993 29.7962 71.3688C29.754 70.143 29.797 68.9407 29.9255 67.7617Z" fill="#898788"/>
<path fill-rule="evenodd" clip-rule="evenodd" d="M29.9255 67.7617C31.8362 67.9194 32.3748 68.8642 31.5414 70.5959C31.1786 70.9956 30.7262 71.2103 30.184 71.24C29.9293 70.1314 29.843 68.972 29.9255 67.7617Z" fill="#F9F8F8"/>
<path fill-rule="evenodd" clip-rule="evenodd" d="M40.2671 67.8905C41.4783 67.873 42.1462 68.4742 42.2708 69.6941C42.357 70.8964 42.357 72.0988 42.2708 73.3011C42.1458 74.1062 41.8226 74.8147 41.3013 75.4267C40.7725 75.5848 40.32 75.4775 39.944 75.1047C39.5895 74.5078 39.374 73.8637 39.2976 73.1723C39.1922 71.9641 39.2352 70.7616 39.4269 69.5652C39.5718 68.933 39.8518 68.3748 40.2671 67.8905Z" fill="#F8F8F8"/>
<path fill-rule="evenodd" clip-rule="evenodd" d="M14.1548 68.0191C16.0279 67.8908 17.9239 67.8479 19.8426 67.8903C19.8426 71.3257 19.8426 74.7609 19.8426 78.1963C20.963 78.1963 22.0832 78.1963 23.2036 78.1963C22.0637 78.3242 20.9003 78.3672 19.7133 78.3251C19.7133 74.8897 19.7133 71.4545 19.7133 68.0191C17.8605 68.0191 16.0076 68.0191 14.1548 68.0191Z" fill="#868485"/>
<path fill-rule="evenodd" clip-rule="evenodd" d="M89.5182 68.2769C89.5182 70.5957 89.5182 72.9145 89.5182 75.2334C89.7337 75.2334 89.9491 75.2334 90.1646 75.2334C89.9364 75.3572 89.6779 75.4002 89.389 75.3622C89.3463 72.9779 89.3894 70.6162 89.5182 68.2769Z" fill="#524F50"/>
<path fill-rule="evenodd" clip-rule="evenodd" d="M89.5183 68.2771C90.6304 68.184 91.3198 68.6564 91.5866 69.6942C91.6885 70.7646 91.7315 71.8381 91.7159 72.9148C91.8035 73.8773 91.4589 74.6287 90.6817 75.1692C90.5146 75.2324 90.3421 75.2539 90.1647 75.2337C89.9492 75.2337 89.7338 75.2337 89.5183 75.2337C89.5183 72.9148 89.5183 70.596 89.5183 68.2771Z" fill="#F9F8F9"/>
<path fill-rule="evenodd" clip-rule="evenodd" d="M6.78649 69.0498C6.87078 69.1721 6.91395 69.3223 6.91576 69.5007C6.92959 69.7868 6.84337 70.0229 6.65723 70.2092C6.74241 69.8285 6.78546 69.4421 6.78649 69.0498Z" fill="#6B6969"/>
<path fill-rule="evenodd" clip-rule="evenodd" d="M60.6914 73.5588C60.1743 73.5588 59.6572 73.5588 59.1401 73.5588C59.1401 73.43 59.1401 73.3012 59.1401 73.1724C59.2975 71.8605 59.5344 70.5723 59.8511 69.3076C60.163 70.7247 60.4432 72.1418 60.6914 73.5588Z" fill="#F0EFEF"/>
<path fill-rule="evenodd" clip-rule="evenodd" d="M48.5401 68.7925C48.577 69.2213 48.4907 69.6078 48.2816 69.9519C48.2713 69.5292 48.3575 69.1428 48.5401 68.7925Z" fill="#7C7A7A"/>
<path fill-rule="evenodd" clip-rule="evenodd" d="M96.7574 69.4365C96.7288 69.7672 96.6426 70.0679 96.4988 70.3383C96.4563 69.9869 96.5424 69.6862 96.7574 69.4365Z" fill="#8F8E8E"/>
<path fill-rule="evenodd" clip-rule="evenodd" d="M102.704 69.3076C103.017 70.1722 103.233 71.0739 103.35 72.0129C103.036 71.1484 102.821 70.2466 102.704 69.3076Z" fill="#716F70"/>
<path fill-rule="evenodd" clip-rule="evenodd" d="M100.506 73.5587C100.032 73.5587 99.5583 73.5587 99.0842 73.5587C99.0842 73.387 99.0842 73.2152 99.0842 73.0434C99.225 71.7288 99.462 70.4405 99.7952 69.1787C100.116 70.6633 100.353 72.1233 100.506 73.5587Z" fill="#EDEBEB"/>
<path fill-rule="evenodd" clip-rule="evenodd" d="M81.1159 73.3011C80.6597 73.5488 80.1427 73.6346 79.5647 73.5587C79.5647 73.4299 79.5647 73.3011 79.5647 73.1723C79.7625 71.8157 80.0426 70.4846 80.4049 69.1787C80.6845 70.5515 80.9215 71.9256 81.1159 73.3011Z" fill="#EBE9E9"/>
<path fill-rule="evenodd" clip-rule="evenodd" d="M95.0769 69.0498C95.179 69.1927 95.2437 69.3644 95.2708 69.5651C95.3773 70.7472 95.3557 71.9066 95.2062 73.0434C95.2325 71.7087 95.1895 70.3775 95.0769 69.0498Z" fill="#5B5859"/>
<path fill-rule="evenodd" clip-rule="evenodd" d="M35.8719 69.5654C35.7633 70.6782 35.7203 71.7947 35.7427 72.9149C35.6567 72.466 35.6135 71.9936 35.6134 71.4978C35.5859 70.8193 35.6721 70.1752 35.8719 69.5654Z" fill="#7C7A7A"/>
<path fill-rule="evenodd" clip-rule="evenodd" d="M91.5867 69.6938C91.7804 70.3051 91.8667 70.9492 91.8452 71.6262C91.8449 72.0794 91.8019 72.5088 91.7159 72.9145C91.7316 71.8377 91.6885 70.7643 91.5867 69.6938Z" fill="#868485"/>
<path fill-rule="evenodd" clip-rule="evenodd" d="M69.0938 72.7859C69.0076 74.6323 68.9215 76.4789 68.8352 78.3253C68.8137 76.3496 68.8352 74.3743 68.8999 72.3994C68.9662 72.5317 69.0308 72.6605 69.0938 72.7859Z" fill="#B4B2B3"/>
<path fill-rule="evenodd" clip-rule="evenodd" d="M47.506 72.9146C46.9717 73.0414 46.4114 73.0843 45.8256 73.0434C45.8602 73.2494 45.817 73.4211 45.6963 73.5587C45.6963 73.3439 45.6963 73.1293 45.6963 72.9146C46.2996 72.9146 46.9028 72.9146 47.506 72.9146Z" fill="#8E8C8D"/>
<path fill-rule="evenodd" clip-rule="evenodd" d="M17.128 72.9146C16.204 73.0423 15.2561 73.0852 14.2841 73.0434C14.2841 73.7304 14.2841 74.4175 14.2841 75.1046C15.342 75.0626 16.3762 75.1056 17.3865 75.2334C16.3524 75.2334 15.3182 75.2334 14.2841 75.2334C14.1561 74.4849 14.1131 73.712 14.1548 72.9146C15.1459 72.9146 16.1369 72.9146 17.128 72.9146Z" fill="#D5D1D1"/>
<path fill-rule="evenodd" clip-rule="evenodd" d="M29.9255 72.9149C29.7968 74.6956 29.7537 76.4992 29.7963 78.3255C28.5663 78.3676 27.3598 78.3247 26.1768 78.1967C27.3402 78.1967 28.5036 78.1967 29.667 78.1967C29.6454 76.3497 29.667 74.5032 29.7316 72.6572C29.8243 72.7273 29.889 72.8132 29.9255 72.9149Z" fill="#5C595A"/>
<path fill-rule="evenodd" clip-rule="evenodd" d="M59.1403 73.1724C59.1403 73.3012 59.1403 73.43 59.1403 73.5588C59.6574 73.5588 60.1745 73.5588 60.6916 73.5588C60.1572 73.6857 59.5969 73.7286 59.0111 73.6877C58.9764 73.4817 59.0196 73.3099 59.1403 73.1724Z" fill="#8B898A"/>
<path fill-rule="evenodd" clip-rule="evenodd" d="M79.5647 73.1724C79.5647 73.3012 79.5647 73.43 79.5647 73.5588C80.1426 73.6347 80.6597 73.5489 81.1159 73.3012C81.2327 73.3925 81.2758 73.5213 81.2452 73.6877C80.6419 73.6877 80.0387 73.6877 79.4354 73.6877C79.4008 73.4817 79.4439 73.3099 79.5647 73.1724Z" fill="#7C7A7B"/>
<path fill-rule="evenodd" clip-rule="evenodd" d="M99.0841 73.0435C99.0841 73.2152 99.0841 73.387 99.0841 73.5588C99.5581 73.5588 100.032 73.5588 100.506 73.5588C100.015 73.6854 99.498 73.7284 98.9548 73.6876C98.9181 73.4409 98.9611 73.2263 99.0841 73.0435Z" fill="#939192"/>
<path fill-rule="evenodd" clip-rule="evenodd" d="M84.2183 73.1724C84.3621 73.4428 84.4483 73.7434 84.4768 74.0741C84.2619 73.8245 84.1758 73.5238 84.2183 73.1724Z" fill="#6E6C6D"/>
<path fill-rule="evenodd" clip-rule="evenodd" d="M7.17448 73.6875C7.03112 73.7893 6.8588 73.8537 6.6574 73.8807C6.01248 73.945 5.36614 73.9665 4.71838 73.9451C4.76078 75.3853 4.71773 76.8023 4.58911 78.1964C4.58911 76.7364 4.58911 75.2763 4.58911 73.8163C5.45469 73.8304 6.31652 73.7875 7.17448 73.6875Z" fill="#D1CCCD"/>
<path fill-rule="evenodd" clip-rule="evenodd" d="M48.2818 73.1724C48.4457 73.4822 48.532 73.8258 48.5404 74.203C48.3413 73.9018 48.2552 73.5582 48.2818 73.1724Z" fill="#9F9D9D"/>
<path fill-rule="evenodd" clip-rule="evenodd" d="M84.4769 74.2031C84.6408 74.5129 84.727 74.8565 84.7354 75.2337C84.5363 74.9325 84.4503 74.589 84.4769 74.2031Z" fill="#7E7C7D"/>
<path fill-rule="evenodd" clip-rule="evenodd" d="M101.023 76.264C100.161 76.0923 99.2996 76.0923 98.4377 76.264C98.8162 76.0939 99.2471 76.0082 99.7304 76.0063C100.214 76.0082 100.645 76.0939 101.023 76.264Z" fill="#716F6F"/>
<path fill-rule="evenodd" clip-rule="evenodd" d="M84.8647 76.0063C85.0797 76.256 85.1658 76.5567 85.1233 76.9081C84.9795 76.6377 84.8933 76.337 84.8647 76.0063Z" fill="#8F8E8E"/>
<path fill-rule="evenodd" clip-rule="evenodd" d="M95.206 75.6201C95.2563 76.0134 95.1702 76.357 94.9475 76.6507C94.9559 76.2735 95.0421 75.9299 95.206 75.6201Z" fill="#7E7C7C"/>
<path fill-rule="evenodd" clip-rule="evenodd" d="M94.9476 76.9082C94.9592 77.2498 94.8731 77.5504 94.689 77.81C94.6774 77.4683 94.7635 77.1678 94.9476 76.9082Z" fill="#666364"/>
<path fill-rule="evenodd" clip-rule="evenodd" d="M14.2841 75.2334C15.3182 75.2334 16.3524 75.2334 17.3865 75.2334C17.3865 76.264 17.3865 77.2946 17.3865 78.3252C15.1233 78.3677 12.8827 78.3248 10.6646 78.1964C12.8847 78.2389 15.0823 78.196 17.2572 78.0675C17.2572 77.1658 17.2572 76.264 17.2572 75.3622C16.2422 75.4041 15.2512 75.3612 14.2841 75.2334Z" fill="#7D7B7B"/>
<path fill-rule="evenodd" clip-rule="evenodd" d="M35.6133 78.0679C35.6835 78.0756 35.7265 78.1185 35.7426 78.1967C34.5155 78.367 33.3091 78.367 32.123 78.1967C33.31 78.2388 34.4734 78.1958 35.6133 78.0679Z" fill="#787676"/>
<path fill-rule="evenodd" clip-rule="evenodd" d="M75.2987 77.6812C75.2987 77.8529 75.2987 78.0247 75.2987 78.1965C76.419 78.1965 77.5393 78.1965 78.6597 78.1965C78.625 77.9905 78.6682 77.8187 78.7889 77.6812C78.7889 77.8959 78.7889 78.1105 78.7889 78.3253C77.5825 78.3253 76.3759 78.3253 75.1694 78.3253C75.1327 78.0786 75.1757 77.864 75.2987 77.6812Z" fill="#5E5B5C"/>
<path fill-rule="evenodd" clip-rule="evenodd" d="M81.8914 77.939C82.4623 78.103 83.0655 78.1889 83.7011 78.1966C84.3115 78.1956 84.8716 78.1097 85.3816 77.939C85.4985 78.0303 85.5415 78.1591 85.5109 78.3254C84.3044 78.3254 83.0978 78.3254 81.8914 78.3254C81.8914 78.1966 81.8914 78.0678 81.8914 77.939Z" fill="#555253"/>
<path fill-rule="evenodd" clip-rule="evenodd" d="M94.6889 77.8101C94.6889 77.9389 94.6889 78.0677 94.6889 78.1965C95.8866 78.2732 97.05 78.1873 98.1792 77.9389C98.1792 78.0677 98.1792 78.1965 98.1792 78.3254C96.9727 78.3254 95.7661 78.3254 94.5597 78.3254C94.525 78.1194 94.5682 77.9476 94.6889 77.8101Z" fill="#565354"/>
<path fill-rule="evenodd" clip-rule="evenodd" d="M101.282 77.8101C101.399 77.9014 101.442 78.0302 101.411 78.1965C102.583 78.2785 103.703 78.1927 104.772 77.9389C104.888 78.0302 104.932 78.159 104.901 78.3254C103.695 78.3254 102.488 78.3254 101.282 78.3254C101.282 78.1536 101.282 77.9818 101.282 77.8101Z" fill="#524F50"/>
</g>
<defs>
<clipPath id="clip0_4623_25855">
<rect width="106" height="80" fill="white"/>
</clipPath>
</defs>
</svg>
