<svg width="80" height="80" viewBox="0 0 80 80" fill="none" xmlns="http://www.w3.org/2000/svg">
<g clip-path="url(#clip0_4623_25209)">
<path opacity="0.97" fill-rule="evenodd" clip-rule="evenodd" d="M39.9348 0.0327148C41.7568 1.44736 43.7311 2.63278 45.8583 3.589C51.0053 5.65803 55.8873 5.15774 60.5044 2.08818C61.2901 1.56177 62.0387 0.985361 62.7501 0.358979C68.4907 6.1135 74.23 11.8666 79.9674 17.6184C78.3036 19.4604 76.839 21.4507 75.5736 23.589C74.6141 25.3222 74.0061 27.1711 73.7509 29.1355C73.6572 30.5392 73.7438 31.9312 74.0113 33.3117C74.8035 36.565 75.7799 39.7624 76.9405 42.9038C78.3934 47.6308 78.6323 52.4159 77.6566 57.2595C76.2857 62.7635 73.2152 67.0154 68.4458 70.0164C66.0217 71.3123 63.4395 72.0954 60.6997 72.3655C58.0074 72.6526 55.3164 72.9574 52.6281 73.279C50.2906 73.6255 48.0344 74.2565 45.8583 75.1714C43.5169 76.2911 41.5641 77.8898 39.9999 79.9675C38.0855 77.4409 35.6334 75.6464 32.6443 74.5841C31.2826 74.1123 29.8941 73.7423 28.4784 73.4748C24.9416 73.018 21.4048 72.5613 17.8681 72.1045C14.2 71.5166 11.0104 69.972 8.29935 67.4715C4.64051 64.0843 2.50329 59.8971 1.88764 54.9104C1.45639 50.8534 1.82528 46.873 2.99423 42.9691C4.17411 40.0298 5.17219 37.0282 5.98853 33.9642C6.87224 30.3772 6.39485 26.984 4.55647 23.7848C3.24653 21.5823 1.73851 19.5268 0.0324707 17.6184C5.77014 11.8666 11.5092 6.1135 17.2497 0.358979C24.2468 6.13895 31.418 6.3456 38.7631 0.978881C39.1661 0.672369 39.5566 0.356976 39.9348 0.0327148Z" fill="#FCFCFC"/>
<path fill-rule="evenodd" clip-rule="evenodd" d="M45.9886 5.05721C46.1194 5.15933 46.2711 5.22458 46.4443 5.25297C51.806 6.92064 56.8182 6.19202 61.4809 3.067C61.8591 2.78576 62.2281 2.49212 62.5875 2.18609C67.7299 7.36279 72.8722 12.5396 78.0146 17.7163C76.6496 19.3346 75.4239 21.053 74.3369 22.8712C73.6006 24.2164 73.0473 25.6302 72.677 27.1127C72.5943 27.2696 72.5513 27.4436 72.5468 27.6347C72.5468 27.6782 72.5468 27.7217 72.5468 27.7652C72.4225 28.2269 72.3574 28.7054 72.3515 29.2008C72.2897 30.7558 72.3873 32.3001 72.6444 33.8337C73.2446 36.6059 74.0583 39.3031 75.0854 41.9251C75.0796 42.0981 75.1232 42.2504 75.2156 42.3818C76.457 46.1886 76.9673 50.1037 76.7453 54.1274C76.0696 60.3015 73.173 65.1192 68.0553 68.5809C65.9938 69.7698 63.7806 70.5313 61.4158 70.8647C58.9767 71.1636 56.5461 71.4572 54.1253 71.7456C53.2387 71.8102 52.371 71.9407 51.5216 72.1371C48.7531 72.5802 46.1279 73.4611 43.6452 74.7799C42.2991 75.5975 41.0838 76.5874 40 77.7489C38.1312 75.7456 35.8958 74.299 33.2954 73.4096C32.3678 73.1179 31.4343 72.8458 30.4963 72.5939C30.3701 72.4856 30.2184 72.4419 30.0407 72.4634C30.0192 72.4634 29.9971 72.4634 29.9756 72.4634C29.7985 72.3714 29.6033 72.3277 29.3897 72.3329C28.1705 72.0739 26.9338 71.867 25.6794 71.713C23.3959 71.4696 21.1176 71.1864 18.8446 70.8647C15.6554 70.4184 12.7913 69.2216 10.2522 67.2758C8.66643 65.9694 7.28859 64.4791 6.11879 62.806C3.95996 59.1522 2.98356 55.1936 3.18958 50.93C3.31417 48.5 3.68306 46.1073 4.29617 43.7522C4.94464 41.9288 5.59557 40.1017 6.24898 38.2709C6.52179 37.3497 6.79297 36.4361 7.06265 35.5303C7.16693 35.2863 7.23202 35.0253 7.25793 34.7473C7.30604 34.2602 7.3928 33.7817 7.5183 33.3117C7.63079 32.8483 7.69588 32.3698 7.71359 31.8761C7.71359 31.7892 7.71359 31.7021 7.71359 31.6151C7.75694 31.148 7.77868 30.6695 7.77868 30.1796C7.79261 29.5129 7.74919 28.8603 7.64849 28.222C7.60638 27.6845 7.49787 27.1625 7.32302 26.6559C7.32888 26.4829 7.28553 26.3306 7.19284 26.1991C6.37748 23.8027 5.17324 21.6277 3.58014 19.6739C3.06083 19.0119 2.52927 18.3593 1.98535 17.7163C7.12774 12.5396 12.2701 7.36279 17.4125 2.18609C21.2008 5.28527 25.5404 6.5577 30.4312 6.00338C31.8067 5.81643 33.1307 5.45754 34.402 4.92671C34.5875 4.92331 34.7391 4.85806 34.8576 4.73095C36.7056 3.92475 38.4195 2.90243 40 1.66406C41.8207 3.09891 43.8171 4.23 45.9886 5.05721Z" fill="#231F20"/>
<path fill-rule="evenodd" clip-rule="evenodd" d="M34.8575 4.73096C34.739 4.85807 34.5874 4.92332 34.4019 4.92672C34.5327 4.82459 34.6844 4.75934 34.8575 4.73096Z" fill="#787676"/>
<path fill-rule="evenodd" clip-rule="evenodd" d="M45.0121 7.47162C45.2087 7.5956 45.4255 7.68258 45.6631 7.73263C45.6845 7.73263 45.7067 7.73263 45.7281 7.73263C45.859 7.82555 46.0113 7.86901 46.1838 7.86314C49.0063 8.78751 51.8919 9.01589 54.8412 8.54829C56.727 8.21544 58.5275 7.62816 60.244 6.78646C60.8735 6.4495 61.4808 6.07971 62.0666 5.67717C62.1669 5.59971 62.2756 5.57798 62.3921 5.61191C66.4741 9.68193 70.5314 13.7711 74.5646 17.8794C73.8577 18.8509 73.1742 19.8406 72.5142 20.8485C71.1042 23.1645 70.2469 25.6658 69.943 28.3525C69.8896 28.5136 69.857 28.6876 69.8453 28.8746C69.8128 29.8531 69.8017 30.8319 69.8128 31.8109C69.8271 32.3484 69.8922 32.8704 70.008 33.377C70.1897 34.5145 70.4175 35.6455 70.6915 36.7702C71.2312 38.5773 71.8274 40.3609 72.4816 42.1209C72.4836 42.3438 72.5487 42.5395 72.6769 42.7082C73.5127 45.2982 74.0445 47.9518 74.2717 50.669C74.7332 58.0657 71.7063 63.471 65.1911 66.8843C63.8945 67.4599 62.549 67.8945 61.1553 68.1894C57.5218 68.8126 53.8766 69.3561 50.2196 69.8207C47.4889 70.2977 44.9073 71.1897 42.4735 72.4961C41.6572 73.0031 40.8325 73.4925 39.9999 73.9643C39.1238 73.4703 38.2561 72.9594 37.3962 72.4308C34.9845 71.1356 32.4243 70.2762 29.7151 69.8533C29.5628 69.7529 29.3897 69.7091 29.1944 69.7228C25.8018 69.2883 22.4169 68.7989 19.0398 68.2547C18.3974 68.1111 17.7682 67.948 17.1521 67.7653C16.8266 67.606 16.4794 67.4971 16.1106 67.439C12.7543 66.1966 10.0963 64.0648 8.13661 61.0442C6.42159 58.2793 5.60792 55.2559 5.6956 51.9741C5.74598 49.1045 6.19077 46.2986 7.03002 43.5564C7.63292 41.7435 8.26211 39.9381 8.91773 38.1405C9.72613 35.642 10.171 33.0862 10.2522 30.4733C10.2589 29.8263 10.2155 29.1847 10.122 28.5483C10.1256 28.207 10.0822 27.8807 9.99178 27.5695C9.30244 23.9602 7.77274 20.7628 5.40268 17.9773C5.35926 17.9121 5.35926 17.8468 5.40268 17.7816C9.48743 13.7521 13.5558 9.69557 17.6077 5.61191C17.6728 5.56839 17.7379 5.56839 17.803 5.61191C20.1697 7.21694 22.7735 8.20663 25.6142 8.58092C25.9686 8.67123 26.3375 8.71469 26.7208 8.71142C30.133 8.90816 33.3877 8.28826 36.4849 6.85172C37.7112 6.29185 38.8829 5.65022 39.9999 4.92676C41.5739 5.96571 43.2442 6.814 45.0121 7.47162Z" fill="#FEFDFD"/>
<path fill-rule="evenodd" clip-rule="evenodd" d="M45.9885 5.05713C46.174 5.06052 46.3257 5.12577 46.4442 5.25289C46.271 5.2245 46.1194 5.15925 45.9885 5.05713Z" fill="#878585"/>
<path fill-rule="evenodd" clip-rule="evenodd" d="M45.0122 7.47168C45.2615 7.49661 45.4783 7.58359 45.6631 7.73269C45.4256 7.68264 45.2088 7.59566 45.0122 7.47168Z" fill="#8A8889"/>
<path fill-rule="evenodd" clip-rule="evenodd" d="M45.7283 7.73246C45.9008 7.72659 46.0531 7.77004 46.1839 7.86296C46.0114 7.86884 45.8591 7.82538 45.7283 7.73246Z" fill="#7B7979"/>
<path opacity="0.996" fill-rule="evenodd" clip-rule="evenodd" d="M25.6143 8.58074C25.9976 8.57747 26.3665 8.62093 26.7208 8.71124C26.3375 8.71451 25.9686 8.67105 25.6143 8.58074Z" fill="#5D5A5A"/>
<path fill-rule="evenodd" clip-rule="evenodd" d="M63.3035 25.5466C62.8023 25.5561 62.3036 25.5344 61.8063 25.4813C60.3697 25.1387 59.556 24.2252 59.3653 22.7407C59.3328 22.4369 59.3217 22.1325 59.3328 21.8272C60.0488 21.8272 60.7648 21.8272 61.4809 21.8272C61.449 22.3991 61.5902 22.9211 61.904 23.3932C62.3036 23.8535 62.7918 23.9731 63.3686 23.7521C63.6446 23.5735 63.8613 23.3451 64.0195 23.067C64.1165 22.8917 64.1601 22.6959 64.1497 22.4797C64.1497 22.3364 64.1276 22.2059 64.0846 22.0882C63.9342 21.7303 63.7175 21.4149 63.4337 21.142C62.6421 20.6257 61.8395 20.1254 61.0252 19.6412C59.5476 18.4923 59.103 17.0242 59.6908 15.2366C60.3593 14.0105 61.4008 13.445 62.8153 13.54C65.2856 13.5045 66.4247 14.7226 66.2327 17.1942C65.4952 17.1942 64.757 17.1942 64.0195 17.1942C64.067 16.4082 63.763 15.8101 63.1082 15.3998C62.2294 15.2914 61.7087 15.672 61.546 16.5417C61.6534 17.0536 61.9137 17.4777 62.3271 17.8141C63.1726 18.4122 64.041 18.9776 64.9308 19.5107C66.096 20.4439 66.5842 21.6511 66.3954 23.1322C66.1709 24.2276 65.5303 24.9562 64.4752 25.3182C64.0872 25.4155 63.6966 25.4916 63.3035 25.5466Z" fill="#231F20"/>
<path opacity="0.996" fill-rule="evenodd" clip-rule="evenodd" d="M17.803 13.9317C16.6314 13.9317 15.4597 13.9317 14.288 13.9317C14.288 17.7164 14.288 21.501 14.288 25.2857C15.0257 25.2857 15.7635 25.2857 16.5012 25.2857C15.7534 25.3506 14.9939 25.3723 14.2229 25.3509C14.2229 21.5227 14.2229 17.6946 14.2229 13.8664C15.4277 13.8449 16.621 13.8666 17.803 13.9317Z" fill="#413F3F"/>
<path fill-rule="evenodd" clip-rule="evenodd" d="M17.8031 13.9316C19.755 14.1032 20.8073 15.169 20.9602 17.129C21.1698 20.3012 19.6835 21.802 16.5013 21.6315C16.5013 22.8496 16.5013 24.0676 16.5013 25.2856C15.7636 25.2856 15.0258 25.2856 14.2881 25.2856C14.2881 21.501 14.2881 17.7163 14.2881 13.9316C15.4598 13.9316 16.6315 13.9316 17.8031 13.9316Z" fill="#231F20"/>
<path fill-rule="evenodd" clip-rule="evenodd" d="M24.2473 13.9316C24.2046 15.4558 24.248 16.9566 24.3775 18.4341C25.0718 18.4341 25.7661 18.4341 26.4605 18.4341C26.4605 16.9333 26.4605 15.4325 26.4605 13.9316C27.198 13.9316 27.9362 13.9316 28.6737 13.9316C28.6737 17.7163 28.6737 21.501 28.6737 25.2856C27.9362 25.2856 27.198 25.2856 26.4605 25.2856C26.4605 23.676 26.4605 22.0665 26.4605 20.4569C25.7344 20.392 24.9967 20.3703 24.2473 20.3917C24.2473 22.023 24.2473 23.6543 24.2473 25.2856C23.5529 25.2856 22.8587 25.2856 22.1643 25.2856C22.1643 21.501 22.1643 17.7163 22.1643 13.9316C22.8587 13.9316 23.5529 13.9316 24.2473 13.9316Z" fill="#231F20"/>
<path fill-rule="evenodd" clip-rule="evenodd" d="M24.2473 13.9316C24.2908 15.4107 24.3341 16.8897 24.3775 18.3688C24.3775 18.3906 24.3775 18.4124 24.3775 18.4341C24.248 16.9566 24.2046 15.4558 24.2473 13.9316Z" fill="#ABAAAA"/>
<path fill-rule="evenodd" clip-rule="evenodd" d="M26.4604 13.9316C26.4604 15.4325 26.4604 16.9333 26.4604 18.4341C25.7661 18.4341 25.0718 18.4341 24.3774 18.4341C24.3774 18.4124 24.3774 18.3906 24.3774 18.3688C25.0501 18.3688 25.7227 18.3688 26.3953 18.3688C26.3738 16.8785 26.3955 15.3994 26.4604 13.9316Z" fill="#DCD5D5"/>
<path fill-rule="evenodd" clip-rule="evenodd" d="M31.017 13.9316C31.017 17.7163 31.017 21.501 31.017 25.2856C31.7545 25.2856 32.4927 25.2856 33.2302 25.2856C33.2302 21.501 33.2302 17.7163 33.2302 13.9316C33.2953 17.727 33.3167 21.5335 33.2953 25.3509C32.5141 25.3509 31.733 25.3509 30.9519 25.3509C30.9304 21.5335 30.9519 17.727 31.017 13.9316Z" fill="#908F8F"/>
<path fill-rule="evenodd" clip-rule="evenodd" d="M37.8519 13.9316C37.0923 13.9316 36.3333 13.9316 35.5736 13.9316C35.5736 17.6946 35.5736 21.4574 35.5736 25.2204C35.5736 25.2421 35.5736 25.2639 35.5736 25.2856C35.5085 21.4902 35.4871 17.6838 35.5085 13.8664C36.3014 13.845 37.0825 13.8667 37.8519 13.9316Z" fill="#ABAAAA"/>
<path fill-rule="evenodd" clip-rule="evenodd" d="M37.852 13.9316C37.852 17.129 37.852 20.3264 37.852 23.5238C38.6546 23.5238 39.4579 23.5238 40.2605 23.5238C40.2605 24.0894 40.2605 24.6548 40.2605 25.2204C38.6982 25.2204 37.136 25.2204 35.5737 25.2204C35.5737 21.4574 35.5737 17.6946 35.5737 13.9316C36.3334 13.9316 37.0924 13.9316 37.852 13.9316Z" fill="#232020"/>
<path fill-rule="evenodd" clip-rule="evenodd" d="M41.5623 13.9316C42.2783 13.9316 42.9943 13.9316 43.7103 13.9316C43.7103 17.129 43.7103 20.3264 43.7103 23.5238C44.5129 23.5238 45.3162 23.5238 46.1188 23.5238C46.1188 24.0894 46.1188 24.6548 46.1188 25.2204C44.6002 25.2204 43.0809 25.2204 41.5623 25.2204C41.5623 21.4574 41.5623 17.6946 41.5623 13.9316Z" fill="#221E1F"/>
<path fill-rule="evenodd" clip-rule="evenodd" d="M47.3555 13.9316C48.1151 13.9316 48.8741 13.9316 49.6337 13.9316C49.6337 17.7163 49.6337 21.501 49.6337 25.2856C48.8741 25.2856 48.1151 25.2856 47.3555 25.2856C47.3555 21.501 47.3555 17.7163 47.3555 13.9316Z" fill="#231F20"/>
<path fill-rule="evenodd" clip-rule="evenodd" d="M55.2319 13.9316C57.1027 13.971 58.2203 14.9063 58.5842 16.7375C58.9995 20.0732 57.5349 21.7046 54.1904 21.6315C54.1904 22.8713 54.1904 24.1111 54.1904 25.3509C53.4307 25.3509 52.6718 25.3509 51.9121 25.3509C51.9121 21.5445 51.9121 17.738 51.9121 13.9316C53.0187 13.9316 54.1253 13.9316 55.2319 13.9316Z" fill="#242021"/>
<path fill-rule="evenodd" clip-rule="evenodd" d="M31.0171 13.9316C31.7546 13.9316 32.4928 13.9316 33.2303 13.9316C33.2303 17.7163 33.2303 21.501 33.2303 25.2856C32.4928 25.2856 31.7546 25.2856 31.0171 25.2856C31.0171 21.501 31.0171 17.7163 31.0171 13.9316Z" fill="#211D1E"/>
<path fill-rule="evenodd" clip-rule="evenodd" d="M41.5622 13.9316C41.5622 17.6946 41.5622 21.4574 41.5622 25.2204C43.0808 25.2204 44.6001 25.2204 46.1187 25.2204C46.1187 24.6548 46.1187 24.0894 46.1187 23.5238C46.1831 24.0992 46.2053 24.6865 46.1838 25.2856C44.6216 25.2856 43.0593 25.2856 41.4971 25.2856C41.4756 21.4899 41.4971 17.7053 41.5622 13.9316Z" fill="#120E0F"/>
<path fill-rule="evenodd" clip-rule="evenodd" d="M54.1904 15.6282C54.3187 15.5849 54.4599 15.5632 54.6135 15.5629C54.8596 15.555 55.0874 15.5985 55.297 15.6934C54.952 15.6481 54.6044 15.6263 54.2555 15.6282C54.234 15.6282 54.2119 15.6282 54.1904 15.6282Z" fill="#767374"/>
<path fill-rule="evenodd" clip-rule="evenodd" d="M17.3474 15.628C17.0871 15.628 16.8267 15.628 16.5663 15.628C16.5663 16.9983 16.5663 18.3686 16.5663 19.739C16.5014 18.3582 16.4797 16.9662 16.5012 15.5628C16.7962 15.542 17.0783 15.5638 17.3474 15.628Z" fill="#B4B3B3"/>
<path fill-rule="evenodd" clip-rule="evenodd" d="M17.3475 15.6279C18.1615 15.737 18.6497 16.1938 18.8121 16.9982C18.94 17.7391 18.8315 18.4352 18.4867 19.0863C17.963 19.6251 17.3229 19.8425 16.5664 19.7389C16.5664 18.3685 16.5664 16.9982 16.5664 15.6279C16.8268 15.6279 17.0872 15.6279 17.3475 15.6279Z" fill="#FDFDFD"/>
<path fill-rule="evenodd" clip-rule="evenodd" d="M54.1904 15.6279C54.2119 15.6279 54.234 15.6279 54.2555 15.6279C54.2139 17.0134 54.2575 18.3837 54.3857 19.7389C54.3206 19.7389 54.2555 19.7389 54.1904 19.7389C54.1904 18.3685 54.1904 16.9982 54.1904 15.6279Z" fill="#DFD7D7"/>
<path fill-rule="evenodd" clip-rule="evenodd" d="M54.2555 15.628C54.6044 15.6262 54.952 15.648 55.297 15.6933C56.1712 15.9993 56.5839 16.6192 56.5338 17.553C56.6301 19.0985 55.9141 19.8272 54.3857 19.739C54.2575 18.3838 54.2138 17.0135 54.2555 15.628Z" fill="#FDFDFD"/>
<path fill-rule="evenodd" clip-rule="evenodd" d="M55.2318 13.9317C54.1252 13.9317 53.0186 13.9317 51.912 13.9317C51.912 17.7381 51.912 21.5445 51.912 25.3509C51.8469 21.5338 51.8254 17.7057 51.8469 13.8664C52.9867 13.8449 54.1148 13.8666 55.2318 13.9317Z" fill="#AFAEAE"/>
<path fill-rule="evenodd" clip-rule="evenodd" d="M26.4605 20.457C25.7445 20.457 25.0284 20.457 24.3124 20.457C24.334 22.0778 24.3123 23.6874 24.2473 25.2857C24.2473 23.6544 24.2473 22.0231 24.2473 20.3918C24.9967 20.3704 25.7344 20.3921 26.4605 20.457Z" fill="#9E9C9C"/>
<path opacity="0.996" fill-rule="evenodd" clip-rule="evenodd" d="M64.0846 22.0879C64.1276 22.2056 64.1497 22.3361 64.1497 22.4794C64.1601 22.6957 64.1165 22.8914 64.0195 23.0667C64.0684 22.7428 64.0905 22.4166 64.0846 22.0879Z" fill="#5E5C5C"/>
<path fill-rule="evenodd" clip-rule="evenodd" d="M43.7103 13.9316C43.7753 17.0962 43.7968 20.2719 43.7753 23.4586C44.6001 23.4586 45.4242 23.4586 46.2489 23.4586C46.2489 24.0894 46.2489 24.7201 46.2489 25.3509C44.6535 25.3725 43.0697 25.3508 41.4971 25.2856C43.0593 25.2856 44.6216 25.2856 46.1838 25.2856C46.2053 24.6865 46.1832 24.0992 46.1187 23.5238C45.3161 23.5238 44.5129 23.5238 43.7103 23.5238C43.7103 20.3264 43.7103 17.129 43.7103 13.9316Z" fill="#A6A4A4"/>
<path fill-rule="evenodd" clip-rule="evenodd" d="M40.2605 23.5234C40.3249 24.0988 40.347 24.6861 40.3256 25.2853C38.7418 25.2853 37.1575 25.2853 35.5737 25.2853C35.5737 25.2635 35.5737 25.2417 35.5737 25.22C37.136 25.22 38.6982 25.22 40.2605 25.22C40.2605 24.6545 40.2605 24.089 40.2605 23.5234Z" fill="#565354"/>
<path fill-rule="evenodd" clip-rule="evenodd" d="M61.8064 25.4814C62.3037 25.5345 62.8023 25.5562 63.3035 25.5467C63.1096 25.5901 62.9032 25.6118 62.6852 25.612C62.3747 25.6245 62.0817 25.581 61.8064 25.4814Z" fill="#A3A1A1"/>
<path fill-rule="evenodd" clip-rule="evenodd" d="M7.19291 26.1992C7.2856 26.3307 7.32895 26.4829 7.32309 26.656C7.2304 26.5245 7.18705 26.3723 7.19291 26.1992Z" fill="#969494"/>
<path fill-rule="evenodd" clip-rule="evenodd" d="M72.6771 27.1128C72.6907 27.3082 72.6471 27.4823 72.5469 27.6348C72.5514 27.4438 72.5944 27.2697 72.6771 27.1128Z" fill="#848282"/>
<path opacity="0.992" fill-rule="evenodd" clip-rule="evenodd" d="M72.5468 27.7651C72.541 28.2605 72.4759 28.739 72.3516 29.2007C72.3574 28.7054 72.4225 28.2269 72.5468 27.7651Z" fill="#B2B0B0"/>
<path fill-rule="evenodd" clip-rule="evenodd" d="M9.99196 27.5693C10.0824 27.8805 10.1258 28.2068 10.1221 28.5481C10.0225 28.2382 9.97907 27.9119 9.99196 27.5693Z" fill="#6D6B6B"/>
<path fill-rule="evenodd" clip-rule="evenodd" d="M66.6232 29.005C66.6017 29.005 66.5795 29.005 66.5581 29.005C48.8526 29.005 31.1472 29.005 13.4417 29.005C13.4417 29.2225 13.4417 29.4401 13.4417 29.6576C13.3778 29.4317 13.3561 29.1924 13.3766 28.9398C31.1361 28.9181 48.8852 28.9398 66.6232 29.005Z" fill="#F8A4A7"/>
<path fill-rule="evenodd" clip-rule="evenodd" d="M66.5583 29.0049C66.5667 29.0531 66.5556 29.0966 66.5257 29.1354C48.8574 29.0701 31.1845 29.0484 13.507 29.0701C13.5279 29.4091 13.5061 29.7354 13.4419 30.0489C13.4419 29.9184 13.4419 29.7879 13.4419 29.6574C13.4419 29.4399 13.4419 29.2224 13.4419 29.0049C31.1473 29.0049 48.8528 29.0049 66.5583 29.0049Z" fill="#EA0E15"/>
<path fill-rule="evenodd" clip-rule="evenodd" d="M66.5581 29.0049C66.5796 29.0049 66.6017 29.0049 66.6232 29.0049C66.5373 30.978 66.6675 32.9356 67.0138 34.8776C67.0021 35.114 67.0457 35.3315 67.144 35.5302C67.2279 35.7376 67.2715 35.9551 67.2742 36.1827C67.2605 36.3781 67.3041 36.5522 67.4043 36.7047C67.6634 37.7772 67.9563 38.8429 68.2831 39.9021C68.8566 41.5509 69.4099 43.204 69.943 44.8613C69.9573 45.1003 70.0224 45.3178 70.1383 45.5139C70.1246 45.7093 70.1682 45.8833 70.2685 46.0359C71.1401 49.1678 71.2813 52.3434 70.6916 55.5628C69.6611 59.946 67.0248 62.8933 62.7827 64.4046C61.7021 64.8006 60.5956 65.1047 59.4629 65.3181C57.8564 65.5341 56.2512 65.7409 54.646 65.938C54.135 65.9804 53.6357 66.0457 53.1488 66.1338C52.5598 66.1723 51.9739 66.2375 51.3913 66.3295C50.8576 66.3869 50.3368 66.4744 49.8291 66.5905C46.3381 67.1334 43.062 68.2864 39.9999 70.0489C37.8603 68.8241 35.6042 67.8891 33.2302 67.2431C33.0779 67.1426 32.9047 67.0988 32.7095 67.1125C32.593 67.121 32.4842 67.0995 32.384 67.0473C32.1223 66.9253 31.8405 66.86 31.5378 66.8515C30.7091 66.7315 29.8851 66.5899 29.0642 66.4274C26.3459 66.1272 23.6336 65.7794 20.9275 65.3834C20.2947 65.245 19.6655 65.1034 19.0398 64.9592C18.9087 64.8665 18.7568 64.8228 18.5842 64.8287C18.453 64.736 18.3011 64.6923 18.1285 64.6982C12.6877 62.9951 9.66088 59.2977 9.04796 53.6052C8.89486 51.9687 8.93827 50.3374 9.17814 48.7112C9.53857 46.4304 10.1678 44.2336 11.0659 42.1207C11.5011 40.8663 11.9025 39.6048 12.2701 38.336C12.3628 38.2046 12.4061 38.0523 12.4003 37.8793C12.7054 36.5593 12.9766 35.2325 13.2139 33.8988C13.372 32.6204 13.448 31.3371 13.4418 30.0489C13.506 29.7354 13.5278 29.4091 13.5069 29.0701C31.1843 29.0484 48.8572 29.0701 66.5256 29.1354C66.5555 29.0966 66.5666 29.0531 66.5581 29.0049Z" fill="#EC1C24"/>
<path opacity="0.996" fill-rule="evenodd" clip-rule="evenodd" d="M69.9429 28.3525C69.8889 29.5045 69.8674 30.6573 69.8778 31.8109C69.8564 31.8109 69.8342 31.8109 69.8128 31.8109C69.8017 30.8319 69.8128 29.8531 69.8453 28.8746C69.857 28.6876 69.8896 28.5136 69.9429 28.3525Z" fill="#565353"/>
<path fill-rule="evenodd" clip-rule="evenodd" d="M7.64844 28.2217C7.74914 28.86 7.79255 29.5126 7.77862 30.1793C7.77862 30.6692 7.75688 31.1477 7.71353 31.6148C7.72356 30.4829 7.70188 29.3519 7.64844 28.2217Z" fill="#C8C3C3"/>
<path fill-rule="evenodd" clip-rule="evenodd" d="M7.71359 31.876C7.69589 32.3697 7.63079 32.8482 7.51831 33.3115C7.53602 32.8178 7.60111 32.3393 7.71359 31.876Z" fill="#A7A5A5"/>
<path fill-rule="evenodd" clip-rule="evenodd" d="M69.8127 31.8105C69.8342 31.8105 69.8564 31.8105 69.8778 31.8105C69.9215 32.3326 69.9644 32.8546 70.008 33.3766C69.8922 32.87 69.8271 32.348 69.8127 31.8105Z" fill="#959393"/>
<path fill-rule="evenodd" clip-rule="evenodd" d="M38.7632 39.2498C38.8094 39.6832 38.8316 40.1182 38.8283 40.5548C38.8283 40.6853 38.8283 40.8158 38.8283 40.9463C36.7212 40.8528 34.6168 40.7223 32.5142 40.5548C32.6021 39.8193 32.483 39.1233 32.1562 38.4667C31.9675 38.2039 31.7175 38.0517 31.4077 38.01C31.2905 37.9668 31.1603 37.945 31.0171 37.9447C30.8016 37.9345 30.6063 37.9779 30.4312 38.0752C29.794 38.3141 29.2622 38.7056 28.8365 39.2498C27.8184 40.6279 27.0477 42.1396 26.5256 43.7848C28.4426 42.5819 30.5042 42.2992 32.7095 42.9365C34.8967 43.519 36.166 44.9219 36.5175 47.1454C36.595 50.4143 35.64 53.3506 33.6534 55.9545C31.9102 57.8124 29.7732 58.9217 27.2417 59.2824C26.9218 59.2734 26.618 59.3168 26.3304 59.4129C25.351 59.4273 24.3746 59.3838 23.4011 59.2824C23.203 59.1838 22.986 59.1403 22.7502 59.1519C21.2159 58.845 19.8815 58.149 18.747 57.0638C17.786 55.9412 17.2762 54.6361 17.2173 53.1486C17.2136 52.1892 17.257 51.2321 17.3474 50.2775C17.3722 49.8009 17.459 49.3441 17.6078 48.9072C17.6802 48.7702 17.7236 48.6179 17.738 48.4504C18.4318 45.4727 19.5058 42.6451 20.9601 39.9675C24.2659 34.4977 28.9634 32.7685 35.0529 34.7799C37.0897 35.6138 38.3264 37.1038 38.7632 39.2498Z" fill="#FEFEFE"/>
<path fill-rule="evenodd" clip-rule="evenodd" d="M55.2318 34.0294C55.7473 34.1254 56.2681 34.2342 56.794 34.3557C59.6595 34.9336 61.3844 36.652 61.969 39.5106C62.0184 39.9923 62.008 40.4709 61.9364 40.9462C60.9158 40.8976 59.8957 40.8323 58.877 40.7504C57.8141 40.6826 56.7511 40.6174 55.6874 40.5547C55.7382 39.928 55.6627 39.319 55.4596 38.7276C55.2832 38.3 54.9688 38.0607 54.5158 38.0098C54.4097 37.9667 54.2899 37.945 54.1577 37.9446C53.9527 37.9354 53.7685 37.9789 53.6045 38.0751C53.2874 38.1469 53.0056 38.2883 52.7582 38.4992C52.287 38.9279 51.8638 39.3955 51.4889 39.9021C50.711 41.1341 50.1356 42.4392 49.7639 43.8173C50.9421 42.9851 52.2544 42.5936 53.7021 42.6428C55.36 42.6256 56.8461 43.115 58.161 44.111C58.8464 44.7797 59.3021 45.5737 59.528 46.4927C59.5143 46.6881 59.5579 46.8621 59.6582 47.0147C59.7812 50.0051 59.0111 52.7457 57.3473 55.2366C55.7831 57.3426 53.7106 58.6477 51.1309 59.1517C50.9356 59.1383 50.7625 59.1818 50.6101 59.2822C42.094 59.9536 38.8933 56.1471 41.0088 47.863C41.5882 45.8965 42.2606 43.9607 43.0267 42.0555C44.0858 39.6671 45.6155 37.6334 47.6158 35.9543C49.8922 34.3018 52.4308 33.6601 55.2318 34.0294Z" fill="#FEFEFE"/>
<path fill-rule="evenodd" clip-rule="evenodd" d="M55.2319 34.0293C55.6492 34.041 56.0619 34.0954 56.4687 34.1924C56.6087 34.1989 56.7174 34.2533 56.7942 34.3556C56.2682 34.2341 55.7475 34.1253 55.2319 34.0293Z" fill="#F15153"/>
<path fill-rule="evenodd" clip-rule="evenodd" d="M7.25802 34.7471C7.23212 35.0251 7.16702 35.2861 7.06274 35.5301C7.06821 35.2471 7.13331 34.9861 7.25802 34.7471Z" fill="#747172"/>
<path fill-rule="evenodd" clip-rule="evenodd" d="M67.0138 34.8774C67.0971 35.079 67.1408 35.2965 67.144 35.53C67.0457 35.3313 67.0021 35.1138 67.0138 34.8774Z" fill="#F78C8E"/>
<path fill-rule="evenodd" clip-rule="evenodd" d="M67.2742 36.1826C67.3568 36.3396 67.3998 36.5136 67.4044 36.7046C67.3041 36.5521 67.2605 36.378 67.2742 36.1826Z" fill="#F68688"/>
<path fill-rule="evenodd" clip-rule="evenodd" d="M31.4076 38.0096C31.0801 38.0098 30.7547 38.0315 30.4312 38.0748C30.6063 37.9776 30.8015 37.9341 31.017 37.9443C31.1602 37.9447 31.2904 37.9664 31.4076 38.0096Z" fill="#F36163"/>
<path fill-rule="evenodd" clip-rule="evenodd" d="M54.5158 38.0098C54.2105 38.0124 53.9065 38.0341 53.6045 38.0751C53.7685 37.9789 53.9527 37.9354 54.1578 37.9445C54.2899 37.9449 54.4097 37.9667 54.5158 38.0098Z" fill="#F25A5D"/>
<path fill-rule="evenodd" clip-rule="evenodd" d="M12.4002 37.8794C12.4061 38.0524 12.3627 38.2047 12.2701 38.3362C12.2642 38.1631 12.3075 38.0109 12.4002 37.8794Z" fill="#F57678"/>
<path fill-rule="evenodd" clip-rule="evenodd" d="M38.7632 39.2495C38.8569 39.5044 38.9005 39.7763 38.8934 40.0652C38.8934 40.2407 38.8712 40.4038 38.8283 40.5546C38.8315 40.118 38.8094 39.683 38.7632 39.2495Z" fill="#F78E91"/>
<path fill-rule="evenodd" clip-rule="evenodd" d="M58.8772 40.7505C59.8959 40.8324 60.9159 40.8976 61.9366 40.9462C61.7973 40.9895 61.6456 41.0113 61.4809 41.0115C60.5989 40.9673 59.7306 40.8803 58.8772 40.7505Z" fill="#F67E7F"/>
<path fill-rule="evenodd" clip-rule="evenodd" d="M75.0855 41.9248C75.1779 42.0563 75.2215 42.2085 75.2157 42.3816C75.1232 42.2501 75.0796 42.0979 75.0855 41.9248Z" fill="#7B7979"/>
<path fill-rule="evenodd" clip-rule="evenodd" d="M72.4817 42.1206C72.5839 42.2978 72.649 42.4935 72.677 42.7079C72.5487 42.5393 72.4836 42.3435 72.4817 42.1206Z" fill="#989595"/>
<path fill-rule="evenodd" clip-rule="evenodd" d="M69.9431 44.8613C70.059 45.0574 70.1241 45.2749 70.1384 45.5139C70.0225 45.3178 69.9574 45.1003 69.9431 44.8613Z" fill="#F46D6F"/>
<path fill-rule="evenodd" clip-rule="evenodd" d="M70.1384 45.5137C70.2211 45.6706 70.2641 45.8446 70.2686 46.0357C70.1684 45.8831 70.1248 45.7091 70.1384 45.5137Z" fill="#F68486"/>
<path fill-rule="evenodd" clip-rule="evenodd" d="M27.2417 46.4925C29.0181 46.4606 29.7452 47.3306 29.4223 49.1027C29.2401 50.4328 28.8495 51.6944 28.2507 52.8873C27.8236 53.7315 27.2489 54.4602 26.5257 55.0733C25.9736 55.4509 25.366 55.5814 24.7031 55.4648C24.1022 55.2308 23.7659 54.7849 23.6941 54.1271C23.6646 52.6221 23.9683 51.1866 24.6054 49.8204C25.0156 48.6931 25.6556 47.7251 26.5257 46.9167C26.7615 46.7534 27.0002 46.612 27.2417 46.4925Z" fill="#EC1E25"/>
<path fill-rule="evenodd" clip-rule="evenodd" d="M50.3499 46.4927C51.1695 46.3445 51.8315 46.5838 52.3353 47.2105C52.58 47.5767 52.6777 47.9791 52.6282 48.4177C52.4843 50.7005 51.7143 52.7342 50.3174 54.5188C49.6677 55.2632 48.8541 55.5785 47.8764 55.465C47.3205 55.2565 46.9839 54.8541 46.8674 54.2578C46.816 51.5447 47.6733 49.163 49.4386 47.1126C49.7361 46.8894 50.0401 46.6827 50.3499 46.4927Z" fill="#EC1E25"/>
<path fill-rule="evenodd" clip-rule="evenodd" d="M59.5281 46.4927C59.6108 46.6496 59.6537 46.8236 59.6583 47.0147C59.558 46.8621 59.5144 46.6881 59.5281 46.4927Z" fill="#F6878B"/>
<path fill-rule="evenodd" clip-rule="evenodd" d="M17.738 48.4502C17.7237 48.6177 17.6802 48.77 17.6078 48.907C17.5864 48.729 17.6298 48.5767 17.738 48.4502Z" fill="#F7898B"/>
<path fill-rule="evenodd" clip-rule="evenodd" d="M17.3474 50.2773C17.2569 51.232 17.2135 52.1891 17.2172 53.1485C17.1145 52.1857 17.158 51.2287 17.3474 50.2773Z" fill="#F7B5B6"/>
<path fill-rule="evenodd" clip-rule="evenodd" d="M22.7502 59.1517C22.986 59.1401 23.203 59.1836 23.4012 59.2822C23.1683 59.279 22.9513 59.2356 22.7502 59.1517Z" fill="#F68587"/>
<path fill-rule="evenodd" clip-rule="evenodd" d="M51.1311 59.1518C50.9742 59.2345 50.8011 59.2781 50.6104 59.2823C50.7627 59.1818 50.9358 59.1384 51.1311 59.1518Z" fill="#F46A6D"/>
<path fill-rule="evenodd" clip-rule="evenodd" d="M27.2416 59.2824C26.9552 59.3871 26.6515 59.4306 26.3303 59.4129C26.618 59.3169 26.9218 59.2734 27.2416 59.2824Z" fill="#F46566"/>
<path fill-rule="evenodd" clip-rule="evenodd" d="M18.1287 64.6983C18.3013 64.6924 18.4532 64.7361 18.5843 64.8288C18.4117 64.8347 18.2598 64.7909 18.1287 64.6983Z" fill="#F57678"/>
<path fill-rule="evenodd" clip-rule="evenodd" d="M18.5842 64.8286C18.7569 64.8228 18.9087 64.8665 19.0399 64.9592C18.8673 64.965 18.7154 64.9213 18.5842 64.8286Z" fill="#F57678"/>
<path opacity="0.992" fill-rule="evenodd" clip-rule="evenodd" d="M54.6461 65.938C54.4488 66.0372 54.2314 66.0913 53.9951 66.1011C53.7139 66.1337 53.4321 66.1448 53.1489 66.1337C53.6358 66.0457 54.1351 65.9804 54.6461 65.938Z" fill="#FACCCB"/>
<path fill-rule="evenodd" clip-rule="evenodd" d="M51.3913 66.3296C51.364 66.3766 51.321 66.4092 51.2612 66.4275C50.7866 66.5097 50.3088 66.5638 49.8291 66.5906C50.3368 66.4745 50.8576 66.387 51.3913 66.3296Z" fill="#F4BFBE"/>
<path fill-rule="evenodd" clip-rule="evenodd" d="M31.5378 66.8516C31.8405 66.86 32.1224 66.9253 32.3841 67.0473C32.0853 67.0225 31.8028 66.9573 31.5378 66.8516Z" fill="#F89192"/>
<path fill-rule="evenodd" clip-rule="evenodd" d="M32.7095 67.1128C32.9048 67.0991 33.0779 67.1428 33.2302 67.2433C33.0395 67.2387 32.8663 67.1957 32.7095 67.1128Z" fill="#F68688"/>
<path fill-rule="evenodd" clip-rule="evenodd" d="M16.1106 67.439C16.4794 67.497 16.8266 67.606 17.1521 67.7652C16.7833 67.7072 16.4361 67.5982 16.1106 67.439Z" fill="#BAB7B7"/>
<path opacity="0.956" fill-rule="evenodd" clip-rule="evenodd" d="M74.8901 68.7439C76.5077 68.5945 77.5603 69.2901 78.0472 70.832C78.219 72.4653 77.5245 73.5309 75.9642 74.0294C74.7573 74.1645 73.8024 73.7077 73.1001 72.6591C72.5227 71.3684 72.7505 70.248 73.7835 69.2986C74.124 69.0441 74.4931 68.8594 74.8901 68.7439ZM75.3458 69.266C77.0695 69.4813 77.753 70.4386 77.3962 72.1371C76.8254 73.2771 75.9245 73.6797 74.6949 73.3443C73.3272 72.5802 73.0122 71.5035 73.751 70.1142C74.1845 69.6307 74.7163 69.3482 75.3458 69.266ZM74.9552 70.2448C75.3477 70.2049 75.7162 70.2702 76.0618 70.4405C76.1367 70.6108 76.1477 70.7844 76.0944 70.9625C76.0358 71.0408 75.9596 71.095 75.8665 71.1257C75.5639 71.1583 75.2599 71.1694 74.9552 71.1583C74.9552 70.8536 74.9552 70.5495 74.9552 70.2448Z" fill="#231F20"/>
<path fill-rule="evenodd" clip-rule="evenodd" d="M29.1946 69.7227C29.3899 69.709 29.563 69.7527 29.7153 69.8532C29.5246 69.8486 29.3515 69.8055 29.1946 69.7227Z" fill="#8A8888"/>
<path opacity="0.93" fill-rule="evenodd" clip-rule="evenodd" d="M74.4345 69.7881C74.9149 69.7927 75.381 69.7927 75.834 69.7881C76.5891 69.9962 76.8273 70.4752 76.55 71.2236C76.371 71.3953 76.1647 71.5258 75.9317 71.6152C76.192 72.0282 76.4524 72.4419 76.7128 72.855C76.5429 72.93 76.3697 72.9411 76.192 72.8876C75.9102 72.4745 75.6277 72.0608 75.3458 71.6478C75.2176 71.6152 75.0874 71.6047 74.9553 71.6152C74.9663 72.0289 74.9553 72.4426 74.9227 72.855C74.7457 72.9163 74.5614 72.9385 74.3694 72.9202C74.3486 71.871 74.3707 70.8269 74.4345 69.7881ZM74.9553 70.2449C74.9553 70.5496 74.9553 70.8537 74.9553 71.1584C75.2599 71.1695 75.5639 71.1584 75.8666 71.1258C75.9596 71.0951 76.0358 71.0409 76.0944 70.9626C76.1478 70.7845 76.1367 70.6109 76.0618 70.4406C75.7162 70.2703 75.3478 70.2051 74.9553 70.2449Z" fill="#231F20"/>
<path fill-rule="evenodd" clip-rule="evenodd" d="M54.1252 71.7456C53.2719 71.9179 52.4042 72.0484 51.5215 72.1371C52.371 71.9407 53.2387 71.8102 54.1252 71.7456Z" fill="#BCB8B8"/>
<path fill-rule="evenodd" clip-rule="evenodd" d="M29.3896 72.3329C29.6032 72.3277 29.7984 72.3714 29.9755 72.4634C29.762 72.4687 29.5667 72.4249 29.3896 72.3329Z" fill="#7A7878"/>
<path fill-rule="evenodd" clip-rule="evenodd" d="M30.0408 72.4633C30.2185 72.4418 30.3701 72.4855 30.4964 72.5938C30.3239 72.5997 30.1716 72.556 30.0408 72.4633Z" fill="#7A7878"/>
</g>
<defs>
<clipPath id="clip0_4623_25209">
<rect width="80" height="80" fill="white"/>
</clipPath>
</defs>
</svg>
