<svg width="502" height="80" viewBox="0 0 502 80" fill="none" xmlns="http://www.w3.org/2000/svg">
<path opacity="0.999" fill-rule="evenodd" clip-rule="evenodd" d="M209.616 55.6482C140.346 55.4494 71.0757 55.2509 1.80518 55.0521C4.61608 50.2986 7.49405 45.5793 10.4392 40.8941C78.0225 40.7948 145.606 40.6953 213.189 40.596C221.079 27.5311 228.968 14.4658 236.858 1.4008C237.574 1.1701 238.318 1.02107 239.091 0.953706C247.936 0.258624 256.769 0.357878 265.588 1.25177C269.1 2.38798 271.135 4.82196 271.692 8.5543C272.263 14.3913 270.674 19.5576 266.928 24.0536C264.163 27.5182 260.938 30.4491 257.252 32.8464C256.129 33.5078 254.939 34.0044 253.68 34.3367C250.82 34.8488 247.942 35.1966 245.046 35.3799C239.989 34.991 234.927 34.991 229.862 35.3799C226.785 40.7451 223.709 46.1102 220.632 51.4753C217.324 53.8053 213.652 55.196 209.616 55.6482ZM246.832 13.9194C248.883 13.7409 250.868 13.9895 252.786 14.6646C254.919 16.9623 254.621 18.9495 251.893 20.6258C248.702 22.515 245.427 22.7138 242.068 21.222C240.307 19.0628 240.605 17.1749 242.961 15.5588C244.224 14.8586 245.514 14.3123 246.832 13.9194Z" fill="#878B8E"/>
<path opacity="0.417" fill-rule="evenodd" clip-rule="evenodd" d="M119.108 1.69915C115.068 1.30511 111 1.30511 106.902 1.69915C108.876 1.30273 110.96 1.10392 113.154 1.10303C115.238 1.20228 117.322 1.30184 119.406 1.40109C119.369 1.58201 119.27 1.68127 119.108 1.69915Z" fill="#82B0D6"/>
<path opacity="0.416" fill-rule="evenodd" clip-rule="evenodd" d="M142.331 1.40092C146.451 1.00568 150.619 1.00568 154.835 1.40092C154.798 1.58184 154.699 1.68109 154.537 1.69898C150.521 1.40211 146.452 1.30285 142.331 1.40092Z" fill="#7FAFD5"/>
<path opacity="0.998" fill-rule="evenodd" clip-rule="evenodd" d="M292.086 0.804804C361.456 0.755027 430.825 0.804804 500.195 0.953835C497.218 5.92164 494.24 10.8892 491.263 15.857C427.452 15.9562 363.638 16.0558 299.827 16.155C297.35 17.1446 296.355 18.933 296.849 21.5202C300.693 21.9064 304.563 22.1052 308.461 22.1163C313.361 23.3395 315.695 26.4692 315.457 31.5052C313.15 38.6611 309.229 44.7714 303.697 49.8361C300.11 52.4251 296.141 54.2134 291.788 55.2012C269.657 55.4 247.526 55.4 225.396 55.2012C228.432 50.4221 231.409 45.6033 234.327 40.7452C252.885 40.4969 271.443 40.3479 290.002 40.2981C292.925 39.7965 293.92 38.2066 292.979 35.5291C287.636 35.1479 282.276 34.9491 276.902 34.933C270.761 32.5953 268.726 28.2734 270.799 21.9672C274.113 11.0477 281.209 3.99378 292.086 0.804804Z" fill="#878B8E"/>
<path fill-rule="evenodd" clip-rule="evenodd" d="M85.7634 29.1205C84.1995 30.032 82.7109 31.0254 81.2976 32.1011C80.7093 32.5515 80.0147 32.7998 79.2135 32.8463C73.7553 33.0451 68.2969 33.0451 62.8387 32.8463C58.0683 31.0937 56.4308 27.7652 57.9262 22.8612C61.3754 17.2472 64.7495 11.584 68.0489 5.87161C70.1091 3.37415 72.7389 1.83436 75.9385 1.25164C81.1984 1.05284 86.458 1.05284 91.7179 1.25164C96.544 2.91573 98.2809 6.24419 96.9281 11.2367C93.4789 16.8507 90.1048 22.5139 86.8055 28.2263C86.4961 28.587 86.1487 28.885 85.7634 29.1205ZM78.9158 10.0445C80.4077 9.99501 81.8963 10.0448 83.3816 10.1935C84.1224 10.9765 84.1721 11.8209 83.5305 12.7271C81.4842 16.4782 79.2513 20.1047 76.8317 23.6063C75.1704 24.0585 73.4832 24.1581 71.7704 23.9044C71.0014 22.8463 71.0508 21.8031 71.9193 20.7747C73.9548 17.694 75.8403 14.5145 77.576 11.2367C77.9919 10.7688 78.4385 10.3712 78.9158 10.0445Z" fill="#104D83"/>
<path fill-rule="evenodd" clip-rule="evenodd" d="M34.2572 1.40068C41.9117 1.26565 49.5534 1.41468 57.1819 1.84777C60.8011 3.48145 62.0414 6.21379 60.9035 10.0445C59.3157 12.6278 57.7277 15.2108 56.1399 17.7941C55.2833 18.95 54.2413 19.8937 53.0138 20.6257C50.8803 21.3133 48.6971 21.8099 46.4639 22.116C42.4035 22.4573 38.3345 22.6561 34.2572 22.7122C31.9561 26.1101 29.7729 29.5876 27.7073 33.1443C23.5391 33.3431 19.371 33.3431 15.2029 33.1443C21.6216 22.5971 27.9731 12.0159 34.2572 1.40068ZM42.2957 9.74643C44.0023 9.68175 45.6895 9.83078 47.357 10.1935C47.7104 10.4972 48.0082 10.8451 48.2502 11.2367C46.4177 14.1819 43.8377 15.0266 40.5094 13.7703C39.674 13.3813 39.4257 12.7354 39.7651 11.8329C40.4371 10.8826 41.2805 10.187 42.2957 9.74643Z" fill="#124E83"/>
<path opacity="0.961" fill-rule="evenodd" clip-rule="evenodd" d="M154.24 2.29492C153.395 3.98732 152.403 5.57689 151.262 7.06392C151.304 6.57987 151.106 6.23233 150.667 6.0207C151.052 5.87465 151.449 5.82488 151.858 5.87167C152.392 4.96318 152.689 3.96944 152.751 2.89105C153.294 2.79239 153.79 2.59358 154.24 2.29492Z" fill="#426A94"/>
<path fill-rule="evenodd" clip-rule="evenodd" d="M130.422 12.4292C129.952 12.5979 129.555 12.8959 129.231 13.3234C128.616 14.6542 127.921 15.9457 127.147 17.1982C126.747 16.7496 126.251 16.5508 125.658 16.602C125.417 18.2849 125.219 19.974 125.063 21.6691C124.999 22.1591 125.099 22.6062 125.361 23.0104C126.551 23.2092 127.742 23.2092 128.933 23.0104C133.514 15.8739 137.98 8.6706 142.331 1.40085C146.453 1.30279 150.521 1.40204 154.537 1.69891C154.589 1.99459 154.489 2.1931 154.24 2.29504C153.79 2.5937 153.294 2.7925 152.751 2.89116C152.69 3.96955 152.392 4.96329 151.858 5.87179C151.449 5.82499 151.052 5.87477 150.667 6.02082C151.106 6.23244 151.304 6.57998 151.263 7.06404C146.804 14.7967 142.189 22.4471 137.418 30.0149C136.785 30.7028 136.041 31.1994 135.185 31.5052C134.777 31.4584 134.38 31.5082 133.995 31.6542C133.371 31.8739 132.874 32.2214 132.506 32.6974C128.261 33.0396 123.993 33.0894 119.704 32.8465C118.338 32.3865 117.097 31.7409 115.982 30.909C114.517 31.6649 112.979 32.3108 111.368 32.8465C106.902 33.0453 102.436 33.0453 97.97 32.8465C93.8584 32.1108 92.0227 29.6766 92.4621 25.5439C97.2081 17.5269 102.021 9.57879 106.902 1.69891C111 1.30487 115.069 1.30487 119.108 1.69891C115.066 8.49891 111.097 15.3544 107.199 22.2652C107.299 22.464 107.398 22.6625 107.497 22.8614C108.676 23.2071 109.867 23.2569 111.07 23.0104C115.648 15.8822 120.113 8.67894 124.467 1.40085C128.731 1.05331 132.999 1.00353 137.27 1.25182C135.095 5.06165 132.813 8.78744 130.422 12.4292Z" fill="#0E4D83"/>
<path fill-rule="evenodd" clip-rule="evenodd" d="M166.744 13.6213C170.166 13.869 173.639 14.018 177.164 14.0684C176.641 14.3688 176.293 14.8159 176.122 15.4097C176.023 15.3104 175.924 15.2109 175.825 15.1116C175.554 16.0097 175.306 16.9038 175.08 17.7942C174.502 18.877 173.906 19.9697 173.294 21.0728C168.831 21.3211 164.366 21.4702 159.896 21.5199C159.685 21.894 159.437 22.2416 159.152 22.5632C158.924 23.0299 158.974 23.4272 159.301 23.7554C164.759 23.9542 170.218 24.1527 175.676 24.3515C174.196 27.0204 172.608 29.6034 170.912 32.1012C170.503 32.0544 170.106 32.1041 169.721 32.2502C169.92 32.3494 170.118 32.449 170.317 32.5483C165.454 32.598 160.591 32.6475 155.728 32.6973C150.762 32.697 145.899 32.4985 141.14 32.1012C147.099 21.7113 153.252 11.4281 159.599 1.25169C169.622 1.10266 179.645 1.05288 189.669 1.10266C188.33 3.84304 186.841 6.52561 185.203 9.15035C179.35 9.39863 173.495 9.54766 167.637 9.59744C166.662 10.2523 165.967 11.1465 165.553 12.28C165.8 12.8737 166.197 13.3208 166.744 13.6213Z" fill="#0F4D83"/>
<path fill-rule="evenodd" clip-rule="evenodd" d="M221.228 6.76598C221.212 7.86821 221.113 8.96121 220.93 10.0447C219.811 9.98088 219.613 10.2789 220.334 10.9389C219.968 11.1716 219.572 11.3207 219.143 11.3859C219.537 11.6292 219.736 11.977 219.739 12.4292C218.016 16.4399 215.138 19.222 211.105 20.7749C210.245 20.6229 209.551 20.8214 209.021 21.371C209.064 23.2745 209.262 25.1621 209.616 27.0342C209.593 28.6494 209.196 30.1397 208.425 31.5052C207.943 31.5907 207.645 31.8888 207.532 32.3994C205.597 32.4986 203.662 32.5982 201.727 32.6974C199.682 32.6965 197.746 32.4977 195.921 32.1013C196.37 30.8062 197.015 29.614 197.856 28.5245C198.128 26.8301 197.83 25.2405 196.963 23.7555C195.752 22.9135 194.611 23.0128 193.539 24.0536C191.735 26.9469 189.948 29.828 188.18 32.6974C184.099 32.8906 180.129 32.6918 176.271 32.1013C182.343 21.8348 188.495 11.6014 194.73 1.40085C201.873 1.05331 209.019 1.00353 216.166 1.25182C219.051 2.00294 220.738 3.84079 221.228 6.76598ZM203.066 9.15048C204.509 9.22857 205.899 9.52663 207.235 10.0447C207.41 11.6286 206.715 12.771 205.15 13.4724C203.244 13.7162 201.359 13.6166 199.494 13.1743C198.748 12.4146 198.797 11.6694 199.643 10.9389C200.569 9.84764 201.71 9.25152 203.066 9.15048Z" fill="#0E4D83"/>
<path fill-rule="evenodd" clip-rule="evenodd" d="M221.228 6.76611C221.776 8.89935 221.28 10.7873 219.739 12.4293C219.736 11.9771 219.537 11.6293 219.144 11.3861C219.572 11.3208 219.969 11.1718 220.334 10.939C219.613 10.2791 219.811 9.98102 220.93 10.0448C221.113 8.96134 221.212 7.86835 221.228 6.76611Z" fill="#416B96"/>
<path opacity="0.939" fill-rule="evenodd" clip-rule="evenodd" d="M166.744 13.6212C170.417 13.5714 174.089 13.6212 177.76 13.7702C176.971 15.2081 176.077 16.5494 175.08 17.7941C175.306 16.9038 175.554 16.0096 175.825 15.1115C175.924 15.2108 176.023 15.3103 176.122 15.4096C176.293 14.8158 176.641 14.3688 177.164 14.0683C173.639 14.0179 170.166 13.8689 166.744 13.6212Z" fill="#42719D"/>
<path fill-rule="evenodd" clip-rule="evenodd" d="M130.422 12.4292C128.71 15.5603 126.923 18.6402 125.063 21.6691C125.219 19.9741 125.417 18.2849 125.658 16.6021C126.251 16.5508 126.747 16.7496 127.147 17.1982C127.921 15.9457 128.616 14.6542 129.231 13.3234C129.555 12.896 129.952 12.5979 130.422 12.4292Z" fill="#325E8D"/>
<path opacity="0.557" fill-rule="evenodd" clip-rule="evenodd" d="M211.105 20.775C210.446 21.0039 209.751 21.2027 209.021 21.3711C209.551 20.8215 210.245 20.623 211.105 20.775Z" fill="#68839A"/>
<path fill-rule="evenodd" clip-rule="evenodd" d="M360.265 26.1399C360.464 25.345 360.661 24.5503 360.86 23.7554C351.928 23.7554 342.997 23.7554 334.065 23.7554C334.497 23.5163 334.994 23.3673 335.554 23.3083C344.006 23.1751 352.443 23.1253 360.86 23.1593C361.307 23.1453 361.604 23.3438 361.753 23.7554C361.399 24.6698 360.902 25.4648 360.265 26.1399Z" fill="#5E7E95"/>
<path opacity="0.271" fill-rule="evenodd" clip-rule="evenodd" d="M405.519 23.7555C409.535 23.4586 413.605 23.3594 417.725 23.4574C417.725 24.1528 417.725 24.8485 417.725 25.5439C417.439 25.0178 417.341 24.4217 417.428 23.7555C413.459 23.7555 409.487 23.7555 405.519 23.7555Z" fill="#9CADB9"/>
<path opacity="0.73" fill-rule="evenodd" clip-rule="evenodd" d="M445.116 23.7554C449.335 23.3602 453.604 23.3602 457.918 23.7554C457.882 23.9363 457.781 24.0356 457.62 24.0535C457.519 23.8037 457.32 23.7041 457.025 23.7554C453.056 23.7554 449.085 23.7554 445.116 23.7554Z" fill="#393B3D"/>
<path opacity="0.252" fill-rule="evenodd" clip-rule="evenodd" d="M159.301 23.7555C164.862 23.6562 170.42 23.7555 175.974 24.0535C175.937 24.2345 175.837 24.3337 175.676 24.3516C170.218 24.1528 164.759 23.9543 159.301 23.7555Z" fill="#A6D3F4"/>
<path fill-rule="evenodd" clip-rule="evenodd" d="M334.065 23.7554C342.997 23.7554 351.928 23.7554 360.86 23.7554C360.661 24.5503 360.464 25.3449 360.265 26.1399C359.52 27.8284 358.627 29.418 357.585 30.9089C351.479 31.4406 345.328 31.6892 339.126 31.654C338.96 31.7682 338.861 31.9172 338.829 32.1011C338.197 32.5631 337.7 33.1592 337.34 33.8895C337.054 34.4156 336.956 35.0117 337.042 35.6779C340.118 35.6779 343.196 35.6779 346.272 35.6779C348.079 35.9458 349.32 36.9393 349.993 38.6585C351.675 45.7259 349.243 50.8427 342.699 54.0087C341.651 54.5077 340.558 54.8552 339.424 55.0519C330.442 55.1506 321.51 55.0513 312.629 54.7539C313.174 53.4615 313.87 52.2692 314.713 51.1771C315.803 50.0746 316.696 48.7831 317.392 47.3023C323.344 47.054 329.298 46.905 335.256 46.8552C335.423 46.7411 335.521 46.592 335.554 46.4081C336.244 45.432 336.048 44.5873 334.958 43.8746C331.776 43.7703 328.602 43.5715 325.431 43.2785C323.398 42.1375 322.305 40.3989 322.156 38.0624C323.019 30.6463 326.988 25.8773 334.065 23.7554Z" fill="#0B4C82"/>
<path fill-rule="evenodd" clip-rule="evenodd" d="M420.405 55.0523C416.335 55.0523 412.268 55.0523 408.198 55.0523C408.29 54.0946 408.192 53.2004 407.9 52.3697C407.683 49.5933 407.582 46.8114 407.603 44.024C407.603 43.229 407.603 42.4344 407.603 41.6395C407.219 41.5688 406.921 41.6681 406.709 41.9375C404.131 46.3009 401.553 50.6725 398.969 55.0523C394.848 55.1503 390.778 55.0511 386.762 54.7542C392.865 44.3199 399.117 33.987 405.519 23.7557C409.487 23.7557 413.459 23.7557 417.428 23.7557C417.341 24.4219 417.439 25.018 417.725 25.5441C417.874 29.5244 418.121 33.4985 418.47 37.4666C421.408 32.9241 424.236 28.3041 426.955 23.6067C431.123 23.4576 435.291 23.4079 439.459 23.4576C438.384 25.8091 437.143 28.0943 435.738 30.3131C430.62 38.5786 425.508 46.8248 420.405 55.0523Z" fill="#0E4D83"/>
<path fill-rule="evenodd" clip-rule="evenodd" d="M457.025 23.7557C457.32 23.7045 457.519 23.804 457.62 24.0538C456.4 26.2011 455.111 28.2875 453.75 30.3131C453.878 29.0681 454.176 27.8759 454.643 26.7364C455.131 26.7423 455.53 26.5435 455.834 26.1402C456.248 25.3355 456.647 24.5405 457.025 23.7557Z" fill="#2C4967"/>
<path opacity="0.914" fill-rule="evenodd" clip-rule="evenodd" d="M85.7632 29.1206C84.622 30.6357 83.1334 31.6294 81.2974 32.1012C82.7107 31.0255 84.1993 30.0321 85.7632 29.1206Z" fill="#496E94"/>
<path opacity="0.974" fill-rule="evenodd" clip-rule="evenodd" d="M135.185 31.5053C134.471 32.2427 133.578 32.6403 132.506 32.6975C132.874 32.2215 133.37 31.874 133.994 31.6543C134.379 31.5083 134.777 31.4585 135.185 31.5053Z" fill="#4E7399"/>
<path fill-rule="evenodd" clip-rule="evenodd" d="M357.585 30.9092C357.582 31.3613 357.383 31.7092 356.99 31.9524C350.937 32.1014 344.884 32.1512 338.829 32.1014C338.861 31.9175 338.96 31.7685 339.126 31.6543C345.328 31.6895 351.479 31.4409 357.585 30.9092Z" fill="#597A95"/>
<path fill-rule="evenodd" clip-rule="evenodd" d="M482.927 29.7168C482.611 30.4444 482.215 31.14 481.736 31.8032C478.068 32.0515 474.397 32.2006 470.72 32.2503C470.524 32.7028 470.226 33.0506 469.827 33.2935C469.776 32.6998 469.976 32.2032 470.422 31.8032C474.093 31.6044 477.767 31.4059 481.438 31.2071C481.748 30.4986 482.245 30.0017 482.927 29.7168Z" fill="#406B94"/>
<path opacity="0.6" fill-rule="evenodd" clip-rule="evenodd" d="M141.14 32.1015C145.899 32.4988 150.762 32.6973 155.728 32.6976C160.591 32.6478 165.454 32.5984 170.317 32.5486C170.118 32.4493 169.92 32.3498 169.721 32.2505C170.106 32.1045 170.503 32.0547 170.912 32.1015C170.938 32.3984 170.838 32.6466 170.615 32.8466C160.591 33.0454 150.568 33.0454 140.544 32.8466C140.713 32.5501 140.912 32.3018 141.14 32.1015Z" fill="#546E83"/>
<path opacity="0.6" fill-rule="evenodd" clip-rule="evenodd" d="M176.271 32.1016C180.129 32.692 184.099 32.8908 188.18 32.6977C184.064 33.0437 179.895 33.0932 175.676 32.8467C175.844 32.5501 176.043 32.3019 176.271 32.1016Z" fill="#556F84"/>
<path opacity="0.601" fill-rule="evenodd" clip-rule="evenodd" d="M208.426 31.5054C208.365 31.9656 208.167 32.3632 207.83 32.6976C203.662 33.0949 199.494 33.0949 195.326 32.6976C195.431 32.393 195.63 32.1942 195.921 32.1015C197.746 32.4979 199.682 32.6967 201.727 32.6976C203.662 32.5984 205.597 32.4988 207.532 32.3996C207.645 31.889 207.943 31.5909 208.426 31.5054Z" fill="#547087"/>
<path fill-rule="evenodd" clip-rule="evenodd" d="M445.116 23.7554C449.085 23.7554 453.056 23.7554 457.025 23.7554C456.647 24.5402 456.248 25.3351 455.834 26.1399C455.53 26.5432 455.131 26.742 454.643 26.736C454.176 27.8755 453.878 29.0677 453.75 30.3127C451.717 33.9914 449.531 37.5682 447.2 41.043C446.688 41.7288 445.994 42.2257 445.116 42.5333C445.315 43.6296 444.919 44.5238 443.925 45.2159C443.749 45.1536 443.601 45.054 443.479 44.9178C443.446 46.3226 443.097 47.6141 442.436 48.7926C441.752 49.5446 441.058 50.3393 440.352 51.1771C440.177 51.1148 440.028 51.0153 439.906 50.8791C439.563 51.7414 439.415 52.6355 439.459 53.5616C439.162 53.5616 438.864 53.5616 438.566 53.5616C438.566 53.9589 438.566 54.3566 438.566 54.7539C434.69 54.8528 430.819 54.7536 426.955 54.4558C428.122 52.2156 429.512 50.1291 431.123 48.1965C433.04 44.4549 435.026 40.7789 437.077 37.1682C437.077 37.0689 437.077 36.9694 437.077 36.8701C437.601 36.6961 437.997 36.3482 438.268 35.8269C438.992 34.6263 439.587 33.3846 440.055 32.1011C441.594 29.2177 443.279 26.4355 445.116 23.7554Z" fill="#084B81"/>
<path fill-rule="evenodd" clip-rule="evenodd" d="M376.937 54.7542C370.56 54.9184 364.21 54.7196 357.883 54.158C354.7 52.1002 353.658 49.2188 354.757 45.5142C358.118 39.7145 361.542 33.9518 365.028 28.2266C366.868 25.6388 369.348 24.0987 372.471 23.6066C378.03 23.4078 383.585 23.4078 389.144 23.6066C393.407 25.3387 395.045 28.4683 394.056 32.9956C390.659 38.9068 387.185 44.7685 383.636 50.5813C381.888 52.7816 379.655 54.1723 376.937 54.7542ZM376.342 32.1014C377.637 32.0519 378.926 32.1017 380.212 32.2504C380.954 33.1351 381.004 34.0791 380.361 35.082C378.226 38.3619 376.241 41.7402 374.407 45.2162C373.275 46.0716 371.983 46.4692 370.536 46.4084C368.872 46.6263 368.077 45.9309 368.154 44.322C368.902 43.0221 369.646 41.7306 370.387 40.4472C371.331 39.1557 372.126 37.7646 372.769 36.2743C373.481 35.3509 374.127 34.3574 374.704 33.2937C375.243 32.8534 375.791 32.4561 376.342 32.1014Z" fill="#0D4C82"/>
<path opacity="0.871" fill-rule="evenodd" clip-rule="evenodd" d="M440.055 32.1016C439.587 33.385 438.992 34.6267 438.268 35.8273C437.997 36.3487 437.601 36.6965 437.077 36.8706C437.962 35.1949 438.956 33.6053 440.055 32.1016Z" fill="#3D4B5D"/>
<path fill-rule="evenodd" clip-rule="evenodd" d="M376.342 32.1011C375.791 32.4558 375.243 32.8531 374.704 33.2934C374.127 34.3571 373.481 35.3506 372.769 36.274C372.754 35.657 372.954 35.1106 373.365 34.6346C373.248 34.3333 373.049 34.1843 372.769 34.1875C373.123 33.9106 373.519 33.8114 373.96 33.8895C374.076 32.4516 374.868 31.8555 376.342 32.1011Z" fill="#466C96"/>
<path opacity="0.392" fill-rule="evenodd" clip-rule="evenodd" d="M337.34 33.8896C337.277 34.3797 337.376 34.8268 337.638 35.2309C340.567 35.2816 343.446 35.4306 346.272 35.678C343.196 35.678 340.118 35.678 337.042 35.678C336.956 35.0119 337.054 34.4157 337.34 33.8896Z" fill="#798FA1"/>
<path fill-rule="evenodd" clip-rule="evenodd" d="M372.769 36.2744C372.126 37.7647 371.331 39.1558 370.387 40.4473C370.453 39.3221 370.849 38.3284 371.578 37.4667C371.516 37.292 371.417 37.143 371.28 37.0196C371.801 36.7856 372.299 36.5373 372.769 36.2744Z" fill="#496F98"/>
<path opacity="0.886" fill-rule="evenodd" clip-rule="evenodd" d="M437.077 37.1685C435.026 40.7792 433.04 44.4552 431.123 48.1968C429.512 50.1294 428.122 52.2158 426.955 54.4561C430.819 54.7539 434.69 54.8531 438.566 54.7542C438.566 54.3568 438.566 53.9592 438.566 53.5619C438.864 53.5619 439.161 53.5619 439.459 53.5619C439.414 52.6358 439.563 51.7416 439.906 50.8793C440.028 51.0156 440.177 51.1151 440.352 51.1774C441.058 50.3395 441.752 49.5449 442.436 48.7929C441.329 50.9115 440.138 52.998 438.864 55.0522C434.597 55.4495 430.328 55.4495 426.062 55.0522C429.593 48.972 433.263 43.0108 437.077 37.1685Z" fill="#29425B"/>
<path fill-rule="evenodd" clip-rule="evenodd" d="M482.927 29.7168C482.245 30.0017 481.748 30.4986 481.438 31.2071C477.767 31.4059 474.093 31.6044 470.422 31.8032C469.976 32.2032 469.776 32.6998 469.827 33.2935C467.585 37.2357 465.301 41.1603 462.979 45.067C463.226 45.7129 463.673 46.16 464.319 46.4083C467.073 46.3865 469.752 46.287 472.358 46.1102C472.506 46.2593 472.655 46.4083 472.804 46.5573C471.018 49.4387 469.231 52.3198 467.445 55.2011C462.964 55.4795 458.499 55.38 454.048 54.9031C450.246 53.2816 448.808 50.45 449.731 46.4083C453.104 40.6459 456.48 34.8831 459.853 29.1207C461.038 26.5421 462.973 24.8032 465.659 23.9046C472.593 23.473 479.539 23.324 486.499 23.4575C485.538 25.6789 484.347 27.7654 482.927 29.7168Z" fill="#134E84"/>
<path opacity="0.149" fill-rule="evenodd" clip-rule="evenodd" d="M406.709 41.9373C406.921 41.6678 407.219 41.5686 407.603 41.6392C407.603 42.4341 407.603 43.2288 407.603 44.0237C407.478 43.2312 407.18 42.5358 406.709 41.9373Z" fill="#B1D3EA"/>
<path fill-rule="evenodd" clip-rule="evenodd" d="M447.2 41.0435C445.762 43.7287 444.172 46.312 442.436 48.7931C443.097 47.6145 443.446 46.323 443.478 44.9183C443.6 45.0545 443.749 45.154 443.925 45.2163C444.919 44.5242 445.315 43.63 445.116 42.5338C445.994 42.2262 446.688 41.7293 447.2 41.0435Z" fill="#2E4A69"/>
<path fill-rule="evenodd" clip-rule="evenodd" d="M335.554 46.4083C335.521 46.5922 335.423 46.7412 335.256 46.8554C329.298 46.9052 323.344 47.0542 317.392 47.3025C316.696 48.7833 315.803 50.0748 314.713 51.1773C315.424 49.6557 316.216 48.1654 317.095 46.7064C323.246 46.4083 329.397 46.3091 335.554 46.4083Z" fill="#497195"/>
<path fill-rule="evenodd" clip-rule="evenodd" d="M483.224 45.514C488.435 45.1179 490.965 47.5024 490.816 52.6675C489.429 56.3188 486.8 57.7593 482.927 56.9894C478.928 55.2186 477.788 52.2878 479.503 48.1966C480.485 46.8905 481.727 45.9963 483.224 45.514Z" fill="#2D5B89"/>
<path fill-rule="evenodd" clip-rule="evenodd" d="M484.118 46.4082C488.396 46.5665 490.233 48.7522 489.626 52.9656C488.083 55.832 485.752 56.7757 482.629 55.7972C479.851 53.9548 479.205 51.5206 480.694 48.4946C481.656 47.4452 482.796 46.7498 484.118 46.4082Z" fill="#F3F9FA"/>
<path fill-rule="evenodd" clip-rule="evenodd" d="M485.606 48.4947C484.514 48.4947 483.424 48.4947 482.331 48.4947C482.331 50.4819 482.331 52.4688 482.331 54.4559C482.037 52.4252 481.938 50.3388 482.034 48.1966C483.284 48.1021 484.475 48.2017 485.606 48.4947Z" fill="#88A4C1"/>
<path fill-rule="evenodd" clip-rule="evenodd" d="M485.606 48.4946C486.991 48.6955 487.437 49.4905 486.946 50.8791C486.526 51.2627 486.08 51.6106 485.606 51.9223C486.371 52.5384 486.967 53.2836 487.393 54.1578C487.029 54.4899 486.63 54.5396 486.202 54.3068C485.687 52.8443 484.695 51.9995 483.224 51.7733C483.224 52.6675 483.224 53.5617 483.224 54.4559C482.927 54.4559 482.629 54.4559 482.331 54.4559C482.331 52.4687 482.331 50.4818 482.331 48.4946C483.424 48.4946 484.514 48.4946 485.606 48.4946Z" fill="#174E7D"/>
<path fill-rule="evenodd" clip-rule="evenodd" d="M483.225 49.0909C484.025 49.042 484.817 49.0918 485.606 49.24C486.449 49.9917 486.348 50.5878 485.309 51.0283C484.621 51.1765 483.927 51.2259 483.225 51.1774C483.225 50.482 483.225 49.7863 483.225 49.0909Z" fill="#E2EDF3"/>
<path fill-rule="evenodd" clip-rule="evenodd" d="M357.883 54.1582C364.209 54.7198 370.56 54.9186 376.937 54.7543C376.607 54.9898 376.211 55.1388 375.746 55.2014C370.587 55.4002 365.424 55.4002 360.265 55.2014C359.342 55.0861 358.547 54.7382 357.883 54.1582Z" fill="#456E95"/>
<path opacity="0.365" fill-rule="evenodd" clip-rule="evenodd" d="M312.629 54.7539C321.51 55.0514 330.442 55.1506 339.424 55.052C330.442 55.4484 321.412 55.4484 312.331 55.052C312.367 54.871 312.468 54.7718 312.629 54.7539Z" fill="#8FBEE4"/>
<path opacity="0.26" fill-rule="evenodd" clip-rule="evenodd" d="M386.762 54.7539C390.778 55.0508 394.848 55.15 398.969 55.052C394.848 55.4472 390.68 55.4472 386.464 55.052C386.5 54.871 386.601 54.7718 386.762 54.7539Z" fill="#A6D0F2"/>
<path opacity="0.259" fill-rule="evenodd" clip-rule="evenodd" d="M407.9 52.3696C408.192 53.2003 408.29 54.0945 408.198 55.0522C412.268 55.0522 416.335 55.0522 420.405 55.0522C416.29 55.3491 412.122 55.4483 407.9 55.3503C407.9 54.3568 407.9 53.3631 407.9 52.3696Z" fill="#9EC9EC"/>
<path opacity="0.2" fill-rule="evenodd" clip-rule="evenodd" d="M1.80529 55.0522C71.0758 55.2511 140.346 55.4496 209.616 55.6484C140.247 55.7476 70.8769 55.6484 1.50757 55.3503C1.54437 55.1694 1.6436 55.0701 1.80529 55.0522Z" fill="#B2B3B5"/>
<path opacity="0.557" fill-rule="evenodd" clip-rule="evenodd" d="M334.66 59.5231C334.52 59.9422 334.223 60.141 333.767 60.1192C333.907 59.7001 334.205 59.5013 334.66 59.5231Z" fill="#95AEC3"/>
<path fill-rule="evenodd" clip-rule="evenodd" d="M334.66 59.5229C336.738 59.7116 337.236 60.7054 336.149 62.5036C335.137 63.0064 334.291 62.8076 333.618 61.9074C333.383 61.2481 333.434 60.652 333.767 60.1191C334.223 60.1408 334.52 59.942 334.66 59.5229Z" fill="#245587"/>
<path opacity="0.949" fill-rule="evenodd" clip-rule="evenodd" d="M136.079 60.1191C138.066 60.0697 140.051 60.1191 142.033 60.2682C144.357 61.3951 145.2 63.233 144.564 65.7823C143.867 66.8273 143.023 67.7215 142.033 68.4649C143.162 70.2783 144.254 72.1164 145.308 73.979C144.301 74.2246 143.309 74.1749 142.331 73.83C141.239 72.0416 140.148 70.2533 139.056 68.4649C138.759 70.3421 138.66 72.23 138.758 74.1281C137.865 74.1281 136.972 74.1281 136.079 74.1281C136.079 69.4583 136.079 64.7889 136.079 60.1191ZM138.758 62.5036C140.36 62.1325 141.452 62.6792 142.033 64.143C141.913 64.582 141.715 64.9793 141.438 65.3352C140.576 65.6777 139.683 65.8267 138.758 65.7823C138.758 64.6893 138.758 63.5966 138.758 62.5036Z" fill="#174F83"/>
<path fill-rule="evenodd" clip-rule="evenodd" d="M246.832 63.6958C248.055 63.5021 249.097 63.8001 249.958 64.59C250.081 64.4538 250.23 64.3542 250.405 64.292C250.702 64.59 251 64.8881 251.298 65.1861C250.533 65.5897 249.839 65.4902 249.214 64.8881C249.242 65.2997 249.242 65.6973 249.214 66.0803C245.814 65.6058 244.524 67.0961 245.343 70.5513C245.321 71.0064 245.52 71.3045 245.939 71.4455C246.685 71.818 247.479 72.0165 248.32 72.0416C249.201 72.0863 249.946 71.7882 250.553 71.1474C250.583 70.1936 250.782 69.2994 251.149 68.4648C251.295 68.8502 251.344 69.2478 251.298 69.6571C251.695 69.6571 252.092 69.6571 252.489 69.6571C252.489 70.0544 252.489 70.452 252.489 70.8493C252.092 70.8493 251.695 70.8493 251.298 70.8493C251.631 72.5668 250.937 73.5602 249.214 73.83C248.694 73.6896 248.197 73.4908 247.725 73.2338C247.262 73.5459 246.765 73.7447 246.236 73.83C245.785 73.8267 245.437 73.6282 245.194 73.2338C245.136 73.7662 244.888 74.1635 244.45 74.4261C243.781 74.1656 243.086 74.066 242.366 74.128C242.366 69.2598 242.366 64.3912 242.366 59.5229C243.259 59.5229 244.152 59.5229 245.045 59.5229C244.996 61.2148 245.046 62.9039 245.194 64.59C245.713 64.2151 246.258 63.917 246.832 63.6958Z" fill="#124E82"/>
<path opacity="0.851" fill-rule="evenodd" clip-rule="evenodd" d="M254.87 59.5229C254.8 64.2982 254.899 69.0672 255.168 73.83C255.863 73.83 256.558 73.83 257.252 73.83C256.423 74.1212 255.529 74.2204 254.573 74.128C254.475 69.2073 254.574 64.339 254.87 59.5229Z" fill="#1B4668"/>
<path opacity="0.99" fill-rule="evenodd" clip-rule="evenodd" d="M254.871 59.5229C255.665 59.5229 256.458 59.5229 257.252 59.5229C257.252 64.292 257.252 69.061 257.252 73.83C256.558 73.83 255.863 73.83 255.168 73.83C254.899 69.0672 254.8 64.2982 254.871 59.5229Z" fill="#054B81"/>
<path opacity="0.816" fill-rule="evenodd" clip-rule="evenodd" d="M234.923 63.6957C233.931 63.6957 232.938 63.6957 231.946 63.6957C232.391 63.4555 232.888 63.257 233.434 63.0996C233.981 63.257 234.477 63.4555 234.923 63.6957Z" fill="#778EA1"/>
<path opacity="0.929" fill-rule="evenodd" clip-rule="evenodd" d="M209.021 63.6957C207.344 63.4951 205.856 63.8928 204.555 64.888C205.285 63.9097 206.277 63.3136 207.532 63.0996C208.079 63.257 208.575 63.4555 209.021 63.6957Z" fill="#6A88A6"/>
<path opacity="0.592" fill-rule="evenodd" clip-rule="evenodd" d="M219.441 63.6962C219.139 64.0461 218.743 64.2446 218.25 64.2923C218.485 63.8142 218.882 63.6154 219.441 63.6962Z" fill="#8EB2C8"/>
<path opacity="0.992" fill-rule="evenodd" clip-rule="evenodd" d="M196.517 73.8303C197.311 73.8303 198.104 73.8303 198.898 73.8303C198.997 71.6357 198.897 69.4497 198.601 67.2729C198.303 66.6768 198.005 66.0807 197.707 65.4846C198.081 64.9379 198.279 64.3418 198.303 63.6962C198.671 63.762 198.968 63.9609 199.196 64.2923C200.023 63.4556 201.016 63.2074 202.173 63.5471C202.515 64.3746 202.416 65.1695 201.876 65.9316C201.016 65.6851 200.271 65.9334 199.643 66.6768C199.235 69.14 199.086 71.6237 199.196 74.1284C198.24 74.2208 197.346 74.1215 196.517 73.8303Z" fill="#285582"/>
<path fill-rule="evenodd" clip-rule="evenodd" d="M186.989 63.398C188.71 63.162 190.248 63.5593 191.604 64.5903C191.748 64.3077 191.797 64.0096 191.753 63.6961C192.646 63.6961 193.539 63.6961 194.432 63.6961C194.432 67.1736 194.432 70.6508 194.432 74.1283C193.539 74.1283 192.646 74.1283 191.753 74.1283C191.797 73.8147 191.748 73.5166 191.604 73.2341C189.779 74.6338 187.844 74.7828 185.798 73.6812C183.713 71.508 183.167 68.9745 184.161 66.0806C184.877 64.9158 185.82 64.0216 186.989 63.398ZM191.753 69.6573C191.458 70.2403 191.16 70.8365 190.86 71.4457C188.351 72.4737 186.862 71.6293 186.394 68.9122C186.614 66.6493 187.805 65.7053 189.967 66.0806C191.349 66.8615 191.945 68.0538 191.753 69.6573Z" fill="#1B5084"/>
<path opacity="0.937" fill-rule="evenodd" clip-rule="evenodd" d="M330.79 66.0804C331.234 65.5499 331.829 65.3514 332.576 65.4843C332.776 64.4909 332.377 63.8948 331.385 63.6959C331.025 63.9266 331.025 64.1749 331.385 64.4411C330.992 64.4992 330.597 64.4494 330.195 64.2921C330.329 64.0065 330.528 63.7579 330.79 63.5469C333.047 62.9255 333.693 63.6706 332.725 65.7824C332.094 65.7612 331.451 65.8605 330.79 66.0804Z" fill="#527499"/>
<path opacity="0.989" fill-rule="evenodd" clip-rule="evenodd" d="M349.547 68.4651C349.163 67.942 348.865 67.3459 348.653 66.6768C348.207 66.8413 347.71 66.8413 347.165 66.6768C347.165 67.0741 347.165 67.4717 347.165 67.869C345.081 67.869 342.997 67.869 340.913 67.869C340.832 67.2875 341.029 66.8404 341.508 66.5277C340.832 66.0634 340.139 66.0139 339.424 66.3787C340.145 67.0386 339.948 67.3367 338.829 67.2729C339.957 64.0243 342.238 62.7826 345.676 63.5471C348.028 64.3605 349.317 65.9999 349.547 68.4651ZM343.592 65.7826C344.203 65.8568 344.896 66.0058 345.676 66.2297C346.031 66.5334 346.328 66.8812 346.569 67.2729C344.881 67.6702 343.196 67.6702 341.508 67.2729C341.976 66.4002 342.669 65.9033 343.592 65.7826Z" fill="#285787"/>
<path fill-rule="evenodd" clip-rule="evenodd" d="M231.946 63.6958C232.938 63.6958 233.931 63.6958 234.923 63.6958C235.496 63.917 236.042 64.215 236.56 64.59C236.704 64.3074 236.754 64.0094 236.709 63.6958C237.602 63.6958 238.496 63.6958 239.389 63.6958C239.389 67.1733 239.389 70.6505 239.389 74.128C238.49 74.1772 237.597 74.1274 236.709 73.979C236.56 73.8299 236.411 73.6809 236.263 73.5319C232.822 75.3372 230.341 74.443 228.82 70.8493C228.37 68.6752 228.767 66.6883 230.01 64.8881C230.498 64.2222 231.143 63.8249 231.946 63.6958ZM233.434 65.7822C235.599 65.7638 236.691 66.8568 236.709 69.0609C236.634 70.8049 235.741 71.7986 234.03 72.0416C232.366 71.598 231.473 70.505 231.35 68.7629C231.474 67.3074 232.169 66.314 233.434 65.7822Z" fill="#1B5185"/>
<path fill-rule="evenodd" clip-rule="evenodd" d="M325.729 68.4651C325.345 67.942 325.047 67.3459 324.836 66.6767C324.389 66.8413 323.892 66.8413 323.347 66.6767C323.347 67.074 323.347 67.4717 323.347 67.869C321.054 67.7703 318.774 67.8699 316.499 68.167C316.097 68.5202 315.749 68.9179 315.457 69.3593C315.359 69.26 315.258 69.1605 315.16 69.0612C315.014 69.5483 314.963 70.0451 315.011 70.5515C314.091 67.176 315.282 64.841 318.583 63.5471C322.644 62.801 325.026 64.4404 325.729 68.4651ZM319.774 65.7825C320.385 65.8568 321.078 66.0058 321.858 66.2296C322.213 66.5334 322.51 66.8812 322.751 67.2729C321.063 67.6702 319.378 67.6702 317.69 67.2729C318.158 66.4001 318.851 65.9033 319.774 65.7825Z" fill="#255586"/>
<path fill-rule="evenodd" clip-rule="evenodd" d="M333.767 63.6958C334.66 63.6958 335.553 63.6958 336.447 63.6958C336.447 67.1733 336.447 70.6505 336.447 74.128C335.553 74.128 334.66 74.128 333.767 74.128C333.684 70.6064 333.684 67.1292 333.767 63.6958Z" fill="#0A4A7F"/>
<path fill-rule="evenodd" clip-rule="evenodd" d="M246.236 73.83C246.765 73.7448 247.262 73.546 247.725 73.2339C248.197 73.4908 248.694 73.6896 249.214 73.83C250.936 73.5603 251.631 72.5668 251.298 70.8494C251.694 70.8494 252.092 70.8494 252.489 70.8494C252.489 70.4521 252.489 70.0545 252.489 69.6572C252.092 69.6572 251.694 69.6572 251.298 69.6572C251.344 69.2479 251.295 68.8503 251.149 68.4649C250.782 69.2995 250.583 70.1937 250.553 71.1475C249.946 71.7883 249.201 72.0864 248.32 72.0417C250.62 70.3889 250.918 68.4017 249.214 66.0804C249.242 65.6974 249.242 65.2998 249.214 64.8882C249.838 65.4902 250.533 65.5898 251.298 65.1862C251 64.8882 250.702 64.5901 250.404 64.292C250.23 64.3543 250.081 64.4539 249.958 64.5901C249.097 63.8002 248.055 63.5022 246.832 63.6959C249.45 62.8923 251.385 63.7865 252.637 66.3785C253.643 69.1847 253.097 71.619 251 73.681C249.396 74.5895 247.808 74.6393 246.236 73.83Z" fill="#305C8B"/>
<path fill-rule="evenodd" clip-rule="evenodd" d="M352.226 69.0612C352.467 68.401 352.17 68.0034 351.333 67.8689C350.803 64.4448 352.292 63.004 355.799 63.547C358.347 64.4159 358.449 65.4591 356.097 66.6767C355.59 66.2174 355.043 65.8198 354.459 65.4844C354.078 65.5181 353.831 65.7169 353.715 66.0806C354.492 66.8687 355.385 67.5146 356.394 68.018C358.38 70.0052 358.38 71.992 356.394 73.9792C354.286 74.8019 352.402 74.4543 350.738 72.936C351.017 72.1584 351.515 71.5622 352.226 71.1476C352.741 71.6621 353.337 72.0594 354.013 72.3399C354.528 72.1831 354.924 71.885 355.203 71.4457C354.322 70.5083 353.331 69.7134 352.226 69.0612Z" fill="#235487"/>
<path opacity="0.994" fill-rule="evenodd" clip-rule="evenodd" d="M172.401 59.5229C173.294 59.5229 174.187 59.5229 175.08 59.5229C174.983 61.125 175.082 62.7146 175.378 64.292C176.65 63.4705 178.039 63.2222 179.546 63.5468C180.39 63.9939 181.035 64.6398 181.481 65.4842C181.63 68.3638 181.68 71.2452 181.63 74.128C180.737 74.128 179.844 74.128 178.951 74.128C179 72.0392 178.951 69.9528 178.802 67.8687C178.543 65.9805 177.6 65.4839 175.974 66.3784C175.585 66.7993 175.336 67.2961 175.229 67.8687C175.08 69.9528 175.031 72.0392 175.08 74.128C174.187 74.128 173.294 74.128 172.401 74.128C172.401 69.2598 172.401 64.3912 172.401 59.5229Z" fill="#134D82"/>
<path fill-rule="evenodd" clip-rule="evenodd" d="M198.303 63.6958C198.279 64.3414 198.081 64.9375 197.707 65.4842C198.005 66.0803 198.303 66.6764 198.601 67.2726C198.897 69.4493 198.997 71.6353 198.898 73.8299C198.104 73.8299 197.311 73.8299 196.517 73.8299C196.517 70.452 196.517 67.0737 196.517 63.6958C197.112 63.6958 197.707 63.6958 198.303 63.6958Z" fill="#064B82"/>
<path fill-rule="evenodd" clip-rule="evenodd" d="M312.331 66.0803C312.036 68.6091 311.935 71.1924 312.034 73.83C311.239 73.83 310.447 73.83 309.652 73.83C309.652 71.2466 309.652 68.6636 309.652 66.0803C308.66 66.0803 307.666 66.0803 306.674 66.0803C306.674 68.7629 306.674 71.4455 306.674 74.128C305.781 74.5253 304.888 74.5253 303.995 74.128C303.995 71.4455 303.995 68.7629 303.995 66.0803C303.498 66.0803 303.004 66.0803 302.506 66.0803C302.506 65.2854 302.506 64.4908 302.506 63.6958C303.004 63.6958 303.498 63.6958 303.995 63.6958C303.995 62.3048 303.995 60.914 303.995 59.5229C304.888 59.5229 305.781 59.5229 306.674 59.5229C306.674 60.914 306.674 62.3048 306.674 63.6958C307.666 63.6958 308.66 63.6958 309.652 63.6958C309.652 62.3048 309.652 60.914 309.652 59.5229C310.545 59.5229 311.438 59.5229 312.331 59.5229C312.331 60.914 312.331 62.3048 312.331 63.6958C312.828 63.6958 313.323 63.6958 313.82 63.6958C313.82 64.4908 313.82 65.2854 313.82 66.0803C313.323 66.0803 312.828 66.0803 312.331 66.0803Z" fill="#074B81"/>
<path fill-rule="evenodd" clip-rule="evenodd" d="M267.375 71.4454C267.803 71.8105 268.299 72.1086 268.864 72.3396C268.677 72.6129 268.577 72.911 268.566 73.2338C267.542 74.1879 266.302 74.5852 264.844 74.426C260.086 73.7503 258.399 71.0678 259.783 66.3784C261.847 63.3229 264.576 62.5778 267.97 64.1429C269.833 65.5122 270.627 67.3503 270.352 69.657C267.572 69.6076 264.793 69.657 262.016 69.8061C263.236 72.083 265.022 72.6293 267.375 71.4454ZM264.1 65.7822C265.611 65.672 266.802 66.2186 267.673 67.4216C265.787 67.6204 263.901 67.6204 262.016 67.4216C262.602 66.6797 263.297 66.1334 264.1 65.7822Z" fill="#1C5185"/>
<path fill-rule="evenodd" clip-rule="evenodd" d="M351.333 67.8687C352.17 68.0031 352.467 68.4007 352.226 69.0609C351.702 68.8338 351.404 68.4362 351.333 67.8687Z" fill="#6A8BAB"/>
<path opacity="0.973" fill-rule="evenodd" clip-rule="evenodd" d="M325.729 68.4651C325.729 68.8625 325.729 69.2601 325.729 69.6574C322.948 69.6079 320.17 69.6574 317.392 69.8064C318.131 71.4681 319.42 72.2133 321.263 72.0419C321.843 71.9605 322.29 72.159 322.602 72.638C323.046 72.024 323.594 71.9247 324.24 72.3399C323.493 72.8073 322.897 73.4034 322.454 74.1283C321.12 74.4705 319.729 74.5203 318.285 74.2774C316.535 73.5927 315.442 72.3507 315.011 70.5516C314.963 70.0452 315.014 69.5483 315.159 69.0613C315.258 69.1605 315.359 69.2601 315.457 69.3593C315.749 68.9179 316.097 68.5203 316.499 68.1671C318.774 67.8699 321.054 67.7703 323.347 67.869C323.347 67.4717 323.347 67.0741 323.347 66.6768C323.892 66.8413 324.389 66.8413 324.835 66.6768C325.047 67.3459 325.345 67.942 325.729 68.4651Z" fill="#124E84"/>
<path opacity="0.973" fill-rule="evenodd" clip-rule="evenodd" d="M349.547 68.465C349.547 68.8623 349.547 69.26 349.547 69.6573C346.715 69.5598 343.934 69.6591 341.21 69.9553C341.064 71.1008 340.469 71.4981 339.424 71.1476C339.623 70.9488 339.82 70.7503 340.019 70.5515C339.216 69.6224 338.82 68.5294 338.829 67.2728C339.948 67.3366 340.144 67.0385 339.424 66.3786C340.139 66.0138 340.832 66.0632 341.508 66.5276C341.029 66.8403 340.832 67.2874 340.913 67.8689C342.997 67.8689 345.081 67.8689 347.165 67.8689C347.165 67.4716 347.165 67.074 347.165 66.6767C347.71 66.8412 348.207 66.8412 348.653 66.6767C348.865 67.3458 349.163 67.9419 349.547 68.465Z" fill="#064B82"/>
<path fill-rule="evenodd" clip-rule="evenodd" d="M279.284 60.1191C281.073 60.0696 282.859 60.1194 284.643 60.2681C287.571 61.6753 288.067 63.6625 286.131 66.2294C288.438 67.5936 289.083 69.531 288.067 72.0416C286.968 73.537 285.479 74.3319 283.601 74.4261C282.271 74.1799 280.832 74.0803 279.284 74.128C279.284 69.4583 279.284 64.7888 279.284 60.1191ZM285.834 70.2532C285.539 70.6392 285.242 71.0365 284.94 71.4455C284.309 71.3933 283.714 71.4929 283.154 71.7435C282.73 71.4929 282.332 71.1948 281.963 70.8493C281.951 69.8416 282.05 68.8482 282.261 67.8687C283.321 67.8413 284.313 68.0896 285.238 68.6139C285.643 69.086 285.842 69.6327 285.834 70.2532ZM281.963 62.5036C283.195 62.3256 284.089 62.7727 284.643 63.8449C284.237 65.1429 283.343 65.6893 281.963 65.4842C281.963 64.4908 281.963 63.497 281.963 62.5036Z" fill="#1A5084"/>
<path opacity="0.982" fill-rule="evenodd" clip-rule="evenodd" d="M330.195 64.292C330.596 64.4494 330.992 64.4992 331.385 64.441C331.025 64.1749 331.025 63.9266 331.385 63.6959C332.377 63.8947 332.776 64.4908 332.576 65.4843C331.829 65.3513 331.234 65.5498 330.79 66.0804C330.364 66.5838 330.117 67.1799 330.046 67.8688C329.897 69.9528 329.846 72.0393 329.897 74.1281C329.004 74.1281 328.11 74.1281 327.217 74.1281C327.217 70.6506 327.217 67.1734 327.217 63.6959C328.283 63.616 329.278 63.8148 330.195 64.292Z" fill="#104B7F"/>
<path fill-rule="evenodd" clip-rule="evenodd" d="M155.431 71.4454C155.497 71.8135 155.695 72.1116 156.026 72.3396C155.358 72.9617 154.564 73.3593 153.644 73.5319C153.866 73.7351 154.064 73.934 154.24 74.128C149.804 75.2854 147.224 73.5963 146.499 69.0609C147.092 64.19 149.772 62.4514 154.538 63.8448C156.773 65.1399 157.765 67.0773 157.515 69.6571C154.734 69.6076 151.955 69.6571 149.179 69.8061C150.544 72.2222 152.429 72.6693 154.835 71.1474C155.039 71.2556 155.237 71.3548 155.431 71.4454ZM150.369 66.0803C151.466 66.0311 152.557 66.0806 153.644 66.2293C153.998 66.5331 154.296 66.8809 154.538 67.2726C153.083 67.4806 151.595 67.5799 150.072 67.5706C149.873 67.4714 149.675 67.3718 149.476 67.2726C149.781 66.8696 150.079 66.4723 150.369 66.0803Z" fill="#205487"/>
<path fill-rule="evenodd" clip-rule="evenodd" d="M218.25 64.2923C218.742 64.2446 219.139 64.0461 219.441 63.6961C224.211 62.8076 226.692 64.7948 226.884 69.6574C224.104 69.6079 221.325 69.6574 218.548 69.8064C219.913 72.2225 221.799 72.6696 224.205 71.1477C224.975 71.3546 225.67 71.7021 226.289 72.1909C224.491 74.2958 222.209 74.9912 219.441 74.2774C216.131 72.5864 215.089 69.9537 216.315 66.3787C216.811 65.5349 217.456 64.8395 218.25 64.2923ZM220.93 65.7826C222.2 65.7733 223.192 66.2699 223.907 67.2729C222.236 67.5274 220.599 67.627 218.995 67.5709C218.946 67.0085 219.194 66.5614 219.739 66.2297C220.203 66.1671 220.6 66.018 220.93 65.7826Z" fill="#205385"/>
<path opacity="0.871" fill-rule="evenodd" clip-rule="evenodd" d="M312.331 66.0806C312.382 68.8111 312.382 71.4937 312.331 74.1283C311.375 74.2207 310.482 74.1214 309.652 73.8302C310.447 73.8302 311.238 73.8302 312.033 73.8302C311.935 71.1926 312.036 68.6093 312.331 66.0806Z" fill="#1E4867"/>
<path fill-rule="evenodd" clip-rule="evenodd" d="M209.021 63.696C209.754 63.7797 210.399 64.0778 210.956 64.5901C211.1 64.3076 211.149 64.0095 211.105 63.696C211.998 63.696 212.891 63.696 213.784 63.696C213.784 66.9746 213.784 70.2533 213.784 73.532C213.361 74.1326 213.162 74.828 213.189 75.6185C212.594 75.8173 211.998 76.0158 211.403 76.2146C211.403 76.6119 211.403 77.0095 211.403 77.4068C210.486 77.4426 209.692 77.7407 209.021 78.301C206.301 78.718 204.316 77.7246 203.066 75.3204C204.044 74.9755 205.037 74.9258 206.044 75.1714C207.51 76.1255 208.999 76.1255 210.51 75.1714C211.59 73.3749 211.292 72.9776 209.616 73.9791C204.615 74.3353 202.481 72.0003 203.215 66.9746C203.369 66.0665 203.815 65.3711 204.555 64.8882C205.855 63.893 207.344 63.4954 209.021 63.696ZM208.128 65.7824C210.273 65.9976 211.215 67.1898 210.956 69.3591C210.802 70.1144 210.455 70.76 209.914 71.2966C208.922 71.4954 207.929 71.4954 206.937 71.2966C205.6 69.8691 205.451 68.3293 206.49 66.6766C207.002 66.2685 207.548 65.9705 208.128 65.7824Z" fill="#185084"/>
<path fill-rule="evenodd" clip-rule="evenodd" d="M297.445 64.2919C297.757 65.017 297.954 65.017 298.04 64.2919C298.782 63.7291 299.675 63.5303 300.72 63.6957C300.72 67.1732 300.72 70.6504 300.72 74.1279C299.999 74.0659 299.306 74.1655 298.636 74.426C298.198 74.1634 297.951 73.7661 297.891 73.2337C294.411 75.4266 291.83 74.632 290.151 70.8492C289.352 66.8799 290.841 64.2969 294.617 63.0996C295.667 63.2588 296.608 63.6564 297.445 64.2919ZM298.04 69.657C297.746 70.24 297.448 70.8361 297.147 71.4454C294.637 72.4734 293.149 71.629 292.681 68.9118C292.94 66.2126 294.331 65.3184 296.849 66.2293C297.632 67.2254 298.028 68.3682 298.04 69.657Z" fill="#1E5285"/>
<path opacity="0.027" fill-rule="evenodd" clip-rule="evenodd" d="M297.445 64.292C297.644 64.292 297.841 64.292 298.04 64.292C297.954 65.0172 297.757 65.0172 297.445 64.292Z" fill="#BEE9FA"/>
<path opacity="0.757" fill-rule="evenodd" clip-rule="evenodd" d="M191.753 69.6572C191.894 70.4957 191.597 71.0918 190.86 71.4456C191.16 70.8364 191.458 70.2402 191.753 69.6572Z" fill="#718FA8"/>
<path opacity="0.82" fill-rule="evenodd" clip-rule="evenodd" d="M298.04 69.6572C298.183 70.4957 297.886 71.0918 297.147 71.4456C297.448 70.8364 297.746 70.2402 298.04 69.6572Z" fill="#6C92B4"/>
<path opacity="0.337" fill-rule="evenodd" clip-rule="evenodd" d="M245.343 70.5513C245.762 70.6923 245.96 70.9903 245.939 71.4455C245.52 71.3045 245.321 71.0064 245.343 70.5513Z" fill="#97B2C2"/>
<path opacity="0.042" fill-rule="evenodd" clip-rule="evenodd" d="M281.963 70.8496C282.333 71.1951 282.73 71.4931 283.154 71.7438C282.757 71.7438 282.36 71.7438 281.963 71.7438C281.963 71.4457 281.963 71.1477 281.963 70.8496Z" fill="#DFFFFE"/>
<path opacity="0.514" fill-rule="evenodd" clip-rule="evenodd" d="M285.834 70.2534C285.956 70.9905 285.659 71.3878 284.94 71.4457C285.242 71.0367 285.539 70.6394 285.834 70.2534Z" fill="#9BB5C7"/>
<path fill-rule="evenodd" clip-rule="evenodd" d="M267.375 71.4455C268.265 71.2475 269.059 71.5456 269.757 72.3396C269.523 72.8726 269.127 73.1706 268.566 73.2338C268.577 72.911 268.677 72.613 268.863 72.3396C268.299 72.1087 267.803 71.8106 267.375 71.4455Z" fill="#547598"/>
<path fill-rule="evenodd" clip-rule="evenodd" d="M322.454 74.1281C322.897 73.4032 323.493 72.8071 324.24 72.3397C323.594 71.9245 323.046 72.0238 322.602 72.6378C322.29 72.1588 321.843 71.9603 321.263 72.0417C322.602 70.8599 323.892 70.9594 325.133 72.3397C324.392 73.1853 323.499 73.7815 322.454 74.1281Z" fill="#486D94"/>
<path fill-rule="evenodd" clip-rule="evenodd" d="M169.721 72.0415C169.094 72.8031 168.4 73.4985 167.637 74.128C164.881 74.9465 162.449 74.3503 160.343 72.3396C158.234 68.269 159.276 65.3381 163.469 63.5468C166.103 62.9256 168.336 63.5715 170.168 65.4842C170.373 65.7321 170.323 65.9307 170.019 66.0803C169.424 66.3783 168.828 66.6764 168.233 66.9745C166.384 65.4105 164.548 65.4105 162.725 66.9745C161.489 69.7658 162.383 71.4546 165.404 72.0415C166.463 71.9041 167.405 71.5068 168.233 70.8493C168.913 71.038 169.409 71.4353 169.721 72.0415Z" fill="#215487"/>
<path fill-rule="evenodd" clip-rule="evenodd" d="M338.829 67.2729C338.82 68.5296 339.216 69.6226 340.019 70.5516C339.82 70.7504 339.624 70.949 339.424 71.1478C340.469 71.4983 341.064 71.101 341.21 69.9555C342.628 72.2312 344.515 72.6285 346.867 71.1478C347.695 71.3233 348.388 71.7206 348.951 72.34C347.093 74.326 344.813 74.9716 342.104 74.2774C339.031 72.8372 337.938 70.5025 338.829 67.2729Z" fill="#285889"/>
<path fill-rule="evenodd" clip-rule="evenodd" d="M155.431 71.4458C155.995 71.6091 156.491 71.9072 156.919 72.34C156.184 73.1755 155.291 73.7716 154.24 74.1284C154.064 73.9343 153.865 73.7355 153.644 73.5322C154.564 73.3597 155.358 72.962 156.026 72.34C155.695 72.112 155.496 71.8139 155.431 71.4458Z" fill="#416791"/>
<path opacity="0.929" fill-rule="evenodd" clip-rule="evenodd" d="M169.722 72.0415C170.176 72.0466 170.325 72.2454 170.168 72.6376C169.479 73.4042 168.636 73.9011 167.637 74.1279C168.4 73.4984 169.095 72.8031 169.722 72.0415Z" fill="#597A9E"/>
<path opacity="0.827" fill-rule="evenodd" clip-rule="evenodd" d="M213.785 73.5322C213.883 74.3453 213.684 75.041 213.189 75.6187C213.162 74.8282 213.361 74.1328 213.785 73.5322Z" fill="#6B8BA9"/>
<path fill-rule="evenodd" clip-rule="evenodd" d="M213.189 75.6187C213.088 76.2681 212.79 76.8145 212.296 77.258C211.286 77.8768 210.194 78.2243 209.021 78.3012C209.692 77.7409 210.486 77.4428 211.403 77.407C211.403 77.0097 211.403 76.6121 211.403 76.2148C211.998 76.016 212.594 75.8175 213.189 75.6187Z" fill="#436A94"/>
</svg>
