<svg width="186" height="80" viewBox="0 0 186 80" fill="none" xmlns="http://www.w3.org/2000/svg">
<g clip-path="url(#clip0_4623_22004)">
<path opacity="0.948" fill-rule="evenodd" clip-rule="evenodd" d="M23.7334 0.175293C24.085 0.175293 24.4366 0.175293 24.7882 0.175293C25.868 3.34957 26.9815 6.50747 28.1285 9.64898C29.2877 14.4473 29.2877 19.2427 28.1285 24.0349C26.8557 27.2774 25.2147 30.3181 23.206 33.1577C19.8071 37.0174 16.4083 40.877 13.0094 44.7367C8.29749 53.2234 8.76629 61.4104 14.4158 69.2981C18.5737 73.6827 23.6719 76.1388 29.7107 76.6665C29.7107 77.7192 29.7107 78.7718 29.7107 79.8244C18.4941 79.4339 9.82107 74.5802 3.69179 65.263C-0.926772 55.7728 -0.985385 46.2409 3.51599 36.6665C7.18684 30.3556 11.6405 24.6244 16.8771 19.4735C19.7536 16.0734 22.0976 12.3307 23.9092 8.24547C24.5361 5.5447 24.4774 2.85466 23.7334 0.175293Z" fill="#01ACED"/>
<path opacity="0.949" fill-rule="evenodd" clip-rule="evenodd" d="M36.7429 0.175392C37.2685 0.145497 37.6201 0.379427 37.7977 0.877147C36.7393 3.1308 36.5635 5.46995 37.2703 7.89469C38.5955 11.2006 40.3535 14.2415 42.5444 17.0175C46.7788 21.8273 50.881 26.7396 54.8506 31.7543C61.3402 41.2519 62.7466 51.4273 59.0699 62.2807C53.2926 73.3852 44.0925 79.2333 31.4688 79.8245C31.4688 78.7719 31.4688 77.7193 31.4688 76.6666C43.0152 75.3782 49.6957 69.0042 51.5103 57.5438C51.7607 52.4884 50.413 47.8684 47.4669 43.6842C43.7124 39.5859 40.0792 35.3754 36.567 31.0526C33.2549 25.6115 31.7901 19.8221 32.172 13.6842C33.2377 9.03143 34.7615 4.52851 36.7429 0.175392Z" fill="#02ACED"/>
<path opacity="0.953" fill-rule="evenodd" clip-rule="evenodd" d="M154.883 18.0702C155.296 17.9934 155.648 18.1102 155.938 18.4211C154.834 22.3102 153.544 26.1113 152.07 29.8246C154.998 30 157.928 30.0583 160.86 30C161.024 29.4032 161.024 28.8769 160.86 28.4211C161.34 27.8597 161.692 27.2165 161.915 26.4913C168.353 23.5692 174.799 20.7622 181.253 18.0702C180.336 22.0646 179.164 25.9829 177.737 29.8246C180.43 30 183.126 30.0583 185.824 30C185.385 33.0393 184.565 35.9636 183.363 38.772C180.289 38.9029 177.3 39.2537 174.397 39.8246C172.408 46.0109 170.474 52.2099 168.596 58.4211C168.693 59.0632 168.927 59.6481 169.299 60.1755C170.887 60.7204 172.527 61.013 174.221 61.0527C174.405 61.2495 174.522 61.4836 174.573 61.7544C173.965 63.4218 173.437 65.1176 172.991 66.8422C172.585 67.2783 172.116 67.6292 171.584 67.8948C167.741 67.5467 163.757 67.5467 159.63 67.8948C155.361 67.8769 152.549 65.8885 151.191 61.9299C150.956 60.9941 150.956 60.0586 151.191 59.1229C153.172 52.4418 155.34 45.8337 157.696 39.2983C154.875 39.0064 152.063 39.065 149.257 39.4737C147.216 45.0646 145.282 50.6786 143.456 56.3158C143.221 57.4853 143.221 58.6551 143.456 59.8246C143.631 60 143.807 60.1755 143.983 60.3509C145.594 60.7527 147.235 60.9864 148.906 61.0527C149.066 61.1979 149.184 61.3734 149.257 61.579C148.419 63.465 147.716 65.3948 147.147 67.3685C141.756 67.6025 136.365 67.6025 130.974 67.3685C126.179 66.0172 124.48 62.9179 125.875 58.0702C127.817 51.8481 129.868 45.6492 132.028 39.4737C129.45 39.006 126.871 39.006 124.293 39.4737C125.36 48.6253 122.312 56.052 115.151 61.7544C111.244 64.2095 107.083 65.7885 102.669 66.4913C98.4433 67.4513 94.2827 67.919 90.1872 67.8948C90.6 65.5457 91.3616 63.2064 92.4726 60.8772C97.0702 59.8709 100.821 57.5316 103.724 53.8597C106.655 49.879 107.944 45.4344 107.592 40.5264C107.357 40.0586 107.006 39.7078 106.537 39.4737C103.036 39.4909 99.4612 39.4909 95.8129 39.4737C91.9586 52.1232 87.798 64.6379 83.3309 77.0176C82.4195 78.1622 81.3059 79.0393 79.9906 79.6492C75.3026 79.8832 70.6143 79.8832 65.9263 79.6492C65.7656 79.5039 65.6482 79.3285 65.5747 79.1229C70.3309 65.0832 74.9601 51.0481 79.4632 37.0176C80.2835 33.6264 82.3344 31.3457 85.6163 30.1755C89.484 29.9415 93.3516 29.9415 97.2193 30.1755C97.5537 30.4274 97.6121 30.7197 97.3951 31.0527C94.7328 32.8288 92.7989 35.1678 91.5936 38.0702C91.8847 38.3913 92.2363 38.625 92.6484 38.772C96.4975 33.1074 101.889 30.1832 108.822 30C112.331 30.2909 115.73 31.0513 119.019 32.2808C120.666 33.3579 122.013 34.7032 123.062 36.3158C123.586 34.1583 124.348 32.1113 125.348 30.1755C128.636 30.1165 131.917 29.9411 135.193 29.6492C135.425 28.4239 135.894 27.3127 136.599 26.3158C142.757 23.652 148.851 20.9036 154.883 18.0702Z" fill="#1B1464"/>
<path opacity="0.929" fill-rule="evenodd" clip-rule="evenodd" d="M30.0624 21.5791C30.414 21.5791 30.7656 21.5791 31.1172 21.5791C31.7536 24.9566 32.9843 28.1145 34.8091 31.0528C38.8962 36.1847 43.1155 41.2138 47.467 46.1405C52.8704 57.6335 50.2334 66.8145 39.5558 73.6844C30.4144 77.63 22.3861 75.9342 15.4707 68.5966C9.64922 60.4409 9.53203 52.2535 15.1191 44.0352C20.8019 38.8787 25.3727 32.9138 28.8318 26.1405C29.4077 24.6591 29.8181 23.1388 30.0624 21.5791Z" fill="#1F1564"/>
<path fill-rule="evenodd" clip-rule="evenodd" d="M28.6561 71.7543C27.8976 71.436 27.0773 71.2023 26.1948 71.0525C20.7178 69.5051 17.1431 65.9964 15.4708 60.5262C13.7409 50.3469 17.7843 43.7388 27.6012 40.7016C34.7431 39.8515 40.3101 42.3662 44.3026 48.2455C47.9125 55.883 46.6819 62.6083 40.6107 68.4209C37.0577 71.0616 33.0729 72.1729 28.6561 71.7543Z" fill="#EC1B24"/>
<path fill-rule="evenodd" clip-rule="evenodd" d="M26.1948 71.0527C27.0774 71.2026 27.8977 71.4362 28.6561 71.7545C27.9434 71.8113 27.2402 71.7527 26.5464 71.5791C26.3509 71.4447 26.2339 71.2692 26.1948 71.0527Z" fill="#721649"/>
</g>
<defs>
<clipPath id="clip0_4623_22004">
<rect width="186" height="80" fill="white"/>
</clipPath>
</defs>
</svg>
