<svg width="294" height="80" viewBox="0 0 294 80" fill="none" xmlns="http://www.w3.org/2000/svg">
<g clip-path="url(#clip0_4623_19421)">
<path fill-rule="evenodd" clip-rule="evenodd" d="M45.1626 45.7845C47.6897 45.7845 50.0756 45.1801 52.1862 44.1061L52.1903 44.0828C59.6345 40.2953 64.7079 32.7586 64.7079 24.0729C64.7079 13.1892 56.7274 4.09614 46.106 1.95392L45.8318 1.88651C44.7745 1.69588 42.5582 1.35705 41.444 1.35705H0V17.6224H40.0073C40.4198 17.6224 41.1483 17.7009 41.8535 17.7619C45.2764 18.1536 47.9343 21.0618 47.9343 24.5902C47.9343 28.1185 45.2764 31.0296 41.8535 31.4219C41.2662 31.4788 40.3942 31.5434 40.0143 31.5434H7.58829L7.5941 78.2438L24.9388 78.2205V46.6743H25.0567L46.7904 78.2205H67.3692L44.9197 45.7775L45.1626 45.7845ZM276.652 78.2141H294V1.78945H276.652V78.2141ZM97.3035 27.9703L113.505 1.77957H133.239L105.957 45.7578V78.2165H88.6027V45.7578L61.3523 1.77899H81.0858L97.3035 27.9703ZM229.857 56.3183L229.839 46.7016H242.751C243.514 46.7016 244.522 46.7789 245.463 46.869C249.399 47.0805 252.524 50.3444 252.524 54.3359C252.524 58.328 249.399 61.5884 245.463 61.8035C244.558 61.8778 243.651 61.9203 242.744 61.9307H229.839L229.857 56.7025L229.857 56.3183ZM212.492 56.6327V78.2275H241.784C244.148 78.2118 247.301 77.8945 248.257 77.7707C260.366 76.2097 269.712 66.2681 269.712 54.2191C269.714 50.5321 268.826 46.8993 267.124 43.6289L267.085 43.5499C265.771 41.0365 263.691 39.0066 261.148 37.7538H261.068C262.777 36.4562 264.148 34.7659 265.065 32.826L265.111 32.7743C266.278 30.3705 267.16 27.564 267.16 24.8412C267.16 12.4761 259.125 3.86076 247.311 2.28345C246.489 2.16605 243.949 1.79003 241.834 1.79003H207.435V18.0397H242.72C243.163 18.0397 244.17 18.1536 244.875 18.2141C248.345 18.5401 251.059 21.4611 251.059 25.0156C251.059 28.5706 248.345 31.4951 244.875 31.8212C244.2 31.9083 243.202 31.9833 242.733 31.9833H212.492V56.6327ZM124.673 40.0006C124.673 17.931 142.558 0.0366211 164.618 0.0366211C186.682 0.0366211 204.565 17.931 204.565 40.0006C204.565 62.0708 186.682 79.9629 164.618 79.9629C142.558 79.9629 124.672 62.0708 124.672 40.0006H124.673ZM164.618 62.5532C177.071 62.5532 187.163 52.4558 187.163 40.0006C187.163 27.5443 177.071 17.4463 164.618 17.4463C152.168 17.4463 142.076 27.5443 142.076 40.0006C142.076 52.4552 152.168 62.5532 164.618 62.5532Z" fill="#FF2E16"/>
</g>
<defs>
<clipPath id="clip0_4623_19421">
<rect width="294" height="80" fill="white"/>
</clipPath>
</defs>
</svg>
