<svg width="351" height="80" viewBox="0 0 351 80" fill="none" xmlns="http://www.w3.org/2000/svg">
<g clip-path="url(#clip0_4623_22973)">
<path opacity="0.769" fill-rule="evenodd" clip-rule="evenodd" d="M132.329 0.937686C202.297 -0.854189 272.059 2.06269 341.615 9.68769C342.854 9.76831 343.897 10.1852 344.743 10.9377C346.201 9.98019 347.452 10.1889 348.497 11.5627C349.13 11.0396 349.86 10.8314 350.687 10.9377C348.592 20.4883 347.341 30.1758 346.933 40.0002C347.501 49.7989 348.648 59.4864 350.374 69.0627C349.192 68.6946 347.941 68.4858 346.62 68.4377C345.536 69.7514 344.285 69.9596 342.866 69.0627C342.553 69.3752 342.241 69.6877 341.928 70.0002C271.658 78.0527 201.167 80.9696 130.452 78.7502C88.826 77.7708 47.5322 74.7496 6.56942 69.6877C5.59625 69.5489 4.76205 69.1321 4.06674 68.4377C3.14907 68.5771 2.21057 68.7852 1.25123 69.0627C0.611174 68.3752 0.29834 67.5421 0.31273 66.5627C4.02126 53.4396 4.95976 40.1064 3.12824 26.5627C2.45577 21.2802 1.51727 16.0721 0.31273 10.9377C1.34127 10.8039 2.27977 11.0127 3.12824 11.5627C4.39522 10.1721 5.85509 9.96331 7.50792 10.9377C7.82075 10.6252 8.13359 10.3127 8.44642 10.0002C49.7092 5.22581 91.0034 2.20519 132.329 0.937686Z" fill="#97261F"/>
<path fill-rule="evenodd" clip-rule="evenodd" d="M151.099 3.43757C137.859 4.10194 124.511 4.51882 111.056 4.68757C124.285 3.64319 137.632 3.22632 151.099 3.43757Z" fill="#AD8026"/>
<path fill-rule="evenodd" clip-rule="evenodd" d="M218.671 4.06226C224.624 3.85789 230.464 4.06601 236.19 4.68726C238.365 5.20164 240.66 5.51414 243.072 5.62476C238.28 5.93726 233.483 6.04101 228.682 5.93726C217.002 5.72914 205.324 5.52039 193.644 5.31226C181.238 4.79226 168.725 4.47976 156.104 4.37476C176.959 4.06226 197.814 3.95789 218.671 4.06226Z" fill="#C2DA2D"/>
<path fill-rule="evenodd" clip-rule="evenodd" d="M93.5373 5.3125C82.4304 6.94188 71.1684 7.775 59.7512 7.8125C70.915 6.90188 82.1771 6.06813 93.5373 5.3125Z" fill="#B6A429"/>
<path fill-rule="evenodd" clip-rule="evenodd" d="M151.099 3.43746C173.73 3.22996 196.254 3.43871 218.671 4.06246C197.815 3.95809 176.959 4.06246 156.104 4.37496C168.725 4.47996 181.238 4.79246 193.644 5.31246C141.18 4.68371 88.8318 6.76684 36.6017 11.5625C34.5057 11.6656 32.4202 11.5612 30.345 11.25C32.9954 11.0406 35.498 10.52 37.853 9.68746C45.114 8.64934 52.4135 8.02434 59.7514 7.81246C71.1686 7.77496 82.4306 6.94184 93.5375 5.31246C99.3618 4.80184 105.202 4.59371 111.056 4.68746C124.511 4.51871 137.859 4.10184 151.099 3.43746Z" fill="#BFCA2C"/>
<path fill-rule="evenodd" clip-rule="evenodd" d="M277.484 8.43772C280.619 8.33397 283.747 8.43835 286.869 8.75022C287.844 8.88147 288.678 9.19397 289.372 9.68772C285.288 9.5646 281.326 9.14772 277.484 8.43772Z" fill="#B7A729"/>
<path fill-rule="evenodd" clip-rule="evenodd" d="M193.644 5.31246C205.324 5.52058 217.002 5.72933 228.682 5.93746C244.853 6.72871 261.121 7.56246 277.484 8.43746C281.326 9.14746 285.289 9.56433 289.372 9.68746C307.997 10.9437 326.558 12.8187 345.056 15.3125C342.311 29.1993 341.894 43.1575 343.805 57.1875C343.626 59.2681 344.044 61.1431 345.056 62.8125C345.11 63.435 344.901 63.9556 344.43 64.375C312.656 68.5762 280.747 71.3887 248.703 72.8125C241.493 72.8193 234.402 73.2362 227.43 74.0625C191.558 74.8262 155.686 74.8262 119.816 74.0625C97.3515 73.0975 74.8274 71.6387 52.2433 69.6875C48.6386 68.7143 44.8846 68.2975 40.9813 68.4375C40.5641 68.4375 40.1471 68.4375 39.7299 68.4375C34.4564 67.2731 29.034 66.6481 23.4626 66.5625C22.8369 66.5625 22.2112 66.5625 21.5856 66.5625C17.5945 65.2743 13.4234 64.6493 9.07219 64.6875C8.02939 64.6875 6.98665 64.6875 5.94385 64.6875C8.33396 51.8218 8.95963 38.905 7.82085 25.9375C7.67607 22.9862 7.259 20.0693 6.56952 17.1875C6.77805 16.7706 6.98665 16.3543 7.19518 15.9375C12.3093 15.3018 17.3146 14.4687 22.2112 13.4375C23.5298 12.8325 24.9896 12.6237 26.5909 12.8125C30.0534 12.7075 33.3902 12.2906 36.6016 11.5625C88.8318 6.76683 141.18 4.68371 193.644 5.31246Z" fill="#97251D"/>
<path fill-rule="evenodd" clip-rule="evenodd" d="M129.201 7.81235C200.364 5.86673 271.273 8.99173 341.928 17.1874C339.487 32.3905 339.487 47.5986 341.928 62.8124C324.688 64.9099 307.378 66.6805 289.997 68.1249C210.521 73.733 131.061 73.5249 51.6177 67.4999C37.4582 65.6786 23.2764 64.1161 9.07227 62.8124C11.5749 47.6042 11.5749 32.3955 9.07227 17.1874C49.0765 12.463 89.119 9.33798 129.201 7.81235Z" fill="#CB0E0D"/>
<path fill-rule="evenodd" clip-rule="evenodd" d="M37.853 9.6875C35.498 10.52 32.9953 11.0406 30.3449 11.25C32.4202 11.5612 34.5057 11.6656 36.6016 11.5625C33.3903 12.2906 30.0534 12.7075 26.5909 12.8125C26.2966 12.0669 25.6709 11.65 24.7139 11.5625C20.1612 12.3912 15.573 12.8081 10.9492 12.8125C19.773 11.2769 28.7409 10.2356 37.853 9.6875Z" fill="#BAB52A"/>
<path fill-rule="evenodd" clip-rule="evenodd" d="M9.69777 12.8125C7.66841 13.4481 5.79141 14.2812 4.06675 15.3125C3.50115 14.8694 3.29261 14.2444 3.44108 13.4375C5.50998 13.0931 7.59559 12.885 9.69777 12.8125Z" fill="#B6A529"/>
<path fill-rule="evenodd" clip-rule="evenodd" d="M236.19 4.6875C273.442 6.04375 310.565 8.96 347.559 13.4375C346.025 20.215 345.191 27.09 345.056 34.0625C344.332 39.5775 344.228 45.2025 344.743 50.9375C344.862 53.6044 345.383 56.1044 346.308 58.4375C346.695 60.6213 347.112 62.8088 347.559 65C347.349 65.6437 346.931 65.9562 346.308 65.9375C344.069 65.9681 341.984 66.3844 340.051 67.1875C306.788 71.1056 273.419 73.8138 239.944 75.3125C240.852 74.8112 241.895 74.4987 243.072 74.375C241.838 74.0656 240.586 73.9613 239.318 74.0625C242.447 73.6456 245.575 73.2294 248.703 72.8125C280.747 71.3887 312.656 68.5762 344.431 64.375C344.901 63.9556 345.11 63.435 345.056 62.8125C344.946 60.7956 344.529 58.9206 343.805 57.1875C341.894 43.1575 342.311 29.1994 345.056 15.3125C326.558 12.8188 307.997 10.9437 289.372 9.6875C288.678 9.19375 287.844 8.88125 286.869 8.75C283.748 8.43812 280.619 8.33375 277.484 8.4375C261.121 7.5625 244.854 6.72875 228.682 5.9375C233.483 6.04125 238.28 5.9375 243.072 5.625C240.66 5.51437 238.365 5.20188 236.19 4.6875Z" fill="#BFCC2C"/>
<path fill-rule="evenodd" clip-rule="evenodd" d="M22.2112 13.4375C17.3146 14.4688 12.3092 15.3019 7.19516 15.9375C6.98662 16.3544 6.77802 16.7706 6.56949 17.1875C7.25897 20.0694 7.67604 22.9862 7.82082 25.9375C6.52425 22.5325 6.10718 18.9906 6.56949 15.3125C11.7443 14.4319 16.9582 13.8069 22.2112 13.4375Z" fill="#A96D25"/>
<path fill-rule="evenodd" clip-rule="evenodd" d="M39.1042 22.8124C46.2949 22.088 53.5941 21.9836 61.0026 22.4999C61.7766 22.6449 62.4023 22.9574 62.8796 23.4374C54.9731 22.8617 47.0482 22.6536 39.1042 22.8124Z" fill="#E2706A"/>
<path fill-rule="evenodd" clip-rule="evenodd" d="M321.281 24.6875C321.481 26.8112 321.273 28.895 320.655 30.9375C312.367 36.84 304.234 42.8812 296.254 49.0625C295.914 49.1 295.706 49.3081 295.628 49.6875C301.567 50.5137 307.407 50.5137 313.147 49.6875C313.355 49.6875 313.564 49.6875 313.773 49.6875C315.906 49.8444 317.991 49.6356 320.029 49.0625C320.647 51.105 320.855 53.1887 320.655 55.3125C319.457 55.135 318.415 55.3431 317.527 55.9375C307.099 57.6044 296.671 57.6044 286.243 55.9375C285.43 54.8606 285.013 53.5062 284.992 51.875C285.096 50.5206 285.2 49.1669 285.305 47.8125C291.363 43.5231 297.307 39.1481 303.136 34.6875C305.32 32.8681 307.614 31.2012 310.019 29.6875C310.358 29.65 310.567 29.4419 310.644 29.0625C304.607 28.3344 298.559 28.23 292.5 28.75C291.726 28.895 291.1 29.2075 290.623 29.6875C289.206 30.1369 287.747 30.345 286.243 30.3125C285.438 29.4556 285.021 28.3094 284.992 26.875C285.014 25.5662 285.223 24.3162 285.618 23.125C296.675 21.0775 307.728 21.0775 318.778 23.125C319.99 23.2012 320.824 23.7219 321.281 24.6875Z" fill="#FCF6F6"/>
<path fill-rule="evenodd" clip-rule="evenodd" d="M36.6017 22.8123C37.4359 22.8123 38.2702 22.8123 39.1044 22.8123C47.0484 22.6535 54.9732 22.8616 62.8798 23.4373C64.3101 23.4966 65.5614 23.9135 66.6338 24.6873C66.6338 26.5623 66.6338 28.4373 66.6338 30.3123C65.3825 30.3123 64.1311 30.3123 62.8798 30.3123C58.4382 29.3473 53.8501 28.931 49.1151 29.0623C45.6672 29.0629 42.3303 29.271 39.1044 29.6873C38.4902 31.851 38.2816 34.1429 38.4787 36.5623C47.6552 36.5623 56.8315 36.5623 66.0081 36.5623C66.2165 36.5623 66.4255 36.5623 66.6338 36.5623C67.0123 43.1816 66.595 49.6404 65.3825 55.9373C64.9651 55.9373 64.5485 55.9373 64.1311 55.9373C53.2558 56.9085 42.4108 56.7004 31.5964 55.3123C31.5964 53.4373 31.5964 51.5623 31.5964 49.6873C32.6392 49.6873 33.6819 49.6873 34.7247 49.6873C42.7418 50.4773 50.667 50.4773 58.5001 49.6873C59.1126 47.7341 59.3216 45.651 59.1258 43.4373C49.8509 42.8148 40.4658 42.6066 30.9707 42.8123C30.9707 36.5623 30.9707 30.3123 30.9707 24.0623C33.0238 24.1123 34.9008 23.6954 36.6017 22.8123Z" fill="#FEFCFC"/>
<path fill-rule="evenodd" clip-rule="evenodd" d="M92.9118 22.8125C92.9118 23.2294 92.9118 23.6456 92.9118 24.0625C92.9118 28.0206 92.9118 31.9794 92.9118 35.9375C100.309 36.5594 107.817 36.7675 115.436 36.5625C116.057 32.095 116.265 27.5119 116.062 22.8125C118.356 22.8125 120.65 22.8125 122.944 22.8125C122.944 34.0625 122.944 45.3125 122.944 56.5625C120.65 56.5625 118.356 56.5625 116.062 56.5625C116.265 52.0706 116.056 47.6956 115.436 43.4375C107.928 43.4375 100.42 43.4375 92.9118 43.4375C92.9118 48.0206 92.9118 52.6044 92.9118 57.1875C90.8265 57.1875 88.7405 57.1875 86.6552 57.1875C86.0295 57.1875 85.4038 57.1875 84.7782 57.1875C84.7782 54.4794 84.7782 51.7706 84.7782 49.0625C84.7782 47.1875 84.7782 45.3125 84.7782 43.4375C82.6928 43.4375 80.6068 43.4375 78.5215 43.4375C77.6875 43.4375 76.8528 43.4375 76.0188 43.4375C76.0188 41.1456 76.0188 38.8544 76.0188 36.5625C79.1471 36.5625 82.2755 36.5625 85.4038 36.5625C85.4038 31.9794 85.4038 27.3956 85.4038 22.8125C87.9065 22.8125 90.4092 22.8125 92.9118 22.8125Z" fill="#FDFAFA"/>
<path fill-rule="evenodd" clip-rule="evenodd" d="M176.751 24.0625C176.751 26.1456 176.751 28.2294 176.751 30.3125C174.437 30.28 172.143 30.0713 169.869 29.6875C162.89 29.0656 155.799 28.8575 148.596 29.0625C148.596 31.3544 148.596 33.6456 148.596 35.9375C155.575 36.5594 162.666 36.7675 169.869 36.5625C169.869 38.6456 169.869 40.7294 169.869 42.8125C162.666 42.6075 155.575 42.8156 148.596 43.4375C147.982 45.6013 147.773 47.8931 147.97 50.3125C150.056 50.3125 152.142 50.3125 154.227 50.3125C160.536 50.4488 166.793 50.0319 172.997 49.0625C174.173 48.5369 175.424 48.3281 176.751 48.4375C176.751 49.0625 176.751 49.6875 176.751 50.3125C176.751 52.1875 176.751 54.0625 176.751 55.9375C173.634 56.2831 170.506 56.4919 167.366 56.5625C158.571 56.7463 149.811 56.33 141.088 55.3125C140.474 53.1488 140.265 50.8569 140.462 48.4375C140.462 46.7706 140.462 45.1044 140.462 43.4375C137.96 43.4375 135.457 43.4375 132.954 43.4375C131.757 41.4475 131.34 39.1556 131.703 36.5625C134.831 36.5625 137.96 36.5625 141.088 36.5625C141.088 32.3956 141.088 28.2294 141.088 24.0625C146.64 22.5825 152.375 21.9575 158.294 22.1875C164.614 22.0363 170.767 22.6613 176.751 24.0625Z" fill="#FDF9F9"/>
<path fill-rule="evenodd" clip-rule="evenodd" d="M221.174 22.8127C213.447 22.739 205.731 22.9471 198.024 23.4377C202.577 22.5108 207.27 22.094 212.102 22.1877C215.238 22.1883 218.261 22.3965 221.174 22.8127Z" fill="#EEB9B9"/>
<path fill-rule="evenodd" clip-rule="evenodd" d="M221.174 22.8126C224.75 22.642 228.087 23.267 231.185 24.6876C231.185 26.5626 231.185 28.4376 231.185 30.3126C228.712 29.8301 226.209 29.622 223.677 29.6876C216.698 29.0657 209.606 28.8576 202.404 29.0626C202.404 31.5626 202.404 34.0626 202.404 36.5626C209.703 36.5626 217.003 36.5626 224.302 36.5626C224.302 38.8545 224.302 41.1457 224.302 43.4376C217.003 43.4376 209.703 43.4376 202.404 43.4376C202.404 45.5207 202.404 47.6045 202.404 49.6876C204.281 49.6876 206.158 49.6876 208.035 49.6876C214.43 50.4345 220.895 50.2264 227.431 49.0626C227.848 49.0626 228.265 49.0626 228.682 49.0626C229.308 49.0626 229.933 49.0626 230.559 49.0626C230.559 51.1457 230.559 53.2295 230.559 55.3126C229.751 55.1645 229.125 55.3726 228.682 55.9376C226.209 56.4201 223.707 56.6282 221.174 56.5626C213.238 56.6413 205.313 56.4332 197.398 55.9376C196.981 55.9376 196.564 55.9376 196.147 55.9376C195.526 56.0451 195.11 55.8363 194.896 55.3126C194.896 51.1457 194.896 46.9795 194.896 42.8126C191.767 42.8126 188.639 42.8126 185.511 42.8126C185.511 40.7295 185.511 38.6457 185.511 36.5626C188.639 36.5626 191.767 36.5626 194.896 36.5626C194.896 32.3957 194.896 28.2295 194.896 24.0626C195.784 23.4682 196.826 23.2601 198.024 23.4376C205.73 22.947 213.447 22.7388 221.174 22.8126Z" fill="#FDFAFA"/>
<path fill-rule="evenodd" clip-rule="evenodd" d="M274.356 23.4377C275.481 25.5195 275.897 27.8114 275.607 30.3127C274.773 30.3127 273.938 30.3127 273.104 30.3127C271.662 30.0045 270.202 29.7964 268.725 29.6877C266.348 29.0733 263.846 28.8645 261.217 29.0627C261.217 38.2295 261.217 47.3958 261.217 56.5627C258.922 56.5627 256.629 56.5627 254.334 56.5627C254.54 47.2858 254.332 38.1189 253.709 29.0627C249.597 28.8995 245.634 29.3164 241.821 30.3127C241.404 30.3127 240.987 30.3127 240.57 30.3127C239.957 28.3595 239.748 26.2764 239.944 24.0627C240.752 24.2108 241.377 24.0027 241.821 23.4377C252.588 21.802 263.433 21.802 274.356 23.4377Z" fill="#FEFBFB"/>
<path fill-rule="evenodd" clip-rule="evenodd" d="M36.6017 22.8126C34.9008 23.6957 33.0238 24.1126 30.9707 24.0626C32.6716 23.1795 34.5487 22.7626 36.6017 22.8126Z" fill="#EBA19F"/>
<path fill-rule="evenodd" clip-rule="evenodd" d="M115.436 22.1874C118.435 21.8142 121.146 22.2311 123.569 23.4374C123.569 23.6455 123.569 23.8542 123.569 24.0624C123.776 35.213 123.568 46.2549 122.944 57.1874C122.944 56.9792 122.944 56.7705 122.944 56.5624C122.944 45.3124 122.944 34.0624 122.944 22.8124C120.649 22.8124 118.356 22.8124 116.061 22.8124C116.265 27.5117 116.056 32.0949 115.436 36.5624C115.436 31.7705 115.436 26.9792 115.436 22.1874Z" fill="#DEAAAA"/>
<path fill-rule="evenodd" clip-rule="evenodd" d="M92.9119 24.0625C94.7889 24.0625 96.6659 24.0625 98.5429 24.0625C98.5429 28.0206 98.5429 31.9794 98.5429 35.9375C96.6659 35.9375 94.7889 35.9375 92.9119 35.9375C92.9119 31.9794 92.9119 28.0206 92.9119 24.0625Z" fill="#951B1D"/>
<path fill-rule="evenodd" clip-rule="evenodd" d="M123.569 24.0625C125.238 24.0625 126.906 24.0625 128.575 24.0625C128.575 36.7706 128.575 49.4794 128.575 62.1875C124.821 62.1875 121.067 62.1875 117.313 62.1875C117.313 60.5206 117.313 58.8544 117.313 57.1875C119.19 57.1875 121.067 57.1875 122.944 57.1875C123.568 46.255 123.776 35.2131 123.569 24.0625Z" fill="#951C1E"/>
<path fill-rule="evenodd" clip-rule="evenodd" d="M123.569 24.0625C123.569 23.8544 123.569 23.6456 123.569 23.4375C125.446 23.4375 127.323 23.4375 129.2 23.4375C129.2 36.5625 129.2 49.6875 129.2 62.8125C125.12 63.0144 121.157 62.8063 117.313 62.1875C121.067 62.1875 124.821 62.1875 128.575 62.1875C128.575 49.4794 128.575 36.7706 128.575 24.0625C126.906 24.0625 125.238 24.0625 123.569 24.0625Z" fill="#AB1315"/>
<path fill-rule="evenodd" clip-rule="evenodd" d="M241.821 23.4375C241.377 24.0025 240.752 24.2106 239.944 24.0625C239.748 26.2763 239.957 28.3594 240.57 30.3125C240.57 30.5206 240.57 30.7294 240.57 30.9375C239.366 28.7319 238.95 26.2319 239.318 23.4375C240.152 23.4375 240.987 23.4375 241.821 23.4375Z" fill="#E9B4B4"/>
<path fill-rule="evenodd" clip-rule="evenodd" d="M66.6336 24.6875C67.051 24.6875 67.2593 24.8956 67.2593 25.3125C67.2593 27.1875 67.2593 29.0625 67.2593 30.9375C65.6582 31.1262 64.1979 30.9175 62.8796 30.3125C64.131 30.3125 65.3823 30.3125 66.6336 30.3125C66.6336 28.4375 66.6336 26.5625 66.6336 24.6875Z" fill="#C57D7F"/>
<path fill-rule="evenodd" clip-rule="evenodd" d="M274.356 23.4377C275.406 23.3033 276.032 23.7202 276.233 24.6877C276.233 26.7708 276.233 28.8545 276.233 30.9377C275.034 31.1152 273.992 30.907 273.104 30.3127C273.938 30.3127 274.773 30.3127 275.607 30.3127C275.897 27.8114 275.481 25.5195 274.356 23.4377Z" fill="#E3AEAE"/>
<path fill-rule="evenodd" clip-rule="evenodd" d="M67.2593 25.3125C68.9524 25.3594 70.621 25.5675 72.2646 25.9375C72.2646 29.4794 72.2646 33.0206 72.2646 36.5625C70.1956 36.2181 68.1102 36.01 66.008 35.9375C66.008 36.1456 66.008 36.3544 66.008 36.5625C56.8313 36.5625 47.655 36.5625 38.4785 36.5625C38.2815 34.1431 38.4901 31.8512 39.1042 29.6875C47.0396 29.6087 54.9649 29.8169 62.8796 30.3125C64.1979 30.9175 65.6582 31.1262 67.2593 30.9375C67.2593 29.0625 67.2593 27.1875 67.2593 25.3125Z" fill="#991F21"/>
<path fill-rule="evenodd" clip-rule="evenodd" d="M177.377 24.6875C179.001 25.1656 180.67 25.3744 182.382 25.3125C182.588 29.0856 182.38 32.8356 181.757 36.5625C175.809 35.0925 169.761 34.4675 163.612 34.6875C160.484 34.7919 157.356 34.8956 154.227 35C153.879 35.2394 153.671 35.5519 153.602 35.9375C151.933 35.9375 150.265 35.9375 148.596 35.9375C148.596 33.6456 148.596 31.3544 148.596 29.0625C155.799 28.8575 162.89 29.0656 169.869 29.6875C172.173 30.7812 174.676 31.1981 177.377 30.9375C177.377 28.8544 177.377 26.7706 177.377 24.6875Z" fill="#982121"/>
<path fill-rule="evenodd" clip-rule="evenodd" d="M194.896 24.0625C194.896 28.2294 194.896 32.3956 194.896 36.5625C191.767 36.5625 188.639 36.5625 185.511 36.5625C188.307 35.9462 191.227 35.7381 194.27 35.9375C194.068 31.8612 194.276 27.9031 194.896 24.0625Z" fill="#DF6767"/>
<path fill-rule="evenodd" clip-rule="evenodd" d="M231.184 24.6875C232.834 25.1025 234.502 25.5194 236.19 25.9375C236.812 29.455 237.021 32.9963 236.815 36.5625C230.546 35.1 224.186 34.475 217.733 34.6875C214.263 34.6906 211.03 35.1075 208.035 35.9375C206.366 35.9375 204.698 35.9375 203.029 35.9375C203.029 33.8544 203.029 31.7706 203.029 29.6875C209.912 29.6875 216.794 29.6875 223.676 29.6875C225.657 30.2013 227.742 30.6181 229.933 30.9375C230.506 30.9106 230.923 30.7025 231.184 30.3125C231.184 28.4375 231.184 26.5625 231.184 24.6875Z" fill="#95191C"/>
<path fill-rule="evenodd" clip-rule="evenodd" d="M276.233 24.6875C277.946 24.9069 279.614 25.3238 281.238 25.9375C281.86 29.455 282.069 32.9963 281.864 36.5625C278.379 35.6894 274.834 35.2731 271.227 35.3125C269.909 34.7075 268.449 34.4987 266.847 34.6875C266.847 43.8544 266.847 53.0206 266.847 62.1875C263.093 62.1875 259.339 62.1875 255.585 62.1875C255.585 60.5206 255.585 58.8544 255.585 57.1875C257.462 57.1875 259.339 57.1875 261.216 57.1875C261.84 48.1313 262.048 38.9644 261.842 29.6875C264.136 29.6875 266.43 29.6875 268.724 29.6875C270.202 29.7962 271.661 30.0044 273.104 30.3125C273.992 30.9069 275.034 31.115 276.233 30.9375C276.233 28.8544 276.233 26.7706 276.233 24.6875Z" fill="#951A1D"/>
<path fill-rule="evenodd" clip-rule="evenodd" d="M321.281 24.6875C322.974 24.7344 324.642 24.9425 326.286 25.3125C326.491 28.6719 326.283 32.005 325.66 35.3125C319.36 40.1169 313.104 44.9088 306.89 49.6875C303.225 49.8888 299.679 49.6806 296.254 49.0625C304.234 42.8813 312.367 36.84 320.655 30.9375C321.273 28.895 321.481 26.8112 321.281 24.6875Z" fill="#951B1D"/>
<path fill-rule="evenodd" clip-rule="evenodd" d="M310.019 29.6876C303.651 28.9464 297.185 28.9464 290.623 29.6876C291.1 29.2076 291.726 28.8951 292.5 28.7501C298.559 28.2301 304.607 28.3345 310.644 29.0626C310.567 29.442 310.359 29.6501 310.019 29.6876Z" fill="#CC8F90"/>
<path fill-rule="evenodd" clip-rule="evenodd" d="M5.31812 24.6875C6.40534 27.6356 6.82247 30.7606 6.56945 34.0625C5.88585 31.0587 5.46871 27.9337 5.31812 24.6875Z" fill="#AF8726"/>
<path fill-rule="evenodd" clip-rule="evenodd" d="M39.1042 29.6877C42.3301 29.2714 45.667 29.0633 49.1149 29.0627C53.85 28.9314 58.438 29.3477 62.8796 30.3127C54.9649 29.817 47.0396 29.6089 39.1042 29.6877Z" fill="#CC8C8D"/>
<path fill-rule="evenodd" clip-rule="evenodd" d="M223.677 29.6876C216.794 29.6876 209.912 29.6876 203.029 29.6876C203.029 31.7707 203.029 33.8545 203.029 35.9376C204.698 35.9376 206.366 35.9376 208.035 35.9376C213.666 35.9376 219.297 35.9376 224.928 35.9376C224.928 36.5626 224.928 37.1876 224.928 37.8126C225.122 39.8207 224.913 41.6957 224.302 43.4376C224.302 41.1457 224.302 38.8545 224.302 36.5626C217.003 36.5626 209.703 36.5626 202.404 36.5626C202.404 34.0626 202.404 31.5626 202.404 29.0626C209.607 28.8576 216.698 29.0657 223.677 29.6876Z" fill="#CA7B7C"/>
<path fill-rule="evenodd" clip-rule="evenodd" d="M253.708 29.0625C254.332 38.1187 254.54 47.2856 254.334 56.5625C256.628 56.5625 258.922 56.5625 261.217 56.5625C261.217 56.7706 261.217 56.9794 261.217 57.1875C259.339 57.1875 257.462 57.1875 255.585 57.1875C255.377 57.1875 255.168 57.1875 254.96 57.1875C253.722 49.925 253.304 42.425 253.708 34.6875C253.708 33.0206 253.708 31.3544 253.708 29.6875C253.708 29.4794 253.708 29.2706 253.708 29.0625Z" fill="#F3DBDC"/>
<path fill-rule="evenodd" clip-rule="evenodd" d="M223.677 29.6876C226.209 29.622 228.712 29.8301 231.185 30.3126C230.924 30.7026 230.506 30.9107 229.933 30.9376C227.742 30.6182 225.657 30.2013 223.677 29.6876Z" fill="#CA8888"/>
<path fill-rule="evenodd" clip-rule="evenodd" d="M253.709 29.0627C253.709 29.2709 253.709 29.4796 253.709 29.6877C249.749 29.9377 245.786 30.1459 241.821 30.3127C245.634 29.3165 249.597 28.8996 253.709 29.0627Z" fill="#BC6B66"/>
<path fill-rule="evenodd" clip-rule="evenodd" d="M268.725 29.6876C266.43 29.6876 264.137 29.6876 261.842 29.6876C262.048 38.9645 261.84 48.1314 261.217 57.1876C261.217 56.9795 261.217 56.7707 261.217 56.5626C261.217 47.3957 261.217 38.2295 261.217 29.0626C263.846 28.8645 266.348 29.0732 268.725 29.6876Z" fill="#CD9192"/>
<path fill-rule="evenodd" clip-rule="evenodd" d="M141.088 24.0625C141.088 28.2294 141.088 32.3956 141.088 36.5625C137.96 36.5625 134.831 36.5625 131.703 36.5625C134.5 35.9462 137.42 35.7381 140.462 35.9375C140.26 31.8612 140.469 27.9031 141.088 24.0625Z" fill="#E8A09F"/>
<path fill-rule="evenodd" clip-rule="evenodd" d="M176.751 24.0625C177.169 24.0625 177.377 24.2706 177.377 24.6875C177.377 26.7706 177.377 28.8544 177.377 30.9375C174.676 31.1981 172.173 30.7812 169.869 29.6875C172.143 30.0712 174.438 30.28 176.751 30.3125C176.751 28.2294 176.751 26.1456 176.751 24.0625Z" fill="#B25553"/>
<path fill-rule="evenodd" clip-rule="evenodd" d="M310.019 29.6873C307.614 31.201 305.32 32.8679 303.136 34.6873C302.434 34.2773 301.6 34.0692 300.634 34.0623C295.812 34.551 291.015 35.176 286.243 35.9373C286.243 34.0623 286.243 32.1873 286.243 30.3123C287.747 30.3448 289.207 30.1367 290.623 29.6873C297.185 28.946 303.651 28.946 310.019 29.6873Z" fill="#951A1D"/>
<path fill-rule="evenodd" clip-rule="evenodd" d="M253.709 29.6875C253.709 31.3544 253.709 33.0206 253.709 34.6875C249.507 34.9525 245.44 35.7856 241.508 37.1875C241.396 34.9844 241.083 32.9006 240.57 30.9375C240.57 30.7294 240.57 30.5206 240.57 30.3125C240.987 30.3125 241.404 30.3125 241.821 30.3125C245.786 30.1456 249.749 29.9375 253.709 29.6875Z" fill="#951B1D"/>
<path fill-rule="evenodd" clip-rule="evenodd" d="M66.008 35.9374C58.4968 36.0418 50.9888 35.9374 43.4839 35.6249C46.2953 34.9118 49.2151 34.5993 52.2432 34.6874C56.9683 34.6236 61.5563 35.0405 66.008 35.9374Z" fill="#C40B0B"/>
<path fill-rule="evenodd" clip-rule="evenodd" d="M115.436 22.1875C115.436 26.9794 115.436 31.7706 115.436 36.5625C107.817 36.7675 100.309 36.5594 92.9119 35.9375C94.7889 35.9375 96.6659 35.9375 98.5429 35.9375C103.966 35.9375 109.388 35.9375 114.81 35.9375C114.607 31.2381 114.815 26.655 115.436 22.1875Z" fill="#D65857"/>
<path fill-rule="evenodd" clip-rule="evenodd" d="M92.9118 22.8126C90.4091 22.8126 87.9064 22.8126 85.4038 22.8126C85.4038 27.3957 85.4038 31.9794 85.4038 36.5626C82.2754 36.5626 79.1471 36.5626 76.0187 36.5626C76.0187 38.8544 76.0187 41.1457 76.0187 43.4376C76.8528 43.4376 77.6874 43.4376 78.5214 43.4376C78.3074 43.9613 77.8907 44.1701 77.2701 44.0626C76.6444 44.0626 76.0187 44.0626 75.3931 44.0626C75.3931 41.3544 75.3931 38.6457 75.3931 35.9376C78.5214 35.9376 81.6498 35.9376 84.7781 35.9376C84.7781 31.3544 84.7781 26.7707 84.7781 22.1876C87.6136 21.9888 90.3253 22.1969 92.9118 22.8126Z" fill="#E69594"/>
<path fill-rule="evenodd" clip-rule="evenodd" d="M66.6337 36.5625C67.158 36.7763 67.3669 37.1925 67.2593 37.8125C67.2593 43.8544 67.2593 49.8956 67.2593 55.9375C66.6337 55.9375 66.008 55.9375 65.3823 55.9375C66.5949 49.6406 67.0122 43.1819 66.6337 36.5625Z" fill="#C37779"/>
<path fill-rule="evenodd" clip-rule="evenodd" d="M170.495 37.8125C172.372 37.8125 174.249 37.8125 176.126 37.8125C175.947 41.4119 176.156 44.9531 176.751 48.4375C175.424 48.3281 174.173 48.5369 172.997 49.0625C169.98 48.6462 166.852 48.4381 163.612 48.4375C160.246 48.4412 157.117 48.8575 154.227 49.6875C152.35 49.6875 150.473 49.6875 148.596 49.6875C148.596 47.6044 148.596 45.5206 148.596 43.4375C155.896 43.4375 163.195 43.4375 170.495 43.4375C170.495 41.5625 170.495 39.6875 170.495 37.8125Z" fill="#94191C"/>
<path fill-rule="evenodd" clip-rule="evenodd" d="M224.928 37.8125C226.597 37.8125 228.265 37.8125 229.933 37.8125C229.933 41.3544 229.933 44.8956 229.933 48.4375C229.313 48.33 228.896 48.5387 228.682 49.0625C228.265 49.0625 227.848 49.0625 227.431 49.0625C224.309 48.6462 221.076 48.4381 217.733 48.4375C214.263 48.4406 211.031 48.8575 208.035 49.6875C206.158 49.6875 204.281 49.6875 202.404 49.6875C202.404 47.6044 202.404 45.5206 202.404 43.4375C209.703 43.4375 217.003 43.4375 224.302 43.4375C224.913 41.6956 225.122 39.8206 224.928 37.8125Z" fill="#941A1D"/>
<path fill-rule="evenodd" clip-rule="evenodd" d="M271.227 35.3124C269.976 35.3124 268.725 35.3124 267.473 35.3124C267.473 44.4792 267.473 53.6455 267.473 62.8124C263.302 62.8124 259.131 62.8124 254.96 62.8124C254.96 60.9374 254.96 59.0624 254.96 57.1874C255.168 57.1874 255.377 57.1874 255.586 57.1874C255.586 58.8542 255.586 60.5205 255.586 62.1874C259.34 62.1874 263.094 62.1874 266.848 62.1874C266.848 53.0205 266.848 43.8542 266.848 34.6874C268.449 34.4986 269.909 34.7074 271.227 35.3124Z" fill="#B31113"/>
<path fill-rule="evenodd" clip-rule="evenodd" d="M67.2594 37.8125C68.928 37.8125 70.596 37.8125 72.2647 37.8125C72.4662 45.4669 72.2572 53.0712 71.639 60.625C58.5181 63.4369 45.3793 63.5406 32.2219 60.9375C32.2219 59.4794 32.2219 58.0206 32.2219 56.5625C42.0128 57.2306 51.8147 57.3344 61.6283 56.875C62.6031 56.7437 63.4371 56.4312 64.131 55.9375C64.5483 55.9375 64.965 55.9375 65.3824 55.9375C66.008 55.9375 66.6337 55.9375 67.2594 55.9375C67.2594 49.8956 67.2594 43.8544 67.2594 37.8125Z" fill="#951A1D"/>
<path fill-rule="evenodd" clip-rule="evenodd" d="M30.9707 24.0625C30.9707 30.3125 30.9707 36.5625 30.9707 42.8125C40.4658 42.6069 49.8508 42.815 59.1257 43.4375C50.1578 43.4375 41.1899 43.4375 32.222 43.4375C31.5963 43.4375 30.9707 43.4375 30.345 43.4375C30.14 36.8663 30.3486 30.4081 30.9707 24.0625Z" fill="#E8B7B7"/>
<path fill-rule="evenodd" clip-rule="evenodd" d="M148.596 35.9375C150.265 35.9375 151.933 35.9375 153.602 35.9375C159.233 35.9375 164.864 35.9375 170.495 35.9375C170.495 36.5625 170.495 37.1875 170.495 37.8125C170.495 39.6875 170.495 41.5625 170.495 43.4375C163.195 43.4375 155.896 43.4375 148.596 43.4375C155.575 42.8156 162.666 42.6075 169.869 42.8125C169.869 40.7294 169.869 38.6456 169.869 36.5625C162.666 36.7675 155.575 36.5594 148.596 35.9375Z" fill="#DB9B9B"/>
<path fill-rule="evenodd" clip-rule="evenodd" d="M185.511 42.8125C188.639 42.8125 191.767 42.8125 194.896 42.8125C194.896 46.9794 194.896 51.1456 194.896 55.3125C194.281 53.1488 194.073 50.8569 194.27 48.4375C194.27 46.7706 194.27 45.1044 194.27 43.4375C191.976 43.4375 189.682 43.4375 187.388 43.4375C186.58 43.5856 185.954 43.3775 185.511 42.8125Z" fill="#D38484"/>
<path fill-rule="evenodd" clip-rule="evenodd" d="M115.436 43.4375C116.056 47.6956 116.265 52.0706 116.061 56.5625C118.356 56.5625 120.649 56.5625 122.944 56.5625C122.944 56.7706 122.944 56.9794 122.944 57.1875C121.067 57.1875 119.19 57.1875 117.313 57.1875C116.687 57.1875 116.061 57.1875 115.436 57.1875C115.436 52.6044 115.436 48.0206 115.436 43.4375Z" fill="#EFD1D1"/>
<path fill-rule="evenodd" clip-rule="evenodd" d="M32.2219 43.4375C41.1898 43.4375 50.1578 43.4375 59.1257 43.4375C59.3215 45.6513 59.1125 47.7344 58.5 49.6875C57.7861 49.1631 56.9521 48.7463 55.9973 48.4375C48.4791 48.2337 40.9711 48.4419 33.4733 49.0625C33.2647 49.0625 33.0561 49.0625 32.8476 49.0625C32.8476 48.6456 32.6391 48.4375 32.2219 48.4375C32.2219 46.7706 32.2219 45.1044 32.2219 43.4375Z" fill="#961B1E"/>
<path fill-rule="evenodd" clip-rule="evenodd" d="M78.5214 43.4375C80.6067 43.4375 82.6927 43.4375 84.778 43.4375C84.778 45.3125 84.778 47.1875 84.778 49.0625C82.2754 49.0625 79.7727 49.0625 77.27 49.0625C77.27 47.3956 77.27 45.7294 77.27 44.0625C77.8907 44.17 78.3074 43.9613 78.5214 43.4375Z" fill="#961A1C"/>
<path fill-rule="evenodd" clip-rule="evenodd" d="M115.436 43.4375C115.436 48.0206 115.436 52.6044 115.436 57.1875C114.819 54.3938 114.611 51.4769 114.81 48.4375C109.387 48.4375 103.965 48.4375 98.5427 48.4375C98.5427 53.2294 98.5427 58.0206 98.5427 62.8125C94.5804 62.8125 90.6174 62.8125 86.655 62.8125C86.655 60.9375 86.655 59.0625 86.655 57.1875C88.7404 57.1875 90.8264 57.1875 92.9117 57.1875C92.9117 52.6044 92.9117 48.0206 92.9117 43.4375C100.42 43.4375 107.928 43.4375 115.436 43.4375Z" fill="#971C1E"/>
<path fill-rule="evenodd" clip-rule="evenodd" d="M132.955 43.4375C135.457 43.4375 137.96 43.4375 140.463 43.4375C140.463 45.1044 140.463 46.7706 140.463 48.4375C137.96 48.4375 135.457 48.4375 132.955 48.4375C132.955 46.7706 132.955 45.1044 132.955 43.4375Z" fill="#94181C"/>
<path fill-rule="evenodd" clip-rule="evenodd" d="M187.388 43.4375C189.682 43.4375 191.976 43.4375 194.27 43.4375C194.27 45.1044 194.27 46.7706 194.27 48.4375C191.976 48.4375 189.682 48.4375 187.388 48.4375C187.388 46.7706 187.388 45.1044 187.388 43.4375Z" fill="#93171B"/>
<path fill-rule="evenodd" clip-rule="evenodd" d="M26.591 12.8125C24.9897 12.6237 23.5298 12.8325 22.2113 13.4375C16.9583 13.8069 11.7443 14.4319 6.56957 15.3125C6.10726 18.9906 6.52433 22.5325 7.82091 25.9375C8.95968 38.905 8.33402 51.8219 5.9439 64.6875C6.9867 64.6875 8.02944 64.6875 9.07224 64.6875C13.1001 65.7131 17.2713 66.3381 21.5856 66.5625C22.2113 66.5625 22.8369 66.5625 23.4626 66.5625C28.7564 67.5438 34.1789 68.1688 39.73 68.4375C40.1471 68.4375 40.5642 68.4375 40.9813 68.4375C44.6028 69.2562 48.3568 69.6731 52.2434 69.6875C74.8275 71.6387 97.3516 73.0975 119.816 74.0625C116.056 73.9588 112.302 74.0631 108.554 74.375C110.346 74.4894 112.014 74.8019 113.559 75.3125C87.832 74.7938 62.1796 73.1275 36.6017 70.3125C36.1246 69.8325 35.4989 69.52 34.7246 69.375C32.2306 69.0631 29.7279 68.9588 27.2166 69.0625C26.591 69.0625 25.9653 69.0625 25.3396 69.0625C24.8626 68.5825 24.2369 68.27 23.4626 68.125C21.1779 67.8131 18.8838 67.7094 16.5803 67.8125C13.6275 67.57 10.7077 67.1531 7.82091 66.5625C6.71685 65.9619 5.46551 65.7531 4.06689 65.9375C4.06689 65.3125 4.06689 64.6875 4.06689 64.0625C4.11388 62.3713 4.32242 60.7044 4.69256 59.0625C5.14405 58.8013 5.45688 58.385 5.63107 57.8125C6.27488 54.2981 6.58771 50.7562 6.56957 47.1875C6.56957 42.8125 6.56957 38.4375 6.56957 34.0625C6.82259 30.7606 6.40546 27.6356 5.31823 24.6875C5.06327 21.5394 4.64614 18.4144 4.06689 15.3125C5.79155 14.2812 7.66856 13.4481 9.69791 12.8125C10.115 12.8125 10.5321 12.8125 10.9492 12.8125C15.573 12.8081 20.1612 12.3913 24.714 11.5625C25.671 11.65 26.2966 12.0669 26.591 12.8125Z" fill="#C0CD2C"/>
<path fill-rule="evenodd" clip-rule="evenodd" d="M172.997 49.0625C166.793 50.0319 160.537 50.4488 154.227 50.3125C154.227 50.1044 154.227 49.8956 154.227 49.6875C157.117 48.8575 160.246 48.4413 163.612 48.4375C166.852 48.4381 169.98 48.6462 172.997 49.0625Z" fill="#C72B25"/>
<path fill-rule="evenodd" clip-rule="evenodd" d="M227.43 49.0625C220.895 50.2262 214.43 50.4344 208.035 49.6875C211.03 48.8575 214.263 48.4406 217.733 48.4375C221.076 48.4381 224.309 48.6462 227.43 49.0625Z" fill="#C72A24"/>
<path fill-rule="evenodd" clip-rule="evenodd" d="M345.056 34.0625C344.874 42.2244 345.292 50.3494 346.308 58.4375C345.383 56.1044 344.862 53.6044 344.743 50.9375C344.228 45.2025 344.332 39.5775 345.056 34.0625Z" fill="#B08B27"/>
<path fill-rule="evenodd" clip-rule="evenodd" d="M32.222 48.4375C32.6391 48.4375 32.8477 48.6456 32.8477 49.0625C32.222 49.0625 31.5963 49.0625 30.9707 49.0625C30.9707 51.1456 30.9707 53.2294 30.9707 55.3125C30.3565 53.1488 30.1479 50.8569 30.345 48.4375C30.9707 48.4375 31.5963 48.4375 32.222 48.4375Z" fill="#E79494"/>
<path fill-rule="evenodd" clip-rule="evenodd" d="M33.4731 49.0624C40.971 48.4418 48.479 48.2337 55.9972 48.4374C56.952 48.7462 57.786 49.163 58.4999 49.6874C50.6668 50.4774 42.7416 50.4774 34.7245 49.6874C34.5107 49.1637 34.0936 48.9549 33.4731 49.0624Z" fill="#CB322A"/>
<path fill-rule="evenodd" clip-rule="evenodd" d="M148.596 43.4375C148.596 45.5206 148.596 47.6044 148.596 49.6875C150.473 49.6875 152.35 49.6875 154.227 49.6875C154.227 49.8956 154.227 50.1044 154.227 50.3125C152.142 50.3125 150.056 50.3125 147.971 50.3125C147.773 47.8931 147.982 45.6012 148.596 43.4375Z" fill="#D9A6A6"/>
<path fill-rule="evenodd" clip-rule="evenodd" d="M296.254 49.0625C299.68 49.6806 303.225 49.8888 306.89 49.6875C308.976 49.6875 311.062 49.6875 313.147 49.6875C307.407 50.5138 301.567 50.5138 295.628 49.6875C295.706 49.3081 295.914 49.1 296.254 49.0625Z" fill="#C46869"/>
<path fill-rule="evenodd" clip-rule="evenodd" d="M321.281 50.3125C321.281 52.1875 321.281 54.0625 321.281 55.9375C320.029 55.9375 318.778 55.9375 317.527 55.9375C318.415 55.3431 319.457 55.135 320.655 55.3125C320.855 53.1887 320.647 51.105 320.029 49.0625C317.991 49.6356 315.906 49.8444 313.773 49.6875C316.147 48.9894 318.65 48.5731 321.281 48.4375C321.281 49.0625 321.281 49.6875 321.281 50.3125Z" fill="#E9B6B5"/>
<path fill-rule="evenodd" clip-rule="evenodd" d="M228.682 49.0626C228.896 48.5388 229.313 48.3301 229.933 48.4376C230.902 48.6382 231.319 49.2632 231.185 50.3126C231.185 52.1876 231.185 54.0626 231.185 55.9376C230.351 55.9376 229.516 55.9376 228.682 55.9376C229.125 55.3726 229.751 55.1644 230.559 55.3126C230.559 53.2294 230.559 51.1457 230.559 49.0626C229.933 49.0626 229.308 49.0626 228.682 49.0626Z" fill="#D59899"/>
<path fill-rule="evenodd" clip-rule="evenodd" d="M196.147 55.9375C196.564 55.9375 196.981 55.9375 197.398 55.9375C201.948 56.8856 206.641 57.3025 211.476 57.1875C214.819 57.1869 218.052 56.9788 221.174 56.5625C223.706 56.6281 226.209 56.42 228.682 55.9375C229.516 55.9375 230.35 55.9375 231.184 55.9375C231.184 54.0625 231.184 52.1875 231.184 50.3125C233.037 49.7981 234.914 49.3812 236.815 49.0625C236.815 52.8125 236.815 56.5625 236.815 60.3125C223.262 62.8125 209.706 62.8125 196.147 60.3125C196.147 58.8544 196.147 57.3956 196.147 55.9375Z" fill="#961A1C"/>
<path fill-rule="evenodd" clip-rule="evenodd" d="M326.286 57.8125C325.785 58.7762 325.577 59.8175 325.661 60.9375C315.056 62.1169 304.42 62.4294 293.751 61.875C291.197 61.5437 288.694 61.0231 286.243 60.3125C286.243 58.8544 286.243 57.3956 286.243 55.9375C296.671 57.6044 307.099 57.6044 317.527 55.9375C318.778 55.9375 320.03 55.9375 321.281 55.9375C321.281 54.0625 321.281 52.1875 321.281 50.3125C322.974 50.2656 324.643 50.0575 326.286 49.6875C326.286 52.3956 326.286 55.1044 326.286 57.8125Z" fill="#95191C"/>
<path fill-rule="evenodd" clip-rule="evenodd" d="M142.34 55.9375C150.715 57.2931 159.057 57.5012 167.366 56.5625C170.506 56.4919 173.634 56.2831 176.751 55.9375C176.751 54.0625 176.751 52.1875 176.751 50.3125C178.64 50.185 180.517 49.9769 182.382 49.6875C182.753 53.5194 182.335 57.165 181.131 60.625C168.159 62.8112 155.229 62.7069 142.34 60.3125C142.34 58.8544 142.34 57.3956 142.34 55.9375Z" fill="#951A1C"/>
<path fill-rule="evenodd" clip-rule="evenodd" d="M6.56963 47.1875C6.58778 50.7562 6.27494 54.2981 5.63113 57.8125C5.45694 58.385 5.14411 58.8013 4.69263 59.0625C5.07009 54.9831 5.69576 51.0244 6.56963 47.1875Z" fill="#B5A129"/>
<path fill-rule="evenodd" clip-rule="evenodd" d="M32.8477 49.0626C33.0562 49.0626 33.2648 49.0626 33.4734 49.0626C34.0938 48.9551 34.5109 49.1638 34.7247 49.6876C33.6819 49.6876 32.6392 49.6876 31.5964 49.6876C31.5964 51.5626 31.5964 53.4376 31.5964 55.3126C42.4108 56.7007 53.2558 56.9088 64.1311 55.9376C63.4373 56.4313 62.6032 56.7438 61.6285 56.8751C51.8148 57.3344 42.0129 57.2307 32.222 56.5626C31.8049 56.1457 31.3878 55.7294 30.9707 55.3126C30.9707 53.2294 30.9707 51.1457 30.9707 49.0626C31.5964 49.0626 32.222 49.0626 32.8477 49.0626Z" fill="#EAC6C6"/>
<path fill-rule="evenodd" clip-rule="evenodd" d="M141.088 55.3125C149.811 56.33 158.571 56.7463 167.366 56.5625C159.057 57.5013 150.715 57.2931 142.339 55.9375C141.719 56.045 141.302 55.8363 141.088 55.3125Z" fill="#E5BBBB"/>
<path fill-rule="evenodd" clip-rule="evenodd" d="M197.398 55.9375C205.313 56.4331 213.238 56.6413 221.174 56.5625C218.052 56.9787 214.82 57.1869 211.476 57.1875C206.641 57.3025 201.948 56.8856 197.398 55.9375Z" fill="#E3B8B8"/>
<path fill-rule="evenodd" clip-rule="evenodd" d="M326.286 57.8127C329.519 57.1827 330.562 58.3283 329.414 61.2502C328.102 61.6739 326.85 61.5695 325.66 60.9377C325.577 59.8177 325.785 58.7764 326.286 57.8127Z" fill="#E27674"/>
<path fill-rule="evenodd" clip-rule="evenodd" d="M343.805 57.1875C344.529 58.9206 344.946 60.7956 345.056 62.8125C344.044 61.1431 343.627 59.2681 343.805 57.1875Z" fill="#AB7625"/>
<path fill-rule="evenodd" clip-rule="evenodd" d="M9.07227 64.6877C13.4235 64.6496 17.5946 65.2746 21.5856 66.5627C17.2713 66.3383 13.1001 65.7133 9.07227 64.6877Z" fill="#A86925"/>
<path fill-rule="evenodd" clip-rule="evenodd" d="M4.06691 64.0625C4.06691 64.6875 4.06691 65.3125 4.06691 65.9375C5.46553 65.7531 6.71686 65.9619 7.82092 66.5625C6.36105 66.5625 4.90111 66.5625 3.44124 66.5625C3.27369 65.5631 3.48222 64.73 4.06691 64.0625Z" fill="#B39527"/>
<path fill-rule="evenodd" clip-rule="evenodd" d="M23.4626 66.5625C29.0341 66.6481 34.4565 67.2731 39.73 68.4375C34.1789 68.1688 28.7564 67.5438 23.4626 66.5625Z" fill="#A66025"/>
<path fill-rule="evenodd" clip-rule="evenodd" d="M346.307 65.9375C344.403 66.8819 342.317 67.2988 340.051 67.1875C341.983 66.3844 344.069 65.9681 346.307 65.9375Z" fill="#AD7F26"/>
<path fill-rule="evenodd" clip-rule="evenodd" d="M16.5803 67.8125C18.8838 67.7093 21.178 67.8131 23.4627 68.125C24.2369 68.27 24.8626 68.5825 25.3397 69.0625C22.2929 68.9437 19.3731 68.5275 16.5803 67.8125Z" fill="#B5A028"/>
<path fill-rule="evenodd" clip-rule="evenodd" d="M27.2166 69.0627C29.7279 68.959 32.2305 69.0633 34.7246 69.3752C35.4988 69.5202 36.1245 69.8327 36.6016 70.3127C33.3519 70.1621 30.2235 69.7458 27.2166 69.0627Z" fill="#B6A229"/>
<path fill-rule="evenodd" clip-rule="evenodd" d="M40.9812 68.4375C44.8845 68.2975 48.6385 68.7144 52.2432 69.6875C48.3567 69.6732 44.6027 69.2563 40.9812 68.4375Z" fill="#AA6E26"/>
<path fill-rule="evenodd" clip-rule="evenodd" d="M248.703 72.8125C245.575 73.2294 242.446 73.6456 239.318 74.0625C235.356 74.0625 231.393 74.0625 227.43 74.0625C234.402 73.2362 241.493 72.8194 248.703 72.8125Z" fill="#B39A28"/>
<path fill-rule="evenodd" clip-rule="evenodd" d="M119.815 74.0627C155.686 74.8265 191.558 74.8265 227.43 74.0627C231.393 74.0627 235.356 74.0627 239.318 74.0627C240.586 73.9615 241.838 74.0658 243.072 74.3752C241.895 74.499 240.852 74.8115 239.944 75.3127C197.808 76.8721 155.679 76.8721 113.559 75.3127C112.014 74.8021 110.346 74.4896 108.553 74.3752C112.302 74.0633 116.056 73.959 119.815 74.0627Z" fill="#C0D02D"/>
</g>
<defs>
<clipPath id="clip0_4623_22973">
<rect width="351" height="80" fill="white"/>
</clipPath>
</defs>
</svg>
