<svg width="86" height="80" viewBox="0 0 86 80" fill="none" xmlns="http://www.w3.org/2000/svg">
<g clip-path="url(#clip0_4623_19781)">
<path opacity="0.996" fill-rule="evenodd" clip-rule="evenodd" d="M44.6008 0.0750998C57.4713 0.904843 68.0355 6.23816 76.2943 16.0751C84.2264 25.9799 87.2947 37.2485 85.4996 49.8807C85.375 50.605 85.225 51.3243 85.0494 52.0375C80.7424 55.3002 76.3728 58.4766 71.9417 61.5673C71.3039 67.0017 70.6615 72.4357 70.0156 77.8682C62.8399 77.8301 55.6273 77.8301 48.378 77.8682C48.1574 77.9083 47.9323 77.9334 47.7026 77.9434C46.4319 79.2325 44.8895 79.9096 43.075 79.9748C41.2509 79.9166 39.708 79.2395 38.4473 77.9434C38.2346 77.9334 38.026 77.9083 37.8219 77.8682C30.5392 77.8065 23.31 77.8065 16.1343 77.8682C15.4729 72.4523 14.831 67.0183 14.2082 61.5673C9.78975 58.4786 5.42892 55.3107 1.12557 52.0626C-0.902564 42.9896 0.0563436 34.1035 4.00224 25.4043C8.4939 15.9857 15.4064 8.9554 24.7393 4.31334C31.04 1.30314 37.6603 -0.109607 44.6008 0.0750998Z" fill="#ED1C23"/>
<path opacity="0.2" fill-rule="evenodd" clip-rule="evenodd" d="M44.6008 0.0249023C44.6674 0.0583569 44.6674 0.0583569 44.6008 0.0249023V0.0249023Z" fill="#EC1B22"/>
<path fill-rule="evenodd" clip-rule="evenodd" d="M43.0501 54.6459C43.0421 54.7477 43.0501 54.848 43.0751 54.9468C43.1447 54.8074 43.1697 54.6569 43.1502 54.4954C43.722 39.2808 44.3059 24.0666 44.9012 8.8528C44.9372 8.64064 44.9707 8.42331 45.0013 8.20076C45.0323 8.20633 45.0573 8.22303 45.0763 8.25092C45.4035 8.12493 45.7367 8.09147 46.0769 8.15061C46.3606 8.10707 46.6357 8.07362 46.9024 8.05029C47.129 8.08239 47.3541 8.1158 47.5778 8.15061C47.6138 8.12257 47.6558 8.10587 47.7028 8.10045C48.84 8.19319 49.9406 8.34366 51.0048 8.55186C51.1408 8.62273 51.2909 8.65619 51.455 8.65217C52.7788 8.98943 54.0465 9.48267 55.2572 10.1318C55.4754 10.2693 55.692 10.4114 55.9076 10.5581C55.9241 10.5999 55.9411 10.6417 55.9576 10.6835C53.0364 25.2148 50.1348 39.752 47.2526 54.2948C47.1695 54.5872 47.1115 54.8882 47.0775 55.1976C47.1685 54.9504 47.2436 54.6996 47.3026 54.4453C51.2834 40.4675 55.2607 26.4905 59.2345 12.5142C59.6643 12.4931 60.0895 12.5516 60.5103 12.6898C61.2392 12.9384 61.9396 13.2393 62.6115 13.5926C64.5211 14.7383 66.2471 16.1177 67.7895 17.7305C68.0942 18.0571 68.3358 18.4249 68.5149 18.834C62.6775 31.3234 56.8406 43.8124 51.0048 56.3011C50.8902 56.4305 50.8317 56.581 50.8297 56.7525C50.9317 56.6151 51.0068 56.4646 51.0548 56.3011C57.5956 44.9543 64.1244 33.6021 70.6412 22.2447C70.6757 22.2017 70.7172 22.1683 70.7662 22.1443C71.4601 22.5806 72.052 23.1323 72.5423 23.7995C73.9656 25.7164 75.1333 27.7896 76.0443 30.0189C76.298 30.5752 76.398 31.1437 76.3445 31.7243C69.0362 40.6638 61.7405 49.6087 54.4568 58.5581C54.3767 58.6635 54.2852 58.7638 54.1816 58.8591C54.1481 58.8927 54.1481 58.9258 54.1816 58.9594C54.2987 58.85 54.4072 58.7332 54.5068 58.6083C61.9766 51.002 69.448 43.3951 76.9198 35.787C76.9854 35.8277 77.0439 35.8779 77.0949 35.9374C78.3827 38.6333 78.883 41.4754 78.5958 44.4641C78.4662 45.6653 78.2661 46.8521 77.9954 48.0252C73.6749 51.1535 69.3559 54.2798 65.0379 57.4045C64.4891 61.6332 63.9558 65.8635 63.437 70.0942C63.4185 70.1403 63.3935 70.182 63.3619 70.2196C58.1364 70.2065 52.9249 70.198 47.7279 70.1945C47.6413 70.2321 47.5492 70.2572 47.4527 70.2697C46.4806 71.1981 45.38 71.9334 44.1508 72.4766C43.632 72.6903 43.0982 72.7405 42.5498 72.6271C41.105 72.1631 39.8543 71.3937 38.7977 70.3199C38.7051 70.2778 38.6136 70.2361 38.5225 70.1945C33.2674 70.2426 28.0059 70.2592 22.7383 70.2447C22.241 65.9397 21.6907 61.6433 21.0874 57.3544C16.7568 54.2587 12.4458 51.1319 8.15485 47.9751C7.48196 45.3303 7.34858 42.6552 7.75461 39.95C7.93162 38.9094 8.21513 37.9063 8.60511 36.9406C8.77886 36.5253 8.97898 36.1241 9.20546 35.7368C16.6988 43.4081 24.2117 51.0487 31.7436 58.6584C24.4438 49.6573 17.1311 40.6628 9.80581 31.6741C9.77244 31.4902 9.77244 31.3063 9.80581 31.1224C9.97626 30.3758 10.2264 29.6569 10.5562 28.9657C11.5357 26.8493 12.753 24.8932 14.2084 23.0973C14.5406 22.7015 14.9328 22.3838 15.384 22.1443C15.5366 22.289 15.6617 22.4562 15.7593 22.6459C22.2055 33.8657 28.6508 45.084 35.0955 56.3011C35.157 56.4415 35.2321 56.5754 35.3206 56.7023C35.3186 56.5308 35.2601 56.3803 35.1455 56.2509C33.7092 53.1312 32.2584 50.0215 30.793 46.9218C30.785 46.839 30.7515 46.7718 30.6929 46.7211C27.6902 40.2995 24.6885 33.8795 21.6877 27.461C21.6797 27.378 21.6462 27.3112 21.5877 27.2603C20.2979 24.4405 18.9806 21.6317 17.6354 18.834C17.7894 18.5075 17.9816 18.2066 18.2107 17.9312C20.1003 15.8766 22.2931 14.2298 24.7895 12.9907C25.4799 12.663 26.1968 12.4875 26.9408 12.4641C30.9111 26.4944 34.8969 40.5216 38.8977 54.5456C38.9402 54.7828 38.9988 55.0171 39.0728 55.2478C39.0913 54.9825 39.0498 54.7317 38.9477 54.4954C38.7406 53.2977 38.507 52.1105 38.2473 50.9343C38.2513 50.7698 38.2178 50.6193 38.1473 50.4829C36.9591 44.5525 35.7749 38.6173 34.5952 32.6773C34.5992 32.5127 34.5657 32.3622 34.4952 32.2258C33.6982 28.1192 32.8807 24.0231 32.0437 19.9374C32.0412 19.758 32.0077 19.5908 31.9437 19.4359C31.9412 19.2564 31.9077 19.0892 31.8436 18.9343C31.2973 16.1543 30.7555 13.3789 30.2177 10.6083C31.2718 9.84159 32.431 9.28154 33.6947 8.92804C35.6163 8.36989 37.5674 8.07733 39.5481 8.05029C40.1109 8.09468 40.6692 8.16159 41.2241 8.25092C41.8414 23.7638 42.4503 39.2288 43.0501 54.6459Z" fill="#FED400"/>
<path fill-rule="evenodd" clip-rule="evenodd" d="M45.0011 8.20068C44.9706 8.42323 44.937 8.64056 44.901 8.85272C44.871 8.61227 44.9045 8.39494 45.0011 8.20068Z" fill="#F88A0F"/>
<path fill-rule="evenodd" clip-rule="evenodd" d="M51.0046 8.55159C51.1687 8.54758 51.3188 8.58103 51.4549 8.65191C51.2908 8.65592 51.1407 8.62246 51.0046 8.55159Z" fill="#F57314"/>
<path fill-rule="evenodd" clip-rule="evenodd" d="M31.8435 18.9341C31.9075 19.089 31.941 19.2562 31.9435 19.4356C31.868 19.283 31.8345 19.1157 31.8435 18.9341Z" fill="#F67514"/>
<path fill-rule="evenodd" clip-rule="evenodd" d="M31.9436 19.4355C32.0076 19.5905 32.0411 19.7577 32.0436 19.9371C31.9681 19.7844 31.9346 19.6172 31.9436 19.4355Z" fill="#F67514"/>
<path fill-rule="evenodd" clip-rule="evenodd" d="M21.5876 27.2603C21.6462 27.3111 21.6797 27.378 21.6877 27.4609C21.6076 27.4214 21.5741 27.3545 21.5876 27.2603Z" fill="#F78610"/>
<path fill-rule="evenodd" clip-rule="evenodd" d="M34.4949 32.2256C34.5655 32.362 34.599 32.5124 34.595 32.677C34.5245 32.5406 34.4909 32.3902 34.4949 32.2256Z" fill="#F57314"/>
<path opacity="0.2" fill-rule="evenodd" clip-rule="evenodd" d="M0.0251105 41.5049C0.0763903 41.5248 0.0847452 41.5582 0.0501251 41.6052C0.0269116 41.5754 0.0185567 41.5419 0.0251105 41.5049Z" fill="#EC1B22"/>
<path fill-rule="evenodd" clip-rule="evenodd" d="M30.6929 46.7212C30.7514 46.7718 30.7849 46.8391 30.7929 46.9218C30.7129 46.8822 30.6793 46.8155 30.6929 46.7212Z" fill="#F78610"/>
<path fill-rule="evenodd" clip-rule="evenodd" d="M38.1473 50.4829C38.2178 50.6193 38.2514 50.7698 38.2474 50.9343C38.1768 50.7979 38.1433 50.6474 38.1473 50.4829Z" fill="#F57314"/>
<path fill-rule="evenodd" clip-rule="evenodd" d="M43.1502 54.4951C43.1697 54.6566 43.1447 54.8071 43.0751 54.9465C43.0501 54.8477 43.0421 54.7474 43.0501 54.6456C43.0836 54.5954 43.1166 54.5453 43.1502 54.4951Z" fill="#F8960B"/>
<path fill-rule="evenodd" clip-rule="evenodd" d="M38.9477 54.4951C39.0498 54.7314 39.0913 54.9821 39.0728 55.2475C38.9988 55.0167 38.9402 54.7825 38.8977 54.5453C38.9312 54.5453 38.9477 54.5287 38.9477 54.4951Z" fill="#F67914"/>
<path fill-rule="evenodd" clip-rule="evenodd" d="M47.2525 54.2944C47.2405 54.3591 47.2575 54.4093 47.3025 54.4449C47.2435 54.6992 47.1684 54.95 47.0774 55.1973C47.1114 54.8878 47.1694 54.5868 47.2525 54.2944Z" fill="#F56E16"/>
<path fill-rule="evenodd" clip-rule="evenodd" d="M35.1455 56.251C35.2601 56.3804 35.3186 56.5309 35.3206 56.7024C35.232 56.5755 35.157 56.4416 35.0955 56.3011C35.129 56.3011 35.1455 56.2846 35.1455 56.251Z" fill="#F67614"/>
<path fill-rule="evenodd" clip-rule="evenodd" d="M51.0047 56.3008C51.0212 56.3008 51.0382 56.3008 51.0547 56.3008C51.0067 56.4643 50.9316 56.6148 50.8296 56.7522C50.8316 56.5807 50.8901 56.4302 51.0047 56.3008Z" fill="#F67813"/>
<path fill-rule="evenodd" clip-rule="evenodd" d="M54.4565 58.5581C54.4565 58.5917 54.4731 58.6083 54.5066 58.6083C54.407 58.7332 54.2985 58.85 54.1814 58.9594C54.1479 58.9258 54.1479 58.8927 54.1814 58.859C54.2849 58.7637 54.3765 58.6634 54.4565 58.5581Z" fill="#F57015"/>
<path fill-rule="evenodd" clip-rule="evenodd" d="M31.7434 58.6582C31.8395 58.7289 31.931 58.8127 32.0186 58.909C32.0521 58.9426 32.0521 58.9757 32.0186 59.0093C31.896 58.912 31.8039 58.7951 31.7434 58.6582Z" fill="#F57316"/>
<path opacity="0.2" fill-rule="evenodd" clip-rule="evenodd" d="M42.3496 79.9248C42.4161 79.9584 42.4161 79.9584 42.3496 79.9248V79.9248Z" fill="#EC1B22"/>
</g>
<defs>
<clipPath id="clip0_4623_19781">
<rect width="86" height="80" fill="white"/>
</clipPath>
</defs>
</svg>
