<svg width="84" height="80" viewBox="0 0 84 80" fill="none" xmlns="http://www.w3.org/2000/svg">
<g clip-path="url(#clip0_4623_24670)">
<path opacity="0.983" fill-rule="evenodd" clip-rule="evenodd" d="M7.71429 0.0317792C29.3651 0.0212536 51.0159 0.0317792 72.6667 0.0633499C75.8019 0.542314 78.0984 2.17347 79.5556 4.9568C79.9581 5.84217 80.2121 6.76826 80.3175 7.73502C80.36 29.2452 80.36 50.7553 80.3175 72.2654C79.8584 75.5626 78.1124 77.9096 75.0794 79.3057C74.2965 79.5948 73.4927 79.8057 72.6667 79.9371C51.0159 79.9794 29.3651 79.9794 7.71429 79.9371C4.59556 79.4686 2.29925 77.8376 0.825405 75.0436C0.416389 74.1596 0.162421 73.234 0.0635002 72.2654C0.021151 50.7553 0.021151 29.2452 0.0635002 7.73502C0.42477 4.87831 1.8322 2.69996 4.28572 1.19989C5.37239 0.625755 6.51525 0.236382 7.71429 0.0317792Z" fill="#FFFCFD"/>
<path fill-rule="evenodd" clip-rule="evenodd" d="M72.6031 1.29459C50.8456 1.27379 29.0889 1.29483 7.33325 1.35773C7.40366 1.30785 7.4883 1.27628 7.58722 1.26302C18.4232 1.25249 29.2592 1.24197 40.0952 1.23145C50.9415 1.23145 61.7777 1.25249 72.6031 1.29459Z" fill="#F37391"/>
<path fill-rule="evenodd" clip-rule="evenodd" d="M72.6031 1.29437C75.4635 1.70125 77.4844 3.21664 78.6666 5.84055C78.7511 6.11262 78.8247 6.38621 78.8889 6.66138C78.8946 6.80572 78.9371 6.93201 79.0158 7.04023C78.9955 7.1823 79.0273 7.30858 79.1111 7.41908C79.1428 29.0555 79.1536 50.6919 79.1428 72.3283C79.0533 72.5001 79.0108 72.6895 79.0158 72.8966C78.3244 75.784 76.5466 77.6675 73.6825 78.5477C73.3028 78.6191 72.9219 78.6822 72.5396 78.7372C50.9524 78.7795 29.3651 78.7795 7.77775 78.7372C4.96912 78.357 2.96912 76.8947 1.77775 74.3488C1.68823 74.071 1.59299 73.7976 1.49204 73.528C1.49775 73.3607 1.45547 73.2129 1.36505 73.086C1.31007 72.7526 1.25712 72.4161 1.20632 72.0758C1.16397 50.755 1.16397 29.4344 1.20632 8.11363C1.53959 5.00374 3.15864 2.84643 6.06347 1.64165C6.48302 1.52656 6.90632 1.43185 7.33331 1.35752C29.089 1.29462 50.8457 1.27358 72.6031 1.29437Z" fill="#EB184A"/>
<path fill-rule="evenodd" clip-rule="evenodd" d="M78.8889 6.66162C78.9886 6.76277 79.0311 6.88906 79.0159 7.04047C78.9372 6.93224 78.8946 6.80596 78.8889 6.66162Z" fill="#F89BB0"/>
<path fill-rule="evenodd" clip-rule="evenodd" d="M66.3176 13.1647C50.4128 13.2279 34.4972 13.2489 18.5715 13.2279C18.8131 12.9145 19.1094 12.6515 19.4604 12.4386C22.8679 12.4176 26.2752 12.3965 29.6826 12.3755C30.1353 12.161 30.5798 11.9295 31.016 11.6809C35.6299 11.6599 40.2433 11.6388 44.8572 11.6178C45.5322 11.4395 46.2096 11.2816 46.889 11.1442C47.1804 11.1201 47.456 11.057 47.7144 10.9548C48.1417 10.8236 48.5861 10.7394 49.0477 10.7022C49.2484 10.6713 49.4388 10.6292 49.6192 10.5759C49.6401 10.5759 49.6617 10.5759 49.6826 10.5759C49.9499 10.5622 50.2039 10.5202 50.4446 10.4497C54.3385 9.79419 58.1899 9.97313 62.0001 10.9864C63.5601 11.4988 64.9988 12.2249 66.3176 13.1647Z" fill="#FFFDFD"/>
<path fill-rule="evenodd" clip-rule="evenodd" d="M50.4445 10.4498C50.2039 10.5203 49.9499 10.5624 49.6826 10.5761C49.9182 10.4728 50.1721 10.4307 50.4445 10.4498Z" fill="#F68DA5"/>
<path fill-rule="evenodd" clip-rule="evenodd" d="M49.619 10.5761C49.4387 10.6294 49.2482 10.6715 49.0476 10.7024C49.0546 10.6634 49.0755 10.6319 49.1111 10.6077C49.2794 10.5763 49.4482 10.5658 49.619 10.5761Z" fill="#F36E8B"/>
<path fill-rule="evenodd" clip-rule="evenodd" d="M47.7143 10.9551C47.4559 11.0572 47.1803 11.1204 46.8889 11.1445C47.1442 11.0262 47.4191 10.9631 47.7143 10.9551Z" fill="#F9A9BA"/>
<path fill-rule="evenodd" clip-rule="evenodd" d="M66.3176 13.165C66.3519 13.1688 66.3734 13.1899 66.3811 13.2282C50.4338 13.3123 34.4972 13.3123 18.5715 13.2282C34.4972 13.2492 50.4128 13.2282 66.3176 13.165Z" fill="#F9B8C8"/>
<path fill-rule="evenodd" clip-rule="evenodd" d="M69.5556 17.2691C51.0051 17.2901 32.4654 17.2691 13.9365 17.2059C13.9871 16.8707 14.1563 16.6077 14.4445 16.4167C17.6405 16.4061 20.8362 16.3746 24.0318 16.322C24.2106 16.1125 24.4011 15.9125 24.6032 15.7221C28.9841 15.7011 33.3651 15.68 37.746 15.659C38.226 15.0553 38.8191 14.5923 39.5238 14.2699C48.8781 14.2278 58.233 14.2278 67.5873 14.2699C68.0845 14.8907 68.5822 15.5117 69.0794 16.1325C69.2921 16.4917 69.4508 16.8705 69.5556 17.2691Z" fill="#FEFEFE"/>
<path fill-rule="evenodd" clip-rule="evenodd" d="M13.9365 17.2061C32.4654 17.2692 51.0051 17.2902 69.5556 17.2692C60.2857 17.3113 51.0051 17.3323 41.7143 17.3323C32.4337 17.3113 23.1535 17.2902 13.873 17.2692C13.8809 17.2309 13.9021 17.2098 13.9365 17.2061Z" fill="#F37190"/>
<path fill-rule="evenodd" clip-rule="evenodd" d="M35.5239 18.2794C41.27 18.2373 47.0268 18.2163 52.7938 18.2163C58.5715 18.2163 64.3284 18.2584 70.0636 18.3426C58.555 18.2795 47.0414 18.2585 35.5239 18.2794Z" fill="#FBD4DD"/>
<path fill-rule="evenodd" clip-rule="evenodd" d="M35.5238 18.2793C47.0413 18.2584 58.555 18.2794 70.0635 18.3425C70.3835 19.1323 70.574 19.9531 70.635 20.805C70.635 20.9523 70.635 21.0997 70.635 21.247C65.6616 21.247 60.6877 21.247 55.7143 21.247C54.5842 19.9641 53.2083 19.6169 51.5873 20.2051C51.0756 20.4933 50.6102 20.8405 50.1905 21.247C37.4077 21.2575 24.6244 21.247 11.8413 21.2154C11.8972 21.1298 11.9184 21.0351 11.9048 20.9313C11.9952 20.804 12.0375 20.6567 12.0318 20.4893C12.0388 20.4503 12.06 20.4187 12.0953 20.3946C15.3333 20.363 18.5714 20.3525 21.8096 20.363C21.8378 20.121 21.9225 19.9 22.0635 19.7C26.254 19.679 30.4445 19.6579 34.635 19.6369C34.8451 19.1231 35.1416 18.6706 35.5238 18.2793Z" fill="#FFFEFE"/>
<path fill-rule="evenodd" clip-rule="evenodd" d="M12.0318 20.4893C12.0375 20.6567 11.9952 20.804 11.9048 20.9312C11.8991 20.7638 11.9414 20.6165 12.0318 20.4893Z" fill="#F9B0C1"/>
<path fill-rule="evenodd" clip-rule="evenodd" d="M11.9048 20.9312C11.9184 21.035 11.8972 21.1297 11.8413 21.2153C24.6244 21.2469 37.4077 21.2574 50.1905 21.2469C37.3969 21.31 24.5927 21.331 11.7778 21.31C11.7839 21.1657 11.8262 21.0394 11.9048 20.9312Z" fill="#FAC4D1"/>
<path fill-rule="evenodd" clip-rule="evenodd" d="M70.635 20.8052C70.6966 20.9597 70.7182 21.1281 70.6985 21.3103C65.6928 21.3313 60.6985 21.3102 55.7144 21.2472C60.6877 21.2472 65.6617 21.2472 70.635 21.2472C70.635 21.0999 70.635 20.9525 70.635 20.8052Z" fill="#FAC2CF"/>
<path fill-rule="evenodd" clip-rule="evenodd" d="M49.5555 23.0782C49.5136 23.2347 49.492 23.4031 49.492 23.5834C49.4786 23.834 49.5212 24.0654 49.619 24.2779C49.6088 24.3646 49.6196 24.4488 49.6507 24.5305C49.8329 24.763 49.9707 25.0156 50.0634 25.2882C37.217 25.2882 24.3703 25.2882 11.5237 25.2882C11.451 25.0196 11.4086 24.746 11.3967 24.4673C14.7407 24.4673 18.0845 24.4673 21.4285 24.4673C21.4285 24.2989 21.4285 24.1306 21.4285 23.9622C21.4149 23.8584 21.4361 23.7637 21.492 23.6781C25.5554 23.6465 29.619 23.636 33.6824 23.6465C33.7224 23.1895 33.8285 22.7475 33.9999 22.3205C39.2272 22.2574 44.4545 22.2364 49.6824 22.2574C49.6399 22.531 49.598 22.8046 49.5555 23.0782Z" fill="#FEFCFC"/>
<path fill-rule="evenodd" clip-rule="evenodd" d="M70.3809 25.2881C65.7034 25.2881 61.0266 25.2881 56.3492 25.2881C56.3492 25.1408 56.3492 24.9934 56.3492 24.8461C56.3917 24.6156 56.4126 24.3735 56.4126 24.12C56.419 23.6954 56.3765 23.2849 56.2857 22.8887C56.2882 22.6753 56.2672 22.4648 56.2222 22.2573C61.0476 22.2573 65.873 22.2573 70.6984 22.2573C70.6761 23.2767 70.5701 24.287 70.3809 25.2881Z" fill="#FEFEFE"/>
<path fill-rule="evenodd" clip-rule="evenodd" d="M49.5556 23.0781C49.5499 23.4799 49.5709 23.8798 49.6191 24.2778C49.5213 24.0653 49.4788 23.8339 49.4921 23.5833C49.4921 23.403 49.5137 23.2346 49.5556 23.0781Z" fill="#F47995"/>
<path fill-rule="evenodd" clip-rule="evenodd" d="M56.2856 22.8887C56.3764 23.2849 56.419 23.6953 56.4126 24.1199C56.4126 24.3734 56.3917 24.6155 56.3491 24.8461C56.3472 24.1929 56.3256 23.5404 56.2856 22.8887Z" fill="#F04E72"/>
<path fill-rule="evenodd" clip-rule="evenodd" d="M21.4285 23.9619C21.4285 24.1303 21.4285 24.2986 21.4285 24.467C18.0845 24.467 14.7407 24.467 11.3967 24.467C14.7087 24.404 18.0315 24.3829 21.365 24.4039C21.3458 24.2423 21.367 24.095 21.4285 23.9619Z" fill="#FAC1CF"/>
<path fill-rule="evenodd" clip-rule="evenodd" d="M56.3491 24.8462C56.3491 24.9935 56.3491 25.1409 56.3491 25.2882C61.0266 25.2882 65.7034 25.2882 70.3809 25.2882C65.6932 25.3513 60.9948 25.3723 56.2856 25.3513C56.2659 25.1692 56.2875 25.0008 56.3491 24.8462Z" fill="#EF5177"/>
<path fill-rule="evenodd" clip-rule="evenodd" d="M12.4761 28.5085C15.82 28.4664 19.1639 28.4243 22.5078 28.3822C22.4347 28.1545 22.3712 27.923 22.3173 27.6876C26.275 27.6876 30.2329 27.6876 34.1904 27.6876C34.2056 27.6061 34.184 27.543 34.1269 27.4982C34.0342 27.0792 33.9497 26.6583 33.8729 26.2354C39.9046 26.2249 45.9364 26.2354 51.9681 26.267C52.37 26.4564 52.7726 26.6458 53.1745 26.8352C55.1929 27.5232 57.1821 28.2809 59.1427 29.1083C59.1961 29.1722 59.217 29.2459 59.2062 29.3293C43.7351 29.3503 28.2644 29.3293 12.7935 29.2662C12.712 29.0016 12.6062 28.749 12.4761 28.5085Z" fill="#FFFBFB"/>
<path opacity="0.996" fill-rule="evenodd" clip-rule="evenodd" d="M34.1269 27.498C34.184 27.5428 34.2056 27.606 34.1904 27.6875C30.2329 27.6875 26.275 27.6875 22.3174 27.6875C26.2649 27.6664 30.2012 27.6032 34.1269 27.498Z" fill="#ED305E"/>
<path fill-rule="evenodd" clip-rule="evenodd" d="M22.5078 28.3819C19.1639 28.424 15.82 28.4661 12.4761 28.5082C12.4416 28.5044 12.4205 28.4834 12.4126 28.445C15.7774 28.3819 19.1425 28.3609 22.5078 28.3819Z" fill="#F694AC"/>
<path fill-rule="evenodd" clip-rule="evenodd" d="M61.4287 30.276C52.8255 30.255 44.2331 30.276 35.6509 30.3392C35.6166 30.3354 35.595 30.3143 35.5874 30.276C44.2115 30.1918 52.8255 30.1918 61.4287 30.276Z" fill="#F9BAC9"/>
<path fill-rule="evenodd" clip-rule="evenodd" d="M61.4285 30.2764C62.6977 31.001 63.8088 31.927 64.7618 33.0547C64.7929 33.1363 64.8037 33.2205 64.7936 33.3072C48.4761 33.3282 32.1586 33.3072 15.8412 33.2441C15.6216 32.9958 15.4522 32.7222 15.3333 32.4232C18.8254 32.4338 22.3174 32.4232 25.8094 32.3917C25.7749 32.3464 25.7326 32.3148 25.6825 32.297C25.6244 32.1546 25.5397 32.0284 25.4285 31.9181C25.4285 31.855 25.4285 31.7918 25.4285 31.7287C29.1853 31.7497 32.9313 31.7286 36.6666 31.6655C36.6456 31.6024 36.6031 31.5603 36.5396 31.5393C36.2279 31.1506 35.9313 30.7507 35.6507 30.3396C44.2329 30.2764 52.8253 30.2554 61.4285 30.2764Z" fill="#FEFCFD"/>
<path opacity="0.996" fill-rule="evenodd" clip-rule="evenodd" d="M36.5396 31.5391C36.6031 31.5601 36.6456 31.6022 36.6666 31.6653C32.8996 31.6653 29.1322 31.6653 25.365 31.6653C29.0899 31.6232 32.8145 31.5812 36.5396 31.5391Z" fill="#ED2C5B"/>
<path fill-rule="evenodd" clip-rule="evenodd" d="M25.3651 31.6655C29.1322 31.6655 32.8997 31.6655 36.6666 31.6655C32.9314 31.7286 29.1853 31.7496 25.4285 31.7287C25.4285 31.7918 25.4285 31.855 25.4285 31.9181C25.3692 31.8507 25.348 31.7665 25.3651 31.6655Z" fill="#F8ACBE"/>
<path fill-rule="evenodd" clip-rule="evenodd" d="M25.6825 32.2969C25.7326 32.3147 25.7749 32.3463 25.8094 32.3916C22.3174 32.4232 18.8254 32.4337 15.3333 32.4232C18.783 32.381 22.2327 32.339 25.6825 32.2969Z" fill="#EE3B66"/>
<path fill-rule="evenodd" clip-rule="evenodd" d="M67.016 37.0325C67.0185 37.1008 67.0395 37.164 67.0795 37.2219C60.4344 37.285 53.7887 37.3061 47.143 37.285C44.835 36.6321 42.6554 35.685 40.6033 34.4437C40.5823 34.4016 40.5607 34.3595 40.5398 34.3174C48.8998 34.2437 57.2592 34.2332 65.6192 34.2858C66.2611 35.1101 66.7265 36.0257 67.016 37.0325Z" fill="#FEFEFE"/>
<path fill-rule="evenodd" clip-rule="evenodd" d="M67.0158 37.0322C67.1244 37.1039 67.167 37.2091 67.1428 37.3479C60.4654 37.369 53.7987 37.3479 47.1428 37.2848C53.7885 37.3058 60.4343 37.2848 67.0793 37.2217C67.0393 37.1637 67.0184 37.1006 67.0158 37.0322Z" fill="#F37190"/>
<path fill-rule="evenodd" clip-rule="evenodd" d="M44.3493 38.2319C44.2693 38.9989 44.2693 39.7566 44.3493 40.505C44.4046 40.7375 44.4681 40.969 44.5398 41.1996C44.5398 41.2206 44.5398 41.2417 44.5398 41.2627C31.8623 41.2627 19.1853 41.2627 6.50806 41.2627C6.50806 41.1154 6.50806 40.968 6.50806 40.8207C6.50806 40.7366 6.50806 40.6523 6.50806 40.5682C9.74317 40.4635 12.9813 40.4004 16.2223 40.3787C16.3093 40.1818 16.3728 39.9713 16.4128 39.7473C20.5248 39.7055 24.6307 39.6633 28.7303 39.621C28.8025 39.1573 28.9084 38.6943 29.0477 38.2319C34.1481 38.2319 39.249 38.2319 44.3493 38.2319Z" fill="#FEFDFE"/>
<path fill-rule="evenodd" clip-rule="evenodd" d="M67.3333 38.6108C67.3333 39.4948 67.3333 40.3787 67.3333 41.2627C61.9365 41.2627 56.5396 41.2627 51.1428 41.2627C51.1428 41.2417 51.1428 41.2206 51.1428 41.1996C51.2457 40.7071 51.2139 40.223 51.0476 39.7473C50.7803 39.2291 50.4203 38.7871 49.9682 38.4214C49.9377 38.3615 49.9269 38.2984 49.9365 38.2319C55.7142 38.2319 61.492 38.2319 67.2698 38.2319C67.259 38.3659 67.28 38.4921 67.3333 38.6108Z" fill="#FEFEFE"/>
<path fill-rule="evenodd" clip-rule="evenodd" d="M44.3493 38.2319C44.3569 38.9769 44.3569 39.7346 44.3493 40.505C44.2693 39.7566 44.2693 38.9989 44.3493 38.2319Z" fill="#F47691"/>
<path fill-rule="evenodd" clip-rule="evenodd" d="M28.7301 39.6211C24.6304 39.6634 20.5246 39.7055 16.4126 39.7474C20.4967 39.6214 24.6025 39.5793 28.7301 39.6211Z" fill="#EF3C67"/>
<path fill-rule="evenodd" clip-rule="evenodd" d="M16.2223 40.3789C12.9813 40.4006 9.74317 40.4637 6.50806 40.5683C6.50806 40.5052 6.50806 40.442 6.50806 40.3789C9.74615 40.3789 12.9842 40.3789 16.2223 40.3789Z" fill="#F16284"/>
<path fill-rule="evenodd" clip-rule="evenodd" d="M6.50797 40.8208C6.50797 40.9681 6.50797 41.1155 6.50797 41.2628C19.1852 41.2628 31.8623 41.2628 44.5397 41.2628C31.8521 41.3259 19.1535 41.347 6.44448 41.3259C6.42505 41.1438 6.44619 40.9754 6.50797 40.8208Z" fill="#F7A4B9"/>
<path fill-rule="evenodd" clip-rule="evenodd" d="M67.3333 38.6108C67.4177 39.5158 67.4177 40.4209 67.3333 41.3259C61.9257 41.3469 56.5289 41.3259 51.1428 41.2628C56.5396 41.2628 61.9365 41.2628 67.3333 41.2628C67.3333 40.3788 67.3333 39.4948 67.3333 38.6108Z" fill="#F8A6B9"/>
<path opacity="0.996" fill-rule="evenodd" clip-rule="evenodd" d="M44.5396 41.1997C44.5967 41.2445 44.6183 41.3076 44.6031 41.3891C31.8729 41.4102 19.1533 41.3891 6.44434 41.326C19.1534 41.347 31.852 41.326 44.5396 41.2628C44.5396 41.2418 44.5396 41.2207 44.5396 41.1997Z" fill="#ED305E"/>
<path opacity="0.996" fill-rule="evenodd" clip-rule="evenodd" d="M51.1429 41.1997C51.1429 41.2207 51.1429 41.2418 51.1429 41.2628C56.529 41.3259 61.9258 41.347 67.3334 41.326C61.9258 41.3891 56.508 41.4102 51.0794 41.3891C51.0642 41.3076 51.0858 41.2445 51.1429 41.1997Z" fill="#ED305D"/>
<path fill-rule="evenodd" clip-rule="evenodd" d="M45.1112 42.2732C39.7353 42.2732 34.3601 42.2732 28.9842 42.2732C28.9842 42.4416 28.9842 42.6099 28.9842 42.7783C28.9222 42.6023 28.901 42.4129 28.9207 42.21C34.3283 42.189 39.7251 42.2101 45.1112 42.2732Z" fill="#EF476F"/>
<path fill-rule="evenodd" clip-rule="evenodd" d="M50.762 42.2732C56.254 42.2101 61.7569 42.189 67.2699 42.21C67.2851 42.2915 67.2636 42.3547 67.2064 42.3994C61.7467 42.2734 56.2648 42.2312 50.762 42.2732Z" fill="#F694AC"/>
<path fill-rule="evenodd" clip-rule="evenodd" d="M45.1111 42.273C46.1543 43.5199 47.4661 43.9093 49.0476 43.4411C49.687 43.1447 50.2584 42.7553 50.7619 42.273C56.2648 42.2311 61.7467 42.2732 67.2064 42.3993C67.0845 43.4569 66.7035 44.404 66.0635 45.2407C46.381 45.3248 26.6984 45.3248 7.0159 45.2407C6.94092 44.9727 6.89857 44.6992 6.88892 44.4198C10.0424 44.4198 13.1958 44.4198 16.3492 44.4198C16.3492 44.1673 16.3492 43.9147 16.3492 43.6621C20.6244 43.6727 24.8995 43.6621 29.1746 43.6305C29.0787 43.3546 29.0152 43.0705 28.9842 42.7781C28.9842 42.6097 28.9842 42.4414 28.9842 42.273C34.36 42.273 39.7353 42.273 45.1111 42.273Z" fill="#FFFDFE"/>
<path fill-rule="evenodd" clip-rule="evenodd" d="M7.01587 45.2407C26.6984 45.3249 46.3809 45.3249 66.0635 45.2407C56.2432 45.3249 46.4019 45.367 36.5397 45.367C26.6771 45.367 16.8359 45.3249 7.01587 45.2407Z" fill="#EF3C67"/>
<path fill-rule="evenodd" clip-rule="evenodd" d="M17.8729 47.8295C17.8729 47.8085 17.8729 47.7874 17.8729 47.7664C22.4022 47.7874 26.9313 47.7664 31.4602 47.7032C31.4526 47.6649 31.431 47.6439 31.3967 47.6401C31.3757 47.6401 31.3542 47.6401 31.3332 47.6401C31.1167 47.3155 30.9161 46.9787 30.73 46.6298C30.6583 46.5133 30.6265 46.387 30.6348 46.251C42.2113 46.251 53.7884 46.251 65.365 46.251C65.3751 46.3377 65.3643 46.4219 65.3332 46.5035C64.5161 47.59 63.5529 48.5266 62.4443 49.3133C44.73 49.3554 27.0158 49.3554 9.30147 49.3133C9.07829 49.0808 8.84547 48.8598 8.60305 48.6503C8.52489 48.5777 8.52489 48.504 8.60305 48.4294C11.7988 48.4083 14.9946 48.3872 18.1904 48.3662C18.09 48.1761 17.9842 47.9972 17.8729 47.8295Z" fill="#FFFCFC"/>
<path fill-rule="evenodd" clip-rule="evenodd" d="M31.3334 47.6401C31.3544 47.6401 31.376 47.6401 31.3969 47.6401C26.889 47.6823 22.3811 47.7243 17.8731 47.7664C17.8731 47.7874 17.8731 47.8085 17.8731 47.8296C17.8157 47.7848 17.7946 47.7217 17.8096 47.6401C22.3176 47.6401 26.8255 47.6401 31.3334 47.6401Z" fill="#EF3C67"/>
<path fill-rule="evenodd" clip-rule="evenodd" d="M31.3969 47.6401C31.4311 47.6439 31.4527 47.665 31.4603 47.7033C26.9315 47.7664 22.4023 47.7874 17.873 47.7664C22.381 47.7243 26.8889 47.6823 31.3969 47.6401Z" fill="#FCD5DE"/>
<path fill-rule="evenodd" clip-rule="evenodd" d="M34.6985 50.2922C43.4496 50.2291 52.2115 50.208 60.9842 50.2291C60.9994 50.3106 60.9778 50.3737 60.9207 50.4185C52.2013 50.2923 43.4604 50.2502 34.6985 50.2922Z" fill="#F695AD"/>
<path fill-rule="evenodd" clip-rule="evenodd" d="M34.6985 50.2921C43.4604 50.2501 52.2013 50.2922 60.9207 50.4184C59.4064 51.3712 57.7766 52.0657 56.0318 52.502C55.9029 52.4918 55.7759 52.5024 55.6509 52.5336C55.6153 52.5578 55.5943 52.5894 55.5874 52.6283C55.1766 52.6511 54.7747 52.7143 54.381 52.8177C53.294 52.9542 52.2147 53.0805 51.1429 53.1966C50.4445 53.2251 49.7461 53.2567 49.0477 53.2913C37.7251 53.3334 26.4022 53.3334 15.0794 53.2913C14.6448 53.0858 14.2215 52.8648 13.8096 52.6283C13.8025 52.5894 13.7814 52.5578 13.7461 52.5336C17.0796 52.5231 20.4023 52.4915 23.7143 52.4389C23.6932 52.3758 23.6509 52.3336 23.5874 52.3126C23.4153 52.1582 23.2354 52.0109 23.0477 51.8706C23.0037 51.8115 23.0143 51.7694 23.0794 51.7443C27.6934 51.7654 32.3074 51.7443 36.9207 51.6812C36.9131 51.6429 36.8915 51.6218 36.8572 51.6181C36.1309 51.2463 35.4115 50.857 34.6985 50.4499C34.6178 50.3883 34.6178 50.3356 34.6985 50.2921Z" fill="#FEFDFD"/>
<path fill-rule="evenodd" clip-rule="evenodd" d="M36.8571 51.6182C36.8914 51.622 36.913 51.643 36.9206 51.6813C32.3073 51.7444 27.6933 51.7655 23.0793 51.7444C27.6719 51.7023 32.2647 51.6603 36.8571 51.6182Z" fill="#F9B4C5"/>
<path fill-rule="evenodd" clip-rule="evenodd" d="M23.5874 52.3125C23.6509 52.3335 23.6932 52.3756 23.7143 52.4388C20.3916 52.4388 17.0688 52.4388 13.7461 52.4388C17.0265 52.3967 20.3069 52.3546 23.5874 52.3125Z" fill="#F05278"/>
<path fill-rule="evenodd" clip-rule="evenodd" d="M13.746 52.439C17.0688 52.439 20.3916 52.439 23.7143 52.439C20.4022 52.4916 17.0795 52.5231 13.746 52.5337C13.7813 52.5579 13.8025 52.5894 13.8095 52.6284C13.6792 52.5935 13.6581 52.5303 13.746 52.439Z" fill="#FBD4DD"/>
<path fill-rule="evenodd" clip-rule="evenodd" d="M56.0318 52.5018C55.8947 52.5591 55.7468 52.6011 55.5874 52.6281C55.5944 52.5891 55.6153 52.5576 55.6509 52.5334C55.776 52.5021 55.903 52.4916 56.0318 52.5018Z" fill="#F36987"/>
<path fill-rule="evenodd" clip-rule="evenodd" d="M54.3809 52.8179C54.3543 52.8635 54.3123 52.895 54.2539 52.9126C53.2222 53.0657 52.1847 53.1604 51.1428 53.1967C52.2146 53.0806 53.2939 52.9543 54.3809 52.8179Z" fill="#F15778"/>
<path fill-rule="evenodd" clip-rule="evenodd" d="M16.5397 62.6047C15.7143 62.6047 14.8889 62.6047 14.0635 62.6047C14.0839 62.277 14.0626 61.9613 14 61.6576C13.9849 61.4278 13.8791 61.2491 13.6825 61.1209C12.6551 60.8475 12.1789 61.2371 12.254 62.289C12.8699 62.9003 13.579 63.3738 14.3809 63.7097C14.9931 64.0235 15.427 64.4971 15.6825 65.1304C15.7286 65.5958 15.718 66.0586 15.6508 66.5195C15.5452 66.642 15.5029 66.7891 15.5238 66.9615C14.9336 68.3411 13.8753 69.0881 12.3492 69.203C11.7354 69.2453 11.1217 69.2453 10.5079 69.203C8.59966 68.8084 7.75312 67.6403 7.96824 65.6987C8.87827 65.6987 9.78836 65.6987 10.6984 65.6987C10.6879 65.9942 10.6985 66.289 10.7301 66.5826C10.7478 66.6407 10.7795 66.6824 10.8254 66.7089C10.8125 66.8283 10.8548 66.923 10.9524 66.9931C11.5557 67.483 12.1059 67.4306 12.6032 66.8352C12.8004 66.2328 12.6523 65.7378 12.1587 65.3514C11.4653 65.1077 10.8092 64.792 10.1905 64.4043C9.80379 64.1151 9.52868 63.747 9.36506 63.2993C9.25439 62.8447 9.21211 62.3812 9.23808 61.9102C9.31725 61.395 9.51833 60.9321 9.84125 60.5211C10.1739 60.1479 10.5442 59.8217 10.9524 59.5424C12.3861 59.0241 13.8252 59.003 15.2698 59.4793C16.4234 60.215 16.8467 61.2567 16.5397 62.6047Z" fill="#FEFDFD"/>
<path fill-rule="evenodd" clip-rule="evenodd" d="M46.2539 59.637C47.0057 59.5533 47.7676 59.5533 48.5396 59.637C48.532 59.6753 48.5104 59.6963 48.4761 59.7001C47.7466 59.6373 47.0063 59.6163 46.2539 59.637Z" fill="#FAC0CD"/>
<path fill-rule="evenodd" clip-rule="evenodd" d="M46.2541 59.6371C47.0065 59.6164 47.7468 59.6374 48.4763 59.7002C48.2776 60.435 48.0871 61.1714 47.9049 61.9102C47.8147 62.0371 47.7722 62.1849 47.7779 62.3522C47.1576 64.6669 46.5226 66.9817 45.8731 69.2977C45.2807 69.2977 44.6877 69.2977 44.0953 69.2977C44.0953 69.2137 44.0953 69.1291 44.0953 69.0452C44.0953 68.9397 44.0953 68.8349 44.0953 68.7294C43.795 68.8684 43.4985 69.0262 43.2065 69.203C41.635 69.6482 40.5347 69.1323 39.9049 67.656C39.8515 67.2166 39.8306 66.7746 39.8414 66.3301C39.8998 64.7686 40.5347 63.495 41.7461 62.51C42.9957 61.8294 44.202 61.8824 45.3652 62.6679C45.4103 62.7247 45.4738 62.7462 45.5557 62.731C45.5684 62.5403 45.5899 62.3509 45.6192 62.1628C45.8318 61.3167 46.0433 60.4749 46.2541 59.6371Z" fill="#FFFDFD"/>
<path fill-rule="evenodd" clip-rule="evenodd" d="M28.2856 61.91C28.4216 61.8683 28.5698 61.8468 28.7301 61.8468C28.9807 61.838 29.2135 61.8803 29.4285 61.9731C29.0494 61.9264 28.6684 61.9056 28.2856 61.91Z" fill="#F05477"/>
<path fill-rule="evenodd" clip-rule="evenodd" d="M21.1746 61.9732C21.4378 61.9006 21.713 61.8905 22 61.9416C22.0581 61.9593 22.1004 61.9909 22.1269 62.0363C21.8112 61.9946 21.4937 61.9732 21.1746 61.9732Z" fill="#F15578"/>
<path fill-rule="evenodd" clip-rule="evenodd" d="M36.0951 61.91C35.8748 61.9744 35.6418 62.0167 35.3967 62.0363C35.4234 61.9908 35.4653 61.9593 35.5237 61.9416C35.7129 61.91 35.9034 61.8999 36.0951 61.91Z" fill="#F89AAF"/>
<path fill-rule="evenodd" clip-rule="evenodd" d="M28.2858 61.9102C28.6686 61.9058 29.0495 61.9267 29.4287 61.9734C30.1277 62.111 30.7099 62.4476 31.1747 62.9836C31.2439 63.1611 31.3182 63.3297 31.3969 63.4888C31.3912 63.6561 31.4337 63.8039 31.5239 63.9308C31.6064 64.4769 31.6064 65.0244 31.5239 65.5724C31.4534 65.705 31.4109 65.8522 31.3969 66.0144C29.9258 65.9936 28.4653 66.0144 27.016 66.0776C26.8131 66.5884 26.8766 67.0619 27.2064 67.4983C27.8477 67.7944 28.3345 67.6365 28.6668 67.0247C29.482 67.0039 30.2864 67.0247 31.0794 67.0878C30.7899 67.8499 30.282 68.4283 29.5556 68.8242C29.2957 68.9745 29.0206 69.09 28.7302 69.1715C28.208 69.2776 27.6789 69.3199 27.1429 69.2978C25.7348 69.2119 24.8564 68.4965 24.508 67.151C24.257 65.2094 24.9026 63.641 26.4445 62.4469C27.0321 62.1799 27.6459 62.0012 28.2858 61.9102Z" fill="#FEFDFD"/>
<path fill-rule="evenodd" clip-rule="evenodd" d="M36.0954 61.9099C36.6681 61.8594 37.2185 61.9333 37.7461 62.1309C38.6395 62.4719 39.1582 63.114 39.3017 64.0567C39.3335 64.6913 39.3017 65.3227 39.2065 65.951C37.7188 65.9926 36.2376 66.0343 34.762 66.0772C34.5906 66.4997 34.6014 66.9208 34.7938 67.3401C35.11 67.6646 35.4801 67.7385 35.9049 67.5611C36.1258 67.4247 36.2947 67.246 36.4128 67.0244C37.2281 67.0035 38.0325 67.0244 38.8255 67.0875C38.2388 68.3592 37.2439 69.0954 35.8414 69.2975C35.2839 69.324 34.7335 69.2817 34.1906 69.1712C33.0109 68.8694 32.3442 68.1117 32.1906 66.8981C32.0579 65.048 32.7246 63.5642 34.1906 62.4466C34.5703 62.242 34.9722 62.105 35.3969 62.0362C35.642 62.0166 35.875 61.9743 36.0954 61.9099Z" fill="#FEFDFD"/>
<path fill-rule="evenodd" clip-rule="evenodd" d="M21.1746 61.9731C21.4937 61.9731 21.8112 61.9946 22.1269 62.0363C23.0531 62.2731 23.5928 62.8628 23.746 63.8042C24.0028 65.7446 23.4207 67.3755 22 68.6977C21.2806 69.2186 20.4763 69.408 19.5873 69.266C19.0632 69.1473 18.6082 68.9054 18.2222 68.5398C17.928 69.4781 17.6635 70.4252 17.4285 71.3812C16.6666 71.3812 15.9047 71.3812 15.1428 71.3812C15.2216 70.8363 15.3486 70.3103 15.5238 69.8027C15.5944 69.6701 15.6367 69.5229 15.6508 69.3607C15.7757 68.7798 15.9238 68.2115 16.0952 67.6559C16.1658 67.5233 16.2082 67.3761 16.2222 67.2139C16.3763 66.5509 16.5457 65.898 16.7301 65.2565C16.8007 65.1239 16.8431 64.9768 16.8571 64.8145C16.9633 64.3921 17.069 63.9716 17.1746 63.5517C17.265 63.4248 17.3073 63.277 17.3016 63.1097C17.3722 62.9771 17.4145 62.83 17.4285 62.6677C17.4463 62.5023 17.4886 62.3444 17.5555 62.1941C18.2324 62.1626 18.9097 62.1518 19.5873 62.1626C19.5217 62.8142 19.691 62.8881 20.0952 62.3836C20.4518 62.2169 20.8116 62.0799 21.1746 61.9731Z" fill="#FEFDFD"/>
<path fill-rule="evenodd" clip-rule="evenodd" d="M63.3334 62.0996C62.7334 62.0718 62.1411 62.1141 61.5557 62.2259C61.6528 62.123 61.7798 62.0706 61.9366 62.068C62.4134 62.0163 62.8795 62.0264 63.3334 62.0996Z" fill="#EF476D"/>
<path fill-rule="evenodd" clip-rule="evenodd" d="M63.3332 62.0996C63.9605 62.1425 64.532 62.3427 65.0475 62.6994C65.2088 62.8832 65.3459 63.0827 65.4602 63.2993C65.5028 63.7836 65.5028 64.2672 65.4602 64.7515C65.0386 66.1962 64.6475 67.6484 64.2856 69.1083C64.2526 69.2169 64.1891 69.3008 64.0951 69.3608C63.4717 69.2983 62.8367 69.2768 62.1904 69.2977C62.1904 69.1291 62.1904 68.9611 62.1904 68.7925C61.8209 68.9656 61.4399 69.1234 61.0475 69.2661C59.045 69.7163 58.1669 68.927 58.4126 66.8983C58.7097 66.1924 59.2069 65.6873 59.9047 65.3829C60.0729 65.3886 60.2215 65.3463 60.3491 65.2566C60.9739 65.1032 61.6088 64.987 62.2539 64.9094C62.5885 64.8197 62.9059 64.6934 63.2063 64.5305C63.4145 64.2218 63.4463 63.8953 63.3015 63.5518C62.7897 63.2557 62.3237 63.3188 61.9047 63.7412C61.8151 63.877 61.7624 64.0241 61.7459 64.1832C60.9777 64.2666 60.2158 64.2666 59.4602 64.1832C59.7682 63.1193 60.4666 62.4664 61.5555 62.2259C62.1409 62.1141 62.7332 62.0718 63.3332 62.0996Z" fill="#FFFCFD"/>
<path fill-rule="evenodd" clip-rule="evenodd" d="M50.5713 63.678C50.5713 63.1937 50.5713 62.71 50.5713 62.2257C49.8939 62.2257 49.217 62.2257 48.5396 62.2257C48.5599 62.5957 48.5389 62.9531 48.4761 63.2991C48.4761 62.9203 48.4761 62.5414 48.4761 62.1626C49.1954 62.1626 49.9154 62.1626 50.6348 62.1626C50.6558 62.6791 50.6342 63.1842 50.5713 63.678Z" fill="#F698AE"/>
<path fill-rule="evenodd" clip-rule="evenodd" d="M68.2858 62.2256C67.5417 62.1852 66.8223 62.2269 66.1271 62.3519C66.0699 62.3071 66.0483 62.244 66.0636 62.1625C66.816 62.1417 67.5563 62.1631 68.2858 62.2256Z" fill="#F4809C"/>
<path fill-rule="evenodd" clip-rule="evenodd" d="M70.8889 62.2256C71.6197 62.1422 72.36 62.1422 73.1111 62.2256C73.1035 62.2641 73.0819 62.2849 73.0476 62.2887C72.3397 62.2262 71.6197 62.2048 70.8889 62.2256Z" fill="#F4829E"/>
<path fill-rule="evenodd" clip-rule="evenodd" d="M50.5713 63.6778C50.5593 64.541 50.5383 65.4041 50.5079 66.2666C50.5828 66.2805 50.6463 66.2597 50.6983 66.2035C51.4602 64.8983 52.2221 63.5938 52.984 62.2887C53.7021 62.2256 54.4221 62.2047 55.1428 62.2256C55.1428 62.499 55.1428 62.773 55.1428 63.0464C55.0177 64.1817 54.9967 65.3182 55.0793 66.456C55.1961 66.4169 55.2698 66.3323 55.3015 66.2035C55.8971 64.8882 56.5002 63.5831 57.111 62.2887C57.852 62.2047 58.5923 62.2047 59.3332 62.2887C58.2171 64.6142 57.1167 66.9504 56.0317 69.2974C55.0158 69.2974 53.9999 69.2974 52.984 69.2974C52.984 68.7923 52.984 68.2871 52.984 67.782C53.005 67.2333 52.984 66.6859 52.9205 66.1403C52.2374 67.1418 51.6025 68.1729 51.0158 69.2343C50.132 69.2961 49.2431 69.3176 48.3491 69.2974C48.3942 68.5403 48.4152 67.7826 48.4126 67.0243C48.4628 65.9515 48.4844 64.8781 48.4761 63.8041C48.4761 63.6355 48.4761 63.4676 48.4761 63.299C48.539 62.953 48.5599 62.5956 48.5396 62.2256C49.2171 62.2256 49.8939 62.2256 50.5713 62.2256C50.5713 62.7099 50.5713 63.1935 50.5713 63.6778Z" fill="#FEFDFD"/>
<path fill-rule="evenodd" clip-rule="evenodd" d="M47.9048 61.9102C47.9258 62.0825 47.8832 62.2297 47.7779 62.3521C47.7721 62.1848 47.8147 62.0371 47.9048 61.9102Z" fill="#F36C89"/>
<path fill-rule="evenodd" clip-rule="evenodd" d="M68.2856 62.2258C68.3434 62.7531 68.4069 63.279 68.4761 63.8044C68.4545 64.0961 68.4964 64.3701 68.6031 64.6252C68.671 65.1089 68.7345 65.5925 68.7936 66.0775C68.8685 66.0913 68.932 66.0705 68.9841 66.0143C69.6221 64.7458 70.2571 63.483 70.8888 62.2258C71.6196 62.205 72.3396 62.2265 73.0475 62.289C71.9402 64.3581 70.8507 66.4418 69.7777 68.54C69.4177 69.1291 69.0583 69.7188 68.6983 70.3079C67.8012 71.5594 66.605 72.0115 65.111 71.6655C64.238 71.2096 63.9625 70.5049 64.2856 69.5502C64.3428 69.5054 64.3644 69.4423 64.3491 69.3608C64.8145 69.3608 65.2806 69.3608 65.746 69.3608C65.7358 69.5307 65.746 69.6986 65.7777 69.8659C65.7904 69.9809 65.8431 70.0648 65.9364 70.1185C66.0336 70.2561 66.1714 70.3193 66.3491 70.3079C66.4901 70.3149 66.6063 70.2726 66.6983 70.1816C67.0355 70.0055 67.1841 69.7213 67.1428 69.3292C67.0672 68.5962 66.9618 67.87 66.8253 67.1509C66.8342 66.8408 66.7917 66.546 66.6983 66.2669C66.6983 66.246 66.6983 66.2246 66.6983 66.2037C66.7174 65.9329 66.6755 65.6803 66.5714 65.446C66.4806 64.9447 66.4171 64.4396 66.3809 63.9307C66.325 63.4129 66.2399 62.9078 66.1269 62.4153C66.1269 62.3944 66.1269 62.373 66.1269 62.3521C66.8221 62.2271 67.5415 62.1854 68.2856 62.2258Z" fill="#FEFCFD"/>
<path fill-rule="evenodd" clip-rule="evenodd" d="M45.619 62.1626C45.5898 62.3508 45.5682 62.5402 45.5555 62.7309C45.4736 62.746 45.4101 62.7246 45.365 62.6677C45.4729 62.5168 45.5574 62.3482 45.619 62.1626Z" fill="#FAABBC"/>
<path fill-rule="evenodd" clip-rule="evenodd" d="M14 61.6572C14.0627 61.9609 14.0839 62.2766 14.0635 62.6043C14.8889 62.6043 15.7143 62.6043 16.5397 62.6043C15.7044 62.6675 14.8578 62.6883 14 62.6675C14 62.3309 14 61.9938 14 61.6572Z" fill="#FAB3C3"/>
<path fill-rule="evenodd" clip-rule="evenodd" d="M17.4286 62.6675C17.4146 62.8298 17.3723 62.9769 17.3017 63.1095C17.2914 62.9813 17.302 62.855 17.3334 62.7306C17.3577 62.6953 17.3895 62.6744 17.4286 62.6675Z" fill="#F46D89"/>
<path opacity="0.996" fill-rule="evenodd" clip-rule="evenodd" d="M9.23819 61.9102C9.21222 62.3812 9.25451 62.8446 9.36517 63.2993C9.26251 63.2304 9.20962 63.125 9.20644 62.9836C9.15451 62.6142 9.16505 62.2562 9.23819 61.9102Z" fill="#F2607E"/>
<path fill-rule="evenodd" clip-rule="evenodd" d="M66.127 62.415C66.24 62.9075 66.325 63.4127 66.3809 63.9304C66.2781 63.7328 66.1936 63.5225 66.127 63.299C66.1523 63.0136 66.1523 62.7187 66.127 62.415Z" fill="#F1506B"/>
<path fill-rule="evenodd" clip-rule="evenodd" d="M29.1745 63.7409C29.1745 64.0775 29.1745 64.4147 29.1745 64.7512C28.5934 64.8137 28.0009 64.8352 27.3967 64.8144C27.4009 64.2271 27.6337 63.7536 28.0951 63.3937C28.5701 63.191 28.9299 63.3065 29.1745 63.7409Z" fill="#EB224E"/>
<path fill-rule="evenodd" clip-rule="evenodd" d="M36.0317 63.2991C36.6482 63.2391 36.9656 63.5125 36.984 64.1199C36.9561 64.351 36.9345 64.5828 36.9205 64.8145C36.3282 64.8145 35.7351 64.8145 35.1428 64.8145C35.1161 64.1086 35.412 63.6035 36.0317 63.2991Z" fill="#EB224E"/>
<path fill-rule="evenodd" clip-rule="evenodd" d="M17.3016 63.1099C17.3073 63.2772 17.265 63.4249 17.1746 63.5519C17.1689 63.3845 17.2112 63.2368 17.3016 63.1099Z" fill="#F89FB3"/>
<path fill-rule="evenodd" clip-rule="evenodd" d="M44.9841 64.3728C44.894 64.4997 44.8514 64.6474 44.8572 64.8147C44.6756 65.58 44.4743 66.3377 44.254 67.0878C43.8248 67.3859 43.3486 67.4806 42.8254 67.372C42.4781 67.0619 42.3086 66.673 42.3175 66.2039C42.3657 65.3887 42.6413 64.6626 43.1429 64.0255C43.633 63.6694 44.141 63.6485 44.6667 63.9623C44.8121 64.0747 44.9181 64.2111 44.9841 64.3728Z" fill="#EB1D4C"/>
<path fill-rule="evenodd" clip-rule="evenodd" d="M31.3967 63.4888C31.4869 63.6157 31.5294 63.7634 31.5237 63.9308C31.4336 63.8038 31.391 63.6561 31.3967 63.4888Z" fill="#F8ABBD"/>
<path fill-rule="evenodd" clip-rule="evenodd" d="M18.8889 65.825C19.0019 65.7309 19.0442 65.6046 19.0158 65.4462C19.1176 65.0717 19.2129 64.6929 19.3016 64.3096C19.7969 63.8487 20.3577 63.754 20.9841 64.0255C21.2164 64.2938 21.3223 64.6095 21.3016 64.9726C21.2834 65.9121 20.9236 66.6907 20.2222 67.3088C19.6539 67.5595 19.1566 67.4648 18.7301 67.0247C18.7045 66.6149 18.7574 66.2152 18.8889 65.825Z" fill="#EB1E4C"/>
<path opacity="0.996" fill-rule="evenodd" clip-rule="evenodd" d="M29.1746 63.7412C29.2529 63.8486 29.2953 63.9748 29.3015 64.1201C29.2761 64.3423 29.2338 64.5532 29.1746 64.7515C29.1746 64.4149 29.1746 64.0778 29.1746 63.7412Z" fill="#F3617E"/>
<path fill-rule="evenodd" clip-rule="evenodd" d="M68.4762 63.8042C68.5435 64.0656 68.586 64.339 68.6032 64.625C68.4965 64.3699 68.4546 64.0959 68.4762 63.8042Z" fill="#F9B2C3"/>
<path fill-rule="evenodd" clip-rule="evenodd" d="M59.4602 64.1831C60.2158 64.2665 60.9777 64.2665 61.7459 64.1831C61.3777 64.2671 60.9866 64.3094 60.5713 64.3094C60.1796 64.2886 59.7885 64.2671 59.3967 64.2462C59.4043 64.2077 59.4259 64.1869 59.4602 64.1831Z" fill="#F26A8A"/>
<path fill-rule="evenodd" clip-rule="evenodd" d="M44.9842 64.3726C44.9899 64.5399 44.9474 64.6876 44.8572 64.8145C44.8515 64.6472 44.894 64.4995 44.9842 64.3726Z" fill="#F89FB3"/>
<path fill-rule="evenodd" clip-rule="evenodd" d="M16.8571 64.8145C16.8431 64.9767 16.8007 65.1238 16.7301 65.2564C16.7198 65.1283 16.7304 65.002 16.7619 64.8776C16.7862 64.8422 16.8179 64.8214 16.8571 64.8145Z" fill="#F46D89"/>
<path fill-rule="evenodd" clip-rule="evenodd" d="M55.1429 63.0464C55.113 64.1829 55.0921 65.3195 55.0794 66.456C54.9968 65.3182 55.0178 64.1817 55.1429 63.0464Z" fill="#F8A0B3"/>
<path fill-rule="evenodd" clip-rule="evenodd" d="M60.3492 65.2564C60.2216 65.346 60.073 65.3883 59.9048 65.3826C60.0324 65.293 60.181 65.2507 60.3492 65.2564Z" fill="#FAB2C2"/>
<path fill-rule="evenodd" clip-rule="evenodd" d="M7.96826 65.6984C8.88826 65.6352 9.8195 65.6144 10.7619 65.6352C10.754 65.9952 10.7751 66.3532 10.8254 66.7086C10.7796 66.6821 10.7478 66.6405 10.7302 66.5824C10.6985 66.2888 10.6879 65.9939 10.6984 65.6984C9.78839 65.6984 8.87829 65.6984 7.96826 65.6984Z" fill="#F58FA7"/>
<path fill-rule="evenodd" clip-rule="evenodd" d="M19.0159 65.4458C19.0442 65.6043 19.0019 65.7306 18.8889 65.8246C18.8949 65.6801 18.9373 65.5538 19.0159 65.4458Z" fill="#F68199"/>
<path fill-rule="evenodd" clip-rule="evenodd" d="M66.5715 65.4458C66.6757 65.6801 66.7176 65.9326 66.6985 66.2035C66.6274 65.9642 66.5855 65.7116 66.5715 65.4458Z" fill="#F8A1B5"/>
<path fill-rule="evenodd" clip-rule="evenodd" d="M62.508 65.7618C62.6433 65.7397 62.7284 65.7921 62.762 65.9196C62.7271 66.4039 62.5893 66.8566 62.3493 67.2771C61.9366 67.7229 61.4922 67.7646 61.016 67.4034C60.8731 66.9027 61.0109 66.4923 61.4287 66.1722C61.7817 65.996 62.1411 65.859 62.508 65.7618Z" fill="#EB224E"/>
<path fill-rule="evenodd" clip-rule="evenodd" d="M31.5238 65.5723C31.5187 65.7434 31.4978 65.9113 31.4603 66.0774C29.979 66.0774 28.4973 66.0774 27.0159 66.0774C28.4652 66.0143 29.9257 65.9934 31.3968 66.0143C31.4108 65.852 31.4533 65.7049 31.5238 65.5723Z" fill="#F587A1"/>
<path fill-rule="evenodd" clip-rule="evenodd" d="M39.2064 65.9512C37.7474 66.0768 36.2661 66.1191 34.762 66.0775C36.2375 66.0345 37.7188 65.9928 39.2064 65.9512Z" fill="#F37190"/>
<path fill-rule="evenodd" clip-rule="evenodd" d="M48.4761 63.8042C48.4844 64.8782 48.4628 65.9516 48.4126 67.0244C48.3917 67.0244 48.3701 67.0244 48.3491 67.0244C48.3739 65.9403 48.4164 64.8669 48.4761 63.8042Z" fill="#F79DB2"/>
<path fill-rule="evenodd" clip-rule="evenodd" d="M15.6507 66.5195C15.6367 66.6818 15.5943 66.8289 15.5237 66.9615C15.5028 66.7891 15.5451 66.642 15.6507 66.5195Z" fill="#FAA9BA"/>
<path opacity="0.996" fill-rule="evenodd" clip-rule="evenodd" d="M66.6985 66.2666C66.7919 66.5457 66.8344 66.8406 66.8255 67.1506C66.7239 66.8728 66.6814 66.5779 66.6985 66.2666Z" fill="#F46A86"/>
<path fill-rule="evenodd" clip-rule="evenodd" d="M28.6667 67.0244C29.482 66.9404 30.3074 66.9404 31.1429 67.0244C31.1353 67.0629 31.1137 67.0838 31.0794 67.0876C30.2864 67.0244 29.482 67.0036 28.6667 67.0244Z" fill="#FBD4DD"/>
<path fill-rule="evenodd" clip-rule="evenodd" d="M36.4126 67.0244C37.2278 66.9404 38.0532 66.9404 38.8888 67.0244C38.8812 67.0629 38.8596 67.0838 38.8253 67.0876C38.0323 67.0244 37.2278 67.0036 36.4126 67.0244Z" fill="#FBD2DB"/>
<path fill-rule="evenodd" clip-rule="evenodd" d="M39.8413 66.3301C39.8305 66.7746 39.8514 67.2166 39.9047 67.656C39.8057 67.4224 39.7638 67.1699 39.7778 66.8983C39.7778 66.6969 39.7994 66.5075 39.8413 66.3301Z" fill="#F15678"/>
<path fill-rule="evenodd" clip-rule="evenodd" d="M16.2223 67.2139C16.2083 67.3761 16.166 67.5233 16.0954 67.6559C16.0851 67.5277 16.0957 67.4014 16.1271 67.277C16.1514 67.2416 16.1832 67.2208 16.2223 67.2139Z" fill="#F46D89"/>
<path fill-rule="evenodd" clip-rule="evenodd" d="M48.3493 67.0244C48.3703 67.0244 48.3919 67.0244 48.4128 67.0244C48.4154 67.7827 48.3944 68.5404 48.3493 69.2975C48.3214 68.5512 48.3214 67.7935 48.3493 67.0244Z" fill="#FABAC9"/>
<path opacity="0.996" fill-rule="evenodd" clip-rule="evenodd" d="M34.1904 69.1714C34.7333 69.2819 35.2838 69.3242 35.8412 69.2977C35.4082 69.3703 34.9638 69.381 34.5079 69.3292C34.3714 69.3229 34.2654 69.2705 34.1904 69.1714Z" fill="#F25F7F"/>
<path fill-rule="evenodd" clip-rule="evenodd" d="M28.7301 69.1714C28.7231 69.2105 28.7019 69.2421 28.6666 69.2661C28.1506 69.3684 27.6426 69.3791 27.1428 69.2977C27.6788 69.3198 28.2079 69.2775 28.7301 69.1714Z" fill="#F57D97"/>
<path fill-rule="evenodd" clip-rule="evenodd" d="M44.0952 69.0449C44.0952 69.1289 44.0952 69.2135 44.0952 69.2975C44.6876 69.2975 45.2806 69.2975 45.873 69.2975C45.2705 69.36 44.6571 69.3815 44.0317 69.3606C44.014 69.24 44.0349 69.1346 44.0952 69.0449Z" fill="#F04F74"/>
<path fill-rule="evenodd" clip-rule="evenodd" d="M51.0158 69.2344C50.5948 69.3184 50.1504 69.3607 49.6825 69.3607C49.2272 69.3607 48.7828 69.3398 48.3491 69.2975C49.2431 69.3177 50.132 69.2963 51.0158 69.2344Z" fill="#EF486F"/>
<path fill-rule="evenodd" clip-rule="evenodd" d="M52.9841 67.7822C52.9841 68.2874 52.9841 68.7925 52.9841 69.2976C54 69.2976 55.0158 69.2976 56.0317 69.2976C55.0057 69.3608 53.9689 69.3816 52.9206 69.3608C52.8996 68.8228 52.9212 68.2968 52.9841 67.7822Z" fill="#F04D73"/>
<path fill-rule="evenodd" clip-rule="evenodd" d="M64.2857 69.1079C64.2857 69.1711 64.2857 69.2342 64.2857 69.2973C64.7841 69.2765 65.2711 69.298 65.746 69.3605C65.2806 69.3605 64.8146 69.3605 64.3492 69.3605C64.3644 69.4419 64.3428 69.5051 64.2857 69.5499C64.2476 69.4615 64.1841 69.3984 64.0952 69.3605C64.1892 69.3005 64.2527 69.2165 64.2857 69.1079Z" fill="#F37290"/>
<path fill-rule="evenodd" clip-rule="evenodd" d="M15.6507 69.3608C15.6367 69.5231 15.5943 69.6702 15.5237 69.8028C15.5028 69.6305 15.5451 69.4833 15.6507 69.3608Z" fill="#F47591"/>
<path opacity="0.996" fill-rule="evenodd" clip-rule="evenodd" d="M65.9365 70.1182C66.186 70.1725 66.44 70.1933 66.6984 70.1813C66.6064 70.2722 66.4902 70.3145 66.3492 70.3076C66.1714 70.319 66.0337 70.2558 65.9365 70.1182Z" fill="#F35E7B"/>
<path fill-rule="evenodd" clip-rule="evenodd" d="M79.1428 72.3281C79.1479 72.5352 79.1053 72.7247 79.0158 72.8964C79.0107 72.6893 79.0532 72.4999 79.1428 72.3281Z" fill="#F8A2B6"/>
<path fill-rule="evenodd" clip-rule="evenodd" d="M1.36501 73.0859C1.45542 73.2129 1.49771 73.3606 1.492 73.5279C1.40158 73.401 1.3593 73.2533 1.36501 73.0859Z" fill="#F89FB3"/>
<path opacity="0.948" fill-rule="evenodd" clip-rule="evenodd" d="M81.3015 74.6013C82.6361 74.4384 83.5142 74.9852 83.9364 76.243C84.1498 77.4635 83.6952 78.3159 82.5714 78.8002C81.2247 79.1569 80.2622 78.7042 79.6825 77.4426C79.4234 76.4778 79.6666 75.6671 80.4126 75.0117C80.6907 74.8204 80.9866 74.684 81.3015 74.6013ZM81.4285 75.1696C82.9136 75.1847 83.4952 75.9216 83.1745 77.3795C83.1041 77.5834 82.9879 77.7514 82.8253 77.8846C82.659 77.5639 82.4685 77.2589 82.2539 76.9691C82.7657 76.7487 82.9028 76.3806 82.6666 75.8641C82.511 75.6766 82.3104 75.5819 82.0634 75.58C81.6825 75.5377 81.3015 75.5377 80.9206 75.58C80.9098 76.3269 80.8996 77.0745 80.8888 77.8215C81.0615 77.9642 81.252 77.985 81.4603 77.8846C81.492 77.591 81.5028 77.2962 81.492 77.0007C81.5758 76.9899 81.6501 77.0108 81.7142 77.0638C81.8488 77.3631 82.0076 77.6472 82.1904 77.9162C82.9034 77.9553 82.8818 78.0816 82.1269 78.295C80.9828 78.4093 80.3688 77.8941 80.2857 76.7481C80.3295 75.9696 80.7104 75.4436 81.4285 75.1696ZM81.492 76.0535C81.7047 76.0428 81.9161 76.0535 82.1269 76.0851C82.2177 76.2284 82.1968 76.3547 82.0634 76.464C81.8742 76.4955 81.6837 76.5056 81.492 76.4955C81.492 76.3484 81.492 76.2007 81.492 76.0535Z" fill="#EC234F"/>
</g>
<defs>
<clipPath id="clip0_4623_24670">
<rect width="84" height="80" fill="white"/>
</clipPath>
</defs>
</svg>
