<svg width="303" height="80" viewBox="0 0 303 80" fill="none" xmlns="http://www.w3.org/2000/svg">
<g clip-path="url(#clip0_4623_25370)">
<path fill-rule="evenodd" clip-rule="evenodd" d="M76.4534 27.8391C76.2992 27.704 76.1652 27.5366 76.0515 27.3366C66.942 27.303 57.8333 27.2025 48.7252 27.0351C45.7875 18.0928 42.9745 9.11448 40.2863 0.100407C39.879 0.0678446 39.4771 0.101412 39.0807 0.20091C39.1476 0.267845 39.2147 0.33498 39.2816 0.401915C36.3123 9.25578 33.4324 18.1336 30.6417 27.0351C21.3124 27.1681 12.0028 27.3022 2.71265 27.4371C2.57869 27.6381 2.44475 27.8391 2.31079 28.0401C4.02473 21.4311 7.37354 15.7694 12.3572 11.0552C21.9885 2.56674 33.1736 -0.984417 45.9122 0.401915C56.5321 2.44935 64.9376 7.90986 71.1288 16.7838C73.3135 20.0492 75.1552 23.4998 76.6543 27.1356C76.556 27.3643 76.4891 27.5989 76.4534 27.8391Z" fill="#E93330"/>
<path fill-rule="evenodd" clip-rule="evenodd" d="M76.4534 27.8391C76.4534 27.906 76.4534 27.9732 76.4534 28.0401C76.3812 28.4162 76.1803 28.7177 75.8506 28.9446C68.6172 34.3048 61.3837 39.6648 54.1503 45.025C57.2301 53.8658 60.311 62.7101 63.393 71.5577C63.3442 71.739 63.2771 71.9064 63.1921 72.0602C62.751 72.2829 62.3492 72.2494 61.9865 71.9597C55.9922 67.5712 49.9977 63.1824 44.0034 58.7939C43.8694 52.6297 43.8694 46.4656 44.0034 40.3014C46.5661 40.1026 49.1446 40.0357 51.7392 40.1004C51.7392 37.5543 51.7392 35.0083 51.7392 32.4622C43.5678 32.4286 35.3967 32.4622 27.2259 32.5627C27.0961 35.0357 27.0961 37.4813 27.2259 39.8994C29.7675 40.1002 32.3126 40.1671 34.8612 40.1004C34.8947 46.332 34.8612 52.5631 34.7607 58.7939C28.7913 63.4602 22.7968 68.0833 16.7776 72.6632C16.5767 72.5292 16.3758 72.3953 16.1748 72.2612C16.1525 72.1372 16.0856 72.0367 15.9739 71.9597C18.9874 63.0496 22.0014 54.1384 25.0157 45.226C24.8949 44.9034 24.694 44.6355 24.4129 44.422C16.9522 39.0664 9.58478 33.6057 2.31079 28.0401C2.44475 27.8391 2.57869 27.6381 2.71265 27.4371C12.0918 27.5702 21.4014 27.4361 30.6417 27.0351C33.4324 18.1336 36.3123 9.25578 39.2816 0.401915C39.2147 0.33498 39.1476 0.267845 39.0807 0.20091C39.4771 0.101412 39.879 0.0678446 40.2863 0.100407C42.9745 9.11448 45.7875 18.0928 48.7252 27.0351C57.8333 27.2025 66.942 27.303 76.0515 27.3366C76.1652 27.5366 76.2992 27.704 76.4534 27.8391Z" fill="#FFFCFC"/>
<path fill-rule="evenodd" clip-rule="evenodd" d="M245.032 21.2062C252.043 20.4223 257.502 22.9015 261.408 28.6434C262.748 31.0253 263.586 33.5714 263.919 36.2816C260.369 36.2816 256.821 36.2816 253.27 36.2816C252.913 33.0773 251.104 31.3019 247.845 30.9549C245.211 30.9039 243.435 32.1435 242.521 34.6735C241.18 38.4761 241.448 42.1612 243.324 45.7288C245.406 48.6329 247.984 49.3364 251.06 47.8394C252.481 46.361 253.216 44.5853 253.27 42.5127C256.821 42.4792 260.371 42.5127 263.919 42.6132C263.256 51.7192 258.402 56.9789 249.352 58.3921C243.503 58.7177 238.412 56.5067 234.082 51.759C230.565 46.8275 229.225 41.4004 230.063 35.4775C232.084 27.5933 237.073 22.8361 245.032 21.2062Z" fill="#E8332F"/>
<path fill-rule="evenodd" clip-rule="evenodd" d="M282.606 21.2059C289.393 20.8004 294.919 23.2125 299.182 28.442C305.132 37.8808 304.095 46.4907 296.068 54.2712C289.62 59.0443 282.99 59.5803 276.176 55.8792C270.928 52.5878 267.814 47.8642 266.833 41.7084C266.411 32.7425 270.263 26.277 278.386 22.3114C279.811 21.9054 281.217 21.5369 282.606 21.2059ZM283.811 30.8541C285.746 30.8314 287.386 31.5685 288.734 33.0652C291.583 37.2177 291.784 41.506 289.337 45.9295C286.671 49.1645 283.789 49.3655 280.697 46.5325C277.981 42.0867 277.914 37.5974 280.496 33.0652C281.382 31.9397 282.487 31.2026 283.811 30.8541Z" fill="#E8332F"/>
<path fill-rule="evenodd" clip-rule="evenodd" d="M96.5462 21.809C106.66 21.7754 116.773 21.809 126.886 21.9095C127.119 25.2781 127.153 28.6618 126.987 32.0602C126.886 32.1607 126.786 32.2612 126.685 32.3617C123.672 32.4622 120.658 32.4958 117.644 32.4622C117.644 40.9045 117.644 49.3467 117.644 57.7889C113.69 57.8558 109.738 57.7889 105.789 57.5879C105.521 49.2401 105.521 40.8984 105.789 32.5627C102.66 32.5276 99.5452 32.4271 96.4457 32.2612C96.2813 28.7623 96.3147 25.2783 96.5462 21.809Z" fill="#E8332F"/>
<path fill-rule="evenodd" clip-rule="evenodd" d="M130.905 21.8091C140.013 21.8091 149.122 21.8091 158.231 21.8091C158.231 25.2262 158.231 28.6433 158.231 32.0603C152.806 32.0603 147.381 32.0603 141.956 32.0603C141.922 33.2012 141.956 34.3403 142.056 35.4774C147.347 35.4105 152.639 35.3434 157.93 35.2764C158.227 38.193 158.328 41.1409 158.231 44.1206C152.806 44.1206 147.381 44.1206 141.956 44.1206C141.956 45.1257 141.956 46.1307 141.956 47.1357C147.381 47.1357 152.806 47.1357 158.231 47.1357C158.231 50.6869 158.231 54.2378 158.231 57.789C149.122 57.789 140.013 57.789 130.905 57.789C130.905 45.7956 130.905 33.8024 130.905 21.8091Z" fill="#E8332F"/>
<path fill-rule="evenodd" clip-rule="evenodd" d="M160.843 21.8093C165.266 21.7423 169.686 21.8093 174.104 22.0103C175.59 25.0493 177.23 27.9972 179.027 30.8545C180.762 27.88 182.537 24.9319 184.352 22.0103C188.77 21.8093 193.191 21.7423 197.613 21.8093C197.442 22.3566 197.207 22.8927 196.91 23.4173C193.502 28.5928 190.12 33.7854 186.763 38.9952C189.902 43.8358 193.016 48.6933 196.106 53.5681C200.275 43.0272 204.463 32.508 208.664 22.0103C211.943 21.7759 215.226 21.7423 218.51 21.9098C223.446 33.7837 228.134 45.71 232.575 57.6887C228.691 57.8227 224.805 57.8227 220.921 57.6887C220.117 55.9466 219.313 54.2047 218.51 52.4625C215.228 52.3285 211.945 52.3285 208.664 52.4625C208.073 54.2338 207.404 55.9759 206.655 57.6887C199.556 57.8227 192.455 57.8227 185.356 57.6887C183.339 54.3552 181.296 51.0386 179.228 47.7389C177.319 51.0219 175.41 54.3052 173.502 57.5882C169.083 57.7892 164.663 57.8561 160.24 57.7892C160.21 57.5777 160.244 57.3767 160.341 57.1862C164.301 51.1054 168.286 45.0416 172.296 38.9952C168.854 33.8171 165.338 28.6915 161.747 23.6183C161.333 23.0583 161.032 22.4553 160.843 21.8093ZM213.285 35.4776C214.312 38.5104 215.383 41.559 216.5 44.6233C214.366 44.5687 212.257 44.6022 210.171 44.7238C211.103 41.6219 212.142 38.5397 213.285 35.4776Z" fill="#E8332F"/>
<path fill-rule="evenodd" clip-rule="evenodd" d="M30.6417 27.0352C21.4014 27.4362 12.0918 27.5702 2.71265 27.4372C12.0028 27.3023 21.3124 27.1682 30.6417 27.0352Z" fill="#F7B5B3"/>
<path fill-rule="evenodd" clip-rule="evenodd" d="M2.31075 28.04C9.58473 33.6057 16.9522 39.0664 24.4129 44.4219C24.694 44.6354 24.8949 44.9034 25.0157 45.226C22.0013 54.1383 18.9874 63.0495 15.9739 71.9596C16.0856 72.0366 16.1525 72.1371 16.1748 72.2611C9.50917 67.1821 4.85432 60.6159 2.21028 52.5627C0.152754 46.5809 -0.383061 40.3498 0.602854 33.8692C0.861931 32.7126 1.16332 31.5737 1.50703 30.4521C1.46498 30.3343 1.39801 30.2338 1.3061 30.1506C1.62797 29.4075 1.96286 28.704 2.31075 28.04Z" fill="#E8332F"/>
<path fill-rule="evenodd" clip-rule="evenodd" d="M76.4532 28.04C76.6541 28.04 76.8551 28.04 77.056 28.04C81.0934 43.9797 77.4432 57.8491 66.1054 69.6481C65.2727 70.6511 64.3017 71.4551 63.1919 72.0601C63.2769 71.9064 63.344 71.7389 63.3929 71.5576C60.3108 62.71 57.23 53.8658 54.1501 45.025C61.3836 39.6648 68.617 34.3048 75.8504 28.9446C76.1801 28.7176 76.3811 28.4161 76.4532 28.04Z" fill="#E8332F"/>
<path fill-rule="evenodd" clip-rule="evenodd" d="M63.192 72.0603C60.0134 74.5893 56.4638 76.4989 52.5428 77.7889C39.7519 81.771 27.8301 80.0625 16.7776 72.6633C22.7968 68.0834 28.7913 63.4603 34.7607 58.794C34.8611 52.5632 34.8947 46.332 34.8611 40.1005C32.3126 40.1672 29.7674 40.1003 27.2259 39.8995C27.0961 37.4814 27.0961 35.0358 27.2259 32.5628C35.3966 32.4623 43.5678 32.4287 51.7391 32.4623C51.7391 35.0084 51.7391 37.5544 51.7391 40.1005C49.1445 40.0358 46.566 40.1027 44.0034 40.3015C43.8694 46.4657 43.8694 52.6297 44.0034 58.794C49.9977 63.1825 55.9922 67.5712 61.9865 71.9598C62.3491 72.2494 62.751 72.283 63.192 72.0603Z" fill="#E93330"/>
</g>
<defs>
<clipPath id="clip0_4623_25370">
<rect width="303" height="80" fill="white"/>
</clipPath>
</defs>
</svg>
