<svg width="737" height="80" viewBox="0 0 737 80" fill="none" xmlns="http://www.w3.org/2000/svg">
<g clip-path="url(#clip0_4623_6697)">
<path opacity="0.996" fill-rule="evenodd" clip-rule="evenodd" d="M119.854 0.914062C125.349 0.914062 130.845 0.914062 136.341 0.914062C141.547 1.08138 146.699 1.79254 151.797 3.04754C156.298 4.20423 160.149 6.4358 163.352 9.74226C166.039 13.0376 167.609 16.8141 168.063 21.0718C168.495 26.5239 168.104 31.9188 166.885 37.2568C164.864 47.1457 161.283 56.4153 156.139 65.0656C153.182 69.7858 149.134 73.2435 143.995 75.4387C140.015 77.0709 135.893 78.199 131.63 78.8229C127.797 79.3651 123.97 79.7329 120.148 79.9264C114.211 79.9264 108.274 79.9264 102.337 79.9264C96.8207 79.8063 91.3742 79.0462 85.9973 77.6458C77.779 75.0778 73.1422 69.5112 72.0867 60.9458C71.476 54.9976 71.8684 49.1122 73.2643 43.2894C75.4476 33.2394 79.3239 23.9208 84.8933 15.3334C89.1535 9.60964 94.7226 5.71052 101.601 3.63609C107.598 2.0057 113.682 1.09836 119.854 0.914062ZM120.737 25.7801C122.357 25.7556 123.976 25.7801 125.595 25.8537C131.092 26.2472 133.84 29.1899 133.838 34.6819C133.417 42.3701 131.086 49.4082 126.846 55.796C124.988 58.0369 122.608 59.3366 119.707 59.6951C116.677 60.1757 113.684 60.0775 110.727 59.4009C107.54 58.158 105.749 55.8284 105.354 52.4119C105.256 51.2838 105.256 50.1558 105.354 49.0277C106.343 42.8737 108.355 37.0864 111.39 31.6656C113.511 28.1168 116.627 26.155 120.737 25.7801Z" fill="#006AB6"/>
<path opacity="0.996" fill-rule="evenodd" clip-rule="evenodd" d="M296.055 0.914062C301.6 0.914062 307.144 0.914062 312.689 0.914062C317.023 1.10949 321.342 1.62447 325.643 2.459C338.523 5.0707 344.853 12.918 344.632 26.0009C343.647 39.7434 339.698 52.5689 332.782 64.4771C329.606 69.8814 325.067 73.6825 319.166 75.8801C315.549 77.2746 311.819 78.2554 307.979 78.8229C304.095 79.3627 300.22 79.7306 296.35 79.9264C290.413 79.9264 284.475 79.9264 278.538 79.9264C273.229 79.8021 267.978 79.091 262.788 77.7929C254 75.2859 249.167 69.474 248.288 60.3572C247.786 54.7051 248.179 49.1139 249.466 43.5837C251.596 33.542 255.423 24.2234 260.947 15.6277C265.362 9.60523 271.177 5.55897 278.391 3.48895C284.201 1.95424 290.089 1.09594 296.055 0.914062ZM296.938 25.7801C298.608 25.7556 300.276 25.7801 301.943 25.8537C307.441 26.3459 310.14 29.3376 310.039 34.829C309.692 42.3435 307.461 49.2345 303.342 55.5017C301.493 57.9835 299.015 59.3813 295.908 59.6951C293.088 60.1099 290.291 60.0608 287.518 59.548C284.49 58.7277 282.599 56.7905 281.85 53.7361C281.568 52.4241 281.47 51.0998 281.556 49.7634C282.443 43.2747 284.504 37.1929 287.738 31.5185C289.848 28.0587 292.915 26.1459 296.938 25.7801Z" fill="#006AB6"/>
<path opacity="0.995" fill-rule="evenodd" clip-rule="evenodd" d="M670.391 0.914062C671.617 0.914062 672.845 0.914062 674.071 0.914062C686.776 0.974516 699.435 1.9309 712.049 3.78323C712.117 3.84414 712.165 3.91771 712.196 4.00393C710.146 11.6371 708.085 19.2636 706.014 26.8837C700.338 26.2096 694.645 25.6211 688.938 25.118C683.399 24.6522 677.854 24.5542 672.304 24.8238C669.712 24.8586 667.258 25.4472 664.944 26.5894C663.539 27.7887 663.072 29.2846 663.546 31.0771C663.99 31.8635 664.653 32.3785 665.533 32.622C667.079 33.0179 668.649 33.2632 670.244 33.3577C676.332 33.4717 682.416 33.6678 688.497 33.9462C696.206 34.6386 700.451 38.832 701.23 46.5264C701.648 53.9283 700.176 60.9418 696.814 67.5669C693.303 73.6207 688.077 77.2746 681.137 78.5286C677.174 79.2872 673.199 79.7532 669.213 79.9264C663.62 79.9264 658.026 79.9264 652.432 79.9264C643.778 79.6386 635.142 78.8785 626.525 77.6458C624.352 77.3166 622.194 76.9242 620.048 76.4687C621.551 70.1876 622.974 63.8851 624.316 57.5616C635.211 59.0045 646.152 59.7891 657.143 59.9158C659.218 59.9099 661.279 59.7382 663.325 59.4009C665.28 59.1266 666.678 58.1212 667.52 56.3846C667.874 55.026 667.653 53.7754 666.858 52.6326C666.409 52.3098 665.917 52.0645 665.386 51.8969C663.74 51.5006 662.072 51.2555 660.381 51.1612C655.918 50.9963 651.453 50.8983 646.986 50.8669C643.178 50.7857 639.595 49.8539 636.24 48.0713C632.708 45.9457 630.623 42.8312 629.984 38.7282C629.305 30.7523 630.777 23.1992 634.4 16.0691C637.188 10.83 641.236 6.88183 646.544 4.22464C650.761 2.6164 655.129 1.68454 659.645 1.42904C663.247 1.18686 666.829 1.0152 670.391 0.914062Z" fill="#006AB6"/>
<path opacity="0.914" fill-rule="evenodd" clip-rule="evenodd" d="M726.917 0.914062C727.947 0.914062 728.978 0.914062 730.008 0.914062C732.494 1.51118 734.433 2.88446 735.823 5.03389C736.326 5.93129 736.694 6.86316 736.927 7.82948C736.927 8.90848 736.927 9.98749 736.927 11.0665C736.114 14.4056 734.053 16.5881 730.744 17.6141C725.992 18.5624 722.583 16.8703 720.513 12.5379C718.972 6.59305 721.107 2.71846 726.917 0.914062ZM727.211 2.23829C731.217 1.87134 733.94 3.53889 735.381 7.24094C736.239 11.5837 734.645 14.6 730.597 16.2898C726.481 17.1388 723.512 15.6919 721.691 11.9493C720.681 8.45311 721.59 5.58394 724.414 3.34182C725.312 2.83909 726.246 2.47125 727.211 2.23829ZM726.622 6.06384C727.61 6.05615 728.59 6.12972 729.566 6.28455C730.594 6.75731 730.863 7.51751 730.376 8.56517C730.198 8.79305 729.977 8.96472 729.714 9.08014C728.694 9.27716 727.663 9.35073 726.622 9.30085C726.622 8.22185 726.622 7.14284 726.622 6.06384Z" fill="#006BB6"/>
<path opacity="0.996" fill-rule="evenodd" clip-rule="evenodd" d="M0.914307 27.8402C0.914307 27.6441 0.914307 27.4478 0.914307 27.2517C3.2069 19.1973 5.41493 11.1048 7.53841 2.97412C32.5138 2.97412 57.489 2.97412 82.4644 2.97412C80.2795 11.2683 78.0715 19.557 75.8403 27.8402C68.823 27.7912 61.8063 27.8402 54.7904 27.9873C50.4725 44.5648 46.1545 61.1421 41.8366 77.7195C30.944 77.8666 20.0511 77.9156 9.15764 77.8666C13.3724 61.1868 17.6904 44.5359 22.1115 27.9138C15.0459 27.8402 7.9802 27.8156 0.914307 27.8402Z" fill="#006BB6"/>
<path opacity="0.996" fill-rule="evenodd" clip-rule="evenodd" d="M169.756 2.97396C181.483 2.92492 193.211 2.97396 204.937 3.12109C206.324 14.0014 207.673 24.8895 208.985 35.7854C209.045 35.8527 209.119 35.9018 209.206 35.9326C215.619 25.0247 221.998 14.0876 228.342 3.12109C240.756 2.92492 253.171 2.92492 265.584 3.12109C247.531 28.0078 229.451 52.8739 211.34 77.7193C198.47 77.8908 185.59 77.9153 172.7 77.7929C177.004 72.1299 181.273 66.4407 185.506 60.7251C180.222 41.4858 174.972 22.2355 169.756 2.97396Z" fill="#006BB6"/>
<path opacity="0.996" fill-rule="evenodd" clip-rule="evenodd" d="M363.768 2.97412C386.879 2.97412 409.99 2.97412 433.101 2.97412C431.016 11.2566 428.955 19.5454 426.918 27.8402C420.393 27.8402 413.866 27.8402 407.34 27.8402C403.319 44.5052 399.344 61.1806 395.417 77.8666C385.308 77.8666 375.201 77.8666 365.093 77.8666C369.067 61.1912 373.042 44.5156 377.016 27.8402C370.489 27.8892 363.964 27.8402 357.438 27.6931C359.549 19.4492 361.659 11.2095 363.768 2.97412Z" fill="#006BB6"/>
<path opacity="0.995" fill-rule="evenodd" clip-rule="evenodd" d="M437.664 2.97412C447.625 2.97412 457.585 2.97412 467.546 2.97412C461.314 27.8427 455.057 52.7088 448.778 77.5724C443.877 77.7681 438.946 77.8662 433.984 77.8666C429.078 77.8176 424.17 77.7685 419.264 77.7195C425.443 52.8147 431.577 27.8996 437.664 2.97412Z" fill="#006BB6"/>
<path opacity="0.996" fill-rule="evenodd" clip-rule="evenodd" d="M475.348 2.97404C495.466 2.94951 515.583 2.97404 535.701 3.04761C544.506 3.65893 548.897 8.39183 548.875 17.2463C549.267 23.2347 548.384 29.0221 546.226 34.6084C542.987 41.7672 537.467 45.9114 529.665 47.0414C526.92 47.2108 524.173 47.3089 521.422 47.3357C528.095 57.4881 534.769 67.6406 541.442 77.793C529.813 77.9156 518.184 77.8911 506.555 77.7194C501.819 69.1365 497.085 60.5534 492.35 51.9705C490.336 60.5604 488.3 69.1434 486.241 77.7194C476.33 77.8666 466.418 77.9156 456.506 77.8666C462.763 52.8972 469.045 27.933 475.348 2.97404ZM499.636 24.0146C504.249 23.99 508.861 24.0146 513.473 24.0881C516.822 24.2965 518.588 26.0621 518.772 29.3851C518.717 32.5848 517.539 35.2823 515.24 37.4776C514.15 38.3405 512.924 38.9291 511.56 39.2432C506.315 39.4826 501.064 39.5316 495.809 39.3903C497.119 34.2728 498.395 29.1474 499.636 24.0146Z" fill="#006BB6"/>
<path opacity="0.995" fill-rule="evenodd" clip-rule="evenodd" d="M559.548 2.97396C583.493 2.92492 607.437 2.97396 631.382 3.12109C629.454 11.0055 627.49 18.8774 625.494 26.7365C611.706 26.7611 597.917 26.8347 584.13 26.9572C583.486 29.5936 582.897 32.2421 582.364 34.9026C596.102 34.9026 609.842 34.9026 623.581 34.9026C622.351 40.3075 621.075 45.7026 619.753 51.0876C605.965 51.0386 592.176 51.0876 578.389 51.2348C577.789 53.4174 577.2 55.5999 576.623 57.7823C590.46 57.8069 604.297 57.8805 618.134 58.003C616.543 64.6101 614.924 71.2066 613.276 77.7929C589.43 77.8665 565.583 77.8911 541.736 77.8665C547.696 52.9074 553.633 27.9433 559.548 2.97396Z" fill="#006BB6"/>
<path opacity="0.92" fill-rule="evenodd" clip-rule="evenodd" d="M724.856 4.44522C726.728 4.38672 728.593 4.46028 730.45 4.66592C731.983 5.35398 732.499 6.50654 731.995 8.12363C731.61 8.80286 731.046 9.2688 730.302 9.52143C731.094 9.75033 731.61 10.2653 731.848 11.0664C731.897 11.9001 731.947 12.7339 731.995 13.5677C732.05 13.7025 732.123 13.8251 732.216 13.9355C731.629 14.0089 731.04 14.0334 730.45 14.0091C730.934 10.9619 729.658 9.78476 726.622 10.4778C726.647 11.6559 726.622 12.833 726.549 14.0091C726 14.1504 725.436 14.1994 724.856 14.1562C724.856 10.9192 724.856 7.68222 724.856 4.44522ZM726.622 6.06372C726.622 7.14272 726.622 8.22173 726.622 9.30072C727.663 9.3506 728.694 9.27703 729.714 9.08002C729.977 8.96459 730.198 8.79293 730.376 8.56504C730.863 7.51738 730.594 6.75719 729.566 6.28442C728.59 6.12959 727.61 6.05602 726.622 6.06372Z" fill="#006BB6"/>
</g>
<defs>
<clipPath id="clip0_4623_6697">
<rect width="737" height="80" fill="white"/>
</clipPath>
</defs>
</svg>
