<svg width="256" height="80" viewBox="0 0 256 80" fill="none" xmlns="http://www.w3.org/2000/svg">
<path opacity="0.983" fill-rule="evenodd" clip-rule="evenodd" d="M169.252 1.60716C171.782 1.58311 174.312 1.60716 176.84 1.6794C177.789 1.88844 178.752 2.06903 179.731 2.22115C183.835 3.09908 187.34 5.06139 190.245 8.10822C192.253 10.5039 193.579 13.2247 194.22 16.2707C195.474 26.1981 192.993 35.0349 186.777 42.7805C180.174 50.2553 171.864 54.0114 161.845 54.049C157.988 54.0851 154.291 53.3751 150.753 51.9181C144.466 48.8836 140.985 43.8871 140.31 36.9296C139.901 28.483 142.178 20.8504 147.139 14.0314C152.757 6.93796 160.056 2.85674 169.036 1.78775C169.153 1.7707 169.225 1.71053 169.252 1.60716ZM169.469 13.7425C172.073 13.5516 174.506 14.0692 176.768 15.2955C179.327 16.9712 180.832 19.3188 181.284 22.3383C181.686 27.2832 180.361 31.7135 177.31 35.6294C173.215 40.4206 168.048 42.4071 161.809 41.5887C157.526 40.7681 154.84 38.2514 153.752 34.0402C152.966 27.2668 155.17 21.6927 160.364 17.318C163.061 15.2254 166.096 14.0335 169.469 13.7425Z" fill="#FE0000"/>
<path opacity="0.979" fill-rule="evenodd" clip-rule="evenodd" d="M4.63366 2.54649C18.3439 2.52893 32.0501 2.57704 45.7522 2.69096C44.9194 6.65768 44.0522 10.6547 43.1507 14.6818C38.4324 14.7537 33.7111 14.7779 28.9868 14.754C26.323 27.4303 23.625 40.0951 20.8932 52.7491C16.5333 52.7491 12.1732 52.7491 7.81331 52.7491C10.5432 40.1089 13.2651 27.4679 15.9792 14.8263C14.9684 14.7661 13.9567 14.73 12.9441 14.7179C9.25867 14.6818 5.57317 14.6697 1.88761 14.6818C1.85147 14.3687 1.91167 14.0797 2.06827 13.815C2.83911 10.1551 3.60989 6.4953 4.38074 2.83542C4.4306 2.70179 4.51486 2.60543 4.63366 2.54649Z" fill="#FE0000"/>
<path opacity="0.835" fill-rule="evenodd" clip-rule="evenodd" d="M248.816 2.54643C251.45 2.3561 253.208 3.48778 254.091 5.94143C254.437 7.80022 253.931 9.37738 252.574 10.6728C250.674 12.0081 248.747 12.0562 246.792 10.8172C245.575 9.87702 244.973 8.63698 244.986 7.09717C245.088 4.58718 246.365 3.07027 248.816 2.54643ZM249.249 3.84664C250.856 3.78806 251.928 4.5104 252.465 6.01366C252.796 7.30614 252.555 8.46189 251.743 9.48089C251.412 8.83895 251.039 8.18884 250.622 7.53057C251.527 7.26425 251.876 6.66232 251.67 5.72473C251.461 5.07216 251.016 4.69893 250.333 4.6051C249.466 4.55692 248.599 4.55692 247.732 4.6051C247.648 6.24922 247.636 7.89853 247.696 9.55312C248.087 9.62341 248.484 9.64753 248.888 9.62536C248.888 8.9512 248.888 8.27697 248.888 7.60281C249.03 7.58554 249.163 7.6096 249.286 7.67504C249.595 8.33815 249.944 8.97619 250.333 9.58924C250.743 9.6133 251.152 9.63742 251.562 9.66148C250.743 10.3239 249.804 10.5406 248.744 10.3116C247.298 9.75509 246.55 8.69563 246.503 7.13329C246.555 6.27977 246.808 5.52131 247.262 4.85792C247.806 4.26163 248.467 3.92458 249.249 3.84664ZM248.888 5.65249C249.326 5.64079 249.76 5.67691 250.189 5.76084C250.382 6.0016 250.382 6.24243 250.189 6.48318C249.756 6.51923 249.322 6.53129 248.888 6.5193C248.888 6.23036 248.888 5.94143 248.888 5.65249Z" fill="#FE0000"/>
<path opacity="0.98" fill-rule="evenodd" clip-rule="evenodd" d="M48.1368 2.69092C52.4486 2.69092 56.7601 2.69092 61.0722 2.69092C60.9804 3.53858 60.812 4.36927 60.5663 5.18299C60.5902 5.20704 60.6147 5.23117 60.6386 5.25522C58.7684 13.7161 56.9256 22.1795 55.1103 30.6455C54.9889 31.4416 54.869 32.2362 54.749 33.0292C54.3168 38.7855 56.9907 41.7225 62.7704 41.8417C65.4731 41.8504 67.8463 40.9959 69.8885 39.2774C71.5101 37.6131 72.6779 35.6751 73.3933 33.4626C73.6614 32.6265 73.9028 31.7837 74.1159 30.9344C76.0895 21.5292 78.1006 12.1147 80.15 2.69092C84.4859 2.69092 88.8218 2.69092 93.1577 2.69092C91.0945 12.4849 88.9866 22.3328 86.8345 32.2346C85.718 36.7796 83.6946 40.9207 80.7643 44.6588C75.8835 50.3234 69.7049 53.4172 62.2284 53.9409C58.2401 54.2804 54.4098 53.7264 50.7383 52.2795C45.35 49.8019 42.2787 45.6239 41.5246 39.7469C41.2905 36.9818 41.411 34.2369 41.8859 31.5123C43.985 21.9088 46.0687 12.3017 48.1368 2.69092Z" fill="#FE0000"/>
<path opacity="0.982" fill-rule="evenodd" clip-rule="evenodd" d="M99.5169 2.69056C107.395 2.65661 115.271 2.69273 123.147 2.79891C125.633 3.05426 128.017 3.65626 130.302 4.60476C134.474 6.56006 137.329 9.70224 138.865 14.0313C139.815 17.1006 140.128 20.2547 139.804 23.4939C139.131 29.8968 136.939 35.7239 133.228 40.9745C127.532 48.4746 119.98 52.4352 110.573 52.857C103.347 52.8932 96.1205 52.9054 88.894 52.8932C88.9005 52.5291 88.9367 52.1679 89.0024 51.8096C91.2484 41.6586 93.4286 31.5096 95.5424 21.363C96.7109 16.0281 97.8787 10.6948 99.0472 5.36322C99.2272 4.47922 99.3833 3.58836 99.5169 2.69056ZM109.923 14.8981C112.79 14.886 115.656 14.8981 118.523 14.9342C119.836 15.0449 121.113 15.3339 122.353 15.801C124.898 17.0697 126.307 19.1284 126.58 21.977C126.746 23.8784 126.589 25.7445 126.11 27.5752C125.53 30.5844 124.289 33.317 122.389 35.7737C120.755 37.6655 118.768 39.0018 116.427 39.7827C115.633 39.9647 114.838 40.133 114.042 40.2883C110.839 40.4025 107.636 40.427 104.431 40.3606C104.537 39.8607 104.669 39.3666 104.828 38.8798C105.066 37.693 105.319 36.5134 105.587 35.3403C105.49 35.2551 105.501 35.1828 105.623 35.1236C105.985 33.2441 106.395 31.3658 106.852 29.4894C107.866 24.6258 108.889 19.762 109.923 14.8981Z" fill="#FE0000"/>
<path opacity="0.981" fill-rule="evenodd" clip-rule="evenodd" d="M203.723 2.69056C211.527 2.6785 219.332 2.69056 227.136 2.72668C230.132 2.67171 232.974 3.29776 235.664 4.60476C239.578 6.80768 241.782 10.1184 242.276 14.5369C242.592 20.0365 241.074 24.9725 237.723 29.3449C235.302 32.1621 232.352 34.2207 228.871 35.5209C229.377 35.6863 229.859 35.9153 230.316 36.2071C231.171 37.001 231.81 37.94 232.231 39.0242C233.001 40.95 233.773 42.8757 234.544 44.8029C235.277 46.5214 236.12 48.1828 237.073 49.7871C237.941 50.8966 238.953 51.8595 240.108 52.6764C240.143 52.7942 240.156 52.9148 240.144 53.0376C234.512 52.9098 228.875 52.8614 223.234 52.8932C223.192 52.6627 223.107 52.446 222.981 52.243C220.222 47.2726 217.512 42.2885 214.852 37.2906C213.021 37.2906 211.19 37.2906 209.359 37.2906C208.275 42.5095 207.168 47.6858 206.035 52.8209C201.675 52.8932 197.316 52.917 192.955 52.8932C196.491 36.1464 200.079 19.4121 203.723 2.69056ZM214.273 14.5369C218.055 14.5249 221.837 14.5369 225.619 14.573C227.496 14.9807 228.616 16.1244 228.979 18.0042C229.256 20.8799 228.197 23.1191 225.8 24.7219C224.959 25.206 224.056 25.507 223.09 25.6248C219.356 25.661 215.623 25.673 211.889 25.661C212.65 21.9655 213.445 18.2575 214.273 14.5369Z" fill="#FE0000"/>
<path opacity="0.93" fill-rule="evenodd" clip-rule="evenodd" d="M228.943 62.4284C230.76 62.2297 232.47 62.5309 234.074 63.3313C234.77 63.7625 235.348 64.3158 235.808 64.9927C235.075 65.702 234.316 66.3882 233.532 67.0513C233.113 66.5616 232.595 66.212 231.978 66.0039C230.672 65.5185 229.395 65.5785 228.148 66.1845C227.596 66.6056 227.415 67.1597 227.606 67.8459C227.793 68.2497 228.094 68.5263 228.509 68.6766C228.778 68.7409 229.043 68.8131 229.304 68.8933C230.628 68.9785 231.929 69.1952 233.207 69.5434C235.974 70.6666 237.046 72.7015 236.422 75.6472C235.993 76.9683 235.162 77.9673 233.929 78.6449C231.331 79.7508 228.729 79.7508 226.125 78.6449C224.955 78.0778 224.04 77.2349 223.379 76.1167C224.041 75.3106 224.751 74.5521 225.51 73.8413C225.88 74.2263 226.278 74.5875 226.703 74.9248C228.219 75.9065 229.856 76.2077 231.617 75.8277C232.97 75.2838 233.32 74.4055 232.665 73.1912C232.245 72.7946 231.751 72.5418 231.183 72.4328C229.619 72.3468 228.102 72.0579 226.631 71.5659C224.642 70.6117 223.762 69.0341 223.993 66.8346C224.156 65.6724 224.674 64.6972 225.547 63.9091C226.12 63.4534 226.747 63.0922 227.425 62.8256C227.939 62.6869 228.445 62.5548 228.943 62.4284Z" fill="black"/>
<path opacity="0.934" fill-rule="evenodd" clip-rule="evenodd" d="M10.776 62.9338C13.4017 62.9215 16.0273 62.9338 18.6528 62.9699C20.2908 63.0147 21.6758 63.6287 22.8081 64.8119C23.623 66.0883 23.7916 67.4607 23.3139 68.9292C22.9699 69.6342 22.4519 70.176 21.7602 70.5545C23.2635 71.3967 24.0344 72.6854 24.0727 74.419C23.8651 76.9739 22.4921 78.4547 19.9536 78.8614C16.8715 78.9632 13.7883 78.9994 10.7037 78.9698C10.6799 73.6194 10.7039 68.2741 10.776 62.9338ZM14.2447 66.2566C15.8368 66.227 17.4266 66.2631 19.0142 66.3649C19.9244 66.734 20.2255 67.3957 19.9175 68.3514C19.7004 68.6945 19.3993 68.9227 19.0142 69.0376C17.4246 69.0737 15.8347 69.086 14.2447 69.0737C14.2447 68.1347 14.2447 67.1956 14.2447 66.2566ZM14.1724 72.3965C14.967 72.3481 15.774 72.3242 16.5933 72.3242C17.5004 72.3148 18.4037 72.351 19.3032 72.4326C20.3859 73.074 20.6147 73.9524 19.9897 75.0691C19.6888 75.3465 19.3395 75.5271 18.9419 75.6109C17.3764 75.647 15.8106 75.6593 14.2447 75.647C14.2685 74.5505 14.2444 73.467 14.1724 72.3965Z" fill="black"/>
<path opacity="0.935" fill-rule="evenodd" clip-rule="evenodd" d="M44.4514 62.9338C45.6561 62.9215 46.8605 62.9338 48.0646 62.9699C48.123 62.9923 48.1712 63.0284 48.2092 63.0783C50.2272 67.845 52.2626 72.5886 54.3155 77.3084C54.5601 77.8458 54.765 78.3998 54.9298 78.9698C53.6529 78.982 52.3762 78.9698 51.0998 78.9336C50.7024 78.0423 50.3411 77.1393 50.0158 76.2249C47.5105 76.2126 45.0053 76.2249 42.5003 76.261C42.1145 77.1552 41.7291 78.0459 41.344 78.9336C40.0917 78.9698 38.8391 78.982 37.5863 78.9698C37.5806 78.7697 37.6167 78.5768 37.6947 78.3919C39.8617 73.3391 42.0297 68.2827 44.1985 63.2228C44.2731 63.1122 44.3574 63.0162 44.4514 62.9338ZM46.1858 66.9789C46.996 68.9141 47.815 70.8759 48.6428 72.866C47.0289 72.9144 45.4149 72.9144 43.801 72.866C44.6673 70.9301 45.4623 68.9675 46.1858 66.9789Z" fill="black"/>
<path opacity="0.928" fill-rule="evenodd" clip-rule="evenodd" d="M66.9979 62.9338C71.1893 62.9215 75.3806 62.9338 79.572 62.9699C79.6435 64.0838 79.6674 65.2034 79.6442 66.3288C78.0783 66.3165 76.5123 66.3288 74.947 66.3649C75.0193 70.5617 75.0432 74.7628 75.0193 78.9698C73.8392 78.9698 72.6584 78.9698 71.4783 78.9698C71.4783 74.7563 71.4783 70.5422 71.4783 66.3288C69.9608 66.3288 68.4432 66.3288 66.9257 66.3288C66.9025 65.1918 66.9271 64.0599 66.9979 62.9338Z" fill="black"/>
<path opacity="0.918" fill-rule="evenodd" clip-rule="evenodd" d="M93.4468 62.9336C97.6381 62.9336 101.829 62.9336 106.021 62.9336C106.021 64.0655 106.021 65.1967 106.021 66.3286C104.503 66.3286 102.986 66.3286 101.468 66.3286C101.468 70.542 101.468 74.7561 101.468 78.9695C100.27 78.9926 99.0776 78.9688 97.891 78.8973C97.8311 74.7287 97.8434 70.5637 97.9272 66.4008C96.4103 66.3409 94.8928 66.3048 93.3745 66.2925C93.3268 65.7442 93.303 65.1902 93.3022 64.6311C93.3044 64.0482 93.3528 63.4826 93.4468 62.9336Z" fill="black"/>
<path opacity="0.932" fill-rule="evenodd" clip-rule="evenodd" d="M121.196 62.9338C124.954 62.9215 128.712 62.9338 132.47 62.9699C132.541 64.1083 132.565 65.2518 132.542 66.401C129.892 66.401 127.243 66.401 124.593 66.401C124.593 67.3401 124.593 68.2791 124.593 69.2182C127.074 69.2182 129.555 69.2182 132.036 69.2182C132.036 70.3255 132.036 71.4336 132.036 72.5409C129.555 72.5409 127.074 72.5409 124.593 72.5409C124.593 73.5284 124.593 74.5151 124.593 75.5025C127.339 75.5025 130.085 75.5025 132.831 75.5025C132.831 76.6583 132.831 77.814 132.831 78.9698C128.929 78.9698 125.026 78.9698 121.124 78.9698C121.1 73.6194 121.124 68.2741 121.196 62.9338Z" fill="black"/>
<path opacity="0.932" fill-rule="evenodd" clip-rule="evenodd" d="M148.513 62.9338C151.066 62.9215 153.62 62.9338 156.173 62.9699C159.428 63.3463 161.163 65.1644 161.376 68.4236C161.467 70.1854 160.817 71.5939 159.425 72.6493C158.961 72.9527 158.479 73.2178 157.979 73.4439C159.328 75.0677 160.654 76.7168 161.954 78.3919C162.025 78.579 162.048 78.7711 162.026 78.9698C160.722 78.9929 159.421 78.969 158.124 78.8975C156.843 77.2325 155.591 75.5473 154.366 73.8411C153.596 73.7689 152.826 73.7451 152.054 73.7689C152.054 75.5025 152.054 77.2361 152.054 78.9698C150.849 78.9698 149.645 78.9698 148.44 78.9698C148.416 73.6194 148.44 68.2741 148.513 62.9338ZM152.054 66.2566C153.379 66.2443 154.704 66.2566 156.028 66.2927C156.821 66.3938 157.363 66.8149 157.654 67.5568C158.038 68.6923 157.761 69.6191 156.823 70.3378C156.566 70.4396 156.301 70.5119 156.028 70.5545C154.704 70.5906 153.379 70.6029 152.054 70.5906C152.054 69.1459 152.054 67.7013 152.054 66.2566Z" fill="black"/>
<path opacity="0.95" fill-rule="evenodd" clip-rule="evenodd" d="M177.346 62.9336C178.502 62.9336 179.658 62.9336 180.815 62.9336C180.815 68.2789 180.815 73.6242 180.815 78.9695C179.658 78.9695 178.502 78.9695 177.346 78.9695C177.346 73.6242 177.346 68.2789 177.346 62.9336Z" fill="black"/>
<path opacity="0.933" fill-rule="evenodd" clip-rule="evenodd" d="M197.291 62.9338C201.049 62.9215 204.807 62.9338 208.564 62.9699C208.636 64.1083 208.66 65.2518 208.637 66.401C206.011 66.3888 203.385 66.401 200.76 66.4372C200.757 67.3488 200.757 68.2762 200.76 69.2182C203.217 69.2182 205.674 69.2182 208.131 69.2182C208.131 70.3255 208.131 71.4336 208.131 72.5409C205.65 72.5287 203.168 72.5409 200.688 72.577C200.784 73.5399 200.784 74.5035 200.688 75.4664C203.41 75.5025 206.131 75.5148 208.853 75.5025C208.853 76.6583 208.853 77.814 208.853 78.9698C204.975 78.9698 201.097 78.9698 197.219 78.9698C197.195 73.6194 197.219 68.2741 197.291 62.9338Z" fill="black"/>
</svg>
