<svg width="604" height="80" viewBox="0 0 604 80" fill="none" xmlns="http://www.w3.org/2000/svg">
<path opacity="0.991" fill-rule="evenodd" clip-rule="evenodd" d="M31.881 1.1112C56.8787 0.988241 81.8418 1.1117 106.77 1.48157C95.4477 27.0107 84.1978 52.5663 73.0208 78.1482C48.8794 78.3951 24.7374 78.4774 0.594971 78.3951C10.9539 52.6085 21.3827 26.8473 31.881 1.1112Z" fill="#DF3625"/>
<path opacity="0.991" fill-rule="evenodd" clip-rule="evenodd" d="M528.269 1.11101C553.126 1.02904 577.967 1.11126 602.789 1.35793C591.814 26.9848 580.687 52.5814 569.409 78.148C545.186 78.4362 520.963 78.4772 496.737 78.2715C507.273 52.5584 517.782 26.8382 528.269 1.11101Z" fill="#DF3625"/>
<path opacity="0.98" fill-rule="evenodd" clip-rule="evenodd" d="M339.568 7.77785C343.608 7.66822 347.633 7.8739 351.639 8.39514C355.396 8.87934 358.64 10.4021 361.369 12.963C363.419 16.149 363.747 19.5235 362.355 23.0865C357.403 36.4956 352.065 49.7465 346.342 62.8396C340.797 70.5223 333.284 74.9255 323.802 76.0495C319.212 76.7149 314.613 76.7974 310.006 76.2964C299.684 74.7591 296.196 69.0388 299.537 59.1359C304.355 46.5134 309.447 34.003 314.81 21.605C318.917 15.2719 324.622 11.1156 331.931 9.13588C334.486 8.5302 337.03 8.07761 339.568 7.77785ZM337.843 18.3951C339.59 18.3003 341.314 18.4238 343.017 18.7655C343.625 19.2695 343.872 19.928 343.756 20.7408C343.637 22.3225 343.268 23.8453 342.647 25.3087C337.575 38.1075 332.239 50.7823 326.635 63.3334C324.346 65.7487 321.594 66.4485 318.382 65.4322C317.761 64.9704 317.434 64.3532 317.397 63.5803C317.589 62.1349 317.958 60.7359 318.505 59.3828C323.489 46.702 328.662 34.1095 334.025 21.605C335.129 20.2897 336.402 19.2198 337.843 18.3951Z" fill="black"/>
<path opacity="0.979" fill-rule="evenodd" clip-rule="evenodd" d="M117.61 8.76538C124.261 8.76538 130.912 8.76538 137.564 8.76538C130.535 26.317 123.432 43.8479 116.255 61.358C115.18 64.3619 116.207 65.8434 119.334 65.8024C122.379 65.7545 124.555 64.3553 125.862 61.6049C133.266 44.1306 140.533 26.5997 147.664 9.01229C153.905 8.68316 160.146 8.68316 166.386 9.01229C159.694 25.8846 153.002 42.7572 146.309 59.6296C141.876 68.5032 134.772 73.894 125 75.8024C119.1 76.8249 113.188 76.9071 107.263 76.0493C98.9103 74.7279 95.4203 69.913 96.7935 61.6049C103.531 43.9034 110.469 26.2903 117.61 8.76538Z" fill="black"/>
<path opacity="0.978" fill-rule="evenodd" clip-rule="evenodd" d="M174.516 8.76538C183.22 8.76538 191.924 8.76538 200.628 8.76538C198.37 24.4041 196.194 40.0422 194.1 55.679C200.423 40.1234 206.746 24.5679 213.069 9.01229C218.103 8.68489 223.153 8.68489 228.219 9.01229C219.297 31.1081 210.306 53.1656 201.244 75.1851C193.511 74.8609 185.71 74.8609 177.841 75.1851C177.479 74.9676 177.274 74.6385 177.225 74.1975C179.858 56.4261 182.363 38.6483 184.739 20.8641C177.458 38.8348 170.108 56.777 162.691 74.6913C157.953 74.8575 153.232 75.0219 148.526 75.1851C148.21 75.2145 147.923 75.0911 147.664 74.8148C156.65 52.8096 165.601 30.7933 174.516 8.76538Z" fill="black"/>
<path opacity="0.98" fill-rule="evenodd" clip-rule="evenodd" d="M236.102 8.76538C242.589 8.76538 249.077 8.76538 255.564 8.76538C246.789 30.994 237.797 53.134 228.589 75.1851C222.266 74.856 215.943 74.856 209.62 75.1851C209.497 75.0617 209.374 74.9382 209.25 74.8148C218.226 52.8054 227.177 30.7888 236.102 8.76538Z" fill="black"/>
<path opacity="0.981" fill-rule="evenodd" clip-rule="evenodd" d="M264.432 8.76547C274.614 8.72423 284.798 8.76547 294.979 8.88892C298.728 9.04571 302.177 10.1156 305.326 12.0988C307.156 13.5469 308.06 15.44 308.035 17.7778C307.392 24.4986 304.601 30.0951 299.66 34.5679C295.713 37.204 291.36 38.7677 286.603 39.2593C289.293 39.3865 291.838 40.045 294.24 41.2346C295.935 42.3684 296.839 43.9734 296.95 46.0494C296.497 49.0173 295.716 51.8981 294.61 54.6914C292.784 59.443 290.813 64.1344 288.697 68.7655C288.557 69.9571 288.434 71.1504 288.328 72.3457C288.315 73.2121 288.48 74.0353 288.82 74.8148C288.697 74.9383 288.574 75.0618 288.451 75.1852C282.068 74.9544 275.702 74.8721 269.359 74.9383C269.029 72.5319 269.152 70.145 269.729 67.7778C272.209 61.6544 274.55 55.4815 276.749 49.2593C276.715 47.7902 276.138 46.5968 275.025 45.679C273.168 45.205 271.278 44.9168 269.359 44.8148C269.076 44.8934 268.871 45.0578 268.743 45.3087C264.742 55.3647 260.555 65.3237 256.179 75.1852C249.915 75.0218 243.633 74.8571 237.334 74.6914C246.303 52.6815 255.335 30.7062 264.432 8.76547ZM279.459 18.3951C281.383 18.2976 283.27 18.5032 285.125 19.0124C286.505 19.3652 287.325 20.2294 287.589 21.605C286.808 24.9781 285.618 28.1879 284.017 31.2346C281.026 34.4146 277.373 35.6492 273.054 34.9383C275.261 29.4435 277.397 23.9292 279.459 18.3951Z" fill="black"/>
<path opacity="0.978" fill-rule="evenodd" clip-rule="evenodd" d="M367.651 8.76531C373.975 8.76531 380.296 8.76531 386.62 8.76531C385.511 17.3231 384.484 25.8826 383.541 34.4443C389.359 25.9473 395.148 17.4288 400.908 8.88877C407.069 8.68309 413.228 8.72433 419.384 9.01223C408.562 22.8843 397.683 36.7115 386.743 50.4937C383.247 58.5811 379.922 66.7293 376.766 74.9381C370.383 74.8572 364.02 74.9394 357.674 75.1851C357.504 75.0554 357.381 74.8907 357.305 74.6912C360.571 66.7999 363.816 58.8986 367.035 50.9875C367.264 36.9135 367.469 22.8394 367.651 8.76531Z" fill="black"/>
<path opacity="0.979" fill-rule="evenodd" clip-rule="evenodd" d="M428.253 8.76545C437.04 8.68323 445.827 8.76545 454.612 9.01236C449.315 30.904 444.019 52.7971 438.722 74.6914C432.448 74.857 426.166 75.0217 419.877 75.1852C419.732 75.1336 419.608 75.0511 419.507 74.9383C420.941 69.602 422.338 64.2521 423.695 58.8889C420.493 59.218 417.29 59.218 414.088 58.8889C413.903 59.0435 413.698 59.1669 413.472 59.2593C410.383 64.424 407.261 69.5679 404.111 74.6914C398.691 75.0205 393.271 75.0205 387.852 74.6914C401.324 52.7119 414.792 30.7366 428.253 8.76545ZM434.165 21.1111C431.738 30.3447 429.233 39.5627 426.651 48.7654C424.407 49.0906 422.151 49.0906 419.877 48.7654C424.572 39.4667 429.337 30.2487 434.165 21.1111Z" fill="black"/>
<path opacity="0.98" fill-rule="evenodd" clip-rule="evenodd" d="M471.117 8.76538C477.603 8.76538 484.092 8.76538 490.578 8.76538C483.114 27.5558 475.477 46.2799 467.668 64.9382C474.568 64.9795 481.466 65.1029 488.361 65.3086C487.07 68.6365 485.715 71.9286 484.296 75.1851C471.225 74.859 458.088 74.859 444.881 75.1851C444.758 75.0617 444.635 74.9382 444.511 74.8148C453.454 52.8232 462.322 30.8069 471.117 8.76538Z" fill="black"/>
<path opacity="0.803" fill-rule="evenodd" clip-rule="evenodd" d="M497.969 8.76531C503.578 8.42037 506.33 11.0542 506.221 16.6665C505.209 20.7256 502.622 22.5774 498.461 22.2221C494.199 20.9873 492.436 18.1478 493.165 13.7036C493.99 11.2715 495.591 9.62531 497.969 8.76531ZM498.954 9.99988C503.191 10.3411 505.039 12.6456 504.497 16.9135C503.561 20.0386 501.467 21.3144 498.215 20.7406C495.072 19.2816 493.963 16.8535 494.889 13.4567C495.618 11.5312 496.973 10.3789 498.954 9.99988ZM498.461 12.9628C499.257 12.9132 500.035 12.9957 500.802 13.2098C501.58 13.6732 501.622 14.208 500.925 14.8147C500.107 14.9377 499.287 14.9789 498.461 14.9381C498.461 14.2796 498.461 13.6214 498.461 12.9628Z" fill="black"/>
<path opacity="0.777" fill-rule="evenodd" clip-rule="evenodd" d="M497.23 11.7284C498.725 11.6694 500.203 11.7929 501.664 12.0988C502.883 13.2452 502.967 14.4798 501.91 15.8025C501.531 15.8741 501.201 16.0385 500.925 16.2963C501.582 17.284 502.238 18.2716 502.896 19.2593C502.304 19.4603 501.728 19.419 501.171 19.1358C500.637 18.2304 500.104 17.3252 499.57 16.4198C499.235 16.2025 498.865 16.12 498.461 16.1729C498.461 17.2427 498.461 18.3129 498.461 19.3827C497.969 19.3827 497.476 19.3827 496.983 19.3827C496.907 16.8111 496.991 14.2595 497.23 11.7284ZM498.461 12.963C498.461 13.6215 498.461 14.2798 498.461 14.9383C499.287 14.979 500.107 14.9378 500.925 14.8148C501.622 14.2082 501.58 13.6734 500.802 13.2099C500.035 12.9958 499.257 12.9134 498.461 12.963Z" fill="black"/>
</svg>
