<svg width="184" height="80" viewBox="0 0 184 80" fill="none" xmlns="http://www.w3.org/2000/svg">
<g clip-path="url(#clip0_4623_6742)">
<path opacity="0.998" fill-rule="evenodd" clip-rule="evenodd" d="M15.4089 0.171875C20.7498 0.171875 26.0907 0.171875 31.4315 0.171875C31.438 10.225 31.9411 20.2528 32.9409 30.2555C33.142 32.1464 33.4 34.0282 33.7149 35.901C39.182 24.3999 43.5553 12.4902 46.8349 0.171875C51.7113 0.171875 56.5878 0.171875 61.4642 0.171875C58.8418 7.89037 55.8617 15.4693 52.5241 22.9086C48.1954 32.435 43.4996 41.7668 38.4366 50.9041C33.2689 50.9813 28.0957 51.0071 22.9171 50.9815C20.8139 42.524 19.0723 33.9914 17.6923 25.3833C16.4031 17.027 15.6419 8.62313 15.4089 0.171875Z" fill="#82E600"/>
<path opacity="0.997" fill-rule="evenodd" clip-rule="evenodd" d="M95.4445 0.171875C100.063 0.171875 104.681 0.171875 109.3 0.171875C107.249 17.0851 105.171 33.9958 103.069 50.9041C98.4687 50.9813 93.8631 51.0071 89.2522 50.9815C91.3096 34.0443 93.374 17.1077 95.4445 0.171875Z" fill="#82E600"/>
<path opacity="0.997" fill-rule="evenodd" clip-rule="evenodd" d="M127.025 12.3909C130.084 12.1948 133.077 12.5428 136.004 13.4349C141.215 15.3695 143.963 19.1203 144.248 24.6873C144.309 26.369 144.231 28.0445 144.015 29.7141C143.751 31.6126 143.402 33.4945 142.97 35.3596C136.056 35.3596 129.141 35.3596 122.226 35.3596C122.135 36.8776 122.458 38.2954 123.194 39.6131C123.987 40.6094 125.006 41.2668 126.251 41.5852C128.367 42.0588 130.509 42.2135 132.676 42.0492C135.305 41.8356 137.886 41.3587 140.416 40.6185C140.442 40.6829 140.468 40.7474 140.493 40.8118C139.956 43.7643 139.414 46.7159 138.868 49.6668C138.852 49.7823 138.8 49.8725 138.713 49.9374C132.598 51.2985 126.432 51.6079 120.214 50.8655C117.179 50.4663 114.47 49.332 112.086 47.4627C109.828 45.3098 108.578 42.6675 108.332 39.5358C107.981 34.5014 108.471 29.5519 109.803 24.6873C111.692 18.2619 115.911 14.3565 122.458 12.9709C123.982 12.6937 125.504 12.5003 127.025 12.3909ZM127.722 20.0471C130.149 20.2304 131.337 21.5451 131.282 23.9913C131.25 25.0881 131.108 26.1708 130.857 27.2394C128.166 27.3164 125.47 27.3422 122.768 27.3167C122.889 25.3392 123.417 23.4831 124.355 21.7485C125.205 20.6344 126.327 20.0673 127.722 20.0471Z" fill="#82E600"/>
<path opacity="0.997" fill-rule="evenodd" clip-rule="evenodd" d="M164.798 12.3912C168.1 12.2281 171.351 12.5504 174.551 13.3579C179.95 14.9555 182.956 18.5517 183.569 24.1462C183.809 28.4086 183.525 32.6363 182.717 36.8293C180.753 46.7567 174.703 51.848 164.566 52.1031C161.887 52.2339 159.229 52.0534 156.594 51.5617C149.246 49.9931 145.66 45.4432 145.834 37.912C145.832 34.3706 146.18 30.8648 146.879 27.3943C148.944 17.7336 154.917 12.7325 164.798 12.3912ZM165.572 20.2021C166.997 20.0947 168.042 20.6618 168.707 21.9035C169.097 22.8699 169.304 23.8753 169.327 24.9196C169.29 29.7341 168.799 34.5032 167.856 39.2267C167.597 40.4176 167.183 41.5518 166.617 42.6295C165.704 44.0336 164.427 44.5622 162.786 44.2148C161.73 43.9333 161.02 43.276 160.657 42.2428C160.373 41.3895 160.218 40.513 160.193 39.6134C160.229 34.7988 160.72 30.0298 161.664 25.3062C161.934 24.0549 162.373 22.869 162.979 21.7488C163.611 20.8219 164.476 20.3063 165.572 20.2021Z" fill="#82E600"/>
<path opacity="0.997" fill-rule="evenodd" clip-rule="evenodd" d="M74.081 12.7005C79.3979 12.6609 84.7132 12.7382 90.0262 12.9325C88.4712 25.6146 86.9231 38.2977 85.382 50.9817C80.9955 50.9946 76.6098 50.9817 72.2233 50.943C72.3944 50.0276 72.4974 49.1125 72.533 48.1976C69.9168 49.8524 67.0786 50.9223 64.0185 51.407C56.0829 52.2949 51.9676 48.7503 51.6726 40.7734C51.3531 35.136 52.2303 29.6966 54.3044 24.4555C57.4405 17.6422 62.7684 13.8399 70.2882 13.0485C71.5623 12.9103 72.8271 12.7943 74.081 12.7005ZM73.5392 20.9754C74.0555 20.9626 74.5718 20.9754 75.0873 21.0141C74.3814 27.6256 73.5942 34.2378 72.7265 40.8507C71.2953 41.9976 69.683 42.3972 67.8887 42.0494C66.8425 41.5716 66.2361 40.7595 66.0697 39.6133C65.7467 35.3763 66.1338 31.2002 67.2308 27.0849C67.6877 25.1615 68.6294 23.5246 70.056 22.1741C71.1149 21.4564 72.276 21.0568 73.5392 20.9754Z" fill="#82E600"/>
<path opacity="0.994" fill-rule="evenodd" clip-rule="evenodd" d="M0.315122 48.7388C9.27717 52.261 16.7596 57.7777 22.7622 65.2886C22.8396 65.3144 22.917 65.3402 22.9944 65.366C39.1149 62.1352 55.3697 59.8538 71.7589 58.5217C95.1286 56.6241 118.388 56.0183 141.538 56.7044C153.96 56.9891 166.384 57.582 178.808 58.4831C178.757 58.7898 178.731 59.0991 178.731 59.4111C158.651 59.0796 138.526 59.5564 118.356 60.8418C99.8743 62.0125 81.5296 64.281 63.3218 67.6474C48.3221 70.4307 33.6541 74.4135 19.3178 79.5957C19.1898 79.571 19.1124 79.4937 19.0856 79.3637C16.4016 71.3363 12.4798 64.015 7.32017 57.4004C5.16881 54.6056 2.87247 51.9246 0.431228 49.3575C0.243206 49.1742 0.204505 48.9679 0.315122 48.7388Z" fill="#4D6B7C"/>
</g>
<defs>
<clipPath id="clip0_4623_6742">
<rect width="184" height="80" fill="white"/>
</clipPath>
</defs>
</svg>
