<svg width="113" height="80" viewBox="0 0 113 80" fill="none" xmlns="http://www.w3.org/2000/svg">
<g clip-path="url(#clip0_4623_19750)">
<path opacity="0.993" fill-rule="evenodd" clip-rule="evenodd" d="M49.087 12.2895C49.4684 13.4643 49.8802 14.6346 50.3225 15.8008C51.2777 15.8722 52.2281 15.983 53.1736 16.1329C54.1933 16.2857 55.0328 16.7444 55.6921 17.509C55.7555 17.8885 55.7555 18.2681 55.6921 18.6477C55.6259 18.8455 55.5149 19.0037 55.3595 19.1222C54.082 18.4526 52.7197 18.1522 51.2728 18.2207C51.754 19.5839 52.2608 20.9284 52.7934 22.2539C51.9729 23.1332 51.1968 24.0504 50.465 25.006C49.6978 26.0318 49.1909 27.1706 48.9444 28.4224C48.8318 29.6984 49.2278 30.7897 50.1324 31.6964C50.7543 32.1493 51.4196 32.5289 52.1282 32.8352C53.7118 33.2798 55.3274 33.4854 56.9751 33.452C59.9155 33.4052 62.83 33.1047 65.7186 32.5505C72.9552 31.1553 80.0512 29.2573 87.0071 26.8565C90.1918 25.7436 93.3594 24.5732 96.5108 23.3453C97.0611 23.1181 97.599 22.8651 98.1265 22.5861C98.4658 22.2088 98.6872 21.7818 98.7918 21.3049C100.055 22.1317 100.26 23.1756 99.4095 24.4366C99.1662 24.6479 98.8963 24.822 98.6017 24.9585C88.9363 28.8662 79.021 31.982 68.8548 34.3061C67.1823 38.5883 65.4716 42.8588 63.7228 47.1175C58.1229 47.2091 52.5949 47.2407 47.1387 47.2124C45.6032 47.0943 44.3677 46.43 43.4322 45.2195C42.9825 44.5483 42.5707 43.8524 42.1967 43.1317C39.1557 35.8087 36.162 28.4698 33.2156 21.1151C29.7641 22.2063 26.311 23.3925 22.8565 24.6738C20.1475 25.7103 17.4864 26.8491 14.8733 28.0902C13.4987 28.0305 12.8334 27.3188 12.8775 25.955C13.3991 26.1398 13.9377 26.1873 14.4932 26.0973C16.8248 24.8704 19.2323 23.7949 21.7161 22.8708C25.2764 21.5791 28.8562 20.3612 32.4553 19.2171C32.1587 18.115 31.7468 17.0395 31.2198 15.9906C29.0725 10.721 26.95 5.43827 24.8523 0.142405C31.4413 0.0475056 38.0305 0.0158757 44.6202 0.0475056C46.082 4.13745 47.5709 8.21813 49.087 12.2895Z" fill="#016EAA"/>
<path opacity="0.995" fill-rule="evenodd" clip-rule="evenodd" d="M71.706 27.3784C71.6426 27.3784 71.6109 27.41 71.6109 27.4733C70.2788 27.8851 68.9166 28.2015 67.5243 28.4223C67.2723 28.4137 67.0506 28.4769 66.8591 28.6121C66.2931 28.7315 65.7229 28.8264 65.1484 28.8968C64.6785 28.9209 64.235 29.0158 63.8178 29.1815C63.7228 29.1815 63.6278 29.1815 63.5327 29.1815C63.2209 29.1739 62.9358 29.2372 62.6774 29.3713C62.1437 29.47 61.6051 29.5333 61.0617 29.5611C60.6887 29.5544 60.3403 29.6177 60.0163 29.7509C58.214 29.9167 56.4083 29.9641 54.5992 29.8932C53.8919 29.8818 53.3058 29.6129 52.841 29.0866C52.6946 28.7805 52.6946 28.4642 52.841 28.1376C53.3575 27.0532 54.0228 26.0725 54.8368 25.1957C56.2759 23.8858 57.5748 22.4623 58.7333 20.9253C59.0665 20.2914 59.32 19.6271 59.4936 18.9324C59.7744 16.9691 59.1249 15.4191 57.5453 14.2823C59.3644 9.57721 61.1384 4.84809 62.8675 0.094886C69.425 0.0474364 75.9827 0.0316167 82.5403 0.0474364C78.9811 9.17901 75.3701 18.2893 71.706 27.3784Z" fill="#006EAA"/>
<path opacity="0.991" fill-rule="evenodd" clip-rule="evenodd" d="M49.087 12.2892C51.4754 12.2544 53.788 12.6498 56.0248 13.4755C56.5493 13.7213 57.0562 13.9903 57.5454 14.2821C59.1249 15.4189 59.7744 16.9689 59.4937 18.9322C59.3201 19.6269 59.0666 20.2912 58.7334 20.925C57.5749 22.4621 56.276 23.8856 54.8368 25.1955C54.0228 26.0723 53.3576 27.053 52.841 28.1374C52.6947 28.464 52.6947 28.7803 52.841 29.0864C53.3059 29.6127 53.892 29.8816 54.5992 29.893C56.4084 29.9639 58.2141 29.9165 60.0164 29.7507C60.3894 29.7573 60.7378 29.694 61.0618 29.5609C61.6051 29.5331 62.1437 29.4698 62.6775 29.3711C62.9893 29.3787 63.2744 29.3154 63.5328 29.1813C63.6278 29.1813 63.7229 29.1813 63.8179 29.1813C64.1989 29.1473 64.5791 29.0999 64.9584 29.0389C65.0454 29.0125 65.1087 28.9651 65.1484 28.8966C65.7229 28.8262 66.2932 28.7313 66.8591 28.6119C67.1112 28.6204 67.3329 28.5572 67.5244 28.4221C68.9167 28.2013 70.2789 27.8849 71.611 27.4731C71.6744 27.4731 71.706 27.4415 71.706 27.3782C80.23 25.3476 88.5296 22.643 96.606 19.2643C97.9536 19.2654 98.6825 19.9455 98.7918 21.3046C98.6873 21.7815 98.4659 22.2086 98.1266 22.5858C97.5991 22.8648 97.0612 23.1178 96.5109 23.345C93.3595 24.573 90.1919 25.7434 87.0071 26.8562C80.0513 29.257 72.9553 31.155 65.7187 32.5502C62.8301 33.1044 59.9156 33.405 56.9752 33.4517C55.3275 33.4851 53.7119 33.2795 52.1283 32.8349C51.4196 32.5287 50.7544 32.1491 50.1325 31.6961C49.2279 30.7894 48.8319 29.6981 48.9445 28.4221C49.191 27.1704 49.6978 26.0316 50.4651 25.0057C51.1969 24.0502 51.973 23.1329 52.7935 22.2536C53.4522 21.4847 54.1333 20.7255 54.8368 19.9761C55.0728 19.7256 55.247 19.4409 55.3595 19.122C55.515 19.0034 55.6259 18.8452 55.6922 18.6475C55.7556 18.2679 55.7556 17.8883 55.6922 17.5087C55.0329 16.7442 54.1934 16.2854 53.1737 16.1326C52.2281 15.9827 51.2778 15.872 50.3225 15.8005C49.8803 14.6344 49.4685 13.464 49.087 12.2892Z" fill="#FCCE05"/>
<path opacity="0.982" fill-rule="evenodd" clip-rule="evenodd" d="M31.22 15.9907C31.747 17.0396 32.1589 18.1151 32.4555 19.2173C28.8563 20.3614 25.2765 21.5792 21.7162 22.8709C19.2325 23.795 16.8249 24.8705 14.4933 26.0975C13.9378 26.1874 13.3993 26.14 12.8777 25.9551C11.9537 25.2244 11.7795 24.3387 12.355 23.298C12.4975 23.1556 12.6401 23.0133 12.7826 22.8709C18.7762 20.1794 24.922 17.886 31.22 15.9907Z" fill="#FDCE05"/>
<path fill-rule="evenodd" clip-rule="evenodd" d="M67.5244 28.4221C67.3329 28.5573 67.1112 28.6205 66.8591 28.6119C67.0506 28.4768 67.2724 28.4136 67.5244 28.4221Z" fill="#8EA252"/>
<path fill-rule="evenodd" clip-rule="evenodd" d="M65.1484 28.897C65.1087 28.9655 65.0454 29.0129 64.9583 29.0393C64.579 29.1002 64.1989 29.1477 63.8179 29.1817C64.235 29.016 64.6785 28.9211 65.1484 28.897Z" fill="#9BA74D"/>
<path fill-rule="evenodd" clip-rule="evenodd" d="M63.5328 29.1813C63.2744 29.3154 62.9893 29.3787 62.6775 29.3711C62.9359 29.237 63.221 29.1737 63.5328 29.1813Z" fill="#8DA252"/>
<path fill-rule="evenodd" clip-rule="evenodd" d="M61.0618 29.561C60.7378 29.6942 60.3894 29.7575 60.0164 29.7508C60.3403 29.6177 60.6888 29.5544 61.0618 29.561Z" fill="#8EA252"/>
<path opacity="0.981" fill-rule="evenodd" clip-rule="evenodd" d="M0.0476074 57.1769C2.23443 57.1453 4.4203 57.1769 6.60522 57.2718C8.52707 62.5332 10.4754 67.7843 12.45 73.0251C14.4518 67.7876 16.416 62.5365 18.3424 57.2718C20.5062 57.1459 22.6762 57.1459 24.8525 57.2718C21.8867 64.7014 18.9406 72.1352 16.014 79.5731C14.3938 79.6136 12.7781 79.5662 11.167 79.4307C9.93059 79.0498 8.9327 78.3381 8.17334 77.2955C5.39881 70.6124 2.69023 63.9063 0.0476074 57.1769Z" fill="#006EAB"/>
<path opacity="0.976" fill-rule="evenodd" clip-rule="evenodd" d="M45.8557 57.1767C46.893 57.1463 47.9226 57.1779 48.9444 57.2716C49.0369 63.8219 49.0052 70.37 48.8494 76.9157C48.4851 78.2918 47.6139 79.1617 46.2358 79.5254C45.1275 79.5729 44.0187 79.5887 42.9095 79.5729C42.8936 73.1513 42.9095 66.7298 42.957 60.3084C43.2217 58.6052 44.1879 57.5613 45.8557 57.1767Z" fill="#006EAA"/>
<path opacity="0.98" fill-rule="evenodd" clip-rule="evenodd" d="M29.4142 61.8268C31.5327 61.7677 33.6236 61.9733 35.6867 62.4436C38.2666 63.0895 39.7397 64.7186 40.106 67.3309C40.1535 71.4115 40.1694 75.4922 40.1535 79.5729C38.0941 79.5888 36.035 79.5729 33.9761 79.5255C33.9686 79.3067 33.9527 79.0695 33.9285 78.8137C32.7308 79.4647 31.4478 79.8285 30.0795 79.9051C28.2535 80.0428 26.4477 79.8213 24.6624 79.2408C22.1228 77.7589 21.22 75.592 21.9538 72.7402C22.5658 71.2749 23.5955 70.2152 25.0425 69.5611C26.7537 68.9574 28.5119 68.6253 30.3171 68.5646C31.5803 68.568 32.8633 68.568 34.1661 68.5646C34.2002 67.0939 33.5032 66.2239 32.0753 65.9549C31.2538 65.8554 30.4301 65.7764 29.6043 65.7176C27.7602 65.8026 25.9228 65.9607 24.0921 66.1921C24.5266 64.897 25.0018 63.6159 25.5177 62.3487C26.8219 62.1077 28.1207 61.9337 29.4142 61.8268ZM34.0711 71.981C34.2039 72.856 34.188 73.7416 34.0236 74.6382C33.81 75.1328 33.4458 75.4649 32.9306 75.6346C32.565 75.788 32.1849 75.8829 31.7902 75.9193C30.9349 75.9826 30.0795 75.9826 29.2242 75.9193C27.6088 75.5561 27.1495 74.623 27.8461 73.1198C28.3653 72.5524 29.0147 72.2518 29.7944 72.2182C31.2342 72.128 32.6598 72.0488 34.0711 71.981Z" fill="#006EAA"/>
<path opacity="0.98" fill-rule="evenodd" clip-rule="evenodd" d="M60.6816 61.8267C62.7004 61.718 64.6645 61.9868 66.5739 62.6334C69.2212 63.8513 70.6626 65.9233 70.8982 68.8493C70.9457 69.8927 70.9615 70.9366 70.9457 71.9809C66.38 71.9819 61.834 71.9819 57.3077 71.9809C57.4093 73.6978 58.2805 74.8525 59.9213 75.4447C60.2324 75.5588 60.5492 75.6537 60.8717 75.7294C64.002 76.1628 67.1699 76.0521 70.3754 75.3973C70.3754 76.7575 70.3754 78.1178 70.3754 79.478C67.0657 79.9351 63.7393 80.0774 60.3965 79.905C57.8456 79.7158 55.5963 78.8142 53.6488 77.2004C52.0528 75.482 51.2609 73.4417 51.2728 71.0794C51.3294 66.5945 53.4836 63.6843 57.7354 62.3487C58.7207 62.116 59.7027 61.9419 60.6816 61.8267ZM60.3965 65.8125C61.3474 65.7967 62.2978 65.8125 63.2476 65.8599C64.5278 65.9515 65.4306 66.5684 65.9562 67.7105C66.0509 68.0237 66.0826 68.34 66.0512 68.6595C63.1588 68.5965 60.2602 68.5332 57.3553 68.4697C57.5523 67.3397 58.1859 66.5647 59.256 66.1446C59.6479 66.0315 60.028 65.9208 60.3965 65.8125Z" fill="#006EAA"/>
<path opacity="0.977" fill-rule="evenodd" clip-rule="evenodd" d="M80.3544 61.8268C82.2799 61.7413 84.1806 61.9153 86.0567 62.3487C86.1508 63.8122 86.1821 65.2832 86.1517 66.7615C84.8972 66.4943 83.6304 66.3835 82.3502 66.4294C80.8324 66.5592 79.9609 67.3658 79.7367 68.8493C79.6891 72.4237 79.673 75.9982 79.6891 79.5729C77.6933 79.5729 75.6975 79.5729 73.7018 79.5729C73.6859 75.3655 73.7018 71.1584 73.7493 66.9513C73.9681 65.2001 74.8393 63.8873 76.3628 63.013C77.6259 62.3501 78.9564 61.9548 80.3544 61.8268Z" fill="#006EAB"/>
<path opacity="0.982" fill-rule="evenodd" clip-rule="evenodd" d="M95.7507 61.8267C98.3063 61.6194 100.746 62.0464 103.069 63.1078C105.965 64.8901 107.391 67.4998 107.345 70.937C107.124 76.0778 104.463 79.0671 99.3622 79.905C97.8729 79.9683 96.3846 79.9683 94.8954 79.905C89.3129 78.8978 86.668 75.5605 86.9597 69.8931C87.3475 66.0322 89.3908 63.5173 93.0897 62.3487C93.9802 62.1218 94.8669 61.9478 95.7507 61.8267ZM96.1309 65.8125C96.7971 65.7967 97.4624 65.8125 98.1267 65.8599C99.7224 66.1883 100.689 67.1531 101.025 68.7543C101.386 70.449 101.323 72.1255 100.835 73.784C100.374 74.8773 99.5665 75.5574 98.4118 75.8243C95.17 76.4613 93.3805 75.1486 93.0422 71.886C92.9196 70.5227 93.0783 69.1941 93.5173 67.9003C94.0267 66.7384 94.8973 66.0425 96.1309 65.8125Z" fill="#006EAA"/>
<path opacity="0.849" fill-rule="evenodd" clip-rule="evenodd" d="M110.291 61.9219C112.096 61.9679 112.967 62.8853 112.905 64.674C112.153 66.3265 110.965 66.7536 109.341 65.9551C108.038 64.6499 108.101 63.4163 109.531 62.254C109.784 62.1138 110.037 62.003 110.291 61.9219ZM110.482 62.5862C112.108 62.7979 112.599 63.652 111.955 65.1484C111.733 64.8954 111.511 64.6423 111.289 64.3893C111.404 64.1743 111.516 63.9371 111.622 63.6775C111.568 63.2619 111.33 63.0246 110.909 62.9658C110.596 62.9657 110.263 62.9815 109.911 63.0132C109.818 63.7484 109.786 64.4917 109.816 65.2433C110.038 65.2433 110.26 65.2433 110.482 65.2433C110.466 64.9884 110.482 64.7353 110.529 64.4842C110.701 64.748 110.907 64.9852 111.147 65.1959C111.368 65.2275 111.591 65.2592 111.812 65.2908C111.023 65.8704 110.248 65.8547 109.484 65.2433C108.773 63.9729 109.105 63.0872 110.482 62.5862ZM110.482 63.5352C110.98 63.6777 110.98 63.8042 110.482 63.9148C110.482 63.7883 110.482 63.6617 110.482 63.5352Z" fill="#016EAA"/>
</g>
<defs>
<clipPath id="clip0_4623_19750">
<rect width="113" height="80" fill="white"/>
</clipPath>
</defs>
</svg>
