<svg width="176" height="80" viewBox="0 0 176 80" fill="none" xmlns="http://www.w3.org/2000/svg">
<g clip-path="url(#clip0_4623_21993)">
<path fill-rule="evenodd" clip-rule="evenodd" d="M64.1617 0.0233979C64.3869 0.00912211 64.6029 0.0477316 64.8091 0.139273C70.3425 3.25213 75.8607 6.3885 81.364 9.54831C82.029 10.1679 82.6071 10.8555 83.0982 11.6109C84.497 14.0599 85.8843 16.5165 87.26 18.9805C87.9435 17.3628 88.6528 15.756 89.3872 14.1601C90.0609 12.4142 90.3074 10.6065 90.1271 8.73719C90.1183 8.47841 90.0951 8.22349 90.0577 7.97241C90.0392 7.64657 90.0623 7.31443 90.1271 6.97589C90.1432 6.89802 90.1895 6.85167 90.2658 6.83684C90.3763 6.8729 90.4766 6.92699 90.5664 6.99906C90.8045 7.29797 91.0588 7.58381 91.3294 7.85654C91.2725 6.59049 91.2184 5.32356 91.1675 4.05584C91.1754 3.70048 91.1828 3.34516 91.1906 2.98979C91.2114 2.83327 91.2424 2.67874 91.2831 2.52629C91.4283 2.28351 91.5823 2.28351 91.7455 2.52629C92.0521 3.09241 92.3143 3.67953 92.5317 4.28759C92.5469 3.78159 92.5238 3.27948 92.4623 2.78122C92.4568 2.27313 92.4646 1.75554 92.4854 1.2285C92.4845 0.923236 92.5539 0.637396 92.6935 0.371022C92.755 0.340107 92.817 0.340107 92.8785 0.371022C93.1282 0.668079 93.3206 1.00027 93.4565 1.36755C94.8928 4.75647 96.3416 8.14001 97.8034 11.5182C98.0873 12.3129 98.1798 13.1318 98.0808 13.9747C97.9994 14.641 97.8454 15.2899 97.6184 15.9214C96.3929 18.8415 95.1675 21.7615 93.9421 24.6816C94.8082 25.0972 95.7178 25.2285 96.6704 25.0755C99.4621 24.3876 102.252 23.6923 105.04 22.9898C105.882 22.6528 106.731 22.3283 107.584 22.0164C108.594 21.7203 109.611 21.6894 110.636 21.9237C111.108 22.0834 111.54 22.3151 111.931 22.619C112.292 22.8235 112.678 22.9625 113.087 23.0361C113.611 23.0771 114.135 23.1234 114.659 23.1752C114.774 23.1926 114.882 23.2312 114.983 23.2911C115.034 23.3478 115.042 23.4095 115.006 23.4765C114.901 23.6124 114.77 23.7129 114.613 23.7777C114.12 23.9662 113.611 24.0898 113.087 24.1485C112.187 24.1342 111.293 24.25 110.405 24.4962C110.437 23.8571 110.144 23.4632 109.526 23.3142C109.216 23.3002 108.931 23.2152 108.67 23.0593C108.462 22.3677 108.054 22.2209 107.445 22.619C106.916 23.2328 106.962 23.8044 107.584 24.3339C107.817 24.482 108.064 24.6056 108.324 24.7047C107.101 24.6636 105.899 24.849 104.717 25.2609C102.922 25.8607 101.134 26.4786 99.3525 27.1149C98.1738 27.5976 97.0329 28.1538 95.9305 28.7835C94.1867 29.704 92.3985 30.5228 90.5664 31.2401C89.9795 31.4722 89.3784 31.6576 88.7629 31.7963C85.7317 32.4422 82.7028 32.6971 79.6762 32.5611C78.8438 32.5301 78.0114 32.4993 77.1791 32.4684C76.1664 32.5269 75.1569 32.4419 74.1502 32.2134C73.5925 32.0854 73.1301 31.8073 72.7629 31.3791C71.838 31.3173 70.9132 31.2555 69.9883 31.1937C69.4205 31.1603 68.8813 31.0213 68.3698 30.7766C68.0027 30.5056 67.9564 30.1889 68.2311 29.8264C68.2214 29.7992 68.2061 29.7761 68.1849 29.7569C67.1213 29.7415 66.0577 29.726 64.9941 29.7105C64.7458 29.6919 64.4993 29.6609 64.2542 29.6178C64.0447 29.5823 63.9985 29.4896 64.1155 29.3397C64.7351 29.0531 65.3825 28.8522 66.0577 28.7372C66.6551 28.6194 67.2563 28.5267 67.8612 28.4591C69.1097 28.3684 70.3583 28.2757 71.6068 28.181C73.7821 27.6784 75.9555 27.1685 78.1271 26.6514C76.8748 25.7731 75.9578 24.6221 75.3756 23.1984C74.7897 21.777 74.2043 20.3556 73.6184 18.9342C73.3451 18.3708 73.0371 17.83 72.6935 17.3119C71.7548 16.1888 70.7837 15.0919 69.7802 14.0211C69.4695 13.6324 69.1768 13.2307 68.9016 12.816C68.6431 12.3463 68.774 12.1531 69.2947 12.2366C69.5458 12.3003 69.7923 12.3621 70.0346 12.422C68.441 11.0256 66.9229 9.55016 65.4797 7.99559C65.2309 7.69969 64.9997 7.39072 64.786 7.06859C64.6288 6.84337 64.5673 6.59619 64.601 6.32699C64.6394 6.28838 64.6783 6.24972 64.7166 6.21111C64.8864 6.1802 65.0556 6.1802 65.2253 6.21111C65.764 6.35512 66.288 6.52509 66.7976 6.72096C65.7941 5.73111 64.8771 4.67281 64.0461 3.54599C63.6101 2.77797 63.8029 2.55397 64.6242 2.87392C64.8762 2.97714 65.1231 3.09302 65.364 3.22154C65.3793 3.20611 65.395 3.19063 65.4103 3.17519C64.9201 2.47448 64.4961 1.73288 64.1386 0.950397C64.0101 0.678462 63.9791 0.400362 64.0461 0.116098C64.0919 0.0898637 64.1308 0.0589483 64.1617 0.0233979Z" fill="#FEC400"/>
<path fill-rule="evenodd" clip-rule="evenodd" d="M8.53168 27.1377C9.26846 27.149 10.0546 27.1876 10.8901 27.2536C11.9077 27.3114 12.8479 27.6049 13.7109 28.1342C14.0012 28.3687 14.1785 28.67 14.2427 29.038C14.3419 29.9934 14.4035 30.9512 14.4276 31.9117C14.5633 36.4503 14.6327 40.9852 14.6357 45.5154C14.7006 50.7572 14.7314 56.0179 14.7282 61.2976C14.853 61.2999 14.9531 61.2536 15.0288 61.1586C17.572 54.1602 19.8225 47.0686 21.7802 39.8839C22.7443 36.1574 23.7154 32.434 24.6935 28.7136C25.0756 28.4798 25.4841 28.3021 25.919 28.1806C29.1127 27.3284 32.3343 27.0194 35.5837 27.2536C36.5226 27.3226 37.4012 27.5853 38.2195 28.0415C38.5502 28.2801 38.7583 28.5968 38.8438 28.9917C38.9721 30.41 39.0492 31.8314 39.075 33.2559C39.2772 42.5792 39.3774 51.8955 39.3756 61.2049C39.4666 61.216 39.5514 61.2007 39.6299 61.1586C39.8639 60.6098 40.0797 60.0536 40.2773 59.49C42.1349 54.0744 43.815 48.6051 45.3178 43.0821C46.5973 38.3391 47.8764 33.5958 49.156 28.8526C49.3358 28.6659 49.5439 28.5192 49.7802 28.4123C52.3495 27.463 55.001 27.0767 57.734 27.2536C58.4646 27.3129 59.1425 27.5292 59.7687 27.9025C60.1326 28.1765 60.3486 28.5396 60.4161 28.9917C60.3675 29.3662 60.2981 29.737 60.208 30.1041C59.1888 33.8332 58.048 37.5256 56.786 41.1817C53.6332 50.4772 50.3347 59.7161 46.8901 68.899C45.986 71.3083 45.0458 73.7032 44.0692 76.0832C43.8096 76.6784 43.5322 77.2652 43.2369 77.8445C43.1264 78.0786 42.98 78.2872 42.7976 78.4703C42.3843 78.6858 41.9527 78.8554 41.5028 78.9801C38.409 79.8037 35.2645 80.1282 32.0692 79.9535C31.1418 79.9025 30.2632 79.6707 29.4334 79.2582C29.0346 79.0135 28.7803 78.6659 28.6704 78.2153C28.4057 75.889 28.2207 73.5562 28.1155 71.2165C27.7748 64.8689 27.4896 58.5189 27.26 52.1667C27.1984 52.1667 27.1367 52.1667 27.075 52.1667C25.1651 58.7057 23.1381 65.21 20.9941 71.68C20.3193 73.7402 19.5178 75.7486 18.5895 77.7055C18.4778 77.9141 18.3544 78.1148 18.2195 78.308C17.8817 78.5662 17.5041 78.7437 17.0866 78.8411C13.9048 79.7087 10.6678 80.0642 7.37561 79.9071C6.44816 79.8561 5.56955 79.6244 4.73977 79.2119C4.3646 78.9745 4.11027 78.6422 3.97676 78.2153C3.68447 75.8886 3.45325 73.5558 3.28312 71.2165C2.27579 57.8334 1.22762 44.454 0.138613 31.0774C0.0626457 30.3063 0.0318157 29.5338 0.0461278 28.7599C0.350299 28.5032 0.69712 28.3255 1.08659 28.2269C3.53128 27.5668 6.01297 27.2037 8.53168 27.1377Z" fill="#FE332A"/>
<path fill-rule="evenodd" clip-rule="evenodd" d="M119.422 37.2886C120.072 37.3006 120.719 37.3238 121.364 37.3581C122.226 37.4133 123.059 37.5987 123.861 37.9143C124.376 38.1359 124.707 38.5145 124.856 39.0499C125.057 41.194 125.211 43.3414 125.318 45.4925C125.655 52.0181 125.994 58.5382 126.335 65.0522C126.397 65.0211 126.459 64.9905 126.52 64.9595C128.092 60.42 129.448 55.8156 130.59 51.1472C131.56 47.2571 132.516 43.3637 133.457 39.467C133.544 38.9757 133.813 38.6281 134.266 38.4241C135.243 38.0019 136.26 37.7238 137.318 37.5898C139.23 37.3173 141.141 37.3173 143.052 37.5898C143.521 37.6798 143.969 37.8341 144.393 38.0533C144.731 38.2438 144.862 38.5294 144.786 38.9108C142.038 47.4693 138.97 55.905 135.584 64.2179C134.081 67.9333 132.524 71.6255 130.913 75.2955C130.437 76.343 129.913 77.3627 129.341 78.3546C129.043 78.6397 128.696 78.8482 128.301 78.9803C126.751 79.4763 125.164 79.7697 123.538 79.861C122.825 79.905 122.108 79.9282 121.387 79.9305C120.359 79.8981 119.349 79.7358 118.358 79.4438C117.904 79.296 117.526 79.0411 117.225 78.6791C117.064 78.3931 116.971 78.0844 116.948 77.7521C116.629 74.4978 116.382 71.2381 116.208 67.9722C115.993 64.3268 115.793 60.6805 115.607 57.0336C115.582 56.7481 115.521 56.7324 115.422 56.9873C113.595 63.4401 111.329 69.7284 108.624 75.8517C108.217 76.7616 107.739 77.6269 107.191 78.4473C106.884 78.667 106.552 78.8445 106.197 78.9803C103.643 79.7363 101.084 80.0297 98.5203 79.861C97.4941 79.8239 96.5231 79.5769 95.607 79.1194C95.3129 78.9331 95.1048 78.6781 94.9827 78.3546C94.8102 77.4193 94.6868 76.4765 94.6128 75.5273C93.7161 64.1048 92.7603 52.6874 91.7457 41.2747C91.693 40.6652 91.6546 40.0552 91.6301 39.4438C91.5126 38.9841 91.6671 38.6596 92.0925 38.4705C92.7866 38.146 93.5113 37.9143 94.2659 37.7752C96.3455 37.3646 98.4417 37.2408 100.555 37.4044C101.518 37.4582 102.428 37.7057 103.283 38.146C103.558 38.3282 103.766 38.5678 103.908 38.8645C104.007 39.5407 104.068 40.2202 104.093 40.9039C104.168 42.5257 104.23 44.1479 104.278 45.7706C104.445 52.2128 104.584 58.6554 104.694 65.0985C104.81 65.0703 104.902 65.0086 104.971 64.9131C106.634 60.3931 108.083 55.8044 109.318 51.1472C110.249 47.5843 111.158 44.0153 112.046 40.4404C112.179 39.9236 112.333 39.4137 112.509 38.9108C112.743 38.6452 113.028 38.452 113.364 38.3314C114.533 37.9115 115.736 37.6334 116.971 37.4971C117.793 37.404 118.61 37.3345 119.422 37.2886Z" fill="#FE332A"/>
<path fill-rule="evenodd" clip-rule="evenodd" d="M74.7514 37.3349C76.2931 37.3233 77.8497 37.4239 79.4219 37.6362C81.4807 37.9041 83.3766 38.5993 85.1098 39.7219C87.0936 41.1397 88.2728 43.0633 88.6474 45.4925C88.9063 47.359 88.9216 49.2287 88.6936 51.1008C88.5544 52.4023 88.3847 53.7001 88.1849 54.9942C87.3373 60.7481 86.4971 66.5034 85.6647 72.2596C85.7151 73.061 86.0004 73.7641 86.5202 74.3685C87.4182 75.1574 87.6647 76.115 87.2601 77.2422C86.9761 78.0213 86.4444 78.5543 85.6647 78.8413C83.1052 79.8419 80.4693 80.12 77.7572 79.6756C76.8434 79.5152 76.0652 79.1059 75.4219 78.4473C74.9142 77.6607 74.5442 76.8111 74.3121 75.898C74.1498 75.2695 74.0111 74.6359 73.8959 73.9977C72.621 75.3692 71.2106 76.5664 69.6647 77.5898C66.252 79.6895 62.5835 80.3384 58.6589 79.5365C55.4649 78.5446 53.3609 76.451 52.3468 73.2561C51.901 71.6426 51.7775 70.0051 51.9768 68.343C52.2335 65.8712 52.9891 63.5694 54.2427 61.4369C55.6069 59.4364 57.4025 57.9611 59.63 57.0104C60.6848 56.5599 61.7641 56.1738 62.867 55.8517C66.1872 54.9618 69.5015 54.0501 72.8092 53.117C74.0966 52.7342 75.3299 52.2243 76.5086 51.5875C76.5641 51.5458 76.6025 51.4915 76.6242 51.4253C76.7417 50.7569 76.8268 50.0848 76.8786 49.409C76.7875 47.759 75.9856 46.6002 74.4739 45.9328C73.058 45.4118 71.6402 45.4118 70.2196 45.9328C69.2481 46.3968 68.5008 47.0994 67.9768 48.0417C67.6684 48.5979 67.3604 49.1541 67.052 49.7103C66.3135 50.4644 65.427 50.9664 64.393 51.2167C62.9544 51.6111 61.4904 51.7965 60 51.7729C58.9979 51.7316 58.2659 51.2756 57.8034 50.4056C57.6679 49.6255 57.7142 48.8528 57.9422 48.0881C58.3278 46.8515 58.929 45.7391 59.7456 44.7509C61.9727 42.2021 64.6316 40.248 67.7225 38.8876C69.9907 38.0023 72.3338 37.4846 74.7514 37.3349ZM75.7687 58.146C75.7983 58.1738 75.8136 58.2123 75.815 58.2619C75.4034 60.8519 74.9798 63.4396 74.5433 66.0255C73.5357 67.638 72.2335 68.959 70.6358 69.9884C69.7276 70.5803 68.7334 70.9126 67.6531 70.9849C66.5526 70.9859 65.5583 70.6688 64.6705 70.0348C63.698 69.1713 63.3974 68.1131 63.7687 66.8598C64.0832 65.5564 64.7694 64.4983 65.8265 63.6848C66.1808 63.4146 66.5507 63.1676 66.9364 62.9432C69.4774 61.701 71.9745 60.3875 74.4277 59.0035C74.8934 58.7397 75.3405 58.4538 75.7687 58.146Z" fill="#FE332A"/>
<path fill-rule="evenodd" clip-rule="evenodd" d="M161.873 37.3349C163.415 37.3233 164.971 37.4239 166.543 37.6362C168.666 37.8971 170.608 38.6234 172.37 39.8146C174.33 41.2783 175.478 43.2329 175.815 45.6779C176.015 47.3905 176.031 49.1055 175.861 50.8227C175.773 51.7363 175.664 52.648 175.538 53.5574C174.608 59.7956 173.706 66.0375 172.832 72.2827C172.854 72.9261 173.047 73.5129 173.41 74.044C173.69 74.3393 173.952 74.6484 174.197 74.971C174.665 75.7479 174.711 76.5511 174.335 77.3812C174.137 77.8883 173.806 78.2823 173.341 78.5632C171.897 79.2732 170.371 79.6904 168.763 79.8146C167.746 79.9068 166.728 79.9068 165.711 79.8146C164.677 79.7214 163.736 79.3817 162.89 78.7949C162.377 78.2387 162 77.5972 161.757 76.8714C161.438 75.9314 161.191 74.9734 161.017 73.9977C159.495 75.6955 157.745 77.0939 155.769 78.1924C152.546 79.8433 149.17 80.2762 145.642 79.4902C142.056 78.2429 139.905 75.7479 139.191 72.0046C138.819 68.9233 139.251 65.9569 140.486 63.1054C141.535 60.7314 143.192 58.9159 145.457 57.6593C147.109 56.8037 148.835 56.1391 150.636 55.6663C153.648 54.8691 156.653 54.0501 159.653 53.2097C161.083 52.7991 162.447 52.235 163.746 51.518C163.864 50.8019 163.964 50.0834 164.046 49.3627C163.919 47.8401 163.179 46.7277 161.827 46.0255C160.398 45.4267 158.949 45.3803 157.48 45.8864C156.454 46.3124 155.675 47.0155 155.145 47.9954C154.84 48.5289 154.547 49.0693 154.266 49.6176C153.742 50.2192 153.102 50.6596 152.347 50.9386C150.41 51.6519 148.421 51.8837 146.382 51.6338C145.164 51.2241 144.663 50.3824 144.879 49.1078C145.047 47.8767 145.478 46.749 146.173 45.7242C147.097 44.3815 148.199 43.1995 149.48 42.1785C150.927 40.9891 152.499 39.9847 154.197 39.1657C156.656 38.115 159.215 37.505 161.873 37.3349ZM162.89 58.146C162.924 58.14 162.955 58.1479 162.983 58.1692C162.541 60.8014 162.102 63.4355 161.665 66.0718C160.45 67.9852 158.839 69.461 156.832 70.4983C155.263 71.1842 153.721 71.1226 152.208 70.3129C150.85 69.3975 150.442 68.1534 150.983 66.5817C151.357 65.3256 152.074 64.3138 153.133 63.5458C153.441 63.3451 153.749 63.1439 154.058 62.9432C156.536 61.7242 158.987 60.4417 161.41 59.0962C161.915 58.7898 162.408 58.4732 162.89 58.146Z" fill="#FE332A"/>
</g>
<defs>
<clipPath id="clip0_4623_21993">
<rect width="176" height="80" fill="white"/>
</clipPath>
</defs>
</svg>
