<svg width="80" height="80" viewBox="0 0 80 80" fill="none" xmlns="http://www.w3.org/2000/svg">
<g clip-path="url(#clip0_4623_23156)">
<path opacity="0.998" fill-rule="evenodd" clip-rule="evenodd" d="M37.7088 0.095415C48.5168 -0.307504 58.0633 2.98873 66.3485 9.98413C74.5801 17.4099 79.109 26.6838 79.9364 37.8061C80.338 50.4888 75.9364 61.1406 66.7303 69.7616C57.5822 77.6693 46.9747 80.9762 34.9085 79.6821C23.7664 78.042 14.7608 72.7746 7.89182 63.8792C1.77803 55.3717 -0.778346 45.9282 0.222768 35.5485C1.68791 24.5847 6.69456 15.6181 15.2427 8.64867C21.917 3.5341 29.4059 0.683008 37.7088 0.095415Z" fill="#2BB04A"/>
<path fill-rule="evenodd" clip-rule="evenodd" d="M47.1917 1.81236C47.3794 1.71293 47.5487 1.74473 47.7008 1.90775C47.5156 1.95344 47.3463 1.92165 47.1917 1.81236Z" fill="#EBF8EE"/>
<path fill-rule="evenodd" clip-rule="evenodd" d="M33.0629 1.74902C33.1475 1.74902 33.2328 1.74902 33.3175 1.74902C33.3283 1.8331 33.3073 1.90729 33.2538 1.9716C32.8331 2.06321 32.4086 2.08441 31.981 2.03519C32.3348 1.88645 32.6957 1.79106 33.0629 1.74902Z" fill="#E9F7EC"/>
<path fill-rule="evenodd" clip-rule="evenodd" d="M38.8545 2.06689C39.6399 2.07802 40.4246 2.09921 41.2093 2.13049C41.1699 2.46617 40.9789 2.61456 40.6365 2.57564C40.0256 2.5313 39.4311 2.41471 38.8545 2.22588C38.7845 2.17693 38.7845 2.12394 38.8545 2.06689Z" fill="#F4FBF6"/>
<path fill-rule="evenodd" clip-rule="evenodd" d="M35.0357 2.70246C34.8868 2.60456 34.7175 2.56216 34.5266 2.57528C34.5132 2.47074 34.5342 2.37535 34.5902 2.28911C34.9193 2.23611 35.2477 2.18311 35.5767 2.13013C35.7059 2.12581 35.8014 2.17881 35.8631 2.28911C35.8167 2.40141 35.795 2.51799 35.7995 2.63887C35.5481 2.68797 35.2935 2.70917 35.0357 2.70246Z" fill="#F6FBF7"/>
<path fill-rule="evenodd" clip-rule="evenodd" d="M43.3731 2.89365C43.3731 2.83006 43.3731 2.76646 43.3731 2.70287C42.9919 2.62184 42.61 2.62184 42.2275 2.70287C42.2759 2.65404 42.3396 2.62224 42.4185 2.60748C42.7367 2.56508 43.0549 2.56508 43.3731 2.60748C43.4559 2.71022 43.4559 2.80561 43.3731 2.89365Z" fill="#B5E3BF"/>
<path fill-rule="evenodd" clip-rule="evenodd" d="M34.5266 2.57557C34.7175 2.56245 34.8868 2.60485 35.0358 2.70275C34.8493 2.69861 34.68 2.65621 34.5266 2.57557Z" fill="#9DDAAA"/>
<path fill-rule="evenodd" clip-rule="evenodd" d="M43.3731 2.89364C43.3464 2.93953 43.3044 2.97133 43.2458 2.98903C42.8639 3.03143 42.4821 3.03143 42.1002 2.98903C42.0009 2.82998 42.0436 2.7346 42.2275 2.70286C42.61 2.62183 42.9919 2.62183 43.3731 2.70286C43.3731 2.76646 43.3731 2.83005 43.3731 2.89364Z" fill="#EFF9F1"/>
<path fill-rule="evenodd" clip-rule="evenodd" d="M34.7176 3.84717C34.7813 3.84717 34.8449 3.84717 34.9086 3.84717C34.9766 4.12939 34.871 4.25658 34.5903 4.22873C34.5967 4.08863 34.6393 3.96146 34.7176 3.84717Z" fill="#E9F7EC"/>
<path fill-rule="evenodd" clip-rule="evenodd" d="M27.3987 3.97467C27.5941 3.95448 27.785 3.97568 27.9715 4.03826C27.8003 4.15082 27.6093 4.19324 27.3987 4.16545C27.3987 4.10186 27.3987 4.03826 27.3987 3.97467Z" fill="#E3F5E7"/>
<path fill-rule="evenodd" clip-rule="evenodd" d="M36.3087 4.54688C36.5009 4.53639 36.6918 4.54701 36.8815 4.57868C36.9598 4.6796 36.9381 4.76443 36.8179 4.83305C36.4538 4.97327 36.114 4.94148 35.7996 4.73766C35.9701 4.65798 36.1401 4.59438 36.3087 4.54688Z" fill="#F0F9F2"/>
<path fill-rule="evenodd" clip-rule="evenodd" d="M41.1455 4.99223C41.4434 4.98167 41.7406 4.99229 42.0365 5.02403C42.0658 5.05035 42.0868 5.08215 42.1002 5.11942C42.0009 5.22314 41.8736 5.27611 41.7183 5.2784C41.5064 5.32081 41.2938 5.32081 41.0819 5.2784C41.0029 5.16291 41.0239 5.06752 41.1455 4.99223Z" fill="#F6FBF7"/>
<path fill-rule="evenodd" clip-rule="evenodd" d="M48.3374 5.50098C48.5506 5.49049 48.7625 5.50111 48.9738 5.53278C49.0884 5.57329 49.1737 5.64744 49.2284 5.75535C49.2036 5.83294 49.1508 5.87535 49.0693 5.88254C48.9331 5.84267 48.7956 5.81087 48.6556 5.78715C48.4965 5.74448 48.3902 5.64909 48.3374 5.50098Z" fill="#E5F5E8"/>
<path fill-rule="evenodd" clip-rule="evenodd" d="M29.5624 5.56417C29.927 5.55037 30.2879 5.58216 30.6443 5.65956C30.258 5.80169 29.8545 5.8759 29.4351 5.88213C29.4281 5.75406 29.4707 5.64811 29.5624 5.56417Z" fill="#E1F4E5"/>
<path fill-rule="evenodd" clip-rule="evenodd" d="M27.1439 5.88229C27.3151 5.87187 27.4844 5.88249 27.6531 5.91409C27.4163 6.07479 27.1617 6.20198 26.8894 6.29565C26.3402 6.40134 25.7886 6.46493 25.2346 6.48643C25.8945 6.34074 26.531 6.13934 27.1439 5.88229Z" fill="#EAF7ED"/>
<path fill-rule="evenodd" clip-rule="evenodd" d="M44.3914 5.88254C44.8146 5.8248 45.1965 5.92019 45.537 6.16871C45.0317 6.26601 44.5225 6.28718 44.0095 6.2323C43.9383 6.21647 43.8746 6.18467 43.8186 6.13691C44.0076 6.03141 44.1986 5.94664 44.3914 5.88254Z" fill="#EAF7EC"/>
<path fill-rule="evenodd" clip-rule="evenodd" d="M58.2656 6.70903C58.3134 6.6408 58.377 6.63018 58.4566 6.67724C59.3686 7.17517 60.2596 7.70509 61.1296 8.26706C61.2276 8.33765 61.2696 8.43304 61.2569 8.55323C61.071 8.55577 60.9011 8.5028 60.7477 8.39425C59.8962 7.86331 59.0688 7.30159 58.2656 6.70903Z" fill="#ECF8EF"/>
<path fill-rule="evenodd" clip-rule="evenodd" d="M41.4001 7.66277C41.6706 7.60401 41.9252 7.6676 42.1639 7.85355C42.1429 7.91714 42.1002 7.95955 42.0366 7.98073C41.7935 7.92184 41.5809 7.8159 41.4001 7.66277Z" fill="#E6F6E9"/>
<path fill-rule="evenodd" clip-rule="evenodd" d="M49.5466 7.85352C49.945 7.99253 49.945 8.07736 49.5466 8.10789C49.5466 8.02312 49.5466 7.93829 49.5466 7.85352Z" fill="#D0EDD6"/>
<path fill-rule="evenodd" clip-rule="evenodd" d="M54.3199 8.80759C54.661 8.77846 54.7457 8.89503 54.5745 9.15735C54.444 9.17802 54.3167 9.15678 54.1926 9.09376C54.1392 9.02947 54.1182 8.95525 54.129 8.87118C54.2111 8.88625 54.2747 8.86508 54.3199 8.80759Z" fill="#ECF8EE"/>
<path fill-rule="evenodd" clip-rule="evenodd" d="M19.6978 9.12562C19.8309 9.11405 19.9581 9.13529 20.0796 9.18921C20.168 9.25859 20.1998 9.34336 20.1751 9.44359C19.9522 9.64079 19.7083 9.67258 19.4432 9.53898C19.3827 9.49332 19.3721 9.44034 19.4114 9.37999C19.5003 9.28015 19.5958 9.19532 19.6978 9.12562Z" fill="#F1F9F2"/>
<path fill-rule="evenodd" clip-rule="evenodd" d="M35.2905 9.2526C35.2014 9.341 35.0951 9.40459 34.9722 9.44338C34.8609 9.36141 34.8399 9.26602 34.9086 9.15721C35.0601 9.11028 35.1874 9.14208 35.2905 9.2526Z" fill="#EAF7ED"/>
<path fill-rule="evenodd" clip-rule="evenodd" d="M35.2905 9.25293C35.8168 9.26673 36.2095 9.49992 36.4679 9.95245C36.8065 10.5204 37.0184 11.1351 37.1043 11.7966C37.5645 14.2571 37.7764 16.7372 37.7408 19.237C37.5479 19.9922 37.1871 20.077 36.6588 19.4914C36.3132 18.902 36.0803 18.266 35.9587 17.5836C35.6488 15.958 35.3732 14.3257 35.1314 12.687C34.8965 11.8312 34.7692 10.9622 34.7495 10.0796C34.7934 9.85274 34.8673 9.64078 34.9723 9.44371C35.0951 9.40492 35.2014 9.34132 35.2905 9.25293Z" fill="#FCF101"/>
<path fill-rule="evenodd" clip-rule="evenodd" d="M41.3366 10.3975C41.6478 10.4193 41.9342 10.5253 42.1958 10.7154C42.2823 11.0069 42.3358 11.3037 42.3549 11.6057C42.0189 11.5894 41.7859 11.4198 41.6548 11.097C41.378 11.0546 41.187 10.9062 41.082 10.6518C41.1489 10.5427 41.2335 10.4579 41.3366 10.3975Z" fill="#F3FAF4"/>
<path fill-rule="evenodd" clip-rule="evenodd" d="M18.6794 10.5247C18.9696 10.5107 19.203 10.6167 19.3795 10.8426C19.3039 10.9278 19.2084 10.9702 19.0931 10.9698C18.8589 10.9089 18.6362 10.8241 18.4248 10.7154C18.4963 10.629 18.5812 10.5654 18.6794 10.5247Z" fill="#EFF9F1"/>
<path fill-rule="evenodd" clip-rule="evenodd" d="M17.0247 11.4149C16.8213 11.4538 16.6304 11.4538 16.4519 11.4149C16.5854 11.1971 16.7764 11.0488 17.0247 10.9697C17.1072 11.127 17.1072 11.2754 17.0247 11.4149Z" fill="#EEF9F0"/>
<path fill-rule="evenodd" clip-rule="evenodd" d="M16.4518 11.415C16.6303 11.454 16.8212 11.454 17.0246 11.415C16.8269 11.5325 16.6148 11.5537 16.3882 11.4786C16.3961 11.44 16.4173 11.4189 16.4518 11.415Z" fill="#8AD39A"/>
<path fill-rule="evenodd" clip-rule="evenodd" d="M27.335 11.6055C27.5303 11.5854 27.7213 11.6065 27.9078 11.6691C27.8422 11.766 27.7467 11.8084 27.6214 11.7963C27.454 11.8249 27.3585 11.7613 27.335 11.6055Z" fill="#EBF7ED"/>
<path fill-rule="evenodd" clip-rule="evenodd" d="M20.8433 12.3052C20.9968 12.3175 21.0604 12.4023 21.0342 12.5595C20.9705 12.5595 20.9069 12.5595 20.8433 12.5595C20.8433 12.4748 20.8433 12.3899 20.8433 12.3052Z" fill="#E3F4E6"/>
<path fill-rule="evenodd" clip-rule="evenodd" d="M63.9299 12.4326C64.4378 12.6645 64.8196 13.0249 65.0755 13.5137C64.5561 13.3747 64.026 13.29 63.4844 13.2593C63.5824 12.9578 63.7307 12.6822 63.9299 12.4326Z" fill="#F2FAF4"/>
<path fill-rule="evenodd" clip-rule="evenodd" d="M50.8194 12.687C51.5659 12.6598 51.8733 13.0202 51.7422 13.7681C51.6334 14.1346 51.5061 14.4949 51.3604 14.8491C49.6401 17.0346 47.7836 19.1013 45.7916 21.0495C45.4402 21.3636 45.0374 21.512 44.5823 21.4946C44.4029 21.2823 44.35 21.0386 44.4232 20.7633C44.5957 20.2311 44.8503 19.7436 45.1869 19.3006C46.7876 17.2564 48.4105 15.232 50.0557 13.2275C50.3026 13.0315 50.5572 12.8513 50.8194 12.687Z" fill="#FCF101"/>
<path fill-rule="evenodd" clip-rule="evenodd" d="M43.7549 13.1321C43.7848 13.3354 43.8275 13.5368 43.8822 13.7363C43.8281 13.9124 43.8071 14.0926 43.8186 14.2768C43.5055 15.6113 43.1134 16.9256 42.6412 18.2196C42.3732 18.85 42.0022 19.4118 41.5274 19.9048C40.9661 20.2177 40.6479 20.0587 40.5728 19.4278C41.101 17.7146 41.6101 15.987 42.1002 14.245C42.2739 13.9999 42.4121 13.7349 42.5139 13.4501C42.659 13.2657 42.8181 13.0961 42.9912 12.9414C43.3082 12.81 43.5627 12.8736 43.7549 13.1321Z" fill="#FCF101"/>
<path fill-rule="evenodd" clip-rule="evenodd" d="M16.6427 13.3228C16.8769 13.337 17.1102 13.3582 17.3428 13.3863C17.3772 13.6277 17.2712 13.7549 17.0246 13.7679C16.8798 13.738 16.7526 13.6744 16.6427 13.5771C16.5595 13.4903 16.5595 13.4056 16.6427 13.3228Z" fill="#F8FCF9"/>
<path fill-rule="evenodd" clip-rule="evenodd" d="M56.4201 13.2591C56.7911 13.2323 57.1094 13.349 57.3747 13.6089C56.9922 13.8305 56.6212 13.7987 56.261 13.5135C56.2183 13.4711 56.2183 13.4287 56.261 13.3863C56.324 13.3503 56.3775 13.3079 56.4201 13.2591Z" fill="#F2FAF4"/>
<path fill-rule="evenodd" clip-rule="evenodd" d="M43.7549 13.1318C43.9776 13.503 43.9993 13.8846 43.8185 14.2765C43.8071 14.0923 43.8281 13.9121 43.8822 13.736C43.8274 13.5365 43.7848 13.3351 43.7549 13.1318Z" fill="#AFD91E"/>
<path fill-rule="evenodd" clip-rule="evenodd" d="M54.3197 14.0859C54.6437 14.1043 54.6545 14.1679 54.3516 14.2767C54.2446 14.2337 54.2338 14.1701 54.3197 14.0859Z" fill="#91D5A0"/>
<path fill-rule="evenodd" clip-rule="evenodd" d="M31.9174 19.1734C31.8779 19.0301 31.7926 18.9241 31.6628 18.8554C31.0308 18.0643 30.3836 17.28 29.7217 16.5025C29.3201 15.944 29.0127 15.3399 28.7988 14.6901C28.8758 14.2549 29.1304 14.1065 29.5626 14.2449C29.7433 14.367 29.9342 14.4731 30.1353 14.5629C31.6093 16.0369 32.872 17.6797 33.9221 19.4914C33.989 19.7212 34.0418 19.9543 34.0812 20.1909C33.9781 20.5922 33.7236 20.7512 33.3175 20.6678C33.0795 20.5573 32.8777 20.3983 32.7129 20.1909C32.4762 19.8182 32.2114 19.479 31.9174 19.1734Z" fill="#FCF101"/>
<path fill-rule="evenodd" clip-rule="evenodd" d="M14.7972 14.3403C14.9244 14.3403 15.0517 14.3403 15.179 14.3403C15.1944 14.5498 15.1413 14.7406 15.0199 14.9127C14.6395 15.1974 14.2682 15.4941 13.9062 15.803C13.8412 15.771 13.8305 15.7287 13.8743 15.6758C14.2797 15.2869 14.5873 14.8418 14.7972 14.3403Z" fill="#EBF7ED"/>
<path fill-rule="evenodd" clip-rule="evenodd" d="M59.6023 15.1035C60.4437 15.1599 60.4437 15.2235 59.6023 15.2943C59.6023 15.2307 59.6023 15.1671 59.6023 15.1035Z" fill="#F0F9F2"/>
<path fill-rule="evenodd" clip-rule="evenodd" d="M25.6803 15.2942C25.8614 15.2643 26.0099 15.3173 26.1258 15.4532C25.9985 15.4956 25.8712 15.4956 25.7439 15.4532C25.6961 15.4105 25.6748 15.3576 25.6803 15.2942Z" fill="#F2FAF4"/>
<path fill-rule="evenodd" clip-rule="evenodd" d="M69.3398 14.8492C69.5091 14.8277 69.6573 14.8701 69.7853 14.9764C70.0621 15.3061 70.3695 15.6028 70.7081 15.8667C70.7056 16.0705 70.6101 16.1341 70.4217 16.0574C70.218 15.5753 69.8782 15.2256 69.4034 15.0082C69.3557 14.9655 69.334 14.9125 69.3398 14.8492Z" fill="#EEF8F0"/>
<path fill-rule="evenodd" clip-rule="evenodd" d="M67.1758 15.4214C67.3489 15.4327 67.5182 15.4645 67.6849 15.5168C67.7384 15.5811 67.7594 15.6553 67.7486 15.7394C67.4775 15.763 67.2865 15.657 67.1758 15.4214Z" fill="#E3F4E7"/>
<path fill-rule="evenodd" clip-rule="evenodd" d="M9.83287 16.5022C9.90765 16.4883 9.97129 16.5094 10.0238 16.5658C9.99395 16.8387 9.8561 17.0295 9.61011 17.1381C9.57829 17.1169 9.54647 17.0957 9.51465 17.0745C9.64983 16.8978 9.75592 16.707 9.83287 16.5022Z" fill="#EBF7EE"/>
<path fill-rule="evenodd" clip-rule="evenodd" d="M21.8615 17.0748C22.4075 17.0924 22.9379 17.1878 23.4526 17.3609C26.0298 18.6874 28.4907 20.1923 30.8353 21.876C31.1669 22.1016 31.305 22.4089 31.249 22.7981C31.1917 22.8745 31.1172 22.9275 31.0262 22.9571C30.729 22.9995 30.4324 22.9995 30.1352 22.9571C29.1074 22.5505 28.0891 22.1054 27.0803 21.6217C25.4682 20.6676 23.8134 19.7773 22.1161 18.9508C21.5918 18.6605 21.2312 18.2365 21.0342 17.6789C21.1621 17.2637 21.4379 17.0623 21.8615 17.0748Z" fill="#FCF101"/>
<path fill-rule="evenodd" clip-rule="evenodd" d="M72.1401 17.5835C72.2604 17.6183 72.3667 17.6819 72.4584 17.7743C72.5837 18.0035 72.7537 18.1943 72.9675 18.3466C73.0191 18.4465 73.0401 18.5525 73.0311 18.6646C72.7969 18.6588 72.5952 18.574 72.4265 18.4102C72.2617 18.1596 72.1662 17.8841 72.1401 17.5835Z" fill="#F1FAF3"/>
<path fill-rule="evenodd" clip-rule="evenodd" d="M68.6395 18.6646C68.8489 18.7381 68.8807 18.8653 68.735 19.0461C68.651 18.9348 68.6191 18.8076 68.6395 18.6646Z" fill="#D4EFDA"/>
<path fill-rule="evenodd" clip-rule="evenodd" d="M31.6626 18.8555C31.7925 18.9241 31.8778 19.0301 31.9172 19.1734C31.851 19.2555 31.7766 19.2555 31.6945 19.1734C31.6633 19.0695 31.6525 18.9635 31.6626 18.8555Z" fill="#EEF8F0"/>
<path fill-rule="evenodd" clip-rule="evenodd" d="M28.8623 19.0459C29.2378 19.0657 29.2798 19.2035 28.9896 19.4593C28.9291 19.49 28.8655 19.5005 28.7987 19.491C28.7955 19.3382 28.8165 19.1899 28.8623 19.0459Z" fill="#ECF8EF"/>
<path fill-rule="evenodd" clip-rule="evenodd" d="M39.2363 19.3643C39.482 19.3894 39.5666 19.5166 39.4909 19.7458C39.0212 19.8635 38.9366 19.7363 39.2363 19.3643Z" fill="#E9F7EC"/>
<path fill-rule="evenodd" clip-rule="evenodd" d="M50.2466 19.4912C50.4783 19.5011 50.4993 19.5753 50.3103 19.7138C50.1702 19.8011 50.0219 19.8223 49.8647 19.7774C50.0035 19.6907 50.1308 19.5953 50.2466 19.4912Z" fill="#E7F6EB"/>
<path fill-rule="evenodd" clip-rule="evenodd" d="M42.0365 20C42.2077 19.9895 42.377 20.0002 42.5457 20.0318C42.5972 20.0514 42.6392 20.0831 42.673 20.1272C42.4852 20.2006 42.2943 20.2112 42.1002 20.159C42.0525 20.1163 42.0308 20.0633 42.0365 20Z" fill="#DEF3E2"/>
<path fill-rule="evenodd" clip-rule="evenodd" d="M18.9976 20C19.1037 20 19.2097 20 19.3158 20C19.3158 20.0636 19.3158 20.1272 19.3158 20.1908C18.9045 20.224 18.5226 20.3512 18.1702 20.5723C18.0922 20.4233 18.1346 20.3067 18.2975 20.2226C18.5364 20.1393 18.7698 20.0652 18.9976 20Z" fill="#D6F0DB"/>
<path fill-rule="evenodd" clip-rule="evenodd" d="M50.883 20.8267C51.0135 20.8398 51.0345 20.8927 50.9466 20.9856C50.8404 21.0281 50.7347 21.0281 50.6284 20.9856C50.7283 20.947 50.813 20.8939 50.883 20.8267Z" fill="#DEF3E2"/>
<path fill-rule="evenodd" clip-rule="evenodd" d="M20.0795 21.0175C20.1465 21.008 20.2101 21.0186 20.2705 21.0493C20.1388 21.1685 19.9903 21.2321 19.825 21.2401C19.9033 21.1507 19.9881 21.0766 20.0795 21.0175Z" fill="#E2F4E6"/>
<path fill-rule="evenodd" clip-rule="evenodd" d="M66.985 21.2085C67.1447 21.254 67.1447 21.3176 66.985 21.3993C66.8227 21.3326 66.8227 21.269 66.985 21.2085Z" fill="#D1EED7"/>
<path fill-rule="evenodd" clip-rule="evenodd" d="M61.7662 21.5898C61.8057 21.5969 61.8375 21.6181 61.8617 21.6534C61.9139 21.8476 61.903 22.0384 61.8298 22.2258C61.7236 22.2046 61.6599 22.141 61.6389 22.035C61.672 21.8815 61.7147 21.7332 61.7662 21.5898Z" fill="#EEF8F0"/>
<path fill-rule="evenodd" clip-rule="evenodd" d="M19.4431 21.3356C19.5371 21.3189 19.622 21.3401 19.6977 21.3992C19.2966 21.6366 18.8829 21.8486 18.4566 22.0351C18.4128 21.9822 18.4234 21.9398 18.4884 21.9079C18.8423 21.7634 19.1606 21.5727 19.4431 21.3356Z" fill="#D9F1DE"/>
<path fill-rule="evenodd" clip-rule="evenodd" d="M34.9085 22.226C35.0224 22.2079 35.128 22.229 35.2267 22.2896C34.8251 22.6598 34.3586 22.893 33.8265 22.9891C33.8106 22.8411 33.8526 22.7139 33.9538 22.6076C34.1861 22.4607 34.4407 22.3865 34.7175 22.385C34.7856 22.3308 34.8493 22.2778 34.9085 22.226Z" fill="#F3FAF5"/>
<path fill-rule="evenodd" clip-rule="evenodd" d="M13.1425 22.4165C13.3634 22.4299 13.3634 22.5041 13.1425 22.6391C13.0624 22.7015 12.9775 22.7227 12.8879 22.7027C12.9664 22.5967 13.0513 22.5013 13.1425 22.4165Z" fill="#D6EFDB"/>
<path fill-rule="evenodd" clip-rule="evenodd" d="M48.4646 22.8618C48.5709 22.8618 48.6765 22.8618 48.7828 22.8618C48.7555 23.2112 48.5645 23.3384 48.21 23.2434C48.1738 23.0265 48.259 22.8993 48.4646 22.8618Z" fill="#E3F5E7"/>
<path fill-rule="evenodd" clip-rule="evenodd" d="M65.4573 25.2148C65.5458 25.4742 65.6304 25.7286 65.7119 25.9779C65.7635 26.0918 65.7953 26.219 65.8074 26.3594C65.8392 26.9102 65.85 27.4613 65.8392 28.0129C65.8157 28.39 65.8577 28.7503 65.9665 29.0939C65.9614 29.1734 65.9194 29.2264 65.8392 29.2529C65.4172 29.3007 65.0137 29.4066 64.63 29.5709C64.5027 29.6133 64.3754 29.6133 64.2481 29.5709C63.8771 29.0303 63.5054 28.4898 63.1343 27.9493C62.8009 27.5734 62.4298 27.2448 62.0206 26.9636C61.2276 26.578 60.4429 26.1753 59.6658 25.7553C59.331 25.6769 58.9918 25.6239 58.6475 25.5963C57.5611 25.6671 56.4791 25.7837 55.4016 25.9461C54.4343 26.2131 53.766 26.8172 53.3969 27.7585C53.2219 28.7123 53.5299 29.4647 54.3197 30.016C54.7709 30.18 55.1948 30.392 55.5926 30.652C55.7441 30.6845 55.8923 30.7269 56.0381 30.7792C56.8349 30.8291 57.6304 30.8185 58.4247 30.7474C59.9687 30.7818 61.4427 31.1103 62.8479 31.733C64.6949 32.022 66.2122 32.8805 67.3985 34.3086C67.5429 34.5926 67.6486 34.8893 67.7167 35.1989C67.8332 36.3451 67.6632 37.4474 67.2075 38.5057C66.7468 39.3963 66.1841 40.2124 65.521 40.954C64.567 41.4695 63.5913 41.9358 62.5934 42.3531C62.0543 42.413 61.5242 42.519 61.0023 42.671C60.376 42.7227 59.7504 42.7757 59.1248 42.83C58.566 42.7361 58.004 42.662 57.4382 42.6075C56.8693 42.3869 56.3181 42.1325 55.7835 41.8443C55.0516 41.6255 54.3515 41.3393 53.6833 40.9858C53.5108 41.0988 53.33 41.2048 53.1423 41.3038C53.2091 41.8301 53.2301 42.36 53.2059 42.8936C53.1156 42.9547 53.0201 43.0076 52.9195 43.0526C52.3754 43.1362 51.8446 43.2422 51.3285 43.3706C51.0236 42.6432 50.7799 41.8907 50.5966 41.113C50.5686 40.0832 50.4413 39.0657 50.2147 38.0606C50.0543 37.571 49.8316 37.1258 49.5464 36.7251C50.335 36.8016 51.1203 36.8016 51.9013 36.7251C52.39 37.5214 53.0055 38.2103 53.7469 38.7919C54.2332 39.0561 54.6997 39.3528 55.1471 39.6822C55.8516 39.9178 56.53 40.204 57.1837 40.5407C58.7754 40.8013 60.3455 40.7483 61.8933 40.3817C62.286 40.1662 62.6895 39.9755 63.1025 39.8094C63.3921 39.626 63.6149 39.3823 63.7708 39.078C63.83 38.815 63.9153 38.5606 64.0254 38.3149C64.0845 37.8729 64.0209 37.4489 63.8344 37.0431C63.492 36.6449 63.142 36.2528 62.7843 35.8666C62.5724 35.7606 62.3598 35.6546 62.1479 35.5486C61.0857 35.4335 60.0254 35.3063 58.9657 35.1671C58.1861 35.0462 57.4223 34.8872 56.6745 34.6901C56.3684 34.6206 56.0502 34.5783 55.7199 34.5629C54.0645 34.4247 52.4944 33.9689 51.0102 33.1957C50.3878 32.7648 49.8258 32.2666 49.3237 31.7013C49.1907 31.3784 49.127 31.0392 49.1328 30.6838C49.0074 30.4866 48.8909 30.2852 48.7827 30.0796C48.8553 29.9239 48.9189 29.7649 48.9736 29.6027C48.9176 29.4377 48.854 29.2787 48.7827 29.1257C48.9654 28.4959 49.2091 27.8918 49.5146 27.3133C49.6877 26.522 50.0168 25.8013 50.5011 25.1512C50.6672 25.1047 50.8371 25.073 51.0102 25.0558C51.5754 24.6144 52.1902 24.254 52.8559 23.9747C53.269 23.8353 53.6928 23.7505 54.1288 23.7203C54.9396 23.7195 55.746 23.6665 56.5472 23.5613C56.826 23.7002 57.1232 23.7956 57.4382 23.8475C58.2853 23.9419 59.1343 24.0479 59.984 24.1655C60.2271 24.2467 60.4607 24.3526 60.6841 24.4834C61.0214 24.8842 61.3822 25.2658 61.766 25.6281C62.2452 25.7864 62.6169 25.6486 62.8798 25.2148C62.9326 25.1088 62.9861 25.0028 63.0389 24.8968C62.9593 24.7255 62.8957 24.5559 62.8479 24.3881C62.8174 24.0496 62.7964 23.7105 62.7843 23.3706C63.2483 23.3397 63.6721 23.202 64.0572 22.9572C64.5269 22.7963 64.8133 22.9552 64.9164 23.4342C65.0309 23.8303 65.1156 24.2331 65.1709 24.6424C65.2371 24.8544 65.3326 25.0452 65.4573 25.2148Z" fill="#FDFEFD"/>
<path fill-rule="evenodd" clip-rule="evenodd" d="M62.7845 23.3706C62.7966 23.7105 62.8176 24.0497 62.8481 24.3881C62.7565 24.1941 62.7145 23.9822 62.7208 23.7522C62.7208 23.6125 62.7425 23.4853 62.7845 23.3706Z" fill="#7FCE8A"/>
<path fill-rule="evenodd" clip-rule="evenodd" d="M18.5522 24.261C18.6396 24.251 18.7245 24.2616 18.8068 24.2928C18.9686 24.4652 19.1383 24.6241 19.3159 24.7697C19.0808 24.9345 18.8262 24.9769 18.5522 24.8969C18.3937 24.6752 18.3937 24.4632 18.5522 24.261Z" fill="#F3FAF5"/>
<path fill-rule="evenodd" clip-rule="evenodd" d="M76.0224 24.6421C76.1191 24.6428 76.1929 24.6851 76.2451 24.7693C76.3005 25.0287 76.375 25.2831 76.4679 25.5324C76.4469 25.5748 76.4252 25.6172 76.4042 25.6596C75.9893 25.4245 75.862 25.0854 76.0224 24.6421Z" fill="#EBF7ED"/>
<path fill-rule="evenodd" clip-rule="evenodd" d="M65.4575 25.2148C65.6586 25.423 65.7433 25.6774 65.7121 25.978C65.6306 25.7287 65.546 25.4743 65.4575 25.2148Z" fill="#74C881"/>
<path fill-rule="evenodd" clip-rule="evenodd" d="M28.1624 25.7235C28.2705 25.7133 28.3768 25.7239 28.4806 25.7553C28.3482 25.8913 28.2419 25.8807 28.1624 25.7235Z" fill="#CEEDD5"/>
<path fill-rule="evenodd" clip-rule="evenodd" d="M37.3269 26.3591C38.0078 26.344 38.6869 26.3758 39.3635 26.4545C40.2506 26.6305 41.1417 26.7789 42.0365 26.8997C42.734 27.1667 43.3915 27.5058 44.0094 27.9172C45.2066 28.8168 46.2783 29.8449 47.2234 31.0014C47.2871 31.1286 47.3507 31.2558 47.4144 31.383C47.499 31.8918 47.5843 32.4006 47.6689 32.9092C47.9693 33.5868 48.0546 34.2863 47.9235 35.0078C47.6995 35.2204 47.4341 35.3582 47.128 35.4211C45.5814 35.6326 44.054 35.9081 42.5456 36.2478C41.8443 36.2396 41.155 36.3139 40.4772 36.4704C39.6874 36.4073 38.9027 36.4073 38.1224 36.4704C37.5674 36.5211 37.0265 36.6377 36.4995 36.8202C35.8408 36.8371 35.1833 36.8689 34.5265 36.9156C34.0906 36.8077 33.7615 36.9561 33.5401 37.3607C33.4363 37.6266 33.3835 37.9022 33.381 38.1874C33.4529 39.0464 33.654 39.8731 33.9856 40.6676C34.2401 41.0067 34.4947 41.3459 34.7493 41.685C35.7396 42.3787 36.7897 42.9617 37.8996 43.4339C39.1592 43.8401 40.432 43.8613 41.7183 43.4974C42.3261 43.2255 42.9415 42.9711 43.5639 42.7343C44.0094 42.4267 44.4766 42.1511 44.9641 41.9076C45.3612 41.5684 45.6896 41.1762 45.9506 40.7311C46.2764 40.0484 46.6265 39.3806 47.0007 38.728C47.3762 38.5974 47.7364 38.6291 48.0826 38.8234C48.1698 39.1035 48.2335 39.3897 48.2736 39.6819C48.0693 40.1673 47.8885 40.6655 47.7326 41.1763C47.492 41.5084 47.3011 41.8688 47.1598 42.2574C45.5961 43.8807 43.8032 45.1843 41.7819 46.1684C41.1563 46.3778 40.5199 46.5686 39.8726 46.7407C38.6449 46.9002 37.4783 46.7094 36.3722 46.1684C35.0968 45.9095 33.9086 45.4326 32.8082 44.7375C32.3588 44.5882 31.9133 44.4292 31.4716 44.2606C30.9899 43.8012 30.6398 43.2606 30.4215 42.6389C30.2306 42.4906 30.0397 42.3422 29.8487 42.1938C29.6629 41.801 29.4293 41.4406 29.1487 41.1127C28.6688 40.2244 28.3932 39.2705 28.3213 38.251C28.2786 37.6363 28.2786 37.0216 28.3213 36.4068C28.4174 35.6277 28.5237 34.8434 28.6395 34.0539C28.8247 33.1119 29.2276 32.2852 29.8487 31.5738C29.9945 31.1577 30.1008 30.7338 30.167 30.3019C30.3445 30.1654 30.5463 30.0912 30.7716 30.0793C31.0408 29.5643 31.401 29.1191 31.8535 28.7439C32.4798 28.2299 33.1372 27.7636 33.8265 27.3448C34.2961 27.1275 34.7627 26.9156 35.2266 26.7089C35.9337 26.5865 36.6338 26.4699 37.3269 26.3591Z" fill="#FDFEFD"/>
<path fill-rule="evenodd" clip-rule="evenodd" d="M71.1218 26.3594C71.2033 26.5301 71.1816 26.6997 71.0582 26.8681C70.7444 27.0749 70.6279 26.9902 70.7081 26.6137C70.8634 26.5458 71.0009 26.461 71.1218 26.3594Z" fill="#F0F9F2"/>
<path fill-rule="evenodd" clip-rule="evenodd" d="M68.8941 26.3594C68.9577 26.3594 69.0214 26.3594 69.085 26.3594C69.085 26.423 69.085 26.4866 69.085 26.5502C68.8896 26.5743 68.826 26.5107 68.8941 26.3594Z" fill="#DEF3E2"/>
<path fill-rule="evenodd" clip-rule="evenodd" d="M13.4606 56.4388C13.2841 56.3652 13.0932 56.3228 12.8878 56.3116C12.0536 56.118 11.2474 55.8319 10.4694 55.4531C10.2669 55.2505 10.0866 55.0279 9.9284 54.7854C9.6814 54.175 9.47984 53.5497 9.32379 52.9094C9.3768 52.4539 9.42982 51.9981 9.4829 51.5421C9.98129 50.7151 10.692 50.1534 11.615 49.8569C12.6536 49.777 13.534 50.1056 14.2562 50.8426C14.3665 51.2792 14.515 51.7031 14.7017 52.1145C14.766 52.4683 14.7235 52.8075 14.5744 53.132C14.3623 53.3016 14.1501 53.4711 13.9379 53.6407C13.8142 53.8703 13.6657 54.0822 13.4924 54.2766C13.45 54.4038 13.45 54.531 13.4924 54.6582C13.6902 54.8045 13.9129 54.8893 14.1607 54.9126C14.8196 54.8275 15.4772 54.7321 16.1337 54.6264C16.4781 54.5284 16.7963 54.38 17.0883 54.1812C17.58 53.6898 17.9724 53.1281 18.2657 52.496C18.3934 52.0491 18.4888 51.5933 18.5521 51.1288C18.4674 50.611 18.3931 50.0916 18.3294 49.5707C18.0318 48.8479 17.7348 48.1271 17.4383 47.4086C16.3409 45.9997 15.259 44.5795 14.1925 43.1479C13.0088 40.9485 11.6722 38.8499 10.183 36.8521C10.0002 36.3809 9.76681 35.9358 9.4829 35.5167C9.25314 34.9939 9.04102 34.464 8.84646 33.9269C8.67004 33.7831 8.46854 33.6877 8.24185 33.6407C7.71952 33.532 7.18918 33.4684 6.65076 33.4499C6.52684 33.0146 6.38893 32.5801 6.23707 32.1463C6.1656 31.9265 6.21862 31.7463 6.39618 31.6057C6.69155 31.4817 6.98851 31.3545 7.28719 31.2242C8.29652 31.0988 9.29362 30.908 10.2784 30.6518C10.4456 30.5171 10.6366 30.4323 10.8512 30.3975C12.5428 30.1339 14.2399 29.9431 15.9427 29.8251C16.0288 30.3858 16.1242 30.9475 16.2291 31.5103C16.2716 31.7223 16.2716 31.9343 16.2291 32.1463C15.5784 32.4102 14.8996 32.5586 14.1925 32.5914C13.8051 32.6607 13.5611 32.8833 13.4606 33.2591C13.5865 33.6001 13.682 33.9498 13.747 34.3084C13.8852 34.5847 14.0549 34.839 14.2562 35.0715C14.7847 35.6846 15.315 36.2994 15.8473 36.9157C16.1867 37.4245 16.5261 37.9332 16.8656 38.442C17.1965 38.7514 17.5041 39.0799 17.7884 39.4277C18.1298 39.5566 18.395 39.7791 18.5839 40.0954C18.9993 40.8538 19.4024 41.6169 19.7932 42.3847C19.8704 42.4832 19.9659 42.5574 20.0796 42.6073C20.3577 42.6473 20.6335 42.6368 20.9069 42.5755C20.9342 42.3514 21.0297 42.1606 21.1933 42.0032C21.2329 41.7417 21.2965 41.4873 21.3842 41.2401C21.6127 39.4389 21.846 37.6371 22.0843 35.8347C22.3206 34.9726 22.5327 34.1035 22.7208 33.2273C22.7267 32.8692 22.7797 32.5194 22.8799 32.1781C22.7955 32.0307 22.7106 31.8823 22.6253 31.7329C23.0146 31.3279 22.9298 31.0524 22.3707 30.9062C21.8397 30.8921 21.3094 30.8921 20.7796 30.9062C20.7478 30.8744 20.716 30.8426 20.6842 30.8108C20.6902 30.3675 20.6054 29.9435 20.4296 29.5389C20.3871 29.4118 20.3871 29.2846 20.4296 29.1574C20.6405 29.0523 20.8421 28.9357 21.0342 28.8076C22.1571 28.6235 23.2814 28.4434 24.4073 28.2671C25.7213 28.2722 27.0364 28.3146 28.3532 28.3943C28.4455 28.5505 28.4875 28.72 28.4805 28.903C28.4417 29.3264 28.4099 29.7504 28.385 30.1749C28.175 30.3155 27.9523 30.4321 27.7168 30.5246C27.3547 30.5545 26.9938 30.5969 26.6348 30.6518C26.3413 30.8092 26.161 31.053 26.0939 31.3831C26.0727 31.5951 26.0514 31.8071 26.0302 32.0191C25.71 32.863 25.4979 33.7321 25.3938 34.6264C25.1012 35.6026 24.8043 36.5777 24.5028 37.5517C24.3671 38.6109 24.2398 39.6708 24.1209 40.7313C23.8539 41.6094 23.5781 42.4785 23.2936 43.3386C23.1007 45.1933 22.634 46.9739 21.8934 48.6804C21.7841 49.2838 21.6356 49.8773 21.4479 50.4611C20.9816 51.5201 20.5149 52.58 20.0477 53.6407C19.639 54.3033 19.1404 54.8862 18.5521 55.3895C18.2403 55.4227 17.9433 55.5075 17.6611 55.6439C17.121 55.8819 16.5907 56.1363 16.07 56.407C15.6712 56.433 15.2787 56.486 14.8926 56.566C14.404 56.5403 13.9267 56.4979 13.4606 56.4388Z" fill="#FDFEFD"/>
<path fill-rule="evenodd" clip-rule="evenodd" d="M65.8393 28.0127C65.9043 28.3614 65.9463 28.7218 65.9666 29.0938C65.8578 28.7502 65.8158 28.3898 65.8393 28.0127Z" fill="#C2E8CA"/>
<path fill-rule="evenodd" clip-rule="evenodd" d="M40.7001 34.3084C39.9459 34.3113 39.2032 34.3538 38.4725 34.4355C38.3491 34.4769 38.2218 34.4981 38.0907 34.4991C37.4791 34.5198 36.8853 34.6046 36.3086 34.7535C35.9707 34.7969 35.6308 34.8499 35.2903 34.9125C35.2477 34.9549 35.2057 34.9973 35.1631 35.0397C34.7755 35.126 34.3936 35.2319 34.0175 35.3576C33.8647 35.4029 33.7164 35.3922 33.572 35.3258C33.262 35.0582 33.1029 34.7191 33.0946 34.3084C33.0495 33.8813 33.0705 33.4574 33.1583 33.0365C33.2843 32.6603 33.3906 32.2787 33.4765 31.8918C33.7896 31.431 34.0977 30.9646 34.3993 30.4928C35.3553 29.7404 36.3946 29.1363 37.5179 28.6804C38.2205 28.5699 38.9206 28.5911 39.6181 28.744C40.9298 29.3331 42.0652 30.1704 43.023 31.2559C43.2522 31.6497 43.4641 32.0525 43.6595 32.4642C43.7906 32.8991 43.844 33.3442 43.8186 33.7996C42.7793 33.9744 41.7394 34.144 40.7001 34.3084Z" fill="#2CB04A"/>
<path fill-rule="evenodd" clip-rule="evenodd" d="M7.28711 28.776C7.38117 28.7593 7.46601 28.7805 7.54168 28.8396C7.49923 28.8608 7.45685 28.882 7.4144 28.9032C7.3372 28.8875 7.29475 28.8451 7.28711 28.776Z" fill="#DDF2E2"/>
<path fill-rule="evenodd" clip-rule="evenodd" d="M77.6769 29.0938C77.9079 29.387 78.0352 29.7262 78.0588 30.1112C77.9003 30.1221 77.7832 30.0585 77.7087 29.9205C77.5923 29.6486 77.5821 29.3731 77.6769 29.0938Z" fill="#EFF9F1"/>
<path fill-rule="evenodd" clip-rule="evenodd" d="M73.6038 29.2212C73.6834 29.2261 73.7362 29.2685 73.7629 29.3484C73.8361 29.6854 73.8571 30.0245 73.8266 30.3659C73.7769 30.5297 73.6815 30.6569 73.5402 30.7474C73.5026 30.7341 73.4708 30.7129 73.4447 30.6838C73.3601 30.3053 73.3391 29.9238 73.3811 29.5392C73.4256 29.4066 73.4995 29.3006 73.6038 29.2212Z" fill="#F7FCF8"/>
<path fill-rule="evenodd" clip-rule="evenodd" d="M67.4941 30.8108C67.6309 30.8027 67.7582 30.8345 67.8759 30.9062C68.1095 31.0546 68.3004 31.2453 68.4487 31.4785C68.3577 31.5701 68.2514 31.5914 68.1305 31.5421C67.9192 31.3103 67.6863 31.0983 67.4304 30.9062C67.4661 30.8818 67.4871 30.8501 67.4941 30.8108Z" fill="#F1F9F3"/>
<path fill-rule="evenodd" clip-rule="evenodd" d="M20.6523 32.1461C20.8596 32.1254 20.955 32.2102 20.9387 32.4005C20.78 32.4924 20.6633 32.45 20.5886 32.2733C20.6117 32.2299 20.6329 32.1875 20.6523 32.1461Z" fill="#EAF7ED"/>
<path fill-rule="evenodd" clip-rule="evenodd" d="M78.059 33.1C78.1226 33.0945 78.1754 33.1157 78.2181 33.1636C78.2696 33.2958 78.2588 33.4229 78.1863 33.5451C78.1487 33.5318 78.1169 33.5106 78.0908 33.4815C78.059 33.3561 78.0488 33.2289 78.059 33.1Z" fill="#E9F7EC"/>
<path fill-rule="evenodd" clip-rule="evenodd" d="M73.1582 33.1636C73.3307 33.3231 73.3097 33.4715 73.0946 33.6087C73.0169 33.5841 72.9743 33.5311 72.9673 33.4497C73.0188 33.3453 73.0825 33.2499 73.1582 33.1636Z" fill="#E5F5E8"/>
<path fill-rule="evenodd" clip-rule="evenodd" d="M69.7215 33.418C69.873 33.4823 69.9366 33.5989 69.9125 33.7677C69.9245 33.8932 69.8819 33.9886 69.7852 34.0539C69.7266 33.8933 69.663 33.7343 69.5942 33.577C69.6299 33.5127 69.6719 33.4597 69.7215 33.418Z" fill="#DBF1DF"/>
<path fill-rule="evenodd" clip-rule="evenodd" d="M78.186 33.7363C78.3534 33.9913 78.4909 34.2669 78.5997 34.563C78.6067 35.0343 78.6494 35.5007 78.727 35.9621C78.7798 36.6626 78.7696 37.3621 78.6952 38.0607C78.5813 38.3022 78.475 38.2917 78.377 38.0289C78.5125 37.8635 78.5762 37.6727 78.5679 37.4565C78.454 36.218 78.3267 34.9779 78.186 33.7363Z" fill="#E7F6EA"/>
<path fill-rule="evenodd" clip-rule="evenodd" d="M16.5156 33.9268C16.5888 33.9453 16.6312 33.9982 16.6429 34.0857C16.6323 34.1387 16.6217 34.1917 16.6111 34.2447C16.5469 34.1477 16.5151 34.0417 16.5156 33.9268Z" fill="#D1EED8"/>
<path fill-rule="evenodd" clip-rule="evenodd" d="M16.7065 34.3086C16.9779 34.3161 17.137 34.4433 17.1839 34.6902C17.1086 34.7684 17.0344 34.7684 16.9611 34.6902C16.848 34.578 16.7631 34.4508 16.7065 34.3086Z" fill="#EAF7ED"/>
<path fill-rule="evenodd" clip-rule="evenodd" d="M40.7002 34.3086C39.9702 34.4034 39.2281 34.4458 38.4727 34.4358C39.2033 34.354 39.946 34.3116 40.7002 34.3086Z" fill="#C6EACE"/>
<path fill-rule="evenodd" clip-rule="evenodd" d="M55.72 34.563C56.0503 34.5783 56.3685 34.6207 56.6746 34.6902C56.3392 34.71 56.021 34.6676 55.72 34.563Z" fill="#91D6A0"/>
<path fill-rule="evenodd" clip-rule="evenodd" d="M38.0906 34.499C37.5108 34.6242 36.9164 34.709 36.3086 34.7534C36.8852 34.6045 37.479 34.5197 38.0906 34.499Z" fill="#BDE6C6"/>
<path fill-rule="evenodd" clip-rule="evenodd" d="M74.9403 35.771C75.0465 35.771 75.1522 35.771 75.2585 35.771C75.2572 35.9253 75.2254 36.0737 75.163 36.2161C74.7767 37.0032 74.384 37.7875 73.9856 38.5691C73.9334 38.6254 73.8698 38.6466 73.7947 38.6327C73.8074 38.3706 73.8602 38.1162 73.9538 37.8696C74.2644 37.1614 74.5934 36.4619 74.9403 35.771Z" fill="#F2FAF3"/>
<path fill-rule="evenodd" clip-rule="evenodd" d="M58.8385 35.8984C59.0523 35.9431 59.0733 36.028 58.9021 36.1528C58.8429 36.0772 58.8219 35.9924 58.8385 35.8984Z" fill="#EAF7ED"/>
<path fill-rule="evenodd" clip-rule="evenodd" d="M7.03253 36.0254C7.16771 36.0592 7.26318 36.144 7.31893 36.2798C7.57414 36.7818 7.79689 37.2906 7.98719 37.806C7.966 37.912 7.90235 37.9756 7.79626 37.9968C7.57898 37.711 7.37742 37.4143 7.19164 37.1065C7.08339 36.7544 7.03037 36.394 7.03253 36.0254Z" fill="#EDF8F0"/>
<path fill-rule="evenodd" clip-rule="evenodd" d="M39.5545 36.9155C39.6181 36.9155 39.6818 36.9155 39.7454 36.9155C39.72 37.3105 39.5717 37.6496 39.2999 37.933C39.2146 37.5532 39.2993 37.214 39.5545 36.9155Z" fill="#DCF2E0"/>
<path fill-rule="evenodd" clip-rule="evenodd" d="M56.1018 37.2972C56.2883 37.2303 56.4366 37.2939 56.5473 37.488C56.3507 37.549 56.2024 37.4854 56.1018 37.2972Z" fill="#CAEBD0"/>
<path fill-rule="evenodd" clip-rule="evenodd" d="M37.7089 37.4243C37.7484 37.4314 37.7802 37.4526 37.8044 37.4879C37.8038 37.9144 37.6975 38.3171 37.4862 38.6962C37.4219 38.7494 37.3474 38.7706 37.2634 38.7598C37.2494 38.3894 37.3023 38.0291 37.4225 37.6787C37.5116 37.5788 37.6071 37.494 37.7089 37.4243Z" fill="#F3FAF5"/>
<path fill-rule="evenodd" clip-rule="evenodd" d="M56.9929 37.6155C57.2901 37.5417 57.4601 37.6477 57.5021 37.9335C57.2411 37.9524 57.0712 37.8465 56.9929 37.6155Z" fill="#DDF2E2"/>
<path fill-rule="evenodd" clip-rule="evenodd" d="M59.4748 37.9331C59.5779 37.9514 59.6416 38.0149 59.6658 38.1239C59.3755 38.2196 59.3119 38.156 59.4748 37.9331Z" fill="#E7F6EA"/>
<path fill-rule="evenodd" clip-rule="evenodd" d="M42.4185 37.9332C42.4821 37.9313 42.5241 37.9631 42.5458 38.0286C42.2791 38.4096 42.2371 38.3778 42.4185 37.9332Z" fill="#E8F6EB"/>
<path fill-rule="evenodd" clip-rule="evenodd" d="M45.0916 38.251C45.1978 38.251 45.3035 38.251 45.4098 38.251C45.42 38.359 45.4091 38.465 45.378 38.5689C45.2507 38.7385 45.1234 38.9081 44.9961 39.0777C44.9095 39.1336 44.8141 39.1549 44.7097 39.1413C44.6982 38.7834 44.8255 38.4866 45.0916 38.251Z" fill="#EDF8EF"/>
<path fill-rule="evenodd" clip-rule="evenodd" d="M26.1892 39.5229C26.2729 39.6765 26.3153 39.8567 26.3165 40.0635C26.3137 40.4393 26.2712 40.8102 26.1892 41.1764C26.0663 41.2412 25.939 41.2519 25.8074 41.2082C25.8079 40.6225 25.9352 40.0607 26.1892 39.5229Z" fill="#EAF7ED"/>
<path fill-rule="evenodd" clip-rule="evenodd" d="M2.13209 40.604C2.43478 41.8061 2.59389 43.0355 2.60942 44.2924C2.54508 44.3456 2.4708 44.3668 2.38667 44.356C2.23819 43.3388 2.08971 42.3213 1.94116 41.3035C1.94963 41.054 2.01327 40.8209 2.13209 40.604Z" fill="#F3FAF4"/>
<path fill-rule="evenodd" clip-rule="evenodd" d="M3.65955 40.9219C3.77863 40.9447 3.8741 41.0083 3.94595 41.1127C4.0024 41.4034 3.95995 41.6789 3.81866 41.9394C3.68647 41.6172 3.6334 41.2781 3.65955 40.9219Z" fill="#F1FAF3"/>
<path fill-rule="evenodd" clip-rule="evenodd" d="M49.9283 41.2402C50.0696 41.244 50.1333 41.3181 50.1193 41.4628C50.1333 41.5882 50.0804 41.6624 49.9601 41.6854C49.7616 41.5603 49.7508 41.4119 49.9283 41.2402Z" fill="#E8F6EB"/>
<path fill-rule="evenodd" clip-rule="evenodd" d="M7.60547 42.0669C7.77037 42.1148 7.88703 42.2209 7.95551 42.3849C8.0982 42.6509 8.13002 42.9264 8.05097 43.2116C7.82962 42.8547 7.68114 42.4731 7.60547 42.0669Z" fill="#ECF8EE"/>
<path fill-rule="evenodd" clip-rule="evenodd" d="M65.9665 59.6822C65.7514 59.6797 65.5395 59.7008 65.3301 59.7458C65.0227 59.7537 64.7255 59.7008 64.4391 59.5868C63.9897 59.138 63.5016 58.7352 62.9753 58.3785C62.6774 58.1544 62.5928 57.8683 62.7207 57.52C62.7519 57.3734 62.7735 57.225 62.7843 57.0749C62.7964 56.967 62.8492 56.8823 62.9434 56.8205C62.96 56.6261 62.9918 56.4353 63.0389 56.2482C63.338 56.0561 63.6136 55.8335 63.8663 55.5805C64.3086 55.6309 64.7325 55.7581 65.1391 55.962C65.2212 56.0517 65.2951 56.1471 65.3619 56.2482C65.4045 56.545 65.4045 56.8417 65.3619 57.1385C65.2136 57.3717 65.0227 57.5625 64.7891 57.7108C64.7573 57.8062 64.7255 57.9016 64.6936 57.997C64.7961 58.2469 64.9234 58.48 65.0755 58.6965C65.3453 58.7892 65.6209 58.8104 65.9029 58.7601C66.2325 58.6803 66.5291 58.5319 66.7939 58.3149C67.0287 58.0434 67.2725 57.7784 67.5258 57.52C67.6607 57.3019 67.7562 57.0687 67.8122 56.8205C67.802 56.3349 67.7065 55.8685 67.5258 55.4215C67.2126 55.2634 67.0217 55.009 66.953 54.6584C66.5488 54.1906 66.167 53.7031 65.8074 53.1957C65.1951 51.8245 64.4951 50.4891 63.7072 49.1894C63.4774 48.2956 63.0427 47.5218 62.4025 46.8682C62.3013 46.8134 62.1956 46.771 62.0842 46.741C61.5776 46.7615 61.0685 46.7721 60.5568 46.7728C60.546 46.4964 60.5568 46.2209 60.5886 45.9461C60.6364 45.9063 60.6892 45.8745 60.7477 45.8507C61.5032 45.6537 62.2669 45.5053 63.0389 45.4056C63.6652 45.3263 64.2908 45.3158 64.9164 45.3738C65.4841 45.1815 66.0677 45.0967 66.6666 45.1194C66.6971 45.3548 66.7398 45.588 66.7939 45.8189C66.7729 45.8401 66.7512 45.8613 66.7302 45.8825C66.2695 46.0716 65.8029 46.2412 65.3301 46.3913C65.2626 46.7097 65.2734 47.0277 65.3619 47.3452C66.1383 48.4493 66.8486 49.594 67.494 50.7792C67.6639 50.9911 67.8332 51.2032 68.0031 51.4151C68.2411 51.5799 68.4639 51.5587 68.6714 51.3515C68.7776 51.1607 68.8833 50.97 68.9896 50.7792C69.1792 50.064 69.3485 49.3433 69.4987 48.617C69.88 47.7813 70.1453 46.9016 70.2943 45.9779C70.2936 45.6794 70.1447 45.4886 69.8488 45.4056C69.3816 45.4101 68.9145 45.4419 68.4486 45.501C68.4378 45.2034 68.4486 44.9067 68.4804 44.6107C68.511 44.4849 68.5854 44.4001 68.7032 44.3563C69.9417 44.1318 71.1719 43.9834 72.3945 43.9111C72.6682 43.9653 72.9444 43.9759 73.2219 43.9429C73.2747 43.9959 73.3282 44.0489 73.381 44.1019C73.4599 44.4486 73.4917 44.7983 73.4765 45.1512C73.4707 45.2216 73.4497 45.2852 73.4128 45.342C72.9635 45.3522 72.518 45.3946 72.0763 45.4692C71.7944 46.0137 71.6352 46.5966 71.599 47.218C71.2928 48.3474 70.911 49.4497 70.4534 50.5248C70.1313 51.961 69.8131 53.4024 69.4987 54.8491C69.1971 55.925 68.7726 56.9425 68.2259 57.9016C67.9681 58.2571 67.7033 58.6068 67.4303 58.9509C66.9555 59.2304 66.468 59.4741 65.9665 59.6822Z" fill="#FCF101"/>
<path fill-rule="evenodd" clip-rule="evenodd" d="M52.3469 44.1017C52.3507 44.0671 52.3717 44.046 52.4106 44.0381C52.9 44.1234 52.9 44.2294 52.4106 44.3561C52.4278 44.2544 52.4061 44.1696 52.3469 44.1017Z" fill="#E5F5E9"/>
<path fill-rule="evenodd" clip-rule="evenodd" d="M75.3222 43.2114C76.3997 43.4575 76.6861 44.0722 76.1814 45.0556C75.4502 45.6355 74.8347 45.5296 74.3358 44.7377C74.1391 43.8858 74.4675 43.377 75.3222 43.2114Z" fill="#E9ED0C"/>
<path fill-rule="evenodd" clip-rule="evenodd" d="M75.1314 43.4023C76.1286 43.4452 76.457 43.9328 76.1178 44.865C75.6125 45.3626 75.1033 45.3626 74.5904 44.865C74.2887 44.1892 74.4688 43.7016 75.1314 43.4023Z" fill="#3EB447"/>
<path fill-rule="evenodd" clip-rule="evenodd" d="M74.8767 43.7203C75.1319 43.7097 75.3865 43.7203 75.6404 43.7521C75.8212 43.9822 75.8002 44.1942 75.5768 44.388C75.7264 44.5161 75.8536 44.6644 75.9587 44.8331C75.7251 44.8672 75.5551 44.7718 75.4495 44.547C75.3738 44.4879 75.2891 44.4667 75.1949 44.4834C75.2325 44.6504 75.2535 44.82 75.2586 44.9921C75.1555 45.001 75.081 44.9586 75.0358 44.8649C74.9677 44.4849 74.9149 44.1033 74.8767 43.7203Z" fill="#F1EE07"/>
<path fill-rule="evenodd" clip-rule="evenodd" d="M75.1313 43.9111C75.2586 43.9111 75.3859 43.9111 75.5132 43.9111C75.5132 44.0171 75.5132 44.1231 75.5132 44.2291C75.3859 44.2503 75.2586 44.2715 75.1313 44.2927C75.1313 44.1655 75.1313 44.0383 75.1313 43.9111Z" fill="#3EB346"/>
<path fill-rule="evenodd" clip-rule="evenodd" d="M50.4375 45.4372C50.7392 45.3935 50.7926 45.457 50.5966 45.628C50.5062 45.5912 50.4534 45.5276 50.4375 45.4372Z" fill="#E2F4E6"/>
<path fill-rule="evenodd" clip-rule="evenodd" d="M60.6841 54.7219C60.7254 54.7998 60.7999 54.8422 60.9068 54.8491C60.9947 54.8482 61.0691 54.8269 61.1296 54.7855C61.2053 54.7305 61.2791 54.6669 61.3523 54.5947C61.4179 54.323 61.4605 54.0474 61.4796 53.768C61.6648 53.388 61.7819 52.9853 61.8297 52.5597C62.1281 52.5623 62.4254 52.5834 62.7207 52.6233C62.7003 52.9632 62.6685 53.3024 62.6252 53.6408C62.4305 54.1401 62.2605 54.6489 62.1161 55.167C61.9188 55.5731 61.654 55.9228 61.3205 56.2163C61.0532 56.2913 60.7878 56.3655 60.525 56.4389C60.2653 56.388 59.9999 56.3562 59.7294 56.3435C59.3348 56.1303 58.9421 55.9077 58.552 55.6758C58.2332 55.3074 57.8405 55.1908 57.3746 55.326C56.9412 55.7015 56.4747 56.0301 55.9744 56.3117C54.8537 56.6688 53.7081 56.8702 52.5377 56.9158C51.8026 56.6046 51.177 56.1488 50.6602 55.5486C50.4012 54.7946 50.4648 54.0739 50.8511 53.3864C51.2069 53.1584 51.5251 52.8828 51.8058 52.5597C52.1679 52.089 52.497 51.6015 52.7923 51.0971C53.2244 51.053 53.6063 50.894 53.9379 50.6201C54.3948 50.4636 54.8613 50.3471 55.338 50.2704C55.6766 50.334 56.0165 50.3658 56.3563 50.3658C56.6535 50.2386 56.9501 50.1114 57.2473 49.9842C57.3434 49.8983 57.4071 49.7923 57.4383 49.6662C57.1156 48.4145 56.3302 47.6301 55.0834 47.3133C53.9538 47.0773 52.9145 47.2787 51.9649 47.9174C51.8853 48.0928 51.7682 48.2412 51.6149 48.3626C51.5417 48.5059 51.5207 48.6543 51.5512 48.8077C52.1864 49.3676 52.3353 50.046 51.9967 50.8427C51.7835 50.9715 51.667 51.1623 51.6467 51.415C51.3062 51.4746 50.9663 51.4746 50.6284 51.415C50.4871 51.2189 50.2962 51.0917 50.0556 51.0335C49.8023 50.8667 49.6432 50.6336 49.5783 50.334C49.374 50.192 49.3103 50.0012 49.3873 49.7616C49.5566 49.6033 49.7157 49.4337 49.8647 49.2529C49.9169 49.0655 49.9487 48.8747 49.9601 48.6805C50.1848 48.2762 50.4712 47.9158 50.8193 47.5995C51.4799 47.1568 52.1584 46.7434 52.8559 46.3594C54.5819 45.9576 56.2367 46.1696 57.8201 46.9953C58.1829 47.497 58.5539 47.9951 58.9339 48.4898C59.0262 48.9277 59.1534 49.3516 59.3157 49.7616C59.5194 50.7477 59.6467 51.744 59.6976 52.7505C59.9751 53.1993 60.166 53.6869 60.2704 54.2131C60.3429 54.3674 60.4282 54.5158 60.525 54.6583C60.5676 54.7061 60.6204 54.7274 60.6841 54.7219Z" fill="#FCF101"/>
<path fill-rule="evenodd" clip-rule="evenodd" d="M7.03263 46.3276C7.17583 46.4385 7.31375 46.5657 7.44632 46.7092C7.4803 46.9512 7.54395 47.1843 7.63725 47.4087C7.6797 47.6631 7.6797 47.9175 7.63725 48.1718C7.6109 48.2009 7.57908 48.2221 7.54178 48.2354C7.11359 47.6742 6.94385 47.0382 7.03263 46.3276Z" fill="#F1F9F2"/>
<path fill-rule="evenodd" clip-rule="evenodd" d="M45.6644 54.9126C45.5651 55.3014 45.5014 55.7042 45.4734 56.1209C45.3347 56.9293 45.1756 57.7348 44.9961 58.5374C44.9535 58.6646 44.9115 58.7918 44.8688 58.919C44.7803 58.986 44.6849 58.9966 44.5824 58.9508C43.4559 57.6986 42.4274 56.3738 41.4957 54.9762C41.0496 54.5407 40.6142 54.0956 40.191 53.6408C39.9873 53.5346 39.7754 53.4816 39.5546 53.4818C39.4782 53.5392 39.4254 53.6133 39.3955 53.7044C39.3433 55.387 38.9824 56.998 38.3135 58.5374C38.2963 59.1113 38.1582 59.6519 37.8998 60.159C37.7146 60.2429 37.5237 60.2641 37.327 60.2226C37.0693 59.986 36.8892 59.6998 36.7861 59.3641C36.2922 58.6806 35.8257 57.981 35.3859 57.2656C34.9971 56.3475 34.5515 55.4572 34.0494 54.5947C33.8419 53.8298 33.5663 53.0878 33.222 52.3689C32.9299 51.8549 32.5799 51.3885 32.1719 50.9699C32.1649 50.9306 32.1439 50.8988 32.1083 50.8745C31.7111 50.8228 31.3293 50.8546 30.9627 50.9699C30.7718 51.0546 30.5808 51.0546 30.3899 50.9699C30.4351 50.7609 30.4561 50.5489 30.4535 50.3339C30.4198 50.1236 30.5051 49.9858 30.7081 49.9206C31.0677 49.8149 31.4286 49.7089 31.7901 49.6026C32.963 49.4462 34.1296 49.2554 35.2904 49.0303C35.5024 48.9878 35.715 48.9878 35.9269 49.0303C36.0427 49.1447 36.1165 49.2825 36.1496 49.4436C36.2056 49.7107 36.2585 49.9757 36.3087 50.2385C36.2731 50.3451 36.2095 50.4299 36.1178 50.4929C35.6602 50.6105 35.1937 50.6847 34.7177 50.7155C34.6457 51.1362 34.6356 51.5601 34.6858 51.9873C34.7024 52.122 34.766 52.228 34.8768 52.3053C34.9054 52.6829 34.9907 53.0432 35.1313 53.3864C35.4839 53.9638 35.8021 54.5573 36.086 55.167C36.3737 55.5311 36.6282 55.9127 36.8497 56.3117C37.1285 56.5642 37.4047 56.5854 37.6771 56.3753C37.7032 56.2862 37.735 56.2014 37.7725 56.1209C37.7986 55.7585 37.8406 55.3981 37.8998 55.0398C38.0399 54.3334 38.2626 53.6551 38.5681 53.0048C38.6254 52.4574 38.7527 51.9274 38.95 51.415C39.048 50.932 39.1116 50.4444 39.1409 49.9524C39.6068 49.6294 40.1057 49.3644 40.6365 49.1575C41.0356 49.0738 41.3964 49.148 41.7185 49.38C41.8617 49.6715 42.0309 49.9471 42.2276 50.2067C42.3644 50.8618 42.6082 51.4766 42.9595 52.0509C42.992 52.6032 43.1829 53.0908 43.5323 53.5136C43.5533 53.6408 43.5749 53.7679 43.5959 53.8951C43.7277 54.0193 43.8658 54.1358 44.0096 54.2449C44.3819 54.3198 44.6257 54.182 44.7415 53.8315C44.7625 53.5772 44.7842 53.3228 44.8052 53.0684C45.0273 52.2549 45.2609 51.4495 45.5052 50.6519C45.5861 50.4654 45.6924 50.2958 45.8235 50.1431C46.015 49.5718 45.8349 49.1691 45.2825 48.9349C44.9668 49.0347 44.6486 49.0558 44.3278 48.9985C44.1936 48.759 44.1407 48.5046 44.1687 48.2354C44.5283 48.1216 44.8784 47.9838 45.2189 47.822C45.6434 47.7194 46.0672 47.7088 46.4917 47.7902C46.8729 47.7987 47.2338 47.7351 47.5737 47.5994C47.9122 47.5244 48.2521 47.429 48.592 47.3133C49.0063 47.1969 49.229 47.3559 49.2602 47.7902C49.3251 48.1811 49.2297 48.5309 48.9738 48.8395C48.6492 48.9161 48.3202 48.9692 47.9873 48.9985C47.7207 48.9257 47.4553 48.9257 47.1918 48.9985C46.7768 50.5515 46.3422 52.0989 45.8871 53.6408C45.7719 54.0586 45.6975 54.4825 45.6644 54.9126Z" fill="#FCF101"/>
<path fill-rule="evenodd" clip-rule="evenodd" d="M4.7415 47.3452C4.80514 47.3452 4.86879 47.3452 4.93243 47.3452C5.07238 47.7518 5.19967 48.1652 5.31429 48.5853C5.26427 48.8052 5.24301 49.0278 5.25065 49.253C5.16651 49.2638 5.09224 49.2426 5.0279 49.1894C4.96196 48.9825 4.91951 48.7706 4.90061 48.5535C4.87394 48.479 4.83156 48.4154 4.77332 48.3627C4.74156 48.0242 4.73093 47.6851 4.7415 47.3452Z" fill="#E9F7EC"/>
<path fill-rule="evenodd" clip-rule="evenodd" d="M13.906 47.4087C14.3119 47.426 14.6619 47.5744 14.9561 47.8538C15.0105 47.9878 14.9681 48.0727 14.8288 48.1082C14.4335 47.9766 14.1259 47.7434 13.906 47.4087Z" fill="#EDF8F0"/>
<path fill-rule="evenodd" clip-rule="evenodd" d="M47.5736 47.5996C47.2338 47.7353 46.8729 47.7988 46.4917 47.7904C46.8405 47.704 47.2007 47.6404 47.5736 47.5996Z" fill="#AED91F"/>
<path fill-rule="evenodd" clip-rule="evenodd" d="M27.0803 48.2355C27.1071 48.1958 27.1491 48.1746 27.2076 48.1719C27.3966 48.2125 27.5876 48.2443 27.7804 48.2673C27.8339 48.3316 27.8549 48.4058 27.844 48.4898C27.5767 48.4433 27.3222 48.3585 27.0803 48.2355Z" fill="#F1FAF3"/>
<path fill-rule="evenodd" clip-rule="evenodd" d="M1.81389 48.0444C2.02315 48.6134 2.11861 49.2069 2.10028 49.825C1.98146 49.2903 1.8648 48.7498 1.75024 48.2034C1.76571 48.1461 1.78697 48.0931 1.81389 48.0444Z" fill="#CCECD3"/>
<path fill-rule="evenodd" clip-rule="evenodd" d="M30.4535 50.334C30.456 50.549 30.435 50.7609 30.3898 50.9699C30.3504 50.9434 30.3287 50.901 30.3262 50.8427C30.3554 50.6616 30.3981 50.4919 30.4535 50.334Z" fill="#9BD325"/>
<path fill-rule="evenodd" clip-rule="evenodd" d="M32.1719 50.97C31.7709 50.9059 31.3681 50.9059 30.9626 50.97C31.3292 50.8547 31.7111 50.8229 32.1082 50.8746C32.1439 50.899 32.1649 50.9307 32.1719 50.97Z" fill="#B1DA1E"/>
<path fill-rule="evenodd" clip-rule="evenodd" d="M56.5474 51.0972C56.8758 51.0969 57.1405 51.224 57.3429 51.4787C57.3372 52.1362 57.3907 52.7933 57.502 53.4501C57.5001 53.8459 57.3518 54.1744 57.0565 54.4358C56.2514 54.8334 55.4139 55.1196 54.5426 55.2943C54.2059 55.1673 53.8559 55.0719 53.4925 55.0081C53.4047 54.8992 53.299 54.8144 53.1743 54.7538C52.7224 54.072 52.7116 53.3831 53.1425 52.687C53.3207 52.3624 53.5651 52.0975 53.8744 51.8921C54.3549 51.6416 54.8424 51.4084 55.3382 51.1926C55.7487 51.2193 56.1515 51.1875 56.5474 51.0972Z" fill="#2DB049"/>
<path fill-rule="evenodd" clip-rule="evenodd" d="M8.30555 51.7327C8.42584 51.7198 8.5213 51.7622 8.59195 51.8599C8.63153 52.2069 8.727 52.5355 8.87834 52.8456C8.81464 53.0047 8.70861 53.0365 8.56013 52.941C8.36156 52.5636 8.27666 52.1608 8.30555 51.7327Z" fill="#EFF9F1"/>
<path fill-rule="evenodd" clip-rule="evenodd" d="M27.2713 51.7964C27.7397 51.8082 27.888 52.0308 27.7168 52.4641C27.1459 52.4808 26.9976 52.2583 27.2713 51.7964Z" fill="#F3FAF4"/>
<path fill-rule="evenodd" clip-rule="evenodd" d="M73.5401 53.3226C73.6776 53.2982 73.7839 53.3406 73.8583 53.4498C73.8176 53.5957 73.733 53.7017 73.6038 53.7678C73.5083 53.7707 73.4447 53.7284 73.4128 53.6406C73.4555 53.5328 73.4981 53.4268 73.5401 53.3226Z" fill="#E4F5E8"/>
<path fill-rule="evenodd" clip-rule="evenodd" d="M21.2888 53.7681C21.3525 53.7681 21.4161 53.7681 21.4798 53.7681C21.5168 54.2194 21.3259 54.3891 20.907 54.2768C21.0603 54.1241 21.1876 53.9545 21.2888 53.7681Z" fill="#EDF8EF"/>
<path fill-rule="evenodd" clip-rule="evenodd" d="M32.0446 54.0225C32.3304 54.0685 32.4366 54.2381 32.3628 54.5312C32.0325 54.5003 31.9262 54.3308 32.0446 54.0225Z" fill="#E2F4E6"/>
<path fill-rule="evenodd" clip-rule="evenodd" d="M60.6841 54.7217C60.8254 54.7769 60.9737 54.7981 61.1296 54.7853C61.0691 54.8267 60.9947 54.848 60.9068 54.8489C60.7999 54.842 60.7255 54.7996 60.6841 54.7217Z" fill="#A2D523"/>
<path fill-rule="evenodd" clip-rule="evenodd" d="M25.9985 54.9762C26.0925 54.9595 26.1774 54.9807 26.253 55.0398C26.1364 55.1882 26.0197 55.3366 25.903 55.4849C25.838 55.4306 25.7849 55.367 25.7439 55.2942C25.8303 55.187 25.9151 55.081 25.9985 54.9762Z" fill="#DFF3E3"/>
<path fill-rule="evenodd" clip-rule="evenodd" d="M27.7803 55.0396C27.844 55.0396 27.9076 55.0396 27.9713 55.0396C27.949 55.2861 27.8752 55.5192 27.7485 55.7391C27.5423 56.0874 27.3514 56.4478 27.1757 56.8202C27.1095 56.9527 27.0141 57.0588 26.8893 57.1381C26.8683 57.1169 26.8467 57.0957 26.8257 57.0745C27.1204 56.3816 27.4386 55.7033 27.7803 55.0396Z" fill="#E9F7EC"/>
<path fill-rule="evenodd" clip-rule="evenodd" d="M45.6643 54.9126C45.6573 55.3328 45.5937 55.7356 45.4734 56.1209C45.5014 55.7041 45.565 55.3013 45.6643 54.9126Z" fill="#B3DB1D"/>
<path fill-rule="evenodd" clip-rule="evenodd" d="M37.8998 55.0396C37.8406 55.3978 37.7986 55.7582 37.7725 56.1206C37.698 55.7506 37.74 55.3903 37.8998 55.0396Z" fill="#9BD324"/>
<path fill-rule="evenodd" clip-rule="evenodd" d="M20.3978 55.6121C20.5158 55.5976 20.5688 55.6401 20.5569 55.7393C20.2246 55.9748 19.8534 56.0702 19.4431 56.0255C19.761 55.8748 20.0792 55.737 20.3978 55.6121Z" fill="#ECF8EF"/>
<path fill-rule="evenodd" clip-rule="evenodd" d="M40.3819 55.6123C40.5436 55.6837 40.5436 55.7685 40.3819 55.8667C40.3317 55.7904 40.3317 55.7056 40.3819 55.6123Z" fill="#D5EFDB"/>
<path fill-rule="evenodd" clip-rule="evenodd" d="M12.8879 56.3115C13.0933 56.3227 13.2842 56.3651 13.4607 56.4387C13.2489 56.4568 13.0579 56.4144 12.8879 56.3115Z" fill="#A3DDB0"/>
<path fill-rule="evenodd" clip-rule="evenodd" d="M62.7843 57.0747C62.7735 57.2249 62.7518 57.3732 62.7207 57.5199C62.6475 57.3639 62.6691 57.2154 62.7843 57.0747Z" fill="#96D126"/>
<path fill-rule="evenodd" clip-rule="evenodd" d="M33.6357 58.4103C33.6249 58.5604 33.6033 58.7088 33.5721 58.8554C33.5212 59.2756 33.3513 59.6359 33.063 59.9365C33.0451 59.4078 33.1514 58.899 33.3812 58.4103C33.4741 58.3287 33.5587 58.3287 33.6357 58.4103Z" fill="#EEF8F0"/>
<path fill-rule="evenodd" clip-rule="evenodd" d="M33.6357 58.4102C33.7229 58.5699 33.7012 58.7183 33.572 58.8553C33.6032 58.7087 33.6248 58.5603 33.6357 58.4102Z" fill="#8BD39B"/>
<path fill-rule="evenodd" clip-rule="evenodd" d="M39.8091 59.0461C39.8842 59.0322 39.9478 59.0534 40 59.1097C39.9014 59.1923 39.8377 59.1711 39.8091 59.0461Z" fill="#DAF1DF"/>
<path fill-rule="evenodd" clip-rule="evenodd" d="M48.4009 59.3007C48.5148 59.2826 48.6204 59.3038 48.7191 59.3643C48.4849 59.5548 48.2303 59.7244 47.9553 59.873C47.8974 59.791 47.9083 59.7062 47.9872 59.6187C48.1017 59.4707 48.2398 59.3648 48.4009 59.3007Z" fill="#E3F5E7"/>
<path fill-rule="evenodd" clip-rule="evenodd" d="M65.9665 59.6818C65.8087 59.7371 65.6387 59.7795 65.4574 59.809C65.3988 59.8063 65.3568 59.7851 65.3301 59.7454C65.5395 59.7005 65.7514 59.6793 65.9665 59.6818Z" fill="#9BD325"/>
<path fill-rule="evenodd" clip-rule="evenodd" d="M66.6668 60.3181C66.8208 60.2985 66.9697 60.3197 67.1123 60.3817C67.2218 60.6432 67.1371 60.7386 66.8577 60.6678C66.7234 60.5875 66.6598 60.4709 66.6668 60.3181Z" fill="#EAF7EC"/>
<path fill-rule="evenodd" clip-rule="evenodd" d="M16.9609 60.3179C17.0246 60.3179 17.0882 60.3179 17.1519 60.3179C17.1647 60.4762 17.1329 60.6246 17.0564 60.763C16.6677 61.1752 16.2329 61.5039 15.7517 61.7487C16.1443 61.261 16.5474 60.7843 16.9609 60.3179Z" fill="#EAF7ED"/>
<path fill-rule="evenodd" clip-rule="evenodd" d="M14.4152 60.4453C14.5424 60.4453 14.6697 60.4453 14.797 60.4453C14.7071 60.7597 14.5692 61.0565 14.3833 61.3356C14.3127 61.4335 14.2172 61.4755 14.0969 61.4628C14.0864 61.2287 14.097 60.9955 14.1288 60.7633C14.194 60.6242 14.2895 60.5182 14.4152 60.4453Z" fill="#EFF9F1"/>
<path fill-rule="evenodd" clip-rule="evenodd" d="M10.5966 61.3354C10.7239 61.3354 10.8512 61.3354 10.9785 61.3354C10.9408 61.5027 10.9196 61.6719 10.9149 61.8442C10.5527 61.8416 10.4467 61.6725 10.5966 61.3354Z" fill="#F3FAF5"/>
<path fill-rule="evenodd" clip-rule="evenodd" d="M46.3006 62.6074C46.4343 62.5883 46.5616 62.6093 46.6825 62.671C46.5552 62.8141 46.3961 62.8993 46.2052 62.9254C46.0995 62.9324 46.0251 62.8904 45.9824 62.7982C46.0747 62.7072 46.1804 62.6436 46.3006 62.6074Z" fill="#DAF1DE"/>
<path fill-rule="evenodd" clip-rule="evenodd" d="M36.9452 62.7979C37.1476 62.7775 37.222 62.8621 37.1679 63.0523C37.0597 63.1101 36.9433 63.1311 36.8179 63.1158C36.8109 62.988 36.8535 62.8818 36.9452 62.7979Z" fill="#E5F5E8"/>
<path fill-rule="evenodd" clip-rule="evenodd" d="M14.8608 63.1797C15.2587 63.3202 15.2374 63.4474 14.7971 63.5612C14.7982 63.4302 14.8194 63.3031 14.8608 63.1797Z" fill="#DAF1DF"/>
<path fill-rule="evenodd" clip-rule="evenodd" d="M43.373 63.4978C43.6295 63.4838 43.6715 63.5582 43.5003 63.7203C43.2177 63.7909 42.9632 63.9181 42.7366 64.1019C42.3789 64.1286 42.3363 64.023 42.6093 63.7839C42.8677 63.6879 43.1223 63.5925 43.373 63.4978Z" fill="#E3F4E7"/>
<path fill-rule="evenodd" clip-rule="evenodd" d="M33.381 63.6885C33.5834 63.6682 33.6578 63.7527 33.6037 63.9429C33.4669 64.1438 33.2868 64.292 33.0628 64.388C32.994 64.3333 32.9832 64.2697 33.0309 64.1973C33.1328 64.0147 33.2492 63.8449 33.381 63.6885Z" fill="#E8F6EB"/>
<path fill-rule="evenodd" clip-rule="evenodd" d="M21.416 64.5151C21.4829 64.5055 21.5466 64.5164 21.6069 64.5469C21.4221 64.8534 21.3585 64.8432 21.416 64.5151Z" fill="#B6E3BF"/>
<path fill-rule="evenodd" clip-rule="evenodd" d="M51.0104 65.0237C51.0855 65.0097 51.1491 65.0307 51.2013 65.0873C51.032 65.3938 50.7991 65.638 50.5012 65.8186C50.4287 65.8663 50.365 65.8555 50.3103 65.7868C50.5019 65.4899 50.7354 65.2355 51.0104 65.0237Z" fill="#E4F5E8"/>
<path fill-rule="evenodd" clip-rule="evenodd" d="M61.7662 65.0875C61.8299 65.0856 61.8719 65.1174 61.8935 65.1829C61.8458 65.4328 61.6968 65.5492 61.448 65.5326C61.5263 65.3686 61.6326 65.2204 61.7662 65.0875Z" fill="#E2F4E6"/>
<path fill-rule="evenodd" clip-rule="evenodd" d="M20.9707 65.2146C21.0264 65.2064 21.0689 65.2274 21.098 65.2782C20.8384 65.6216 20.796 65.6007 20.9707 65.2146Z" fill="#D8F0DD"/>
<path fill-rule="evenodd" clip-rule="evenodd" d="M10.4695 65.6597C10.6628 65.7621 10.8431 65.8892 11.0105 66.0412C11.2416 66.3357 11.4962 66.6117 11.7742 66.8679C11.8049 66.9283 11.8155 66.9919 11.806 67.0587C11.5491 67.0256 11.3476 66.8985 11.2014 66.6772C10.9892 66.3077 10.7453 65.9681 10.4695 65.6597Z" fill="#E4F5E7"/>
<path fill-rule="evenodd" clip-rule="evenodd" d="M65.4574 65.7871C65.5637 65.7871 65.6693 65.7871 65.7756 65.7871C65.6216 66.1757 65.367 66.4936 65.0119 66.741C64.9909 66.72 64.9692 66.6984 64.9482 66.6774C65.1188 66.3792 65.2887 66.0822 65.4574 65.7871Z" fill="#EAF7ED"/>
<path fill-rule="evenodd" clip-rule="evenodd" d="M39.3637 65.7234C39.4388 65.7094 39.5024 65.7304 39.5546 65.787C39.2186 66.0191 38.8577 66.1781 38.4727 66.264C38.7463 66.0325 39.0429 65.8525 39.3637 65.7234Z" fill="#DAF1DF"/>
<path fill-rule="evenodd" clip-rule="evenodd" d="M52.9832 66.7407C53.0679 66.7407 53.1531 66.7407 53.2378 66.7407C53.2162 66.9328 53.1417 67.1019 53.015 67.2495C52.7363 67.549 52.4397 67.825 52.124 68.0762C52.0922 68.0552 52.0604 68.0336 52.0286 68.0126C52.2583 67.5096 52.5765 67.086 52.9832 66.7407Z" fill="#EDF8EF"/>
<path fill-rule="evenodd" clip-rule="evenodd" d="M21.6071 67.186C21.741 67.1669 21.8683 67.1879 21.9889 67.2496C21.7808 67.6057 21.5262 67.9237 21.2252 68.2035C21.1117 68.1494 21.0799 68.0649 21.1297 67.9491C21.2418 67.661 21.4009 67.4067 21.6071 67.186Z" fill="#F3FAF5"/>
<path fill-rule="evenodd" clip-rule="evenodd" d="M18.2976 67.8218C18.7576 67.9324 19.0016 68.2294 19.0295 68.7121C19.1199 68.8717 19.226 69.0199 19.3477 69.1572C19.3864 69.4141 19.3757 69.6685 19.3159 69.9203C19.1956 69.9331 19.1002 69.8911 19.0295 69.7932C18.8546 69.4644 18.6637 69.1464 18.4567 68.8393C18.3888 68.5016 18.3357 68.1626 18.2976 67.8218Z" fill="#F3FAF4"/>
<path fill-rule="evenodd" clip-rule="evenodd" d="M42.3549 68.0765C42.4109 68.0682 42.4529 68.0892 42.4822 68.1401C42.4281 68.3639 42.3008 68.5331 42.1004 68.6488C42.0316 68.5941 42.0208 68.5305 42.0685 68.458C42.1532 68.3207 42.2486 68.1935 42.3549 68.0765Z" fill="#DDF2E1"/>
<path fill-rule="evenodd" clip-rule="evenodd" d="M53.8743 68.394C53.938 68.394 54.0016 68.394 54.0653 68.394C53.9876 68.684 53.7967 68.8748 53.4925 68.9664C53.4345 68.8843 53.4454 68.7998 53.5243 68.712C53.6637 68.6274 53.7801 68.5212 53.8743 68.394Z" fill="#E4F5E7"/>
<path fill-rule="evenodd" clip-rule="evenodd" d="M16.4518 68.8396C16.5599 68.8295 16.666 68.8403 16.77 68.8714C16.8848 69.0349 16.9697 69.2148 17.0245 69.412C16.7057 69.4425 16.4723 69.3051 16.3245 68.9986C16.3598 68.9344 16.4022 68.8816 16.4518 68.8396Z" fill="#EEF9F0"/>
<path fill-rule="evenodd" clip-rule="evenodd" d="M66.1575 68.8396C66.3904 68.8351 66.4331 68.8987 66.2848 69.0304C66.1944 68.9986 66.1518 68.935 66.1575 68.8396Z" fill="#F1FAF3"/>
<path fill-rule="evenodd" clip-rule="evenodd" d="M33.572 70.3021C33.5084 70.3021 33.4447 70.3021 33.3811 70.3021C33.3811 70.2176 33.3811 70.1323 33.3811 70.0478C33.4473 69.885 33.5536 69.7476 33.6993 69.6344C33.8692 69.5072 34.0385 69.38 34.2085 69.2528C34.4637 69.1784 34.7183 69.1047 34.9722 69.0303C35.074 69.064 35.1058 69.1276 35.0677 69.2211C34.6292 69.6707 34.1308 70.0312 33.572 70.3021Z" fill="#F1FAF3"/>
<path fill-rule="evenodd" clip-rule="evenodd" d="M37.3906 69.0938C37.4848 69.0773 37.5695 69.0983 37.6452 69.1574C37.3817 69.7177 36.9999 70.1838 36.4996 70.5565C36.4271 70.4344 36.4162 70.3072 36.4678 70.1749C36.5435 70.0554 36.6072 69.9282 36.6587 69.7934C36.8929 69.5492 37.1367 69.3158 37.3906 69.0938Z" fill="#EEF8F0"/>
<path fill-rule="evenodd" clip-rule="evenodd" d="M58.0111 69.2848C58.1052 69.2682 58.1899 69.2892 58.2656 69.3483C58.0448 69.7706 57.7266 70.0994 57.311 70.334C57.2263 70.3766 57.141 70.3766 57.0564 70.334C57.3644 69.9735 57.6826 69.6237 58.0111 69.2848Z" fill="#EFF9F1"/>
<path fill-rule="evenodd" clip-rule="evenodd" d="M20.7796 69.4755C20.8466 69.466 20.9102 69.4768 20.9706 69.5073C21.0898 69.6479 21.2277 69.7642 21.3842 69.8571C21.4901 70.0345 21.5007 70.2145 21.4161 70.3976C21.3242 70.4472 21.2393 70.4364 21.1615 70.3658C21.0448 70.1751 20.9281 69.9843 20.8114 69.7935C20.78 69.6898 20.7694 69.5836 20.7796 69.4755Z" fill="#EFF9F1"/>
<path fill-rule="evenodd" clip-rule="evenodd" d="M45.0915 69.4756C45.1761 69.4756 45.2614 69.4756 45.3461 69.4756C45.3461 69.5602 45.3461 69.6454 45.3461 69.73C45.1087 69.7859 44.8757 69.8393 44.646 69.8889C44.7994 69.7503 44.9477 69.6123 45.0915 69.4756Z" fill="#D9F1DE"/>
<path fill-rule="evenodd" clip-rule="evenodd" d="M61.0024 69.7299C61.1201 69.7152 61.1736 69.7578 61.1615 69.857C60.6091 70.4027 60.0045 70.8796 59.3477 71.2879C59.2751 71.3356 59.2115 71.3248 59.1567 71.2561C59.7384 70.7016 60.3539 70.1928 61.0024 69.7299Z" fill="#E8F6EB"/>
<path fill-rule="evenodd" clip-rule="evenodd" d="M33.3811 70.0479C33.3811 70.1324 33.3811 70.2176 33.3811 70.3022C33.4447 70.3022 33.5083 70.3022 33.572 70.3022C33.5039 70.3614 33.4192 70.383 33.3174 70.3658C33.2996 70.2444 33.3206 70.1382 33.3811 70.0479Z" fill="#95D7A4"/>
<path fill-rule="evenodd" clip-rule="evenodd" d="M29.8171 70.7471C30.052 70.7948 30.052 70.8793 29.8171 71.0014C29.7452 70.9181 29.7452 70.8336 29.8171 70.7471Z" fill="#E4F5E8"/>
<path fill-rule="evenodd" clip-rule="evenodd" d="M15.8154 71.3833C15.96 71.3032 16.1085 71.3133 16.2609 71.4151C16.4211 71.5645 16.5696 71.7235 16.7064 71.892C16.6745 71.9569 16.6321 71.9677 16.5792 71.9238C16.3115 71.7585 16.057 71.5785 15.8154 71.3833Z" fill="#E8F6EB"/>
<path fill-rule="evenodd" clip-rule="evenodd" d="M48.401 73.0366C48.4856 73.0366 48.5709 73.0366 48.6556 73.0366C48.6556 73.27 48.6556 73.5028 48.6556 73.7361C48.3946 73.6751 48.1401 73.5905 47.8918 73.4818C48.0395 73.3031 48.2094 73.1543 48.401 73.0366Z" fill="#F3FAF4"/>
<path fill-rule="evenodd" clip-rule="evenodd" d="M59.7296 73.1636C59.8995 73.1636 60.0688 73.1636 60.2387 73.1636C60.2495 73.2475 60.2285 73.3219 60.1751 73.3861C59.5749 73.6564 58.9703 73.9 58.3612 74.1175C58.281 74.0952 58.26 74.0526 58.2976 73.9903C58.393 73.8949 58.4885 73.7995 58.584 73.7041C58.9627 73.5044 59.3445 73.3238 59.7296 73.1636Z" fill="#EFF9F1"/>
<path fill-rule="evenodd" clip-rule="evenodd" d="M27.0167 73.3545C27.2675 73.3634 27.4794 73.4588 27.6532 73.6407C27.594 73.7036 27.5195 73.7354 27.4304 73.7361C27.2917 73.7093 27.1536 73.6775 27.0167 73.6407C26.9384 73.5459 26.9384 73.4505 27.0167 73.3545Z" fill="#F1FAF3"/>
<path fill-rule="evenodd" clip-rule="evenodd" d="M30.1353 75.7713C30.2727 75.7471 30.379 75.7891 30.4535 75.8984C30.3548 75.9589 30.2492 75.9805 30.1353 75.962C30.1353 75.8984 30.1353 75.8349 30.1353 75.7713Z" fill="#E8F6EB"/>
<path fill-rule="evenodd" clip-rule="evenodd" d="M46.8098 76.7251C46.8735 76.7251 46.9371 76.7251 47.0008 76.7251C46.8385 77.2033 46.4993 77.4367 45.9825 77.4246C45.9685 77.3496 45.9895 77.286 46.0461 77.2338C46.3204 77.0857 46.575 76.9159 46.8098 76.7251Z" fill="#EFF9F1"/>
<path fill-rule="evenodd" clip-rule="evenodd" d="M34.845 77.1064C34.9723 77.1064 35.0996 77.1064 35.2268 77.1064C35.2447 77.315 35.2237 77.516 35.1632 77.7106C34.6108 77.923 34.038 78.0394 33.4448 78.0603C33.4448 77.9967 33.4448 77.9332 33.4448 77.8696C33.9883 77.7456 34.4555 77.4912 34.845 77.1064Z" fill="#F3FAF5"/>
<path fill-rule="evenodd" clip-rule="evenodd" d="M43.3731 78.3784C43.6417 78.3517 43.8963 78.3936 44.1368 78.5056C42.8722 78.9539 41.5675 79.1657 40.2228 79.1415C40.1171 79.1485 40.0426 79.1065 40 79.0143C41.1354 78.8172 42.2593 78.6054 43.3731 78.3784Z" fill="#EEF8F0"/>
</g>
<defs>
<clipPath id="clip0_4623_23156">
<rect width="80" height="80" fill="white"/>
</clipPath>
</defs>
</svg>
