<svg width="552" height="80" viewBox="0 0 552 80" fill="none" xmlns="http://www.w3.org/2000/svg">
<path opacity="0.987" fill-rule="evenodd" clip-rule="evenodd" d="M3.93311 1.26669C3.93311 1.22229 3.93311 1.17775 3.93311 1.13335C6.16337 1.11109 8.39319 1.13335 10.6226 1.20002C23.6946 14.0947 36.7166 27.028 49.689 40C36.6757 52.88 23.6535 65.7693 10.6226 78.6667C8.39319 78.7333 6.16337 78.756 3.93311 78.7333C3.93311 78.6893 3.93311 78.644 3.93311 78.6C16.9766 65.712 30.0434 52.8453 43.1333 40C30.077 27.0547 17.0103 14.144 3.93311 1.26669Z" fill="#E21927"/>
<path opacity="0.987" fill-rule="evenodd" clip-rule="evenodd" d="M14.9038 1.26672C17.1106 1.11179 19.3405 1.08966 21.5933 1.20006C34.6653 14.0947 47.6873 27.0281 60.6597 40.0001C47.6404 52.8854 34.6183 65.7747 21.5933 78.6667C19.3634 78.7561 17.1336 78.7561 14.9038 78.6667C27.9259 65.7774 40.9481 52.8894 53.9702 40.0001C40.9321 27.1174 27.9098 14.2067 14.9038 1.26672Z" fill="#E21927"/>
<path opacity="0.987" fill-rule="evenodd" clip-rule="evenodd" d="M25.7407 1.26672C27.9476 1.11179 30.1774 1.08966 32.4302 1.20006C45.4763 14.0907 58.4986 27.0014 71.4966 39.9334C58.4986 52.8654 45.4763 65.7761 32.4302 78.6667C30.2003 78.7561 27.9706 78.7561 25.7407 78.6667C38.7666 65.7294 51.8333 52.8414 64.9409 40.0001C51.8882 27.0587 38.8215 14.1467 25.7407 1.26672Z" fill="#E21927"/>
<path opacity="0.987" fill-rule="evenodd" clip-rule="evenodd" d="M36.7114 1.26672C38.9183 1.11179 41.1481 1.08966 43.4009 1.20006C56.4639 14.0854 69.4861 27.0187 82.4673 40.0001C69.4452 52.8894 56.423 65.7774 43.4009 78.6667C41.171 78.7561 38.9413 78.7561 36.7114 78.6667C49.7167 65.7721 62.7389 52.9054 75.7778 40.0667C62.842 27.0414 49.8198 14.1081 36.7114 1.26672Z" fill="#E21927"/>
<path opacity="0.987" fill-rule="evenodd" clip-rule="evenodd" d="M47.6821 1.26672C49.8443 1.11179 52.0296 1.08966 54.2378 1.20006C58.9034 5.89432 63.6084 10.5387 68.3525 15.1334C73.0762 10.537 77.7812 5.91472 82.4673 1.26672C84.6911 1.11312 86.921 1.09099 89.1567 1.20006C83.3593 6.97779 77.5616 12.7557 71.7642 18.5334C72.4554 19.2227 73.1466 19.9107 73.8379 20.6001C80.4085 14.1854 86.942 7.71846 93.438 1.20006C95.6679 1.11112 97.8976 1.11112 100.127 1.20006C92.5647 8.78152 84.961 16.3147 77.3164 23.8001C77.8235 24.5961 78.4701 25.3081 79.2563 25.9334C87.6608 17.7134 96.045 9.46859 104.409 1.20006C106.639 1.11112 108.868 1.11112 111.098 1.20006C101.599 10.5778 92.1001 19.9561 82.6011 29.3334C83.2924 30.0227 83.9835 30.7107 84.6748 31.4001C94.8687 21.3294 105.059 11.2631 115.246 1.20006C117.475 1.11112 119.705 1.11112 121.935 1.20006C110.693 12.4482 99.4102 23.6481 88.0864 34.8001C88.6944 35.4507 89.3411 36.0507 90.0264 36.6001C102.036 24.8974 113.966 13.0981 125.815 1.20006C128.045 1.11112 130.275 1.11112 132.504 1.20006C106.865 26.5294 81.2668 51.9081 55.7095 77.3334C55.1789 77.7281 54.6883 78.1734 54.2378 78.6667C52.0526 78.7561 49.8673 78.7561 47.6821 78.6667C60.7283 65.7761 73.7505 52.8654 86.7485 39.9334C73.7717 27.0014 60.7496 14.1121 47.6821 1.26672Z" fill="#E31927"/>
<path opacity="0.993" fill-rule="evenodd" clip-rule="evenodd" d="M204.349 9.39991C216.068 9.00564 225.232 13.5839 231.843 23.1332C237.553 32.0906 238.356 41.4692 234.251 51.2666C229.421 61.7239 221.283 67.7466 209.834 69.3332C193.326 70.1626 182.556 62.7626 177.524 47.1332C175.128 36.9999 177.179 27.8892 183.679 19.7999C189.235 13.7306 196.125 10.2642 204.349 9.39991ZM205.419 19.9332C213.971 19.7812 220.192 23.4706 224.083 30.9999C227.6 40.1092 225.794 47.9986 218.665 54.6666C210.92 60.4626 203.071 60.5959 195.118 55.0666C188.756 50.0026 186.235 43.4479 187.559 35.3999C189.655 27.6666 194.583 22.7106 202.342 20.5332C203.381 20.3026 204.407 20.1026 205.419 19.9332Z" fill="#100F0F"/>
<path opacity="0.993" fill-rule="evenodd" clip-rule="evenodd" d="M297.466 9.40008C310.456 9.05981 320.156 14.4827 326.565 25.6667C331.464 35.2294 331.286 44.6961 326.03 54.0667C319.532 64.9841 309.877 70.0734 297.065 69.3334C284.802 68.0401 276.395 61.7067 271.846 50.3334C267.936 39.3574 269.542 29.2681 276.662 20.0667C282.224 13.8841 289.158 10.3287 297.466 9.40008ZM298.804 19.9334C305.412 19.7187 310.831 22.1187 315.06 27.1334C320.124 34.2747 320.57 41.6974 316.398 49.4001C313.613 53.9947 309.622 57.0387 304.423 58.5334C296.753 59.9227 290.309 57.7227 285.091 51.9334C280.543 46.2067 279.383 39.8507 281.612 32.8667C283.602 27.6841 287.147 23.9734 292.249 21.7334C294.365 20.8174 296.55 20.2174 298.804 19.9334Z" fill="#100F0F"/>
<path opacity="0.992" fill-rule="evenodd" clip-rule="evenodd" d="M136.25 10.4666C140.22 10.4222 144.19 10.4666 148.158 10.5999C152.308 19.2266 156.455 27.8479 160.6 36.4666C164.849 27.8653 169.064 19.2426 173.243 10.5999C177.181 10.445 181.127 10.4229 185.083 10.5333C178.773 22.5999 172.463 34.6666 166.152 46.7333C166.085 53.8439 166.063 60.9559 166.085 68.0666C162.473 68.0666 158.861 68.0666 155.249 68.0666C155.271 60.9559 155.249 53.8439 155.182 46.7333C148.833 34.6586 142.524 22.5693 136.25 10.4666Z" fill="#100F0F"/>
<path opacity="0.991" fill-rule="evenodd" clip-rule="evenodd" d="M238.599 10.4666C242.211 10.4666 245.824 10.4666 249.436 10.4666C249.413 18.7333 249.436 27 249.503 35.2666C255.412 27.044 261.321 18.8226 267.23 10.6C271.555 10.4444 275.881 10.4222 280.208 10.5333C272.939 19.9106 265.669 29.2893 258.4 38.6666C265.702 48.4213 272.971 58.1986 280.208 68C275.881 68.1106 271.555 68.0893 267.23 67.9333C261.295 59.6853 255.386 51.4186 249.503 43.1333C249.436 51.444 249.413 59.756 249.436 68.0666C245.824 68.0666 242.211 68.0666 238.599 68.0666C238.599 48.8666 238.599 29.6666 238.599 10.4666Z" fill="#100F0F"/>
<path opacity="0.99" fill-rule="evenodd" clip-rule="evenodd" d="M331.85 10.4668C335.462 10.4668 339.075 10.4668 342.687 10.4668C342.687 18.1561 342.687 25.8441 342.687 33.5335C349.554 33.5335 356.423 33.5335 363.291 33.5335C363.291 25.8441 363.291 18.1561 363.291 10.4668C366.859 10.4668 370.425 10.4668 373.994 10.4668C373.994 29.6668 373.994 48.8668 373.994 68.0668C370.425 68.0668 366.859 68.0668 363.291 68.0668C363.291 60.0228 363.291 51.9775 363.291 43.9335C356.423 43.9335 349.554 43.9335 342.687 43.9335C342.687 51.9775 342.687 60.0228 342.687 68.0668C339.075 68.0668 335.462 68.0668 331.85 68.0668C331.85 48.8668 331.85 29.6668 331.85 10.4668Z" fill="#100F0F"/>
<path opacity="0.993" fill-rule="evenodd" clip-rule="evenodd" d="M399.414 10.4666C402.255 10.423 405.088 10.4674 407.909 10.6C415.986 29.7426 424.08 48.876 432.192 68C428.268 68.0893 424.342 68.0893 420.418 68C418.349 63.1 416.252 58.2106 414.13 53.3333C407.307 53.244 400.484 53.244 393.661 53.3333C391.473 58.2093 389.377 63.12 387.373 68.0666C383.403 68.0893 379.434 68.0666 375.465 68C383.467 48.8293 391.45 29.6506 399.414 10.4666ZM403.561 25.8C405.671 31.44 407.678 37.1293 409.582 42.8666C405.567 42.9106 401.553 42.8666 397.541 42.7333C399.522 37.0746 401.529 31.4306 403.561 25.8Z" fill="#100F0F"/>
<path opacity="0.991" fill-rule="evenodd" clip-rule="evenodd" d="M432.995 10.4666C437.887 10.4226 442.771 10.4671 447.645 10.5999C452.773 25.1333 457.902 39.6666 463.03 54.1999C468.264 39.6866 473.459 25.1533 478.617 10.5999C483.566 10.4666 488.516 10.4222 493.467 10.4666C493.467 29.6666 493.467 48.8666 493.467 68.0666C489.855 68.0666 486.243 68.0666 482.63 68.0666C482.653 53.7999 482.63 39.5333 482.563 25.2666C477.595 39.5226 472.667 53.7893 467.78 68.0666C464.701 68.1106 461.624 68.0666 458.548 67.9333C453.634 53.7066 448.705 39.4839 443.765 25.2666C443.698 39.5333 443.675 53.7999 443.698 68.0666C440.13 68.0666 436.563 68.0666 432.995 68.0666C432.995 48.8666 432.995 29.6666 432.995 10.4666Z" fill="#100F0F"/>
<path opacity="0.993" fill-rule="evenodd" clip-rule="evenodd" d="M551.933 67.7999C551.933 67.8893 551.933 67.9773 551.933 68.0666C548.008 68.1106 544.084 68.0666 540.16 67.9333C538.109 63.0893 536.056 58.2439 534.005 53.3999C527.138 53.2226 520.269 53.2226 513.402 53.3999C511.28 58.2333 509.183 63.0773 507.114 67.9333C503.19 68.1106 499.264 68.1106 495.34 67.9333C503.318 48.7893 511.256 29.6333 519.155 10.4666C522.01 10.4222 524.865 10.4666 527.717 10.5999C535.759 29.6933 543.831 48.7599 551.933 67.7999ZM523.302 25.7999C523.385 25.8146 523.452 25.8586 523.503 25.9333C525.448 31.5479 527.432 37.1479 529.457 42.7333C525.399 42.8893 521.341 42.9106 517.282 42.7999C519.355 37.1573 521.362 31.4906 523.302 25.7999Z" fill="#100F0F"/>
</svg>
