<svg width="80" height="80" viewBox="0 0 80 80" fill="none" xmlns="http://www.w3.org/2000/svg">
<g clip-path="url(#clip0_4623_8257)">
<path fill-rule="evenodd" clip-rule="evenodd" d="M37.821 55.6705H36.1606V32.1991L28.3687 1.17627H39.7377L37.8215 32.0709V55.6705H37.821ZM32.3285 55.6705H30.668V32.1991L15.4666 1.17627H27.4743L32.3285 32.0709V55.6705ZM26.5799 55.6705H22.3648V32.1991L2.4375 1.17627H14.4452L26.5803 32.0709V55.6705H26.5799ZM42.1648 55.6705H43.8249V32.1991L51.6172 1.17627H40.2482L42.1648 32.0709V55.6705ZM47.6574 55.6705H49.3175V32.1991L64.5189 1.17627H52.5111L47.6574 32.0709V55.6705ZM53.4055 55.6705H57.6206V32.1991L77.548 1.17627H65.5403L53.4055 32.0709V55.6705Z" fill="#CC2229"/>
<path fill-rule="evenodd" clip-rule="evenodd" d="M8.11515 78.3927V72.5499L2.76782 62.8905H6.54134L9.79687 69.6389L12.8153 62.8905H16.5237L11.349 72.5706V78.3923H8.11515V78.3927ZM18.3781 73.2609V62.8909H21.6768V72.9596C21.6768 74.0669 21.9535 74.8646 22.5072 75.3526C23.0605 75.8424 23.7104 76.0864 24.4583 76.0864C26.5281 76.0864 27.5632 75.087 27.5632 73.0894V62.8913H30.8834V73.0894C30.8834 76.9132 28.7779 78.8244 24.5662 78.8244C22.8413 78.7953 21.3787 78.3429 20.1785 77.466C18.9782 76.5882 18.3781 75.1874 18.3781 73.2609ZM32.8453 78.3927L38.3432 62.8905H42.0951L47.5714 78.3927H44.0354L43.065 75.202H37.3516L36.2519 78.3927H32.8453ZM40.1544 66.3826L38.1921 72.5495H42.1374L40.1976 66.3826H40.1544ZM48.8435 73.6278H51.97C51.9845 74.4757 52.2829 75.1048 52.8647 75.5141C53.4466 75.9242 54.1692 76.1283 55.0317 76.1283C57.2737 76.1283 58.4096 75.4963 58.4386 74.2308C58.4818 73.6132 58.2839 73.182 57.8451 72.9372C57.4065 72.6931 56.6698 72.4491 55.6355 72.2042C55.0317 72.0316 54.5356 71.9174 54.1472 71.8597C52.4945 71.529 51.2266 71.0296 50.3422 70.361C49.4586 69.6924 49.0452 68.6328 49.102 67.1803C49.1457 65.7148 49.6661 64.5651 50.6659 63.7309C51.6645 62.8966 53.0914 62.48 54.9457 62.48C57.1018 62.48 58.6503 62.9834 59.592 63.9894C60.5333 64.9955 61.0326 66.1601 61.0898 67.4823H57.9854C57.8418 65.887 56.764 65.1179 54.7511 65.1752C53.0408 65.2329 52.1497 65.8223 52.0779 66.9433C52.0779 67.748 52.4871 68.28 53.3068 68.5387C53.9106 68.683 54.6004 68.8516 55.3761 69.0462C56.1527 69.2401 56.6992 69.3803 57.0151 69.4662C58.1506 69.7538 59.0309 70.0481 59.6567 70.3507C60.2818 70.6524 60.7558 71.0728 61.0795 71.612C61.4032 72.151 61.5651 72.8657 61.5651 73.7568C61.5788 75.151 61.2094 76.2217 60.4544 76.9701C59.6999 77.7166 58.8699 78.2126 57.9643 78.4575C57.0579 78.7015 56.2821 78.824 55.6355 78.824C51.2225 78.7808 48.9585 77.0488 48.8435 73.6278ZM62.8367 78.3927L68.3342 62.8905H72.0858L77.5629 78.3927H74.0264L73.0569 75.202H67.3432L66.2433 78.3927H62.8367ZM70.1463 66.3826L68.1836 72.5495H72.1297L70.189 66.3826H70.1463Z" fill="black"/>
</g>
<defs>
<clipPath id="clip0_4623_8257">
<rect width="80" height="80" fill="white"/>
</clipPath>
</defs>
</svg>
