<svg width="20" height="21" viewBox="0 0 20 21" fill="none" xmlns="http://www.w3.org/2000/svg">
<path d="M6.12602 12.7331C6.57006 14.4584 8.13616 15.7331 10 15.7331C11.8638 15.7331 13.4299 14.4584 13.874 12.7331M9.0177 1.49715L2.23539 6.77228C1.78202 7.1249 1.55534 7.30121 1.39203 7.52201C1.24737 7.7176 1.1396 7.93794 1.07403 8.17221C1 8.43667 1 8.72385 1 9.29821V16.5331C1 17.6532 1 18.2133 1.21799 18.6411C1.40973 19.0174 1.71569 19.3234 2.09202 19.5152C2.51984 19.7331 3.07989 19.7331 4.2 19.7331H15.8C16.9201 19.7331 17.4802 19.7331 17.908 19.5152C18.2843 19.3234 18.5903 19.0174 18.782 18.6411C19 18.2133 19 17.6532 19 16.5331V9.29821C19 8.72385 19 8.43667 18.926 8.17221C18.8604 7.93794 18.7526 7.7176 18.608 7.52201C18.4447 7.30121 18.218 7.1249 17.7646 6.77228L10.9823 1.49715C10.631 1.2239 10.4553 1.08727 10.2613 1.03476C10.0902 0.988415 9.9098 0.988415 9.73865 1.03476C9.54468 1.08727 9.36902 1.2239 9.0177 1.49715Z" stroke="#B1BDBD" stroke-width="2" stroke-linecap="round" stroke-linejoin="round"/>
</svg>
