<svg width="24" height="24" viewBox="0 0 24 24" fill="none" xmlns="http://www.w3.org/2000/svg">
<g clip-path="url(#clip0_4128_9220)">
<path d="M11.9219 23.9998C11.2359 23.9998 10.5468 24.006 9.86069 23.9998C6.75502 23.9631 4.92654 22.2387 4.70908 19.1331C4.67845 18.6767 4.7152 18.2173 4.70908 17.7579C4.69376 15.8712 4.93572 13.957 3.30326 12.447C2.73971 11.9263 2.0904 10.8605 2.98473 10.2724C4.08121 9.54655 4.4028 10.8237 4.98779 11.4822C6.55288 13.2403 7.20219 15.225 6.93879 17.5527C6.86222 18.2296 6.89285 18.9309 6.96635 19.6109C7.15012 21.3567 7.85762 22.009 9.61566 22.0427C11.2175 22.0734 12.8224 22.0795 14.4273 22.0427C16.1578 21.9998 16.9173 21.3138 17.0827 19.5772C17.1838 18.5175 17.1654 17.4394 17.1226 16.3735C17.0644 14.9493 17.3094 13.6783 18.3293 12.5726C18.8806 11.9753 19.1869 11.1545 19.6677 10.4807C20.0291 9.97228 20.6141 9.94778 21.1042 10.2326C21.5881 10.5083 21.4932 11.0351 21.3002 11.4577C21.0154 12.0764 20.7826 12.7962 20.3109 13.2372C19.2757 14.202 19.3339 15.3842 19.3308 16.6002C19.3247 18.2663 19.4595 19.9172 18.6049 21.5067C17.7749 23.0473 16.7397 24.0366 14.9051 23.9876C13.9128 23.96 12.9204 23.9815 11.9281 23.9815C11.9281 23.9876 11.9281 23.9968 11.9281 24.0029L11.9219 23.9998Z" fill="#002D36"/>
<path d="M6.97867 6.17449C6.9266 6.93406 6.91742 7.69976 6.81022 8.4532C6.73977 8.93712 6.41512 9.26178 5.85769 9.25871C5.33089 9.25565 4.88985 8.99225 4.84085 8.51446C4.60807 6.23881 4.31711 3.92947 5.73212 1.88659C6.06596 1.40267 6.5652 1.09026 7.18694 0.863616C10.4856 -0.352311 13.7536 -0.232862 17.0216 0.91262C18.3232 1.36898 18.8194 2.50833 19.1349 3.69669C19.53 5.19133 19.3033 6.73804 19.2574 8.25718C19.239 8.82686 18.8653 9.23728 18.2099 9.25259C17.5147 9.27097 17.2421 8.79317 17.1992 8.24187C17.1196 7.17602 17.1379 6.10404 17.1165 5.03513C17.0767 3.19746 16.9205 3.02594 15.1686 2.4777C13.0614 1.81921 10.9725 1.83146 8.86841 2.48383C7.08587 3.03513 6.96336 3.16071 6.9266 5.02901C6.91742 5.41185 6.9266 5.7947 6.9266 6.17755C6.94498 6.17755 6.9603 6.17755 6.97867 6.18061V6.17449Z" fill="#002D36"/>
<path d="M11.8883 16.2144C10.8592 16.389 9.95568 15.8561 8.99397 15.6876C8.18233 15.5467 8.09963 14.9311 8.19458 14.3155C8.2834 13.7274 8.82551 13.7213 9.27881 13.7673C9.72597 13.8132 10.167 13.9235 10.6019 14.0399C11.579 14.3002 12.5376 14.3124 13.5146 14.0123C14.36 13.755 15.3309 13.268 15.8975 14.3829C16.2221 15.023 15.3921 15.6999 13.9159 16.0092C13.2543 16.1471 12.5621 16.1471 11.8852 16.2114L11.8883 16.2144Z" fill="#002D36"/>
<path d="M12.0292 6.41335C13.0246 6.41335 14.02 6.41335 15.0124 6.41335C15.5514 6.41335 15.919 6.68288 15.8945 7.22499C15.8669 7.7671 15.7107 8.32453 14.9909 8.32759C13.0001 8.33372 11.0124 8.33066 9.02156 8.32147C8.27424 8.31841 8.18848 7.68747 8.1456 7.1913C8.09966 6.65531 8.51007 6.40723 9.043 6.40723C10.0384 6.40723 11.0338 6.40723 12.0262 6.40723C12.0262 6.40723 12.0262 6.41029 12.0262 6.41335H12.0292Z" fill="#002D36"/>
</g>
<defs>
<clipPath id="clip0_4128_9220">
<rect width="18.9127" height="24" fill="white" transform="translate(2.5437)"/>
</clipPath>
</defs>
</svg>
