<svg width="24" height="24" viewBox="0 0 24 24" fill="none" xmlns="http://www.w3.org/2000/svg">
<g clip-path="url(#clip0_4128_9240)">
<path d="M23.8517 8.09656C23.7034 9.30754 24.3268 10.6833 23.2641 11.7927C22.9895 12.0782 22.8879 12.589 22.3963 12.5808C20.8448 12.5533 19.5762 13.3551 18.2252 13.9263C17.4261 14.2641 16.7176 13.8494 16.1327 13.3991C15.4188 12.8526 14.6883 12.7757 13.8343 12.8307C12.6755 12.9075 11.5057 12.8773 10.3442 12.8444C9.31441 12.8142 8.3231 12.7785 7.44438 13.4952C6.90617 13.9345 6.20869 14.1927 5.5167 13.9126C4.21784 13.3853 3.04255 12.5258 1.55972 12.5011C1.44713 12.5011 1.3318 12.3611 1.22745 12.2732C-0.189484 11.0512 -0.483305 6.89381 0.892439 5.68008C2.04576 4.66132 3.61921 4.35926 5.09107 4.3318C6.67825 4.30159 7.90022 3.79907 9.20182 2.9231C12.8375 0.479165 16.6188 0.786717 20.3533 2.8215C20.5318 2.91761 20.6664 3.13454 20.8503 3.17848C23.5002 3.79358 24.3899 5.49061 23.8517 8.09656ZM22.0943 8.03065C22.5172 6.46818 21.9432 5.18031 19.9689 4.69976C19.7107 4.6366 19.4691 4.48832 19.2329 4.35651C15.6082 2.30525 12.184 2.73363 8.96841 5.24072C8.22425 5.82287 7.48832 6.13317 6.54095 6.03706C5.21738 5.90525 3.9707 6.26772 2.73775 6.72081C2.08969 6.95971 1.59541 7.32493 1.68878 8.03889C1.79587 8.84347 1.99907 9.64804 2.27917 10.4087C2.4247 10.8069 2.82562 11.0567 3.16887 10.4746C3.34187 10.1808 3.49015 9.86498 3.69885 9.60136C5.10205 7.83294 7.08191 7.79724 8.23523 9.70846C8.89702 10.8069 9.6961 11.0046 10.7753 10.9661C11.5277 10.9387 12.2828 10.9194 13.0352 10.9551C14.1199 11.0073 14.8915 10.8233 15.5396 9.69747C16.627 7.80548 18.7414 7.84392 20.0869 9.59038C20.2517 9.80456 20.411 10.0435 20.4988 10.2961C20.6609 10.7657 20.9574 10.9359 21.4325 10.8645C21.946 10.7876 22.086 10.4361 22.0915 9.98855C22.097 9.43935 22.0915 8.89289 22.0915 8.03065H22.0943ZM18.7963 11.1638C18.7689 10.5734 18.4558 10.2604 17.9286 10.189C17.2284 10.0929 16.9181 10.5899 16.8577 11.1364C16.8 11.6499 17.1927 12.0563 17.7062 12.081C18.2938 12.1085 18.7112 11.7707 18.7991 11.1638H18.7963ZM6.97756 11.1666C6.82104 10.708 6.63432 10.1835 5.95605 10.1835C5.42059 10.1835 5.04164 10.4938 4.98672 11.0403C4.91807 11.7185 5.36841 12.059 5.95605 12.1085C6.49152 12.1551 6.80457 11.7707 6.97482 11.1693L6.97756 11.1666Z" fill="#002D36"/>
<path d="M12.4065 22.7605C10.0093 22.7605 7.61476 22.7687 5.2175 22.755C4.47608 22.7495 3.41613 22.8181 3.34199 21.9586C3.24313 20.83 4.37723 20.9234 5.16807 20.8932C6.26098 20.8493 7.35938 20.8465 8.45503 20.8877C9.4024 20.9261 9.8802 20.5939 9.77586 19.5888C9.73192 19.1824 9.7429 18.7678 9.77036 18.3586C9.81979 17.609 9.60286 17.1971 8.73512 17.2822C8.12826 17.3426 7.50492 17.2712 6.88981 17.2355C6.34611 17.2053 5.71453 17.241 5.67608 16.4639C5.63215 15.5715 6.34336 15.5715 6.94748 15.4946C7.21659 15.4616 7.49393 15.4808 7.76853 15.4781C10.3031 15.4726 12.8349 15.4671 15.3694 15.4671C15.8473 15.4671 16.3333 15.4479 16.8056 15.511C17.4015 15.5907 18.1209 15.6099 18.0825 16.4941C18.0468 17.2685 17.3713 17.1339 16.877 17.3069C16.2427 17.5294 15.3475 16.8181 15.007 17.609C14.7296 18.2543 14.8779 19.0808 14.834 19.8277C14.7846 20.6625 15.2761 20.8822 15.9928 20.874C17.0198 20.863 18.0523 20.8053 19.071 20.8795C19.9251 20.9426 21.3612 20.4209 21.309 21.8515C21.2596 23.2245 19.8372 22.7001 18.9832 22.7248C16.7946 22.7934 14.6006 22.7467 12.412 22.7467V22.755L12.4065 22.7605ZM11.5443 18.9847C11.5443 18.9847 11.558 18.9847 11.5662 18.9847C11.5662 19.3939 11.5388 19.8058 11.5717 20.2122C11.6157 20.7422 12.0111 20.8548 12.4505 20.8273C12.8541 20.7998 13.0381 20.5197 13.0463 20.138C13.0628 19.4543 13.0628 18.7733 13.0601 18.0895C13.0601 17.6364 12.9228 17.2904 12.3791 17.2712C11.742 17.2465 11.547 17.6117 11.5443 18.1664C11.5443 18.4383 11.5443 18.7129 11.5443 18.9875V18.9847Z" fill="#002D36"/>
</g>
<defs>
<clipPath id="clip0_4128_9240">
<rect width="24" height="21.6137" fill="white" transform="translate(0 1.19336)"/>
</clipPath>
</defs>
</svg>
