<svg width="24" height="24" viewBox="0 0 24 24" fill="none" xmlns="http://www.w3.org/2000/svg">
<g clip-path="url(#clip0_4128_9228)">
<path d="M0.00824887 12.0055C0.00824887 9.72415 -0.0166992 7.44002 0.0165649 5.15866C0.0470569 2.79137 1.6964 1.16975 4.05537 1.14203C5.6465 1.1254 7.23763 1.1254 8.82876 1.1448C10.9216 1.16975 12.1884 2.3035 12.6486 4.32706C12.8509 5.21687 12.9175 6.09283 12.9175 6.99096C12.9175 9.61881 12.9175 12.2494 12.9258 14.8773C12.9258 15.3624 12.9369 15.8447 12.9646 16.3298C12.9951 16.8371 13.2473 17.2695 13.6188 17.58C14.1593 18.0346 17.2529 17.8045 17.7879 17.3222C18.5197 16.6597 18.589 15.4289 17.7574 14.8468C16.8315 14.2009 16.5516 13.4137 16.6375 12.3686C16.7234 11.3153 16.4185 10.4587 15.7976 9.51348C13.8184 6.49754 14.9992 3.02976 18.8551 2.05125C20.1967 1.71306 22.5225 2.93829 23.257 4.24945C24.4268 6.33399 24.255 8.34924 22.4892 10.0263C21.7574 10.7221 21.6992 11.4178 21.7518 12.2273C21.8239 13.3333 21.6964 14.3146 20.5737 14.8551C19.9001 15.1795 20.1219 15.7865 20.0859 16.3049C19.9584 18.1621 18.6472 19.4761 16.8232 19.5343C16.2716 19.5509 15.7172 19.5343 15.1628 19.5287C13.1725 19.5149 13.1974 19.5343 12.0692 20.984C11.1406 22.176 9.95142 22.9106 8.36306 22.8662C7.11844 22.833 5.87381 22.8718 4.62641 22.8579C1.79896 22.8274 0.0248809 21.0506 0.0110209 18.2314C-6.71413e-05 16.1552 0.0110209 14.0817 0.0110209 12.0055H0.00824887ZM5.5079 11.9916C5.5079 11.9916 5.50236 11.9916 5.49681 11.9916C5.49681 11.7144 5.49681 11.44 5.49681 11.1628C5.49959 8.81216 5.51345 6.46428 5.50236 4.11362C5.50236 3.66178 5.6465 3.03531 4.96736 2.95769C4.23278 2.87453 3.46771 2.75534 2.78857 3.29865C1.69917 4.1746 1.71303 4.5904 2.93548 5.31667C3.16833 5.45527 3.4289 5.56615 3.62017 5.74633C3.8641 5.97918 4.10527 6.26192 3.92509 6.64723C3.79758 6.91888 3.55087 7.00482 3.26535 7.06857C1.78233 7.40121 1.89044 7.41784 1.75461 8.74009C1.61878 10.0512 2.41435 10.5724 3.32911 11.0713C3.7948 11.3264 4.16625 11.5842 3.90291 12.1857C3.63957 12.7844 3.20714 13.0672 2.58898 12.7124C2.05399 12.4047 1.82391 12.5655 1.80728 13.1226C1.76847 14.5059 1.37207 16.0526 3.29584 16.6098C3.41504 16.6431 3.50652 16.7844 3.60354 16.8842C3.83916 17.1226 4.16902 17.3527 3.93618 17.7463C3.756 18.054 3.45662 18.2564 3.08794 18.2453C2.8939 18.2397 2.69432 18.1427 2.51137 18.0568C1.87935 17.763 1.80173 18.1815 1.80451 18.6278C1.81282 19.6202 2.92994 20.8759 3.9639 21.0838C5.08101 21.3084 5.49404 21.0145 5.50236 19.8669C5.52453 17.2418 5.51067 14.614 5.51067 11.9889L5.5079 11.9916ZM10.869 14.4199C10.869 13.8323 10.8911 13.4165 10.8634 13.0034C10.8412 12.6597 10.6306 12.5377 10.3062 12.6819C9.80451 12.9064 9.35544 12.9674 9.18912 12.2855C9.06993 11.7921 9.06161 11.3236 9.65205 11.0797C11.0408 10.5059 10.9383 9.31112 10.9105 8.12193C10.8939 7.48992 10.7997 7.02699 10.0235 7.06857C9.57166 7.09352 9.18635 6.95769 9.15309 6.42824C9.11982 5.91819 9.22239 5.45249 9.83777 5.32775C10.4504 5.20579 10.9355 4.88978 10.7747 4.21895C10.6278 3.60911 10.09 3.19331 9.52731 2.96601C9.16417 2.82186 8.70957 2.90502 8.29377 2.89948C7.58413 2.88562 7.39841 3.20994 7.40672 3.93344C7.46494 8.90918 7.46494 13.8877 7.48434 18.8634C7.48434 19.3485 7.48988 19.8309 7.50374 20.316C7.5176 20.7983 7.74214 21.0561 8.25773 21.0977C9.81559 21.2196 11.1018 19.9223 10.8717 18.4421C10.8191 18.1095 10.6666 17.9431 10.3367 18.1122C9.7158 18.4282 9.24179 18.298 9.02835 17.6327C8.84817 17.0727 9.19744 16.6819 9.68531 16.51C10.7997 16.1136 11.0852 15.3236 10.8745 14.4255L10.869 14.4199ZM16.7484 6.45319C16.6541 8.36864 17.519 9.39705 19.2654 9.45249C20.7816 9.50239 22.0401 8.36864 22.1177 6.88562C22.1954 5.39705 20.8066 3.8087 19.4317 3.8087C18.2868 3.8087 16.8066 5.26677 16.7484 6.45319ZM18.4338 12.2134C18.4088 12.7345 18.4532 13.1725 19.1517 13.1836C19.9778 13.1975 19.95 12.6542 19.9694 12.0859C19.9916 11.4677 19.6922 11.2432 19.1101 11.2349C18.3617 11.2238 18.4448 11.7477 18.4365 12.2134H18.4338Z" fill="#002D36"/>
<path d="M20.0777 6.5225C20.05 6.85237 20.2108 7.72 19.3764 7.6507C18.7222 7.59526 18.2482 6.93553 18.3397 6.12887C18.3702 5.86553 18.3813 5.5717 18.5088 5.34994C18.7139 4.99235 19.0521 4.68743 19.4873 4.74287C19.9752 4.80663 20.0777 5.23075 20.0805 5.66595C20.0805 5.86831 20.0805 6.07343 20.0805 6.5225H20.0777Z" fill="#002D36"/>
</g>
<defs>
<clipPath id="clip0_4128_9228">
<rect width="24" height="21.738" fill="white" transform="translate(0 1.13086)"/>
</clipPath>
</defs>
</svg>
