<svg width="18" height="18" viewBox="0 0 18 18" fill="none" xmlns="http://www.w3.org/2000/svg">
<path d="M13.5 2.25C12.9033 2.25 12.331 2.48705 11.909 2.90901C11.4871 3.33097 11.25 3.90326 11.25 4.5V13.5C11.25 14.0967 11.4871 14.669 11.909 15.091C12.331 15.5129 12.9033 15.75 13.5 15.75C14.0967 15.75 14.669 15.5129 15.091 15.091C15.5129 14.669 15.75 14.0967 15.75 13.5C15.75 12.9033 15.5129 12.331 15.091 11.909C14.669 11.4871 14.0967 11.25 13.5 11.25H4.5C3.90326 11.25 3.33097 11.4871 2.90901 11.909C2.48705 12.331 2.25 12.9033 2.25 13.5C2.25 14.0967 2.48705 14.669 2.90901 15.091C3.33097 15.5129 3.90326 15.75 4.5 15.75C5.09674 15.75 5.66903 15.5129 6.09099 15.091C6.51295 14.669 6.75 14.0967 6.75 13.5V4.5C6.75 3.90326 6.51295 3.33097 6.09099 2.90901C5.66903 2.48705 5.09674 2.25 4.5 2.25C3.90326 2.25 3.33097 2.48705 2.90901 2.90901C2.48705 3.33097 2.25 3.90326 2.25 4.5C2.25 5.09674 2.48705 5.66903 2.90901 6.09099C3.33097 6.51295 3.90326 6.75 4.5 6.75H13.5C14.0967 6.75 14.669 6.51295 15.091 6.09099C15.5129 5.66903 15.75 5.09674 15.75 4.5C15.75 3.90326 15.5129 3.33097 15.091 2.90901C14.669 2.48705 14.0967 2.25 13.5 2.25Z" stroke="#00AEB5" stroke-width="2" stroke-linecap="round" stroke-linejoin="round"/>
</svg>
