<svg width="28" height="28" viewBox="0 0 28 28" fill="none" xmlns="http://www.w3.org/2000/svg">
<path fill-rule="evenodd" clip-rule="evenodd" d="M22.9855 11.5135H22.2835V18.9261H22.9855V22.2254H5.01453V18.9261H5.64632V11.5135H5.01453V8.21418H6.81742V5.77539H10.4475V8.21418H17.5903V5.77539H21.2204V8.21418H22.9855V11.5135ZM21.9325 21.1724V19.979H6.06752V21.1724H21.9325ZM6.69931 18.926H21.2305V11.5376H6.69931V18.926ZM18.6433 6.82838V8.21418H20.1674V6.82838H18.6433ZM7.87041 6.82838V8.21418H9.39454V6.82838H7.87041ZM6.06752 9.26717V10.4606H21.9325V9.26717H6.06752ZM15.8486 14.7053H20.043V15.7583H15.8486V14.7053ZM10.5807 13.1346V14.7053H12.1514V15.7583H10.5807V17.329H9.52774V15.7583H7.95703V14.7053H9.52774V13.1346H10.5807Z" fill="#29D7DE"/>
</svg>
