<svg width="28" height="28" viewBox="0 0 28 28" fill="none" xmlns="http://www.w3.org/2000/svg">
<path fill-rule="evenodd" clip-rule="evenodd" d="M13.4316 21.3898C13.1176 21.3898 12.8631 21.1353 12.8631 20.8213C12.8631 20.5074 13.1176 20.2528 13.4316 20.2528C13.7455 20.2528 14 20.5074 14 20.8213C14 21.1353 13.7455 21.3898 13.4316 21.3898ZM7.17844 15.1367C6.86449 15.1367 6.60998 14.8821 6.60998 14.5682C6.60998 14.2542 6.86449 13.9997 7.17844 13.9997C7.4924 13.9997 7.74691 14.2542 7.74691 14.5682C7.74691 14.8821 7.4924 15.1367 7.17844 15.1367ZM9.01004 19.5582C8.69609 19.5582 8.44158 19.3037 8.44158 18.9897C8.44158 18.6758 8.69609 18.4212 9.01004 18.4212C9.324 18.4212 9.57851 18.6758 9.57851 18.9897C9.57851 19.3037 9.324 19.5582 9.01004 19.5582ZM9.01004 10.6772C8.69609 10.6772 8.44158 10.4227 8.44158 10.1087C8.44158 9.79475 8.69609 9.54024 9.01004 9.54024C9.324 9.54024 9.57851 9.79475 9.57851 10.1087C9.57851 10.4227 9.324 10.6772 9.01004 10.6772ZM17.8531 19.5582C17.5391 19.5582 17.2846 19.3037 17.2846 18.9897C17.2846 18.6758 17.5391 18.4212 17.8531 18.4212C18.1671 18.4212 18.4216 18.6758 18.4216 18.9897C18.4216 19.3037 18.1671 19.5582 17.8531 19.5582ZM14 4.29785C19.3336 4.29785 23.7019 8.66534 23.7019 13.9997C23.7019 14.3137 23.4473 14.5682 23.1334 14.5682H22.527C22.527 19.6043 18.4468 23.7015 13.4316 23.7015C8.4041 23.7015 4.29822 19.596 4.29822 14.5682C4.29822 9.54061 8.40375 5.43478 13.4316 5.43478V4.86631C13.4316 4.55236 13.6861 4.29785 14 4.29785ZM13.4316 22.5646C17.8199 22.5646 21.3901 18.9736 21.3901 14.5644H19.6847C19.3707 14.5644 19.1162 14.3137 19.1162 13.9997C19.1162 11.1577 16.8211 8.84558 14 8.84558C13.6861 8.84558 13.4316 8.59106 13.4316 8.27711V6.57171C9.02232 6.57171 5.43515 10.1589 5.43515 14.5682C5.43515 18.9774 9.02232 22.5646 13.4316 22.5646ZM20.2278 13.4313H22.5463C22.2649 9.16066 18.839 5.73478 14.5685 5.45343V7.73438C17.5673 8.00728 19.9597 10.4356 20.2278 13.4313ZM13.4316 9.98251C15.9392 9.98251 17.9793 12.0396 17.9793 14.5682C17.9793 17.0758 15.9392 19.1159 13.4316 19.1159C10.9239 19.1159 8.88384 17.0758 8.88384 14.5682C8.88384 12.0396 10.9239 9.98251 13.4316 9.98251ZM13.4316 17.979C15.3123 17.979 16.8424 16.4489 16.8424 14.5682C16.8424 12.6666 15.3123 11.1194 13.4316 11.1194C11.5509 11.1194 10.0208 12.6666 10.0208 14.5682C10.0208 16.4489 11.5509 17.979 13.4316 17.979ZM13.4316 12.2943C14.6854 12.2943 15.7054 13.3144 15.7054 14.5682C15.7054 15.822 14.6854 16.842 13.4316 16.842C12.1778 16.842 11.1577 15.822 11.1577 14.5682C11.1577 13.3144 12.1778 12.2943 13.4316 12.2943ZM13.4316 15.7051C14.0585 15.7051 14.5685 15.1951 14.5685 14.5682C14.5685 13.9413 14.0585 13.4313 13.4316 13.4313C12.8047 13.4313 12.2946 13.9413 12.2946 14.5682C12.2946 15.1951 12.8047 15.7051 13.4316 15.7051Z" fill="#DECC29"/>
</svg>
