<svg width="28" height="28" viewBox="0 0 28 28" fill="none" xmlns="http://www.w3.org/2000/svg">
<path fill-rule="evenodd" clip-rule="evenodd" d="M23.7351 16.6648L23.6353 16.3564L21.731 15.8795C21.7427 15.7067 21.7481 15.5333 21.7481 15.3583C21.7481 13.138 20.7944 11.0197 19.1318 9.54629L18.3559 10.4216C19.7685 11.6732 20.5783 13.4726 20.5783 15.3583C20.5783 15.4358 20.5773 15.5131 20.5741 15.5899L19.3376 15.2803C19.3201 14.0665 18.8881 12.8878 18.1158 11.952L17.2135 12.6967C17.75 13.3463 18.0763 14.1471 18.1521 14.9834L16.8918 14.668C16.7558 14.0933 16.4527 13.5821 16.0371 13.1887L17.9531 6.50461L17.7364 6.26402C16.8076 5.23189 15.4398 4.63965 13.9842 4.63965C12.5287 4.63965 11.1614 5.23189 10.2325 6.26402L10.0157 6.50461L10.5559 8.38938C10.132 8.59873 9.72485 8.8483 9.33891 9.13719C8.03466 10.1123 7.05129 11.5021 6.56981 13.0496L7.68681 13.397C8.21826 11.6876 9.38523 10.3241 10.883 9.5306L11.2362 10.7635C10.776 11.0389 10.355 11.3838 9.99088 11.7914L10.863 12.5707C11.0767 12.3317 11.3154 12.12 11.573 11.939L11.9314 13.1892C11.518 13.5806 11.2159 14.0886 11.0791 14.6598L9.81764 14.9722C9.86092 14.4892 9.98692 14.0235 10.194 13.5829L9.13489 13.0859C8.81294 13.772 8.64336 14.505 8.63087 15.2658L4.33094 16.3302L4.23023 16.6383C3.79827 17.9581 3.96679 19.4386 4.69235 20.7007C5.41792 21.9624 6.61262 22.853 7.97036 23.1439L8.28728 23.2117L9.654 21.8023C10.927 22.6584 12.4324 23.1216 13.9842 23.1216C14.52 23.1216 15.0549 23.0671 15.5746 22.9587L15.336 21.8136C14.8946 21.9056 14.4401 21.9519 13.9842 21.9519C12.7092 21.9519 11.5063 21.5839 10.4864 20.9432L11.3715 20.0304C12.1447 20.4648 13.0361 20.7124 13.9842 20.7124V19.5427C13.355 19.5427 12.758 19.4031 12.2223 19.1528L13.1261 18.2202C13.3978 18.302 13.6859 18.346 13.9842 18.346C14.2798 18.346 14.5652 18.3032 14.8351 18.2224L19.6602 23.2269L19.9771 23.1599C21.3356 22.873 22.5331 21.9854 23.2618 20.7257C23.9909 19.4659 24.1632 17.9858 23.7351 16.6648ZM15.9042 17.6457C16.4294 17.2045 16.8013 16.586 16.9264 15.8826L22.7061 17.3296C22.917 18.256 22.7564 19.2636 22.2495 20.14C21.7423 21.0162 20.9492 21.6575 20.0406 21.9364L15.9042 17.6457ZM11.3232 6.82168C12.0195 6.17519 12.9721 5.80936 13.9842 5.80936C14.9969 5.80936 15.9495 6.17519 16.6453 6.82168L15.0039 12.5494C14.6857 12.4331 14.3422 12.3699 13.9842 12.3699C13.6263 12.3699 13.2828 12.4331 12.9646 12.5494L11.3232 6.82168ZM7.91033 21.9199C7.00253 21.6388 6.21099 20.995 5.7065 20.1174C5.20202 19.2398 5.04371 18.2319 5.25733 17.3061L11.0413 15.8745C11.1644 16.5786 11.5345 17.1982 12.0589 17.6407L7.91033 21.9199ZM12.1661 15.3583C12.1661 14.3554 12.9818 13.5396 13.9842 13.5396C14.9871 13.5396 15.8027 14.3554 15.8027 15.3583C15.8027 16.3607 14.9871 17.1763 13.9842 17.1763C12.9818 17.1764 12.1661 16.3607 12.1661 15.3583Z" fill="#29D7DE"/>
</svg>
