<svg width="42" height="30" viewBox="0 0 42 30" fill="none" xmlns="http://www.w3.org/2000/svg">
<g clip-path="url(#clip0_4128_5928)">
<g clip-path="url(#clip1_4128_5928)">
<path d="M27.6741 0C29.866 0 32.0603 0 34.2522 0C34.4917 0.724869 34.8726 1.43606 34.9365 2.17461C35.0049 2.98382 35.2284 3.34625 36.0701 3.31206C37.0144 3.27331 37.9769 3.20492 38.8984 3.34853C39.5188 3.44427 40.219 3.75655 40.6456 4.20105C41.5648 5.15614 41.3504 10.212 40.5589 11.2674C40.1871 11.762 39.8723 12.439 39.8655 13.0385C39.8085 17.6385 39.8404 22.2384 39.8267 26.8384C39.8199 29.3481 39.1812 29.9932 36.6745 29.9954C25.9771 30.0046 15.2774 30.0046 4.58004 29.9954C2.09614 29.9954 1.45521 29.3344 1.44609 26.8133C1.4324 22.5142 1.43696 18.2175 1.44381 13.9184C1.44381 12.8311 1.56926 11.7483 0.531449 10.9414C0.225809 10.7021 0.171067 10.1436 0 9.73102C0 8.29724 0 6.86574 0 5.43196C0.729887 3.61979 1.17466 3.31434 3.09061 3.30522C3.72926 3.30294 4.37248 3.26191 5.00885 3.31434C5.96454 3.39184 6.33177 3.05904 6.35229 2.04924C6.36598 1.36312 6.79023 0.683839 7.032 0.00227946H13.6101C13.8542 0.718031 14.2328 1.41783 14.3058 2.14953C14.381 2.91999 14.5361 3.32118 15.4006 3.31434C18.8949 3.28926 22.3916 3.28926 25.8882 3.31434C26.7549 3.32118 26.9032 2.91315 26.9807 2.14725C27.0514 1.41327 27.4301 0.713472 27.6741 0ZM20.5805 5.04217C19.1071 5.04217 17.6336 5.04217 16.1601 5.04217C11.8173 5.04217 7.47221 5.04217 3.12939 5.04217C2.4953 5.04217 1.87262 5.02621 1.8749 5.92204C1.87946 7.05266 1.84524 8.18327 1.90227 9.3116C1.91595 9.5783 2.22159 10.041 2.41091 10.0501C3.33467 10.098 3.26168 10.7021 3.26168 11.3198C3.25712 16.2936 3.26168 21.2651 3.26168 26.2389C3.26168 27.5397 3.89653 28.1909 5.16623 28.1924C15.4394 28.1924 25.7148 28.1924 35.988 28.1924C37.2638 28.1924 37.9032 27.5503 37.9062 26.2662C37.9062 21.37 37.8948 16.4714 37.929 11.5751C37.9313 11.1147 38.1525 10.3123 38.3943 10.2621C39.2588 10.0798 39.2314 9.55323 39.2177 8.92409C39.1995 8.09665 39.1561 7.26237 39.2268 6.43948C39.3204 5.34762 38.8893 5.0171 37.8036 5.02621C32.0626 5.0718 26.3215 5.04673 20.5805 5.04673V5.04217ZM10.3439 3.2961C10.7932 3.2961 11.279 3.40324 11.6782 3.26191C11.9998 3.14794 12.3625 2.76271 12.4218 2.44586C12.4605 2.23843 12.0066 1.73923 11.7398 1.71416C10.8137 1.6207 9.86716 1.6207 8.94111 1.71416C8.67653 1.74151 8.22719 2.24071 8.26597 2.44814C8.32755 2.76727 8.68793 3.1525 9.00954 3.26419C9.4087 3.40552 9.89453 3.29838 10.3439 3.2961ZM30.8742 3.2961C31.36 3.2961 31.8755 3.38956 32.3249 3.26191C32.6191 3.17985 33.0046 2.78322 33.016 2.51425C33.0274 2.24527 32.6442 1.74151 32.3978 1.71871C31.433 1.62526 30.4477 1.62526 29.4851 1.71871C29.2342 1.74379 28.8442 2.23615 28.851 2.50513C28.8602 2.77411 29.2411 3.16617 29.5353 3.26191C29.9436 3.39184 30.4226 3.29382 30.8719 3.2961H30.8742Z" fill="#006C70"/>
<path d="M17.4742 18.7604C17.5814 19.6972 17.1503 20.1075 16.2311 20.0414C15.3712 19.9799 14.956 20.3469 15.0564 21.2359C15.1568 22.1135 14.7325 22.4417 13.8703 22.4508C12.9603 22.4599 12.5109 22.1317 12.6113 21.1903C12.7002 20.3697 12.3216 19.9845 11.5028 20.046C10.5334 20.1212 10.1525 19.6972 10.1684 18.7216C10.1844 17.7232 10.709 17.493 11.553 17.5819C12.3467 17.6662 12.6843 17.2856 12.609 16.5288C12.5178 15.5896 12.8531 15.1292 13.8658 15.1429C14.8192 15.1566 15.159 15.5919 15.0587 16.4764C14.9515 17.4155 15.4487 17.6776 16.2812 17.5819C17.1685 17.4816 17.5471 17.9033 17.4742 18.7581V18.7604Z" fill="#006C70"/>
<path d="M27.2018 17.5835C28.032 17.5835 28.8646 17.6177 29.6925 17.5744C30.6026 17.5265 30.7554 18.0394 30.7531 18.7802C30.7486 19.4891 30.6802 20.0522 29.745 20.0385C28.0092 20.0088 26.2712 20.0157 24.5354 20.0362C23.6162 20.0476 23.5295 19.4937 23.525 18.7734C23.5204 18.012 23.7075 17.5356 24.5993 17.5789C25.466 17.62 26.335 17.5881 27.2041 17.5881L27.2018 17.5835Z" fill="#006C70"/>
</g>
</g>
<defs>
<clipPath id="clip0_4128_5928">
<rect width="41.25" height="30" fill="white"/>
</clipPath>
<clipPath id="clip1_4128_5928">
<rect width="41.25" height="30" fill="white"/>
</clipPath>
</defs>
</svg>
