<svg width="30" height="30" viewBox="0 0 30 30" fill="none" xmlns="http://www.w3.org/2000/svg">
<g clip-path="url(#clip0_4128_5905)">
<g clip-path="url(#clip1_4128_5905)">
<path d="M3.12948 21.5161C2.65791 21.6362 2.2562 21.7388 1.81083 21.8502C1.03943 20.6809 0.701766 19.409 0.413584 18.1694C-0.666369 13.5157 0.381564 9.33967 3.40602 5.65597C4.23854 4.64201 5.12055 3.69544 6.16266 2.89247C7.79569 1.63527 9.62667 0.85281 11.6148 0.375131C13.7718 -0.140645 15.9579 -0.0351449 18.112 0.164132C19.7567 0.316521 21.3635 0.885046 22.9383 1.25723C23.0082 1.90976 22.8529 2.58867 22.4726 3.29395C28.8068 7.33225 31.4179 12.9706 29.2521 20.3615C27.6686 25.7625 22.918 29.3553 17.4571 29.9268C11.7691 30.5217 5.64452 27.4299 3.13239 21.5161H3.12948ZM4.12501 20.4259C5.12055 23.1748 6.91077 25.1851 9.24533 26.6651C11.9292 28.3677 14.9071 29.0329 18.0538 28.5025C22.9529 27.679 27.5696 24.0979 28.5186 17.9115C29.3365 12.5662 27.0718 7.06557 21.4945 4.49255C20.8454 5.13434 20.1991 5.78785 19.5384 6.42964C19.0726 6.88387 18.6098 7.02161 17.8733 6.91611C16.4528 6.71683 15.0031 6.72562 13.5593 7.0685C10.1041 7.88319 7.87429 9.97853 6.87002 13.3721C6.54399 14.4711 6.27619 15.5964 6.68663 16.7891C6.86128 17.302 6.71574 17.9262 6.71574 18.4244C5.7988 19.1336 4.96336 19.7783 4.12793 20.423L4.12501 20.4259ZM21.544 2.10708C19.9488 1.86678 18.7146 1.73197 17.4978 1.49167C14.6073 0.917283 11.8885 1.43892 9.23951 2.63165C6.23252 3.98556 4.23272 6.35638 2.69575 9.1697C1.68566 11.0159 1.16751 13.0322 1.26357 15.1539C1.3247 16.5019 1.6158 17.8236 2.07572 19.0984C2.18634 19.4032 2.31733 19.6962 2.44832 20.0215C3.44677 19.2508 4.35789 18.5445 5.30394 17.8148C5.30394 16.9063 5.27483 15.9832 5.30976 15.066C5.43493 11.8511 6.84964 9.3045 9.41126 7.44068C11.6323 5.82595 14.5636 5.21639 17.3173 5.61788C17.6958 5.67356 18.0887 5.62667 18.5749 5.62667C19.4627 4.57753 20.3913 3.47565 21.5469 2.11295L21.544 2.10708Z" fill="#006C70"/>
<path d="M16.0513 24.136C11.8362 24.3968 7.9065 20.5812 7.84246 16.033C7.78424 11.7222 11.5801 7.66045 15.9232 7.70148C20.5778 7.74251 24.1786 11.3529 24.2193 15.9598C24.2601 20.5754 20.1761 24.4437 16.0484 24.136H16.0513ZM22.8192 16.0389C23.1568 12.3493 19.4629 9.11693 16.1677 9.05832C12.171 8.98799 9.12327 12.3962 9.12327 15.8279C9.12327 19.7255 12.0691 22.8641 15.9115 22.8876C20.2896 22.9139 22.8832 19.4266 22.8192 16.0389Z" fill="#006C70"/>
<path d="M24.3531 9.22267C24.6296 9.20216 24.8625 9.18751 25.1449 9.16699C26.9118 11.4411 27.5493 14.0346 27.427 16.8597C27.4008 17.4399 27.0865 17.7359 26.6498 17.6773C26.219 17.6187 25.9861 17.2377 26.0473 16.6985C26.2772 14.6852 25.7998 12.8243 24.8247 11.0777C24.5248 10.5414 24.0271 10.0813 24.3502 9.22267H24.3531Z" fill="#006C70"/>
<path d="M25.817 18.9258C25.9305 18.8936 25.9742 18.876 26.0207 18.8701C26.4778 18.7998 26.7601 19.002 26.8387 19.4504C26.9522 20.0951 26.2944 21.2995 25.7209 21.4607C25.2872 21.5838 24.9932 21.3611 24.8447 20.8629C25.162 20.2299 25.4997 19.5559 25.817 18.9258Z" fill="#006C70"/>
<path d="M10.5406 15.8427C10.4212 12.877 13.0702 10.2718 16.0451 10.3392C18.9881 10.4036 21.5759 12.8301 21.5788 15.9101C21.5817 19.0107 18.9357 21.5016 15.9054 21.4899C13.044 21.4811 10.363 18.9315 10.5406 15.8427ZM15.9549 20.0598C18.3564 20.3206 20.199 17.985 20.2107 15.9336C20.2252 13.6653 18.1381 11.7224 16.1441 11.7136C13.8183 11.7048 11.8214 13.5012 11.7632 15.9658C11.7079 18.2311 13.6669 20.0481 15.9578 20.0569L15.9549 20.0598Z" fill="#006C70"/>
<path d="M17.8033 14.0436C17.78 14.4422 17.4191 14.7557 17.0348 14.7118C16.6448 14.6678 16.3362 14.2839 16.4119 13.9059C16.4876 13.5396 16.7233 13.3198 17.1018 13.3022C17.486 13.2875 17.8266 13.6568 17.8033 14.0436Z" fill="#006C70"/>
<path d="M17.2591 16.8828C17.6404 17.1935 17.9752 17.34 18.08 17.5832C18.2546 17.9818 18.016 18.3041 17.524 18.5298C17.2824 18.3422 17.003 18.1254 16.7031 17.8909C16.872 17.5861 17.0029 17.3458 17.2562 16.8828H17.2591Z" fill="#006C70"/>
<path d="M19.3253 15.64C19.0808 15.9272 18.8741 16.1675 18.6179 16.4664C18.3618 16.3052 18.0648 16.2143 17.9251 16.0121C17.7097 15.6956 17.8494 15.3586 18.1609 15.1564C18.6237 14.8575 18.9556 15.092 19.3253 15.637V15.64Z" fill="#006C70"/>
<path d="M15.0956 18.767C14.593 18.4778 14.3922 18.0353 14.4931 17.4395H15.3198C15.6342 17.882 15.6254 18.2981 15.0956 18.767Z" fill="#006C70"/>
<path d="M13.1602 16.0039C13.6492 15.3845 14.1411 15.3777 14.636 15.9833C14.4322 16.2149 14.2226 16.4552 13.9461 16.7717C13.655 16.4874 13.4076 16.2412 13.1631 16.0039H13.1602Z" fill="#006C70"/>
<path d="M15.4684 13.5713V14.6702C15.1161 14.6878 14.8076 14.7054 14.4059 14.7259C14.3855 14.345 14.368 14.0372 14.3477 13.6328C14.7261 13.6123 15.0317 13.5947 15.4684 13.5684V13.5713Z" fill="#006C70"/>
</g>
</g>
<defs>
<clipPath id="clip0_4128_5905">
<rect width="30" height="30" fill="white"/>
</clipPath>
<clipPath id="clip1_4128_5905">
<rect width="30" height="30" fill="white"/>
</clipPath>
</defs>
</svg>
