<svg width="29" height="31" viewBox="0 0 29 31" fill="none" xmlns="http://www.w3.org/2000/svg">
<g clip-path="url(#clip0_4128_5840)">
<path d="M18.9236 11.4543C20.2346 11.6732 21.183 12.4215 22.0842 13.286C23.29 14.4449 23.5081 15.874 23.3006 17.4625C23.1088 18.9186 22.7699 20.3667 22.896 21.8471C22.9958 23.0304 23.29 24.1488 24.4013 24.7945C26.0171 24.862 26.553 24.5567 27.5487 23.0466C27.977 20.9151 27.3543 19.1023 26.2614 17.4058C25.6598 16.4738 25.0818 15.5282 24.4749 14.5989C23.6368 13.313 23.1692 11.9028 23.0825 10.3305C22.1078 9.9739 20.9151 10.6304 20.0612 9.53625C19.964 8.33407 19.5831 6.9752 21.2986 6.41058V4.39795C21.6244 4.34662 21.9055 4.30339 22.3075 4.24126C22.3495 4.97067 22.3863 5.62714 22.4283 6.36736C23.2112 6.6186 24.0309 6.4457 24.8427 6.47812C25.1659 6.06479 24.9872 5.60013 25.024 5.17058C25.0739 4.59246 25.2499 4.32231 25.6335 4.29529C26.0171 4.26827 26.264 4.55194 26.2903 5.10845C26.3113 5.5569 26.2956 6.00806 26.2956 6.50244C27.4778 7.24806 27.0443 8.43403 27.0706 9.4579C26.3639 10.6142 25.1974 10.009 24.2358 10.3251C24.3015 11.8271 24.9846 13.0644 25.686 14.2774C26.3061 15.3526 27.0233 16.3684 27.6538 17.4355C28.4499 18.789 28.9832 20.2235 28.9438 21.8552C28.8781 24.4919 27.1652 25.7103 25.1816 26.1155C24.2122 26.3127 22.8355 25.5158 22.3889 24.4946C21.8188 23.1925 21.5351 21.8309 21.7505 20.3613C21.9581 18.9511 22.0001 17.5166 22.1104 16.0928C22.1735 15.2635 21.8398 14.6043 21.2356 14.091C20.5761 13.5318 19.8878 13.005 18.9762 12.7538V27.3447C19.6908 27.7229 20.0638 28.3902 19.9903 29.3438C19.9193 30.311 19.5305 30.8432 18.6163 30.9783C18.3588 31.0161 18.0908 30.9891 17.8307 30.9891C12.6236 30.9891 7.41651 30.9972 2.2094 30.9783C1.61566 30.9783 1.01928 30.8324 0.535879 30.7675C-0.239144 29.9355 0.126036 29.0494 0.0078125 28.1903C0.365111 27.885 0.696138 27.6067 1.07708 27.2826C1.07708 26.8881 1.07708 26.4424 1.07708 25.9939C1.07708 18.1649 1.07708 10.3359 1.07708 2.50688C1.07708 2.23673 1.07183 1.96658 1.07708 1.69642C1.09285 0.648231 1.53421 0.129538 2.52204 0.0160744C2.82417 -0.0190454 3.13418 0.00796983 3.44156 0.00796983C7.81847 0.00796983 12.1928 0.00796983 16.5697 0.00796983C16.8324 0.00796983 17.0951 -0.0109408 17.3578 0.00796983C18.4245 0.0863141 18.9184 0.613111 18.921 1.71263C18.9289 4.50331 18.9236 7.29128 18.9236 10.082V11.4516V11.4543ZM17.6258 1.34252C13.262 1.13991 3.24189 1.22636 2.1989 1.46679V27.2907H17.6258V1.34522V1.34252ZM18.6846 28.682C15.7395 28.4685 1.36082 28.5523 1.09547 28.8224C1.11912 29.071 1.14802 29.3627 1.17429 29.6437C4.33743 29.8463 18.4297 29.7599 18.6846 29.5248V28.682ZM21.1384 7.83969C21.1173 8.14226 21.0963 8.46644 21.0701 8.85276H25.9724V7.83969H21.1384Z" fill="#006C70"/>
<path d="M16.8218 10.7659C16.5774 11.0172 16.2753 11.3305 16.0467 11.5656C12.2347 11.5656 8.61176 11.5602 4.98623 11.571C4.42927 11.571 3.96688 11.4116 3.52026 10.955C3.49661 10.7524 3.43881 10.4904 3.43618 10.231C3.4283 8.21027 3.44932 6.18953 3.42042 4.16878C3.40991 3.52312 3.56229 3.02874 4.1429 2.70996H16.1308C16.6142 3.10438 16.8244 3.56094 16.8244 4.14177C16.8191 6.29489 16.8244 8.448 16.8244 10.7686L16.8218 10.7659ZM15.5134 3.80948C12.0219 3.63118 5.59049 3.70142 4.57113 3.91754V10.2175H15.5108V3.80948H15.5134Z" fill="#006C70"/>
<path d="M10.509 13.7344C11.1028 14.0153 11.1606 14.38 10.9162 14.8663C10.4775 15.7389 10.0571 16.6196 9.63416 17.5003C9.48178 17.8164 9.33992 18.1352 9.12711 18.5998C9.93892 18.6944 10.6561 18.7997 11.3734 18.8565C11.7727 18.8889 12.1747 18.8592 12.3481 19.4697C11.8305 20.3531 11.2814 21.3067 10.7192 22.2523C10.291 22.9763 9.84959 23.6895 9.40822 24.4054C9.20067 24.7404 8.92745 24.9349 8.53074 24.7458C8.16293 24.5702 8.08412 24.1623 8.35209 23.7219C8.99838 22.6656 9.66306 21.6201 10.3146 20.5692C10.4013 20.4315 10.4591 20.2748 10.5327 20.1208C9.51594 19.6129 8.29954 20.4342 7.41943 19.5237C8.39412 16.9654 9.73925 14.4314 10.509 13.7344Z" fill="#006C70"/>
</g>
<defs>
<clipPath id="clip0_4128_5840">
<rect width="28.9333" height="31" fill="white"/>
</clipPath>
</defs>
</svg>
