<svg width="24" height="32" viewBox="0 0 24 32" fill="none" xmlns="http://www.w3.org/2000/svg">
<g clip-path="url(#clip0_4128_5825)">
<path d="M3.10907 3.36257C3.10907 2.80836 3.09778 2.34181 3.10907 1.87808C3.14578 0.659389 3.68796 0.0797327 4.90505 0.0260084C5.84257 -0.0164055 6.78574 0.0260084 7.72609 0.000560051C8.33322 -0.0135779 8.8048 0.240905 9.23403 0.656562C9.37522 1.42849 9.51641 2.20043 9.6802 3.08829C10.6516 3.08829 11.6258 3.11657 12.6001 3.07981C13.5602 3.04305 14.3452 3.35409 14.9665 4.0836C15.3279 4.51057 15.6611 4.96299 16.0282 5.38712C17.4741 7.04975 18.9255 8.70955 20.3798 10.3637C21.1846 11.2798 22.0233 12.1649 22.8083 13.0951C23.3929 13.7851 23.7317 14.574 23.7487 15.524C23.8108 19.1858 23.9238 22.8447 24 26.5064C24.0113 27.0154 23.9322 27.53 23.856 28.0361C23.503 30.3746 21.5828 31.6102 19.3802 31.6385C17.9682 31.6555 16.5591 31.6357 15.1472 31.6385C11.5722 31.6498 7.99718 31.5933 4.42499 31.712C2.2958 31.7827 0.609954 30.2332 0.302153 28.3076C0.206142 27.711 0.0649488 27.1115 0.062125 26.5149C0.0254148 20.2518 0.00564772 13.9887 0 7.72554C0 7.12327 0 6.48423 0.189199 5.92437C0.561948 4.81312 1.26791 3.96485 2.47935 3.65947C2.65161 3.61705 2.80974 3.50678 3.10625 3.36257H3.10907ZM4.23862 4.24195C3.92234 4.39464 3.72185 4.50774 3.51006 4.59257C1.58701 5.38147 1.1126 6.02051 1.14931 8.06203C1.18885 10.31 1.33286 12.5579 1.37804 14.8058C1.42323 16.9718 1.40064 19.1377 1.40628 21.3065C1.41193 23.2858 1.41193 25.2623 1.41758 27.2416C1.41758 28.0559 1.6096 28.8081 2.15461 29.4443C2.80409 30.2021 3.58348 30.5697 4.61419 30.5499C7.61313 30.4962 10.6092 30.5018 13.6082 30.3152C15.7176 30.1851 17.8412 30.2841 19.9562 30.2756C21.1818 30.2699 22.0741 29.6309 22.4215 28.5366C22.7208 27.5894 22.7151 26.5375 22.7857 25.5281C22.8168 25.07 22.6615 24.6034 22.6587 24.1397C22.6304 21.5496 22.6191 18.9596 22.6107 16.3695C22.6078 15.3035 22.3311 14.3506 21.5912 13.5476C20.5097 12.3741 19.431 11.1978 18.3777 9.99893C17.3272 8.80286 16.3276 7.56154 15.2686 6.37395C14.5937 5.61333 14.0798 4.66892 12.7582 4.1854H8.66078C7.97741 3.31733 8.40099 2.35595 8.1186 1.3776C7.87857 1.31539 7.58207 1.17118 7.29121 1.18249C6.64455 1.20511 6.00071 1.30125 5.35404 1.36912C4.99823 1.40587 4.64525 1.44829 4.24144 1.49353V4.24195H4.23862Z" fill="#006C70"/>
<path d="M11.3127 27.9779C9.99395 27.9779 8.67803 27.992 7.35928 27.9694C6.947 27.9609 6.52625 27.8789 6.12526 27.78C4.25304 27.3191 3.57813 26.352 3.45953 24.3614C3.41153 23.564 3.45953 22.761 3.45106 21.958C3.43129 19.7892 3.41435 17.6233 3.38046 15.4545C3.37482 15.0869 3.23645 14.7165 3.25339 14.3489C3.31552 13.003 3.29857 11.6344 3.54707 10.3196C3.7278 9.36103 4.52978 8.7022 5.52095 8.52124C6.48106 8.3431 7.46377 8.27807 8.44082 8.23282C9.52236 8.18475 10.6067 8.23282 11.6883 8.20455C12.4902 8.18193 13.1651 8.42793 13.7017 9.01889C14.8679 10.3054 16.0398 11.5892 17.1835 12.8984C17.8584 13.6731 18.5277 14.4592 19.1178 15.299C19.4256 15.7401 19.6939 16.2971 19.7363 16.8231C19.9509 19.3933 20.2587 21.9834 19.9961 24.5509C19.7871 26.598 19.259 27.1296 17.336 27.6725C16.5848 27.8846 15.7744 27.9298 14.9865 27.9581C13.7638 28.0034 12.5411 27.9694 11.3155 27.9694L11.3127 27.9779ZM12.4789 9.56462C11.9904 9.56462 11.5188 9.56179 11.0501 9.56462C9.59296 9.57593 8.13302 9.55896 6.67591 9.60986C5.36281 9.6551 4.63143 10.4157 4.53825 11.7306C4.5213 11.9652 4.51848 12.2028 4.52413 12.4375C4.62579 16.758 4.73027 21.0758 4.83475 25.3963C4.83475 25.4416 4.85452 25.4868 4.86581 25.5405C5.53507 26.6687 6.73804 26.7677 7.8111 26.8101C10.762 26.926 13.7214 26.9006 16.6611 26.5585C17.9459 26.4086 18.7479 25.7978 18.6971 24.3812C18.6237 22.3114 18.6886 20.236 18.6378 18.1633C18.6152 17.185 18.4204 16.2519 17.6833 15.4743C16.8475 14.5949 16.133 13.6024 15.331 12.6891C14.4359 11.6683 13.5012 10.6815 12.4789 9.56462Z" fill="#006C70"/>
<path d="M14.9868 20.418C15.1393 21.9986 14.2159 22.9826 13.0242 23.715C11.824 24.453 9.86993 24.0995 8.97759 22.8582C7.79722 21.2154 7.33975 19.4538 8.9663 17.4914C9.89253 16.3745 10.3387 15.088 10.7397 13.7534C10.7792 13.6205 10.7595 13.4706 10.7905 13.3349C10.8668 12.9758 11.0842 12.7382 11.4569 12.7269C11.8382 12.7156 12.0443 12.9616 12.1347 13.3122C12.2166 13.6261 12.2928 13.94 12.3747 14.251C12.6514 15.3 13.123 16.2416 13.8205 17.0871C14.6084 18.0456 15.1393 19.1201 14.9896 20.4152L14.9868 20.418ZM11.5021 15.7779C11.1971 16.3576 11.0108 16.7902 10.7538 17.1776C10.4968 17.5649 10.1834 17.9156 9.87558 18.2662C8.88441 19.4029 8.99171 21.9534 10.9967 22.7423C11.4174 22.9091 11.7845 22.9148 12.2053 22.7338C13.5861 22.1343 14.261 20.6074 13.5833 19.2587C13.0016 18.1022 12.2589 17.0277 11.5021 15.7751V15.7779Z" fill="#006C70"/>
</g>
<defs>
<clipPath id="clip0_4128_5825">
<rect width="24.0011" height="31.7143" fill="white"/>
</clipPath>
</defs>
</svg>
