<svg width="30" height="30" viewBox="0 0 30 30" fill="none" xmlns="http://www.w3.org/2000/svg">
<g clip-path="url(#clip0_4128_5857)">
<path d="M16.3479 0C16.4748 0.0769804 16.5943 0.213558 16.7263 0.225975C19.6488 0.474298 22.1582 1.65135 24.4484 3.44922C26.2134 4.83486 27.498 6.55327 28.4689 8.53241C29.1933 10.0099 29.7409 11.5471 29.8057 13.2208C29.838 14.0377 30.0471 14.8597 29.9849 15.6643C29.736 18.9223 28.6954 21.8724 26.5993 24.4599C24.319 27.2734 21.3765 28.957 17.9137 29.6995C16.4176 30.0199 14.8617 30.0968 13.2635 29.8758C11.2221 29.5927 9.33268 29.0067 7.57266 28.0184C5.15792 26.66 3.22364 24.7877 1.90176 22.3243C1.25949 21.1274 0.69937 19.9032 0.425534 18.5672C0.0620788 16.8016 -0.142054 15.0584 0.109378 13.2183C0.440471 10.7971 1.26198 8.6218 2.5988 6.61783C4.88409 3.18599 8.17759 1.24907 12.1159 0.300472C12.4718 0.213558 12.8602 0.270673 13.2311 0.223491C13.3655 0.206109 13.4825 0.0769804 13.6095 0C14.5231 0 15.4342 0 16.3479 0ZM14.9239 28.8329C22.2702 29.1507 28.8921 22.5106 28.8696 15.0509C28.8472 7.54159 22.4743 1.18947 14.9737 1.16961C7.63987 1.14974 1.08523 7.44227 1.0927 15.0608C1.10017 22.4659 7.51042 29.0315 14.9239 28.8329Z" fill="#006C70"/>
<path d="M5.12089 14.9462C4.9765 9.75127 9.60682 5.0654 15.208 5.2144C20.4582 5.35346 24.9292 9.73637 24.8769 15.2914C24.8296 20.3746 20.5055 25.1076 14.8645 25.0431C9.30062 24.981 4.82963 20.2852 5.12089 14.9462ZM15.0686 6.41877C10.1495 6.18286 6.18138 10.3249 6.16147 15.0282C6.13906 20.1536 10.2591 23.8014 14.8819 23.8759C19.5496 23.9504 23.7094 20.2554 23.789 15.2169C23.8712 10.0815 19.5023 6.25239 15.0686 6.41877Z" fill="#006C70"/>
<path d="M23.6319 25.0961C23.1166 24.808 22.6959 24.5374 22.8901 24.0109C22.9872 23.7526 23.3133 23.4671 23.5846 23.405C24.1746 23.2709 24.2767 23.8296 24.5381 24.3089C24.2393 24.5696 23.9232 24.8428 23.6319 25.0961Z" fill="#006C70"/>
<path d="M25.6412 9.58234C25.7806 9.16267 25.9026 8.70575 26.4801 8.72314C26.8311 8.73307 27.2568 9.18254 27.2643 9.53019C27.2767 9.98462 26.9382 10.1808 26.5871 10.2727C26.0395 10.4117 25.8179 10.0095 25.6387 9.58234H25.6412Z" fill="#006C70"/>
<path d="M27.1418 15.2277C27.3111 15.188 27.4281 15.1333 27.5476 15.1358C28.1724 15.1458 28.5259 15.3171 28.4886 15.6772C28.4587 15.9627 28.2695 16.2905 28.0479 16.4842C27.7044 16.7897 27.3559 16.6059 27.0845 16.293C27.0049 16.2011 26.9377 16.0944 26.8281 15.9404C26.9277 15.7119 27.0397 15.4586 27.1418 15.2252V15.2277Z" fill="#006C70"/>
<path d="M4.17188 6.96049C4.45318 6.6923 4.67723 6.48123 4.82659 6.3372C5.2473 6.25277 5.78751 6.63022 5.85721 6.95304C5.92941 7.27586 5.60827 7.75761 5.23237 7.89171C4.86642 8.02332 4.64735 7.84452 4.17188 6.95801V6.96049Z" fill="#006C70"/>
<path d="M6.2632 23.1836C6.80838 23.4294 7.15441 23.6629 6.94032 24.229C6.81585 24.5568 6.63661 24.8051 6.25822 24.8151C5.90721 24.8225 5.45911 24.4202 5.42924 24.0552C5.37945 23.4592 5.87734 23.3624 6.2632 23.1836Z" fill="#006C70"/>
<path d="M6.70931 4.88743C7.48103 4.43796 7.72251 4.41065 7.97892 4.7434C8.28511 5.13575 8.18803 5.47596 7.60052 6.07442C6.99477 5.86583 6.69769 5.47099 6.70931 4.88991V4.88743Z" fill="#006C70"/>
<path d="M22.3027 3.98295C23.306 4.75027 23.3134 4.83719 22.4521 5.63679C22.4123 5.64424 22.3675 5.66907 22.3351 5.65665C22.1111 5.56974 21.892 5.47538 21.6157 5.36115C21.6007 5.04081 21.5858 4.72544 21.5684 4.38524C21.8397 4.23376 22.0837 4.10215 22.3002 3.98047L22.3027 3.98295Z" fill="#006C70"/>
<path d="M2.59356 13.4149C2.12555 13.3925 1.86914 13.0995 1.89652 12.6202C1.9239 12.1459 2.21517 11.8927 2.69314 11.92C3.15617 11.9473 3.42502 12.2502 3.39764 12.7171C3.37026 13.179 3.07402 13.4372 2.59605 13.4124L2.59356 13.4149Z" fill="#006C70"/>
<path d="M26.2683 21.2543C26.3504 21.8056 26.46 22.3345 25.8326 22.5481C25.4094 22.6921 25.1356 22.3792 24.9265 22.0713C24.7497 21.8081 24.7697 21.5076 25.0236 21.299C25.2078 21.1476 25.4443 20.9812 25.6609 20.9737C25.87 20.9688 26.0841 21.1625 26.2683 21.2543Z" fill="#006C70"/>
<path d="M5.121 21.6311C4.82227 22.1675 4.48371 22.4829 3.80161 22.2743C3.69706 22.1054 3.55267 21.8745 3.35352 21.5541C3.56761 21.3207 3.7344 20.983 3.98583 20.8961C4.55839 20.6999 4.887 21.0798 5.121 21.6286V21.6311Z" fill="#006C70"/>
<path d="M12.6113 2.69144C12.6213 2.21963 12.9026 1.9564 13.3855 1.9713C13.8685 1.98372 14.1249 2.25688 14.11 2.74111C14.095 3.22286 13.8187 3.48111 13.3382 3.46621C12.8677 3.4538 12.6014 3.17071 12.6138 2.69144H12.6113Z" fill="#006C70"/>
<path d="M8.80053 25.0756C9.27601 25.0458 9.5847 25.304 9.61706 25.756C9.64943 26.2278 9.39053 26.5357 8.93247 26.5705C8.46197 26.6052 8.1508 26.3445 8.12092 25.8876C8.08856 25.4083 8.34248 25.1054 8.80053 25.0756Z" fill="#006C70"/>
<path d="M16.958 1.7855C17.2343 2.47832 17.182 2.86322 16.8036 3.10658C16.5323 3.28289 16.2634 3.25061 16.017 3.04202C15.7581 2.82101 15.5141 2.56275 15.6485 2.20516C15.8776 1.58684 16.4003 1.70107 16.9604 1.78798L16.958 1.7855Z" fill="#006C70"/>
<path d="M3.41089 8.94435C3.88886 8.94187 4.15771 9.20758 4.1602 9.69181C4.16518 10.1785 3.90628 10.4393 3.41836 10.4417C2.9379 10.4417 2.66406 10.1736 2.66406 9.69926C2.66406 9.22744 2.94039 8.94932 3.41089 8.94435Z" fill="#006C70"/>
<path d="M3.12677 15.5993C2.90023 16.2002 2.54922 16.5181 1.81733 16.3318C1.7078 16.153 1.56341 15.9196 1.36426 15.5993C1.57586 15.3683 1.74265 15.0331 1.99408 14.9412C2.57909 14.7326 2.87285 15.1597 3.12677 15.5968V15.5993Z" fill="#006C70"/>
<path d="M18.8302 27.3256C18.8302 27.7975 18.5589 28.0657 18.0784 28.0706C17.588 28.0731 17.3266 27.8148 17.3291 27.3281C17.3291 26.8464 17.603 26.5732 18.0759 26.5782C18.5514 26.5832 18.8277 26.8588 18.8302 27.3256Z" fill="#006C70"/>
<path d="M20.3286 3.25009C20.2141 3.45868 20.1419 3.60519 20.0573 3.74425C20.015 3.8113 19.9503 3.86345 19.9005 3.92056C19.2657 4.11177 18.8823 3.8262 18.6309 3.23767C18.84 2.69384 19.181 2.36357 19.9254 2.53988C20.0449 2.74848 20.1967 3.01667 20.3311 3.25257L20.3286 3.25009Z" fill="#006C70"/>
<path d="M9.73393 3.04945C10.3015 2.91535 10.8069 2.84085 11.0633 3.42193C11.2176 3.77207 10.9786 4.04274 10.7222 4.26872C10.4808 4.47979 10.2169 4.53442 9.93557 4.36805C9.5522 4.13959 9.48498 3.74475 9.73393 3.04945Z" fill="#006C70"/>
<path d="M12.5588 27.6637C12.1256 27.9518 11.7149 28.2994 11.324 27.8201C11.1573 27.614 11.1224 27.2043 11.1921 26.9262C11.2842 26.5587 11.6601 26.5015 12.0086 26.5636C12.6161 26.6729 12.6509 27.105 12.5588 27.6637Z" fill="#006C70"/>
<path d="M27.934 11.7428C28.0535 11.9638 28.1655 12.1724 28.3223 12.4654C28.1057 12.6839 27.9265 13.0018 27.6626 13.1011C27.0552 13.3345 26.8262 12.8428 26.5723 12.4555C26.8187 11.8421 27.1772 11.5391 27.934 11.7428Z" fill="#006C70"/>
<path d="M26.3729 18.4432C26.9106 18.3538 27.4159 18.1824 27.7221 18.7635C27.9039 19.1087 27.7072 19.3918 27.4508 19.6326C27.2168 19.8512 26.9454 19.9455 26.6641 19.7841C26.0841 19.4538 26.2932 18.9622 26.3754 18.4432H26.3729Z" fill="#006C70"/>
<path d="M2.9056 17.8496C3.20682 18.0309 3.41345 18.1526 3.57526 18.2494C3.81922 19.0391 3.43585 19.3694 2.76869 19.5208C2.30316 19.2924 2.02933 18.9422 2.22101 18.2767C2.39029 18.1699 2.61932 18.0284 2.9056 17.8496Z" fill="#006C70"/>
<path d="M21.8096 26.2457C21.7822 26.6704 21.3042 27.09 20.8959 27.0428C20.5275 27.0031 20.296 26.6877 20.3134 26.2532C20.3333 25.7838 20.6296 25.5281 21.1175 25.5603C21.5432 25.5877 21.8345 25.8757 21.8121 26.2432L21.8096 26.2457Z" fill="#006C70"/>
<path d="M24.5754 6.19584C25.0658 6.18343 25.3347 6.44417 25.3347 6.93336C25.3347 7.36545 25.0807 7.67585 24.7123 7.68827C24.3015 7.70317 23.8286 7.24625 23.836 6.839C23.841 6.47893 24.1572 6.20329 24.5779 6.19336L24.5754 6.19584Z" fill="#006C70"/>
<path d="M14.8466 28.3234C14.3513 28.3334 14.0874 28.0751 14.0899 27.5859C14.0899 27.1588 14.3513 26.8484 14.7197 26.8335C15.1255 26.8161 15.5985 27.2805 15.591 27.6852C15.5835 28.0478 15.2698 28.316 14.8491 28.3234H14.8466Z" fill="#006C70"/>
<path d="M17.0573 15.0089C16.8905 16.2108 16.2183 16.9259 14.9936 17.0973C13.7862 16.9284 13.0667 16.2629 12.8975 15.0312C13.0643 13.8368 13.7289 13.1167 14.9562 12.9453C16.1636 13.1142 16.8855 13.7797 17.0573 15.0089ZM14.9214 15.8954C15.3097 15.9326 15.8126 15.4906 15.8524 15.0759C15.8897 14.6885 15.4441 14.1844 15.0309 14.1472C14.6401 14.1124 14.1372 14.5545 14.0999 14.9667C14.0625 15.359 14.5031 15.8557 14.9214 15.8929V15.8954Z" fill="#006C70"/>
<path d="M11.1597 16.5065C10.0917 15.6846 8.55824 15.7764 7.63965 14.7856C7.78155 14.2815 8.05289 14.0729 8.41386 14.1971C9.49676 14.5696 10.5772 14.9495 11.6252 15.4089C12.3173 15.7119 12.5936 16.2905 12.3148 16.9287C11.8891 17.9021 11.3763 18.8457 10.8236 19.7546C10.4975 20.2935 10.2834 20.2488 9.64861 19.6975C9.9573 18.5676 10.9655 17.7407 11.1622 16.509L11.1597 16.5065Z" fill="#006C70"/>
<path d="M21.3866 13.3999C21.6106 13.5986 21.8197 13.7824 22.1284 14.058C21.8397 14.2865 21.6306 14.5249 21.3667 14.649C20.4804 15.0612 19.5743 15.4312 18.5561 15.8683C19.2556 17.0031 19.888 18.0337 20.5701 19.1387C20.4257 19.2852 20.2912 19.5112 20.0971 19.5931C19.7884 19.7272 19.527 19.5311 19.3652 19.2728C18.7926 18.3739 18.1877 17.4874 17.6948 16.5462C17.3363 15.8633 17.6176 15.1382 18.3246 14.7856C19.3154 14.2939 20.3385 13.8693 21.3866 13.3975V13.3999Z" fill="#006C70"/>
<path d="M13.6247 12.4837C13.077 13.2088 12.5667 13.5863 11.673 13.2237C11.0855 12.9853 10.3884 13.0201 9.75115 12.8885C9.318 12.8016 8.86741 12.6898 8.65332 12.218C8.74792 11.6518 9.13378 11.5972 9.57441 11.6792C10.1744 11.7909 10.7693 11.9349 11.3693 12.0516C11.7228 12.1187 12.0813 12.1584 12.5119 12.2205C12.6314 11.406 12.6389 10.6883 12.5069 9.96324C12.4422 9.60317 12.4049 9.23565 12.3949 8.87061C12.3825 8.48571 12.604 8.23242 12.9874 8.23242C13.3733 8.23242 13.5774 8.49316 13.5849 8.87558C13.6048 9.73975 13.6147 10.6039 13.6247 11.4656C13.6297 11.7934 13.6247 12.1237 13.6247 12.4837Z" fill="#006C70"/>
<path d="M12.7056 21.8752C12.4417 21.5723 12.2848 21.391 12.0732 21.1477C12.8076 20.137 13.5022 19.1288 14.259 18.1703C14.4681 17.9045 14.8639 17.7829 15.1153 17.6289C16.2779 18.066 18.008 19.6577 18.608 20.8323C18.4113 20.9862 18.1997 21.1526 17.9508 21.3488C17.072 20.4846 16.2256 19.6527 15.3493 18.7911C14.2614 19.695 13.8432 21.0458 12.7056 21.8752Z" fill="#006C70"/>
<path d="M15.8772 8.27637C16.7535 8.28382 16.7834 8.3012 16.8506 8.91208C16.9552 9.88302 17.0572 10.8565 17.1767 11.9565C17.8165 11.8299 18.4065 11.7281 18.989 11.5915C19.4271 11.4897 19.8503 11.3258 20.286 11.219C20.6768 11.1222 20.8934 11.3531 21.0727 11.6834C20.7067 12.5451 19.8952 12.5004 19.2031 12.6667C18.5285 12.8306 17.8513 12.9821 17.1742 13.141C16.2432 12.8207 15.9544 12.0559 15.8947 11.2116C15.8274 10.2679 15.8797 9.31684 15.8797 8.27885L15.8772 8.27637Z" fill="#006C70"/>
</g>
<defs>
<clipPath id="clip0_4128_5857">
<rect width="30" height="30" fill="white"/>
</clipPath>
</defs>
</svg>
