<svg width="24" height="24" viewBox="0 0 24 24" fill="none" xmlns="http://www.w3.org/2000/svg">
<g clip-path="url(#clip0_4128_9423)">
<path d="M23.8907 4.84627C23.8907 5.60186 23.9392 6.36352 23.8785 7.11609C23.7632 8.54838 23.0501 9.28273 21.6269 9.43142C20.9533 9.50122 20.2614 9.51032 19.5877 9.44053C18.0492 9.27666 17.1996 8.47251 17.0145 6.83994C16.9265 6.07221 16.708 5.72931 15.9342 5.7991C15.7096 5.82035 15.479 5.79303 15.2544 5.80517C14.5838 5.83855 13.7918 5.68683 13.285 5.99331C12.9573 6.19359 13.0544 7.07664 12.933 7.64713C12.8875 7.86258 12.7995 8.0841 12.6751 8.26313C12.5143 8.49982 12.1956 8.91252 12.1198 8.87914C11.8103 8.73348 11.4704 8.49679 11.3278 8.20244C11.1427 7.81706 11.1214 7.34671 11.0486 6.90974C11.0122 6.68822 11.1062 6.37263 10.9849 6.24518C10.117 5.32875 9.00029 5.98724 8.00497 5.83552C7.53158 5.76269 7.03696 5.87497 7.06427 6.49401C7.12192 7.77154 6.65157 8.69707 5.41349 9.12797C4.02368 9.61046 2.62477 9.68632 1.24103 9.07031C0.445984 8.71527 0.178946 7.99306 0.148601 7.2405C0.084876 5.65345 0.0575654 4.06033 0.15467 2.47631C0.242671 1.05312 1.18337 0.0820726 2.6278 0.0153132C3.6565 -0.0332391 4.7641 0.106349 5.71998 0.470491C6.69709 0.840702 7.0582 1.82085 7.0491 2.89811C7.04303 3.49591 7.50427 3.61425 7.99283 3.59301C9.63754 3.51411 11.2701 4.14226 12.93 3.62942C13.3457 3.50197 13.8312 3.59301 14.2864 3.61122C15.0299 3.6446 15.9463 3.98143 16.4591 3.6628C16.9265 3.37149 16.9113 2.35796 17.1905 1.69947C17.4939 0.986359 17.9491 0.370352 18.8079 0.267178C19.7 0.157936 20.6073 -0.0575152 21.4873 0.0213823C22.9014 0.151867 23.7663 1.15326 23.8785 2.58252C23.9362 3.33508 23.8876 4.09371 23.8907 4.85233V4.84627ZM21.9729 4.6824C21.9729 4.6824 21.9668 4.6824 21.9638 4.6824C21.9638 4.0755 22.0093 3.46556 21.9395 2.86776C21.9122 2.6341 21.6664 2.30941 21.4509 2.23658C19.7637 1.66913 18.9171 2.26693 18.8959 3.99964C18.8868 4.83413 18.8473 5.67165 18.9201 6.50008C18.9474 6.8187 19.175 7.26174 19.436 7.39223C20.8228 8.07803 21.9334 7.36492 21.9729 5.82338C21.982 5.44407 21.9729 5.06475 21.9729 4.68544V4.6824ZM5.11004 4.89178H5.11611C5.11611 4.5155 5.11914 4.13922 5.11611 3.76294C5.10195 2.69075 4.55978 2.15465 3.48961 2.15465C2.08462 2.15465 2.07249 2.15465 2.03911 3.48377C2.01483 4.38502 2.05124 5.2893 2.03304 6.19056C2.0209 6.79139 2.206 7.10395 2.86146 7.27995C4.74286 7.78975 5.09183 7.56216 5.11611 5.56545C5.11611 5.34089 5.11611 5.1133 5.11611 4.88875L5.11004 4.89178Z" fill="#ACB7B7"/>
<path d="M0.139735 19.4543C0.139735 18.6229 0.0638724 17.7823 0.154908 16.9599C0.312703 15.5398 1.11988 14.8024 2.5279 14.6932C3.04377 14.6537 3.56874 14.7326 4.09068 14.7356C5.96601 14.7417 6.64878 15.2212 6.98864 17.1268C7.12216 17.8855 7.33154 18.2162 8.09017 18.1677C8.46645 18.1434 8.84577 18.1555 9.22508 18.1737C10.269 18.2243 10.8748 17.7287 11.0428 16.6868C11.0792 16.4653 11.0549 16.1649 11.1884 16.0435C11.4949 15.7643 11.8621 15.4609 12.2414 15.4002C12.4204 15.3698 12.7997 15.8402 12.8877 16.1406C13.0091 16.5624 12.9302 17.0419 12.9666 17.494C13.0182 18.1343 13.3004 18.4681 14.0075 18.2708C14.2927 18.1919 14.6022 18.1798 14.9027 18.1798C15.4883 18.1768 16.247 18.4256 16.6141 18.1495C16.9752 17.8733 16.8903 17.0601 17.0875 16.5139C17.4456 15.5307 18.0495 14.8752 19.2208 14.7903C22.7135 14.5384 24.0578 14.7326 23.8879 18.723C23.8454 19.7062 23.9304 20.6924 23.8636 21.6725C23.7726 23.0229 23.3538 23.5175 22.0216 23.8088C21.2964 23.9666 20.5256 24.0334 19.7852 23.9939C18.0616 23.8999 17.2332 23.1534 17.0117 21.3812C16.9146 20.5983 16.6505 20.3525 15.898 20.3616C13.3247 20.395 10.7514 20.4163 8.18121 20.3738C7.27389 20.3586 6.99168 20.6954 7.01292 21.5603C7.04933 22.9379 6.10256 23.5509 4.94338 23.8695C4.44572 24.0061 3.8995 23.997 3.37757 24.0031C0.661672 24.0243 -0.0635774 22.8317 0.115459 20.8198C0.154908 20.3707 0.121528 19.9125 0.121528 19.4573H0.136701L0.139735 19.4543ZM21.9701 19.248H21.9761C21.9761 19.0204 21.9761 18.7928 21.9761 18.5652C21.961 16.6747 21.961 16.7081 20.0917 16.7354C19.2633 16.7475 18.8202 16.9296 18.8809 17.8824C18.9507 18.9384 18.8748 20.0036 18.8961 21.0656C18.9082 21.6786 19.1722 21.9214 19.8732 21.9851C21.8396 22.1702 21.9397 22.1429 21.967 20.1583C21.9731 19.8549 21.967 19.5514 21.967 19.248H21.9701ZM5.11028 19.3208C5.11028 19.3208 5.11028 19.3208 5.11331 19.3208C5.11331 18.7958 5.08297 18.2708 5.11938 17.7489C5.18007 16.9296 4.7431 16.705 4.02999 16.7414C3.7326 16.7566 3.42915 16.7566 3.13177 16.7323C2.40349 16.6717 2.00293 16.9266 2.02417 17.7277C2.05452 18.7746 2.03327 19.8245 2.03327 20.8714C2.03327 21.3752 2.20017 21.6574 2.75852 21.797C4.822 22.3128 5.09207 22.1247 5.11028 19.9945C5.11028 19.7699 5.11028 19.5453 5.11028 19.3208Z" fill="#ACB7B7"/>
<path d="M13.2638 14.5234C12.9786 14.32 12.5295 13.7647 12.0561 13.7404C11.5857 13.7162 11.1215 14.3565 10.5995 14.4778C9.89248 14.6417 9.30986 13.7981 9.76807 13.1305C10.2597 12.4113 10.6906 11.9592 9.79841 11.243C9.62241 11.1004 9.74683 10.1597 9.95014 10.0717C10.3477 9.89571 11.1063 9.8593 11.3399 10.1142C11.8528 10.6665 12.0591 10.9487 12.6205 10.1506C12.8026 9.88964 13.6887 9.81075 14.0073 10.0201C14.5687 10.3934 14.5262 11.1823 14.0164 11.5617C13.1819 12.1777 13.7342 12.3385 14.1256 12.8453C14.6992 13.5918 14.2713 14.5234 13.2669 14.5264L13.2638 14.5234Z" fill="#ACB7B7"/>
</g>
<defs>
<clipPath id="clip0_4128_9423">
<rect width="23.8179" height="24" fill="white" transform="translate(0.0910645)"/>
</clipPath>
</defs>
</svg>
