<svg width="24" height="24" viewBox="0 0 24 24" fill="none" xmlns="http://www.w3.org/2000/svg">
<g clip-path="url(#clip0_4128_9419)">
<path d="M2.17928 19.0237C2.22358 17.5865 1.96052 16.1106 2.68603 14.7593C2.91309 14.3356 2.91033 14.0116 2.49496 13.6987C2.07959 13.3886 2.15989 13.0092 2.43681 12.6215C2.72756 12.2144 3.11247 12.0954 3.51123 12.3418C4.6798 13.0701 4.92348 12.364 5.08686 11.4086C5.56315 8.5952 6.52957 7.76447 9.28485 7.7617C11.2205 7.7617 13.1533 7.74508 15.0889 7.75893C17.271 7.77554 18.0021 8.35429 18.5725 10.4422C18.6805 10.841 18.8162 11.2314 18.9602 11.6219C19.1928 12.2588 19.298 13.0673 20.317 12.3335C20.7656 12.0095 21.2558 12.292 21.5742 12.7184C21.8982 13.1476 21.7127 13.4661 21.3084 13.7347C20.9706 13.959 20.8792 14.3578 21.0952 14.6374C22.236 16.1161 21.6878 17.8275 21.7958 19.4419C21.8456 20.1978 21.7681 20.9621 21.8096 21.7209C21.8511 22.4298 21.4828 22.9143 21.0093 23.3242C19.7189 24.4457 16.6396 24.1134 15.7009 22.6485C15.2745 21.9839 14.7954 21.9036 14.164 21.9008C12.9207 21.8953 11.6746 21.9202 10.434 21.8732C9.42608 21.8344 8.6618 22.0199 8.00275 22.9587C7.20801 24.0885 4.15366 24.346 3.03217 23.5236C2.45065 23.0971 2.18205 22.4602 2.18482 21.7236C2.18482 20.8264 2.18482 19.9265 2.18482 19.0293L2.17928 19.0237ZM12.0041 15.3048C12.0041 15.3048 12.0041 15.3186 12.0041 15.3242C9.86914 15.3242 7.73137 15.3602 5.59638 15.3076C4.53303 15.2826 4.03736 15.8198 3.99028 16.7503C3.91829 18.193 3.96813 19.644 3.96259 21.0895C3.95705 22.1805 4.83764 21.9341 5.44961 22.0642C6.12528 22.2082 6.77879 22.1528 6.72618 21.2446C6.66526 20.1508 7.31046 19.9846 8.14951 19.9818C10.6279 19.9763 13.109 19.8351 15.5874 20.04C16.4458 20.112 17.1242 20.1701 17.3208 21.3359C17.5092 22.4574 18.6777 22.0255 19.406 22.0338C20.1758 22.0421 20.0152 21.2695 20.0235 20.7434C20.0401 19.6412 20.0567 18.5364 20.0291 17.4342C19.982 15.6122 19.7051 15.338 17.7944 15.3048C15.8643 15.2716 13.9342 15.2965 12.0069 15.2965L12.0041 15.3048ZM11.8269 13.4938C11.8269 13.4938 11.8269 13.5076 11.8269 13.5159C12.8626 13.5159 13.8954 13.5187 14.9311 13.5159C17.6919 13.5049 17.6061 13.527 16.8916 10.9462C16.587 9.84131 16.072 9.4924 15.0252 9.51455C12.9567 9.55332 10.8854 9.51455 8.81687 9.55055C7.54307 9.5727 7.10832 9.97423 6.88956 11.1954C6.82864 11.5332 6.85356 11.8849 6.80095 12.2228C6.60711 13.4689 6.60157 13.4772 7.89475 13.491C9.20455 13.5049 10.5143 13.4938 11.8269 13.4938Z" fill="#ACB7B7"/>
<path d="M11.9987 1.90231C10.2126 1.90231 8.42371 1.90785 6.63763 1.89677C6.2278 1.89677 5.80966 1.86354 5.41091 1.78324C4.92077 1.68632 4.4251 1.43986 4.37249 0.910962C4.30603 0.262987 4.94293 0.246372 5.37768 0.0968391C5.56598 0.0359183 5.7792 0.00268884 5.98412 0.00268884C9.97442 -0.00284941 13.9647 -0.00284941 17.9578 0.00268884C18.16 0.00268884 18.3676 0.0553022 18.5642 0.102377C18.9935 0.207604 19.3202 0.412519 19.3147 0.927576C19.3091 1.42048 19.035 1.73616 18.5892 1.77493C17.4954 1.87185 16.3988 1.92169 15.3022 1.94938C14.2029 1.97707 13.1008 1.95492 12.0014 1.95492C12.0014 1.93554 12.0014 1.91892 12.0014 1.89954L11.9987 1.90231Z" fill="#ACB7B7"/>
<path d="M9.25995 3.56917C9.3181 4.08699 8.38213 5.30541 7.86154 5.35248C7.33817 5.39956 6.90065 5.24449 6.81204 4.64636C6.74281 4.17007 7.73416 2.90735 8.20768 2.82704C8.68674 2.74674 9.2101 3.11226 9.25995 3.5664V3.56917Z" fill="#ACB7B7"/>
<path d="M12.677 4.90132C12.605 5.39977 12.8431 6.12251 12.0179 6.16958C11.0654 6.22497 10.9546 5.52992 10.9241 4.77671C10.8937 4.05397 11.0681 3.51399 11.8961 3.52507C12.8764 3.53892 12.6244 4.31704 12.677 4.90132Z" fill="#ACB7B7"/>
<path d="M16.8224 4.63002C16.8224 5.13954 16.5621 5.36938 16.0664 5.34446C15.4212 5.31123 14.6625 4.32542 14.7289 3.57499C14.7705 3.11254 15.0612 2.83563 15.5292 2.8384C16.191 2.8384 16.8805 3.8159 16.8224 4.63002Z" fill="#ACB7B7"/>
<path d="M15.8587 16.7894C16.504 16.7894 16.7144 16.7645 16.9166 16.7949C17.4344 16.8725 18.2153 16.734 18.2513 17.4318C18.2845 18.0936 17.6587 18.473 16.983 18.5256C16.299 18.581 15.6095 18.5949 14.956 18.3124C14.549 18.1352 14.261 17.8638 14.3136 17.382C14.3606 16.9417 14.7317 16.8835 15.0668 16.842C15.4738 16.7894 15.8864 16.7894 15.8587 16.7922V16.7894Z" fill="#ACB7B7"/>
<path d="M7.65379 16.7364C7.8587 16.7364 8.06916 16.7087 8.26854 16.7419C8.7199 16.8167 9.27096 16.7558 9.32911 17.4425C9.38726 18.168 8.91374 18.42 8.33223 18.481C7.59287 18.5585 6.80921 18.7053 6.128 18.2982C5.79571 18.0988 5.4828 17.7471 5.61294 17.2708C5.72094 16.8776 6.08923 16.825 6.42707 16.7946C6.83413 16.7558 7.24673 16.7502 7.65656 16.7336L7.65379 16.7364Z" fill="#ACB7B7"/>
</g>
<defs>
<clipPath id="clip0_4128_9419">
<rect width="19.6636" height="24" fill="white" transform="translate(2.16821)"/>
</clipPath>
</defs>
</svg>
