<svg width="24" height="24" viewBox="0 0 24 24" fill="none" xmlns="http://www.w3.org/2000/svg">
<g clip-path="url(#clip0_4128_9439)">
<path d="M0.158123 13.2142C0.128029 11.6463 -0.0886478 9.50959 1.7501 7.92063C1.81631 7.86345 1.73806 7.47524 1.63273 7.41505C1.31674 7.2405 0.874362 7.23749 0.633609 7.00878C0.398876 6.78608 0.152105 6.24439 0.266462 6.05781C0.456054 5.75085 0.910474 5.5763 1.28665 5.42282C1.47022 5.34759 1.7501 5.39574 1.94571 5.48C2.35198 5.65756 2.73417 5.89831 3.1254 6.11198C3.32703 5.55223 3.55574 5.00151 3.71825 4.43273C3.7995 4.15285 3.72728 3.83085 3.77543 3.53593C4.0854 1.63699 5.63825 0.138309 7.57931 0.0781213C10.2065 -0.00313266 12.8458 -0.0512831 15.47 0.0991871C17.1733 0.195488 18.9308 1.19461 19.2167 3.54195C19.2618 3.90909 19.334 4.27624 19.4394 4.62834C19.8065 5.82909 19.8155 5.82909 21.0464 5.5432C21.1908 5.5101 21.3473 5.40477 21.4737 5.43486C21.883 5.54019 22.4428 5.57329 22.6444 5.85317C23.0025 6.34671 22.7046 6.8553 22.202 7.16828C22.0154 7.28263 21.7656 7.29768 21.5821 7.41204C21.23 7.63173 21.0885 7.74006 21.5249 8.19147C22.4127 9.10332 22.9965 10.2138 22.837 11.6071C22.7587 12.2933 22.6534 12.7628 21.8349 12.7567C21.1577 12.7537 20.9862 12.4137 20.8959 11.7937C20.5258 9.19963 19.8998 8.67599 17.2365 8.66997C13.4025 8.65793 9.56853 8.65793 5.73455 8.66997C3.02609 8.679 2.09317 9.6089 2.0691 12.2843C2.05706 13.5633 2.1022 14.8423 2.05405 16.1182C2.02395 16.9187 2.35499 17.2016 3.11336 17.1475C3.56176 17.1144 4.01618 17.1234 4.46458 17.1535C5.1748 17.1986 5.65029 17.0211 5.56301 16.1784C5.53894 15.9557 5.57505 15.727 5.55699 15.5013C5.49982 14.752 5.79474 14.4149 6.58922 14.433C8.31662 14.4691 10.047 14.454 11.7744 14.433C12.4726 14.424 12.927 14.5624 12.8939 15.411C12.8608 16.2687 12.3372 16.35 11.6811 16.3349C11.0793 16.3199 10.4774 16.344 9.8785 16.3229C8.62057 16.2808 7.46195 16.1995 7.01656 17.8787C6.78784 18.7364 5.92414 19.224 4.85881 19.0675C4.19674 18.9712 3.50759 19.0614 2.83047 19.0494C1.18734 19.0193 0.254424 18.1255 0.167152 16.4493C0.119001 15.5495 0.158123 14.6466 0.158123 13.2232V13.2142ZM11.3501 6.75298V6.76201C12.7735 6.76201 14.2 6.79511 15.6235 6.74696C16.3397 6.72289 17.0529 6.55436 17.7661 6.44903C17.6247 5.88025 17.4803 5.30847 17.3478 4.73668C17.3147 4.59223 17.3298 4.43875 17.3087 4.28828C17.0951 2.75649 16.7008 2.28101 15.3045 2.25392C12.7555 2.20276 10.2035 2.20878 7.65455 2.26295C6.3575 2.29003 5.90308 2.8227 5.66533 4.19198C5.57806 4.69756 5.42157 5.19411 5.3012 5.69668C5.10257 6.52727 5.238 6.72589 6.17392 6.74094C7.89831 6.76803 9.6227 6.74997 11.3471 6.74997L11.3501 6.75298Z" fill="#ACB7B7"/>
<path d="M18.401 24.0001C17.7058 23.9098 16.6526 23.8918 15.6655 23.6179C13.6161 23.0491 13.1647 21.6437 14.3052 19.799C15.0034 18.6735 15.6534 17.5209 16.3426 16.3923C17.8563 13.9096 19.668 14.3038 21.0312 16.0342C21.9732 17.2289 22.7586 18.5621 23.4779 19.9073C24.4168 21.6648 23.5832 23.4163 21.6361 23.8015C20.6972 23.9881 19.7101 23.9309 18.398 24.0061L18.401 24.0001ZM19.1684 21.731C19.1684 21.731 19.1684 21.74 19.1684 21.7461C19.7673 21.7461 20.3662 21.7701 20.965 21.74C21.7354 21.7009 21.9641 21.394 21.6512 20.78C21.0794 19.6636 20.5046 18.541 19.8425 17.4757C19.2948 16.594 18.4762 16.5879 17.8894 17.4516C17.1461 18.5471 16.4931 19.7027 15.8069 20.8372C15.4608 21.412 15.7678 21.6949 16.3035 21.719C17.2574 21.7641 18.2144 21.731 19.1684 21.731Z" fill="#ACB7B7"/>
<path d="M6.70366 10.4004C6.85112 10.4004 7.00159 10.4004 7.14905 10.4004C7.79306 10.3883 8.34679 10.4997 8.38591 11.3122C8.42203 12.0585 7.98265 12.6424 7.19419 12.5852C6.3335 12.525 5.45475 12.3173 4.65425 11.9953C4.03733 11.7456 4.11256 10.8126 4.74453 10.614C5.36447 10.4214 6.04159 10.4154 6.69463 10.3281C6.69764 10.3522 6.70065 10.3793 6.70366 10.4034V10.4004Z" fill="#ACB7B7"/>
<path d="M16.8784 12.3477C16.1411 12.3116 15.6686 12.3748 15.2684 12.2364C14.9975 12.1431 14.6364 11.7489 14.6545 11.5141C14.6815 11.156 14.9494 10.5662 15.1992 10.518C15.9846 10.3706 16.8122 10.3796 17.6157 10.4247C18.2627 10.4608 18.8044 10.8641 18.7503 11.5352C18.6991 12.2123 18.0882 12.4561 17.4502 12.4531C17.1613 12.4531 16.8754 12.3477 16.8754 12.3477H16.8784Z" fill="#ACB7B7"/>
</g>
<defs>
<clipPath id="clip0_4128_9439">
<rect width="23.7322" height="24" fill="white" transform="translate(0.134033)"/>
</clipPath>
</defs>
</svg>
