<svg width="24" height="24" viewBox="0 0 24 24" fill="none" xmlns="http://www.w3.org/2000/svg">
<g clip-path="url(#clip0_4128_9455)">
<path d="M22.0598 9.98688C22.0598 8.06028 22.0405 6.13367 22.0681 4.20982C22.0791 3.47496 22.046 2.61074 22.902 2.31349C23.4194 2.13459 23.9781 3.09789 23.9864 4.25385C24.0084 8.10431 24.0002 11.9575 23.9892 15.808C23.9892 16.7162 23.7029 17.5722 23.2846 18.3649C22.6075 19.6502 21.6387 20.5172 20.0616 20.4511C19.3763 20.4236 18.6855 20.4594 17.9974 20.4566C17.3781 20.4566 16.8167 20.4786 16.2607 20.9052C15.4268 21.5465 14.4222 21.7254 13.3515 21.7006C11.2213 21.6539 9.08548 21.6511 6.95521 21.7061C6.09099 21.7282 5.20475 21.6126 4.61851 21.0951C3.96622 20.5172 3.32493 20.4539 2.56255 20.4511C0.732272 20.4456 0.286401 20.2117 0.0744741 19.2484C-0.253049 17.7539 0.462547 16.1548 1.73686 15.6043C2.04236 15.4722 2.39741 15.4364 2.73319 15.4006C3.27814 15.3401 3.36897 14.9933 3.36071 14.5364C3.3497 13.9887 3.01117 13.8484 2.54879 13.8456C2.47998 13.8456 2.41117 13.8456 2.34236 13.8428C0.371722 13.6695 0.151538 13.5126 0.0579603 12.2162C-0.0658929 10.5098 0.737777 8.96028 2.13594 8.91073C4.25246 8.83642 6.11025 7.6144 8.3286 7.90615C10.4259 8.18138 12.5864 7.9667 14.7167 7.96945C15.0635 7.96945 15.4598 7.9667 15.669 8.25569C16.2249 9.02908 17.0231 8.74835 17.747 8.8089C18.4268 8.8667 18.7598 8.59147 18.7405 7.86486C18.7103 6.83551 18.735 5.80064 18.746 4.77129C18.7515 4.22358 18.6882 3.67037 18.9194 3.14468C19.0791 2.78413 19.0956 2.26395 19.646 2.29973C19.9983 2.32174 20.2625 2.61349 20.3974 2.93826C20.5268 3.24927 20.6616 3.5878 20.6644 3.91532C20.6892 5.70431 20.7139 7.4933 20.6644 9.27954C20.6341 10.3254 20.3809 10.4961 19.2414 10.5594C18.8286 10.5814 18.4158 10.5511 18.0029 10.5759C17.3616 10.6144 17.2515 11.1208 17.2405 11.6025C17.2295 12.0566 17.6396 12.0786 17.9836 12.1034C18.1213 12.1117 18.2589 12.1172 18.3965 12.1089C19.335 12.0539 20.1992 12.1199 20.5736 13.2043C20.9038 14.1649 20.4937 16.3777 19.8387 16.9199C19.3681 17.308 18.7818 17.1566 18.2479 17.1566C17.6561 17.1566 17.3286 17.4098 17.2901 17.9768C17.2433 18.6759 17.7607 18.6786 18.2616 18.7199C21.2919 18.9676 22.0378 18.2768 22.0625 15.1584C22.0681 14.2639 22.0543 13.3695 22.0515 12.475C22.0515 11.6493 22.0515 10.8236 22.0515 9.99789H22.057L22.0598 9.98688ZM10.4451 9.69514C9.20934 9.69789 7.97356 9.67037 6.73778 9.70615C5.42768 9.74468 5.15796 9.98963 5.13869 11.275C5.10567 13.5401 5.12218 15.8052 5.13869 18.0704C5.1497 19.5291 5.45246 19.9006 6.91117 19.9364C9.24236 19.9942 11.5791 19.9887 13.913 19.9392C15.0304 19.9172 15.3855 19.5649 15.4158 18.4172C15.4791 16.0172 15.4873 13.6117 15.446 11.2117C15.4268 10.0447 15.0139 9.72817 13.7396 9.69789C12.6414 9.67312 11.5433 9.69239 10.4451 9.69239V9.69514ZM18.0745 15.3896C18.6635 15.4144 18.9607 15.1061 18.9304 14.5309C18.9057 14.03 18.5534 13.8676 18.0965 13.8566C17.502 13.8428 17.2048 14.1483 17.2295 14.7153C17.2515 15.2162 17.6121 15.3841 18.0745 15.3869V15.3896ZM3.36071 11.2639C3.36897 10.7438 3.11576 10.5126 2.60658 10.5841C2.0231 10.6639 1.82218 11.0603 1.8497 11.5887C1.87447 12.0236 2.2075 12.0841 2.5653 12.1144C3.20108 12.1667 3.4075 11.8364 3.36071 11.2667V11.2639ZM2.7497 17.1704C2.17998 17.1814 1.87998 17.4759 1.83869 18.0401C1.79741 18.6043 2.16622 18.7061 2.61484 18.7199C3.1075 18.7364 3.37447 18.5273 3.36897 18.0098C3.36346 17.5777 3.32769 17.1786 2.7497 17.1676V17.1704Z" fill="#ACB7B7"/>
<path d="M10.3183 17.1402C9.36601 17.1402 8.41372 17.1485 7.46142 17.1347C7.10638 17.1292 6.78986 17.0218 6.72105 16.6007C6.6495 16.1521 6.78161 15.7778 7.20271 15.5879C7.44216 15.4778 7.72289 15.4228 7.98711 15.42C9.48436 15.4035 10.9789 15.409 12.4761 15.4062C12.8945 15.4062 13.2908 15.464 13.5715 15.8246C13.7807 16.0943 14.0091 16.364 13.833 16.7329C13.7064 16.9998 13.4587 17.1209 13.1724 17.1237C12.2201 17.1319 11.2678 17.1264 10.3156 17.1264C10.3156 17.1319 10.3156 17.1347 10.3156 17.1402H10.3183Z" fill="#ACB7B7"/>
<path d="M10.3595 13.8292C9.40723 13.8292 8.45494 13.8374 7.50264 13.8264C7.05677 13.8209 6.70173 13.6696 6.69897 13.1301C6.69897 12.6512 6.96044 12.3705 7.3898 12.2494C7.64576 12.1751 7.92375 12.1448 8.19072 12.142C9.55035 12.1283 10.9127 12.1173 12.2724 12.1338C12.6026 12.1365 12.9659 12.1806 13.2522 12.3237C13.6265 12.5108 13.8577 12.8714 13.7779 13.3283C13.7036 13.7466 13.3623 13.8292 13.01 13.8347C12.1265 13.8485 11.2403 13.8402 10.3568 13.8402V13.8347L10.3595 13.8292Z" fill="#ACB7B7"/>
</g>
<defs>
<clipPath id="clip0_4128_9455">
<rect width="24" height="19.4174" fill="white" transform="translate(0 2.2915)"/>
</clipPath>
</defs>
</svg>
