<svg width="24" height="24" viewBox="0 0 24 24" fill="none" xmlns="http://www.w3.org/2000/svg">
<g clip-path="url(#clip0_4128_9435)">
<path d="M16.603 11.0656C16.603 13.6397 16.5784 16.2139 16.6153 18.785C16.6307 19.8328 16.1852 20.3476 15.1439 20.3537C11.4577 20.3688 7.77464 20.3809 4.08848 20.384C3.041 20.384 2.59866 19.854 2.6048 18.8153C2.63245 13.5913 2.60787 8.37034 2.65088 3.14636C2.66316 1.64428 3.7813 0.435952 5.57523 0.236078C8.24156 -0.0607041 10.9478 -0.10613 13.6111 0.257277C15.7583 0.551031 16.5815 1.65337 16.603 3.79747C16.6245 6.22018 16.6092 8.64289 16.6092 11.0656H16.6061H16.603ZM4.62297 10.4811H4.61376C4.61376 12.5919 4.67212 14.7088 4.59226 16.8165C4.54618 18.0036 4.97316 18.4276 6.16809 18.3973C8.61325 18.3307 11.0615 18.3428 13.5066 18.3701C14.4804 18.3822 14.6248 17.8613 14.6217 17.077C14.6063 12.7766 14.634 8.47633 14.6033 4.17904C14.594 2.70725 14.1947 2.27419 12.7202 2.22876C10.656 2.16213 8.5856 2.16516 6.52442 2.23784C4.89944 2.29538 4.64755 2.63154 4.62605 4.37286C4.60147 6.40794 4.6199 8.44605 4.6199 10.4842L4.62297 10.4811Z" fill="#ACB7B7"/>
<path d="M12.1521 23.9911C9.00353 23.9911 5.85493 23.9911 2.70633 23.9911C2.02132 23.9911 1.33016 24.088 0.678942 23.7367C0.328756 23.546 -0.0460041 23.3612 0.00314477 22.9312C0.0492218 22.5405 0.362546 22.2256 0.752665 22.1559C1.50218 22.0257 2.27014 21.9015 3.02887 21.9015C9.16941 21.8864 15.3099 21.9015 21.4505 21.9076C21.9112 21.9076 22.3751 21.9046 22.8297 21.947C23.398 22.0015 23.8772 22.2014 23.9356 22.8737C23.9939 23.5641 23.5086 23.8276 22.971 23.9306C22.4519 24.0305 21.902 24.0002 21.3645 24.0032C18.2927 24.0093 15.2209 24.0032 12.1491 24.0032V23.9942L12.1521 23.9911Z" fill="#ACB7B7"/>
<path d="M23.9754 12.3496C23.9754 13.6366 23.9938 14.9237 23.9723 16.2077C23.9416 18.0369 23.1122 18.9969 21.521 19.1029C20.0281 19.2058 18.6028 18.2186 18.4093 16.6771C18.2311 15.2598 18.3386 13.8062 18.3663 12.3708C18.3786 11.65 18.8485 11.2351 19.5551 11.2714C20.2923 11.3078 20.2739 11.9377 20.2861 12.4646C20.3076 13.3732 20.2831 14.2817 20.3138 15.1872C20.3291 15.6323 20.3629 16.0957 20.4981 16.5166C20.6179 16.8831 20.9558 17.1314 21.3858 17.1041C21.8712 17.0708 21.9818 16.6983 22.0033 16.3077C22.0279 15.8534 22.0156 15.3991 22.0156 14.9449C22.0156 14.0364 21.9234 13.1188 22.0248 12.2224C22.3627 9.2182 21.8958 6.54716 19.1311 4.71801C19.0052 4.63624 18.9161 4.503 18.8086 4.397C18.3847 3.97606 18.1605 3.48848 18.6397 3.01303C19.1281 2.52848 19.6994 2.47397 20.237 3.01303C21.18 3.96091 22.12 4.91486 23.0846 5.84457C23.7143 6.45328 24.0491 7.11952 24.0061 8.03107C23.9354 9.46653 23.9877 10.905 23.9877 12.3435H23.9815L23.9754 12.3496Z" fill="#ACB7B7"/>
<path d="M9.42742 7.60449C10.0233 7.66809 10.137 8.08298 10.1431 8.56752C10.1524 9.15503 9.98342 9.85156 10.9234 9.8879C12.2842 9.93938 12.0876 10.8752 11.8726 11.6595C11.7006 12.2924 11.2981 12.8769 10.9449 13.4493C10.6654 13.9005 10.2783 14.3608 9.68852 14.2518C8.99429 14.1246 9.03116 13.4765 9.07109 12.9678C9.13253 12.2046 8.84992 11.8442 8.06661 11.8321C7.64577 11.8261 7.3816 11.602 7.28944 11.1659C7.11435 10.3543 8.2417 7.99818 8.98508 7.69534C9.12331 7.64083 9.27997 7.63175 9.42742 7.60449Z" fill="#ACB7B7"/>
</g>
<defs>
<clipPath id="clip0_4128_9435">
<rect width="24" height="24" fill="white"/>
</clipPath>
</defs>
</svg>
