<svg width="24" height="24" viewBox="0 0 24 24" fill="none" xmlns="http://www.w3.org/2000/svg">
<g clip-path="url(#clip0_4128_9443)">
<path d="M11.9861 0.199443C13.5676 0.199443 15.1574 0.31771 16.7251 0.17744C20.9937 -0.204866 23.7386 2.89484 23.8954 6.83891C24.0302 10.2687 24.0412 13.7149 23.8844 17.1419C23.7799 19.4275 22.9657 21.4985 20.8232 22.8022C19.8055 23.4211 18.7549 23.8226 17.5695 23.8254C13.7904 23.8336 10.0086 23.8969 6.23231 23.8116C2.60453 23.7291 0.0219051 20.9622 0.0109034 17.3069C-9.8154e-05 13.6654 -0.00559896 10.0239 0.0109034 6.38234C0.0274059 2.95534 2.79981 0.207694 6.21306 0.202193C8.13834 0.202193 10.0609 0.202193 11.9861 0.199443ZM1.77666 11.8061C1.77666 13.5939 1.77116 15.3817 1.77666 17.1694C1.78491 20.0848 3.50391 21.9936 6.38633 22.0596C10.0279 22.1421 13.6721 22.0926 17.3164 22.0734C18.5101 22.0651 19.5773 21.6691 20.4849 20.8495C21.5851 19.8566 21.9674 18.5914 21.9729 17.1694C21.9866 14.144 21.9921 11.1213 21.9894 8.09584C21.9894 7.40824 22.0086 6.71514 21.9233 6.03579C21.5795 3.3569 19.9651 1.9432 17.2779 1.9377C13.6336 1.9322 9.99211 1.9377 6.34783 1.94595C5.59972 1.94595 4.90662 1.97895 4.19701 2.43552C2.54952 3.49442 1.7189 4.89713 1.76841 6.86091C1.80967 8.51115 1.77666 10.1614 1.77666 11.8116V11.8061Z" fill="#ACB7B7"/>
<path d="M11.934 6.88047C13.51 6.90522 15.053 6.91898 16.3952 5.84357C16.9673 5.38425 17.7236 5.52452 18.3865 5.62904C19.4014 5.79131 19.8772 6.3909 19.9074 7.46906C19.9404 8.63248 19.9487 9.79865 19.9129 10.9621C19.8772 12.208 19.7012 12.4913 18.3782 12.6481C17.5779 12.7443 17.3551 13.0991 17.1818 13.762C16.959 14.6146 16.7857 15.5332 16.3319 16.2621C15.163 18.1351 13.5513 19.271 11.1804 19.3343C8.80957 19.3948 6.89254 18.7319 5.56685 16.7379C3.04748 12.9534 4.80499 8.42895 8.87558 6.92723C9.77771 6.59443 10.9081 6.87772 11.934 6.87772V6.88047ZM11.692 8.57472C10.9989 8.69849 9.96749 8.34368 8.9691 8.81675C6.99706 9.75189 5.88039 11.8917 6.29571 14.0288C6.71377 16.1878 8.63905 17.6455 10.7954 17.6153C13.356 17.5795 15.3803 15.7753 15.383 12.7306C15.383 11.9742 14.943 11.8009 14.3131 11.8477C13.7135 11.8945 13.8483 12.2575 13.8456 12.7113C13.8401 15.3737 11.3399 17.0129 9.23588 15.7835C8.29525 15.2334 7.48938 13.5447 7.73417 12.6398C8.17698 11.0033 9.19188 10.1232 10.7156 10.0984C11.8818 10.0792 13.0507 10.0984 14.2169 10.0874C14.7587 10.0819 14.8797 9.72163 14.8632 9.25682C14.8495 8.86076 14.6844 8.58847 14.2691 8.58022C13.5155 8.56097 12.7591 8.57472 11.692 8.57472ZM18.1609 9.12205H18.1554C18.1554 8.71774 18.1719 8.31068 18.1499 7.90637C18.1307 7.49656 17.8721 7.33979 17.4761 7.33429C17.025 7.32879 16.6537 7.4223 16.6427 7.96138C16.6262 8.77275 16.6207 9.58411 16.651 10.3927C16.673 10.9566 17.1268 10.9566 17.5366 10.9593C17.9437 10.9593 18.1472 10.731 18.1582 10.3377C18.1692 9.93342 18.1582 9.52636 18.1582 9.12205H18.1609ZM10.7073 11.8587C10.0252 11.8724 9.44216 12.5023 9.54668 13.1899C9.64844 13.8582 10.0307 14.268 10.7761 14.257C11.5517 14.2433 12.0963 13.7455 12.0578 13.0386C12.0193 12.329 11.4637 11.8422 10.7073 11.8587Z" fill="#ACB7B7"/>
</g>
<defs>
<clipPath id="clip0_4128_9443">
<rect width="24" height="23.7112" fill="white" transform="translate(0 0.144531)"/>
</clipPath>
</defs>
</svg>
