<svg width="24" height="24" viewBox="0 0 24 24" fill="none" xmlns="http://www.w3.org/2000/svg">
<g clip-path="url(#clip0_4128_9415)">
<path d="M12.1547 21.8238C11.4608 21.8238 10.7614 21.8656 10.0704 21.8127C9.07002 21.7374 8.14769 21.899 7.30617 22.4647C6.42007 23.061 5.57298 23.1056 4.62278 22.4898C4.0014 22.0885 3.23512 21.9102 2.52735 21.6455C2.02299 21.456 1.30687 21.4448 1.04494 21.0882C0.571235 20.4445 0.23407 19.6281 0.0891728 18.8395C-0.0724434 17.9645 0.0250836 17.0394 0.0529485 16.1366C0.0863863 14.9858 0.652043 14.2278 1.74992 13.9018C3.26855 13.4476 4.76489 12.8597 6.40335 13.0575C6.98015 13.1272 7.41763 12.8875 7.91362 12.5615C9.05887 11.812 10.2626 11.1153 11.5193 10.5775C14.3142 9.38215 16.9976 9.87535 19.5974 11.2965C20.489 11.7841 21.4643 12.1268 22.4033 12.5281C23.4622 12.9795 24.0529 13.6984 23.9916 14.93C23.9248 16.248 24 17.5716 23.9638 18.8896C23.9081 20.7761 23.4427 21.3724 21.5618 21.587C20.6144 21.6928 19.9373 22.2139 19.1627 22.6012C18.4521 22.9579 17.6552 23.27 17.0394 22.6709C15.8941 21.5591 14.5482 21.7653 13.194 21.8294C12.8485 21.8461 12.5002 21.8294 12.1519 21.8294V21.8238H12.1547ZM22.2083 17.1007C22.2083 16.4069 22.2557 15.7075 22.186 15.0192C22.1554 14.7155 21.9603 14.2947 21.7151 14.1721C20.3859 13.5061 19.0484 12.829 17.658 12.3135C14.5315 11.1571 11.6614 11.929 9.1759 13.9381C8.26472 14.6737 7.40927 14.8771 6.37548 14.7963C4.94323 14.6848 3.6503 15.1836 2.34623 15.635C2.1651 15.6963 1.87252 15.8552 1.87531 15.961C1.91153 17.1202 1.97562 18.2822 2.10102 19.4358C2.11495 19.5723 2.56636 19.7646 2.79764 19.7451C2.99826 19.7256 3.31035 19.4637 3.341 19.2686C3.57228 17.8642 4.50854 17.3125 5.78475 17.2345C7.06096 17.1564 8.07245 17.6608 8.496 18.937C8.71056 19.5863 9.10067 19.812 9.71927 19.812C10.9007 19.812 12.0822 19.773 13.2609 19.8315C14.2947 19.8816 14.9495 19.6587 15.5402 18.6221C16.705 16.5713 19.0428 16.7106 20.3135 18.7587C20.4584 18.9927 20.5253 19.3271 20.7287 19.4637C20.985 19.6364 21.3863 19.7869 21.651 19.7061C21.8878 19.6336 22.1414 19.2491 22.1776 18.9732C22.2557 18.3574 22.2027 17.7249 22.2055 17.1007H22.2083ZM18.9063 20.0405C18.9007 19.5166 18.3546 18.9677 17.8502 18.9844C17.2929 19.0011 16.7301 19.5612 16.914 20.0795C17.0477 20.4556 17.449 20.8513 17.8252 20.9962C18.31 21.1801 18.9119 20.5671 18.9063 20.0432V20.0405ZM6.81018 20.0014C6.81018 19.2379 6.5371 18.9816 5.85162 18.9844C5.11599 18.9899 5.14386 19.5138 5.12157 19.9847C5.09649 20.4919 5.17172 20.9628 5.84327 21.0185C6.48137 21.0715 6.81018 20.7371 6.81018 19.9987V20.0014Z" fill="#ACB7B7"/>
<path d="M0.766298 5.21619C0.913982 4.48613 0.952993 3.7087 1.23164 3.03159C1.90318 1.40707 3.31872 0.863701 4.9321 1.01974C5.97424 1.12006 7.08048 1.18693 7.93871 2.0814C8.38734 2.54953 9.10347 2.74458 9.84467 2.67213C10.5329 2.60525 11.2351 2.61083 11.9234 2.67213C12.3971 2.71393 12.8708 2.86718 13.3222 3.03437C14.3058 3.40219 14.9495 4.19077 15.1195 5.1521C15.2895 6.1218 14.4953 6.81285 13.7625 7.26147C13.0854 7.67387 12.2327 8.00546 11.458 8.00546C9.70535 8.00546 8.08361 8.15036 6.58169 9.23152C5.66494 9.89192 4.54199 9.90585 3.40231 9.51017C1.67191 8.90829 0.643693 7.25033 0.769085 5.21898L0.766298 5.21619ZM4.57821 3.00372C4.41381 3.04273 3.70325 3.08453 3.1376 3.39383C2.61374 3.68084 2.41311 6.11901 2.78371 6.7404C3.30757 7.61814 4.16581 7.75747 5.11322 7.6878C6.73774 7.56799 7.61827 6.6373 7.56532 5.04064C7.51795 3.63068 6.82412 3.06224 4.57821 2.99815V3.00372ZM10.9342 4.68119C10.7893 4.65611 10.4521 4.59202 10.1122 4.54465C9.55766 4.46941 9.33753 4.83166 9.39047 5.27471C9.42112 5.53385 9.67191 5.89609 9.90319 5.97133C10.2794 6.09394 10.7224 6.02985 11.1348 6.02985C12.3024 6.02427 13.3919 5.57843 13.1996 5.21898C12.79 4.45269 11.9931 4.75642 11.3354 4.68397C11.2686 4.67561 11.1961 4.68397 10.9314 4.68397L10.9342 4.68119Z" fill="#ACB7B7"/>
</g>
<defs>
<clipPath id="clip0_4128_9415">
<rect width="24" height="22.0105" fill="white" transform="translate(0 0.994629)"/>
</clipPath>
</defs>
</svg>
