<svg width="24" height="24" viewBox="0 0 24 24" fill="none" xmlns="http://www.w3.org/2000/svg">
<g clip-path="url(#clip0_4128_9447)">
<path d="M11.9649 23.9754C10.1343 23.9754 8.30365 24.009 6.47606 23.9693C3.15097 23.8898 0.10092 20.8887 0.0489658 17.585C-0.00604502 14.0032 -0.0274381 10.4152 0.0581343 6.83343C0.116201 4.40073 1.33866 2.47229 3.39851 1.25289C4.74934 0.455231 6.24991 -0.0520911 7.93996 0.0182005C10.6049 0.131278 13.2791 -0.0215295 15.944 0.0579305C20.3174 0.186289 22.2367 1.88857 23.7709 5.16171C24.0429 5.74544 23.9848 6.35361 23.9878 6.95873C23.994 10.4672 24.0154 13.9757 23.9848 17.4811C23.9542 20.9284 20.9225 23.9173 17.4538 23.9632C15.6231 23.9876 13.7925 23.9662 11.9649 23.9662V23.9724V23.9754ZM1.99268 11.9739C1.99268 13.502 2.0538 15.03 1.9774 16.5551C1.87349 18.6608 2.8209 20.1216 4.42233 21.3991C5.54699 22.2976 6.70833 21.9736 7.88495 21.9614C8.0347 21.9614 8.31893 21.668 8.30976 21.5183C8.21502 19.5623 8.97294 17.5269 7.20037 15.7849C4.58736 13.2208 5.11607 9.52896 7.4357 7.0168C8.13861 6.25582 8.98822 6.28332 9.74615 6.51559C10.5285 6.75703 11.1764 7.36826 11.1581 8.36456C11.1459 8.89939 11.1673 9.43422 11.1948 9.96599C11.2284 10.5956 11.6807 10.6445 12.1636 10.6383C12.6373 10.6292 12.8268 10.348 12.8451 9.91404C12.8695 9.3028 12.8054 8.67935 12.9123 8.08645C13.1874 6.57671 15.128 5.81879 16.2863 6.82121C17.5149 7.8878 18.3156 9.24779 18.499 10.9256C18.7313 13.0344 18.0069 14.7886 16.5492 16.2586C16.1305 16.6804 15.562 16.9218 15.6079 17.6889C15.6751 18.8319 15.6323 19.978 15.6445 21.124C15.6476 21.5274 15.7637 21.937 16.213 21.9706C17.1909 22.0409 18.2698 22.3251 19.1163 21.7383C20.8522 20.5342 22.1511 19.0519 22.0686 16.6804C21.9647 13.6303 21.9738 10.5711 22.0564 7.51801C22.1419 4.23875 19.5839 2.13 16.6745 1.99553C13.5511 1.85189 10.4063 1.84273 7.28595 2.0047C4.17172 2.1789 1.71457 4.6605 1.97129 7.62497C2.09659 9.06442 1.99268 10.5253 1.99268 11.9769V11.9739ZM16.5094 11.7172C16.5094 11.3351 16.6317 10.8951 16.485 10.5833C16.1396 9.85291 15.6659 9.18361 15.2411 8.48987C14.3946 9.02469 14.9905 9.85291 14.8377 10.5283C14.7705 10.8187 14.8224 11.1365 14.8194 11.4421C14.8133 11.9464 14.6085 12.3345 14.1287 12.5179C12.8054 13.0313 11.4545 13.0344 10.1312 12.5668C9.51388 12.3498 9.18382 11.8394 9.20216 11.1365C9.22049 10.4489 9.21744 9.76123 9.18076 9.07665C9.17159 8.878 9.0738 8.60294 8.92405 8.51432C8.66427 8.36151 8.54508 8.63656 8.44117 8.83521C8.12945 9.43728 7.66491 10.0149 7.54878 10.6536C7.22788 12.4323 7.84522 13.9237 9.23577 15.0973C10.5194 16.1792 12.7259 16.4573 14.3426 15.464C15.669 14.648 16.5033 13.3736 16.5064 11.7141L16.5094 11.7172ZM13.4319 19.9688H13.4472C13.4472 19.816 13.4472 19.6632 13.4472 19.5104C13.4258 17.9762 13.4258 18.0159 11.9374 17.9853C11.0297 17.967 10.4643 18.1351 10.5897 19.2292C10.6661 19.9046 10.5713 20.6014 10.6019 21.2829C10.611 21.4785 10.7333 21.7628 10.8892 21.8453C11.5218 22.1876 12.2339 22.0959 12.8909 21.9645C13.6152 21.8178 13.3891 21.1454 13.4319 20.6473C13.4502 20.4211 13.4349 20.1888 13.4349 19.9627L13.4319 19.9688Z" fill="#ACB7B7"/>
</g>
<defs>
<clipPath id="clip0_4128_9447">
<rect width="24" height="23.9755" fill="white" transform="translate(0 0.012207)"/>
</clipPath>
</defs>
</svg>
