<svg width="24" height="24" viewBox="0 0 24 24" fill="none" xmlns="http://www.w3.org/2000/svg">
<g clip-path="url(#clip0_4128_9451)">
<path d="M21.1779 6.52801C21.1596 6.64382 21.0865 7.08878 21.0072 7.53373C20.8731 8.28649 21.0773 8.68268 21.8727 9.06668C24.4145 10.2949 24.6735 12.8823 22.5463 14.7078C22.2598 14.9547 21.9733 15.2381 21.635 15.3813C20.9097 15.6892 20.7786 16.1219 21.1017 16.8198C21.2206 17.0758 21.1626 17.4202 21.1779 17.7219C21.2663 19.584 20.3124 21.12 18.5905 21.6625C18.1577 21.7996 17.5695 21.6076 17.1002 21.437C15.6373 20.9036 15.5185 20.8366 14.8236 22.2172C14.3207 23.2198 13.6076 23.6617 12.5927 23.8873C11.0232 24.2347 9.92912 23.805 9.00264 22.3939C8.83503 22.141 8.6156 21.9154 8.4815 21.6442C8.13712 20.9493 7.56417 20.7208 7.01255 21.2145C5.7356 22.3634 4.72684 21.5802 3.79426 20.8153C2.77331 19.9772 2.01445 18.9714 2.45026 17.4598C2.90131 15.8903 2.90436 15.7593 1.49636 15.0492C-0.313927 14.1379 0.054835 12.5775 0.0487398 11.0964C0.0426445 9.79811 0.975216 9.29525 2.00836 9.01487C3.19998 8.69182 2.87388 7.88116 2.59655 7.22287C2.00836 5.83011 2.46855 4.73297 3.31579 3.6602C4.2575 2.46859 5.47045 2.41373 6.80836 2.73373C8.18893 3.06592 8.27122 3.09335 8.88379 1.8682C9.29217 1.05449 9.89865 0.60649 10.6666 0.2743C12.2148 -0.396177 13.9276 0.192014 14.7261 1.67011C15.2035 2.54986 15.9075 2.89017 16.8381 2.69106C19.2975 2.16382 21.2266 3.71811 21.1748 6.53106L21.1779 6.52801ZM7.31122 19.0751C9.10017 18.9989 9.7676 19.84 10.3497 20.8671C10.8404 21.7326 11.6967 22.1532 12.3611 21.7935C12.7847 21.5619 13.0956 21.0773 13.3912 20.6568C14.3756 19.2549 15.5794 18.6911 17.3105 19.261C18.755 19.7364 19.4621 19.0141 19.1847 17.5482C19.075 16.9661 18.8038 16.3413 18.9196 15.8019C19.1421 14.7657 19.6053 13.8484 20.8061 13.4857C21.4552 13.2907 21.9794 12.7665 21.9672 11.9558C21.9581 11.1573 21.3028 11.1208 20.7695 10.8282C19.1908 9.97182 18.7703 8.81678 19.1512 6.90897C19.2091 6.61335 19.2457 6.30859 19.2426 6.00687C19.2365 4.85792 18.5874 4.27582 17.4842 4.6903C15.3569 5.49182 14.0556 4.66287 12.9737 2.88306C12.2301 1.65792 11.6206 1.67925 10.7276 2.73678C10.5813 2.91049 10.4503 3.09639 10.3192 3.28535C9.1855 4.92801 8.39922 5.23582 6.52493 4.76649C4.74512 4.32154 4.31541 4.80306 4.59579 6.62554C4.94931 8.92344 4.91579 9.63049 2.64531 10.8953C1.70969 11.4164 1.6975 12.8244 2.60569 13.4156C5.00417 14.976 5.05598 15.0949 4.5135 17.6945C4.25141 18.9501 5.02245 19.712 6.2476 19.3981C6.75045 19.2701 7.23807 19.0933 7.30512 19.072L7.31122 19.0751Z" fill="#ACB7B7"/>
<path d="M11.0139 10.0604C11.0139 9.5362 10.9347 8.99372 11.0413 8.49086C11.1206 8.10991 11.4406 7.78077 11.6539 7.42725C12.0653 7.68934 12.8029 7.92096 12.8303 8.21658C12.9461 9.4722 12.9187 10.7552 12.7998 12.0139C12.745 12.5747 12.172 12.9038 11.599 12.6783C11.34 12.5777 11.0931 12.1632 11.0505 11.8585C10.9651 11.2703 11.0261 10.6608 11.0261 10.0604C11.0261 10.0604 11.023 10.0604 11.02 10.0604H11.0139Z" fill="#ACB7B7"/>
<path d="M11.9221 14.4856C12.6505 14.4978 12.9461 14.8391 12.937 15.4852C12.9278 16.1008 12.3396 16.7865 11.8185 16.5915C11.4132 16.4421 10.9682 15.9606 10.8646 15.5492C10.7092 14.9214 11.3126 14.4521 11.9221 14.4856Z" fill="#ACB7B7"/>
</g>
<defs>
<clipPath id="clip0_4128_9451">
<rect width="23.9573" height="24" fill="white" transform="translate(0.0212402)"/>
</clipPath>
</defs>
</svg>
