<svg width="24" height="24" viewBox="0 0 24 24" fill="none" xmlns="http://www.w3.org/2000/svg">
<g clip-path="url(#clip0_4128_9459)">
<path d="M6.9708 12.8088C7.62978 12.8088 8.29171 12.7735 8.94775 12.8147C10.1775 12.8912 11.1689 13.3943 11.7249 14.5534C12.0632 15.2565 12.2633 15.939 13.3459 15.989C14.102 16.0243 13.9843 16.8804 13.5901 17.3452C13.14 17.8777 13.2135 18.0601 13.5724 18.725C14.2255 19.9312 13.9607 21.4345 13.7077 22.7877C13.6107 23.3055 13.0635 23.8527 12.4604 23.8909C11.0453 23.9821 9.56555 24.3675 8.51235 22.7995C7.82983 21.7845 6.23827 21.9169 5.37041 22.8848C5.00267 23.2937 4.89382 23.9674 4.1201 23.9498C3.17281 23.9292 2.21669 24.0616 1.28411 23.8203C0.91049 23.7233 0.689847 23.4055 0.566288 23.0466C0.257388 22.1376 0.0279205 21.1991 0.186783 20.2459C0.38389 19.0604 0.945792 17.9365 0.401541 16.6715C0.216202 16.2391 0.695731 15.9066 1.21056 15.8978C1.74893 15.889 2.23729 15.8625 2.27847 15.127C2.37555 13.4266 3.67587 13.0648 4.99384 12.8265C5.63224 12.7117 6.30887 12.8059 6.96786 12.8059L6.9708 12.8088ZM7.1532 18.6573V18.6455C6.27063 18.6455 5.391 18.6661 4.50843 18.6426C2.02253 18.5691 2.27259 19.5958 2.26082 21.1873C2.25788 21.5668 2.34319 21.9316 2.78742 22.0258C3.25224 22.1258 3.79061 22.064 3.85533 21.5463C4.03184 20.1283 5.0262 20.2959 5.98526 20.3107C6.79428 20.3224 7.60036 20.3107 8.40939 20.3107C9.32137 20.3077 10.2245 20.2989 10.3393 21.5551C10.3834 22.0228 10.7629 22.0817 11.1483 22.1023C11.4543 22.117 11.7484 22.0846 11.8985 21.7846C12.5692 20.4519 11.7043 18.7838 10.2392 18.675C9.21547 18.5985 8.18286 18.6603 7.15614 18.6603L7.1532 18.6573ZM7.12672 16.801C7.85337 16.801 8.57707 16.801 9.30372 16.8039C9.77149 16.8039 10.1716 16.7157 10.2039 16.1302C10.2304 15.6683 10.1539 15.2565 9.66558 15.0594C8.05342 14.4092 6.3883 14.6269 4.75261 14.8623C4.0642 14.9623 4.04949 15.7301 4.12598 16.3067C4.20541 16.9098 4.76438 16.7745 5.16742 16.7922C5.81757 16.8216 6.47362 16.801 7.12672 16.801Z" fill="#ACB7B7"/>
<path d="M18.3705 0.000181928C21.4389 0.0237171 23.9513 2.38606 23.863 5.49565C23.763 9.03181 21.4448 11.1823 18.1734 11.1323C14.8314 11.0823 12.6368 8.89354 12.572 5.40445C12.5132 2.23897 15.0962 -0.0233533 18.3705 0.000181928ZM21.7243 5.52507C21.739 3.30099 20.4357 1.88594 18.3646 1.88005C16.0405 1.87123 14.752 3.17155 14.6461 5.43387C14.5137 8.26103 16.3612 9.19361 18.1528 9.22009C19.8915 9.24657 21.9655 8.3081 21.7213 5.52507H21.7243Z" fill="#ACB7B7"/>
<path d="M7.84145 0.903124C8.45043 0.953136 9.12706 0.78839 9.7478 1.08846C10.1979 1.30616 10.345 1.69744 10.2921 2.17697C10.242 2.64179 9.90078 2.75358 9.52128 2.76535C8.86229 2.78888 8.19742 2.73593 7.54432 2.80359C5.6821 2.99776 4.02581 3.50965 2.93437 5.27184C2.56075 5.87787 2.38424 6.43095 2.35187 7.08405C2.30775 8.03428 2.30775 8.98746 2.25773 9.93769C2.22243 10.6202 1.79291 11.035 1.14864 11.0821C0.507305 11.1292 0.260185 10.5879 0.210173 10.0701C-0.281124 5.02178 2.0518 1.12965 7.84145 0.903124Z" fill="#ACB7B7"/>
<path d="M23.46 15.5919C23.5571 17.8865 23.0864 19.8635 21.8037 21.5463C20.4975 23.2614 18.7383 24.1587 16.5172 23.9616C16.07 23.9204 15.6258 23.8939 15.5493 23.3114C15.4698 22.6907 15.7934 22.3435 16.3436 22.1758C16.5495 22.114 16.779 22.1199 16.9967 22.0993C19.6414 21.8434 21.0624 20.1606 21.3066 17.507C21.4066 16.4156 21.3242 15.3065 21.3654 14.2062C21.386 13.6061 21.5154 12.903 22.2568 12.9294C22.9511 12.953 23.4571 13.4325 23.46 14.2356C23.46 14.7505 23.46 15.2624 23.46 15.5889V15.5919Z" fill="#ACB7B7"/>
<path d="M18.6735 7.20487C17.635 7.36667 17.1761 6.76652 16.9966 5.89866C16.8937 5.41031 16.8848 4.88665 16.9319 4.38947C16.9878 3.80698 17.1672 3.15387 17.8674 3.12446C18.4999 3.10092 18.9912 3.53044 18.9118 4.22178C18.8206 5.02492 19.2178 5.25145 19.8885 5.30146C20.2974 5.33382 20.624 5.58094 20.6416 5.95162C20.6622 6.40467 20.3121 6.77829 19.9267 6.95775C19.5502 7.13132 19.0942 7.12838 18.6706 7.20487H18.6735Z" fill="#ACB7B7"/>
</g>
<defs>
<clipPath id="clip0_4128_9459">
<rect width="23.7264" height="24" fill="white" transform="translate(0.136719)"/>
</clipPath>
</defs>
</svg>
