<svg width="24" height="24" viewBox="0 0 24 24" fill="none" xmlns="http://www.w3.org/2000/svg">
<g clip-path="url(#clip0_4128_9463)">
<path d="M0.00864407 11.7577C0.00864407 9.14777 -0.0145808 6.53497 0.0173534 3.92508C0.0434814 1.77387 1.24247 0.592308 3.37044 0.586502C7.93994 0.574889 12.5094 0.574889 17.0818 0.589405C19.0298 0.595211 19.7933 1.21648 20.252 3.09769C20.7543 5.17051 20.4581 7.27526 20.4262 9.36841C20.4175 9.90258 20.0517 10.2974 19.4159 10.2713C18.8005 10.2451 18.4434 9.87355 18.426 9.32196C18.3737 7.87331 18.426 6.42175 18.394 4.9702C18.3331 2.01773 18.4608 2.43288 15.7609 2.41836C13.151 2.40385 10.5382 2.40094 7.92542 2.42998C6.61322 2.44449 6.57257 2.48513 6.56386 3.75379C6.54064 6.87173 6.56386 9.99257 6.55806 13.1105C6.55806 13.9089 6.61322 14.7188 6.48258 15.4969C6.33742 16.3649 6.5987 16.7249 7.46673 16.722C7.74543 16.722 8.04155 16.8062 8.29702 16.9194C8.6541 17.0791 8.8428 17.3955 8.79635 17.7932C8.7499 18.1968 8.49443 18.4784 8.09671 18.4958C7.01094 18.5451 5.92228 18.5422 4.83651 18.5655C4.2588 18.5771 3.64624 18.4842 3.10916 18.6438C2.52564 18.818 1.82599 19.0387 1.88115 19.9241C1.93341 20.7805 2.45596 21.2741 3.20206 21.4163C3.90462 21.5528 4.64781 21.4715 5.37359 21.4802C6.24452 21.4918 7.11545 21.4918 7.98348 21.5034C8.49153 21.5121 8.79345 21.7473 8.80216 22.2901C8.80797 22.7837 8.60765 23.2133 8.11703 23.2424C6.23872 23.3498 4.33137 23.5298 2.485 23.1785C1.07989 22.9259 0.0202565 21.2828 0.0115472 19.8109C-0.00587148 17.1284 0.00574096 14.443 0.00574096 11.7577H0.00864407ZM4.46492 9.56291H4.45911C4.45911 7.53945 4.45911 5.51888 4.45911 3.49542C4.45911 2.95834 4.38944 2.49965 3.69269 2.42707C2.78402 2.33127 2.1192 2.61287 1.93921 3.30671C1.85212 3.64928 1.87244 4.02378 1.87244 4.38377C1.86954 8.14039 1.86663 11.8941 1.87534 15.6507C1.87825 16.87 1.89857 16.87 3.09175 16.7162C4.43008 16.542 4.4475 16.5449 4.45911 15.1978C4.47653 13.3195 4.46492 11.4412 4.46492 9.56582V9.56291Z" fill="#ACB7B7"/>
<path d="M10.46 20.0021C10.5529 19.1805 10.19 18.1848 10.9942 17.4155C11.3803 17.0468 10.9942 16.8319 10.8316 16.5242C10.3323 15.5807 10.4658 15.1772 11.4674 15.1133C12.0161 15.0784 12.0887 15.0233 12.2628 14.5211C12.9248 12.6224 13.9612 11.9489 15.973 11.9344C16.9136 11.9257 17.8542 11.8966 18.7919 11.9228C20.618 11.975 21.5383 12.7182 21.8808 14.5298C22.0115 15.2236 22.1944 15.241 22.8563 15.1336C23.6779 15.003 24.1627 15.662 23.7098 16.2658C23.1872 16.9597 23.4863 17.4706 23.6605 18.0454C23.9595 19.0296 24.0988 20.0282 23.9246 21.0356C23.7621 21.9849 23.3498 22.9488 22.3773 23.2043C21.2799 23.4917 19.9358 23.6862 19.2129 22.5249C18.5655 21.4827 17.6946 21.6714 16.7772 21.564C15.8337 21.4537 15.584 22.2607 15.0614 22.6701C13.7638 23.6862 11.8738 23.5875 10.8548 22.3507C10.5916 22.0314 10.459 21.2485 10.4571 20.0021H10.46ZM17.4913 18.0977C16.2633 18.1006 15.0353 18.0716 13.8102 18.1093C12.4806 18.1499 12.3819 18.2777 12.3209 19.645C12.3093 19.9324 12.3151 20.2228 12.3122 20.5102C12.3064 20.9543 12.3122 21.4043 12.8986 21.4769C13.4386 21.5437 13.9554 21.5001 13.9467 20.7714C13.9379 20.0341 14.2747 19.7466 14.9976 19.7583C16.3678 19.7815 17.741 19.767 19.1113 19.7554C19.66 19.7496 20.0751 19.8599 20.2493 20.484C20.4061 21.0385 20.6441 21.6859 21.4163 21.4246C22.1654 21.1721 21.8315 20.4637 21.8692 19.9324C21.8896 19.645 21.8344 19.3547 21.8373 19.0673C21.846 18.3125 21.4338 18.0774 20.7399 18.0919C19.6571 18.1151 18.5742 18.0977 17.4913 18.0977ZM17.2417 16.2658C17.8165 16.2687 18.3942 16.3036 18.9632 16.2571C19.4277 16.2194 20.1825 16.5068 20.2696 15.9204C20.3538 15.3571 20.0141 14.701 19.7587 14.1291C19.6745 13.9404 19.2739 13.8069 19.0126 13.7982C17.8658 13.7575 16.7162 13.7488 15.5695 13.7779C14.7421 13.8011 14.2573 14.3265 14.0918 15.093C13.9641 15.691 14.0047 16.2745 14.8727 16.2658C15.6624 16.2571 16.452 16.2658 17.2417 16.2658Z" fill="#ACB7B7"/>
</g>
<defs>
<clipPath id="clip0_4128_9463">
<rect width="24" height="22.8446" fill="white" transform="translate(0 0.577637)"/>
</clipPath>
</defs>
</svg>
