<svg width="24" height="24" viewBox="0 0 24 24" fill="none" xmlns="http://www.w3.org/2000/svg">
<g clip-path="url(#clip0_4128_9467)">
<path d="M0.00829854 11.8255C-0.252119 6.34287 5.1474 -0.475096 12.597 0.0928367C19.4177 0.610902 24.0083 5.61979 23.9972 12.0388C23.9861 18.8125 18.6448 23.9072 11.8795 23.9405C5.14186 23.9765 -0.174548 18.239 0.00829854 11.8255ZM1.7869 11.8532C1.70656 17.4217 6.11427 22.1785 12.0402 22.1619C17.6059 22.1452 22.0552 17.6766 22.1189 12.1108C22.1826 6.37888 17.5449 2.08199 12.3615 1.82434C6.41901 1.52791 1.65115 6.92742 1.78967 11.856L1.7869 11.8532Z" fill="#ACB7B7"/>
<path d="M3.34106 12.9724C3.23301 12.2438 3.47681 11.5844 4.00319 10.95C4.78721 10.0081 5.88706 9.76984 6.83177 10.4929C7.1559 10.7422 7.41355 11.0802 7.71275 11.3628C7.80695 11.4515 7.93993 11.5567 8.05628 11.554C8.33333 11.554 8.29731 11.2991 8.31947 11.119C8.41367 10.4237 8.27515 9.88065 7.83188 9.23238C6.36911 7.09086 7.45234 4.82467 9.03424 3.87442C10.1369 3.21229 11.3364 3.24277 12.4197 3.64724C14.0016 4.24288 14.3035 5.81093 13.2646 7.16843C13.14 7.33188 12.9571 7.45655 12.8463 7.62831C12.7438 7.789 12.5997 8.02725 12.6524 8.16577C12.7577 8.45389 13.0873 8.41511 13.3505 8.45943C13.8187 8.53701 14.0875 8.20733 14.4448 8.00232C15.7386 7.25708 17.0601 6.87753 18.5533 7.5923C20.5203 8.53424 21.3404 11.5817 19.9358 13.2162C19.487 13.7371 18.7916 14.0473 18.0685 13.9033C17.4757 13.7869 16.8994 13.5708 16.5503 12.9586C16.3758 12.6538 15.9436 12.507 15.6694 12.8117C15.3729 13.1414 14.9684 13.5487 15.4422 14.0584C15.5835 14.2108 15.7552 14.3327 15.8882 14.4906C17.0435 15.8703 17.1017 17.8123 16.0323 19.2031C14.9768 20.5772 12.6607 21.0232 11.1647 20.1395C9.74069 19.2973 9.59386 17.9619 10.7214 16.7125C10.9901 16.416 11.8822 16.3218 11.3974 15.7179C10.9375 15.1444 10.4277 15.2691 9.72407 15.837C7.61302 17.5436 5.23047 17.0948 3.82588 15.0031C3.40755 14.3798 3.31058 13.7426 3.34106 12.9697V12.9724ZM11.9265 10.2048C10.8378 10.227 10.1258 10.9002 10.1036 11.9307C10.0814 12.9724 11.0372 13.9088 12.054 13.8396C12.9433 13.7786 13.8243 12.7757 13.7827 11.8726C13.7356 10.8198 13.0292 10.1854 11.9265 10.2076V10.2048ZM14.9518 16.959C14.9518 16.754 14.9823 16.5435 14.9463 16.3468C14.8521 15.8592 14.6277 15.3771 14.1152 15.3079C13.5971 15.2386 13.4807 15.7373 13.4364 16.1418C13.3699 16.7596 12.8075 17.0034 12.5249 17.4549C12.3366 17.7569 11.6384 17.7652 11.9376 18.3359C12.1897 18.8124 12.6939 18.8817 13.1898 18.8263C14.2343 18.7099 14.9518 17.9481 14.9546 16.9618L14.9518 16.959ZM5.02823 13.6816C4.89803 14.2302 5.80395 14.5072 6.34695 14.9145C6.82069 15.2691 7.53822 15.2386 8.07014 14.8203C8.32501 14.6208 8.61037 14.3105 8.65469 14.0196C8.72118 13.5625 8.23359 13.6401 7.93993 13.5154C7.18361 13.1996 6.54087 12.7092 5.94247 12.1413C5.5934 11.8089 5.31913 12.0443 5.19723 12.4156C5.11412 12.6704 5.11966 12.953 5.02823 13.6816ZM11.2866 5.26516C10.2311 5.15711 9.62433 5.43693 9.206 6.22926C8.79044 7.01605 8.95112 7.68926 9.39716 8.35139C9.71022 8.81405 10.0482 8.7808 10.3197 8.2849C10.7076 7.57291 11.0345 6.82767 11.6717 6.27359C11.8573 6.1129 12.0928 5.85803 11.9653 5.55328C11.7936 5.14326 11.3919 5.28178 11.2866 5.26793V5.26516ZM18.7944 11.0719C18.8027 10.3184 18.4564 9.73936 17.7638 9.25731C16.8911 8.65336 16.1846 9.14926 15.4394 9.44847C15.1208 9.57591 15.1097 9.87511 15.3757 10.0857C16.132 10.6758 17.0795 10.9916 17.7361 11.7313C17.9161 11.9335 18.1627 12.0804 18.4481 11.8698C18.6919 11.6897 18.7334 11.4127 18.7916 11.0692L18.7944 11.0719Z" fill="#ACB7B7"/>
</g>
<defs>
<clipPath id="clip0_4128_9467">
<rect width="24" height="23.8809" fill="white" transform="translate(0 0.0595703)"/>
</clipPath>
</defs>
</svg>
