<svg width="24" height="24" viewBox="0 0 24 24" fill="none" xmlns="http://www.w3.org/2000/svg">
<g clip-path="url(#clip0_4128_9471)">
<path d="M23.983 12.2491C23.983 13.6974 23.9555 15.1487 23.9891 16.5969C24.0533 19.4293 22.8494 21.5527 20.4693 23.0438C19.3449 23.7496 18.0892 23.9787 16.7998 23.9879C13.5947 24.0154 10.3927 23.9818 7.18758 23.9971C2.65951 24.0215 -0.0994989 20.1595 0.0104948 16.7741C0.114378 13.6485 0.0227163 10.5198 0.0349378 7.39107C0.0532701 3.27853 2.95894 0.213987 7.12036 0.0795503C10.3957 -0.0243325 13.6833 -0.0273879 16.9587 0.0795503C21.0498 0.217042 23.9738 3.36408 23.9799 7.43996C23.9799 9.04098 23.9799 10.6451 23.9799 12.2461L23.983 12.2491ZM1.99649 11.8733C1.99649 13.4743 1.99038 15.0723 1.99649 16.6733C2.00871 19.7776 3.88777 21.9225 6.93704 22.0324C10.2857 22.1516 13.6436 22.1394 16.9923 22.0447C20.0079 21.9561 22.1467 19.4354 22.055 16.713C21.9512 13.5935 22.0306 10.4678 22.0276 7.34219C22.0276 6.58445 21.9481 5.88171 21.6242 5.13926C20.671 2.93938 18.795 2.1786 16.7051 2.06249C13.5917 1.89139 10.4538 1.8975 7.34035 2.04721C3.93971 2.20915 1.73067 4.45791 1.97816 7.98687C2.06982 9.27624 1.99344 10.5748 1.99649 11.8703V11.8733Z" fill="#ACB7B7"/>
<path d="M11.9237 20.8132C6.04205 20.9079 3.3747 16.551 2.95917 12.1665C2.7453 9.92078 3.84218 7.55898 5.56847 5.8663C7.22143 4.24694 9.18604 3.33644 11.6578 3.24478C17.7839 3.02174 21.0928 7.8309 21.0531 12.1573C21.0165 16.3462 17.7411 21.1096 11.9237 20.8163V20.8132ZM12.0061 18.8761C16.247 19.2489 18.9541 15.451 18.9082 11.8946C18.8624 8.38087 15.9018 5.0444 11.8778 5.12995C7.92111 5.21244 5.03683 8.50309 5.09183 12.142C5.14682 15.6771 7.9761 19.2825 12.0031 18.8761H12.0061Z" fill="#ACB7B7"/>
<path d="M16.6137 10.2508C16.6289 10.8099 16.2378 10.9566 15.8132 11.1949C14.6093 11.8701 14.5727 12.1971 15.5901 12.857C16.1767 13.239 16.9925 13.517 16.4823 14.3481C15.9781 15.17 15.2021 14.7636 14.4657 14.4703C13.928 14.2564 13.6438 13.8164 13.2252 13.5048C12.2964 12.8112 11.6701 12.7684 10.7993 13.5262C10.2218 14.0303 9.66573 14.5375 8.92022 14.7422C8.39164 14.8889 7.82639 14.9041 7.52085 14.3236C7.20004 13.7217 7.50863 13.3184 8.05249 13.0465C8.2572 12.9456 8.48941 12.8906 8.66968 12.7593C9.33269 12.2826 9.32047 11.8793 8.60246 11.3813C8.35803 11.2102 8.0311 11.1582 7.78667 10.9902C7.44753 10.758 7.31003 10.3883 7.4353 9.99415C7.59418 9.49612 8.06166 9.20586 8.49247 9.32196C9.11271 9.48695 9.73906 9.60917 10.2921 10.1286C11.6823 11.4363 12.162 11.4363 13.5369 10.2294C14.0808 9.75277 14.6827 9.49306 15.3212 9.3128C15.9568 9.13253 16.5739 9.64889 16.6076 10.2539L16.6137 10.2508Z" fill="#ACB7B7"/>
</g>
<defs>
<clipPath id="clip0_4128_9471">
<rect width="23.9847" height="24" fill="white" transform="translate(0.00756836)"/>
</clipPath>
</defs>
</svg>
