<svg width="24" height="24" viewBox="0 0 24 24" fill="none" xmlns="http://www.w3.org/2000/svg">
<g clip-path="url(#clip0_4128_9475)">
<path d="M23.841 11.9862C24.0567 19.444 18.065 24.0387 11.982 24C5.43985 23.9585 0.219937 18.8824 0.112053 12.1051C0.00693574 5.32225 5.60306 0.190854 11.8244 0.00551528C18.1121 -0.185356 24.4966 5.67356 23.8437 11.9862H23.841ZM22.0872 11.9972C22.6625 6.81879 17.3735 1.6874 12.2255 1.78698C6.45507 1.89763 1.86862 6.06084 1.87139 12.0387C1.87139 17.8091 6.55189 22.1189 12.0457 22.1494C17.628 22.1798 22.4661 17.4301 22.0899 11.9972H22.0872Z" fill="#ACB7B7"/>
<path d="M20.5271 12.1192C20.9309 16.6143 16.7677 20.808 11.9655 20.6614C7.15222 20.5147 3.5561 17.4663 3.45098 12.003C3.34863 6.75541 7.73037 3.4774 11.9793 3.30866C15.9323 3.15099 21.1854 7.19248 20.5243 12.1192H20.5271ZM11.9129 5.10119C11.0554 5.0597 11.0582 5.30866 11.2352 6.07491C11.7304 8.20493 9.5561 10.1524 7.43991 9.59082C7.0471 9.4857 6.69856 9.20631 6.30298 9.11226C6.12594 9.07076 5.7276 9.26164 5.70271 9.39442C5.60312 9.9366 5.16052 10.6199 6.16744 10.8688C6.54641 10.9629 6.89219 11.2395 7.22414 11.4719C9.46757 13.032 9.25181 14.5286 8.02636 16.0998C7.89911 16.2603 7.72207 16.382 7.58099 16.5313C7.0637 17.0874 7.34309 17.2838 7.93231 17.5161C8.50492 17.7402 8.89496 17.8813 9.31266 17.2395C9.63632 16.7416 10.0789 16.2271 10.5934 15.9587C12.1176 15.1648 13.6972 15.6932 14.7456 17.2672C14.9945 17.6378 15.1246 17.9394 15.6778 17.6572C16.7124 17.1261 16.7843 16.949 16.0844 16.0002C14.9586 14.4733 15.1633 12.6641 16.646 11.5493C17.0692 11.2312 17.6225 11.0901 18.0872 10.8163C18.3389 10.6697 18.7013 10.429 18.7124 10.216C18.74 9.6987 18.4385 9.25334 17.8548 9.27823C17.4593 9.29483 17.0775 9.52166 16.682 9.61018C15.2573 9.9283 14.054 9.45251 13.3182 8.26302C12.9614 7.68487 12.9475 6.8218 12.9779 6.09704C13.0167 5.18418 12.5768 5.0348 11.9102 5.09843L11.9129 5.10119ZM7.55333 7.89787C8.81751 7.9283 9.26564 7.44697 9.54226 6.8052C9.62525 6.6171 9.54226 6.20216 9.39289 6.09704C8.82304 5.70424 8.40533 6.09704 8.01253 6.48709C7.91847 6.57837 7.7691 6.61987 7.68611 6.71668C7.53397 6.89926 7.28224 7.12332 7.30437 7.2976C7.34586 7.61572 7.55886 7.91171 7.55333 7.89511V7.89787ZM7.13839 14.3986C7.13839 13.7015 6.29745 12.6558 5.82166 12.6448C5.67228 12.642 5.37629 12.8771 5.38459 12.9767C5.44821 13.5687 5.52013 14.1745 5.7276 14.7222C5.79123 14.891 6.33065 15.0044 6.59621 14.9325C6.84517 14.8661 7.02221 14.523 7.13562 14.3986H7.13839ZM18.7539 13.3031C18.7152 13.2174 18.6432 12.8744 18.433 12.6863C18.3389 12.6005 17.9544 12.7914 17.7276 12.9103C16.9392 13.3225 17.1467 14.039 17.2767 14.6807C17.3044 14.8163 17.7359 15.0016 17.9212 14.9463C18.6045 14.7499 18.812 14.1994 18.7539 13.3031ZM14.942 6.14407C14.4468 7.2893 15.0084 7.5106 15.4814 7.78169C16.0789 8.12194 16.4939 7.6987 16.9254 7.40548C17.0001 7.35292 17.0416 7.0846 17.0084 7.06247C16.3832 6.68626 15.7553 6.31558 15.0997 6.00299C15.0305 5.9698 14.7843 6.30451 14.9448 6.14407H14.942ZM11.8327 19.0431C12.1481 18.9463 12.2919 18.9269 12.4081 18.8605C12.6737 18.7139 12.9254 18.5452 13.1827 18.3847C12.9254 18.0998 12.6847 17.7983 12.4053 17.5355C12.3279 17.4608 12.1398 17.4995 12.0042 17.4912C11.3735 17.447 10.8092 17.7291 10.8064 18.3183C10.8064 18.5811 11.5367 18.8467 11.8327 19.0431Z" fill="#ACB7B7"/>
<path d="M9.63338 12.1133C9.62508 10.3761 10.3305 9.55176 11.8409 9.5324C13.2378 9.5158 14.6846 10.7274 14.6901 11.9224C14.6984 13.1672 13.3457 14.5421 12.0622 14.5919C10.8312 14.6389 9.63615 13.4217 9.63062 12.1133H9.63338ZM12.0124 11.1009C11.7468 11.4411 11.4176 11.6818 11.4397 11.8865C11.4646 12.1244 11.7634 12.4563 12.0041 12.5172C12.3664 12.6112 12.9308 12.5808 12.8727 12.0303C12.8422 11.7371 12.3913 11.4881 12.0124 11.1009Z" fill="#ACB7B7"/>
</g>
<defs>
<clipPath id="clip0_4128_9475">
<rect width="23.7759" height="24" fill="white" transform="translate(0.112061)"/>
</clipPath>
</defs>
</svg>
