<svg width="24" height="22" viewBox="0 0 24 22" fill="none" xmlns="http://www.w3.org/2000/svg">
<g clip-path="url(#clip0_4289_54)">
<path d="M0.00824887 10.8747C0.00824887 8.59329 -0.0166992 6.30916 0.0165649 4.0278C0.0470569 1.66051 1.6964 0.038891 4.05537 0.011171C5.6465 -0.00546106 7.23763 -0.00546106 8.82876 0.013943C10.9216 0.038891 12.1884 1.17264 12.6486 3.1962C12.8509 4.08602 12.9175 4.96197 12.9175 5.8601C12.9175 8.48796 12.9175 11.1186 12.9258 13.7464C12.9258 14.2315 12.9369 14.7139 12.9646 15.199C12.9951 15.7063 13.2473 16.1387 13.6188 16.4491C14.1593 16.9038 17.2529 16.6737 17.7879 16.1914C18.5197 15.5288 18.589 14.2981 17.7574 13.716C16.8315 13.0701 16.5516 12.2828 16.6375 11.2378C16.7234 10.1844 16.4185 9.32787 15.7976 8.38262C13.8184 5.36668 14.9992 1.8989 18.8551 0.920388C20.1967 0.582204 22.5225 1.80743 23.257 3.11859C24.4268 5.20313 24.255 7.21838 22.4892 8.89544C21.7574 9.59121 21.6992 10.287 21.7518 11.0964C21.8239 12.2024 21.6964 13.1837 20.5737 13.7243C19.9001 14.0486 20.1219 14.6557 20.0859 15.174C19.9584 17.0313 18.6472 18.3452 16.8232 18.4034C16.2716 18.42 15.7172 18.4034 15.1628 18.3979C13.1725 18.384 13.1974 18.4034 12.0692 19.8532C11.1406 21.0451 9.95142 21.7797 8.36306 21.7354C7.11844 21.7021 5.87381 21.7409 4.62641 21.727C1.79896 21.6965 0.0248809 19.9197 0.0110209 17.1006C-6.71413e-05 15.0243 0.0110209 12.9509 0.0110209 10.8747H0.00824887ZM5.5079 10.8608C5.5079 10.8608 5.50236 10.8608 5.49681 10.8608C5.49681 10.5836 5.49681 10.3092 5.49681 10.032C5.49959 7.6813 5.51345 5.33342 5.50236 2.98276C5.50236 2.53092 5.6465 1.90445 4.96736 1.82683C4.23278 1.74367 3.46771 1.62448 2.78857 2.16779C1.69917 3.04374 1.71303 3.45954 2.93548 4.18581C3.16833 4.32441 3.4289 4.43529 3.62017 4.61547C3.8641 4.84832 4.10527 5.13106 3.92509 5.51637C3.79758 5.78802 3.55087 5.87396 3.26535 5.93771C1.78233 6.27035 1.89044 6.28699 1.75461 7.60923C1.61878 8.92039 2.41435 9.44152 3.32911 9.94049C3.7948 10.1955 4.16625 10.4533 3.90291 11.0548C3.63957 11.6536 3.20714 11.9363 2.58898 11.5815C2.05399 11.2738 1.82391 11.4346 1.80728 11.9918C1.76847 13.375 1.37207 14.9218 3.29584 15.4789C3.41504 15.5122 3.50652 15.6536 3.60354 15.7534C3.83916 15.9918 4.16902 16.2218 3.93618 16.6155C3.756 16.9232 3.45662 17.1255 3.08794 17.1144C2.8939 17.1089 2.69432 17.0119 2.51137 16.9259C1.87935 16.6321 1.80173 17.0507 1.80451 17.497C1.81282 18.4893 2.92994 19.7451 3.9639 19.953C5.08101 20.1775 5.49404 19.8837 5.50236 18.736C5.52453 16.111 5.51067 13.4831 5.51067 10.858L5.5079 10.8608ZM10.869 13.2891C10.869 12.7014 10.8911 12.2856 10.8634 11.8726C10.8412 11.5288 10.6306 11.4069 10.3062 11.551C9.80451 11.7756 9.35544 11.8365 9.18912 11.1546C9.06993 10.6612 9.06161 10.1927 9.65205 9.9488C11.0408 9.375 10.9383 8.18026 10.9105 6.99107C10.8939 6.35906 10.7997 5.89613 10.0235 5.93771C9.57166 5.96266 9.18635 5.82683 9.15309 5.29738C9.11982 4.78733 9.22239 4.32164 9.83777 4.1969C10.4504 4.07493 10.9355 3.75892 10.7747 3.08809C10.6278 2.47825 10.09 2.06245 9.52731 1.83515C9.16417 1.691 8.70957 1.77416 8.29377 1.76862C7.58413 1.75476 7.39841 2.07909 7.40672 2.80258C7.46494 7.77832 7.46494 12.7568 7.48434 17.7326C7.48434 18.2177 7.48988 18.7 7.50374 19.1851C7.5176 19.6674 7.74214 19.9252 8.25773 19.9668C9.81559 20.0888 11.1018 18.7915 10.8717 17.3112C10.8191 16.9786 10.6666 16.8123 10.3367 16.9814C9.7158 17.2974 9.24179 17.1671 9.02835 16.5018C8.84817 15.9419 9.19744 15.551 9.68531 15.3792C10.7997 14.9828 11.0852 14.1927 10.8745 13.2946L10.869 13.2891ZM16.7484 5.32233C16.6541 7.23778 17.519 8.2662 19.2654 8.32164C20.7816 8.37153 22.0401 7.23778 22.1177 5.75476C22.1954 4.2662 20.8066 2.67784 19.4317 2.67784C18.2868 2.67784 16.8066 4.13591 16.7484 5.32233ZM18.4338 11.0826C18.4088 11.6037 18.4532 12.0417 19.1517 12.0528C19.9778 12.0666 19.95 11.5233 19.9694 10.955C19.9916 10.3369 19.6922 10.1123 19.1101 10.104C18.3617 10.0929 18.4448 10.6169 18.4365 11.0826H18.4338Z" fill="#ACB7B7"/>
<path d="M20.0777 5.39164C20.05 5.72151 20.2108 6.58914 19.3764 6.51984C18.7222 6.4644 18.2482 5.80467 18.3397 4.99801C18.3702 4.73467 18.3813 4.44084 18.5088 4.21908C18.7139 3.86149 19.0521 3.55657 19.4873 3.61201C19.9752 3.67577 20.0777 4.09989 20.0805 4.53509C20.0805 4.73745 20.0805 4.94257 20.0805 5.39164H20.0777Z" fill="#ACB7B7"/>
</g>
<defs>
<clipPath id="clip0_4289_54">
<rect width="24" height="21.738" fill="white"/>
</clipPath>
</defs>
</svg>
