<svg width="48" height="48" viewBox="0 0 48 48" fill="none" xmlns="http://www.w3.org/2000/svg">
<path d="M24.1765 7.84868C25.9429 7.84593 27.686 8.01393 29.3817 8.54262C32.5388 9.52731 34.5644 11.6194 35.3948 14.8114C36.1271 17.6256 36.1285 20.4727 35.4071 23.2875C34.5445 26.6537 32.3797 28.8096 29.0265 29.6921C25.7152 30.5636 22.3744 30.565 19.0734 29.6352C15.7724 28.7054 13.6741 26.531 12.8684 23.1936C12.1196 20.0914 12.1326 16.981 13.1763 13.9399C14.1925 10.9776 16.3607 9.23725 19.3278 8.41851C20.9145 7.98033 22.5369 7.84113 24.1765 7.84868ZM18.2889 28.2713C18.4 27.5239 18.5029 26.8361 18.6044 26.149C18.8725 24.3326 19.1283 22.514 19.4128 20.7003C19.552 19.813 19.6432 18.8996 19.9278 18.0562C20.9036 15.1625 21.9561 12.2942 22.9779 9.41622C23.067 9.16593 23.1486 8.91359 23.2473 8.62353C22.9518 8.64753 22.7139 8.66399 22.4773 8.68662C21.1154 8.81553 19.7961 9.11108 18.5632 9.71999C16.3395 10.8178 15.0236 12.6459 14.39 14.9972C13.8051 17.1675 13.768 19.3742 14.0663 21.5883C14.2645 23.0599 14.6958 24.4601 15.5097 25.7204C16.2037 26.7936 17.1033 27.6439 18.2889 28.2727V28.2713ZM30.0009 28.2569C30.1175 28.1993 30.1977 28.165 30.2725 28.1218C31.8551 27.1961 32.9522 25.85 33.5687 24.1412C34.6274 21.2071 34.6357 18.2098 33.9438 15.2002C33.5337 13.4187 32.68 11.8786 31.2469 10.6992C29.8336 9.53622 28.1694 8.99382 26.3865 8.75588C25.9545 8.69828 25.5191 8.66536 25.0446 8.61668C25.0782 8.73942 25.0892 8.79359 25.1077 8.84571C25.9093 11.1024 26.7321 13.3522 27.5049 15.6185C27.9301 16.8651 28.504 18.0617 28.6816 19.3954C28.9827 21.6576 29.3468 23.9115 29.6848 26.1682C29.7877 26.8526 29.8926 27.5369 30.0016 28.2562L30.0009 28.2569ZM29.7342 28.3783C29.715 28.3282 29.6985 28.2747 29.6739 28.2247C28.2126 25.1945 26.7164 22.1794 25.3127 19.1225C24.963 18.3614 24.5557 18.074 23.7623 18.1927C23.5319 18.2276 23.4057 18.2784 23.3029 18.4937C22.022 21.168 20.7308 23.8368 19.4437 26.5083C19.1433 27.1316 18.8464 27.757 18.5495 28.3783C21.3047 29.9424 27.1148 29.9026 29.7342 28.3783ZM24.7196 16.7006C24.6764 13.9803 24.6345 11.304 24.592 8.62902H23.6992C23.654 11.328 23.6087 14.005 23.5628 16.7006H24.7196Z" fill="black"/>
<path d="M32.6978 36.9613H31.6685C31.6685 36.6075 31.6706 36.2777 31.6685 35.9485C31.6651 35.5543 31.5821 35.4727 31.1789 35.4699C30.5392 35.4651 29.8987 35.448 29.2596 35.4658C28.9894 35.4733 28.8646 35.3883 28.829 35.1236C28.807 34.9584 28.7446 34.7979 28.6891 34.5943C29.5188 34.5943 30.3053 34.5949 31.0912 34.5943C31.5856 34.5936 31.6672 34.5106 31.6678 34.0196C31.6678 33.8941 31.7104 33.7447 31.6569 33.648C31.5814 33.5101 31.4381 33.3133 31.3202 33.3106C30.317 33.2839 29.3131 33.2955 28.2763 33.2955V36.962H27.2107V32.4301C27.3204 32.424 27.4198 32.4137 27.5193 32.4137C28.8448 32.4137 30.1696 32.413 31.495 32.4144C32.3186 32.4157 32.7588 32.8608 32.7616 33.6884C32.7616 33.8029 32.7616 33.9168 32.7616 34.0313C32.7622 34.6285 32.7321 34.6861 32.2185 35.0297C32.9453 35.5303 32.6148 36.2749 32.6985 36.962L32.6978 36.9613Z" fill="black"/>
<path d="M39.7915 36.9812C39.3986 36.9812 39.0468 37.0038 38.7012 36.9682C38.5915 36.9572 38.4653 36.8098 38.4002 36.6953C37.8406 35.701 37.2962 34.6978 36.7394 33.7014C36.6838 33.602 36.5782 33.5314 36.4959 33.447C36.4246 33.5293 36.3362 33.6027 36.2847 33.696C35.9782 34.2528 35.6792 34.8144 35.3474 35.4322C35.8397 35.4322 36.2806 35.4582 36.7167 35.424C37.0534 35.3979 37.253 35.5097 37.3743 35.8162C37.436 35.9718 37.5327 36.1131 37.6452 36.3174C36.9375 36.3174 36.282 36.3174 35.6258 36.3174C35.466 36.3174 35.3042 36.3318 35.1464 36.314C34.9092 36.288 34.7522 36.3689 34.6699 36.5958C34.5506 36.9236 34.316 37.0292 33.9746 36.9908C33.7188 36.962 33.4568 36.9853 33.1243 36.9853C33.4102 36.5053 33.6619 36.0795 33.917 35.655C34.5218 34.647 35.1231 33.637 35.7416 32.6372C35.8088 32.5289 35.9768 32.4301 36.1044 32.4212C36.4795 32.3952 36.9266 32.2937 37.2146 32.4555C37.4978 32.6146 37.6301 33.0541 37.8132 33.3798C38.4338 34.4838 39.0482 35.5913 39.6632 36.6987C39.7051 36.7741 39.7352 36.855 39.7922 36.9819L39.7915 36.9812Z" fill="black"/>
<path d="M14.8555 36.984C14.4633 36.984 14.1293 37.0121 13.805 36.9703C13.672 36.9531 13.5163 36.8084 13.4436 36.6809C12.8807 35.6894 12.3376 34.6862 11.7821 33.6898C11.7307 33.5979 11.6395 33.5287 11.5661 33.4484C11.4921 33.5246 11.3968 33.589 11.3467 33.6788C11.0361 34.2363 10.7357 34.7993 10.3929 35.4322C10.7975 35.4322 11.1595 35.4747 11.5072 35.4226C12.0496 35.3403 12.3657 35.5563 12.544 36.0452C12.5707 36.1186 12.6153 36.1858 12.6845 36.3182C12.4171 36.3182 12.1867 36.3182 11.9556 36.3182C11.3618 36.3182 10.7673 36.3305 10.1735 36.312C9.94512 36.3051 9.80112 36.3744 9.72363 36.5815C9.59678 36.9209 9.35541 37.032 9.00295 36.9922C8.75609 36.9641 8.50375 36.9867 8.20752 36.9867C8.25552 36.8763 8.28089 36.7954 8.32341 36.7255C9.13803 35.3643 9.95746 34.0059 10.7687 32.6434C10.8653 32.4809 10.9675 32.3938 11.1705 32.4055C11.5456 32.4281 11.9899 32.3026 12.28 32.4638C12.5543 32.616 12.6743 33.0548 12.8525 33.3723C13.4724 34.477 14.0882 35.5838 14.7047 36.6898C14.7479 36.7673 14.7856 36.8475 14.8548 36.9847L14.8555 36.984Z" fill="black"/>
<path d="M25.2126 32.4233H26.3076C26.3076 32.5412 26.3076 32.6502 26.3076 32.7593C26.3076 33.6726 26.309 34.5853 26.3076 35.4987C26.3063 36.4231 25.7666 36.9744 24.845 36.9819C24.0119 36.9888 23.1787 36.9888 22.3456 36.9819C21.5028 36.9744 20.9495 36.4258 20.9426 35.5878C20.9351 34.6292 20.9412 33.6706 20.9433 32.712C20.9433 32.6242 20.9577 32.5357 20.9673 32.4322H22.037C22.037 32.5933 22.037 32.7387 22.037 32.8848C22.037 33.7981 22.0322 34.7108 22.037 35.6242C22.0391 36.0288 22.1707 36.1597 22.5712 36.1632C23.2672 36.1687 23.9639 36.1693 24.6599 36.1632C25.0768 36.1591 25.2112 36.0192 25.2126 35.6009C25.216 34.6765 25.2139 33.7522 25.2139 32.8272C25.2139 32.7037 25.2139 32.5803 25.2139 32.4247L25.2126 32.4233Z" fill="black"/>
<path d="M20.1362 32.4137V33.2948C19.9915 33.2948 19.8592 33.2948 19.7268 33.2948C18.7099 33.2948 17.693 33.2948 16.6768 33.2976C16.2605 33.2989 16.1515 33.4087 16.1488 33.8263C16.1453 34.3975 16.146 34.9687 16.1488 35.5399C16.1508 36.0075 16.2489 36.1076 16.709 36.1083C17.7143 36.1104 18.7195 36.1083 19.7248 36.1083C19.8489 36.1083 19.9737 36.1083 20.1232 36.1083V36.984C19.9943 36.984 19.8612 36.984 19.7282 36.984C18.666 36.984 17.6032 36.9867 16.541 36.9826C15.5872 36.9792 15.0509 36.4471 15.0448 35.5015C15.0413 34.9303 15.0386 34.3591 15.0496 33.7879C15.0653 32.9719 15.6263 32.4178 16.4409 32.4137C17.6615 32.4082 18.882 32.4123 20.1369 32.4123L20.1362 32.4137Z" fill="black"/>
</svg>
