<svg width="48" height="48" viewBox="0 0 48 48" fill="none" xmlns="http://www.w3.org/2000/svg">
<g clip-path="url(#clip0_4253_3956)">
<path fill-rule="evenodd" clip-rule="evenodd" d="M23.9999 22.8884C23.9414 22.8884 23.8984 22.9323 23.898 22.9332C23.8954 22.9352 22.8599 23.9233 22.8599 23.9233C22.4781 24.2919 21.9712 24.1376 21.917 24.1196C21.917 24.1196 17.4909 22.9122 17.4903 22.9118C16.6456 22.657 16.4778 22.3822 16.3486 22.0484C16.3486 22.0484 16.2735 21.8407 16.0896 21.7864C16.0896 21.7864 10.6791 20.1981 10.6787 20.1981C10.4579 20.1299 10.3364 20.0676 10.2496 19.8995C10.2496 19.8995 9.95262 19.3765 9.95164 19.3751C9.88571 19.2498 9.76641 19.2365 9.7595 19.2355C9.35031 19.1802 9.23032 18.9521 9.17957 18.8549L8.93822 18.4311C8.86273 18.2998 8.75478 18.2887 8.75146 18.2883C8.5188 18.2735 8.40806 18.2149 8.31187 18.0568C8.31187 18.0568 8.07589 17.6644 8.07492 17.6624C7.95894 17.4482 7.99904 17.2947 8.05254 17.2038C8.1652 17.0171 8.37147 17.0029 8.45426 17H21.3919C21.7582 17 22.0542 17.111 22.2731 17.3305C22.4303 17.4872 22.5385 17.6915 22.5945 17.9377C22.5955 17.9435 22.6107 17.9949 22.7214 17.9949H25.2786C25.3893 17.9949 25.4045 17.9435 25.4055 17.9377C25.4615 17.6915 25.5697 17.4871 25.7269 17.3305C25.9457 17.111 26.2417 17 26.6081 17H39.5457C39.6285 17.0029 39.8348 17.0171 39.9474 17.2038C40.0009 17.2947 40.041 17.4482 39.925 17.6624C39.9241 17.6644 39.6881 18.0568 39.6881 18.0568C39.5919 18.2148 39.4812 18.2735 39.2485 18.2883C39.2452 18.2887 39.1372 18.2998 39.0617 18.4311L38.8204 18.8549C38.7696 18.9521 38.6496 19.1802 38.2405 19.2355C38.2335 19.2365 38.1142 19.2498 38.0483 19.3751C38.0473 19.3765 37.7504 19.8995 37.7504 19.8995C37.6636 20.0676 37.5421 20.13 37.3213 20.1981C37.3209 20.1981 31.9103 21.7864 31.9103 21.7864C31.7265 21.8407 31.6514 22.0484 31.6514 22.0484C31.5222 22.3822 31.3543 22.657 30.5097 22.9118C30.5091 22.9122 26.083 24.1196 26.083 24.1196C26.0288 24.1376 25.5218 24.2919 25.14 23.9233C25.14 23.9233 24.1046 22.9352 24.102 22.9332C24.1015 22.9323 24.0585 22.8884 24.0001 22.8884H23.9999H23.9999Z" fill="black"/>
<path fill-rule="evenodd" clip-rule="evenodd" d="M25.6406 17.9901C25.6858 17.7896 25.7723 17.6253 25.8966 17.501C26.0687 17.3286 26.3083 17.241 26.6076 17.241C26.6076 17.241 29.5015 17.241 32.551 17.241C32.3467 17.3939 32.2394 17.5873 32.2322 17.6001C32.1634 17.7291 32.0774 17.8801 31.9751 18.0491H25.6196C25.6327 18.0259 25.6406 17.9901 25.6406 17.9901L25.6406 17.9901L25.6406 17.9901ZM39.7132 17.5472C39.7099 17.5524 39.4811 17.933 39.4811 17.933C39.4377 18.0045 39.4109 18.0368 39.2326 18.0482C39.2316 18.0482 32.1941 18.0491 32.1941 18.0491C32.2728 17.9159 32.3404 17.7949 32.397 17.6896C32.399 17.6858 32.6482 17.2415 33.0909 17.2415L39.5388 17.241C39.6064 17.2439 39.6943 17.2515 39.7408 17.3282C39.7464 17.3386 39.7597 17.36 39.7597 17.3986C39.7597 17.4328 39.7488 17.4815 39.7133 17.5472H39.7132L39.7132 17.5472ZM38.8524 18.3121L38.6067 18.7435C38.5731 18.8074 38.5214 18.906 38.3572 18.9626C38.2199 18.9969 37.9469 18.9751 37.8523 18.9636L31.8655 18.5659C31.9429 18.4512 32.0146 18.3407 32.08 18.2359H38.9041C38.8863 18.2587 38.8687 18.2834 38.8524 18.312V18.3121L38.8524 18.3121ZM37.8346 19.2626C37.8362 19.2608 37.5992 19.678 37.5499 19.7647C37.5377 19.7809 37.4704 19.8542 37.251 19.8251L31.5142 19.0555C31.5929 18.9527 31.6674 18.8507 31.7372 18.7521L37.8314 19.1565C37.8402 19.1575 37.8659 19.1604 37.9026 19.1637C37.8776 19.1923 37.8547 19.2246 37.8347 19.2627L37.8346 19.2626L37.8346 19.2626ZM35.8615 20.3761C35.6456 20.4334 35.2231 20.3685 35.0764 20.3381C35.0764 20.3381 32.3779 19.7836 31.1344 19.5279C31.2207 19.4265 31.3035 19.326 31.382 19.2265L37.1431 19.9998L35.8615 20.3761H35.8615L35.8615 20.3761ZM33.9074 20.9496C33.6303 21.0238 33.2685 20.9038 33.265 20.9028L33.2607 20.9015C33.2607 20.9015 33.2602 20.901 33.2598 20.901L30.6213 20.0871C30.752 19.9542 30.8763 19.8222 30.9934 19.6899L35.0388 20.5214C35.0477 20.5228 35.1305 20.54 35.2469 20.5561L33.9074 20.9496H33.9074L33.9074 20.9496ZM31.8464 21.555C31.6591 21.6058 31.383 21.4977 31.2914 21.4515C31.2914 21.4515 30.5854 21.121 29.8604 20.7819C30.0782 20.6033 30.2815 20.421 30.471 20.2367L33.2071 21.0811C33.2124 21.083 33.2622 21.0992 33.3383 21.1163L31.8464 21.555L31.8464 21.555ZM31.4241 21.9679C31.3444 22.1722 31.2611 22.3826 30.6998 22.5936C30.4681 22.6656 30.1926 22.4607 30.1902 22.4584C30.1893 22.4574 29.5644 22.0102 28.8529 21.501C29.1419 21.3225 29.4239 21.1263 29.6975 20.912L31.2095 21.6197C31.2178 21.624 31.3737 21.7026 31.5626 21.7378C31.4723 21.8407 31.4314 21.9469 31.424 21.9679H31.4241L31.4241 21.9679ZM29.3094 22.9899L29.0987 23.047C28.9213 23.0895 28.7048 22.9137 28.6356 22.8407C28.6356 22.8407 28.2955 22.487 27.8585 22.0306C28.138 21.904 28.4112 21.7626 28.6779 21.6064L30.0791 22.6089C30.0847 22.6136 30.1648 22.6736 30.2824 22.7246C29.9711 22.8093 29.3094 22.9899 29.3094 22.9899V22.9899L29.3094 22.9899ZM27.4568 23.4952C27.3089 23.5185 27.1372 23.2757 27.0874 23.1851L26.6648 22.4698C27.01 22.3703 27.3474 22.2511 27.6756 22.1107L28.4998 22.9708C28.5072 22.978 28.5984 23.0727 28.7306 23.1475L27.4568 23.4952L27.4568 23.4952L27.4568 23.4952ZM26.0538 23.8776C25.9542 23.9005 25.8702 23.8904 25.798 23.8468C25.6429 23.7519 25.5913 23.5338 25.5884 23.5209L25.3729 22.7432C25.7499 22.6908 26.118 22.6169 26.4779 22.5217L26.9249 23.2786C26.9403 23.3057 27.031 23.4638 27.167 23.5743L26.0537 23.8776L26.0538 23.8776L26.0538 23.8776ZM25.1445 23.5953C25.1445 23.5953 24.5451 23.0232 24.3418 22.8298C24.6271 22.8199 24.9086 22.7989 25.185 22.7665L25.4055 23.5618C25.4118 23.5895 25.4557 23.7638 25.5782 23.9025C25.4093 23.8544 25.3581 23.8043 25.1445 23.5953V23.5953V23.5953ZM24.0936 22.6479V20.2248H24.4804L25.1343 22.5842C24.794 22.6232 24.4471 22.6446 24.0936 22.6479V22.6479ZM22.8652 22.5842L23.5195 20.2248H23.9063V22.6475C23.5521 22.6446 23.2054 22.6228 22.8652 22.5842V22.5842L22.8652 22.5842ZM22.6935 23.749C22.6088 23.8314 22.5135 23.8776 22.4213 23.9024C22.5446 23.7633 22.5875 23.5885 22.594 23.5614L22.8145 22.7675C23.091 22.7994 23.3724 22.8203 23.6576 22.8298C23.4292 23.047 22.6935 23.749 22.6935 23.749L22.6935 23.749ZM22.4111 23.5195C22.4111 23.5219 22.3603 23.7496 22.2012 23.8468C22.129 23.8904 22.0453 23.9005 21.9457 23.8776L20.8325 23.5743C20.9685 23.4633 21.0602 23.3051 21.0759 23.2761C21.0753 23.2766 21.2645 22.957 21.5209 22.5223C21.8809 22.6175 22.2496 22.6913 22.6266 22.7432L22.411 23.5195H22.4111V23.5195ZM20.5427 23.4952L19.269 23.1475C19.4011 23.0723 19.4928 22.9775 19.4997 22.9704C19.4997 22.9704 19.8638 22.5902 20.3239 22.1107C20.6525 22.2507 20.989 22.3707 21.3343 22.4702L20.9135 23.1833C20.8622 23.2756 20.6905 23.5185 20.5427 23.4952L20.5427 23.4952L20.5427 23.4952ZM18.9005 23.047L17.717 22.7246C17.8351 22.6732 17.9157 22.6127 17.9223 22.6074C17.9214 22.6084 18.5835 22.1345 19.3216 21.6064C19.5883 21.7621 19.8615 21.904 20.1414 22.0307L19.3639 22.8408C19.2947 22.9138 19.0782 23.0895 18.9005 23.047V23.047L18.9005 23.047ZM17.2982 22.5936C16.7393 22.3826 16.6555 22.1726 16.576 21.9689C16.5695 21.9507 16.5286 21.8421 16.4369 21.7378C16.6262 21.702 16.7827 21.6235 16.7929 21.6183C16.7914 21.6187 17.5489 21.2649 18.3024 20.912C18.5753 21.1263 18.8573 21.323 19.1465 21.501L17.8111 22.4564C17.8068 22.4607 17.5299 22.6666 17.2982 22.5936L17.2982 22.5936ZM16.1535 21.555C16.0971 21.5382 15.4698 21.3539 14.6612 21.1163C14.7383 21.0992 14.789 21.082 14.7947 21.0801C14.7924 21.0811 17.012 20.3962 17.5288 20.2367C17.7184 20.4205 17.9217 20.6033 18.1395 20.7815L16.7109 21.4502C16.6163 21.4977 16.3408 21.6058 16.1535 21.555H16.1535L16.1535 21.555ZM14.0934 20.95C13.6535 20.821 13.1898 20.6848 12.7523 20.5561C12.869 20.54 12.9524 20.5228 12.9611 20.5209C12.9607 20.5214 15.817 19.9342 17.0065 19.6899C17.1241 19.8218 17.2474 19.9542 17.3782 20.0871L14.7368 20.902C14.7308 20.9038 14.3706 21.0234 14.0934 20.95H14.0934L14.0934 20.95ZM12.1398 20.3767C11.5455 20.2014 11.0625 20.06 10.8563 19.9999L16.6183 19.2265C16.697 19.3255 16.7793 19.426 16.8655 19.5275L12.923 20.3382C12.7768 20.3686 12.3562 20.4334 12.1397 20.3767L12.1398 20.3767L12.1398 20.3767ZM10.7489 19.8251C10.531 19.8541 10.4626 19.7823 10.4501 19.7651L10.1633 19.2603C10.1439 19.2227 10.1208 19.1913 10.0969 19.1636C10.1336 19.1603 16.2633 18.7521 16.2633 18.7521C16.3331 18.8506 16.4071 18.9521 16.4857 19.0555L10.749 19.8251L10.7489 19.8251L10.7489 19.8251ZM9.64285 18.9626C9.47846 18.9059 9.42635 18.8074 9.39277 18.7435C9.29226 18.5726 9.16009 18.3173 9.09513 18.2359H15.9203C15.9858 18.3407 16.057 18.4511 16.1349 18.5659L10.1471 18.9636C10.0531 18.9751 9.77996 18.9969 9.64283 18.9626V18.9626L9.64285 18.9626ZM8.76887 18.0491C8.60449 18.0368 8.56951 18.0173 8.51782 17.9324C8.51838 17.933 8.30328 17.5753 8.28614 17.5471C8.25047 17.4815 8.23871 17.4328 8.24024 17.3985C8.24426 17.3109 8.30383 17.2433 8.46075 17.2409L14.9091 17.2415C15.3455 17.2415 15.6029 17.6895 15.6029 17.6895C15.6596 17.7948 15.7272 17.9158 15.8063 18.0491H8.76892L8.76886 18.0491L8.76887 18.0491ZM21.3918 17.2409C21.6916 17.2409 21.9307 17.3286 22.1029 17.501C22.2272 17.6252 22.3135 17.7896 22.3594 17.9901C22.3594 17.9901 22.3686 18.0243 22.3804 18.0491H16.0249C15.9278 17.8896 15.7677 17.6001 15.7677 17.6001C15.7606 17.5872 15.6532 17.3938 15.4489 17.2409C18.4984 17.2409 21.3918 17.2409 21.3918 17.2409L21.3918 17.2409L21.3918 17.2409ZM30.5951 18.4821V18.2359H31.8586C31.7943 18.3368 31.7241 18.4425 31.6489 18.5516L30.5951 18.4821L30.5951 18.4821ZM30.5951 18.9326V18.6764L31.5177 18.7374C31.4495 18.8321 31.3767 18.9287 31.3007 19.0274L30.5951 18.9326H30.5951ZM30.5951 19.4174V19.1212L31.1657 19.1979C31.089 19.2928 31.0085 19.3884 30.9246 19.4851C30.7775 19.4546 30.6642 19.4317 30.5951 19.4174L30.5951 19.4174ZM30.5951 19.6085L30.7813 19.6465C30.7213 19.7127 30.6589 19.7799 30.5951 19.8461V19.6085ZM28.67 20.2248H30.2123C30.0551 20.381 29.684 20.6833 29.6719 20.6934C29.2968 20.5176 28.931 20.3471 28.67 20.2248H28.67ZM27.0693 20.2248H28.2283L29.5068 20.823C29.2411 21.0263 28.9679 21.2129 28.6872 21.383C28.0702 20.941 27.4201 20.4757 27.0693 20.2248V20.2248L27.0693 20.2248ZM26.1264 20.2248H26.7482L28.5105 21.4868C28.2536 21.634 27.9897 21.7679 27.7207 21.8869C27.1404 21.2821 26.4414 20.5528 26.1264 20.2248V20.2248ZM25.3387 20.2248H25.8667L27.5365 21.9659C27.2212 22.0974 26.8974 22.2092 26.5662 22.3031L25.3386 20.2248H25.3387ZM25.1212 20.2248L26.379 22.3536C26.0347 22.4432 25.682 22.5117 25.3222 22.5608L24.6745 20.2248H25.1212V20.2248ZM22.8783 20.2248H23.325L22.6773 22.5608C22.3169 22.5117 21.9648 22.4431 21.6205 22.3541C22.0918 21.5569 22.7206 20.4918 22.8783 20.2248V20.2248ZM22.1327 20.2248H22.6609L21.4333 22.3031C21.1021 22.2098 20.7787 22.0974 20.4627 21.9654C21.1324 21.2677 21.9382 20.4276 22.1327 20.2248L22.1327 20.2248V20.2248ZM21.2514 20.2248H21.8732L20.2794 21.8869C20.0098 21.7679 19.7465 21.634 19.4888 21.4868C20.2537 20.9391 21.0509 20.3681 21.2514 20.2248V20.2248ZM18.3277 20.6934C18.3136 20.6819 17.9442 20.3714 17.7873 20.2248H19.3294L18.3277 20.6934ZM19.7712 20.2248H20.9299L19.3122 21.3825C19.0313 21.2129 18.7582 21.0263 18.4929 20.8229C19.1002 20.5386 19.6625 20.2756 19.7712 20.2247V20.2248V20.2248ZM17.403 19.6085V19.8442C17.3397 19.7785 17.2781 19.7123 17.2187 19.6465C17.2927 19.6309 17.3546 19.6184 17.403 19.6085ZM17.403 19.1212V19.4174L17.0748 19.485C16.991 19.388 16.911 19.2927 16.8344 19.1979L17.403 19.1212L17.403 19.1212ZM17.403 18.6764V18.9326L16.6993 19.0274C16.6232 18.9287 16.551 18.8321 16.4829 18.7374L17.403 18.6764H17.403H17.403ZM17.403 18.4821L16.3516 18.5516C16.2759 18.4425 16.2061 18.3368 16.1418 18.2359H17.403V18.4821H17.403L17.403 18.4821Z" fill="white"/>
<path fill-rule="evenodd" clip-rule="evenodd" d="M17.5931 20.0376C17.5921 20.0366 17.5913 20.0356 17.5903 20.0347V18.2368H30.4081V20.0357C30.4077 20.0366 30.4071 20.0366 30.4067 20.0371L17.5931 20.0376L17.5931 20.0376L17.5931 20.0376Z" fill="url(#paint0_linear_4253_3956)"/>
<path fill-rule="evenodd" clip-rule="evenodd" d="M18.442 18.524H18.3885L17.8408 19.7493H17.9892L17.9915 19.7423C18.0359 19.5931 18.093 19.4503 18.1484 19.3132C18.1484 19.3132 18.1563 19.2935 18.1599 19.2841C18.1734 19.2841 18.5699 19.2841 18.5835 19.2841C18.6407 19.4145 18.6993 19.5641 18.7621 19.7427L18.7646 19.7493H18.9693L18.442 18.5239V18.524L18.442 18.524ZM18.2014 19.1907C18.2126 19.1636 18.3563 18.8269 18.3735 18.7869C18.3903 18.8269 18.5369 19.1636 18.5485 19.1907C18.5197 19.1907 18.2294 19.1907 18.2013 19.1907H18.2014Z" fill="white"/>
<path fill-rule="evenodd" clip-rule="evenodd" d="M19.0283 19.6622L19.0329 19.6669C19.0976 19.7374 19.2434 19.7703 19.322 19.7703C19.579 19.7703 19.7589 19.6046 19.7589 19.3666C19.7589 19.1693 19.6096 19.1112 19.4653 19.0541C19.3371 19.0031 19.2152 18.956 19.2152 18.8103C19.2152 18.6997 19.3024 18.6198 19.4219 18.6198C19.5174 18.6198 19.5896 18.6702 19.6262 18.7626L19.6287 18.7692H19.6613L19.7124 18.6145L19.7068 18.6093C19.637 18.5464 19.5296 18.524 19.4531 18.524C19.2136 18.524 19.059 18.6578 19.059 18.8654C19.059 19.0769 19.2167 19.1383 19.3555 19.1936C19.4811 19.2421 19.5988 19.2889 19.5988 19.4342C19.5988 19.569 19.4983 19.6751 19.3703 19.6751C19.2531 19.6751 19.1753 19.6247 19.0995 19.5008L19.0966 19.4961H19.064L19.0283 19.6622V19.6622L19.0283 19.6622Z" fill="white"/>
<path fill-rule="evenodd" clip-rule="evenodd" d="M20.726 18.5493H19.825V18.6755L19.8366 18.6745C19.94 18.6636 20.0399 18.654 20.2029 18.6535C20.2029 18.6749 20.2029 19.7532 20.2029 19.7532H20.376C20.376 19.7532 20.376 18.6755 20.376 18.654C20.4983 18.654 20.6153 18.6611 20.7246 18.6745L20.7368 18.6759V18.5493H20.726V18.5493Z" fill="white"/>
<path fill-rule="evenodd" clip-rule="evenodd" d="M21.3469 18.524C20.9646 18.524 20.6973 18.7816 20.6973 19.1498C20.6973 19.5212 20.9573 19.7703 21.3435 19.7703C21.7428 19.7703 22.0117 19.5103 22.0117 19.1236C22.0117 18.7092 21.6776 18.524 21.3469 18.524V18.524ZM21.6669 19.5565C21.5819 19.6465 21.4751 19.6923 21.3482 19.6923C21.0684 19.6923 20.8875 19.4875 20.8875 19.1708C20.8875 18.8198 21.0703 18.6021 21.364 18.6021C21.5025 18.6021 21.6333 18.6631 21.714 18.7649C21.8028 18.8783 21.8209 18.9965 21.8209 19.1379C21.8214 19.1455 21.8218 19.1541 21.8218 19.1623C21.8218 19.2774 21.775 19.4408 21.6669 19.5565L21.6669 19.5565L21.6669 19.5565Z" fill="white"/>
<path fill-rule="evenodd" clip-rule="evenodd" d="M23.2118 18.5493H23.1044C23.1044 18.5493 23.1044 19.4165 23.1044 19.4375C23.1034 19.4375 23.103 19.4375 23.1024 19.4375C23.0962 19.4303 22.2825 18.5493 22.2825 18.5493H22.1997V19.7494H22.3178C22.3178 19.7494 22.3178 18.842 22.3178 18.8206C22.3188 18.8206 22.3193 18.8206 22.3203 18.8206C22.3266 18.8278 23.0619 19.6418 23.0619 19.6418L23.1541 19.7494H23.1597H23.2224V18.5493H23.2118H23.2118L23.2118 18.5493Z" fill="white"/>
<path fill-rule="evenodd" clip-rule="evenodd" d="M25.1509 18.5492H25.1085L24.8178 19.0763C24.8178 19.0763 24.6339 19.4117 24.6172 19.4417C24.4379 19.1426 24.2764 18.8278 24.1389 18.5549L24.136 18.5492H24.075L24.0741 18.5592C24.0569 18.7364 23.9537 19.4588 23.9086 19.7374L23.9062 19.7493H24.0517V19.7389C24.0517 19.5699 24.0817 19.3178 24.1136 19.0506C24.1136 19.0506 24.1271 18.9326 24.1327 18.8854C24.1531 18.9244 24.3789 19.3531 24.4652 19.5298L24.5628 19.7308H24.5954L24.5981 19.7241C24.6986 19.4935 24.8402 19.2302 25.0342 18.8835C25.0617 19.0901 25.098 19.5031 25.1181 19.7398L25.1192 19.7493H25.3031L25.3014 19.7374C25.26 19.4464 25.2147 19.0611 25.1616 18.5592L25.1607 18.5492H25.151H25.1509V18.5492Z" fill="white"/>
<path fill-rule="evenodd" clip-rule="evenodd" d="M25.9741 18.524H25.9203L25.3723 19.7493H25.5215L25.5234 19.7423C25.5679 19.5917 25.6253 19.4484 25.681 19.3103C25.681 19.3103 25.6879 19.2931 25.6912 19.2841C25.7048 19.2841 26.1013 19.2841 26.1151 19.2841C26.1734 19.4174 26.2334 19.5707 26.2934 19.7427L26.2959 19.7493H26.5009L25.9741 18.5239V18.524V18.524ZM25.7331 19.1907C25.7443 19.1636 25.8882 18.8269 25.9054 18.7869C25.9225 18.8269 26.0686 19.1636 26.0804 19.1907C26.0515 19.1907 25.7615 19.1907 25.7331 19.1907Z" fill="white"/>
<path fill-rule="evenodd" clip-rule="evenodd" d="M27.0278 19.1564C27.2444 19.1126 27.374 18.9893 27.374 18.8226C27.374 18.6393 27.2454 18.5493 26.9802 18.5493H26.6041V19.7494H26.7768C26.7768 19.7494 26.7768 19.195 26.7768 19.1741C26.7903 19.1741 26.8196 19.1741 26.8271 19.1741C26.8328 19.1812 26.9616 19.3327 26.9616 19.3327C26.9611 19.3321 27.165 19.596 27.165 19.596L27.2767 19.7494H27.2826H27.5028C27.5028 19.7494 27.0483 19.1817 27.0279 19.1564H27.0278L27.0278 19.1564ZM26.7768 19.0879C26.7768 19.0688 26.7768 18.6535 26.7768 18.6344C26.848 18.6311 26.9583 18.6264 27.0183 18.6359C27.138 18.6554 27.199 18.7254 27.199 18.843C27.199 18.9636 27.1197 19.0516 26.9863 19.0783C26.9113 19.0935 26.8206 19.0908 26.7768 19.0879V19.0879Z" fill="white"/>
<path fill-rule="evenodd" clip-rule="evenodd" d="M28.373 18.5493H27.4717V18.6755L27.4834 18.6745C27.587 18.6636 27.6868 18.654 27.8492 18.6535C27.8492 18.6749 27.8492 19.7532 27.8492 19.7532H28.0233C28.0233 19.7532 28.0233 18.6755 28.0233 18.654C28.1452 18.654 28.2623 18.6611 28.3717 18.6745L28.3839 18.6759V18.5493H28.3731H28.373L28.373 18.5493Z" fill="white"/>
<path fill-rule="evenodd" clip-rule="evenodd" d="M28.5261 19.7494H28.6895V18.5493H28.5261V19.7494Z" fill="white"/>
<path fill-rule="evenodd" clip-rule="evenodd" d="M29.8487 18.5493C29.8487 18.5493 29.8487 19.4165 29.8487 19.4375C29.8482 19.4375 29.8478 19.4375 29.8473 19.4375C29.8408 19.4303 29.0274 18.5493 29.0274 18.5493H28.9445V19.7494H29.0627C29.0627 19.7494 29.0627 18.842 29.0627 18.8206C29.0636 18.8206 29.0641 18.8206 29.0646 18.8206C29.071 18.8278 29.8073 19.6418 29.8073 19.6418L29.8995 19.7494H29.9668V18.5493H29.8487V18.5493Z" fill="white"/>
<path fill-rule="evenodd" clip-rule="evenodd" d="M14.1646 31.2674C14.0998 31.2635 14.0448 31.2569 13.9862 31.2569C13.9212 31.2569 13.8629 31.2635 13.8043 31.2674C13.7051 30.9825 13.5814 30.6538 13.444 30.342H12.5729C12.4528 30.6434 12.3291 30.9448 12.2333 31.2674C12.1851 31.2635 12.1475 31.2569 12.1061 31.2569C12.0615 31.2569 12.0237 31.2635 11.9861 31.2674L13.0565 28.8727H13.1356L14.1645 31.2674H14.1646ZM35.8927 31.2674H35.7893C35.7517 31.2197 35.6829 31.1373 35.6113 31.0582L34.1286 29.4199H34.095V31.2673C34.0606 31.2635 34.0297 31.2568 33.9984 31.2568C33.9644 31.2568 33.9331 31.2635 33.9024 31.2673V28.9236H34.0365L35.666 30.6881H35.7005V28.9236C35.7312 28.9265 35.7619 28.9337 35.7967 28.9337C35.8278 28.9337 35.8587 28.9265 35.8927 28.9236V31.2673L35.8927 31.2674ZM33.1149 28.9236C33.163 28.9265 33.2147 28.9337 33.2658 28.9337C33.3138 28.9337 33.3621 28.9265 33.4167 28.9236V31.2674C33.362 31.2635 33.3138 31.2569 33.2658 31.2569C33.2147 31.2569 33.163 31.2635 33.1149 31.2674V28.9236ZM32.0154 31.274C31.9604 31.2707 31.9122 31.2635 31.8638 31.2635C31.8127 31.2635 31.7614 31.2707 31.7133 31.274V29.088C31.3671 29.088 31.1578 29.1084 30.9614 29.1289C30.9657 29.0946 30.972 29.0603 30.972 29.0265C30.972 28.9918 30.9657 28.9612 30.9614 28.9236H32.7321C32.7287 28.9612 32.7223 28.9918 32.7223 29.0265C32.7223 29.0603 32.7287 29.0946 32.7321 29.1289C32.5608 29.1084 32.3203 29.088 32.0155 29.088V31.274H32.0154H32.0154ZM29.2358 28.9236H29.9632C30.492 28.9236 30.7251 29.0979 30.7251 29.4442C30.7251 29.8414 30.3686 30.0338 30.0219 30.0952L30.7287 30.9896L30.8935 31.1815L30.9582 31.2674C30.8865 31.2635 30.8246 31.2569 30.7594 31.2569C30.6944 31.2569 30.6258 31.2635 30.5632 31.2674C30.4881 31.1611 30.4198 31.0644 30.3471 30.9686L29.9428 30.4448L29.6682 30.1233H29.5383V31.2674C29.483 31.2635 29.4351 31.2569 29.387 31.2569C29.3354 31.2569 29.2839 31.2635 29.2358 31.2674V28.9236L29.2358 28.9236ZM29.5383 29.9923C29.5859 29.9957 29.8054 30.0095 29.9805 29.9752C30.2317 29.9242 30.4199 29.7523 30.4199 29.4855C30.4199 29.2489 30.2993 29.0946 30.0423 29.0531C29.9157 29.0332 29.6817 29.0432 29.5383 29.0504V29.9924L29.5383 29.9923H29.5383ZM28.9982 31.2674C28.9325 31.2635 28.8785 31.2569 28.8193 31.2569C28.7543 31.2569 28.696 31.2635 28.6383 31.2674C28.5384 30.9825 28.4145 30.6538 28.2774 30.342H27.4064C27.286 30.6434 27.1622 30.9448 27.0665 31.2674C27.0184 31.2635 26.9808 31.2569 26.9397 31.2569C26.8952 31.2569 26.8569 31.2635 26.8197 31.2674L27.8897 28.8727H27.9687L28.9982 31.2674ZM27.8454 29.3213L27.4713 30.198H28.2261L27.8454 29.3213H27.8454ZM26.3843 28.9236C26.4736 29.7695 26.5699 30.6129 26.6621 31.2674C26.6002 31.2635 26.5521 31.2569 26.501 31.2569C26.4457 31.2569 26.3912 31.2635 26.3399 31.2674C26.2819 30.5782 26.2121 29.8385 26.1642 29.4994C25.7664 30.2086 25.4712 30.7563 25.2655 31.2296H25.2279L25.0393 30.842C24.8193 30.3905 24.5793 29.9448 24.3461 29.4994C24.2706 30.1671 24.178 30.8453 24.178 31.2674C24.1337 31.2635 24.0956 31.2569 24.0584 31.2569C24.0137 31.2569 23.9756 31.2635 23.9347 31.2674C24.0234 30.7158 24.2293 29.2832 24.2637 28.9236H24.353C24.6275 29.469 24.957 30.1123 25.3236 30.7191C25.6504 30.1324 25.9659 29.5371 26.3121 28.9236H26.3843H26.3843ZM22.5179 31.2674H22.4144C22.377 31.2197 22.3082 31.1373 22.2365 31.0582L20.7539 29.4199H20.7198V31.2673C20.6855 31.2635 20.6544 31.2568 20.6236 31.2568C20.5896 31.2568 20.5589 31.2635 20.5276 31.2673V28.9236H20.6617L22.291 30.6881H22.3257V28.9236C22.3564 28.9265 22.3872 28.9337 22.4213 28.9337C22.4519 28.9337 22.4832 28.9265 22.5179 28.9236V31.2673V31.2674H22.5179ZM17.597 30.0952C17.597 29.3447 18.156 28.8727 18.8665 28.8727C19.5118 28.8727 20.1667 29.2212 20.1667 30.0437C20.1667 30.8077 19.6249 31.3087 18.8603 31.3087C18.1019 31.3087 17.5971 30.8287 17.5971 30.0952L17.597 30.0952L17.597 30.0952ZM19.6147 29.3174C19.4434 29.1018 19.1758 28.9851 18.9005 28.9851C18.2974 28.9851 17.9335 29.4409 17.9335 30.1361C17.9335 30.8324 18.3588 31.1949 18.8701 31.1949C19.5942 31.1949 19.855 30.4481 19.8306 30.0714C19.8306 29.7876 19.793 29.547 19.6147 29.3174V29.3174L19.6147 29.3174ZM16.9202 31.274C16.865 31.2707 16.8173 31.2635 16.7691 31.2635C16.7174 31.2635 16.6657 31.2707 16.6183 31.274V29.088C16.2716 29.088 16.0619 29.1084 15.8668 29.1289C15.8701 29.0946 15.877 29.0603 15.877 29.0265C15.877 28.9918 15.8701 28.9612 15.8668 28.9236H17.637C17.6332 28.9612 17.6268 28.9918 17.6268 29.0265C17.6268 29.0603 17.6332 29.0946 17.637 29.1289C17.4653 29.1084 17.2256 29.088 16.9202 29.088V31.274ZM14.4052 30.8044C14.5387 31.0239 14.6928 31.1611 14.9612 31.1611C15.2386 31.1611 15.4377 30.931 15.4377 30.6606C15.4377 30.0233 14.3637 30.3048 14.3637 29.5299C14.3637 29.088 14.7137 28.8727 15.1256 28.8727C15.2898 28.8727 15.4894 28.9236 15.6156 29.0365C15.5745 29.1256 15.5508 29.2212 15.5234 29.3175H15.4894C15.4172 29.1322 15.2664 29.0194 15.064 29.0194C14.8271 29.0194 14.6319 29.1774 14.6319 29.4199C14.6319 30.051 15.7122 29.7972 15.7122 30.5272C15.7122 31.0173 15.3307 31.3087 14.8645 31.3087C14.6969 31.3087 14.4223 31.2368 14.3056 31.1096C14.3394 31.0101 14.3568 30.9072 14.3706 30.8044H14.4052L14.4052 30.8044ZM13.0118 29.3213L12.6383 30.198H13.3927L13.0118 29.3213H13.0118H13.0118Z" fill="black"/>
</g>
<defs>
<linearGradient id="paint0_linear_4253_3956" x1="21.2947" y1="16.4328" x2="26.7036" y2="21.8417" gradientUnits="userSpaceOnUse">
<stop stop-color="#339966"/>
<stop offset="1" stop-color="#004F32"/>
</linearGradient>
<clipPath id="clip0_4253_3956">
<rect width="32" height="14.3087" fill="white" transform="translate(8 17)"/>
</clipPath>
</defs>
</svg>
