<svg width="48" height="48" viewBox="0 0 48 48" fill="none" xmlns="http://www.w3.org/2000/svg">
<g clip-path="url(#clip0_4253_39985)">
<path d="M17.2953 26.1638C16.9199 26.275 16.6679 26.1281 16.5393 25.7251C16.4206 25.3533 16.4099 24.8782 16.5073 24.2999C16.5966 23.7765 16.7306 23.1658 16.9099 22.467C16.3773 23.7732 16.0566 24.4435 15.9479 24.4785C15.7846 24.5308 15.6773 24.4752 15.6253 24.3118C15.5833 24.1801 15.6213 23.9922 15.7406 23.7487C16.1339 22.784 16.6099 21.6479 17.1673 20.3398C17.2279 20.2094 17.3013 20.13 17.3866 20.1029C17.5419 20.0533 17.8093 20.1949 18.1899 20.5277C18.4019 20.709 18.5266 20.8572 18.5633 20.9736C18.5906 21.0597 18.5959 21.1688 18.5786 21.3025C18.5426 21.6737 18.4746 22.2097 18.3733 22.9097C18.3459 23.0387 18.3446 23.1413 18.3693 23.2194C18.4039 23.3279 18.4706 23.3491 18.5693 23.2842C18.6866 23.1955 18.8153 23.0096 18.9559 22.7251C19.2473 22.1375 19.5826 21.2999 19.9639 20.2134C20.0199 20.042 20.1919 19.823 20.4793 19.5557C20.7666 19.289 21.0053 19.1335 21.1966 19.0892C21.4579 19.023 21.6159 19.0753 21.6699 19.2454C21.7173 19.3929 21.7119 19.6847 21.6553 20.1214C21.5379 20.7996 21.4139 21.5778 21.2839 22.4558C21.2739 22.8257 21.3733 22.9779 21.5833 22.911C21.6839 22.8786 21.7866 22.7694 21.8893 22.5828C22.0139 22.3552 22.1366 22.1111 22.2586 21.8504C22.3193 21.72 22.4119 21.6347 22.5366 21.595C22.6993 21.5427 22.8046 21.591 22.8519 21.7379C22.8746 21.808 22.8413 21.9463 22.7533 22.1541C22.2666 23.3094 21.6979 24.1953 21.0479 24.8127C20.8913 24.9649 20.7313 25.0674 20.5686 25.1197C20.3279 25.1965 20.0986 25.1627 19.8819 25.0185C19.6953 24.8901 19.5653 24.7095 19.4906 24.4766C19.4533 24.3601 19.4379 24.2456 19.4453 24.1325C19.4859 23.752 19.5559 23.2088 19.6559 22.5021C18.6439 24.773 17.8573 25.9938 17.2959 26.1645L17.2953 26.1638Z" fill="#231F20"/>
<path d="M33.6773 12.0516C33.8486 12.1085 33.976 12.2647 34.058 12.5207C34.182 12.9091 34.1626 13.2896 33.9986 13.6628C33.8353 14.036 33.5713 14.2801 33.206 14.3966C32.9813 14.468 32.7726 14.4733 32.5813 14.4098C32.3906 14.3463 32.2513 14.1795 32.164 13.9069C32.0573 13.5735 32.0766 13.2036 32.2213 12.7986C32.3573 12.4215 32.604 12.176 32.962 12.0615C33.21 11.9821 33.448 11.9788 33.6773 12.0516Z" fill="#231F20"/>
<path d="M15.6373 24.0206C15.6293 24.0398 15.6247 24.0564 15.6233 24.0703C15.64 24.0233 15.646 24.0021 15.6373 24.0206ZM15.6533 20.8168C16.6613 17.9074 18.1507 14.6699 17.6947 14.5779C15.8147 14.1988 11.4387 20.2359 10.9093 21.6327C10.232 21.8417 9.49667 21.7848 8.98867 21.7848C8.608 21.7848 8.79467 22.8131 8.79467 22.8131C8.88267 23.2842 9.66334 23.1757 10.2973 22.9282C9.60334 24.4845 6.04134 28.7496 4.422 28.7496C4.30067 28.7496 4.494 31.307 3.44134 33.1557C1.872 35.9116 4.71534 31.344 8.38334 27.7029C9.42334 26.6706 11.8913 22.8554 12.1133 22.5934C12.6007 22.4492 13.6493 22.1415 13.674 22.2189C13.674 22.2189 12.162 25.1892 12.6853 26.355C13.914 29.0937 15.9473 24.5328 16.0207 24.4057C16.256 23.9988 15.6033 24.2754 15.6233 24.0689C15.5213 24.3561 15.0093 25.6173 14.8227 24.9417C14.658 24.3468 14.8347 23.1347 15.2987 21.7147C15.3233 21.6386 16.3033 21.5361 16.3293 21.4593C16.3493 21.3984 16.5153 20.7718 16.5367 20.7103C16.5673 20.619 15.6227 20.9081 15.6547 20.8155L15.6533 20.8168ZM14.1033 21.196C13.4533 21.4037 13.2373 21.4368 12.448 21.5678C12.6713 20.8731 14.776 17.1869 15.39 16.8024C15.5327 16.7144 15.6507 16.6555 15.744 16.6258C15.9147 16.5715 16.0187 16.602 16.056 16.7184C16.0907 16.8269 16.0647 17.0016 15.9793 17.2425C15.7633 17.8499 14.1967 20.7771 14.1027 21.196H14.1033Z" fill="#231F20"/>
<path d="M40.0107 19.2016C39.1793 18.454 38.6473 17.1974 39.8667 15.2005C40.2973 14.4952 40.0507 13.8891 39.9913 13.7031C39.9693 13.6337 39.9347 13.5801 39.8893 13.5437C39.6107 13.3432 39.3673 13.2757 39.1573 13.3425C39.0253 13.3849 38.8873 13.4881 38.7433 13.6535C38.5993 13.8189 38.4593 13.9824 38.3227 14.1451C38.108 14.384 37.8053 14.8425 37.4133 15.5208C37.2473 15.8033 37.07 16.1196 36.8827 16.4689C37.0147 16.0269 37.0547 15.7285 37.0727 15.5777C37.2527 14.0141 36.1587 14.1888 36.01 14.2887C35.8293 14.4098 35.6453 14.6368 35.1393 15.9145C34.886 16.6224 34.1207 18.1304 33.9413 18.5062C33.7393 18.9211 33.596 19.1414 33.5107 19.1692C33.4407 19.1917 33.3927 19.16 33.3647 19.0746C33.3053 18.888 33.3193 18.4229 33.406 17.6778C33.502 16.8785 33.4707 16.3842 33.4493 16.1652C33.3047 14.7049 32.3173 15.1773 32.0453 15.5882C31.9533 15.7279 31.8013 15.968 31.5933 16.463C31.4113 16.8944 30.124 20.0195 29.9033 20.3463C29.8607 20.4284 29.7873 20.5051 29.6813 20.5766C29.5767 20.6487 29.5 20.6798 29.454 20.6686C29.3073 20.6388 29.2427 20.476 29.2593 20.1796C29.2613 20.077 29.712 17.6692 29.844 17.0651C29.952 17.0307 30.09 16.9864 30.2573 16.9334C30.4247 16.8805 30.5347 16.8448 30.59 16.8269C30.7607 16.7726 30.866 16.7138 30.9053 16.6502L31.0193 16.2823C31.0387 16.2082 31.0413 16.152 31.0293 16.1136C30.988 15.9819 30.6407 16.021 29.988 16.2294C30.0187 16.0316 30.0353 15.9363 30.038 15.9442C30.0727 15.6769 30.06 15.4506 30.0007 15.2647C29.946 15.0946 29.84 14.9484 29.6813 14.828C29.5507 14.7413 29.4173 14.6566 29.2787 14.5726C29.11 14.4727 28.9787 14.4376 28.8853 14.4667C28.784 14.4991 28.7133 14.5984 28.672 14.7651C28.4267 15.7927 28.292 16.3611 28.2673 16.4716C28.2407 16.5483 28.198 16.6562 28.14 16.7945C27.6267 16.9579 27.352 17.1273 27.3133 17.302C27.2987 17.392 27.302 17.4681 27.322 17.5296C27.384 17.7235 27.5387 17.781 27.788 17.7016C27.3813 18.6716 26.4073 20.8221 26.2747 20.9412C26.21 20.74 26.094 20.5376 25.926 20.3344C25.6467 19.9963 25.4933 19.8104 25.466 19.7766C25.2713 19.4888 25.1567 19.2903 25.1213 19.1818C25.0873 19.0733 25.0987 18.9628 25.156 18.8503C25.214 18.7378 25.37 18.6756 25.6227 18.663C25.664 18.6584 25.7033 18.6498 25.7427 18.6379C25.8907 18.5909 26.0107 18.4844 26.1033 18.319C26.1953 18.1536 26.216 17.9901 26.1647 17.828C26.024 17.3887 25.694 17.2517 25.1733 17.4178C24.878 17.5124 24.562 17.7413 24.2247 18.1046C23.8873 18.4679 23.6027 18.8913 23.3727 19.3743C22.8247 20.6064 22.4367 21.4937 22.208 22.0363C22.1207 22.2262 22.1587 22.3459 22.3227 22.3955C22.492 22.4438 22.624 22.3764 22.72 22.1918C22.746 22.1408 22.9567 21.6598 23.35 20.748C23.6553 20.044 23.9 19.59 24.0833 19.3863C24.0873 19.641 24.1633 19.9844 24.3093 20.4158C24.4807 20.8995 24.578 21.2449 24.6013 21.45C24.18 21.5248 23.8953 21.5857 23.7487 21.6326C23.492 21.7147 23.258 21.8536 23.0467 22.0495C22.7907 22.293 22.7253 22.6093 22.8493 22.997C22.924 23.2299 23.064 23.441 23.27 23.6316C23.6013 23.9445 24.112 23.8923 24.8733 23.748C26.412 23.4562 27.6013 19.4246 27.7287 19.0819C27.436 20.3887 27.34 21.321 27.4407 21.8775C27.4787 22.1051 27.6147 22.2877 27.8473 22.4266C28.1053 22.5927 28.4127 22.6873 28.6887 22.5305C30.0187 21.7742 31.6413 18.2177 31.7813 17.8525C31.6213 18.9357 31.534 19.5854 31.5187 19.8038C31.4847 20.2067 31.5133 20.5515 31.6047 20.8373C31.6493 20.9769 31.7533 21.1013 31.9167 21.2112C32.1227 21.3501 32.3427 21.3825 32.576 21.3078C32.926 21.1966 33.3727 20.7341 33.9167 19.9209C34.422 19.1719 35.2133 17.1855 35.4733 16.5616C35.274 17.8128 35.1507 18.6035 35.102 18.935C35.102 18.9601 35.0547 19.1633 34.962 19.5431C34.902 19.7839 34.8933 19.9705 34.9353 20.1022C35.026 20.3887 35.212 20.4879 35.4913 20.3986C35.7013 20.3318 35.914 20.1551 36.1307 19.868C36.3473 19.5814 36.5067 19.2764 36.6087 18.9535C36.7113 18.6306 36.916 18.1086 37.2247 17.386C37.4933 16.7535 37.6793 16.3379 37.782 16.1388C37.8847 15.9389 38.0033 15.8178 38.1353 15.7762C38.1893 15.759 38.2227 15.7695 38.2353 15.8086C38.248 15.8476 38.2467 15.8992 38.2333 15.9634C37.9253 17.6255 38.5233 19.0673 38.8367 19.4895C38.46 19.6066 38.092 19.7469 37.75 19.907C36.1827 20.6441 8.45001 30.0088 12.68 28.6967C18.0213 27.0405 16.9527 30.6658 17.8793 29.7461C19.818 27.8219 35.9373 21.1787 39.082 19.8038C39.108 19.7925 39.1347 19.7826 39.1607 19.772C40.1753 20.4972 42.998 21.7775 42.998 19.9116C42.998 19.0971 41.5813 18.9257 40.0087 19.2043L40.0107 19.2016ZM24.114 22.8978C24.06 22.915 24.002 22.9209 23.94 22.915C23.7673 22.8845 23.6593 22.7998 23.614 22.6596C23.5793 22.551 23.612 22.4386 23.712 22.3214C23.7673 22.2526 24.0647 22.1659 24.6047 22.0621C24.5333 22.5378 24.37 22.8157 24.114 22.8978ZM41.942 20.1571C41.87 20.1617 41.156 19.9943 40.468 19.549C41.5247 19.596 42.2693 20.1366 41.942 20.1571Z" fill="#231F20"/>
</g>
<defs>
<clipPath id="clip0_4253_39985">
<rect width="40" height="22" fill="white" transform="translate(3 12)"/>
</clipPath>
</defs>
</svg>
