<svg width="48" height="48" viewBox="0 0 48 48" fill="none" xmlns="http://www.w3.org/2000/svg">
<g clip-path="url(#clip0_4253_4040)">
<path fill-rule="evenodd" clip-rule="evenodd" d="M8 23.8674C8 19.5224 15.1634 16 24 16C32.8366 16 40 19.5224 40 23.8674C40 28.2125 32.8366 31.7349 24 31.7349C15.1634 31.7349 8 28.2125 8 23.8674Z" fill="#DB1C30"/>
<path fill-rule="evenodd" clip-rule="evenodd" d="M25.0917 30.4681C24.8557 30.4681 24.6644 30.6594 24.6644 30.8954C24.6644 31.1313 24.8557 31.3226 25.0917 31.3226C25.3278 31.3226 25.5191 31.1313 25.5191 30.8954C25.5191 30.6594 25.3278 30.4681 25.0917 30.4681ZM24.0011 30.4681C23.7652 30.4681 23.5739 30.6594 23.5739 30.8954C23.5739 31.1313 23.7652 31.3226 24.0011 31.3226C24.2371 31.3226 24.4284 31.1313 24.4284 30.8954C24.4284 30.6594 24.2371 30.4681 24.0011 30.4681ZM22.895 30.4681C22.6591 30.4681 22.4678 30.6594 22.4678 30.8954C22.4678 31.1313 22.6591 31.3226 22.895 31.3226C23.131 31.3226 23.3224 31.1313 23.3224 30.8954C23.3224 30.6594 23.131 30.4681 22.895 30.4681ZM26.1824 30.407C25.9464 30.407 25.7552 30.5983 25.7552 30.8343C25.7552 31.0702 25.9464 31.2615 26.1824 31.2615C26.4183 31.2615 26.6096 31.0702 26.6096 30.8343C26.6096 30.5983 26.4183 30.407 26.1824 30.407ZM21.8045 30.407C21.5685 30.407 21.3772 30.5983 21.3772 30.8343C21.3772 31.0702 21.5685 31.2615 21.8045 31.2615C22.0404 31.2615 22.2317 31.0702 22.2317 30.8343C22.2317 30.5983 22.0404 30.407 21.8045 30.407ZM27.294 30.2983C27.0581 30.2983 26.8668 30.4896 26.8668 30.7256C26.8668 30.9615 27.0581 31.1528 27.294 31.1528C27.53 31.1528 27.7213 30.9615 27.7213 30.7256C27.7213 30.4896 27.53 30.2983 27.294 30.2983ZM20.6928 30.2983C20.4569 30.2983 20.2656 30.4896 20.2656 30.7256C20.2656 30.9615 20.4569 31.1528 20.6928 31.1528C20.9288 31.1528 21.1201 30.9615 21.1201 30.7256C21.1201 30.4896 20.9288 30.2983 20.6928 30.2983ZM28.4461 30.1699C28.2102 30.1699 28.0189 30.3612 28.0189 30.5971C28.0189 30.8331 28.2102 31.0244 28.4461 31.0244C28.6821 31.0244 28.8734 30.8331 28.8734 30.5971C28.8734 30.3612 28.6821 30.1699 28.4461 30.1699ZM19.5408 30.1699C19.3048 30.1699 19.1135 30.3612 19.1135 30.5971C19.1135 30.8331 19.3048 31.0244 19.5408 31.0244C19.7767 31.0244 19.968 30.8331 19.968 30.5971C19.968 30.3612 19.7767 30.1699 19.5408 30.1699ZM29.5982 29.9798C29.3622 29.9798 29.171 30.1711 29.171 30.407C29.171 30.643 29.3622 30.8343 29.5982 30.8343C29.8342 30.8343 30.0254 30.643 30.0254 30.407C30.0254 30.1711 29.8342 29.9798 29.5982 29.9798ZM18.3887 29.9798C18.1527 29.9798 17.9614 30.1711 17.9614 30.407C17.9614 30.643 18.1527 30.8343 18.3887 30.8343C18.6247 30.8343 18.816 30.643 18.816 30.407C18.816 30.1711 18.6247 29.9798 18.3887 29.9798ZM30.7474 29.7278C30.5113 29.7278 30.32 29.9191 30.32 30.155C30.32 30.391 30.5113 30.5823 30.7474 30.5823C30.9833 30.5823 31.1746 30.391 31.1746 30.155C31.1746 29.9191 30.9833 29.7278 30.7474 29.7278ZM17.2395 29.7278C17.0036 29.7278 16.8123 29.9191 16.8123 30.155C16.8123 30.391 17.0036 30.5823 17.2395 30.5823C17.4755 30.5823 17.6668 30.391 17.6668 30.155C17.6668 29.9191 17.4755 29.7278 17.2395 29.7278ZM31.9314 29.4438C31.6953 29.4438 31.504 29.6351 31.504 29.8711C31.504 30.107 31.6953 30.2983 31.9314 30.2983C32.1673 30.2983 32.3586 30.107 32.3586 29.8711C32.3586 29.6351 32.1673 29.4438 31.9314 29.4438ZM16.0555 29.4438C15.8195 29.4438 15.6283 29.6351 15.6283 29.8711C15.6283 30.107 15.8195 30.2983 16.0555 30.2983C16.2915 30.2983 16.4828 30.107 16.4828 29.8711C16.4828 29.6351 16.2915 29.4438 16.0555 29.4438ZM33.0428 29.0882C32.8068 29.0882 32.6155 29.2795 32.6155 29.5154C32.6155 29.7514 32.8068 29.9427 33.0428 29.9427C33.2787 29.9427 33.47 29.7514 33.47 29.5154C33.47 29.2795 33.2787 29.0882 33.0428 29.0882ZM14.9441 29.0882C14.7081 29.0882 14.5169 29.2795 14.5169 29.5154C14.5169 29.7514 14.7081 29.9427 14.9441 29.9427C15.1801 29.9427 15.3714 29.7514 15.3714 29.5154C15.3714 29.2795 15.1801 29.0882 14.9441 29.0882ZM34.196 28.64C33.9601 28.64 33.7688 28.8313 33.7688 29.0672C33.7688 29.3032 33.9601 29.4945 34.196 29.4945C34.432 29.4945 34.6233 29.3032 34.6233 29.0672C34.6233 28.8313 34.432 28.64 34.196 28.64ZM13.7908 28.64C13.5548 28.64 13.3635 28.8313 13.3635 29.0672C13.3635 29.3032 13.5548 29.4945 13.7908 29.4945C14.0267 29.4945 14.218 29.3032 14.218 29.0672C14.218 28.8313 14.0267 28.64 13.7908 28.64ZM35.3146 28.1141C35.0786 28.1141 34.8873 28.3054 34.8873 28.5414C34.8873 28.7773 35.0786 28.9686 35.3146 28.9686C35.5507 28.9686 35.742 28.7773 35.742 28.5414C35.742 28.3054 35.5507 28.1141 35.3146 28.1141ZM12.6722 28.1141C12.4362 28.1141 12.2449 28.3054 12.2449 28.5414C12.2449 28.7773 12.4362 28.9686 12.6722 28.9686C12.9082 28.9686 13.0994 28.7773 13.0994 28.5414C13.0994 28.3054 12.9082 28.1141 12.6722 28.1141ZM36.4233 27.466C36.1874 27.466 35.9961 27.6573 35.9961 27.8933C35.9961 28.1292 36.1874 28.3205 36.4233 28.3205C36.6593 28.3205 36.8506 28.1292 36.8506 27.8933C36.8506 27.6573 36.6593 27.466 36.4233 27.466ZM11.5635 27.466C11.3276 27.466 11.1363 27.6573 11.1363 27.8933C11.1363 28.1292 11.3276 28.3205 11.5635 28.3205C11.7995 28.3205 11.9908 28.1292 11.9908 27.8933C11.9908 27.6573 11.7995 27.466 11.5635 27.466ZM37.478 26.6747C37.242 26.6747 37.0507 26.866 37.0507 27.102C37.0507 27.338 37.242 27.5293 37.478 27.5293C37.7139 27.5293 37.9052 27.338 37.9052 27.102C37.9052 26.866 37.7139 26.6747 37.478 26.6747ZM10.5088 26.6747C10.2729 26.6747 10.0816 26.866 10.0816 27.102C10.0816 27.338 10.2729 27.5293 10.5088 27.5293C10.7448 27.5293 10.9361 27.338 10.9361 27.102C10.9361 26.866 10.7448 26.6747 10.5088 26.6747ZM38.3739 25.686C38.138 25.686 37.9467 25.8773 37.9467 26.1133C37.9467 26.3492 38.138 26.5405 38.3739 26.5405C38.6099 26.5405 38.8012 26.3492 38.8012 26.1133C38.8012 25.8773 38.6099 25.686 38.3739 25.686ZM9.61289 25.686C9.37693 25.686 9.18564 25.8773 9.18564 26.1133C9.18564 26.3492 9.37693 26.5405 9.61289 26.5405C9.84886 26.5405 10.0401 26.3492 10.0401 26.1133C10.0401 25.8773 9.84886 25.686 9.61289 25.686ZM38.9329 24.6239C38.697 24.6239 38.5057 24.8152 38.5057 25.0511C38.5057 25.2871 38.697 25.4784 38.9329 25.4784C39.169 25.4784 39.3603 25.2871 39.3603 25.0511C39.3603 24.8152 39.169 24.6239 38.9329 24.6239ZM9.05385 24.6239C8.81789 24.6239 8.6266 24.8152 8.6266 25.0511C8.6266 25.2871 8.81789 25.4784 9.05385 25.4784C9.28982 25.4784 9.48111 25.2871 9.48111 25.0511C9.48111 24.8152 9.28982 24.6239 9.05385 24.6239ZM39.1656 23.4402C38.9296 23.4402 38.7384 23.6315 38.7384 23.8674C38.7384 24.1034 38.9296 24.2947 39.1656 24.2947C39.4016 24.2947 39.5928 24.1034 39.5928 23.8674C39.5928 23.6315 39.4016 23.4402 39.1656 23.4402ZM8.82131 23.4402C8.58535 23.4402 8.39406 23.6315 8.39406 23.8674C8.39406 24.1034 8.58535 24.2947 8.82131 24.2947C9.05728 24.2947 9.24856 24.1034 9.24856 23.8674C9.24856 23.6315 9.05728 23.4402 8.82131 23.4402ZM38.9329 22.2565C38.697 22.2565 38.5057 22.4478 38.5057 22.6837C38.5057 22.9197 38.697 23.111 38.9329 23.111C39.169 23.111 39.3603 22.9197 39.3603 22.6837C39.3603 22.4478 39.169 22.2565 38.9329 22.2565ZM9.05384 22.2565C8.81788 22.2565 8.62659 22.4478 8.62659 22.6837C8.62659 22.9197 8.81788 23.111 9.05384 23.111C9.28981 23.111 9.4811 22.9197 9.4811 22.6837C9.4811 22.4478 9.28981 22.2565 9.05384 22.2565ZM38.3739 21.1944C38.138 21.1944 37.9467 21.3856 37.9467 21.6216C37.9467 21.8576 38.138 22.0488 38.3739 22.0488C38.6099 22.0488 38.8012 21.8576 38.8012 21.6216C38.8012 21.3856 38.6099 21.1944 38.3739 21.1944ZM9.6129 21.1944C9.37694 21.1944 9.18565 21.3856 9.18565 21.6216C9.18565 21.8576 9.37694 22.0488 9.6129 22.0488C9.84887 22.0488 10.0402 21.8576 10.0402 21.6216C10.0402 21.3856 9.84887 21.1944 9.6129 21.1944ZM37.478 20.2057C37.242 20.2057 37.0507 20.3969 37.0507 20.6329C37.0507 20.8688 37.242 21.0601 37.478 21.0601C37.7139 21.0601 37.9052 20.8688 37.9052 20.6329C37.9052 20.3969 37.7139 20.2057 37.478 20.2057ZM10.5088 20.2057C10.2729 20.2057 10.0816 20.3969 10.0816 20.6329C10.0816 20.8688 10.2729 21.0601 10.5088 21.0601C10.7448 21.0601 10.9361 20.8688 10.9361 20.6329C10.9361 20.3969 10.7448 20.2057 10.5088 20.2057ZM36.4233 19.4144C36.1874 19.4144 35.9961 19.6056 35.9961 19.8416C35.9961 20.0776 36.1874 20.2688 36.4233 20.2688C36.6593 20.2688 36.8506 20.0776 36.8506 19.8416C36.8506 19.6056 36.6593 19.4144 36.4233 19.4144ZM11.5635 19.4144C11.3276 19.4144 11.1363 19.6056 11.1363 19.8416C11.1363 20.0775 11.3276 20.2688 11.5635 20.2688C11.7995 20.2688 11.9908 20.0775 11.9908 19.8416C11.9908 19.6056 11.7995 19.4144 11.5635 19.4144ZM35.3146 18.7662C35.0786 18.7662 34.8873 18.9575 34.8873 19.1935C34.8873 19.4294 35.0786 19.6207 35.3146 19.6207C35.5507 19.6207 35.742 19.4294 35.742 19.1935C35.742 18.9575 35.5507 18.7662 35.3146 18.7662ZM12.6722 18.7662C12.4362 18.7662 12.2449 18.9575 12.2449 19.1935C12.2449 19.4294 12.4362 19.6207 12.6722 19.6207C12.9082 19.6207 13.0995 19.4294 13.0995 19.1935C13.0995 18.9575 12.9082 18.7662 12.6722 18.7662ZM34.196 18.2404C33.9601 18.2404 33.7688 18.4317 33.7688 18.6677C33.7688 18.9036 33.9601 19.0949 34.196 19.0949C34.432 19.0949 34.6233 18.9036 34.6233 18.6677C34.6233 18.4317 34.432 18.2404 34.196 18.2404ZM13.7908 18.2404C13.5548 18.2404 13.3635 18.4317 13.3635 18.6677C13.3635 18.9036 13.5548 19.0949 13.7908 19.0949C14.0267 19.0949 14.218 18.9036 14.218 18.6677C14.218 18.4317 14.0267 18.2404 13.7908 18.2404ZM33.0428 17.7922C32.8068 17.7922 32.6155 17.9835 32.6155 18.2195C32.6155 18.4554 32.8068 18.6467 33.0428 18.6467C33.2787 18.6467 33.47 18.4554 33.47 18.2195C33.47 17.9835 33.2787 17.7922 33.0428 17.7922ZM14.9441 17.7922C14.7082 17.7922 14.5169 17.9835 14.5169 18.2195C14.5169 18.4554 14.7082 18.6467 14.9441 18.6467C15.1801 18.6467 15.3714 18.4554 15.3714 18.2195C15.3714 17.9835 15.1801 17.7922 14.9441 17.7922ZM23.9934 17.6022C16.0454 17.6022 9.60231 20.4072 9.60231 23.8674C9.60231 27.3276 16.0454 30.1326 23.9934 30.1326C31.9415 30.1326 38.3845 27.3276 38.3845 23.8674C38.3845 20.4072 31.9415 17.6022 23.9934 17.6022ZM31.9314 17.4366C31.6953 17.4366 31.504 17.6279 31.504 17.8638C31.504 18.0998 31.6953 18.2911 31.9314 18.2911C32.1673 18.2911 32.3586 18.0998 32.3586 17.8638C32.3586 17.6279 32.1673 17.4366 31.9314 17.4366ZM16.0555 17.4366C15.8196 17.4366 15.6283 17.6279 15.6283 17.8638C15.6283 18.0998 15.8196 18.2911 16.0555 18.2911C16.2915 18.2911 16.4828 18.0998 16.4828 17.8638C16.4828 17.6279 16.2915 17.4366 16.0555 17.4366ZM30.7474 17.1526C30.5113 17.1526 30.32 17.3438 30.32 17.5798C30.32 17.8157 30.5113 18.007 30.7474 18.007C30.9833 18.007 31.1746 17.8157 31.1746 17.5798C31.1746 17.3438 30.9833 17.1526 30.7474 17.1526ZM17.2396 17.1526C17.0036 17.1526 16.8123 17.3438 16.8123 17.5798C16.8123 17.8157 17.0036 18.007 17.2396 18.007C17.4755 18.007 17.6668 17.8157 17.6668 17.5798C17.6668 17.3438 17.4755 17.1526 17.2396 17.1526ZM29.5982 16.9006C29.3622 16.9006 29.171 17.0919 29.171 17.3278C29.171 17.5638 29.3622 17.7551 29.5982 17.7551C29.8342 17.7551 30.0254 17.5638 30.0254 17.3278C30.0254 17.0919 29.8342 16.9006 29.5982 16.9006ZM18.3887 16.9006C18.1527 16.9006 17.9615 17.0919 17.9615 17.3278C17.9615 17.5638 18.1527 17.7551 18.3887 17.7551C18.6247 17.7551 18.816 17.5638 18.816 17.3278C18.816 17.0919 18.6247 16.9006 18.3887 16.9006ZM28.4461 16.7105C28.2102 16.7105 28.0189 16.9018 28.0189 17.1377C28.0189 17.3737 28.2102 17.565 28.4461 17.565C28.6821 17.565 28.8734 17.3737 28.8734 17.1377C28.8734 16.9018 28.6821 16.7105 28.4461 16.7105ZM19.5408 16.7105C19.3048 16.7105 19.1135 16.9018 19.1135 17.1377C19.1135 17.3737 19.3048 17.565 19.5408 17.565C19.7767 17.565 19.968 17.3737 19.968 17.1377C19.968 16.9018 19.7767 16.7105 19.5408 16.7105ZM27.294 16.5821C27.0581 16.5821 26.8668 16.7734 26.8668 17.0093C26.8668 17.2453 27.0581 17.4366 27.294 17.4366C27.53 17.4366 27.7213 17.2453 27.7213 17.0093C27.7213 16.7734 27.53 16.5821 27.294 16.5821ZM20.6928 16.5821C20.4569 16.5821 20.2656 16.7734 20.2656 17.0093C20.2656 17.2453 20.4569 17.4366 20.6928 17.4366C20.9288 17.4366 21.1201 17.2453 21.1201 17.0093C21.1201 16.7734 20.9288 16.5821 20.6928 16.5821ZM26.1824 16.4734C25.9464 16.4734 25.7552 16.6646 25.7552 16.9006C25.7552 17.1366 25.9464 17.3278 26.1824 17.3278C26.4183 17.3278 26.6096 17.1366 26.6096 16.9006C26.6096 16.6646 26.4183 16.4734 26.1824 16.4734ZM21.8045 16.4734C21.5685 16.4734 21.3772 16.6646 21.3772 16.9006C21.3772 17.1365 21.5685 17.3278 21.8045 17.3278C22.0404 17.3278 22.2317 17.1365 22.2317 16.9006C22.2317 16.6646 22.0404 16.4734 21.8045 16.4734ZM25.0917 16.4123C24.8557 16.4123 24.6644 16.6036 24.6644 16.8395C24.6644 17.0755 24.8557 17.2668 25.0917 17.2668C25.3278 17.2668 25.5191 17.0755 25.5191 16.8395C25.5191 16.6036 25.3278 16.4123 25.0917 16.4123ZM24.0011 16.4123C23.7652 16.4123 23.5739 16.6036 23.5739 16.8395C23.5739 17.0755 23.7652 17.2668 24.0011 17.2668C24.2371 17.2668 24.4284 17.0755 24.4284 16.8395C24.4284 16.6036 24.2371 16.4123 24.0011 16.4123ZM22.895 16.4123C22.6591 16.4123 22.4678 16.6036 22.4678 16.8395C22.4678 17.0755 22.6591 17.2668 22.895 17.2668C23.1311 17.2668 23.3224 17.0755 23.3224 16.8395C23.3224 16.6036 23.1311 16.4123 22.895 16.4123ZM23.9934 16.0795C32.7824 16.0795 39.9073 19.5663 39.9073 23.8674C39.9073 28.1686 32.7824 31.6553 23.9934 31.6553C15.2045 31.6553 8.07959 28.1686 8.07959 23.8674C8.07959 19.5663 15.2045 16.0795 23.9934 16.0795Z" fill="white"/>
<path fill-rule="evenodd" clip-rule="evenodd" d="M25.9956 24.1014L25.7419 24.9937H26.2658L25.9956 24.1014ZM25.21 21.6603H26.1208L26.6872 22.227L28.043 27.1085H27.1535L26.5871 26.5418L26.5192 26.3012H25.4227L25.2278 27.1085H24.4206L23.8541 26.5418L25.21 21.6603Z" fill="black"/>
<path fill-rule="evenodd" clip-rule="evenodd" d="M20.9594 21.6603H22.7092C22.8799 21.6699 22.978 21.6975 23.1553 21.8308L23.7058 22.3938C23.7727 22.4947 23.814 22.7049 23.8409 22.8842L23.801 23.5359H22.9266L22.3626 22.9733L21.8103 22.9729C21.8055 23.8912 21.8008 24.8095 21.796 25.7278H22.1342C22.2588 25.7278 22.3598 25.6269 22.3598 25.5025V24.4987H22.0048V23.8331L23.3671 23.8331L23.8144 24.3068C23.8144 24.9948 23.801 25.6298 23.801 26.3179C23.801 26.6809 23.3338 27.1079 22.9705 27.1079H21.5262C21.3477 27.1168 21.1703 27.0256 21.0714 26.9349L20.4419 26.2992C20.3749 26.1983 20.2998 26.0253 20.3015 25.884V22.3176C20.3015 21.9546 20.5961 21.6603 20.9594 21.6603Z" fill="black"/>
<path fill-rule="evenodd" clip-rule="evenodd" d="M30.8666 21.6603H34.1541L34.4192 22.0297V23.0362H33.5788C33.5803 24.3936 33.5821 25.7511 33.5837 27.1085H32.5783L32.0077 26.5418V23.0362H31.3339L30.8666 22.6668V21.6603Z" fill="black"/>
<path fill-rule="evenodd" clip-rule="evenodd" d="M16.0862 21.6603H17.1363L17.7024 22.227L17.7022 25.7282H17.9605C18.0849 25.7282 18.1857 25.6273 18.1857 25.5029V23.2874V21.6603H19.1919L19.7581 22.227V26.4512C19.7581 26.8142 19.4639 27.1085 19.101 27.1085H17.3095C17.1241 27.1 17.0066 27.0292 16.8692 26.9255L16.2216 26.2883C16.1547 26.1874 16.1088 26.0535 16.0862 25.8845V25.2743V23.2874V21.6603Z" fill="black"/>
<path fill-rule="evenodd" clip-rule="evenodd" d="M34.6711 21.6603H35.6806L36.2486 22.227V27.1085H35.2392L34.6711 26.5418V21.6603Z" fill="black"/>
<path fill-rule="evenodd" clip-rule="evenodd" d="M27.1549 21.6603H30.4424L30.7075 22.0297V23.0362H29.8671C29.8688 24.3936 29.8542 25.7511 29.856 27.1085H28.8671L28.296 26.5418V23.0362H27.6222L27.1549 22.6668V21.6603Z" fill="black"/>
<path fill-rule="evenodd" clip-rule="evenodd" d="M13.3199 24.9272V25.7282H13.6574C13.891 25.7282 14.0803 25.5383 14.0803 25.304V24.9272H13.3199ZM13.3199 23.0407V23.5469H13.5887C13.7719 23.5469 13.9205 23.3979 13.9205 23.2141V23.0407H13.3199ZM11.7515 21.6603L14.306 21.6603C14.46 21.6782 14.5517 21.7081 14.7235 21.8059C14.8876 21.9191 15.209 22.2586 15.3366 22.4321C15.3995 22.5273 15.4635 22.6021 15.4889 22.8469V23.9005C15.4889 24.1572 15.3332 24.3775 15.1113 24.4716C15.4219 24.7193 15.6448 24.89 15.6487 25.4123V26.2166C15.6487 26.7092 15.2505 27.1085 14.7593 27.1085H12.3162L11.7515 26.5418V21.6603Z" fill="black"/>
<path fill-rule="evenodd" clip-rule="evenodd" d="M16.0862 21.6603H17.135L17.1347 25.5003C17.1347 25.6246 17.2355 25.7254 17.3597 25.7254H17.9582C18.0824 25.7254 18.1831 25.6246 18.1831 25.5003V23.2863V21.6603H19.1881V25.8816C19.1881 26.2444 18.8942 26.5385 18.5318 26.5385H16.7425C16.38 26.5385 16.0862 26.2444 16.0862 25.8816V25.2719V23.2863V21.6603Z" fill="white"/>
<path fill-rule="evenodd" clip-rule="evenodd" d="M20.9587 21.6603H22.7066C23.0695 21.6603 23.3637 21.9544 23.3637 22.3172V22.9685H22.3574V22.6986C22.3574 22.5742 22.2566 22.4734 22.1322 22.4734H21.533C21.4085 22.4734 21.3076 22.5742 21.3076 22.6986V25.5003C21.3076 25.6246 21.4085 25.7254 21.533 25.7254H22.1322C22.2566 25.7254 22.3574 25.6246 22.3574 25.5003V24.4971H22.0028V23.8319H23.242H23.3637V25.8816C23.3637 26.2444 23.0695 26.5385 22.7066 26.5385H20.9587C20.5957 26.5385 20.3015 26.2444 20.3015 25.8816V22.3172C20.3015 21.9544 20.5957 21.6603 20.9587 21.6603Z" fill="white"/>
<path d="M35.6786 21.6603H34.6711V26.5385H35.6786V21.6603Z" fill="white"/>
<path fill-rule="evenodd" clip-rule="evenodd" d="M30.8666 21.6603H34.1541V22.6661H33.013V26.5385H32.0077V22.6661H30.8666V21.6603Z" fill="white"/>
<path fill-rule="evenodd" clip-rule="evenodd" d="M27.1549 21.6603H30.4424V22.6661H29.3013V26.5385H28.296V22.6661H27.1549V21.6603Z" fill="white"/>
<path fill-rule="evenodd" clip-rule="evenodd" d="M25.6636 23.2734L25.2115 24.8764H26.1156L25.6636 23.2734ZM25.2086 21.6603H26.1185L27.473 26.5385H26.5845L26.3569 25.7317H24.9703L24.7427 26.5385H23.8541L25.2086 21.6603Z" fill="white"/>
<path fill-rule="evenodd" clip-rule="evenodd" d="M12.7535 24.3586V25.7254H13.6544C13.8876 25.7254 14.0767 25.5356 14.0767 25.3015V24.7825C14.0767 24.5484 13.8876 24.3586 13.6544 24.3586H12.7535ZM12.7535 22.4734V23.5456H13.5858C13.7687 23.5456 13.917 23.3967 13.917 23.2131V22.8059C13.917 22.6223 13.7687 22.4734 13.5858 22.4734H12.7535ZM11.7515 21.6603C12.6016 21.6603 13.4518 21.6603 14.302 21.6603C14.6428 21.6603 14.9191 21.9377 14.9191 22.2798V23.3327C14.9191 23.6748 14.6428 23.9521 14.302 23.9521L14.3697 23.9702C14.7743 24.0533 15.0787 24.4127 15.0787 24.8435V25.6472C15.0787 26.1394 14.6811 26.5385 14.1907 26.5385C13.3776 26.5385 12.5645 26.5385 11.7515 26.5385V21.6603Z" fill="white"/>
<path fill-rule="evenodd" clip-rule="evenodd" d="M24.2495 19.7516V20.3439H24.8424C25.0062 20.3439 25.1391 20.2113 25.1391 20.0477C25.1391 19.8842 25.0062 19.7516 24.8424 19.7516H24.2495ZM24.9319 18.8652L24.2495 18.8666V19.2711H24.9319C25.0463 19.2711 25.1391 19.1709 25.1391 19.0642C25.1391 18.9576 25.0463 18.8652 24.9319 18.8652ZM22.1707 18.3861H25.1912C25.543 18.3861 25.8281 18.6707 25.8281 19.0218C25.8281 19.1973 25.7569 19.3562 25.6416 19.4713L25.534 19.5437L25.6191 19.601C25.7482 19.7299 25.8408 19.8451 25.8281 20.1048C25.8281 20.4984 25.5085 20.8252 25.1142 20.8252L22.1707 20.8244V19.996H22.6004V20.3439H23.6321V19.7516H23.2685V19.9243H22.8389V19.0959H23.2685V19.2711H23.6321V18.8666H22.6004V19.2145H22.1707V18.3861Z" fill="black"/>
</g>
<defs>
<clipPath id="clip0_4253_4040">
<rect width="32" height="15.7349" fill="white" transform="translate(8 16)"/>
</clipPath>
</defs>
</svg>
