<svg width="48" height="48" viewBox="0 0 48 48" fill="none" xmlns="http://www.w3.org/2000/svg">
<path d="M22.2336 7.76531C18.0802 8.43865 14.6602 10.9586 12.8602 14.6986C10.9402 18.672 11.2669 23.352 13.7269 27.0053C16.4802 31.112 21.4002 33.1986 26.2669 32.3386C28.9402 31.8653 31.6002 30.372 33.3736 28.3453C35.2002 26.2653 36.2469 23.792 36.4736 21.012C36.6536 18.9186 36.2336 16.6853 35.3069 14.7653C34.6669 13.432 34.0402 12.5186 33.0669 11.5053C31.2736 9.63865 29.1002 8.42531 26.5736 7.89198C25.8802 7.74531 25.5602 7.71198 24.3002 7.69198C23.2402 7.67865 22.6669 7.69865 22.2336 7.76531ZM25.0336 8.99865C27.5802 9.23865 29.8669 10.2653 31.6469 11.9586C32.7469 13.0053 33.4202 13.912 34.0336 15.1653C35.2869 17.712 35.5269 20.5186 34.7336 23.2453C33.5736 27.2253 30.1735 30.272 26.0336 31.0386C25.5269 31.1386 25.0535 31.1653 24.0336 31.1653C22.5336 31.1653 22.0202 31.0853 20.7402 30.692C14.8469 28.8586 11.5936 22.5786 13.4802 16.6653C14.0402 14.912 15.0136 13.372 16.4002 12.0453C18.7269 9.81198 21.8802 8.70531 25.0336 8.99865Z" fill="black"/>
<path d="M26.1335 13.5321V14.3988H23.7001H21.2668V15.2321V16.0654L18.8535 16.0788L16.4335 16.0988V19.6321C16.4335 23.0788 16.4401 23.1854 16.5868 23.8921C16.8001 24.8721 17.1201 25.7921 17.6401 26.8588C18.2935 28.2121 19.2135 29.7054 19.3468 29.6254C19.5135 29.5188 20.3868 28.0788 20.8668 27.0988C21.4001 26.0121 21.7135 25.2054 21.8668 24.5121C21.9135 24.3054 21.9735 24.1321 21.9935 24.1321C22.0135 24.1321 22.0868 24.2721 22.1601 24.4521C22.4001 25.0521 23.1935 26.5321 23.6668 27.2654L24.1468 27.9988L24.3268 27.7521C25.2735 26.4188 26.1601 24.6654 26.5668 23.2988C26.8801 22.2521 26.8401 22.3321 26.9401 22.5988C27.1335 23.1321 27.8401 24.4654 28.3801 25.3321C28.7001 25.8454 28.9801 26.2654 29.0001 26.2654C29.0201 26.2654 29.2335 25.9588 29.4735 25.5788C30.5601 23.9121 31.3068 22.2321 31.6868 20.6321C31.8135 20.0654 31.8268 19.8121 31.8468 16.3454L31.8735 12.6654H29.0068H26.1335V13.5321ZM30.9335 16.6588C30.9335 20.0588 30.9135 20.2654 30.4935 21.4788C30.3601 21.8521 30.1335 22.3988 29.9868 22.6921C29.6401 23.3921 29.0735 24.3321 29.0001 24.3321C28.8201 24.3321 27.7935 22.3788 27.4801 21.4321C27.0601 20.1854 27.0535 20.1121 27.0201 16.7121L26.9868 13.5988H28.9601H30.9335V16.6588ZM26.1001 18.3654C26.1001 21.0788 26.0868 21.4988 25.9801 21.9988C25.7201 23.1988 25.2468 24.3588 24.5268 25.5254L24.1801 26.0854L24.0468 25.9254C23.5268 25.2788 22.7068 23.5321 22.3935 22.3988C22.2468 21.8454 22.2401 21.7388 22.2135 18.5454L22.1935 15.2654L24.1468 15.2788L26.1001 15.2988V18.3654ZM21.2668 19.9454C21.2668 23.2054 21.2268 23.6654 20.8601 24.7654C20.7468 25.0921 20.5268 25.6454 20.3668 25.9921C20.0801 26.5988 19.4335 27.7054 19.3268 27.7721C19.2535 27.8121 18.5601 26.6721 18.2335 25.9654C17.9401 25.3454 17.6868 24.6188 17.4935 23.8654C17.3935 23.4988 17.3735 22.9588 17.3535 20.2121L17.3268 16.9988H19.2935H21.2668V19.9454Z" fill="black"/>
<path d="M27.2802 13.852C27.3535 14.0453 30.6202 19.8053 30.6735 19.8386C30.7069 19.8586 30.7335 18.652 30.7335 16.8386V13.7986H28.9935C28.0402 13.7986 27.2669 13.8253 27.2802 13.852Z" fill="black"/>
<path d="M27.2201 18.0986C27.2468 19.352 27.2868 19.9653 27.3668 20.3186C27.4935 20.8786 27.7935 21.7786 28.0468 22.3253C28.2735 22.812 28.9468 23.9986 28.9935 23.9986C29.1068 23.9986 30.2001 21.8586 30.2001 21.6453C30.2001 21.5453 27.3801 16.552 27.2535 16.432C27.2068 16.3853 27.1935 16.8853 27.2201 18.0986Z" fill="black"/>
<path d="M22.4468 15.5187C22.4335 15.5454 22.7268 16.1054 23.1002 16.7654C23.4668 17.4254 24.2402 18.792 24.8068 19.7987L25.8335 21.632L25.8802 21.0654C25.9002 20.752 25.9202 19.3854 25.9268 18.0254C25.9335 15.7787 25.9202 15.5454 25.8202 15.5054C25.6735 15.4454 22.4735 15.4587 22.4468 15.5187Z" fill="black"/>
<path d="M22.4202 19.9653C22.4535 21.9787 22.4802 22.172 22.9069 23.3053C23.1202 23.872 23.6535 24.9653 23.9402 25.4053C24.1335 25.7053 24.1602 25.7253 24.2335 25.6187C24.4535 25.2987 24.9669 24.3253 25.1735 23.852L25.3935 23.332L24.4602 21.6787C23.9402 20.772 23.3069 19.6587 23.0469 19.1987C22.7869 18.7387 22.5335 18.3053 22.4869 18.232C22.4069 18.1187 22.3935 18.3587 22.4202 19.9653Z" fill="black"/>
<path d="M17.7402 17.5787C17.9669 17.9653 18.4069 18.7587 20.0669 21.712C20.8469 23.1053 20.9735 23.2987 21.0069 23.1453C21.0335 23.0453 21.0535 21.6653 21.0602 20.0787L21.0669 17.1987H19.2935H17.5269L17.7402 17.5787Z" fill="black"/>
<path d="M17.5468 21.5987C17.5801 23.312 17.5934 23.472 17.7534 24.0654C18.0401 25.1187 18.5134 26.1787 19.1534 27.2187L19.3134 27.4787L19.5934 26.9987C19.9201 26.452 20.5334 25.2054 20.5334 25.0854C20.5334 25.0387 20.3734 24.7254 20.1734 24.3854C19.9734 24.0454 19.3134 22.8787 18.7001 21.7987C18.0868 20.7187 17.5734 19.8187 17.5534 19.7987C17.5334 19.7787 17.5334 20.592 17.5468 21.5987Z" fill="black"/>
<path d="M29.1201 34.6654C28.0935 34.7854 27.4268 35.1654 27.0801 35.8254C26.9135 36.1387 26.9001 36.2254 26.9001 36.9654C26.9001 37.712 26.9135 37.792 27.0935 38.152C27.4868 38.9654 28.4135 39.332 30.0335 39.332C31.0868 39.332 31.9935 39.0854 32.4268 38.6787C32.6401 38.4787 32.8601 38.0387 32.8668 37.812C32.8668 37.672 32.8401 37.6654 32.3801 37.6654H31.9001L31.8135 38.012C31.6468 38.7187 31.1801 38.9654 30.0001 38.9654C29.3401 38.9654 29.1935 38.9454 28.9535 38.8187C28.3668 38.5054 28.1668 37.972 28.2135 36.8387C28.2535 35.9854 28.3668 35.632 28.7068 35.3387C29.0001 35.0787 29.3268 34.9987 30.0468 34.992C30.7935 34.992 31.1935 35.092 31.5001 35.3587C31.6868 35.5187 31.7535 35.632 31.7801 35.8454L31.8201 36.132H32.2735H32.7335V35.5054V34.8787L32.2868 34.7987C31.2068 34.612 30.0401 34.5587 29.1201 34.6654Z" fill="black"/>
<path d="M8.40016 34.8521C8.40016 34.9988 8.52016 35.0654 8.7735 35.0654C9.02016 35.0654 9.3135 35.2388 9.36016 35.4121C9.38016 35.4988 9.40016 36.2054 9.40016 36.9854C9.40016 38.7588 9.36016 38.8521 8.60016 38.9721C8.40016 39.0054 8.3335 39.0454 8.3335 39.1388C8.3335 39.2588 8.44016 39.2654 11.0535 39.2654C13.9868 39.2654 14.3068 39.2321 14.7868 38.9121C15.1068 38.6988 15.2668 38.3788 15.2668 37.9321C15.2668 37.2921 15.0068 37.0588 14.1668 36.9388C13.9202 36.8988 13.7068 36.8588 13.6868 36.8388C13.6735 36.8254 13.8202 36.7788 14.0135 36.7388C14.7002 36.5921 15.0268 36.2721 15.0268 35.7388C15.0202 35.3321 14.8602 35.0454 14.5535 34.8921C14.3202 34.7721 14.0802 34.7654 11.3535 34.7454C8.46683 34.7254 8.40016 34.7254 8.40016 34.8521ZM13.0935 35.1388C13.4735 35.2454 13.6668 35.4654 13.6668 35.7988C13.6668 36.1654 13.5068 36.4588 13.2468 36.5654C12.9135 36.6988 12.1935 36.7521 11.3468 36.6988L10.5802 36.6454L10.6202 36.0054C10.6602 35.4254 10.6802 35.3521 10.8335 35.2121C10.9935 35.0788 11.0668 35.0654 11.9202 35.0654C12.4202 35.0654 12.9468 35.0988 13.0935 35.1388ZM13.3735 37.2054C13.7602 37.3054 13.9335 37.5254 13.9335 37.9188C13.9335 38.7188 13.2602 39.0054 11.6468 38.8921C10.7068 38.8254 10.6535 38.7788 10.6135 37.8454L10.5802 37.1321H11.8268C12.5335 37.1321 13.2068 37.1654 13.3735 37.2054Z" fill="black"/>
<path d="M15.5334 34.8987C15.5334 35.0454 15.5601 35.0654 15.7601 35.0654C16.0668 35.0654 16.3868 35.1854 16.4668 35.332C16.5068 35.4054 16.5334 36.0654 16.5334 36.8454C16.5334 38.1587 16.5401 38.252 16.6868 38.532C16.9534 39.072 17.6801 39.332 18.8868 39.332C19.6468 39.332 20.0668 39.232 20.4668 38.9654L20.8001 38.7387V39.0054V39.2654H21.8668H22.9334V39.1054C22.9334 38.972 22.8934 38.9387 22.6334 38.9054C22.4734 38.8787 22.2734 38.8054 22.1868 38.732L22.0334 38.612L22.0534 36.672L22.0734 34.732H20.9001H19.7268L19.7468 34.8787C19.7601 34.9987 19.8268 35.0387 20.0601 35.0787C20.4268 35.1387 20.6534 35.2854 20.7468 35.5187C20.8468 35.7787 20.7668 37.9187 20.6468 38.212C20.4401 38.712 19.9401 38.9454 19.0668 38.952C18.4534 38.9587 18.1001 38.812 17.9001 38.4654C17.7468 38.1987 17.7334 37.792 17.8201 35.8787L17.8668 34.732H16.7001H15.5334V34.8987Z" fill="black"/>
<path d="M23.3068 34.7921C23.2202 34.9321 23.3535 35.0654 23.5802 35.0654C23.7468 35.0654 23.8668 35.1188 24.0068 35.2588L24.2002 35.4521V36.9521C24.2002 37.7788 24.1802 38.5054 24.1602 38.5654C24.1068 38.6988 23.8402 38.8321 23.5202 38.8921C23.3068 38.9321 23.2668 38.9654 23.2668 39.0988V39.2654H24.8335H26.4002V39.0988C26.4002 38.9654 26.3602 38.9321 26.1535 38.8921C25.8535 38.8388 25.6602 38.7454 25.5535 38.6054C25.4935 38.5254 25.4735 38.0721 25.4668 36.9854C25.4668 35.4921 25.4668 35.4721 25.6202 35.2921C25.7335 35.1654 25.8668 35.0988 26.0735 35.0721C26.3135 35.0388 26.3735 35.0054 26.3868 34.8788L26.4068 34.7321H24.8735C24.0268 34.7321 23.3268 34.7588 23.3068 34.7921Z" fill="black"/>
<path d="M33.4002 34.8988C33.4002 35.0454 33.4268 35.0654 33.6335 35.0654C33.9402 35.0654 34.1668 35.1788 34.2602 35.3788C34.3602 35.5988 34.3602 38.3321 34.2602 38.5588C34.1668 38.7654 33.8268 38.9321 33.5068 38.9321C33.2935 38.9321 33.2668 38.9521 33.2668 39.0988V39.2654H34.9335C36.5668 39.2654 36.6002 39.2654 36.6002 39.1321C36.6002 38.9854 36.5668 38.9654 36.1735 38.8988C36.0202 38.8721 35.8335 38.7788 35.7202 38.6654C35.5468 38.4921 35.5335 38.4388 35.5335 37.9854C35.5335 37.5121 35.5402 37.4921 35.7268 37.3788C35.8335 37.3188 35.9668 37.2654 36.0202 37.2654C36.0735 37.2654 36.6068 37.7121 37.2068 38.2654L38.3002 39.2654H39.3135C40.2802 39.2654 40.3335 39.2588 40.3335 39.1321C40.3335 39.0388 40.2668 38.9854 40.0735 38.9321C39.9335 38.8988 39.6535 38.7388 39.4535 38.5788C38.9935 38.2188 37.0002 36.5188 37.0002 36.4921C37.0002 36.4788 37.2468 36.2788 37.5535 36.0521C38.2135 35.5588 38.9135 35.2188 39.4602 35.1121C39.8135 35.0454 39.8668 35.0188 39.8668 34.8854V34.7321H38.4002C37.0068 34.7321 36.9335 34.7388 36.9335 34.8588C36.9335 34.9521 37.0002 34.9988 37.1868 35.0321C37.6602 35.1188 37.7268 35.3188 37.3868 35.6454C37.2002 35.8188 35.8735 36.8054 35.6202 36.9588C35.5535 36.9988 35.5335 36.8321 35.5335 36.2121C35.5335 35.2521 35.5868 35.1521 36.1002 35.0788C36.3802 35.0388 36.4402 35.0054 36.4535 34.8788L36.4735 34.7321H34.9402H33.4002V34.8988Z" fill="black"/>
</svg>
