<svg width="48" height="48" viewBox="0 0 48 48" fill="none" xmlns="http://www.w3.org/2000/svg">
<g clip-path="url(#clip0_4253_4554)">
<path d="M11.2154 19.1197C11.3583 18.7985 11.481 18.5376 12.38 18.5376H17.5699C17.8561 18.5376 18.142 18.3971 18.142 17.996V16.5718C18.142 16.4103 18.3056 16.1894 18.7346 16.1894H29.4823C29.7887 16.1894 30.0342 16.3501 30.0342 16.7314V17.8555C30.0342 18.1564 30.1771 18.4774 30.6266 18.4774H39.2492C39.5555 18.4774 39.9642 18.5574 39.7805 18.9391C39.5964 19.32 36.7973 24.8975 36.6075 25.2701C36.5346 25.4129 36.4779 25.6034 35.9111 25.6034H30.6107C30.3594 25.6034 29.9466 25.6034 29.9466 26.0806V27.408C29.9466 27.5989 29.8012 27.8853 29.3397 27.8853H18.7056C18.3736 27.8853 18.1309 27.7177 18.1309 27.3921V26.2234C18.1309 25.969 17.9931 25.5958 17.6048 25.5958H8.67835C8.39483 25.5958 8.12785 25.3809 8.29788 24.968C8.46791 24.5543 11.2154 19.1197 11.2154 19.1197Z" fill="#C7D6EE"/>
<path d="M8.98022 24.3475L9.22832 24.3482L11.6672 19.5821L11.419 19.5814L8.98022 24.3475Z" fill="url(#paint0_linear_4253_4554)"/>
<path d="M17.626 25.0205H9.2774C8.98614 25.0205 8.88399 24.8899 8.99738 24.6675C9.62955 23.4326 11.7084 19.3714 11.7623 19.2636C11.8255 19.1368 11.9785 18.9818 12.2612 18.9818H17.8635C18.4447 18.9818 18.5437 18.7323 18.5437 18.2816V16.9394C18.5437 16.7589 18.6656 16.6389 18.8801 16.6389H29.141C29.4166 16.6389 29.5386 16.7283 29.5386 16.9089V17.9004C29.5386 18.2912 29.4634 18.9219 30.3502 18.9219H38.8289C39.2097 18.9219 39.3086 19.1741 39.107 19.5733C38.3567 21.0599 36.5104 24.5848 36.453 24.7044C36.3802 24.8564 36.1544 24.9901 35.7937 24.9901H30.2282C29.769 24.9901 29.3105 25.2906 29.3105 25.7415V26.887C29.3105 27.0956 29.1829 27.2435 28.956 27.2435H18.9997C18.6917 27.2435 18.5742 27.0721 18.5742 26.8435V25.8014C18.5742 25.4411 18.3295 25.0205 17.626 25.0205Z" fill="#E9CF98"/>
<path d="M28.7595 24.7517L29.9289 25.9488C29.9289 25.9488 30.0124 25.6863 30.3294 25.6212L29.0199 24.4214C29.0199 24.4214 28.8096 24.5383 28.7595 24.7517Z" fill="white"/>
<path d="M17.6531 25.6044C17.6531 25.6044 18.1208 25.6212 18.1208 26.2279L19.2063 24.653L18.9057 24.4396L17.6531 25.6044Z" fill="white"/>
<path d="M29.1912 19.6407L30.4242 18.4603C30.4242 18.4603 30.2571 18.4402 30.0896 18.1732L28.8669 19.3947L29.1912 19.6407Z" fill="white"/>
<path d="M28.658 17.2289L29.7971 16.2747C29.7971 16.2747 29.9226 16.3463 29.9748 16.4594L28.7834 17.537L28.658 17.2289Z" fill="white"/>
<path d="M18.1501 16.6202C18.1501 16.4226 18.337 16.1894 18.643 16.1894L19.5073 17.2388C19.5073 17.2388 19.2486 17.2388 19.208 17.3324C19.1668 17.4262 19.1261 17.627 19.1261 17.627L18.1501 16.6202Z" fill="white"/>
<path d="M17.7771 18.5102C17.7771 18.5102 18.1464 18.4527 18.1464 18.065L19.0031 19.055L18.4571 19.4426L17.7771 18.5102Z" fill="white"/>
<path d="M24.1119 16.1894L24.0725 16.6408H29.0092C29.1712 16.6408 29.2623 16.6808 29.3234 16.8L29.8701 16.3227C29.8701 16.3227 29.7327 16.1894 29.4825 16.1894H24.1119Z" fill="url(#paint1_linear_4253_4554)"/>
<path d="M18.643 16.1894C18.5114 16.1894 18.3594 16.2533 18.2788 16.3524L18.6331 16.7303C18.6331 16.7303 18.7038 16.6408 18.9873 16.6408H24.0726L24.1119 16.1894H18.643Z" fill="url(#paint2_linear_4253_4554)"/>
<path d="M18.1502 16.6202V17.996C18.1502 18.212 18.1062 18.2649 18.1062 18.2649L18.4971 18.6729C18.4971 18.6729 18.553 18.532 18.553 18.4454V17.0823C18.553 16.9962 18.5608 16.8708 18.5608 16.8708L18.1938 16.4244C18.1938 16.4244 18.1502 16.5024 18.1502 16.6202Z" fill="url(#paint3_linear_4253_4554)"/>
<path d="M29.5465 16.8289C29.5465 16.8289 29.5359 16.9889 29.5359 17.075C29.5359 17.161 29.5465 18.3231 29.5465 18.4094C29.5465 18.4954 29.6741 18.655 29.6741 18.655L30.1419 18.2485C30.1419 18.2485 30.0309 18.212 30.0309 17.996V16.6202C30.0309 16.5024 29.9328 16.4244 29.9328 16.4244L29.5465 16.8289Z" fill="url(#paint4_linear_4253_4554)"/>
<path d="M17.5996 18.5392C17.453 18.5392 12.4168 18.5449 12.1484 18.5449C11.759 18.5449 11.53 18.7136 11.53 18.7136L11.8504 19.1368C11.8504 19.1368 11.9785 18.9817 12.2613 18.9817H17.9441C18.142 18.9817 18.2907 18.8938 18.2907 18.8938L17.9194 18.4557C17.9194 18.4557 17.737 18.5392 17.5996 18.5392Z" fill="url(#paint5_linear_4253_4554)"/>
<path d="M8.82974 24.7044L8.24902 25.1043C8.24902 25.1043 8.20298 25.2697 8.28975 25.4003C8.37672 25.5305 8.50952 25.5507 8.50952 25.5507L9.26536 25.0205C9.26536 25.0205 8.83759 25.0007 9.01557 24.6895C9.19355 24.3783 9.1839 24.261 9.1839 24.261C9.1839 24.261 8.97622 24.2946 8.82974 24.7044Z" fill="url(#paint6_linear_4253_4554)"/>
<path d="M10.4245 20.7877C9.96137 21.7238 8.40599 24.7311 8.35157 24.8385C8.29706 24.9455 8.24243 25.1326 8.24243 25.1326L8.84182 24.7044L11.6504 19.2088C11.6504 19.2088 10.8877 19.851 10.4245 20.7877Z" fill="url(#paint7_linear_4253_4554)"/>
<path d="M9.27745 25.0335L8.50708 25.5778C8.50708 25.5778 17.2821 25.5991 17.5038 25.5991C17.7251 25.5991 17.8182 25.6406 17.8182 25.6406L18.2134 25.1995C18.2134 25.1995 17.8359 25.0335 17.6262 25.0335H9.27745Z" fill="url(#paint8_linear_4253_4554)"/>
<path d="M18.0432 25.8818C18.0432 25.8818 18.124 26.0413 18.124 26.1686V27.3082C18.124 27.4712 18.1887 27.6126 18.1887 27.6126L18.5743 27.1665V25.8014C18.5743 25.5835 18.452 25.4003 18.452 25.4003L18.0432 25.8818Z" fill="url(#paint9_linear_4253_4554)"/>
<path d="M29.3093 25.6604V27.0256L29.9143 27.5455C29.9143 27.5455 29.9294 27.4068 29.9294 27.2442V26.1041C29.9294 25.977 29.9668 25.897 29.9668 25.897L29.4379 25.3775C29.4379 25.3775 29.3093 25.4422 29.3093 25.6604Z" fill="url(#paint10_linear_4253_4554)"/>
<path d="M28.8568 27.2534H24.0999V27.8875H29.3637C29.5426 27.8875 29.7513 27.7706 29.7909 27.7409L29.1944 27.1853C29.1944 27.1853 29.1551 27.2534 28.8568 27.2534Z" fill="url(#paint11_linear_4253_4554)"/>
<path d="M18.3701 27.8084C18.3701 27.8084 18.4926 27.8937 18.835 27.8937C19.1771 27.8937 24.0998 27.8875 24.0998 27.8875V27.2534H19.0189C18.927 27.2534 18.8655 27.2366 18.8655 27.2366L18.3701 27.8084Z" fill="url(#paint12_linear_4253_4554)"/>
<path d="M19.7365 17.2258C19.461 17.2258 19.1858 17.3762 19.1858 17.6768V19.149C19.1858 19.4492 19.0021 19.5695 18.7881 19.5695H12.6966C12.4491 19.5695 12.2577 19.6709 12.1477 19.8754C12.0576 20.0434 10.5364 23.038 10.0448 24.0058C9.93816 24.2157 10.0313 24.3433 10.3048 24.3433H18.8189C19.1858 24.3433 19.2471 24.674 19.2471 25.0042V26.1483C19.2471 26.359 19.4611 26.5994 19.7059 26.5994H23.989V17.2258H19.7365Z" fill="url(#paint13_linear_4253_4554)"/>
<path d="M29.7102 25.1591L30.2007 25.6543C30.2007 25.6543 30.3231 25.5877 30.8954 25.5877H36.1262C36.2349 25.5877 36.3848 25.534 36.3848 25.534L33.6198 24.9856C33.6198 24.9856 30.4185 24.9877 30.2688 24.9856C30.2631 24.9854 30.2575 24.9853 30.2519 24.9853C29.9273 24.9853 29.7102 25.1591 29.7102 25.1591Z" fill="url(#paint14_linear_4253_4554)"/>
<path d="M29.8945 18.8343C29.8945 18.8343 30.1336 18.9128 30.3289 18.9128H38.5648C38.8154 18.9128 38.9617 18.9311 38.9617 18.9311L39.6272 18.5415C39.6272 18.5415 39.4136 18.4816 39.2001 18.4816H30.6468C30.433 18.4816 30.3439 18.4325 30.3439 18.4325L29.8945 18.8343Z" fill="url(#paint15_linear_4253_4554)"/>
<path d="M39.2041 19.1417C39.2041 19.1417 39.2418 19.347 39.1706 19.4865C39.0997 19.6259 36.6104 24.4344 36.498 24.6552C36.3853 24.8759 36.1313 24.9573 36.1313 24.9573L36.415 25.5145C36.415 25.5145 36.5155 25.4395 36.5748 25.3637C36.6339 25.2883 39.6968 19.1668 39.7915 18.9521C39.8859 18.7372 39.803 18.6595 39.803 18.6595L39.2041 19.1417Z" fill="url(#paint16_linear_4253_4554)"/>
<path d="M35.8673 24.9988C35.5404 24.9988 33.7014 25.0125 33.7014 25.0125L36.3167 25.5341C36.3167 25.5341 36.4803 25.4677 36.5621 25.3333C36.644 25.1995 36.5619 25.1595 36.4666 25.2397C36.3715 25.3204 36.208 25.1866 36.2895 25.0929C36.3715 24.9988 36.4529 24.7044 36.4529 24.7044C36.4529 24.7044 36.1944 24.9988 35.8673 24.9988Z" fill="url(#paint17_linear_4253_4554)"/>
<path d="M11.5371 24.5848C9.82434 24.6971 9.27734 25.0152 9.27734 25.0152H17.4565C18.3866 25.0152 18.2804 25.1401 18.2752 25.1457L18.9411 24.4541C18.9411 24.4541 17.3234 24.4541 16.2956 24.4355C16.1649 24.4331 16.0183 24.432 15.8582 24.432C14.7597 24.432 13.0323 24.487 11.5371 24.5848ZM18.275 25.1459C18.275 25.1459 18.2751 25.1458 18.2752 25.1457L18.275 25.1459Z" fill="url(#paint18_linear_4253_4554)"/>
<path d="M30.8288 24.4355C30.1011 24.4541 28.9553 24.4541 28.9553 24.4541L29.7189 25.1603C29.7189 25.1603 29.7975 24.9951 30.4712 24.9951C31.1454 24.9951 36.0035 24.9786 36.0035 24.9786C36.0035 24.9786 36.0854 24.7177 34.655 24.6175C33.5281 24.5384 31.8276 24.4335 31.0056 24.4335C30.941 24.4335 30.8819 24.4342 30.8288 24.4355Z" fill="url(#paint19_linear_4253_4554)"/>
<path d="M29.0984 19.6434C29.0984 19.6434 30.2443 19.6434 30.9723 19.662C31.7 19.6806 36.1117 19.4842 37.3252 19.3719C38.5385 19.2598 38.9256 18.9418 38.9256 18.9418C38.9256 18.9418 31.2119 18.9822 30.5379 18.9822C29.8644 18.9822 29.9584 18.8511 29.9584 18.8511L29.0984 19.6434Z" fill="url(#paint20_linear_4253_4554)"/>
<path d="M18.4924 25.4205C18.4924 25.4205 18.5742 25.681 18.5742 25.8818V26.7849C18.5742 27.0256 18.6561 27.1463 18.6561 27.1463L19.3507 26.4637C19.3507 26.4637 19.247 26.2231 19.247 26.0424V25.0243C19.247 24.7889 19.1872 24.5974 19.1872 24.5974L18.4924 25.4205Z" fill="url(#paint21_linear_4253_4554)"/>
<path d="M28.6857 25.0186C28.6857 25.254 28.6695 25.884 28.6695 26.0649C28.6695 26.2451 28.6272 26.4637 28.6272 26.4637L29.3218 27.1463C29.3218 27.1463 29.4038 27.0256 29.4038 26.7849V25.8818C29.4038 25.681 29.4856 25.4205 29.4856 25.4205L28.7416 24.5783C28.7416 24.5783 28.6857 24.7837 28.6857 25.0186Z" fill="url(#paint22_linear_4253_4554)"/>
<path d="M18.8809 27.2263L23.9481 27.2663L23.9685 27.2659V26.5994L19.555 26.5838L18.8809 27.2263Z" fill="url(#paint23_linear_4253_4554)"/>
<path d="M23.9891 26.5994H23.9688V27.2659L29.179 27.2065L28.3414 26.5837L23.9891 26.5994Z" fill="url(#paint24_linear_4253_4554)"/>
<path d="M18.9493 16.637C18.8062 16.637 18.6738 16.7128 18.6738 16.7128L19.3455 17.3618C19.3455 17.3618 19.4116 17.2208 19.8849 17.2208H23.9889V16.637H18.9493Z" fill="url(#paint25_linear_4253_4554)"/>
<path d="M23.989 16.637V17.2208H28.0929C28.5662 17.2208 28.6642 17.4231 28.6642 17.4231L29.3356 16.7744C29.3356 16.7744 29.1718 16.637 29.0287 16.637H23.989Z" fill="url(#paint26_linear_4253_4554)"/>
<path d="M18.5459 17.2041V18.3826C18.5459 18.5224 18.4834 18.6881 18.4834 18.6881L19.1411 19.4213C19.1411 19.4213 19.1856 19.3603 19.1856 19.055C19.1856 18.7494 19.2121 17.5538 19.2121 17.5538L18.5546 16.8293C18.5546 16.8293 18.5459 17.0209 18.5459 17.2041Z" fill="url(#paint27_linear_4253_4554)"/>
<path d="M28.6917 17.5678V19.0332C28.6917 19.3387 28.8372 19.4213 28.8372 19.4213L29.641 18.626C29.641 18.626 29.5362 18.4596 29.5362 18.3202C29.5362 18.1804 29.5294 17.3283 29.5294 17.1451C29.5294 16.9618 29.5375 16.7924 29.5375 16.7924L28.6917 17.5678Z" fill="url(#paint28_linear_4253_4554)"/>
<path d="M18.0022 18.9981H12.363C12.1995 18.9981 11.9337 19.0583 11.8521 19.1387L12.363 19.6606C12.363 19.6606 12.5059 19.5603 12.8533 19.5603H18.7173C18.881 19.5603 19.0442 19.4998 19.0442 19.4998L18.3906 18.8378C18.3906 18.8378 18.227 18.9981 18.0022 18.9981Z" fill="url(#paint29_linear_4253_4554)"/>
<path d="M35.5664 24.3654C35.5664 24.3654 35.8822 24.2488 35.9809 24.6172C35.9809 24.6172 36.0597 24.7338 36.2769 24.4232C36.4939 24.1133 38.5466 19.966 38.5263 19.9074C38.5065 19.8494 38.0921 19.7717 38.0921 19.7717L35.5664 24.3654Z" fill="url(#paint30_linear_4253_4554)"/>
<path d="M38.1514 19.811C38.2504 19.8689 38.3489 19.9466 38.2108 20.2372C38.0728 20.5274 36.494 23.5513 36.1587 24.1326C35.8232 24.7139 36.1189 24.9466 36.1189 24.9466C36.1189 24.9466 36.3758 24.83 36.4529 24.7044C36.5306 24.5783 38.9411 19.8883 39.107 19.5733C39.273 19.2583 39.1578 19.1323 39.1578 19.1323L38.1514 19.811Z" fill="url(#paint31_linear_4253_4554)"/>
<path d="M23.989 17.2258V26.5994H28.209C28.4535 26.5994 28.6678 26.5091 28.6678 26.2383V24.8403C28.6678 24.57 28.8511 24.3601 29.0654 24.3601H35.4315C35.655 24.3601 35.8556 24.2317 35.9721 24.0204C36.4922 23.0757 37.9249 20.3361 38.0333 20.1153C38.1656 19.8457 38.0837 19.6895 37.777 19.6895H29.3407C28.9738 19.6895 28.698 19.4194 28.698 19.0888V17.5565C28.698 17.3461 28.5758 17.2258 28.3006 17.2258H23.989Z" fill="url(#paint32_linear_4253_4554)"/>
<path d="M9.2085 24.7543L10.0252 24.2679C10.0252 24.2679 9.93167 24.2279 10.0787 23.9388C10.2259 23.6497 11.6049 20.8882 11.6049 20.8882L11.2972 20.8228L9.2085 24.7543Z" fill="url(#paint33_linear_4253_4554)"/>
<path d="M9.1344 24.3966C8.93001 24.758 8.97117 24.8983 8.97117 24.8983L9.46141 24.5772C9.46141 24.5772 11.6476 20.4231 11.8723 19.9413C12.0972 19.4598 11.7621 19.2636 11.7621 19.2636C11.7621 19.2636 9.3388 24.0356 9.1344 24.3966Z" fill="url(#paint34_linear_4253_4554)"/>
<path d="M9.4653 25.0323C9.43284 25.0537 9.13405 25.0898 9.07571 25.0323C9.01716 24.9752 8.91947 24.9307 8.99754 24.8667C9.07571 24.8026 10.0367 24.2416 10.0367 24.2416C10.0367 24.2416 9.92001 24.3053 10.9074 24.3053H18.8061C19.014 24.3053 19.2087 24.4454 19.2348 24.5349C19.2609 24.6244 19.2088 24.6625 19.1439 24.6499C19.0792 24.637 18.91 24.5859 18.8711 24.522C18.8322 24.4583 18.9231 24.4073 18.3514 24.4073C17.7798 24.4073 13.4147 24.4712 12.4276 24.5604C11.4402 24.6499 10.1406 24.5859 9.4653 25.0323Z" fill="white"/>
<path d="M38.6399 18.9585C38.6723 18.9376 38.9714 18.9014 39.0297 18.9585C39.0881 19.016 39.1858 19.0606 39.1077 19.1246C39.0297 19.1882 38.0684 19.7496 38.0684 19.7496C38.0684 19.7496 38.185 19.686 37.1978 19.686H29.2989C29.091 19.686 28.8963 19.5459 28.8704 19.4564C28.8443 19.3668 28.8962 19.3283 28.9609 19.3414C29.0262 19.3543 29.195 19.4053 29.2341 19.4689C29.2731 19.5329 29.1819 19.5836 29.7538 19.5836C30.3256 19.5836 34.6901 19.52 35.6779 19.4309C36.6649 19.3414 37.9646 19.4053 38.6399 18.9585Z" fill="white"/>
<path d="M12.0154 19.6967C12.0154 19.6064 12.0665 19.4358 12.0257 19.3859C11.9848 19.3356 12.1074 19.2754 12.1892 19.3253C12.2708 19.3756 12.4445 19.4156 12.4648 19.4559C12.4853 19.4959 12.4547 19.5962 12.3423 19.6365C12.2299 19.6765 12.1278 19.7668 11.9541 20.1378C11.7804 20.5095 10.7893 22.3957 10.7893 22.3957C10.7893 22.3957 10.9325 22.0949 10.8712 22.0845C10.8099 22.0746 10.667 22.3256 10.667 22.3256L12.0154 19.6967Z" fill="white"/>
<path d="M18.8465 19.5192C18.7619 19.5276 18.7383 19.4366 18.8104 19.4247C18.883 19.4129 18.9789 19.4072 19.0631 19.0819C19.1476 18.7567 19.0874 17.7698 19.0753 17.5926C19.0631 17.4152 18.979 17.2025 19.0995 17.1081C19.2197 17.0133 19.304 17.2144 19.617 17.2144C19.9298 17.2144 20.6401 17.1908 20.6401 17.1908C20.6401 17.1908 19.6411 17.2613 19.4724 17.2853C19.3039 17.3089 19.1595 17.4387 19.1834 17.6753C19.2077 17.9118 19.1476 19.1295 19.0995 19.2594C19.0513 19.3893 18.9669 19.5074 18.8465 19.5192Z" fill="white"/>
<path d="M25.5861 17.198C25.4536 17.2041 28.1239 17.2289 28.2922 17.2289C28.4607 17.2289 28.6532 17.2791 28.6895 17.4444C28.7256 17.6102 28.7 18.1526 28.7 18.1526C28.7 18.1526 28.783 17.4563 28.9033 17.3264C29.0236 17.1961 28.9876 17.0072 28.8311 17.0422C28.6746 17.078 27.4354 17.1162 25.5861 17.198Z" fill="white"/>
<path d="M29.152 24.445C29.068 24.4328 28.9719 24.4214 28.9476 24.4922C28.9236 24.5626 29.0556 24.6099 28.9236 24.6804C28.7918 24.7512 28.6936 24.7946 28.6936 24.7357C28.6936 24.6766 28.7617 24.3738 29.0139 24.3738C29.2661 24.3738 35.4902 24.362 35.5869 24.362C35.6825 24.362 35.8028 24.3738 35.8507 24.4682C35.8986 24.5626 35.9585 24.7985 35.9948 24.8693C36.0307 24.9402 35.9707 24.9402 35.8625 24.7985C35.7546 24.6568 35.4786 24.5982 35.2626 24.6099C35.0463 24.6217 29.152 24.445 29.152 24.445Z" fill="white"/>
<path d="M36.0187 24.6453C36.0187 24.6453 35.9588 24.5158 35.9227 24.4328C35.8867 24.3505 35.7788 24.3155 35.7788 24.3155C35.7788 24.3155 35.8987 24.1734 36.0667 23.8671C36.2349 23.5609 37.0272 22.0983 37.1112 21.8979C37.1112 21.8979 36.931 22.4407 37.2794 21.9923C37.2794 21.9923 36.1508 24.0908 36.0787 24.2325C36.0069 24.3742 36.0187 24.6453 36.0187 24.6453Z" fill="white"/>
<path d="M19.3218 26.2958C19.3218 26.2958 19.3361 26.4653 19.2359 26.5357C19.1354 26.6062 19.0924 26.733 19.1785 26.7895C19.2646 26.8458 19.322 26.8176 19.3794 26.733C19.4368 26.6485 19.6379 26.578 19.767 26.6062C19.767 26.6062 19.3218 26.6622 19.3218 26.2958Z" fill="white"/>
<path d="M25.5088 26.5978C25.5088 26.5978 27.9314 26.7232 28.0749 26.7296C28.218 26.7361 28.3189 26.7407 28.3189 26.7407C28.3189 26.7407 28.0617 26.7007 28.1378 26.6195L25.5088 26.5978Z" fill="white"/>
<path d="M28.38 26.578C28.38 26.578 28.3083 26.6908 28.4231 26.7468C28.5381 26.8032 28.6531 26.8595 28.7248 26.7749C28.7964 26.6904 28.6674 26.4649 28.6816 26.3099C28.6816 26.3099 28.739 26.5498 28.38 26.578Z" fill="white"/>
<path d="M31.3347 26.7822H31.2005V27.0054H31.3347C31.403 27.0054 31.4233 26.9788 31.4233 26.9349V26.8523C31.4233 26.7959 31.3965 26.7822 31.3347 26.7822ZM31.3347 27.0777H31.2005V27.2614H31.1189V26.7086H31.3347C31.4569 26.7086 31.505 26.762 31.505 26.8523V26.9349C31.505 26.9948 31.4838 27.0351 31.4233 27.0618L31.5747 27.2614H31.478L31.3347 27.0777ZM31.3096 27.4298C31.5977 27.4298 31.7489 27.2358 31.7489 26.9977C31.7489 26.7597 31.5977 26.5628 31.3096 26.5628C31.0212 26.5628 30.8664 26.7597 30.8664 26.9977C30.8664 27.2358 31.0212 27.4298 31.3096 27.4298ZM31.3096 26.4897C31.6288 26.4897 31.8238 26.7164 31.8238 26.9967C31.8238 27.2732 31.6288 27.5032 31.3096 27.5032C30.9884 27.5032 30.7917 27.2732 30.7917 26.9967C30.7917 26.7164 30.9884 26.4897 31.3096 26.4897Z" fill="black"/>
<path d="M14.8879 30.1335H13.9965V29.0193H13.1362V31.7894H13.9965V30.5949H14.8879V31.7894H15.749V29.0193H14.8879V30.1335Z" fill="black"/>
<path d="M30.7133 31.3283V29.0192H29.8528V31.7893H31.9447V31.3283H30.7133Z" fill="black"/>
<path d="M35.6055 29.0192V29.4812H36.3885V31.7893H37.2486V29.4812H38.0323V29.0192H35.6055Z" fill="black"/>
<path d="M10.0322 29.5959C10.0322 29.2497 10.2452 29.0191 10.5645 29.0191H12.2901V29.4806H11.053C10.9568 29.4806 10.8936 29.5506 10.8936 29.654V31.1543C10.8936 31.2585 10.9568 31.3282 11.053 31.3282H12.2901V31.7892H10.5645C10.2452 31.7892 10.0322 31.5581 10.0322 31.2123V29.5959Z" fill="black"/>
<path d="M24.9991 30.6656L25.743 31.7894H24.8283L24.1697 30.6467V30.2856H24.5252C24.621 30.2856 24.6848 30.2155 24.6848 30.1122V29.6542C24.6848 29.5508 24.621 29.4812 24.5252 29.4812H23.9232V31.7894H23.0623V29.0193H25.0133C25.3337 29.0193 25.5455 29.2498 25.5455 29.596L25.5464 30.156C25.5464 30.461 25.3589 30.6656 25.0763 30.6656H24.9991Z" fill="black"/>
<path d="M27.9824 31.3283C28.0776 31.3283 28.1418 31.2587 28.1418 31.1549V29.6541C28.1418 29.5509 28.0776 29.4808 27.9824 29.4808H27.3822C27.2865 29.4808 27.2223 29.5509 27.2223 29.6541V31.1549C27.2223 31.2587 27.2865 31.3283 27.3822 31.3283H27.9824ZM26.3618 29.596C26.3618 29.2498 26.574 29.0192 26.8936 29.0192H28.4704C28.7896 29.0192 29.003 29.2498 29.003 29.596V31.2125C29.003 31.5583 28.7896 31.7893 28.4704 31.7893H26.8936C26.574 31.7893 26.3618 31.5583 26.3618 31.2125V29.596Z" fill="black"/>
<path d="M19.5781 29.0192H20.5011L21.0518 31.1608C21.056 31.1802 21.0701 31.1916 21.09 31.1916C21.1096 31.1916 21.1249 31.1802 21.1285 31.1608L21.6639 29.0192H22.3863L21.719 31.3964C21.6383 31.6671 21.4923 31.7893 21.186 31.7893H20.7565C20.5595 31.7893 20.3988 31.6895 20.3022 31.3944L19.5781 29.0192Z" fill="black"/>
<path d="M17.4794 31.2409C17.4794 31.294 17.5112 31.3278 17.5595 31.3278H18.9739V31.7894H17.1506C16.8313 31.7894 16.6187 31.5583 16.6187 31.213V29.596C16.6187 29.2498 16.8313 29.0193 17.1506 29.0193H18.9739V29.4812H17.5595C17.5112 29.4812 17.4794 29.5156 17.4794 29.5678V30.1331H18.8115V30.5951H17.4794V31.2409Z" fill="black"/>
<path d="M33.4051 31.2409C33.4051 31.294 33.4366 31.3278 33.4841 31.3278H34.8992V31.7894H33.0758C32.7567 31.7894 32.5427 31.5583 32.5427 31.213V29.596C32.5427 29.2498 32.7567 29.0193 33.0758 29.0193H34.8992V29.4812H33.4841C33.4366 29.4812 33.4051 29.5156 33.4051 29.5678V30.1331H34.7364V30.5951H33.4051V31.2409Z" fill="black"/>
</g>
<defs>
<linearGradient id="paint0_linear_4253_4554" x1="11.5016" y1="19.6629" x2="11.4891" y2="24.3738" gradientUnits="userSpaceOnUse">
<stop stop-color="#C7D6EE"/>
<stop offset="0.185394" stop-color="#91AFC8"/>
<stop offset="1" stop-color="#002334"/>
</linearGradient>
<linearGradient id="paint1_linear_4253_4554" x1="25.3927" y1="14.9313" x2="28.2867" y2="17.8778" gradientUnits="userSpaceOnUse">
<stop stop-color="#E1E8F5"/>
<stop offset="0.89888" stop-color="#92A5C1"/>
<stop offset="0.955063" stop-color="#476886"/>
<stop offset="1" stop-color="#E1E8F5"/>
</linearGradient>
<linearGradient id="paint2_linear_4253_4554" x1="19.7847" y1="17.8614" x2="22.7452" y2="14.8471" gradientUnits="userSpaceOnUse">
<stop stop-color="#E1E8F5"/>
<stop offset="0.0393219" stop-color="#476886"/>
<stop offset="0.0898895" stop-color="#92A5C1"/>
<stop offset="1" stop-color="#E1E8F5"/>
</linearGradient>
<linearGradient id="paint3_linear_4253_4554" x1="17.8537" y1="17.9991" x2="18.8189" y2="17.0827" gradientUnits="userSpaceOnUse">
<stop stop-color="#E1E8F5"/>
<stop offset="0.157303" stop-color="#C7D6EE"/>
<stop offset="1" stop-color="#E1E8F5"/>
</linearGradient>
<linearGradient id="paint4_linear_4253_4554" x1="30.3445" y1="18.0351" x2="29.3226" y2="17.0648" gradientUnits="userSpaceOnUse">
<stop stop-color="#E1E8F5"/>
<stop offset="0.157303" stop-color="#C7D6EE"/>
<stop offset="1" stop-color="#E1E8F5"/>
</linearGradient>
<linearGradient id="paint5_linear_4253_4554" x1="13.2108" y1="20.473" x2="16.5312" y2="17.0923" gradientUnits="userSpaceOnUse">
<stop stop-color="#476886"/>
<stop offset="0.129211" stop-color="#92A5C1"/>
<stop offset="1" stop-color="#E1E8F5"/>
</linearGradient>
<linearGradient id="paint6_linear_4253_4554" x1="8.97425" y1="25.1638" x2="8.58751" y2="24.6015" gradientUnits="userSpaceOnUse">
<stop stop-color="#002334"/>
<stop offset="0.106735" stop-color="white"/>
<stop offset="0.185394" stop-color="#91AFC8"/>
<stop offset="0.241577" stop-color="#002334"/>
<stop offset="0.533707" stop-color="#5E738F"/>
<stop offset="0.758423" stop-color="#002334"/>
<stop offset="1" stop-color="#002334"/>
</linearGradient>
<linearGradient id="paint7_linear_4253_4554" x1="11.8037" y1="21.2423" x2="8.77523" y2="22.8115" gradientUnits="userSpaceOnUse">
<stop stop-color="#91AFC8"/>
<stop offset="1" stop-color="#002334"/>
</linearGradient>
<linearGradient id="paint8_linear_4253_4554" x1="13.4642" y1="25.9672" x2="13.2383" y2="24.6628" gradientUnits="userSpaceOnUse">
<stop stop-color="#A5B9CC"/>
<stop offset="1" stop-color="#002334"/>
</linearGradient>
<linearGradient id="paint9_linear_4253_4554" x1="18.139" y1="26.5064" x2="18.5277" y2="26.5064" gradientUnits="userSpaceOnUse">
<stop stop-color="#5E738F"/>
<stop offset="0.48877" stop-color="#91AFC8"/>
<stop offset="1" stop-color="#91AFC8"/>
</linearGradient>
<linearGradient id="paint10_linear_4253_4554" x1="29.8482" y1="26.4615" x2="29.367" y2="26.4615" gradientUnits="userSpaceOnUse">
<stop stop-color="#5E738F"/>
<stop offset="0.320221" stop-color="#91AFC8"/>
<stop offset="1" stop-color="#91AFC8"/>
</linearGradient>
<linearGradient id="paint11_linear_4253_4554" x1="26.2323" y1="28.7103" x2="27.5136" y2="26.4507" gradientUnits="userSpaceOnUse">
<stop stop-color="#A5B9CC"/>
<stop offset="1" stop-color="#002334"/>
</linearGradient>
<linearGradient id="paint12_linear_4253_4554" x1="20.6846" y1="26.5945" x2="21.9758" y2="28.8716" gradientUnits="userSpaceOnUse">
<stop stop-color="#002334"/>
<stop offset="0.775284" stop-color="#A5B9CC"/>
<stop offset="1" stop-color="#A5B9CC"/>
</linearGradient>
<linearGradient id="paint13_linear_4253_4554" x1="15.4135" y1="18.0236" x2="21.1799" y2="28.1925" gradientUnits="userSpaceOnUse">
<stop stop-color="#FFEFCF"/>
<stop offset="0.460678" stop-color="#FFE4A6"/>
<stop offset="1" stop-color="#BC956E"/>
</linearGradient>
<linearGradient id="paint14_linear_4253_4554" x1="31.9153" y1="26.586" x2="33.5441" y2="24.7375" gradientUnits="userSpaceOnUse">
<stop stop-color="#5E738F"/>
<stop offset="0.606735" stop-color="#91AFC8"/>
<stop offset="1" stop-color="#C7DFF4"/>
</linearGradient>
<linearGradient id="paint15_linear_4253_4554" x1="33.5758" y1="16.6717" x2="35.7231" y2="20.4585" gradientUnits="userSpaceOnUse">
<stop stop-color="#E1E8F5"/>
<stop offset="0.814606" stop-color="#7F97B4"/>
<stop offset="0.904495" stop-color="#476886"/>
<stop offset="1" stop-color="#002334"/>
</linearGradient>
<linearGradient id="paint16_linear_4253_4554" x1="36.1344" y1="25.2387" x2="39.6339" y2="19.0675" gradientUnits="userSpaceOnUse">
<stop stop-color="#8CA0B5"/>
<stop offset="0.140442" stop-color="#E1E8F5"/>
<stop offset="0.814606" stop-color="#7F97B4"/>
<stop offset="0.904495" stop-color="#476886"/>
<stop offset="1" stop-color="#002334"/>
</linearGradient>
<linearGradient id="paint17_linear_4253_4554" x1="34.891" y1="25.3421" x2="36.153" y2="24.6002" gradientUnits="userSpaceOnUse">
<stop stop-color="#002334"/>
<stop offset="0.814606" stop-color="#A5B9CC"/>
<stop offset="0.887634" stop-color="#002334"/>
<stop offset="1" stop-color="#002334"/>
</linearGradient>
<linearGradient id="paint18_linear_4253_4554" x1="11.9371" y1="22.6012" x2="16.0275" y2="26.766" gradientUnits="userSpaceOnUse">
<stop stop-color="#D4BC7B"/>
<stop offset="0.331467" stop-color="#7F5F39"/>
<stop offset="1" stop-color="#D4BC7B"/>
</linearGradient>
<linearGradient id="paint19_linear_4253_4554" x1="34.0396" y1="23.184" x2="31.1178" y2="26.1588" gradientUnits="userSpaceOnUse">
<stop stop-color="#D4BC7B"/>
<stop offset="0.331467" stop-color="#7F5F39"/>
<stop offset="1" stop-color="#D4BC7B"/>
</linearGradient>
<linearGradient id="paint20_linear_4253_4554" x1="36.5308" y1="16.8186" x2="31.8083" y2="21.6269" gradientUnits="userSpaceOnUse">
<stop stop-color="#D4BC7B"/>
<stop offset="0.331467" stop-color="#7F5F39"/>
<stop offset="1" stop-color="#D4BC7B"/>
</linearGradient>
<linearGradient id="paint21_linear_4253_4554" x1="18.6473" y1="25.8719" x2="19.2755" y2="25.8719" gradientUnits="userSpaceOnUse">
<stop stop-color="#D3BD8B"/>
<stop offset="1" stop-color="#7F5F39"/>
</linearGradient>
<linearGradient id="paint22_linear_4253_4554" x1="29.3307" y1="25.8623" x2="28.7025" y2="25.8623" gradientUnits="userSpaceOnUse">
<stop stop-color="#D3BD8B"/>
<stop offset="1" stop-color="#7F5F39"/>
</linearGradient>
<linearGradient id="paint23_linear_4253_4554" x1="20.9635" y1="26.1282" x2="22.0998" y2="28.1321" gradientUnits="userSpaceOnUse">
<stop stop-color="#7F5F39"/>
<stop offset="0.646072" stop-color="#D3BD8B"/>
<stop offset="0.887634" stop-color="#FFE4A6"/>
<stop offset="1" stop-color="#FFE4A6"/>
</linearGradient>
<linearGradient id="paint24_linear_4253_4554" x1="27.0236" y1="26.138" x2="25.7822" y2="28.3272" gradientUnits="userSpaceOnUse">
<stop stop-color="#7F5F39"/>
<stop offset="0.455063" stop-color="#D3BD8B"/>
<stop offset="0.887634" stop-color="#FFE4A6"/>
<stop offset="1" stop-color="#FFE4A6"/>
</linearGradient>
<linearGradient id="paint25_linear_4253_4554" x1="20.132" y1="18.1449" x2="22.7796" y2="15.4492" gradientUnits="userSpaceOnUse">
<stop stop-color="#D4BC7B"/>
<stop offset="0.0393219" stop-color="#7F5F39"/>
<stop offset="0.106735" stop-color="#D1AC75"/>
<stop offset="1" stop-color="#D4BC7B"/>
</linearGradient>
<linearGradient id="paint26_linear_4253_4554" x1="27.8853" y1="18.1989" x2="25.1914" y2="15.4561" gradientUnits="userSpaceOnUse">
<stop stop-color="#D4BC7B"/>
<stop offset="0.0393219" stop-color="#7F5F39"/>
<stop offset="0.106735" stop-color="#D1AC75"/>
<stop offset="1" stop-color="#D4BC7B"/>
</linearGradient>
<linearGradient id="paint27_linear_4253_4554" x1="18.3466" y1="18.5844" x2="19.3324" y2="17.6485" gradientUnits="userSpaceOnUse">
<stop stop-color="#FFE292"/>
<stop offset="0.157303" stop-color="#D1AC75"/>
<stop offset="1" stop-color="#FFE292"/>
</linearGradient>
<linearGradient id="paint28_linear_4253_4554" x1="29.6928" y1="18.5714" x2="28.6652" y2="17.5957" gradientUnits="userSpaceOnUse">
<stop stop-color="#FFE292"/>
<stop offset="0.157303" stop-color="#D1AC75"/>
<stop offset="1" stop-color="#FFE292"/>
</linearGradient>
<linearGradient id="paint29_linear_4253_4554" x1="13.8077" y1="20.9306" x2="16.8833" y2="17.7992" gradientUnits="userSpaceOnUse">
<stop stop-color="#7F5F39"/>
<stop offset="1" stop-color="#BD9B6A"/>
</linearGradient>
<linearGradient id="paint30_linear_4253_4554" x1="36.3988" y1="21.4988" x2="37.7073" y2="22.8311" gradientUnits="userSpaceOnUse">
<stop stop-color="#7F5F39"/>
<stop offset="1" stop-color="#D4BC7B"/>
</linearGradient>
<linearGradient id="paint31_linear_4253_4554" x1="35.9564" y1="24.8048" x2="38.8142" y2="19.2003" gradientUnits="userSpaceOnUse">
<stop stop-color="#A78A5E"/>
<stop offset="0.764038" stop-color="#7F5F39"/>
<stop offset="0.915726" stop-color="#674C2B"/>
<stop offset="1" stop-color="#674C2B"/>
</linearGradient>
<linearGradient id="paint32_linear_4253_4554" x1="33.4837" y1="26.071" x2="25.3022" y2="16.1437" gradientUnits="userSpaceOnUse">
<stop stop-color="#FFEFCF"/>
<stop offset="0.460678" stop-color="#FFE4A6"/>
<stop offset="1" stop-color="#BC956E"/>
</linearGradient>
<linearGradient id="paint33_linear_4253_4554" x1="8.88034" y1="24.2945" x2="11.7174" y2="21.4059" gradientUnits="userSpaceOnUse">
<stop stop-color="#7F5F39"/>
<stop offset="1" stop-color="#E9CF98"/>
</linearGradient>
<linearGradient id="paint34_linear_4253_4554" x1="8.36962" y1="24.1225" x2="12.1901" y2="20.2327" gradientUnits="userSpaceOnUse">
<stop stop-color="#7F5F39"/>
<stop offset="1" stop-color="#E4CB90"/>
</linearGradient>
<clipPath id="clip0_4253_4554">
<rect width="32" height="16" fill="white" transform="translate(8 16)"/>
</clipPath>
</defs>
</svg>
