<svg width="48" height="48" viewBox="0 0 48 48" fill="none" xmlns="http://www.w3.org/2000/svg">
<path fill-rule="evenodd" clip-rule="evenodd" d="M8 26.822V22.9683H10.284C11.9609 22.9683 13.0015 23.5464 13.0015 24.8149C13.0015 26.2657 11.9102 26.822 10.2404 26.822H8ZM9.45111 25.9229H10.3224C11.1175 25.9229 11.5511 25.6127 11.5511 24.8846C11.5511 24.0817 11.1967 23.8674 10.2863 23.8674H9.45111V25.9229ZM15.3515 24.0194L14.0514 26.822H12.3819L14.2466 22.9683H16.7461L18.6111 26.822H15.1277L14.7111 25.6324H16.2833L15.3515 24.0194ZM18.7285 26.822V22.9683H22.7162V23.8674H20.1792V24.4187H22.5812V25.3182H20.1792V25.9229H22.8176V26.822H18.7285Z" fill="#00ACEC"/>
<path fill-rule="evenodd" clip-rule="evenodd" d="M22.3666 22.9683H24.0867L24.9975 25.5321L25.9442 22.9683H27.6643L25.8575 26.822H24.1445L22.3666 22.9683Z" fill="#00ACEC"/>
<path fill-rule="evenodd" clip-rule="evenodd" d="M25.1841 22.9683H26.9043L27.815 25.5322L28.7621 22.9683H30.4822L28.675 26.8221H26.9621L25.1841 22.9683ZM34.8961 24.8717C34.8961 26.1174 34.0054 27.0612 32.5428 27.0612C30.9913 27.0612 29.9544 26.4303 29.9544 24.8612C29.9544 23.3489 31.0046 22.6014 32.5428 22.6014C34.3074 22.6017 34.8961 23.9056 34.8961 24.8717ZM31.3008 24.7473C31.3008 25.2894 31.5232 26.2212 32.4214 26.2212C33.2324 26.2212 33.5497 25.4482 33.5497 24.7473C33.5497 24.1705 33.2321 23.3036 32.4054 23.3213C31.5552 23.321 31.3008 24.2116 31.3008 24.7473ZM40 24.9292C40 26.1753 39.1093 27.119 37.6467 27.119C36.0945 27.119 35.0576 26.4881 35.0576 24.919C35.0576 23.4063 36.1085 22.6585 37.6467 22.6585C39.4113 22.6589 40 23.9631 40 24.9292ZM36.4043 24.8051C36.4043 25.3465 36.6261 26.279 37.5249 26.279C38.3353 26.279 38.6533 25.506 38.6533 24.8051C38.6533 24.2283 38.335 23.3611 37.5089 23.3788C36.658 23.3788 36.4043 24.2691 36.4043 24.8051Z" fill="#00ACEC"/>
<path fill-rule="evenodd" clip-rule="evenodd" d="M20.1447 17.2514C20.1447 17.2514 19.7056 18.7878 20.2722 19.6312C21.186 20.9902 22.8639 21.2667 22.8639 21.2667C22.8639 21.2667 23.119 19.652 22.2691 18.6749C21.4196 17.6976 20.1447 17.2514 20.1447 17.2514Z" fill="#00ACEC"/>
<path fill-rule="evenodd" clip-rule="evenodd" d="M20.5694 16.6355C20.5694 16.6355 22.0566 17.315 22.5878 18.4835C23.0955 19.6006 23.119 21.2667 23.119 21.2667L23.289 21.2884C23.289 21.2884 23.353 18.9936 22.6303 17.7826C21.9076 16.5716 21.0581 16.0186 21.0581 16.0186L20.5694 16.6355Z" fill="#00ACEC"/>
<path fill-rule="evenodd" clip-rule="evenodd" d="M23.5016 21.2884C23.5016 21.2884 23.6077 18.9722 22.9279 17.5061C22.3878 16.3417 21.8869 15.6363 21.8869 15.6363L22.6517 15.2541C22.6517 15.2541 23.1673 16.4808 23.3529 17.2089C23.6291 18.2927 23.6502 21.2663 23.6502 21.2663L23.5016 21.2884ZM27.8529 17.2408C27.8529 17.2408 28.2919 18.777 27.7253 19.62C26.8115 20.9796 25.1333 21.2565 25.1333 21.2565C25.1333 21.2565 24.8782 19.6411 25.7284 18.6641C26.5783 17.687 27.8529 17.2408 27.8529 17.2408Z" fill="#00ACEC"/>
<path fill-rule="evenodd" clip-rule="evenodd" d="M27.4281 16.6242C27.4281 16.6242 25.941 17.3044 25.4098 18.4726C24.9017 19.5904 24.8786 21.2564 24.8786 21.2564L24.7085 21.2772C24.7085 21.2772 24.6449 18.983 25.3672 17.7717C26.0899 16.5606 26.9398 16.0084 26.9398 16.0084L27.4281 16.6242Z" fill="#00ACEC"/>
<path fill-rule="evenodd" clip-rule="evenodd" d="M24.4963 21.2772C24.4963 21.2772 24.3902 18.9616 25.07 17.4959C25.61 16.3315 26.1113 15.6261 26.1113 15.6261L25.3465 15.2435C25.3465 15.2435 24.8309 16.4702 24.6452 17.198C24.3691 18.2815 24.3477 21.2565 24.3477 21.2565L24.4963 21.2772ZM23.809 18.0169C23.8515 18.6542 23.9049 21.2884 23.9049 21.2884H24.0964C24.0964 21.2884 24.2912 17.1878 24.2273 17.9526C24.1634 18.7171 24.3936 15.1055 24.3936 15.1055H23.5648C23.5652 15.1055 23.7665 17.3796 23.809 18.0169Z" fill="#00ACEC"/>
<path d="M26.6939 28.4265V32.3143H25.2278V28.4265H26.6939Z" fill="#00ACEC"/>
<path d="M17.1169 32.3086L18.417 29.5053L19.3489 31.119H17.7767L18.1929 32.3086H21.6764L19.8117 28.4541H17.3125L15.4471 32.3086H17.1169Z" fill="#00ACEC"/>
<path d="M22.0521 28.4541H20.3317L22.11 32.3086H23.8229L25.6304 28.4541H23.91L22.9629 31.018L22.0521 28.4541Z" fill="#00ACEC"/>
<path d="M27.995 32.3031L29.2948 29.4995L30.2266 31.1128H28.6544L29.071 32.3031H32.5541L30.6898 28.4487H28.1902L26.3252 32.3031H27.995Z" fill="#00ACEC"/>
</svg>
