<svg width="48" height="48" viewBox="0 0 48 48" fill="none" xmlns="http://www.w3.org/2000/svg">
<g clip-path="url(#clip0_4253_4886)">
<path fill-rule="evenodd" clip-rule="evenodd" d="M35.3865 22.1057L31.5619 26.534H33.4358L37.2528 22.1093L35.3865 22.1058V22.1057ZM38.0272 22.1057L34.2025 26.534H36.0764L39.8934 22.1093L38.0272 22.1058V22.1057Z" fill="#D50000"/>
<path fill-rule="evenodd" clip-rule="evenodd" d="M16.0676 23.1702C15.5245 23.1686 13.6186 23.2166 13.6186 24.0882C13.6186 24.7014 14.5102 24.8781 15.2464 24.9574C15.7675 25.0136 16.2092 25.0109 16.2092 25.0109C16.2092 25.0109 16.6233 25.0274 17.1249 24.999C17.9031 24.9547 18.8939 24.7794 18.8939 24.0879C18.8939 23.175 16.307 23.1717 16.2074 23.1717C16.195 23.1717 16.1452 23.1705 16.0676 23.1702ZM10.9512 23.1957L8.4241 23.1967C8.42416 23.1967 8.3057 23.1866 8.23515 23.2417C8.16927 23.2932 8.16865 23.4093 8.16865 23.4093L8.1499 24.7817C8.1499 24.9943 8.39116 24.9775 8.39116 24.9775L11.0393 24.9755C11.0393 24.9755 11.9097 24.9971 12.5034 24.796C12.8925 24.6643 13.0926 24.4118 13.0926 24.091C13.0926 23.7321 12.7469 23.4843 12.2784 23.3542C11.6898 23.191 10.9512 23.1957 10.9512 23.1957H10.9512ZM22.2179 23.1957L19.6917 23.1967C19.6917 23.1967 19.5732 23.1866 19.5026 23.2417C19.4367 23.2932 19.4362 23.4093 19.4362 23.4093L19.4171 24.7817C19.4171 24.9943 19.6584 24.9775 19.6584 24.9775L22.3075 24.9755C22.3075 24.9755 23.1766 24.9971 23.7705 24.796C24.1597 24.6643 24.3606 24.4118 24.3606 24.091C24.3606 23.7321 24.015 23.4843 23.5453 23.3542C22.9577 23.191 22.2179 23.1957 22.2179 23.1957ZM29.7789 23.1977C29.7558 23.1977 26.8477 23.2 26.8477 23.2C26.8477 23.2 26.6301 23.1988 26.3408 23.2247C25.7609 23.2767 24.8905 23.4535 24.8905 24.0882C24.8905 24.3835 25.0505 24.5926 25.327 24.7247C25.9286 24.9968 26.9757 24.9765 26.9757 24.9765H29.592C29.8211 24.9765 29.8441 24.8411 29.8441 24.7497C29.8441 24.6584 29.8505 24.2964 29.8505 24.0882C29.8505 23.88 29.6253 23.8977 29.6253 23.8977H27.2969C27.1945 23.8977 27.1945 23.981 27.1945 23.981C27.1945 23.981 27.1894 24.0883 27.1894 24.1835C27.1894 24.279 27.2867 24.2765 27.2867 24.2765H28.6294C28.7177 24.2765 28.728 24.3478 28.728 24.3478V24.509C28.728 24.592 28.6397 24.5975 28.6397 24.5975H27.0985C26.8605 24.5975 26.0259 24.5975 26.0259 24.0882C26.0259 23.579 27.0115 23.5743 27.0115 23.5743H29.7648C29.8761 23.5743 29.8608 23.4402 29.8608 23.4402V23.2725C29.8608 23.1996 29.8019 23.1977 29.7789 23.1977ZM30.6825 23.199C30.4765 23.199 30.4099 23.2326 30.4035 23.423C30.3984 23.5735 30.3817 24.5139 30.3817 24.7315C30.3817 24.9488 30.5021 24.9765 30.6454 24.9765H34.8643C34.959 24.9765 34.9552 24.903 34.9552 24.8863V24.6767C34.9552 24.597 34.8387 24.5975 34.8387 24.5975H31.6477C31.5235 24.5975 31.5273 24.5204 31.5273 24.5204C31.5273 24.5204 31.5286 24.4475 31.5286 24.3659C31.5286 24.2847 31.6029 24.2715 31.6387 24.2715H34.6416C34.7299 24.2715 34.7286 24.1885 34.7286 24.1885V23.981C34.7286 23.8913 34.6198 23.8948 34.6198 23.8948H31.6285C31.5286 23.8948 31.5273 23.7935 31.5273 23.7935L31.5299 23.6805C31.5299 23.5824 31.6285 23.5743 31.6285 23.5743H34.7926C34.8861 23.5743 34.8989 23.5068 34.8989 23.4402V23.2725C34.8989 23.1917 34.7875 23.199 34.7875 23.199H30.6825ZM16.216 23.5483C16.4804 23.5483 17.759 23.5713 17.759 24.0944C17.7604 24.6565 16.5659 24.624 16.216 24.624C15.8659 24.624 14.7625 24.6025 14.7625 24.0944C14.7625 23.5323 15.9514 23.5483 16.216 23.5483ZM10.9748 23.5743C10.9748 23.5743 11.3301 23.5879 11.6017 23.691C11.8146 23.7718 11.9583 23.9174 11.9583 24.0889C11.9583 24.2333 11.8647 24.3789 11.6955 24.4564C11.4061 24.5889 10.9735 24.597 10.9735 24.597L9.34302 24.598C9.34302 24.598 9.25101 24.6003 9.25101 24.5149C9.25101 24.5149 9.26551 23.6705 9.26551 23.6595C9.26551 23.6484 9.26445 23.5753 9.3617 23.5753C9.47358 23.5753 10.9748 23.5743 10.9748 23.5743ZM22.2416 23.5743C22.2416 23.5743 22.5974 23.5879 22.8688 23.691C23.0825 23.7718 23.2259 23.9174 23.2259 24.0889C23.2259 24.2333 23.1325 24.3789 22.9622 24.4564C22.6729 24.5889 22.2403 24.597 22.2403 24.597L20.6102 24.598C20.6102 24.598 20.5186 24.6003 20.5186 24.5149C20.5186 24.5149 20.5328 23.6705 20.5328 23.6595C20.5328 23.6484 20.5318 23.5753 20.629 23.5753C20.7408 23.5753 22.2416 23.5743 22.2416 23.5743Z" fill="black"/>
</g>
<defs>
<clipPath id="clip0_4253_4886">
<rect width="32" height="4.68429" fill="white" transform="translate(8 22)"/>
</clipPath>
</defs>
</svg>
