<svg width="48" height="48" viewBox="0 0 48 48" fill="none" xmlns="http://www.w3.org/2000/svg">
<g clip-path="url(#clip0_4253_39605)">
<path d="M35.6164 28.5965C35.5205 28.4983 35.0092 28.0404 35.0092 28.0404L24.8468 19.9598C26.6045 21.7265 29.1929 24.6055 29.9919 27.1573C30.2155 27.8444 30.3115 28.4985 30.3115 29.0874C30.3115 29.6108 30.1835 30.1997 29.9919 30.7886C29.5765 31.8682 28.7136 33.1115 27.4032 34.5182C26.9559 35.0089 25.0065 36.9718 24.3673 37.6262C24.2394 37.7571 24.1436 37.9534 24.1116 38.1823V38.7712L35.5205 29.6763C35.6484 29.5781 35.9041 29.3819 35.9041 29.0547C35.8721 28.8585 35.6804 28.662 35.6164 28.5967V28.5965Z" fill="url(#paint0_linear_4253_39605)"/>
<path d="M28.2663 35.0414C28.2023 34.976 30.4394 33.3402 31.6858 30.5595C32.0374 29.7744 32.1971 29.4472 32.9321 29.3817C33.699 29.3162 34.6258 29.2507 35.0732 29.2182C35.2648 29.2182 35.3288 29.2509 35.3608 29.3492C35.3928 29.4146 35.3288 29.5126 35.1691 29.6109C33.9866 30.4615 32.2291 31.9337 29.8321 33.8639C29.7362 33.9948 28.2983 35.0744 28.2663 35.0417V35.0414Z" fill="url(#paint1_linear_4253_39605)"/>
<path d="M29.9281 20.8756C29.7044 20.1885 29.6085 19.5344 29.6085 18.9455C29.6085 18.4221 29.7364 17.8332 29.9281 17.2443C30.3434 16.1647 31.2063 14.9214 32.5167 13.5147C32.932 13.0568 34.6578 11.2901 35.5527 10.4067C35.7124 10.2432 35.7763 10.0795 35.8403 9.85058C35.8723 9.65435 35.8723 9.49065 35.8723 9.42538V9.22894L24.4314 18.3238C24.3675 18.3893 24.1758 18.5528 24.0798 18.749C24.0479 18.8145 24.0479 18.978 24.0798 19.109C24.1438 19.2725 24.2395 19.3707 24.3035 19.4362C24.3994 19.5016 24.8787 19.9268 24.8787 19.9268L35.0412 28.0074C33.2514 26.2407 30.727 23.3618 29.9281 20.8754V20.8756Z" fill="url(#paint2_linear_4253_39605)"/>
<path d="M29.3528 20.7122C29.1612 20.1233 29.0332 19.5017 29.0332 18.9128C29.0332 18.3566 29.1929 17.8332 29.3848 17.2771C30.3117 14.9542 34.6898 10.9957 35.5847 10.2433C34.8497 10.8322 31.6219 13.6457 30.791 14.529C29.4168 15.903 28.3622 17.4408 28.3622 18.9455C28.3622 20.5812 29.4808 22.2497 30.759 23.7874C31.5579 24.769 32.3248 25.6196 33.092 26.3065C33.8909 27.0589 34.4341 27.5498 35.0094 28.0077C34.3702 27.3861 30.4076 23.7874 29.3528 20.7122Z" fill="black"/>
<path d="M29.9281 20.8757C29.7044 20.1886 29.6085 19.5344 29.6085 18.9455C29.6085 18.4221 29.7364 17.8332 29.9281 17.2443C30.3434 16.1648 31.2063 14.9215 32.5167 13.5147C32.932 13.0568 34.6578 11.2901 35.5526 10.4068C35.5846 10.374 35.6166 10.3413 35.6486 10.2758C34.7537 10.9955 30.3756 14.9868 29.4488 17.3096C29.2251 17.8657 29.0972 18.3892 29.0972 18.9453C29.0972 19.5342 29.1931 20.1558 29.4168 20.7447C30.4713 23.82 34.3702 27.3858 35.0414 28.0402C33.2199 26.2081 30.7272 23.362 29.9283 20.8755L29.9281 20.8757Z" fill="url(#paint3_linear_4253_39605)"/>
<path d="M30.5353 27.2878C29.4808 24.2126 25.486 20.5485 24.847 19.9596C26.6047 21.7263 29.1932 24.6053 29.9921 27.1571C30.2157 27.8442 30.3117 28.4983 30.3117 29.0872C30.3117 29.6107 30.1838 30.1995 29.9921 30.7884C29.5767 31.868 28.7139 33.1113 27.4034 34.518C26.9561 35.0087 25.0067 36.9716 24.3675 37.626C24.3355 37.6587 24.3035 37.6915 24.2715 37.7569C25.1664 37.0046 29.5126 33.046 30.4714 30.7232C30.695 30.167 30.823 29.6436 30.823 29.0875C30.8549 28.4986 30.759 27.9097 30.5353 27.288V27.2878Z" fill="url(#paint4_linear_4253_39605)"/>
<path d="M29.1611 24.2453C28.3622 23.2637 27.5953 22.4131 26.8281 21.7262C26.0292 20.9739 25.422 20.4177 24.8468 19.9596C25.5179 20.5485 29.5125 24.2453 30.5351 27.2878C30.7268 27.8767 30.8547 28.4983 30.8547 29.0872C30.8547 29.6434 30.695 30.1668 30.5031 30.7229C29.5443 33.0458 25.1981 37.0043 24.2715 37.7567V37.7894C25.0384 37.2005 28.2663 34.387 29.0972 33.5037C30.4713 32.1297 31.5259 30.592 31.5259 29.0872C31.5259 27.4515 30.4074 25.783 29.1611 24.2453ZM19.7656 18.9127C19.7656 20.5485 18.6791 22.1842 17.241 23.6892C16.3141 24.638 15.3875 25.4886 14.5246 26.1755C13.6298 26.9279 12.9268 27.4187 12.2876 27.8767C13.0225 27.2878 17.5286 23.7219 18.7111 20.6792C18.9348 20.0903 19.0627 19.5014 19.0627 18.9125C19.0627 18.3236 18.9348 17.7347 18.7111 17.1458C17.5286 14.1036 13.0225 10.5377 12.2876 9.94879C12.9268 10.4067 13.6298 10.8976 14.5246 11.65C15.3875 12.3371 16.3144 13.1877 17.241 14.1363C18.6791 15.6413 19.7656 17.3098 19.7656 18.9127Z" fill="black"/>
<path d="M12.2876 27.8767L12.0959 28.0077V9.81787L12.2876 9.94883C12.9588 10.5377 17.1451 14.1036 18.2316 17.1463C18.4553 17.7352 18.5832 18.3241 18.5832 18.913C18.5832 19.5019 18.4553 20.0908 18.2316 20.6797C17.1131 23.7219 12.9588 27.2878 12.2876 27.8767Z" fill="url(#paint5_linear_4253_39605)"/>
<path d="M12.2876 27.8767C13.0225 27.2878 17.5286 23.7219 18.7111 20.6792C18.9348 20.0903 19.0627 19.5014 19.0627 18.9125C19.0627 18.3236 18.9348 17.7347 18.7111 17.1458C17.5286 14.1036 13.0225 10.5377 12.2876 9.94879C12.9588 10.5377 17.145 14.1036 18.2316 17.1463C18.4552 17.7352 18.5832 18.3241 18.5832 18.9129C18.5832 19.5018 18.4552 20.0907 18.2316 20.6796C17.1131 23.7219 12.9588 27.2878 12.2876 27.8767Z" fill="url(#paint6_linear_4253_39605)"/>
<path d="M35.6804 28.5311C34.8495 27.7132 31.0466 24.0164 30.024 20.8429C29.8004 20.1886 29.7044 19.5671 29.7044 18.9455C29.7044 18.3893 29.8324 17.8659 30.024 17.3098C30.5033 16.0665 31.5261 14.7252 32.5807 13.6129C33.028 13.1223 34.9774 11.1593 35.6166 10.4722C35.7763 10.3087 35.8723 10.1123 35.9043 9.91608C35.9362 9.71985 35.9682 9.52341 35.9682 9.39267V9.03274L24.3675 18.2256C24.2395 18.3239 24.0479 18.4874 23.9839 18.7491C23.9199 18.5201 23.7283 18.3239 23.6003 18.2256L12 9V28.8583L23.6005 19.6324C23.7285 19.5342 23.9201 19.3707 23.9841 19.109C24.0481 19.3052 24.1758 19.4689 24.2398 19.5017C25.0707 20.3195 28.9055 24.0164 29.9281 27.1898C30.1518 27.8442 30.2477 28.4656 30.2477 29.0872C30.2477 29.6434 30.1198 30.1668 29.9281 30.723C29.4488 31.9662 28.426 33.3075 27.3714 34.4198C26.9241 34.9105 24.9747 36.9061 24.3355 37.5605C24.2076 37.6915 24.0798 37.9204 24.0479 38.1167C24.0159 38.2801 23.9839 38.4438 23.9839 38.6401V39L35.5844 29.7743C35.7441 29.6434 35.9998 29.4144 35.9998 29.0872C35.9678 28.7928 35.7441 28.5966 35.6802 28.5311H35.6804ZM23.5366 19.5344L12.0959 28.6293V9.22897L23.5046 18.3239C23.6325 18.4221 23.8882 18.6511 23.8882 18.9455C23.8882 19.2072 23.6645 19.4362 23.5366 19.5344ZM24.0798 19.1092C24.0479 18.9782 24.0479 18.8475 24.0798 18.7493C24.1438 18.5531 24.3355 18.3894 24.4314 18.3241L35.8403 9.22897V9.39245C35.8403 9.45793 35.8403 9.62142 35.8083 9.81765C35.7763 10.0466 35.6804 10.2428 35.5207 10.3738C34.6578 11.2571 32.9003 13.0238 32.4847 13.4818C31.1745 14.8885 30.3117 16.1318 29.8961 17.2113C29.6724 17.8002 29.5765 18.3564 29.5765 18.9126C29.5765 19.5342 29.7044 20.1883 29.8961 20.8427C30.695 23.3618 33.2197 26.208 34.9774 27.9747L24.879 19.9266C24.879 19.9266 24.3997 19.5014 24.3037 19.436C24.2398 19.3705 24.144 19.2397 24.0801 19.1088L24.0798 19.1092ZM35.4887 29.7089L24.0798 38.8038V38.6403C24.0798 38.4768 24.1118 38.3458 24.1118 38.2151C24.1438 37.9861 24.2398 37.7899 24.3995 37.6589L27.4354 34.551C28.7456 33.1442 29.6085 31.901 30.024 30.8214C30.2477 30.2325 30.3436 29.6763 30.3436 29.1202C30.3436 28.4986 30.2157 27.8444 30.024 27.19C29.1931 24.6382 26.6365 21.7592 24.879 19.9925L35.0734 28.1059C35.0734 28.1059 35.5847 28.5638 35.6806 28.662C35.7446 28.7275 35.9362 28.9237 35.9362 29.1527C35.8723 29.3817 35.6166 29.6106 35.4889 29.7089H35.4887Z" fill="black"/>
<path d="M31.4302 24.867C31.4622 24.8342 30.2797 23.6564 30.12 23.5257C28.8098 22.2824 27.7552 20.3522 27.7552 20.3522C27.3717 19.5671 27.2439 19.2399 26.509 19.1745C25.7421 19.109 25.2308 19.0762 24.7832 19.0762C24.5916 19.0762 24.5276 19.109 24.4956 19.2072C24.4636 19.2727 24.5276 19.3707 24.6873 19.4689C25.8698 20.3195 27.6273 21.759 30.0242 23.7219C30.1839 23.8201 31.3984 24.8997 31.4304 24.867H31.4302Z" fill="url(#paint7_linear_4253_39605)"/>
<path d="M12.0959 28.0404L12.2876 27.9094C12.9268 27.4515 13.6298 26.9606 14.5247 26.2082C15.3875 25.5211 16.3144 24.6705 17.241 23.7219C18.6791 22.2169 19.7657 20.5812 19.7657 18.9455C19.7657 17.3098 18.6791 15.674 17.241 14.1691C16.3142 13.2202 15.3875 12.3696 14.5247 11.6827C13.6298 10.9301 12.9268 10.4395 12.2876 9.98154L12.0959 9.85058V9.22894L23.5046 18.3238C23.6325 18.4221 23.8882 18.651 23.8882 18.9455C23.8882 19.2399 23.6645 19.4362 23.5046 19.5671L12.0959 28.6293V28.0404Z" fill="url(#paint8_linear_4253_39605)"/>
<path d="M16.3781 24.867C16.3781 24.867 16.6657 24.5725 17.3369 23.9509C17.4966 23.8199 17.6565 23.6564 17.7843 23.5257C19.0945 22.2824 20.149 20.3522 20.149 20.3522C20.5326 19.5671 20.6603 19.2399 21.3953 19.1745C22.1622 19.109 22.6735 19.0762 23.121 19.0762C23.3127 19.0762 23.3766 19.109 23.4086 19.2072C23.4406 19.2727 23.3766 19.3707 23.2169 19.4689C22.0345 20.3195 20.3089 21.7917 17.88 23.7219C17.7203 23.8529 17.5604 23.9836 17.4007 24.0818C16.7615 24.5725 16.4101 24.8997 16.3781 24.867Z" fill="url(#paint9_linear_4253_39605)"/>
</g>
<defs>
<linearGradient id="paint0_linear_4253_39605" x1="29.9661" y1="19.9228" x2="29.9661" y2="38.8415" gradientUnits="userSpaceOnUse">
<stop offset="0.04" stop-color="#8C8C8C"/>
<stop offset="0.19" stop-color="#B6B6B6"/>
<stop offset="0.4" stop-color="#EBEBEB"/>
<stop offset="0.51" stop-color="white"/>
<stop offset="0.56" stop-color="#FAFAFA"/>
<stop offset="0.63" stop-color="#EBEBEB"/>
<stop offset="0.71" stop-color="#D3D3D3"/>
<stop offset="0.79" stop-color="#B2B2B2"/>
<stop offset="0.87" stop-color="#878787"/>
<stop offset="0.95" stop-color="#535353"/>
<stop offset="0.96" stop-color="#4D4D4D"/>
</linearGradient>
<linearGradient id="paint1_linear_4253_39605" x1="31.6397" y1="29.5485" x2="31.9175" y2="34.7909" gradientUnits="userSpaceOnUse">
<stop stop-color="#BFBFBF"/>
<stop offset="0.21" stop-color="#666666"/>
<stop offset="0.27" stop-color="#595959"/>
<stop offset="0.52" stop-color="#292929"/>
<stop offset="0.7" stop-color="#0B0B0B"/>
<stop offset="0.81"/>
</linearGradient>
<linearGradient id="paint2_linear_4253_39605" x1="30.0464" y1="9.15362" x2="30.0464" y2="28.0146" gradientUnits="userSpaceOnUse">
<stop offset="0.04" stop-color="#8C8C8C"/>
<stop offset="0.19" stop-color="#B6B6B6"/>
<stop offset="0.4" stop-color="#EBEBEB"/>
<stop offset="0.51" stop-color="white"/>
<stop offset="0.56" stop-color="#FAFAFA"/>
<stop offset="0.63" stop-color="#EBEBEB"/>
<stop offset="0.71" stop-color="#D3D3D3"/>
<stop offset="0.79" stop-color="#B2B2B2"/>
<stop offset="0.87" stop-color="#878787"/>
<stop offset="0.95" stop-color="#535353"/>
<stop offset="0.96" stop-color="#4D4D4D"/>
</linearGradient>
<linearGradient id="paint3_linear_4253_39605" x1="32.2684" y1="28.0968" x2="32.2684" y2="10.2767" gradientUnits="userSpaceOnUse">
<stop offset="0.04" stop-color="#4D4D4D"/>
<stop offset="0.05" stop-color="#5A5A5A"/>
<stop offset="0.08" stop-color="#808080"/>
<stop offset="0.11" stop-color="#A3A3A3"/>
<stop offset="0.14" stop-color="#C0C0C0"/>
<stop offset="0.18" stop-color="#D7D7D7"/>
<stop offset="0.23" stop-color="#E9E9E9"/>
<stop offset="0.28" stop-color="#F6F6F6"/>
<stop offset="0.35" stop-color="#FDFDFD"/>
<stop offset="0.51" stop-color="white"/>
<stop offset="0.63" stop-color="#FDFDFD"/>
<stop offset="0.7" stop-color="#F5F5F5"/>
<stop offset="0.76" stop-color="#E7E7E7"/>
<stop offset="0.81" stop-color="#D3D3D3"/>
<stop offset="0.85" stop-color="#BABABA"/>
<stop offset="0.89" stop-color="#9B9B9B"/>
<stop offset="0.93" stop-color="#777777"/>
<stop offset="0.96" stop-color="#4D4D4D"/>
</linearGradient>
<linearGradient id="paint4_linear_4253_39605" x1="27.4571" y1="37.8077" x2="27.4571" y2="19.9239" gradientUnits="userSpaceOnUse">
<stop offset="0.04" stop-color="#4D4D4D"/>
<stop offset="0.05" stop-color="#5A5A5A"/>
<stop offset="0.08" stop-color="#808080"/>
<stop offset="0.11" stop-color="#A3A3A3"/>
<stop offset="0.14" stop-color="#C0C0C0"/>
<stop offset="0.18" stop-color="#D7D7D7"/>
<stop offset="0.23" stop-color="#E9E9E9"/>
<stop offset="0.28" stop-color="#F6F6F6"/>
<stop offset="0.35" stop-color="#FDFDFD"/>
<stop offset="0.51" stop-color="white"/>
<stop offset="0.63" stop-color="#FDFDFD"/>
<stop offset="0.7" stop-color="#F5F5F5"/>
<stop offset="0.76" stop-color="#E7E7E7"/>
<stop offset="0.81" stop-color="#D3D3D3"/>
<stop offset="0.85" stop-color="#BABABA"/>
<stop offset="0.89" stop-color="#9B9B9B"/>
<stop offset="0.93" stop-color="#777777"/>
<stop offset="0.96" stop-color="#4D4D4D"/>
</linearGradient>
<linearGradient id="paint5_linear_4253_39605" x1="8.95757" y1="11.7063" x2="19.221" y2="13.9668" gradientUnits="userSpaceOnUse">
<stop offset="0.02" stop-color="#F5F5F5"/>
<stop offset="0.33" stop-color="#F0F0F0"/>
<stop offset="0.69" stop-color="#E2E2E2"/>
<stop offset="0.73" stop-color="#E0E0E0"/>
<stop offset="0.96" stop-color="#B3B3B3"/>
</linearGradient>
<linearGradient id="paint6_linear_4253_39605" x1="15.7107" y1="27.9404" x2="15.7107" y2="9.93519" gradientUnits="userSpaceOnUse">
<stop offset="0.04" stop-color="#4D4D4D"/>
<stop offset="0.05" stop-color="#5A5A5A"/>
<stop offset="0.08" stop-color="#808080"/>
<stop offset="0.11" stop-color="#A3A3A3"/>
<stop offset="0.14" stop-color="#C0C0C0"/>
<stop offset="0.18" stop-color="#D7D7D7"/>
<stop offset="0.23" stop-color="#E9E9E9"/>
<stop offset="0.28" stop-color="#F6F6F6"/>
<stop offset="0.35" stop-color="#FDFDFD"/>
<stop offset="0.51" stop-color="white"/>
<stop offset="0.63" stop-color="#FDFDFD"/>
<stop offset="0.7" stop-color="#F5F5F5"/>
<stop offset="0.76" stop-color="#E7E7E7"/>
<stop offset="0.81" stop-color="#D3D3D3"/>
<stop offset="0.85" stop-color="#BABABA"/>
<stop offset="0.89" stop-color="#9B9B9B"/>
<stop offset="0.93" stop-color="#777777"/>
<stop offset="0.96" stop-color="#4D4D4D"/>
</linearGradient>
<linearGradient id="paint7_linear_4253_39605" x1="28.2109" y1="19.2325" x2="27.8687" y2="24.4714" gradientUnits="userSpaceOnUse">
<stop stop-color="#BFBFBF"/>
<stop offset="0.21" stop-color="#666666"/>
<stop offset="0.27" stop-color="#595959"/>
<stop offset="0.52" stop-color="#292929"/>
<stop offset="0.7" stop-color="#0B0B0B"/>
<stop offset="0.81"/>
</linearGradient>
<linearGradient id="paint8_linear_4253_39605" x1="17.9428" y1="9.19462" x2="17.9428" y2="28.4593" gradientUnits="userSpaceOnUse">
<stop offset="0.04" stop-color="#8C8C8C"/>
<stop offset="0.19" stop-color="#B6B6B6"/>
<stop offset="0.4" stop-color="#EBEBEB"/>
<stop offset="0.51" stop-color="white"/>
<stop offset="0.56" stop-color="#FAFAFA"/>
<stop offset="0.63" stop-color="#EBEBEB"/>
<stop offset="0.71" stop-color="#D3D3D3"/>
<stop offset="0.79" stop-color="#B2B2B2"/>
<stop offset="0.87" stop-color="#878787"/>
<stop offset="0.95" stop-color="#535353"/>
<stop offset="0.96" stop-color="#4D4D4D"/>
</linearGradient>
<linearGradient id="paint9_linear_4253_39605" x1="19.5917" y1="19.3727" x2="19.9279" y2="24.546" gradientUnits="userSpaceOnUse">
<stop stop-color="#BFBFBF"/>
<stop offset="0.21" stop-color="#666666"/>
<stop offset="0.27" stop-color="#595959"/>
<stop offset="0.52" stop-color="#292929"/>
<stop offset="0.7" stop-color="#0B0B0B"/>
<stop offset="0.81"/>
</linearGradient>
<clipPath id="clip0_4253_39605">
<rect width="24" height="30" fill="white" transform="translate(12 9)"/>
</clipPath>
</defs>
</svg>
