<svg width="48" height="48" viewBox="0 0 48 48" fill="none" xmlns="http://www.w3.org/2000/svg">
<g clip-path="url(#clip0_4253_40013)">
<path d="M24.7822 6C24.9098 6.03394 25.035 6.08778 25.1638 6.10066C29.4816 6.50328 33.1392 8.3022 36.1356 11.4038C38.6579 14.015 40.2252 17.1376 40.7729 20.739C41.5127 25.5985 40.4546 30.0473 37.5097 33.9857C34.7931 37.6198 31.1659 39.9349 26.6912 40.7015C20.5639 41.7514 15.2267 40.0449 10.8621 35.5904C8.30813 32.9827 6.7725 29.8191 6.22122 26.1955C6.1545 25.7612 6.07374 25.3305 6 24.8975C6 23.9647 6 23.0307 6 22.0978C6.03628 21.9738 6.08778 21.8509 6.10768 21.7245C6.21068 21.0737 6.2692 20.4136 6.41083 19.7722C7.25823 15.9508 9.17309 12.7568 12.139 10.2065C14.6262 8.06929 17.4997 6.74204 20.743 6.2294C21.196 6.15801 21.6466 6.07725 22.0984 6C22.9926 6 23.8868 6 24.7811 6H24.7822ZM23.476 40.258C32.7062 40.2076 40.2099 32.9054 40.2439 23.5808C40.279 13.9015 32.3843 6.79471 23.565 6.76545C14.4074 6.73502 6.83102 14.2058 6.76665 23.4029C6.70461 32.2781 13.8081 40.1667 23.476 40.2568V40.258Z" fill="black"/>
<path d="M23.5264 34.1437C17.7561 34.2011 12.7664 29.4925 12.784 23.4169C12.8015 17.2863 17.8263 12.7322 23.5088 12.7217C29.1235 12.7112 34.2735 17.154 34.284 23.431C34.2934 29.6599 29.1855 34.2105 23.5264 34.1437ZM22.4332 14.5218C18.6585 14.86 14.343 18.2765 14.5186 23.7517C14.6871 29.0068 19.0424 32.2606 22.8147 32.3834C22.7796 31.9586 22.7305 31.5396 22.7141 31.1194C22.6251 28.8301 22.5362 26.5419 22.4636 24.2526C22.4133 22.6807 22.3887 21.1077 22.3501 19.5358C22.3477 19.4633 22.322 19.3919 22.2986 19.2807C22.0715 19.2807 21.8585 19.3018 21.6525 19.2748C21.4523 19.2491 21.2592 19.1742 21.0579 19.1192C20.9455 19.2034 20.8262 19.2936 20.715 19.3778C20.3509 19.1051 20.2597 18.8324 20.4469 18.603C20.4914 18.548 20.585 18.4754 20.633 18.4895C20.8039 18.5398 20.9654 18.6241 21.1305 18.6955C21.4816 18.2648 22.02 18.6276 22.4367 18.4064V14.5218H22.4332ZM24.2989 32.3448C26.1365 32.4548 29.4067 31.1089 31.1261 28.2484C33.0199 25.0965 33.0328 21.8813 31.1753 18.7107C29.7918 16.35 26.6105 14.3966 24.595 14.5756V18.4286C25.0515 18.5983 25.5723 18.2624 25.9188 18.7177C26.2781 18.4497 26.4291 18.4181 26.5707 18.5784C26.7042 18.7306 26.7042 19.0677 26.5579 19.2268C26.5087 19.2807 26.4115 19.3556 26.3671 19.3392C26.2126 19.283 26.0709 19.1906 25.8907 19.0934C25.5817 19.4562 25.1053 19.1765 24.7167 19.3228C24.5774 23.6592 24.4393 27.9792 24.3001 32.3448H24.2989ZM23.0289 33.1103C23.036 32.8224 22.9037 32.7287 22.6755 32.7053C22.329 32.669 21.979 32.6339 21.6384 32.5614C16.6114 31.4857 13.5518 26.7655 14.3196 21.982C14.9271 18.1945 17.68 15.2837 21.4383 14.3767C21.7016 14.3135 21.9685 14.2596 22.2354 14.2128C22.4437 14.1753 22.535 14.0665 22.5011 13.8558C21.0041 13.747 18.6046 14.8577 17.3675 15.8982C15.2747 17.6585 14.034 19.8893 13.8257 22.6082C13.3435 28.8991 18.4139 33.0412 23.0289 33.1091V33.1103ZM24.0917 13.1243C24.2965 13.3596 24.4955 13.4708 24.7706 13.4895C25.0784 13.5094 25.3862 13.5726 25.6882 13.6393C30.7293 14.7489 34.3507 19.6096 33.4284 25.1456C32.7811 29.0302 29.8129 32.2489 25.9902 33.17C25.4646 33.2964 24.9216 33.349 24.3843 33.4263C24.1655 33.4579 23.929 33.4462 23.8916 33.7587C28.2819 33.8956 33.8884 30.1444 33.961 23.5445C34.0312 17.1224 28.6811 13.1676 24.0917 13.1255V13.1243ZM23.5709 32.394C23.613 32.401 23.6551 32.4092 23.6973 32.4162C23.7499 32.1201 23.8307 31.8252 23.8506 31.5267C23.9302 30.327 24.0344 29.1274 24.0484 27.9265C24.0788 25.1714 24.0625 22.415 24.0625 19.6587C24.0625 19.5089 24.0402 19.3591 24.0262 19.1718C23.8506 19.1871 23.7101 19.1999 23.5709 19.2116V32.3952V32.394Z" fill="black"/>
<path d="M29.8292 8.92371C30.4964 9.30409 31.1343 9.66224 31.7652 10.0321C31.8799 10.0988 31.9782 10.203 32.0648 10.306C32.4405 10.7495 32.3434 11.3476 31.8447 11.6496C31.7336 11.7175 31.6025 11.7526 31.5147 11.7889C31.5428 12.0604 31.6235 12.3132 31.5826 12.545C31.4503 13.3022 30.7925 13.6639 30.0423 13.4076C29.8058 13.3268 29.5811 13.2027 29.3599 13.0822C28.9034 12.8317 28.4539 12.5707 27.967 12.2945C28.5909 11.165 29.196 10.0695 29.8281 8.92371H29.8292ZM29.2581 12.0932C29.594 12.2676 29.8421 12.4186 30.1078 12.5262C30.3033 12.6058 30.4917 12.5426 30.6088 12.3495C30.7281 12.1529 30.6895 11.9422 30.473 11.7971C30.2225 11.6297 29.9498 11.4963 29.6583 11.3336C29.5167 11.6039 29.4032 11.8193 29.2592 12.0932H29.2581ZM29.9978 10.7273C30.2237 10.8584 30.4133 10.9848 30.6169 11.0819C30.8826 11.2084 31.0687 11.1674 31.1717 10.9883C31.2782 10.8046 31.2186 10.6243 30.9716 10.471C30.7808 10.3516 30.5725 10.2591 30.3372 10.1374C30.2155 10.3481 30.1136 10.5237 29.9966 10.7273H29.9978Z" fill="black"/>
<path d="M17.4423 38.0646C16.7728 37.7006 16.1431 37.3682 15.5239 37.0159C15.3765 36.9317 15.2465 36.7994 15.14 36.6648C14.8181 36.2552 14.92 35.6805 15.3601 35.3973C15.4853 35.3165 15.6304 35.265 15.7206 35.2229C15.6831 34.9326 15.5754 34.6575 15.6281 34.4164C15.7873 33.6849 16.4404 33.3233 17.1438 33.5878C17.8672 33.8593 18.5296 34.2631 19.2401 34.6728C18.6338 35.8163 18.0474 36.92 17.4411 38.0658L17.4423 38.0646ZM17.9632 34.9092C17.6811 34.7559 17.4669 34.6224 17.2386 34.5206C16.9144 34.3755 16.7143 34.434 16.5937 34.6774C16.4837 34.8987 16.5422 35.0801 16.8196 35.2556C17.0455 35.3984 17.2901 35.5096 17.5722 35.6606C17.7021 35.4113 17.8145 35.1948 17.9632 34.9104V34.9092ZM17.2527 36.2598C16.9566 36.1112 16.7225 35.9766 16.4755 35.8748C16.321 35.8104 16.1642 35.8596 16.0752 36.0176C15.9757 36.1955 16.005 36.3617 16.1829 36.4693C16.4088 36.6063 16.6452 36.7257 16.9039 36.8673C17.0244 36.6578 17.1181 36.4939 17.2515 36.261L17.2527 36.2598Z" fill="black"/>
<path d="M37.5413 16.1346C37.8129 16.8134 38.0785 17.4525 38.3232 18.0997C38.4894 18.5398 38.5022 18.9822 38.1605 19.3544C37.8164 19.7277 37.3763 19.7313 36.9198 19.6201C36.8636 19.606 36.8133 19.5744 36.7243 19.5358C36.4621 20.1947 35.7985 20.3422 35.2273 20.705C35.1068 20.3996 34.9967 20.1198 34.8727 19.805C35.0845 19.6809 35.2624 19.5721 35.4439 19.4703C35.9823 19.1671 36.0478 19.0033 35.8254 18.4497C35.7692 18.3092 35.692 18.1781 35.6124 18.0166C35.1969 18.1793 34.806 18.3314 34.353 18.5093C34.2254 18.2004 34.106 17.9089 33.9656 17.566C35.17 17.0838 36.3311 16.618 37.5401 16.1346H37.5413ZM36.3908 17.7275C36.5101 18.0166 36.6038 18.287 36.7314 18.5398C36.832 18.7399 37.072 18.8008 37.2803 18.7071C37.4641 18.6252 37.5495 18.4696 37.491 18.2823C37.3973 17.9792 37.3458 17.6468 37.0673 17.4115C36.8496 17.5122 36.6436 17.6081 36.3908 17.7263V17.7275Z" fill="black"/>
<path d="M12.2292 27.2757C11.9728 27.422 11.7703 27.532 11.5737 27.6526C11.1231 27.9288 11.0657 28.088 11.253 28.5597C11.3162 28.72 11.4028 28.871 11.4988 29.07C11.9014 28.9108 12.29 28.7575 12.7407 28.5796C12.8788 28.8687 13.0075 29.1379 13.1679 29.4726C11.9787 29.9794 10.827 30.4686 9.63895 30.9754C9.56873 30.8467 9.4985 30.739 9.44817 30.6219C9.241 30.1409 9.02915 29.6622 8.84305 29.173C8.76229 28.9588 8.70493 28.7247 8.69674 28.4976C8.6745 27.8633 9.10757 27.4255 9.74195 27.4349C9.95029 27.4384 10.1563 27.5051 10.3986 27.5496C10.5835 26.8813 11.2706 26.7736 11.7844 26.4014C12.0115 26.6414 12.0653 26.9457 12.228 27.2746L12.2292 27.2757ZM10.7427 29.386C10.5952 29.0676 10.4969 28.8172 10.367 28.5842C10.2499 28.3736 10.0311 28.3162 9.82272 28.411C9.60735 28.5093 9.55234 28.7001 9.62374 28.8944C9.72557 29.1741 9.77473 29.4913 10.0533 29.702C10.2675 29.6037 10.4735 29.5089 10.7415 29.3848L10.7427 29.386Z" fill="black"/>
<path d="M11.1734 17.696C10.9745 18.3034 10.7954 18.85 10.6058 19.4293C10.8176 19.5183 10.9908 19.5897 11.2004 19.6775C11.5433 19.0536 11.644 18.3537 11.9611 17.6983C12.2257 17.7884 12.475 17.8739 12.7641 17.9722C12.4305 18.9612 12.1063 19.9244 11.7622 20.9474C10.5355 20.526 9.33699 20.114 8.09631 19.6868C8.43574 18.713 8.7623 17.7732 9.1029 16.7947C9.37328 16.8802 9.58981 16.9481 9.87072 17.037C9.6577 17.6761 9.45287 18.2905 9.23165 18.9541C9.4119 19.0337 9.57928 19.1086 9.80634 19.2105C10.0205 18.6136 10.2265 18.0412 10.4501 17.4186C10.7123 17.5181 10.9323 17.6023 11.1746 17.6948L11.1734 17.696Z" fill="black"/>
<path d="M35.3092 25.7226C36.4785 26.1041 37.5975 26.4693 38.7141 26.838C38.7843 26.8614 38.8452 26.9129 38.947 26.9738C38.645 27.9136 38.3442 28.8464 38.027 29.8331C37.759 29.7558 37.5261 29.6903 37.2475 29.6095C37.4594 28.9506 37.6595 28.3303 37.8725 27.669C37.6899 27.5917 37.5202 27.5203 37.2861 27.4209C37.0825 28.0225 36.8882 28.5983 36.6763 29.2221C36.434 29.1437 36.221 29.0747 35.9471 28.9869C36.1274 28.3888 36.2971 27.8247 36.4832 27.2043C36.276 27.1283 36.0888 27.0604 35.8488 26.9738C35.6136 27.6573 35.3912 28.3045 35.1571 28.9857C34.8598 28.8804 34.6128 28.7938 34.3378 28.6966C34.6678 27.6865 34.9827 26.7186 35.3081 25.7238L35.3092 25.7226Z" fill="black"/>
<path d="M35.8079 13.5491C36.0525 13.8218 36.2456 14.036 36.4692 14.2841C36.3744 14.386 36.2936 14.4866 36.2 14.5721C35.7692 14.9642 35.3373 15.3539 34.9019 15.7401C34.7568 15.8689 34.6082 15.9965 34.4455 16.1006C33.852 16.4834 33.3265 16.4623 32.7881 16.0117C32.5681 15.8268 32.3621 15.6102 32.1982 15.3738C31.7429 14.716 31.7932 14.1109 32.355 13.5374C32.7214 13.1641 33.1205 12.8223 33.5068 12.4677C33.735 12.2593 33.9656 12.0533 34.2395 11.8076C34.47 12.0498 34.6913 12.2816 34.9394 12.5426C34.4279 13.0084 33.9457 13.4496 33.4611 13.8909C33.3464 13.9951 33.2223 14.091 33.117 14.2046C32.8337 14.5124 32.8267 14.7874 33.0807 15.08C33.3593 15.4007 33.6601 15.4405 33.9913 15.162C34.422 14.8003 34.8329 14.4152 35.2531 14.0407C35.4251 13.8862 35.5984 13.7341 35.8067 13.5491H35.8079Z" fill="black"/>
<path d="M12.9607 35.2486C12.743 35.011 12.5358 34.7851 12.2865 34.5136C12.6587 34.166 13.0204 33.8265 13.3844 33.4883C13.5834 33.3034 13.7953 33.1301 13.9837 32.9359C14.3641 32.5461 14.3758 32.264 14.0457 31.934C13.7356 31.6238 13.4746 31.6238 13.0848 31.9691C12.6201 32.3811 12.1718 32.8118 11.7154 33.2331C11.6159 33.3244 11.5105 33.4099 11.3724 33.5281C11.1582 33.3022 10.9511 33.0822 10.7181 32.8364C10.8399 32.7018 10.9335 32.5836 11.0424 32.4817C11.5094 32.0428 11.9635 31.5887 12.4527 31.1767C13.2697 30.4897 13.9544 30.5482 14.693 31.3277C14.7199 31.3558 14.7457 31.3851 14.7714 31.4131C15.4585 32.1903 15.4573 32.8797 14.7304 33.6124C14.2248 34.1227 13.6876 34.6002 13.1632 35.0918C13.1082 35.1432 13.0438 35.1842 12.9596 35.2486H12.9607Z" fill="black"/>
<path d="M30.3583 34.9829C30.1183 35.1445 29.8655 35.3153 29.5811 35.5085C29.2334 34.9712 29.2147 34.441 29.4933 33.9073C29.8433 33.239 30.6895 32.7814 31.3742 32.8598C32.1959 32.9546 32.9286 33.637 33.1708 34.4785C33.5864 35.9169 32.224 37.0007 31.1752 36.9036C30.7457 36.8638 30.4917 36.7292 30.1288 36.2879C30.3828 36.1159 30.6345 35.9462 30.9002 35.7659C31.2361 36.0141 31.5779 36.0468 31.922 35.7964C32.2251 35.5763 32.3457 35.2615 32.2392 34.8729C32.1397 34.5089 31.9384 34.2023 31.6235 33.9811C31.2712 33.7341 30.9821 33.7201 30.6532 33.9319C30.3395 34.1332 30.2623 34.3743 30.3571 34.8343C30.3641 34.8706 30.3571 34.9104 30.3571 34.9853L30.3583 34.9829Z" fill="black"/>
<path d="M17.1134 10.4593C16.8348 10.6442 16.5937 10.8034 16.369 10.952C16.307 10.9403 16.2683 10.9403 16.2356 10.9263C15.7381 10.7203 15.4701 10.7484 15.181 11.0492C14.8837 11.3582 14.9024 11.7245 15.0581 12.0756C15.1576 12.2992 15.3074 12.5169 15.483 12.6866C15.8142 13.0061 16.1431 13.0412 16.4884 12.8539C16.8489 12.6585 16.939 12.4396 16.8711 11.9282C16.8664 11.8907 16.8746 11.8521 16.8793 11.7725C17.1134 11.6203 17.3686 11.4565 17.6577 11.2692C17.9854 11.8252 18.01 12.36 17.701 12.8832C17.1614 13.7985 15.6972 14.4153 14.5841 13.2226C13.4827 12.0429 13.9462 10.3212 15.4713 9.91153C16.1396 9.73246 16.63 9.88344 17.1146 10.4593H17.1134Z" fill="black"/>
<path d="M28.3557 38.445C28.0045 38.5386 27.6908 38.6229 27.3537 38.7118C26.552 37.6222 25.7713 36.5618 24.9766 35.4803C25.2727 35.2451 25.5981 35.224 25.9305 35.1456C26.0686 35.3141 26.2009 35.4756 26.3635 35.6746C26.5614 35.629 26.7638 35.5857 26.9652 35.5342C27.1712 35.4803 27.3748 35.4183 27.6066 35.3527C27.6417 35.1222 27.6768 34.8963 27.7189 34.6247C28.0127 34.5346 28.3182 34.441 28.6927 34.3263C28.578 35.7249 28.4704 37.051 28.3557 38.4461V38.445ZM27.4392 37.4209C27.479 37.3928 27.5188 37.3659 27.5574 37.3378V36.1732C27.3011 36.2458 27.0881 36.3066 26.827 36.3804C27.0178 36.6835 27.1829 36.941 27.3432 37.2032C27.3842 37.2699 27.4064 37.3483 27.438 37.4209H27.4392Z" fill="black"/>
<path d="M21.3329 11.7373C21.1621 11.5185 21.0216 11.3382 20.8624 11.1369C20.6061 11.2048 20.3509 11.3031 20.0876 11.3347C19.7072 11.3804 19.5363 11.5688 19.5445 11.9445C19.5457 12.0182 19.5164 12.0931 19.4965 12.1973C19.2004 12.2734 18.9054 12.3495 18.5309 12.4454C18.6608 11.0632 18.7837 9.74178 18.9113 8.38293C19.2495 8.28228 19.5585 8.19099 19.9003 8.09033C20.688 9.19052 21.464 10.2731 22.2857 11.419C21.9509 11.5313 21.6689 11.6261 21.3329 11.7385V11.7373ZM19.7856 9.42811C19.7482 9.43631 19.7095 9.44333 19.6721 9.45152C19.6662 9.84244 19.5866 10.2334 19.6896 10.6489C19.9249 10.5342 20.2046 10.5892 20.3755 10.3399C20.173 10.0274 19.9799 9.72774 19.7856 9.42811Z" fill="black"/>
<path d="M36.544 32.3483C36.0946 32.305 35.6966 32.2676 35.2285 32.2231C35.4251 32.6737 35.5866 33.0424 35.7563 33.4309C35.5492 33.7189 35.3467 33.9998 35.095 34.3485C34.8211 33.6287 34.5707 32.9698 34.3073 32.2769C33.5418 32.2512 32.7904 32.2254 31.9886 32.1985C32.1057 31.79 32.3503 31.5161 32.6031 31.2739C32.6979 31.1826 32.9344 31.2165 33.1029 31.2282C33.3873 31.2481 33.6694 31.2973 34.0568 31.3476C33.8532 30.8315 33.687 30.4101 33.5114 29.9665C33.7162 29.6856 33.9199 29.4071 34.1786 29.0524C34.4747 29.8448 34.7415 30.5611 35.0166 31.2973C35.7236 31.3382 36.4153 31.3792 37.2077 31.426C36.9584 31.7725 36.7617 32.0463 36.544 32.3483Z" fill="black"/>
<path d="M12.9384 17.6398C12.6517 16.831 12.4 16.1229 12.1308 15.3621C11.7797 15.3481 11.4157 15.3376 11.0528 15.3165C10.7087 15.2966 10.3658 15.2662 9.93738 15.2334C10.2113 14.8776 10.4301 14.5932 10.6408 14.3193C11.0774 14.3673 11.4765 14.4106 11.9388 14.4609C11.8078 14.1344 11.7118 13.8476 11.5772 13.5796C11.4566 13.3408 11.459 13.1477 11.6427 12.9464C11.7972 12.7779 11.9307 12.5906 12.125 12.3472C12.3825 13.0599 12.6154 13.706 12.8623 14.3907C13.6348 14.4457 14.4026 14.5007 15.2149 14.5592C15.0405 14.9314 14.7842 15.2077 14.5255 15.5085C14.0702 15.4605 13.6173 15.4136 13.1046 15.3598C13.2486 15.7285 13.3586 16.0527 13.5002 16.3629C13.6091 16.6004 13.6114 16.8006 13.4335 17.0042C13.2825 17.1775 13.1503 17.3659 12.9396 17.6386L12.9384 17.6398Z" fill="black"/>
<path d="M25.5559 10.8092C25.5383 11.0585 25.5208 11.2996 25.4985 11.6109C24.5528 11.5676 23.6539 11.5267 22.7374 11.4845C22.7234 11.3546 22.707 11.2809 22.7093 11.2071C22.7526 10.0473 22.7995 8.88621 22.8463 7.68536H23.8072V10.6219C24.3679 10.7776 24.9683 10.5646 25.557 10.8092H25.5559Z" fill="black"/>
<path d="M24.5482 35.4265C24.5119 36.6976 24.4756 37.9324 24.4393 39.1988H23.4514V36.2306H21.7894C21.6407 35.9134 21.7426 35.6512 21.7402 35.3961C22.233 35.272 23.6434 35.2837 24.547 35.4277L24.5482 35.4265Z" fill="black"/>
<path d="M20.118 34.8518C20.4727 34.9454 20.7489 35.018 21.0907 35.1081C20.784 36.3534 20.4867 37.5648 20.1765 38.823C19.8336 38.7446 19.5398 38.6767 19.1934 38.5971C19.5035 37.3413 19.802 36.1276 20.1168 34.8518H20.118Z" fill="black"/>
<path d="M27.1208 8.08801C27.4777 8.19335 27.7516 8.27411 28.0911 8.37476C27.7587 9.61306 27.4344 10.8174 27.0938 12.0838C26.7638 11.9878 26.477 11.9059 26.1235 11.8029C26.4571 10.5588 26.7802 9.3544 27.1208 8.08801Z" fill="black"/>
<path d="M39.0114 20.3492C38.5186 20.4452 38.391 20.2942 38.4847 19.6809C38.734 19.6809 39.0008 19.2853 39.2396 19.7476C39.0886 19.9092 38.9376 20.0695 38.7574 20.2614C38.8557 20.2954 38.9329 20.3223 39.0114 20.3492Z" fill="black"/>
<path d="M8.08463 27.5403C8.14198 27.7825 8.32574 27.6947 8.47673 27.6912C8.26137 27.875 8.05186 27.8329 7.88331 27.6386C7.73818 27.4712 7.68434 27.2769 7.89736 27.1049C7.86693 27.2734 7.77563 27.4677 8.0659 27.4993L8.08463 27.5403Z" fill="black"/>
<path d="M8.08453 27.5402L8.0658 27.4993C7.94642 27.2792 8.1255 27.2395 8.26946 27.1716C8.31511 27.2512 8.36193 27.3307 8.4462 27.477C8.30926 27.5005 8.19572 27.5204 8.08336 27.5402H8.08453Z" fill="black"/>
</g>
<defs>
<clipPath id="clip0_4253_40013">
<rect width="35" height="35" fill="white" transform="translate(6 6)"/>
</clipPath>
</defs>
</svg>
