<svg width="48" height="48" viewBox="0 0 48 48" fill="none" xmlns="http://www.w3.org/2000/svg">
<g clip-path="url(#clip0_4253_40040)">
<path d="M23.7968 12C24.0186 12.035 24.2441 12.0701 24.4658 12.109C26.7623 12.4828 28.6943 14.4374 29.0964 16.8241C29.461 18.9656 28.8859 20.8189 27.3487 22.2946C25.9054 23.6768 24.1652 24.1752 22.2483 23.7119C19.8879 23.1395 18.4145 21.5665 17.8845 19.1175C17.1855 15.8975 19.3617 12.6347 22.5076 12.1051C22.7143 12.0701 22.9173 12.035 23.124 12C23.3495 12 23.5713 12 23.7968 12ZM19.5421 21.037C19.5421 21.037 19.5308 21.0681 19.5233 21.0837C20.7373 22.6061 22.3009 23.3303 24.2027 23.0305C26.2249 22.7151 27.5967 21.4848 28.2282 19.4757C28.7506 17.8131 28.4424 16.2518 27.4426 14.8034C27.3938 14.8929 27.3637 14.9513 27.3336 15.0097C27.1683 15.3524 27.0029 15.695 26.845 16.0415C26.8037 16.1311 26.7548 16.1661 26.6571 16.1661C26.0858 16.1739 25.5145 16.2051 24.9432 16.2012C24.3268 16.1973 23.9058 16.4932 23.6164 17.0344C22.9474 18.292 22.2746 19.5496 21.6093 20.8112C21.4928 21.0331 21.3425 21.1421 21.0869 21.1226C20.5719 21.0837 20.0533 21.0681 19.5346 21.0409L19.5421 21.037ZM19.4594 21.0058C19.4932 20.9202 19.5083 20.8618 19.5346 20.8073C20.3765 19.0435 21.2485 17.2992 22.222 15.6093C22.5001 15.1226 22.9098 14.8735 23.436 14.8579C24.4997 14.8267 25.5634 14.8228 26.6308 14.8073C26.8864 14.8073 27.142 14.8073 27.4464 14.8073C26.3902 13.4835 25.086 12.7748 23.4698 12.8021C21.4289 12.8371 19.9029 13.8222 19.0121 15.7184C18.1589 17.5328 18.3807 19.3082 19.4669 21.0097L19.4594 21.0058Z" fill="#2870B8"/>
<path d="M41 32.6282C40.9361 32.636 40.8722 32.6515 40.8121 32.6515C29.2619 32.6515 17.7155 32.6515 6.16538 32.6515H6V32.3323H6.18793C17.7193 32.3323 29.2506 32.3323 40.782 32.3323C40.8534 32.3323 40.9286 32.3556 41 32.3712V32.6282Z" fill="#171616"/>
<path d="M15.8513 31.3589C14.4982 31.3355 13.4233 31.0863 12.4911 30.3816C12.2318 30.1869 11.9912 29.9494 11.7958 29.6885C11.1418 28.8242 11.1493 27.7612 11.7958 26.8891C12.2919 26.2271 12.961 25.8105 13.7202 25.5652C15.3627 25.0318 16.9601 25.1175 18.471 26.013C18.8131 26.2155 19.1288 26.4958 19.3844 26.8034C20.185 27.7612 20.1361 28.9838 19.3017 29.9105C18.6665 30.6113 17.8659 31.0007 16.9751 31.1953C16.5354 31.2927 16.0806 31.3277 15.8475 31.3589H15.8513ZM15.4679 29.6068C16.3023 29.6146 16.9 29.4199 17.3172 29.0578C17.8133 28.6256 17.8321 28.0299 17.3547 27.5782C17.257 27.4848 17.1443 27.3991 17.0277 27.3329C16.4527 27.0059 15.8363 26.9397 15.1973 27.0214C14.7237 27.0837 14.2765 27.2356 13.9156 27.5782C13.4383 28.0299 13.4571 28.6334 13.9532 29.0617C14.4343 29.4744 15.0094 29.6029 15.4642 29.6107L15.4679 29.6068Z" fill="#2870B8"/>
<path d="M25.8979 28.5049C26.5481 29.4199 27.1833 30.3154 27.8411 31.2421C27.5554 31.2421 27.3036 31.2421 27.0518 31.2421C26.5556 31.2421 26.0633 31.2382 25.5671 31.2421C25.4506 31.2421 25.3867 31.2031 25.3266 31.1058C24.8868 30.4283 24.4395 29.7547 23.9998 29.0811C23.8645 28.8748 23.6953 28.7735 23.451 28.8086C23.3308 28.8241 23.203 28.8086 23.0601 28.8086V31.2265H20.8313V25.4056C20.8689 25.4017 20.9027 25.39 20.9365 25.39C22.2558 25.3978 23.5751 25.3978 24.8906 25.4212C25.4205 25.4328 25.9467 25.5029 26.4241 25.7794C27.1081 26.1687 27.3863 26.9436 27.0743 27.6094C26.8789 28.0221 26.5368 28.2596 26.1347 28.4153C26.0633 28.4426 25.9918 28.4659 25.8941 28.501L25.8979 28.5049ZM23.0601 27.804C23.4698 27.804 23.857 27.8118 24.2441 27.804C24.5147 27.7962 24.7327 27.6094 24.8192 27.3446C24.9545 26.9124 24.7478 26.5075 24.2704 26.4296C23.8795 26.3634 23.4698 26.4179 23.0564 26.4179C23.0564 26.8345 23.0564 27.2589 23.0564 27.6833C23.0564 27.7184 23.0564 27.7534 23.0639 27.8079L23.0601 27.804Z" fill="#2870B8"/>
<path d="M35.2419 26.1103C34.9638 26.5425 34.7082 26.9358 34.4639 27.3135C34.1406 27.185 33.8362 27.0331 33.5205 26.9436C32.859 26.7528 32.1824 26.7061 31.5247 26.9669C31.2916 27.0604 31.0548 27.2083 30.8782 27.3952C30.1828 28.1194 30.4422 29.0072 31.0511 29.4666C31.5021 29.8092 32.0321 29.8949 32.5771 29.8754C33.0882 29.856 33.5769 29.7314 33.9941 29.4744C34.3398 29.817 34.6744 30.1558 35.0164 30.4945C34.4564 30.9267 33.8287 31.1759 33.1559 31.3005C31.908 31.5302 30.694 31.4173 29.5439 30.8371C28.811 30.4673 28.2284 29.9338 27.9765 29.0967C27.6909 28.1467 28.063 27.002 28.8711 26.3128C29.48 25.795 30.1941 25.5263 30.9609 25.4017C32.1899 25.2031 33.4002 25.2849 34.5691 25.7638C34.7946 25.8573 35.0089 25.9896 35.2457 26.1142L35.2419 26.1103Z" fill="#2870B8"/>
<path d="M35.8958 25.425H40.9548V26.6243H37.9743V27.7106H40.9586V28.9059H37.9705V29.9805H40.9586V31.2576H35.8995V25.425H35.8958Z" fill="#2870B8"/>
<path d="M6.00366 25.4289H11.0364V26.6282H8.05585V27.8001H10.2847V28.9332H8.05209V31.2226H6.00366V25.425V25.4289Z" fill="#2870B8"/>
<path d="M12.54 33.621H13.006C13.2128 34.2946 13.4232 34.9682 13.6488 35.7002C13.9382 34.9799 14.2088 34.3102 14.4869 33.6249H14.9643C14.938 34.3958 14.9154 35.1668 14.8891 35.9416H14.5847C14.611 35.2914 14.6373 34.645 14.6636 33.9948C14.6485 33.9948 14.6335 33.987 14.6185 33.9831C14.3591 34.6333 14.0998 35.2836 13.8367 35.9416H13.4308C13.2278 35.2914 13.0211 34.6411 12.8181 33.9948C12.8068 33.9948 12.7918 33.9948 12.7805 33.9987C12.7317 34.6411 12.6828 35.2836 12.6339 35.9377H12.3521C12.4159 35.1668 12.4761 34.3997 12.54 33.6171V33.621Z" fill="#171616"/>
<path d="M18.3807 33.5743C18.9595 33.5743 19.3542 33.804 19.4932 34.2752C19.7338 35.0928 19.4143 35.9883 18.3431 35.9845C18.1251 35.9845 17.8958 35.9455 17.6966 35.8599C17.2832 35.6846 17.0689 35.1863 17.1366 34.6684C17.2343 33.9325 17.644 33.5743 18.3844 33.5704L18.3807 33.5743ZM18.3581 33.8274C17.768 33.8274 17.4561 34.1623 17.4448 34.8203C17.4373 35.3965 17.7605 35.7353 18.3281 35.7392C18.9219 35.7392 19.2414 35.4004 19.2414 34.7541C19.2414 34.1428 18.9482 33.8352 18.3581 33.8313V33.8274Z" fill="#171616"/>
<path d="M26.4318 33.5743C27.0256 33.5743 27.409 33.8274 27.5556 34.318C27.721 34.8631 27.5631 35.4627 27.176 35.7547C26.7663 36.0662 26.0146 36.0895 25.6086 35.7936C25.2027 35.4977 25.12 35.0616 25.1877 34.5944C25.2854 33.913 25.7139 33.5743 26.428 33.5743H26.4318ZM26.4055 33.8274C25.8154 33.8274 25.4959 34.1739 25.4959 34.8202C25.4959 35.4043 25.8154 35.7352 26.3791 35.7352C26.9692 35.7352 27.2925 35.3887 27.2962 34.7462C27.2962 34.1427 26.9918 33.8274 26.4055 33.8235V33.8274Z" fill="#171616"/>
<path d="M31.2427 35.9299C30.9984 35.9961 30.8594 35.9299 30.7504 35.6924C30.5887 35.3381 30.3708 35.011 30.1715 34.6606C30.3444 34.6411 30.5061 34.6334 30.6639 34.6022C30.8143 34.5711 30.9308 34.4854 30.9721 34.318C31.036 34.0649 30.9496 33.9169 30.6977 33.878C30.6752 33.878 30.6526 33.8741 30.6263 33.8741C30.4722 33.8741 30.3219 33.8741 30.1377 33.8741C30.1114 34.5594 30.0851 35.2447 30.0588 35.9416H29.7468C29.7844 35.1746 29.8182 34.4114 29.8596 33.6016C30.2354 33.621 30.6188 33.6249 30.9984 33.6716C31.1826 33.695 31.2728 33.8624 31.2954 34.0532C31.3292 34.3141 31.2728 34.5477 31.0623 34.6996C30.9458 34.7852 30.7992 34.828 30.6526 34.8942C30.8406 35.2291 31.0398 35.5795 31.2352 35.9338L31.2427 35.9299Z" fill="#171616"/>
<path d="M34.5579 33.9364C34.4038 33.9013 34.2534 33.8585 34.0993 33.8352C33.9302 33.8118 33.7648 33.8352 33.6784 34.022C33.5919 34.2167 33.7272 34.3296 33.84 34.4426C34.0242 34.6217 34.2309 34.7813 34.4038 34.9682C34.494 35.0694 34.5767 35.2096 34.5992 35.342C34.6556 35.6924 34.4226 35.9649 34.0655 35.9844C33.8964 35.9922 33.7235 35.9766 33.5581 35.9416C33.2837 35.8832 33.2837 35.8715 33.295 35.5873C33.5055 35.6379 33.7159 35.7002 33.9302 35.7352C34.0768 35.7586 34.2158 35.7119 34.2835 35.5561C34.3549 35.3965 34.276 35.268 34.167 35.1668C33.9715 34.976 33.7573 34.8008 33.5656 34.6022C33.4792 34.5126 33.3965 34.3919 33.3702 34.2673C33.2875 33.9052 33.5092 33.6132 33.8851 33.5782C34.0279 33.5665 34.1783 33.5782 34.3211 33.6054C34.5654 33.6483 34.5691 33.6638 34.5504 33.9286L34.5579 33.9364Z" fill="#171616"/>
<path d="M22.4889 35.9455H22.1619C22.2033 35.2524 22.2409 34.571 22.2822 33.8741H21.6169V33.6288H23.2294V33.8702H22.5867C22.5566 34.5555 22.5228 35.2407 22.4927 35.9455H22.4889Z" fill="#171616"/>
<path d="M22.752 19.1135C22.7746 19.0474 22.7859 18.9889 22.8084 18.9344C22.94 18.6619 23.064 18.3854 23.2144 18.1246C23.2595 18.0428 23.3685 17.9533 23.4511 17.9494C24.2743 17.9299 25.0937 17.926 25.9168 17.9182C25.9281 17.9182 25.9356 17.9299 25.9656 17.9494C25.9469 18 25.9356 18.0584 25.9093 18.109C25.7702 18.3893 25.6311 18.6736 25.477 18.9461C25.4357 19.0162 25.3417 19.0941 25.2665 19.0941C24.4547 19.1135 23.6466 19.1213 22.8347 19.133C22.8159 19.133 22.8009 19.1252 22.7483 19.1135H22.752Z" fill="#2870B8"/>
</g>
<defs>
<clipPath id="clip0_4253_40040">
<rect width="35" height="24" fill="white" transform="translate(6 12)"/>
</clipPath>
</defs>
</svg>
