<svg width="48" height="48" viewBox="0 0 48 48" fill="none" xmlns="http://www.w3.org/2000/svg">
<g clip-path="url(#clip0_4253_39483)">
<path d="M36.0885 26.4545H31.8135C31.5611 26.4545 31.4525 26.3674 31.4525 26.0921V21.2139C31.4525 21.0143 31.3843 21.0032 31.2507 21.0032H29.8248C29.681 21.0032 29.633 21.0032 29.633 21.2139V25.9234C29.633 27.4914 30.1377 28.0001 31.5081 28.0001H36.1086C36.2778 28.0001 36.2778 27.9382 36.2778 27.778V26.6849C36.2778 26.5276 36.2778 26.4545 36.0885 26.4545ZM28.2804 21.0032H23.6748C22.4129 21.0032 21.6559 21.45 21.6559 22.9224V26.0836C21.6559 27.556 22.4129 28.0001 23.6899 28.0001H28.2804C28.4622 28.0001 28.452 27.9382 28.452 27.7894V26.6962C28.452 26.5472 28.452 26.4855 28.2804 26.4855H23.7681C23.5663 26.4855 23.4628 26.4013 23.4628 26.1765V25.2182H28.1566C28.3384 25.2182 28.3282 25.1537 28.3282 25.0075V23.9284C28.3282 23.7711 28.3282 23.7177 28.1566 23.7177H23.4628V22.8269C23.4628 22.6049 23.5663 22.5206 23.7681 22.5206H28.2804C28.4622 22.5206 28.452 22.456 28.452 22.2986V21.2139C28.452 21.0677 28.4696 21.0032 28.2804 21.0032ZM20.4546 21.0032H15.8515C14.5896 21.0032 13.8149 21.45 13.8149 22.9224V26.0836C13.8149 27.556 14.5946 28.0001 15.8515 28.0001H20.4546C20.6338 28.0001 20.6338 27.9382 20.6338 27.7894V26.6962C20.6338 26.5472 20.6338 26.4855 20.4546 26.4855H15.95C15.7505 26.4855 15.6446 26.4013 15.6446 26.1765V25.2182H20.3284C20.5102 25.2182 20.5102 25.1537 20.5102 25.0075V23.9284C20.5102 23.7711 20.5102 23.7177 20.3284 23.7177H15.6446V22.8269C15.6446 22.6049 15.7505 22.5206 15.95 22.5206H20.4546C20.6338 22.5206 20.6338 22.456 20.6338 22.2986V21.2139C20.6464 21.0677 20.6464 21.0032 20.4546 21.0032ZM12.4548 21.0032H7.04665C5.7697 21.0032 5 21.4498 5 22.9224V26.0836C5 27.556 5.7697 28.0001 7.04665 28.0001H12.4548C12.6366 28.0001 12.6264 27.9382 12.6264 27.7894V23.9283C12.6264 23.7709 12.6264 23.7176 12.4548 23.7176H7.98792C7.80874 23.7176 7.81878 23.7709 7.81878 23.9283V25.013C7.81878 25.1591 7.81878 25.2237 7.98792 25.2237H10.8043V26.4853H7.12231C6.93049 26.4853 6.81951 26.4011 6.81951 26.1763V22.8268C6.81951 22.6047 6.93049 22.5205 7.12231 22.5205H12.4548C12.6366 22.5205 12.6264 22.4559 12.6264 22.2984V21.2139C12.6264 21.0677 12.6364 21.0032 12.4548 21.0032ZM42.8695 21.0032H41.2216C41.0202 20.9826 40.8218 21.0691 40.6866 21.2364L38.4154 24.0042L36.1567 21.2364C36.0171 21.0691 35.8159 20.983 35.6116 21.0032H33.9662C33.835 21.0032 33.7744 21.0791 33.9385 21.2673L37.5069 25.6368V27.8004C37.5069 27.9999 37.5649 27.9999 37.7088 27.9999H39.1346C39.2684 27.9999 39.3264 27.9999 39.3264 27.8004V25.6368L42.9049 21.2673C43.0588 21.0789 43.0108 21.0032 42.8695 21.0032Z" fill="#0070B2"/>
</g>
<defs>
<clipPath id="clip0_4253_39483">
<rect width="38" height="7" fill="white" transform="translate(5 21)"/>
</clipPath>
</defs>
</svg>
