<svg width="48" height="48" viewBox="0 0 48 48" fill="none" xmlns="http://www.w3.org/2000/svg">
<g clip-path="url(#clip0_4253_39486)">
<path d="M5 22.1992C5 20.8867 5.80524 20 7.32727 20H17.2078V21.8616H7.62413C7.35566 21.8616 7.1173 22.0015 7.1173 22.4122V25.5164C7.1173 25.8936 7.2733 26.137 7.76359 26.137H14.513C14.8683 26.137 15.1427 26.0093 15.1427 25.5346V24.8076H11.1914V23.0342H17.2076V25.8875C17.2076 27.2532 16.2284 28 14.6899 28H7.34381C5.85781 28 5.00156 27.1833 5.00156 25.8175L5 22.1992ZM26.022 28L29.3974 21.9331V28H31.5133V20H28.2593L25.0413 25.746L21.8233 20H18.5708V28H20.6867V21.9331L24.0621 28H26.022ZM43.9984 28H35.1513C33.6621 28 32.809 27.1833 32.809 25.8175V22.1992C32.809 20.8867 33.6113 20 35.1333 20H44V22.0106H35.4316C35.1631 22.0106 34.9232 22.1491 34.9232 22.5597V25.3672C34.9232 25.746 35.0806 25.9878 35.571 25.9878H44V28" fill="#CF4037"/>
</g>
<defs>
<clipPath id="clip0_4253_39486">
<rect width="39" height="8" fill="white" transform="translate(5 20)"/>
</clipPath>
</defs>
</svg>
