<svg width="48" height="48" viewBox="0 0 48 48" fill="none" xmlns="http://www.w3.org/2000/svg">
<path d="M24.2521 32.4651C28.5411 29.0904 30.5566 24.7229 31.4539 21.289C32.3718 17.7725 32.5114 14.3938 32.5083 14.273L32.5024 14.0827L32.3606 13.9665C28.8661 10.7341 24.354 9.00639 24.1412 8.93636L24.0281 8.89865L23.9155 8.93636C23.7027 9.00639 19.2997 10.7341 15.6961 13.9665L15.5538 14.0827L15.5484 14.273C15.5448 14.3938 15.6445 17.7824 16.5992 21.289C17.4826 24.5321 19.3576 29.2188 23.8046 32.4651L24.0281 32.6284L24.2521 32.4651Z" fill="#1A377A"/>
<path fill-rule="evenodd" clip-rule="evenodd" d="M24.0336 12.1116C23.2831 12.3558 18.9447 13.811 16.3018 15.7811C16.3098 17.1839 16.7771 26.2794 24.0336 31.9294C31.1218 26.2794 31.7462 17.1834 31.7543 15.7811C29.1113 13.811 24.7842 12.3558 24.0336 12.1116Z" fill="#CB9F18"/>
<path d="M23.854 9.50464L23.8652 9.93107C23.7076 9.8211 23.494 9.76274 23.248 9.76274C23.1326 9.76274 22.9827 9.79147 22.8552 9.8413L22.8777 10.1331C23.0101 10.0581 23.1335 10.0433 23.2592 10.0433C23.6201 10.0433 23.8764 10.3135 23.8764 10.6717C23.8764 11.0277 23.6215 11.3001 23.248 11.3001C23.1102 11.3001 22.949 11.2755 22.8664 11.2328L22.8552 11.5246C22.9832 11.5547 23.1151 11.5807 23.248 11.5807C23.4877 11.5807 23.704 11.5273 23.8652 11.4236L23.854 11.8051H24.0223H24.2019V11.4348C24.3585 11.5268 24.5596 11.5807 24.7854 11.5807C24.9183 11.5807 25.0502 11.5547 25.1782 11.5246L25.1669 11.2328C25.0843 11.2755 24.9232 11.3001 24.7854 11.3001C24.4124 11.3001 24.1906 11.0272 24.1906 10.6717C24.1906 10.3131 24.4137 10.0433 24.7742 10.0433C24.8999 10.0433 25.0228 10.0577 25.1557 10.1331L25.1782 9.8413C25.0507 9.79102 24.9007 9.76274 24.7854 9.76274C24.5542 9.76274 24.3558 9.82244 24.2019 9.91985V9.50464H24.0223H23.854Z" fill="#CB9F18"/>
<path d="M24.0225 12.1081V13.2528L26.6933 13.0956C25.4014 12.566 24.3578 12.2168 24.0225 12.1081ZM24.0225 13.2528V15.4635L28.2643 15.0707L31.7207 16.4061C31.7359 16.1314 31.7422 15.915 31.7431 15.7777C31.3486 15.4837 30.9158 15.2049 30.4638 14.936L28.2643 15.0595L24.0225 13.2528ZM24.0225 15.4635V15.4747V17.6854L28.2643 17.1243L31.5299 18.2689C31.6121 17.7034 31.6556 17.2042 31.687 16.7989L28.2643 17.1131L24.0225 15.4635ZM24.0225 17.6854V19.9073L28.2643 19.1891L31.1932 20.0981C31.2992 19.6263 31.3822 19.1797 31.4513 18.7627L28.2643 19.1667L24.0225 17.6854ZM24.0225 19.9073V22.118L28.2643 21.2427L30.7107 21.916C30.831 21.5242 30.9311 21.1422 31.0249 20.7714L28.2643 21.2315L24.0225 19.9073ZM24.0225 22.118V24.34L28.2643 23.2963L30.0711 23.7228C30.1896 23.427 30.2941 23.137 30.3965 22.8475L28.2643 23.2851L24.0225 22.118ZM24.0225 24.34V26.5507L28.2643 25.3612L29.2406 25.5519C29.3273 25.3823 29.4067 25.2157 29.4875 25.047L28.2643 25.3387L24.0225 24.34ZM24.0225 26.5507V26.5619V28.7726L28.1297 27.4597C28.1458 27.4354 28.1588 27.4058 28.1746 27.3811L24.0225 26.5507ZM24.0225 28.7726V30.9945L25.7843 30.3549C26.1506 29.9846 26.494 29.6071 26.8167 29.2215L24.0225 28.7726ZM24.0225 30.9945V31.926C24.3641 31.6598 24.6868 31.3869 24.9988 31.1068L24.0225 30.9945Z" fill="#CB9F18"/>
<path d="M24.0224 12.1081C23.6875 12.2168 22.6313 12.566 21.3403 13.0956L24.0224 13.2528V12.1081ZM24.0224 13.2528L19.7805 15.0595L17.581 14.936C17.1285 15.2054 16.6963 15.4832 16.3017 15.7777C16.3026 15.9155 16.2972 16.13 16.3129 16.4061L19.7805 15.0707L24.0224 15.4635V13.2528ZM24.0224 15.4635L19.7805 17.1131L16.3466 16.7989C16.378 17.2051 16.4323 17.702 16.5149 18.2689L19.7805 17.1243L24.0224 17.6854V15.4635ZM24.0224 17.6854L19.7805 19.1667L16.5823 18.7627C16.6518 19.1806 16.7457 19.6245 16.8516 20.0981L19.7805 19.1891L24.0224 19.9073V17.6854ZM24.0224 19.9073L19.7805 21.2315L17.0087 20.7602C17.1029 21.1319 17.2134 21.5228 17.3341 21.916L19.7805 21.2427L24.0224 22.118V19.9073ZM24.0224 22.118L19.7805 23.2851L17.6371 22.8475C17.7399 23.1383 17.8548 23.4256 17.9738 23.7228L19.7805 23.2963L24.0224 24.34V22.118ZM24.0224 24.34L19.7805 25.3387L18.5461 25.047C18.6273 25.2171 18.7054 25.3809 18.793 25.5519L19.7805 25.3612L24.0224 26.5507V24.34ZM24.0224 26.5619L19.859 27.3811C19.8739 27.4035 19.8891 27.426 19.9039 27.4484L24.0224 28.7726V26.5619ZM24.0224 28.7726L21.2169 29.2215C21.5378 29.6048 21.8853 29.9868 22.2493 30.3549L24.0224 30.9945V28.7726ZM24.0224 30.9945L23.0348 31.118C23.3464 31.3976 23.6812 31.6602 24.0224 31.926V30.9945Z" fill="#E3B80F"/>
<path d="M21.3516 13.0991C20.1801 13.5794 18.8069 14.2105 17.5811 14.9395L19.7806 15.0629L24.0224 13.2562L21.3516 13.0991ZM19.7806 15.0741L16.3242 16.4095C16.331 16.528 16.3354 16.6614 16.3467 16.8023L19.7806 17.1165L24.0224 15.4669L19.7806 15.0741ZM19.7806 17.1277L16.515 18.2724C16.5379 18.4299 16.5545 18.5983 16.5823 18.7661L19.7806 19.1701L24.0224 17.6888L19.7806 17.1277ZM19.7806 19.1926L16.8516 20.1015C16.9001 20.3184 16.9513 20.537 17.0088 20.7636L19.7806 21.235L24.0224 19.9108L19.7806 19.1926ZM19.7806 21.2462L17.3342 21.9195C17.4276 22.2247 17.5254 22.5353 17.6372 22.8509L19.7806 23.2886L24.0224 22.1215L19.7806 21.2462ZM19.7806 23.2998L17.9738 23.7262C18.1476 24.1598 18.3352 24.6092 18.5462 25.0504L19.7806 25.3422L24.0224 24.3434L19.7806 23.2998ZM19.7806 25.3646L18.793 25.5554C19.1059 26.1667 19.4637 26.7772 19.8591 27.3845L24.0224 26.5541L19.7806 25.3646ZM19.904 27.4519C20.2981 28.052 20.7322 28.6459 21.217 29.2249L24.0224 28.7761L19.904 27.4519ZM22.2494 30.3583C22.5034 30.6156 22.7584 30.8737 23.0349 31.1214L24.0224 30.998L22.2494 30.3583Z" fill="#DA442D"/>
<path d="M26.6933 13.0991L24.0225 13.2562L28.2643 15.0629L30.4638 14.9395C29.2384 14.2105 27.8648 13.5798 26.6933 13.0991ZM28.2643 15.0741L24.0225 15.4669L28.2643 17.1165L31.6982 16.8023C31.7095 16.6596 31.7144 16.5294 31.7207 16.4095L28.2643 15.0741ZM28.2643 17.1277L24.0225 17.6888L28.2643 19.1701L31.4513 18.7661C31.4792 18.5969 31.507 18.4313 31.5299 18.2724L28.2643 17.1277ZM28.2643 19.1926L24.0225 19.9108L28.2643 21.235L31.0249 20.7749C31.0828 20.5468 31.1443 20.3197 31.1932 20.1015L28.2643 19.1926ZM28.2643 21.2462L24.0225 22.1215L28.2643 23.2886L30.3965 22.8509C30.5083 22.5344 30.6164 22.2265 30.7107 21.9195L28.2643 21.2462ZM28.2643 23.2998L24.0225 24.3434L28.2643 25.3422L29.4875 25.0504C29.6994 24.6078 29.8973 24.1612 30.0711 23.7262L28.2643 23.2998ZM28.2643 25.3646L24.0225 26.5541L28.1746 27.3845C28.57 26.7772 28.9282 26.1667 29.2406 25.5554L28.2643 25.3646ZM28.1297 27.4631L24.0225 28.7761L26.8167 29.2249C27.3001 28.6472 27.7365 28.0615 28.1297 27.4631ZM25.7843 30.3583L24.0225 30.998L24.9988 31.1102C25.273 30.8642 25.532 30.6138 25.7843 30.3583Z" fill="#C83E29"/>
<path d="M22.3166 34.6115L22.2605 35.0603L23.3491 35.0491L23.3939 34.6115H22.3166ZM9.43392 34.6227L9.01871 37.9443H10.1072L10.2756 36.5641H10.2868L10.9601 37.9331H12.1608L11.2855 36.205L12.4638 34.6227H11.3304L10.3653 35.9469H10.3541L10.5112 34.6227H9.43392ZM30.7331 35.2399C30.2519 35.2408 29.9525 35.3876 29.8914 35.8795L29.7119 37.3159C29.645 37.8546 29.9529 37.9448 30.3403 37.9443H31.7318C32.1659 37.9435 32.4567 37.8034 32.5173 37.3159L32.5398 37.1139H31.4513C31.4095 37.3379 31.2201 37.4052 31.1034 37.4057C30.8188 37.4057 30.817 37.1844 30.834 37.0466L30.8565 36.8558H32.5734L32.6969 35.8683C32.7597 35.3638 32.4801 35.2394 32.046 35.2399H30.7331ZM33.8078 35.2399C33.4016 35.2403 33.1157 35.3853 33.056 35.8683L32.8877 37.2823C32.8266 37.7738 33.0739 37.9111 33.4712 37.9107H33.8303C34.0121 37.9102 34.2172 37.8873 34.3689 37.7536C34.4479 37.6845 34.4547 37.6575 34.5597 37.4506H34.5709L34.4812 38.1688H32.8428L32.7754 38.8309H34.7056C35.0279 38.8309 35.4992 38.7784 35.5697 38.2137L35.9288 35.2623H34.8403L34.7954 35.6439H34.7842C34.715 35.4109 34.5696 35.2394 34.2006 35.2399H33.8078ZM36.8153 35.2399C36.488 35.2749 36.2728 35.4457 36.2206 35.8683L36.041 37.2823C35.98 37.7738 36.2385 37.9111 36.6358 37.9107H36.9836C37.1654 37.9107 37.3701 37.8761 37.5223 37.7424C37.6008 37.6732 37.6192 37.6575 37.7243 37.4506L37.6457 38.1576L36.0073 38.1688L35.9288 38.8309L37.8702 38.8197C38.1925 38.8192 38.6638 38.7784 38.7343 38.2137L39.0934 35.2623H38.0048L37.9487 35.6326C37.8796 35.3997 37.7229 35.2394 37.354 35.2399H36.9724C36.9216 35.2399 36.8621 35.2349 36.8153 35.2399ZM20.8578 35.2511C20.5405 35.2511 20.4273 35.3247 20.3079 35.4194C20.2083 35.5101 20.1903 35.5406 20.1284 35.7H20.1172L20.162 35.2848H19.0735L18.7481 37.9331H19.8366L20.0498 36.1937C20.0624 36.09 20.1005 35.7902 20.4089 35.7897C20.7263 35.7893 20.6922 36.0479 20.6782 36.1601L20.465 37.9331L21.5536 37.9219L21.8004 35.8907C21.8655 35.3692 21.5886 35.2506 21.2057 35.2511H20.8578ZM24.3254 35.2511C23.9191 35.2515 23.6332 35.3965 23.5735 35.8795L23.4052 37.2935C23.3441 37.785 23.6027 37.9224 23.9999 37.9219H24.3478C24.5296 37.9219 24.7347 37.8986 24.8865 37.7648C24.9654 37.6957 24.9722 37.6687 25.0772 37.4618H25.0884L24.9987 38.18H23.3715L23.2929 38.8421H25.2343C25.5566 38.8421 26.0172 38.7896 26.0872 38.2249L26.4463 35.2735H25.3578L25.3129 35.6551H25.3017C25.2325 35.4221 25.0871 35.2506 24.7181 35.2511H24.3254ZM27.344 35.2511C27.0165 35.287 26.7903 35.4573 26.7381 35.8795L26.6932 36.2386C26.6124 36.8899 27.0051 36.9034 27.4338 36.9119L28.3428 36.9344L28.3316 37.0129C28.3217 37.0906 28.2777 37.394 27.9276 37.3945C27.8526 37.3945 27.7808 37.3815 27.7256 37.3384C27.6699 37.2993 27.634 37.2383 27.6358 37.1476H26.5585L26.5361 37.3047C26.462 37.904 26.8673 37.9448 27.2318 37.9443H28.5672C29.0246 37.9439 29.3173 37.7702 29.3752 37.3047L29.4201 36.9568C29.4951 36.3531 29.0587 36.3365 28.6907 36.3284L27.7705 36.3172L27.7929 36.1152C27.8338 35.7875 28.1242 35.7897 28.152 35.7897C28.1942 35.7897 28.2602 35.8028 28.3203 35.8459C28.3805 35.8889 28.4321 35.9567 28.4213 36.0815H29.5099L29.5323 35.8795C29.5911 35.4051 29.3532 35.2506 28.9376 35.2511H27.4899C27.4392 35.2512 27.3908 35.246 27.344 35.2511ZM13.5075 35.2623C13.1991 35.2628 12.7619 35.296 12.6883 35.8907L12.5087 37.3271C12.44 37.8788 12.7673 37.9672 13.1596 37.9668L14.5062 37.9556C14.9546 37.9551 15.2558 37.7967 15.3142 37.3271L15.4937 35.8907C15.5552 35.3952 15.3137 35.2619 14.8653 35.2623H13.5075ZM16.6833 35.2623C16.2025 35.2632 15.9027 35.3997 15.8416 35.8907L15.6621 37.3271C15.5952 37.8658 15.9031 37.956 16.2905 37.9556H17.682C18.1161 37.9547 18.4069 37.8142 18.4675 37.3271L18.49 37.1364H17.4015C17.3597 37.3608 17.1703 37.4165 17.0536 37.4169C16.769 37.4169 16.7672 37.1961 16.7843 37.0578L16.8067 36.8783H18.5236L18.6471 35.8907C18.7099 35.3862 18.4303 35.2619 17.9962 35.2623H16.6833ZM23.3154 35.2735L22.2269 35.2848L21.9014 37.9219H22.99L23.3154 35.2735ZM34.4699 35.7336C34.7828 35.7332 34.7518 36.016 34.7393 36.1152L34.627 37.0017C34.6185 37.0708 34.5808 37.3716 34.2679 37.372C34.0112 37.372 33.9807 37.1664 33.9986 37.0242L34.1221 36.0815C34.1418 35.9222 34.2271 35.7341 34.4699 35.7336ZM37.5447 35.7336C37.5704 35.7281 37.6042 35.7337 37.6345 35.7336C37.9474 35.7336 37.9052 36.016 37.8926 36.1152L37.7804 36.9905C37.7719 37.0596 37.7342 37.3716 37.4213 37.372C37.1645 37.3725 37.1452 37.1664 37.1632 37.0242L37.2754 36.0815C37.2927 35.9421 37.3648 35.7725 37.5447 35.7336ZM24.9874 35.7449C25.3003 35.7449 25.2693 36.0272 25.2568 36.1264L25.1446 37.0129C25.136 37.0821 25.0983 37.3828 24.7855 37.3833C24.5287 37.3837 24.4986 37.1777 24.5161 37.0354L24.6396 36.0927C24.6593 35.9329 24.7446 35.7453 24.9874 35.7449ZM31.2941 35.7785C31.4759 35.7785 31.6075 35.8858 31.5747 36.1488L31.5522 36.3284H30.9238L30.9463 36.104C30.971 35.9056 31.1164 35.779 31.2941 35.7785ZM14.1022 35.7897C14.4151 35.7893 14.3805 36.0645 14.3716 36.1376L14.2593 37.069C14.2432 37.2028 14.2131 37.4169 13.9002 37.4169C13.5874 37.4174 13.6143 37.2028 13.6309 37.069L13.7431 36.1376C13.7521 36.0645 13.7898 35.7897 14.1022 35.7897ZM17.2444 35.801C17.4261 35.801 17.5577 35.897 17.5249 36.1601L17.5025 36.3396H16.874L16.8965 36.1264C16.9212 35.9285 17.0666 35.8014 17.2444 35.801ZM32.45 38.1576L26.4912 38.1688C26.4912 38.1688 26.458 38.6195 26.2443 38.8309L32.3714 38.8197L32.45 38.1576ZM22.9563 38.1688L8.99627 38.1912L8.90649 38.8533L22.8777 38.8309L22.9563 38.1688Z" fill="#181A21" fill-opacity="0.941176"/>
<path d="M24.0225 9.50809V11.8086H24.202V11.4383C24.3587 11.5303 24.5598 11.5841 24.7855 11.5841C24.9184 11.5841 25.0504 11.5581 25.1783 11.528L25.1671 11.2363C25.0845 11.2789 24.9234 11.3036 24.7855 11.3036C24.4125 11.3036 24.1908 11.0307 24.1908 10.6752C24.1908 10.3165 24.4139 10.0467 24.7743 10.0467C24.9 10.0467 25.023 10.0611 25.1559 10.1365L25.1783 9.84474C25.0508 9.79447 24.9009 9.76619 24.7855 9.76619C24.5544 9.76619 24.356 9.82589 24.202 9.9233V9.50809H24.0225Z" fill="#CB9F18"/>
<path d="M23.854 9.50809L23.8652 9.93452C23.7076 9.82454 23.494 9.76619 23.248 9.76619C23.1326 9.76619 22.9827 9.79492 22.8552 9.84474L22.8777 10.1365C23.0101 10.0616 23.1335 10.0467 23.2592 10.0467C23.6201 10.0467 23.8764 10.317 23.8764 10.6752C23.8764 11.0311 23.6215 11.3036 23.248 11.3036C23.1102 11.3036 22.949 11.2789 22.8664 11.2363L22.8552 11.528C22.9832 11.5581 23.1151 11.5841 23.248 11.5841C23.4877 11.5841 23.704 11.5307 23.8652 11.427L23.854 11.8086H24.0223V9.50809H23.854Z" fill="#E3B80F"/>
</svg>
