<svg width="48" height="48" viewBox="0 0 48 48" fill="none" xmlns="http://www.w3.org/2000/svg">
<g clip-path="url(#clip0_4253_5163)">
<path fill-rule="evenodd" clip-rule="evenodd" d="M23.8611 27.4289C23.6723 27.1896 23.3595 27.0551 23.0518 27.0551C22.299 27.0551 21.8015 27.6415 21.8015 28.3848C21.8015 29.0719 22.2707 29.6589 23.0518 29.6589C23.4356 29.6589 23.7289 29.4928 23.928 29.2197L24.3113 29.5012C24.2115 29.6364 23.8092 30.0742 23.0425 30.0742C21.9764 30.0742 21.3188 29.2056 21.3188 28.3848C21.3188 27.3698 22.033 26.6398 23.0657 26.6398C23.5061 26.6398 23.9707 26.8017 24.2398 27.1474L23.8611 27.4289Z" fill="black"/>
<path fill-rule="evenodd" clip-rule="evenodd" d="M28.2962 29.6589C27.581 29.6589 27.1179 29.0719 27.1179 28.3567C27.1179 27.6415 27.581 27.0551 28.2962 27.0551C29.0114 27.0551 29.4745 27.6415 29.4745 28.3567C29.4745 29.0719 29.0114 29.6589 28.2962 29.6589ZM28.2962 30.0742C29.2496 30.0742 29.9247 29.3267 29.9247 28.3567C29.9247 27.3881 29.2496 26.6398 28.2962 26.6398C27.3423 26.6398 26.6677 27.3881 26.6677 28.3567C26.6677 29.3267 27.3423 30.0742 28.2962 30.0742Z" fill="black"/>
<path fill-rule="evenodd" clip-rule="evenodd" d="M8 26.8066H8.43181V29.6589H9.8943V30.0742H8V26.8066Z" fill="black"/>
<path fill-rule="evenodd" clip-rule="evenodd" d="M12.4723 26.8066H12.9041V30.0742H12.4723V26.8066Z" fill="black"/>
<path fill-rule="evenodd" clip-rule="evenodd" d="M15.8037 26.8066H16.3826L18.1741 29.4935H18.1839V26.8066H18.6249V30.0742H18.064L16.2539 27.3888H16.2447V30.0742H15.8037V26.8066" fill="black"/>
<path fill-rule="evenodd" clip-rule="evenodd" d="M32.7646 26.8066H33.1965V29.6589H34.6589V30.0742H32.7646V26.8066Z" fill="black"/>
<path fill-rule="evenodd" clip-rule="evenodd" d="M37.2376 26.8066H37.8037L39.5592 29.4935H39.5682V26.8066H40V30.0742H39.4506L37.6791 27.3888H37.6681V30.0742H37.2376V26.8066" fill="black"/>
<path fill-rule="evenodd" clip-rule="evenodd" d="M25.0502 21.5793C25.046 20.6478 24.9928 19.5963 24.8439 18.6284C24.8439 18.6284 24.5343 18.5921 24.1312 18.5863C24.1036 18.2074 24.0812 18 24.0812 18H23.9813C23.9813 18 23.9589 18.2074 23.9313 18.5863C23.5281 18.5921 23.2186 18.6284 23.2186 18.6284C23.0686 19.5963 23.0155 20.6478 23.0117 21.5793C22.6804 21.6172 22.4166 21.6546 22.4166 21.6546V21.7504C22.4166 21.7504 22.6804 21.7872 23.0117 21.8257C23.0155 22.7572 23.0686 23.8082 23.2186 24.7761C23.2186 24.7761 23.5281 24.8129 23.9313 24.8187C23.9589 25.1976 23.9813 25.4045 23.9813 25.4045H24.0812C24.0812 25.4045 24.1036 25.1976 24.1312 24.8187C24.5343 24.8129 24.8439 24.7761 24.8439 24.7761C24.9928 23.8082 25.046 22.7572 25.0502 21.8257C25.3815 21.7872 25.6459 21.7504 25.6459 21.7504V21.6546C25.6459 21.6546 25.3815 21.6172 25.0502 21.5793ZM24.621 18.9142C24.7513 19.821 24.7848 20.9594 24.7886 21.5509C24.5992 21.5315 24.4051 21.5151 24.2371 21.5072C24.2328 20.412 24.1924 19.5231 24.1536 18.9142H24.621ZM23.4409 18.9142H23.9084C23.8706 19.5231 23.8292 20.412 23.8254 21.5072C23.6574 21.5151 23.4622 21.5315 23.2739 21.5509C23.2776 20.9594 23.3101 19.821 23.4409 18.9142ZM23.4409 24.4908C23.3101 23.5835 23.2776 22.4456 23.2739 21.8541C23.4622 21.873 23.6574 21.8893 23.8254 21.8978C23.8291 22.993 23.8706 23.8814 23.9084 24.4908H23.4409H24.621H24.1536C24.1924 23.8814 24.2328 22.993 24.2371 21.8978C24.4051 21.8893 24.5992 21.873 24.7886 21.8541C24.7848 22.4456 24.7513 23.5835 24.621 24.4908H23.4409Z" fill="black"/>
</g>
<defs>
<clipPath id="clip0_4253_5163">
<rect width="32" height="12.0742" fill="white" transform="translate(8 18)"/>
</clipPath>
</defs>
</svg>
