<svg width="48" height="48" viewBox="0 0 48 48" fill="none" xmlns="http://www.w3.org/2000/svg">
<path d="M16.2742 22.4568H17.9162L18.5218 24.7627H18.5627C18.5918 24.5706 18.621 24.3667 18.6734 24.1808L19.1681 22.4568H20.7931L21.5149 26.8474H19.9719L19.7562 24.4425H19.7273C19.6983 24.588 19.6691 24.7393 19.6225 24.8791L18.9878 26.8475H18.0562L17.4856 24.9897C17.4389 24.8034 17.398 24.6287 17.3863 24.4425H17.3339C17.3224 24.6172 17.3108 24.7976 17.2933 24.972L17.1068 26.8474H15.5638L16.2742 22.4568Z" fill="#ACACAC"/>
<path d="M23.8765 25.2578L23.6902 24.4832C23.6437 24.2967 23.6144 24.1047 23.5852 23.9184H23.5272L23.2359 25.2578H23.8765ZM22.8224 26.8474H21.1339L22.6593 22.4568H24.4239L25.9904 26.8474H24.3015L24.1562 26.2998H22.9505L22.8224 26.8474Z" fill="#ACACAC"/>
<path d="M30.3279 24.2619C30.3159 24.9782 30.3159 25.5778 29.7978 26.1367C29.3318 26.6435 28.6159 26.9172 27.9346 26.9172C26.5954 26.9172 25.5125 26.0903 25.5125 24.6811C25.5125 23.2488 26.5661 22.3868 27.9463 22.3868C28.7091 22.3868 29.7574 22.7654 30.1007 23.5166L28.61 24.0641C28.4878 23.8428 28.2608 23.7263 28.0044 23.7263C27.4341 23.7263 27.1193 24.2154 27.1193 24.7451C27.1193 25.2282 27.4222 25.6826 27.9403 25.6826C28.1909 25.6826 28.5111 25.5661 28.5867 25.2984H27.8648V24.2619H30.3279Z" fill="#ACACAC"/>
<path d="M30.4471 22.4568H31.9788L33.4111 24.8909H33.4575C33.3937 24.524 33.3237 24.1455 33.3237 23.7729V22.4568H34.8491V26.8474H33.3237L31.9204 24.5416H31.8739C31.9261 24.8441 31.9728 25.1296 31.9728 25.421V26.8474H30.4471V22.4568H30.4471Z" fill="#ACACAC"/>
<path d="M37.432 25.2578L37.2455 24.4832C37.199 24.2967 37.1699 24.1047 37.1406 23.9184H37.0825L36.7913 25.2578H37.432ZM36.378 26.8474H34.6894L36.2148 22.4568H37.9792L39.5456 26.8474H37.857L37.7114 26.2998H36.5061L36.378 26.8474Z" fill="#ACACAC"/>
<path d="M13.1301 26.8517L14.7845 26.8519L13.1913 22.4687L11.9801 22.4684L11.7576 23.0785L13.1301 26.8517Z" fill="black"/>
<path d="M12.0081 20.6035C11.5642 20.6035 11.2044 20.9631 11.2044 21.4073C11.2044 21.8509 11.5642 22.2108 12.0081 22.2108C12.452 22.2108 12.8116 21.8509 12.8116 21.4072C12.8116 20.9631 12.452 20.6035 12.0081 20.6035Z" fill="#E22E2F"/>
<path d="M8.45447 26.8517L10.9207 26.8515L9.68726 23.4657L8.45447 26.8517Z" fill="black"/>
<path d="M11.2005 26.8517L12.8549 26.8519L11.2613 22.4687L10.0503 22.4684L9.828 23.0785L11.2005 26.8517Z" fill="black"/>
</svg>
