<svg width="48" height="48" viewBox="0 0 48 48" fill="none" xmlns="http://www.w3.org/2000/svg">
<path d="M23.7437 17.0666C19.6001 17.0674 15.869 18.4808 15.4428 20.3749C15.1593 21.6349 16.473 22.9276 18.481 23.6838C20.8299 21.5498 23.4865 19.2923 26.952 17.7416C23.7928 19.7745 21.4625 22.0079 19.5641 24.0505C20.2025 24.2172 20.8998 24.37 21.6391 24.4548C22.706 22.8077 23.8936 20.7581 27.402 17.7749C24.8534 20.8396 23.6645 22.6599 22.6354 24.5834C26.4285 24.923 30.8425 24.4473 31.8937 21.1166C32.3483 19.0962 29.0685 17.2961 24.577 17.0916C24.2963 17.0788 24.0199 17.0665 23.7437 17.0666ZM23.5937 17.3749C25.2752 17.3554 26.5937 17.5416 26.5937 17.5416C23.3334 18.7085 21.0363 19.9028 18.0104 21.6166C18.0397 21.6459 15.6228 21.2653 17.3604 19.2666C18.6719 17.758 21.4318 17.4 23.5937 17.3749ZM27.852 17.9333C27.852 17.9333 30.0587 18.2128 30.602 20.1666C31.2003 22.318 25.5331 23.1807 25.152 22.8583C26.2006 20.3237 26.5102 20.302 27.852 17.9333Z" fill="#FF0000"/>
<path d="M12.9823 27.7095C12.7009 27.7095 12.4634 27.7562 12.2642 27.8514C12.0651 27.9467 11.8666 28.1127 11.671 28.3381V27.7906H10.318C9.95665 27.7903 9.73752 28.0481 9.59991 28.4293C9.89743 28.4676 10.2836 28.3347 10.318 28.8856V31.4912H11.7751V29.6054C11.7751 29.3243 11.8239 29.1202 11.9312 28.9971C12.0385 28.8739 12.1805 28.8146 12.3475 28.8146C12.45 28.8146 12.5418 28.8489 12.6181 28.9058C12.6944 28.9628 12.7432 29.036 12.7742 29.1289C12.7933 29.187 12.8054 29.2907 12.8054 29.4533V31.4912H14.2625V29.5851C14.2625 29.3179 14.3136 29.128 14.4186 29.0072C14.5235 28.8864 14.6631 28.8247 14.8349 28.8247C14.9804 28.8247 15.1013 28.8896 15.1991 29.0174C15.2659 29.0987 15.3032 29.2151 15.3032 29.3824V31.4912H16.7603V29.1694C16.7603 28.6676 16.6458 28.3002 16.4168 28.0643C16.1878 27.8285 15.8672 27.7095 15.4593 27.7095C15.1826 27.7095 14.9504 27.7541 14.762 27.8413C14.5736 27.9284 14.3665 28.0964 14.1376 28.3381C14.0255 28.1313 13.8769 27.9763 13.7005 27.8717C13.524 27.7671 13.2852 27.7095 12.9823 27.7095ZM25.2528 27.75C24.9506 27.7291 24.6797 27.8778 24.6491 28.0846C24.6185 28.2914 24.8362 28.4794 25.1383 28.5003C25.4404 28.5212 25.7113 28.3624 25.7419 28.1556C25.7725 27.9488 25.5549 27.771 25.2528 27.75ZM21.069 27.7805C20.7656 27.8487 20.7964 27.9978 20.6943 28.115C20.8603 28.161 21.0623 28.1123 21.069 28.5206V31.4912H22.1305V30.2036C22.1305 29.9586 22.1652 29.7913 22.245 29.6967C22.3248 29.602 22.4289 29.5547 22.5572 29.5547C22.6734 29.5547 22.7636 29.586 22.8278 29.6561C22.892 29.7262 22.9319 29.842 22.9319 30.011V31.4912H23.9934V29.7879C23.9934 29.4347 23.9093 29.1678 23.7437 28.9971C23.578 28.8264 23.3551 28.7436 23.0672 28.7436C22.8729 28.7436 22.6994 28.7723 22.5572 28.8349C22.415 28.8974 22.2745 29.0039 22.1305 29.1492V27.7805H21.069ZM31.8095 27.7805C31.5576 27.7858 31.5285 27.9393 31.4452 28.0542C31.6377 28.0542 31.7453 28.1809 31.8095 28.3685V29.0681C31.7054 28.9599 31.5796 28.8788 31.4452 28.8247C31.3108 28.7707 31.1625 28.7436 30.9977 28.7436C30.6594 28.7436 30.3845 28.8619 30.1651 29.0985C29.9457 29.335 29.832 29.6764 29.832 30.1225C29.832 30.5213 29.9353 30.8575 30.1339 31.1363C30.3325 31.4152 30.6213 31.552 30.9977 31.552C31.185 31.552 31.355 31.5182 31.5076 31.4405C31.6221 31.3814 31.7436 31.2648 31.8823 31.0958V31.4912H32.8814V27.7805H31.8095ZM18.8938 28.7436C18.696 28.7436 18.5122 28.7555 18.3422 28.7842C18.1722 28.8129 18.0334 28.8535 17.9363 28.9058C17.801 28.9785 17.6961 29.0706 17.6241 29.1694C17.5521 29.2683 17.5061 29.4026 17.468 29.575L18.4775 29.6764C18.5191 29.5598 18.5764 29.4753 18.644 29.4331C18.7307 29.379 18.8556 29.3519 19.0291 29.3519C19.1644 29.3519 19.2563 29.3824 19.3101 29.4331C19.3639 29.4838 19.3933 29.5699 19.3933 29.6967C19.2615 29.7474 19.1366 29.7871 19.0187 29.8183C18.9007 29.8496 18.6457 29.9028 18.2485 29.9805C17.9172 30.0447 17.6848 30.1428 17.5616 30.2746C17.4385 30.4064 17.3847 30.577 17.3847 30.7815C17.3847 30.9995 17.4636 31.1803 17.6345 31.329C17.8053 31.4777 18.0542 31.552 18.3838 31.552C18.6319 31.552 18.8521 31.5149 19.0395 31.4405C19.1765 31.3847 19.317 31.2969 19.4558 31.1668C19.4679 31.2445 19.4749 31.3028 19.487 31.3391C19.4991 31.3755 19.5304 31.4219 19.5703 31.4912H20.559C20.5035 31.3797 20.4714 31.2893 20.4549 31.2175C20.4384 31.1456 20.4341 31.0502 20.4341 30.9234V29.7372C20.4341 29.6105 20.4029 29.4711 20.3508 29.3317C20.2988 29.1923 20.2329 29.0833 20.1427 29.0072C20.0143 28.8974 19.8461 28.829 19.6535 28.7943C19.461 28.7597 19.2112 28.7436 18.8938 28.7436ZM28.3958 28.7436C28.179 28.7436 27.9951 28.7783 27.8442 28.8551C27.6933 28.932 27.5441 29.0613 27.3967 29.2404V28.8044H26.408C26.2014 28.8099 26.1682 28.9619 26.1166 29.0579C26.2633 29.0745 26.3888 29.1281 26.408 29.3621V31.4912H27.4695V30.2036C27.4695 29.9586 27.5042 29.7913 27.584 29.6967C27.6638 29.602 27.7679 29.5547 27.8963 29.5547C28.0125 29.5547 28.1027 29.586 28.1668 29.6561C28.231 29.7262 28.2709 29.842 28.2709 30.011V31.4912H29.3325V29.7879C29.3325 29.4331 29.2484 29.1669 29.0827 28.9971C28.9171 28.8273 28.689 28.7436 28.3958 28.7436ZM35.2023 28.7436C35.0531 28.7436 34.9291 28.7833 34.8276 28.8551C34.7262 28.927 34.6212 29.0495 34.5258 29.2404V28.8044H33.5371C33.297 28.805 33.3238 28.9484 33.2977 29.0681C33.3994 29.1141 33.5264 29.0993 33.5371 29.3519V31.4912H34.5987V30.5889C34.5987 30.158 34.6559 29.864 34.7652 29.7068C34.8415 29.5953 34.949 29.5446 35.0878 29.5446C35.1607 29.5446 35.2647 29.5649 35.3896 29.6155L35.7123 28.8856C35.5267 28.7909 35.3584 28.7436 35.2023 28.7436ZM37.2734 28.7436C37.0756 28.7436 36.8918 28.7555 36.7218 28.7842C36.5518 28.8129 36.413 28.8535 36.3159 28.9058C36.1806 28.9785 36.0757 29.0706 36.0037 29.1694C35.9317 29.2683 35.8857 29.4026 35.8476 29.575L36.8571 29.6764C36.8987 29.5598 36.956 29.4753 37.0236 29.4331C37.1103 29.379 37.2352 29.3519 37.4087 29.3519C37.544 29.3519 37.6359 29.3824 37.6897 29.4331C37.7435 29.4838 37.7729 29.5699 37.7729 29.6967C37.6411 29.7474 37.5162 29.7871 37.3983 29.8183C37.2803 29.8496 37.0253 29.9028 36.6281 29.9805C36.2968 30.0447 36.0644 30.1428 35.9412 30.2746C35.8181 30.4064 35.7643 30.577 35.7643 30.7815C35.7643 30.9995 35.8432 31.1803 36.0141 31.329C36.1849 31.4777 36.4338 31.552 36.7634 31.552C37.0115 31.552 37.2318 31.5149 37.4191 31.4405C37.5561 31.3847 37.6966 31.2969 37.8354 31.1668C37.8475 31.2445 37.8545 31.3028 37.8666 31.3391C37.8788 31.3755 37.91 31.4219 37.9499 31.4912H38.9386C38.8831 31.3797 38.851 31.2893 38.8345 31.2175C38.818 31.1456 38.8137 31.0502 38.8137 30.9234V29.7372C38.8137 29.6105 38.7825 29.4711 38.7304 29.3317C38.6784 29.1923 38.6125 29.0833 38.5223 29.0072C38.3939 28.8974 38.2257 28.829 38.0331 28.7943C37.8406 28.7597 37.5908 28.7436 37.2734 28.7436ZM24.6699 28.8044V31.4912H25.7315V28.8044H24.6699ZM31.3307 29.5142C31.4712 29.5142 31.5822 29.5623 31.6742 29.6662C31.7661 29.7702 31.8199 29.9315 31.8199 30.1428C31.8199 30.3759 31.7748 30.5466 31.6846 30.6497C31.5944 30.7528 31.4764 30.8018 31.3411 30.8018C31.2145 30.8018 31.1043 30.7519 31.0185 30.6497C30.9326 30.5475 30.8936 30.3827 30.8936 30.163C30.8936 29.9282 30.9352 29.7659 31.0185 29.6662C31.1018 29.5666 31.2076 29.5142 31.3307 29.5142ZM19.3933 30.2137V30.3861C19.3933 30.5145 19.3734 30.6201 19.3309 30.7004C19.2884 30.7807 19.2138 30.8474 19.1123 30.9032C19.0109 30.9589 18.9077 30.9843 18.7897 30.9843C18.677 30.9843 18.5876 30.9547 18.5295 30.9032C18.4714 30.8516 18.4463 30.7916 18.4463 30.7105C18.4463 30.6396 18.4705 30.5737 18.5295 30.5179C18.5868 30.4638 18.7203 30.4114 18.9354 30.3557C19.0933 30.3168 19.2476 30.2644 19.3933 30.2137ZM37.7729 30.2137V30.3861C37.7729 30.5145 37.753 30.6201 37.7105 30.7004C37.668 30.7807 37.5934 30.8474 37.4919 30.9032C37.3905 30.9589 37.2873 30.9843 37.1693 30.9843C37.0566 30.9843 36.9672 30.9547 36.9091 30.9032C36.851 30.8516 36.8259 30.7916 36.8259 30.7105C36.8259 30.6396 36.8501 30.5737 36.9091 30.5179C36.9664 30.4638 37.0999 30.4114 37.315 30.3557C37.4729 30.3168 37.6272 30.2644 37.7729 30.2137Z" fill="#666666"/>
</svg>
