<svg width="48" height="48" viewBox="0 0 48 48" fill="none" xmlns="http://www.w3.org/2000/svg">
<path fill-rule="evenodd" clip-rule="evenodd" d="M14.7982 16.3582C12.3112 18.8335 11.1035 21.804 11.1035 25.3402C11.1035 28.8764 12.3116 31.776 14.7982 34.2515C17.2852 36.7267 20.3407 37.9998 23.8224 37.9998C27.3041 37.9998 30.3594 36.7265 32.8464 34.2515C35.3336 31.7762 36.5414 28.8057 36.5414 25.3402C36.5414 21.8747 35.3338 18.8337 32.8464 16.3582C30.3596 13.8828 27.3752 12.6097 23.8224 12.6097C20.3407 12.6099 17.2852 13.883 14.7982 16.3582ZM32.2781 16.924C34.6228 19.2578 35.7594 22.0869 35.7594 25.3402C35.7594 28.5935 34.623 31.3517 32.2781 33.6855C29.9328 36.0192 27.091 37.2218 23.8222 37.2218C20.5534 37.2218 17.7114 36.0192 15.3665 33.6855C13.0214 31.3514 11.8848 28.5935 11.8848 25.3402C11.8848 22.0869 13.0218 19.2578 15.3665 16.924C17.7112 14.5903 20.5536 13.4586 23.8222 13.4586C27.0908 13.4586 29.933 14.5903 32.2781 16.924Z" fill="#CC2A2D"/>
<path fill-rule="evenodd" clip-rule="evenodd" d="M17.7114 19.1872C16.0059 20.8846 15.1534 22.9355 15.1534 25.3402C15.1534 27.7448 16.0061 29.725 17.7114 31.4224C19.4168 33.12 21.4771 33.9685 23.8222 33.9685C26.1673 33.9685 28.2985 33.1198 30.0038 31.4224C31.7096 29.725 32.562 27.6741 32.562 25.3402C32.562 23.0062 31.7094 20.8844 30.0038 19.1872C28.2985 17.4899 26.2383 16.6412 23.8222 16.6412C21.4775 16.641 19.417 17.4899 17.7114 19.1872ZM23.8224 16.9949C25.3144 16.9949 26.7356 17.3486 28.086 18.126C29.3647 18.904 30.3598 19.8943 31.0702 21.2382H21.0511C20.6248 21.2382 20.2696 21.3798 20.0565 21.6624L19.8434 21.9452L16.1482 28.381C15.7219 27.3202 15.5086 26.2594 15.5086 25.3398C15.5086 23.0766 16.2902 21.0962 17.9245 19.399C19.5587 17.7729 21.5485 16.9947 23.8224 16.9947V16.9949ZM22.6854 23.2184L18.0668 31.2812L17.4271 30.5737L22.0458 22.5818L22.2589 22.299C22.5431 22.0868 22.8981 21.9452 23.2537 21.9452H31.4248L31.7094 22.5818H23.8931C23.5377 22.5818 23.1823 22.7234 22.8979 23.0061L22.685 23.2182L22.6854 23.2184ZM25.0305 23.7135C25.3146 23.3596 25.67 23.2184 26.0961 23.2184H31.9227L32.0646 23.9258H26.7356C26.3096 23.9258 25.954 24.0671 25.7411 24.3501L25.5276 24.6329L20.6248 32.9784L19.8434 32.5541L24.8886 23.9258L25.0305 23.7137V23.7135ZM32.1358 24.5622V25.3402C32.1358 27.6034 31.3546 29.5129 29.7201 31.1396C28.086 32.7663 26.1671 33.615 23.8226 33.615L22.8987 33.5441L27.7309 25.2693L27.8724 25.0572C28.157 24.7034 28.512 24.5622 28.8676 24.5622H32.136H32.1358Z" fill="#CC2A2D"/>
</svg>
