<svg width="48" height="48" viewBox="0 0 48 48" fill="none" xmlns="http://www.w3.org/2000/svg">
<g clip-path="url(#clip0_4253_5228)">
<path d="M39.1941 27.3854H9.44824L9.72912 26.6849H39.4762L39.1941 27.3854Z" fill="#D6001C"/>
<path d="M30.3223 25.4611C30.275 25.6258 30.1194 25.7263 29.975 25.6853C29.8303 25.6444 29.7515 25.4776 29.7987 25.3129C29.8461 25.1482 30.0016 25.0478 30.1461 25.0888C30.2906 25.1297 30.3695 25.2964 30.3223 25.4611ZM30.7554 23.1874C30.7554 23.1874 30.7248 24.0678 30.1442 24.5687L30.7554 23.1874ZM18.3264 25.3695C18.2386 25.5702 18.0198 25.6763 17.8561 25.6056C17.6923 25.5349 17.6452 25.3165 17.733 25.1158C17.8209 24.9151 18.0293 24.8123 18.193 24.883C18.3568 24.9537 18.4141 25.1688 18.3264 25.3695ZM14.117 22.1856C14.117 22.1856 14.331 22.9901 13.4294 23.9464L14.117 22.1856ZM38.6403 25.5317C38.5027 25.5317 38.5498 25.3753 38.5498 25.3753L39.0005 24.3252L37.6831 24.3271L37.4436 24.8844H38.1161L37.8372 25.5317H34.9319C34.7842 25.5376 34.8195 25.4187 34.8195 25.4187L35.2214 24.3261L34.5973 24.3271L34.1548 25.5097C34.1386 25.5474 34.0817 25.6119 33.9772 25.5884C33.8631 25.5533 33.9256 25.3959 33.9256 25.3959L34.2844 24.3271L33.6587 24.3267L33.2529 25.5317L30.7172 25.5325C30.8776 24.9633 30.4193 24.7356 30.4193 24.7356C31.9776 23.233 30.698 22.0589 30.698 22.0589L29.2079 25.5317C29.2079 25.5317 26.6255 25.5337 26.3597 25.5317C26.094 25.5298 26.1805 25.3968 26.2298 25.3538C26.4523 25.1526 27.3711 24.3259 27.3711 24.3259H26.5691L25.7337 25.0291L26.7295 22.7094H25.9503L24.8795 25.5298C24.8795 25.5298 22.232 25.5308 21.7532 25.531C21.7019 25.531 21.655 25.5002 21.6372 25.4523C21.6002 25.3522 21.6063 25.2264 21.6637 25.1094C21.7618 24.9086 21.973 24.8094 22.1355 24.8878C22.2292 24.933 22.286 25.0275 22.2986 25.1379H22.8137C22.8203 24.7929 22.6682 24.4845 22.3864 24.3486C21.9664 24.146 21.4202 24.4024 21.1665 24.9213C21.0675 25.124 21.0285 25.3365 21.0417 25.5325H18.8475C19.0287 25.0308 18.8726 24.5147 18.4655 24.339C18.0358 24.1534 17.489 24.4231 17.2587 24.9494C17.1734 25.1445 17.1367 25.3459 17.1462 25.5317H17.1458H15.0601C14.6936 25.509 14.8123 25.1455 14.8123 25.1455L16.1185 22.1174H15.156L14.1934 24.4851C13.8867 25.1095 13.6058 25.2796 13.5475 25.303C13.0736 25.493 13.1621 24.9178 13.1621 24.9178C15.6602 22.4361 14.033 20.0456 14.033 20.0456L12.3142 24.7812C9.88489 25.8284 8.71607 24.4397 8.71607 24.4397L8.07434 25.7146C10.2517 26.9897 12.1996 25.6008 12.1996 25.6008C12.3554 26.0653 12.5715 26.2671 12.7984 26.3209C13.4653 26.4438 13.9413 25.7374 13.9413 25.7374C14.0868 26.1868 14.4672 26.2271 14.52 26.2278C14.5728 26.2286 16.5139 26.2278 16.5139 26.2278C17.018 26.2278 17.2408 25.9164 17.2464 25.9165C17.3198 26.0571 17.4315 26.1698 17.5813 26.2345C17.9174 26.3797 18.3412 26.2399 18.6204 25.9206C18.7246 26.2112 18.9816 26.2278 18.9816 26.2278C18.9816 26.2278 20.2592 26.2296 20.5628 26.2278C20.8585 26.2263 21.1376 25.9383 21.1521 25.9232C21.2247 26.0549 21.34 26.2191 21.5431 26.2278C21.5429 26.2278 23.9656 26.2273 24.1414 26.2278C24.3907 26.2286 24.7397 25.9188 24.7397 25.9188L24.6118 26.2278H25.22L25.4346 25.7292C25.5821 26.1653 25.9302 26.2271 25.9738 26.2278C26.0175 26.2286 28.635 26.2278 28.635 26.2278C29.0169 26.2337 29.2749 25.915 29.2749 25.915C29.418 26.1782 29.5754 26.2689 29.7422 26.2868C30.1781 26.3332 30.4651 26.0107 30.4651 26.0107C30.511 26.1928 30.6778 26.228 30.7177 26.2278C30.7576 26.2276 32.6173 26.2278 32.6173 26.2278C33.0207 26.1887 33.2411 25.9248 33.2411 25.9248C33.3323 26.2054 33.5454 26.274 33.692 26.2897C34.1045 26.3172 34.3154 25.9195 34.3154 25.9195C34.4596 26.1908 34.6933 26.228 34.7508 26.2278C34.8084 26.2276 37.2921 26.2278 37.2921 26.2278C37.6358 26.2052 37.7959 25.9169 37.7959 25.9169C37.8757 26.1738 38.0284 26.228 38.1031 26.2278C38.1775 26.2276 39.6757 26.2278 39.6757 26.2278L39.9754 25.5312L38.6403 25.5317Z" fill="#D6001C"/>
</g>
<defs>
<clipPath id="clip0_4253_5228">
<rect width="32" height="7.39066" fill="white" transform="translate(8 20)"/>
</clipPath>
</defs>
</svg>
