<svg width="48" height="48" viewBox="0 0 48 48" fill="none" xmlns="http://www.w3.org/2000/svg">
<g clip-path="url(#clip0_4253_5233)">
<path d="M19.14 22.5569V26.3105H16.5146C15.7646 26.3105 15.2545 25.9106 15.2545 25.0687V22.5569H16.5069V25.029C16.5069 25.1134 16.5358 25.1656 16.6619 25.1656H17.8877V22.5569H19.14Z" fill="#2056AE"/>
<path d="M13.624 22.5571C14.3741 22.5571 14.8841 22.8603 14.8841 23.7022V26.3106H13.6318V23.8495C13.6318 23.765 13.6028 23.7128 13.4767 23.7128H12.4631V26.3106H11.2011V23.8722C11.2011 23.7878 11.1726 23.7128 11.0466 23.7128H10.033V26.3106H8.78064V22.5539L11.1939 22.5571H13.624Z" fill="#2056AE"/>
<path d="M23.8375 26.3106L22.4804 26.3105C21.7302 26.3105 21.2203 25.9106 21.2203 25.0687V21.4059H22.4727V22.5539H23.8375V23.6988H22.4727V25.0383C22.4727 25.1229 22.4989 25.1656 22.6249 25.1656H23.8375V26.3106Z" fill="#2056AE"/>
<path d="M19.5833 26.3106H20.8355V21.4059H19.5833V26.3106Z" fill="#2056AE"/>
<path d="M24.1251 26.3106H25.3774V22.5539H24.1251V26.3106Z" fill="#2056AE"/>
<path d="M24.1251 22.032H25.3774V21.1972H24.1251V22.032Z" fill="#2056AE"/>
<path d="M28.79 26.3106L26.9909 26.3105C26.241 26.3105 25.731 25.9106 25.731 25.0687V23.7958C25.731 22.9539 26.241 22.5539 26.9909 22.5539H28.79V23.6989H27.1355C27.0095 23.6989 26.9833 23.7416 26.9833 23.826V25.0384C26.9833 25.123 27.0095 25.1657 27.1355 25.1657H28.79V26.3106Z" fill="#2056AE"/>
<path d="M31.7029 26.3106L30.3459 26.3105C29.5957 26.3105 29.0858 25.9106 29.0858 25.0687V23.7958C29.0858 22.9539 29.5957 22.5539 30.3459 22.5539H33.2234V26.3106H31.9711V23.6989H30.4904C30.3644 23.6989 30.3382 23.7416 30.3382 23.826V25.0384C30.3382 25.123 30.3644 25.1657 30.4904 25.1657H31.7029V26.3106Z" fill="#2056AE"/>
<path d="M35.7348 22.5539H34.5987C33.9439 22.5539 33.5593 22.8816 33.5593 23.5749V26.3106H34.8117V23.826C34.8117 23.7416 34.838 23.6989 34.964 23.6989H35.7348V22.5539Z" fill="#2056AE"/>
<path d="M8.78067 26.8971L8.22632 27.7716H36.1873L39.7736 22.5539H38.521L35.5337 26.8971H8.78067Z" fill="#F46717"/>
</g>
<defs>
<clipPath id="clip0_4253_5233">
<rect width="32" height="6.96875" fill="white" transform="translate(8 21)"/>
</clipPath>
</defs>
</svg>
