<svg width="48" height="48" viewBox="0 0 48 48" fill="none" xmlns="http://www.w3.org/2000/svg">
<g clip-path="url(#clip0_4253_3832)">
<path d="M25.2803 8.78124C25.2779 8.78007 25.2748 8.78007 25.2701 8.78124C24.4231 8.77737 23.5643 9.75328 23.7274 11.2084C23.8294 12.0992 23.966 12.5054 24.2319 13.081C24.3639 13.3653 25.8105 16.1023 25.877 16.3916C25.9674 16.8059 25.8868 17.065 25.5668 17.3548C25.2137 17.6727 24.6282 18.0332 24.2331 18.1686C24.1397 18.2003 24.0536 18.2162 23.9758 18.2162C23.8862 18.2162 23.6628 18.186 23.2396 17.6677L25.109 20.1463C24.8703 19.8295 24.7469 19.5897 24.7905 19.3797C24.833 19.1731 25.1732 18.9472 25.5648 18.6409C25.9572 18.3376 26.3913 17.9551 26.5906 17.4375C26.649 17.2902 26.6739 17.1374 26.6739 16.9776C26.6739 16.4837 26.4329 15.924 26.1437 15.3171C25.77 14.5299 24.71 12.8125 24.388 11.6088C24.3086 11.3133 24.274 11.0475 24.274 10.8116C24.274 10.1292 24.5659 9.69641 24.9237 9.54943C25.0954 9.48058 25.2487 9.45698 25.3768 9.45698C25.573 9.45698 25.7093 9.51114 25.7661 9.54092C25.8665 9.59739 25.8809 9.71614 25.8809 9.80975V9.83025C25.8809 9.85191 25.8774 9.90258 25.8774 9.97723C25.8774 10.2581 25.9156 10.875 26.2449 11.4738C26.6599 12.2342 27.3583 12.6589 27.6327 12.7734C27.6557 12.7835 26.9908 10.3323 26.8713 9.87009C26.7339 9.33127 26.3508 8.79168 25.2807 8.78085L25.2803 8.78124Z" fill="url(#paint0_linear_4253_3832)"/>
<path d="M13.6379 14.2267C13.801 14.3891 13.5168 14.3799 12.6549 14.4541C11.7775 14.5299 10.8934 14.7055 10.4313 14.8781C10.093 15.0049 9.88826 15.0947 9.75318 15.403C9.75318 15.403 9.47211 16.0098 9.43474 16.2497C9.41722 16.363 9.42228 16.4284 9.48184 16.5239C9.51493 16.5746 9.5959 14.9419 11.7167 14.8343C13.5931 14.7392 14.0552 14.5435 13.6885 14.1872L13.6379 14.2267Z" fill="url(#paint1_linear_4253_3832)"/>
<path d="M24.3818 10.875C24.3818 10.875 24.4223 10.448 24.4986 10.2472C24.6874 9.70375 25.0369 9.59042 25.2783 9.59042C25.4399 9.59042 25.513 9.62871 25.5819 9.70066C25.6349 9.75868 25.6699 9.81167 25.6773 9.89367C25.6836 10.1366 25.6933 10.4155 25.9304 11.0444C25.9444 11.0827 25.9596 11.1206 25.9755 11.1574C25.7746 10.6491 25.7501 10.1776 25.7501 9.937C25.7493 9.85964 25.7528 9.77028 25.7528 9.77028C25.7536 9.58539 25.5496 9.53201 25.3667 9.53201C25.2514 9.53201 25.114 9.55213 24.9583 9.61634C24.6621 9.73547 24.3911 10.1041 24.3787 10.7315L24.3818 10.875Z" fill="url(#paint2_linear_4253_3832)"/>
<path d="M13.7118 14.2978C13.7753 14.4703 13.5218 14.4297 12.66 14.504C11.7825 14.5798 10.898 14.7488 10.4356 14.9214C10.0973 15.0482 9.89291 15.1376 9.75744 15.4463C9.75744 15.4463 9.47598 16.0535 9.43783 16.2934C9.42031 16.4063 9.44834 16.4728 9.50829 16.5668C9.59822 16.708 9.65583 16.7386 9.78741 16.6639C9.89408 16.6032 10.3628 16.339 10.6703 16.3332C10.9506 16.327 11.074 16.4968 11.1149 16.6423C11.1398 16.7324 11.2636 16.6856 11.285 16.6802C11.4076 16.6492 11.5275 16.6129 11.9663 16.5811C12.4871 16.5432 14.5196 16.5603 15.2658 16.5777C15.937 16.5931 18.5802 18.6536 18.6192 18.6633L18.7527 18.3976C17.855 17.6599 14.5188 15.032 13.713 14.2483L13.7122 14.2978H13.7118Z" fill="url(#paint3_linear_4253_3832)"/>
<path d="M21.3274 15.9255C21.7299 16.4055 22.927 17.851 23.9532 19.1569C25.5524 21.1926 26.54 22.7866 27.5782 25.1353C27.6817 25.3693 27.6027 25.3953 27.4377 25.5272C27.1192 25.7836 27.1866 25.8877 26.9499 26.2938C26.923 26.3402 26.8619 26.416 26.7868 26.4091C26.5676 26.3917 24.8672 26.2489 23.7496 26.288C23.0854 26.3104 22.9138 26.3592 22.7674 26.3928C22.649 26.4218 22.6082 26.4098 22.6109 26.2559C22.6132 26.1971 22.7382 25.5024 22.8344 25.2471C22.9297 24.9934 23.0788 24.8936 23.3027 24.8325C23.5246 24.7713 24.1556 24.6553 24.4102 24.5923C24.6667 24.5292 24.6776 24.2875 24.6543 24.1049C24.6297 23.9223 24.4841 23.6775 24.3171 23.6473C24.096 23.609 23.9446 23.5769 23.697 23.4701C23.4557 23.3618 19.9824 20.583 19.6652 20.327C19.5846 20.2608 19.5219 20.2129 19.4966 20.2422C19.4709 20.2713 19.5375 20.3544 19.5678 20.3873C19.6274 20.4488 20.1514 20.9868 20.2666 21.0963C20.3499 21.1768 20.3055 21.2162 20.2647 21.2561C20.2032 21.3122 18.5604 22.9216 17.8787 23.6237C17.199 24.3234 16.7085 24.7342 16.7148 25.2935C16.721 25.8536 16.7455 26.2919 16.7471 26.3886C16.7479 26.4729 16.6599 26.4713 16.5871 26.4648C16.3757 26.4458 14.7446 26.2861 13.8301 26.2663C12.9161 26.2489 12.252 26.3352 11.8218 26.4427C11.7206 26.4679 11.6895 26.4079 11.6957 26.3213C11.705 26.1805 11.8059 25.6037 11.93 25.2282C12.0165 24.969 12.2053 24.8673 12.4303 24.8131C12.7281 24.7404 13.8994 24.5311 14.4265 24.4507C14.7138 24.4047 14.7734 24.3087 14.7703 24.0681C14.766 23.8225 14.7376 23.3011 14.7251 23.0388C14.7123 22.7778 14.796 22.4888 14.8933 22.2587C15.3094 21.2897 16.3305 19.2455 17.2177 18.0278C17.3197 17.8866 17.4229 17.8626 17.5214 17.887C17.6378 17.9156 18.1703 18.3314 18.2143 18.3527C18.3081 18.3999 18.4319 18.3577 18.3743 18.3005C18.0644 17.9918 17.1255 17.4248 16.5536 16.9722C15.4227 16.0756 14.2432 14.7732 13.2937 13.9029C12.804 13.4546 12.2788 13.1247 11.8884 13.0396C11.7498 13.009 11.6202 13.009 11.4999 12.9924C11.4415 12.9839 11.4321 12.9332 11.4314 12.9065C11.4275 12.8469 11.4356 12.7313 11.3157 12.592C11.2254 12.4899 11.0292 12.4555 10.893 12.4536C10.7014 12.4474 10.3853 12.4888 10.2067 12.5371C10.1199 12.5607 10.0774 12.5429 10.0455 12.5054C10.0163 12.4706 9.96609 12.3572 9.94818 12.2509C9.93728 12.1754 9.95947 12.1174 10.0038 12.0343C10.1195 11.8149 10.4177 11.5991 10.5889 11.4405C10.7637 11.2792 10.8762 11.2711 11.0421 11.2498C11.4411 11.2022 11.9713 11.1694 12.5093 11.2912C12.9021 11.3794 13.2135 11.5337 13.5989 11.7229C13.9831 11.9128 16.2145 13.0477 16.501 13.1827L21.3274 15.9259V15.9255Z" fill="url(#paint4_linear_4253_3832)"/>
<path d="M17.6195 11.8892C17.6635 12.165 17.4848 12.3456 17.377 12.5158C17.2711 12.6825 17.0527 12.9316 16.9406 13.0709C16.7989 13.2504 16.5264 13.1962 16.5264 13.1962C16.5264 13.1962 17.8118 13.8449 18.5514 14.2143C18.8442 14.362 19.3043 14.2247 19.6173 13.6441C19.6901 13.5091 20.1518 12.5371 20.2678 12.2474C20.3838 11.9588 20.5481 11.6382 20.2838 11.087C20.0187 10.5369 19.1973 9.5208 18.8706 9.1309C18.6994 8.92744 18.4981 8.80289 18.064 8.77929C17.6362 8.75609 17.1056 8.81913 16.4228 9.00171C15.7283 9.18737 14.8404 9.54671 14.8081 9.56528C14.7898 9.57727 14.7921 9.59468 14.8022 9.61518C14.8104 9.63413 14.9034 9.79388 14.9034 9.79388C14.9034 9.79388 14.9505 9.9018 15.0841 9.97684C15.2164 10.0515 15.3472 10.0828 15.3815 10.0902C15.4157 10.0975 15.4313 10.0828 15.4434 10.065C15.4539 10.0499 15.5851 9.80084 16.0654 9.67668C16.3255 9.61131 16.4913 9.60357 16.5704 9.60357C16.6957 9.60667 16.89 9.66817 16.9982 9.77222C17.1741 9.94435 17.3279 10.2294 17.3544 10.3664C17.3828 10.4986 17.3606 10.6634 17.2271 10.7323C17.0947 10.8 16.7058 10.8912 16.4625 10.9156C16.2099 10.9396 15.9642 10.928 15.819 10.8444C15.7953 10.8317 15.7789 10.8297 15.7564 10.8472C15.7015 10.8924 15.6688 10.9295 15.5598 10.9934C15.5364 11.0069 15.5208 11.0371 15.5446 11.0835C15.5675 11.1295 15.8724 11.632 16.0565 11.7666C16.2398 11.9035 16.3379 11.842 16.5579 11.7209C16.7782 11.5999 16.9269 11.4517 17.1555 11.4595C17.3875 11.466 17.5837 11.6614 17.6191 11.8888L17.6195 11.8892Z" fill="url(#paint5_radial_4253_3832)"/>
<path opacity="0.85" d="M17.2084 10.7822C17.0788 10.8448 16.6973 10.9292 16.4594 10.9512C16.2122 10.9744 15.9709 10.9628 15.8288 10.8858C15.8058 10.8746 15.7891 10.8723 15.7677 10.8882C15.714 10.9303 15.6816 10.9648 15.5761 11.0232C15.5524 11.0359 15.5368 11.0642 15.5602 11.1067C15.5832 11.1493 15.858 11.6084 16.0448 11.7399C16.2317 11.8737 16.331 11.8138 16.5552 11.6954C16.779 11.5767 16.9301 11.4316 17.1625 11.439L17.2088 10.7818L17.2084 10.7822Z" fill="url(#paint6_radial_4253_3832)" style="mix-blend-mode:multiply"/>
<path opacity="0.85" d="M16.3886 9.07599C15.7287 9.24502 14.8859 9.5711 14.8552 9.58773C14.8376 9.59856 14.8404 9.63453 14.8493 9.65349C14.8575 9.67051 14.9451 9.81556 14.9451 9.81556C14.9451 9.81556 14.9895 9.91419 15.1164 9.98188C15.2425 10.0496 15.3472 10.0828 15.3815 10.0902C15.4157 10.0975 15.4313 10.0828 15.4434 10.065C15.4539 10.05 15.5851 9.80086 16.0655 9.6767C16.3255 9.61133 16.4913 9.60359 16.5704 9.60359L16.3886 9.07599Z" fill="url(#paint7_radial_4253_3832)" style="mix-blend-mode:multiply"/>
<path opacity="0.85" d="M17.6241 11.9283C17.6681 12.2045 17.4898 12.4044 17.3816 12.5739C17.2746 12.741 17.0566 12.9904 16.9456 13.1293C16.8031 13.308 16.5956 13.2303 16.5956 13.2303C16.5956 13.2303 17.8118 13.8449 18.5514 14.2139C18.8442 14.3617 19.2876 14.2611 19.5994 13.6801C19.6722 13.5451 20.1354 12.5727 20.2503 12.2838L17.6237 11.9283H17.6241Z" fill="url(#paint8_radial_4253_3832)" style="mix-blend-mode:multiply"/>
<path d="M11.5672 16.4756C11.5104 16.4527 11.51 16.3862 11.5851 16.3073C11.6299 16.2613 11.9651 15.9886 12.1679 15.9414C12.3773 15.8942 13.1073 15.8277 13.4187 15.8099C13.5071 15.8056 14.6379 15.705 14.7415 15.7097C14.8446 15.7143 15.1027 16.1139 15.4076 16.4435C15.3717 16.4466 14.3872 16.4249 13.5518 16.4272C12.7616 16.4288 12.0644 16.4504 11.8074 16.4717C11.7218 16.479 11.6151 16.4949 11.5669 16.4759L11.5672 16.4756Z" fill="url(#paint9_linear_4253_3832)"/>
<path d="M11.5618 16.4895C11.5307 16.4783 11.5104 16.4508 11.5112 16.4183C11.5112 16.3816 11.5326 16.3406 11.5746 16.2968C11.6225 16.2473 11.9554 15.977 12.1656 15.9267C12.3762 15.8787 13.1069 15.8126 13.4183 15.7944C13.5036 15.7897 14.585 15.6938 14.7337 15.6938C14.7368 15.6938 14.7407 15.6938 14.7427 15.6946C14.7781 15.6969 14.8135 15.7255 14.8583 15.7692C14.9023 15.8133 14.954 15.8741 15.0109 15.9452C15.1273 16.0876 15.267 16.269 15.4185 16.4334L15.4403 16.4562L15.4083 16.4585H15.3924C15.2631 16.4585 14.4231 16.4411 13.6639 16.4411C13.6258 16.4411 13.5888 16.4415 13.5526 16.4419C12.7624 16.4431 12.0651 16.4651 11.8098 16.486C11.7537 16.491 11.6891 16.4999 11.635 16.4999C11.607 16.4995 11.5824 16.4972 11.5622 16.4899L11.5618 16.4895ZM11.6346 16.4694C11.6856 16.4694 11.7498 16.4612 11.8074 16.4562C12.0648 16.4345 12.7616 16.4129 13.5522 16.4113H13.6636C14.3923 16.4113 15.1973 16.4272 15.3729 16.4284C15.1534 16.187 14.9595 15.9143 14.8353 15.7909C14.794 15.7476 14.7578 15.7248 14.7411 15.7248C14.7411 15.7248 14.7368 15.7248 14.7337 15.7248C14.5893 15.7248 13.5067 15.8207 13.4199 15.8249C13.11 15.8431 12.3781 15.9097 12.1726 15.9565C11.9764 16.0006 11.6373 16.2744 11.5968 16.3185C11.5579 16.3587 11.5419 16.3947 11.5419 16.4187C11.5427 16.44 11.5521 16.4527 11.5731 16.462C11.5871 16.4674 11.6093 16.4697 11.635 16.4697L11.6346 16.4694Z" fill="#7F7F7E"/>
<path d="M27.8558 25.2305C27.514 24.3749 26.5482 22.519 25.225 20.5884C23.9275 18.6896 21.7265 16.1181 21.4228 15.6907C21.1247 15.2722 21.0083 14.8011 21.6284 14.6061C22.0329 14.4785 23.0092 14.2777 23.4078 14.1671C23.7955 14.0615 23.8236 13.9362 23.8559 13.6376C23.8898 13.3146 23.801 11.748 23.6052 10.815C23.5647 10.6213 23.4335 10.4596 23.277 10.3497C23.1392 10.2538 22.6028 9.78962 22.3065 9.45349C21.9667 9.06746 21.8125 8.70386 21.7569 8.42421C21.7569 8.42421 21.7475 8.36309 21.6794 8.29965C21.6553 8.2749 21.6358 8.26213 21.5949 8.23893C21.0114 7.88229 18.9497 7.3222 18.5289 7.28623C18.2412 7.26031 17.2205 7.39066 16.2913 7.94573C16.018 8.11012 16.0067 8.31242 15.8152 8.42227C15.6252 8.53251 15.1873 8.63153 14.7279 8.83615C14.4749 8.94833 14.4733 8.96689 14.5336 9.10885C14.5578 9.16842 14.7228 9.46664 14.8065 9.46664C14.8891 9.46896 14.9899 9.42642 15.0915 9.3858C15.227 9.33281 16.1328 8.9843 16.853 8.83151C17.6542 8.66132 18.5157 8.64662 18.8216 8.96844C19.2868 9.45775 20.1043 10.5555 20.3519 11.0317C20.5952 11.5024 20.5707 11.731 20.4084 12.2145C20.2593 12.6609 19.6948 13.8209 19.529 14.0611C19.3616 14.3017 19.1599 14.4355 18.6764 14.2394C18.1583 14.0275 16.25 13.055 15.8354 12.8465C15.5543 12.7057 14.3744 12.1124 13.483 11.6679C13.1528 11.5036 12.8811 11.384 12.5845 11.3098C11.9285 11.1438 11.2231 11.2185 10.8981 11.2722C10.7502 11.2966 10.6571 11.5333 10.6641 11.6293C10.6735 11.7488 11.0195 11.6637 11.3076 11.6842C11.54 11.7001 12.3357 11.7855 12.7947 11.9704C13.279 12.1654 15.7058 13.4639 16.3189 13.7919C20.9872 16.3154 22.9847 17.9404 26.593 23.9648C26.7541 24.2337 26.8312 24.5648 26.577 24.6398C26.2076 24.747 24.6676 25.0382 24.2027 25.1895C23.8111 25.3179 23.7593 25.3484 23.7013 25.5407C23.6379 25.7604 23.5394 26.1955 23.562 26.283C23.5725 26.3189 23.541 26.3657 23.6208 26.3657C24.054 26.3657 25.6065 26.3681 26.8032 26.4802C26.9472 26.4945 26.9546 26.4911 27.0457 26.3541C27.1504 26.1944 27.5646 25.7236 27.8371 25.5241C27.9512 25.4393 27.8749 25.2827 27.8554 25.2316L27.8558 25.2305Z" fill="url(#paint10_linear_4253_3832)"/>
<path d="M26.7576 24.3381C26.7335 24.0933 26.5069 23.7301 26.1055 23.105C25.7015 22.476 25.1938 21.6173 24.5184 20.6666C23.319 18.9793 22.1375 17.6615 20.6699 16.5076C19.5866 15.6563 18.4491 14.9732 17.6152 14.4874C16.7806 14.0019 13.2587 12.0884 12.7129 11.9178C12.2158 11.7631 11.8211 11.7124 11.4691 11.6768C11.2297 11.6529 11.0285 11.6707 10.8151 11.6707C10.6135 11.6707 10.6843 11.5078 10.7124 11.4436C10.6917 11.4889 10.5707 11.7136 10.7696 11.7136C10.914 11.7136 11.2508 11.7024 11.4773 11.7279C11.9122 11.7747 12.4607 11.8946 12.8048 12.0269C13.2949 12.2161 15.5936 13.5784 16.1885 13.9079C17.9788 14.9167 19.3405 15.8435 20.6182 16.8666C22.5712 18.4297 24.2572 20.2422 26.371 23.9208C26.4547 24.0635 26.4987 24.173 26.4987 24.3056C26.5065 24.5114 26.3282 24.5849 26.2687 24.6019C25.9051 24.7102 24.4125 25.044 23.9703 25.1957C23.5947 25.3276 23.5257 25.41 23.4716 25.5829C23.4522 25.6544 23.3883 26.0049 23.3144 26.0977C23.2404 26.1932 23.0687 26.2133 22.8858 26.2133C22.7733 26.2133 22.7172 26.2195 22.7289 26.095C22.7386 25.9708 22.813 25.6347 22.8562 25.4417C22.8986 25.2471 22.9788 25.1021 23.1571 24.9949C23.3346 24.8874 23.954 24.788 24.302 24.7025C24.65 24.6186 24.6683 24.458 24.6625 24.1969C24.6625 24.4739 24.5659 24.5404 24.2167 24.6189C23.8621 24.6971 23.2661 24.7737 23.0695 24.9063C22.8807 25.0355 22.806 25.2154 22.7717 25.3573C22.6522 25.8486 22.5716 26.2083 22.5852 26.329C22.5961 26.4361 22.6397 26.4512 22.76 26.4377C22.8799 26.4238 23.1797 26.3816 23.6301 26.365C23.7632 26.365 23.7543 26.2048 23.7519 26.0273C23.7519 25.9627 23.755 25.7712 23.7889 25.6776C23.8216 25.5836 23.8932 25.4978 24.0073 25.4633C24.2576 25.3867 25.6439 25.0142 26.3489 24.8058C26.6579 24.7145 26.786 24.617 26.758 24.3377L26.7576 24.3381Z" fill="url(#paint11_linear_4253_3832)"/>
<path d="M17.5043 17.8816C17.6004 17.9114 17.7752 18.0359 17.9134 18.1361C18.024 18.2162 18.112 18.2812 18.112 18.2812C17.1777 19.4416 15.793 21.4437 15.3472 22.2904C15.1164 22.7306 15.1214 22.9128 15.1273 23.3201C15.1339 23.7092 15.1802 24.1881 15.1549 24.412C15.1296 24.6375 14.9848 24.7346 14.7579 24.7969C14.5305 24.8592 13.1871 25.0734 12.8904 25.1605C12.5938 25.2475 12.5261 25.4131 12.4762 25.6258C12.4256 25.8393 12.4089 25.9774 12.384 26.0602C12.3575 26.1519 12.375 26.2161 12.2874 26.2223C12.2037 26.2281 11.9966 26.2462 11.9005 26.2602C11.8024 26.2725 11.7892 26.2524 11.7919 26.1488C11.7954 26.0432 11.8923 25.5786 11.9597 25.3342C12.0247 25.0885 12.1302 24.9226 12.4669 24.8406C12.8032 24.7594 14.1693 24.5319 14.4258 24.4859C14.7287 24.4314 14.803 24.3041 14.7882 24.0144C14.773 23.7127 14.7294 23.2922 14.7217 23.0342C14.7127 22.7739 14.7287 22.5619 14.8147 22.331C14.9097 22.0776 15.3955 21.0317 15.8015 20.2945C16.3613 19.2764 17.0519 18.186 17.187 18.0236C17.2956 17.8917 17.3715 17.8402 17.5043 17.8816Z" fill="url(#paint12_linear_4253_3832)"/>
<path d="M16.7148 25.3341C16.7027 25.0939 16.7915 24.8738 16.9456 24.6541C17.1523 24.359 17.4712 24.0577 17.8628 23.6543C18.5483 22.9479 20.2187 21.323 20.2787 21.263C20.3168 21.2259 20.362 21.1737 20.2693 21.0847C20.1035 20.9265 20.0163 20.8252 19.7555 20.5652C19.5963 20.407 19.4857 20.3107 19.4912 20.2558C19.4919 20.2481 17.6249 22.3337 17.0134 23.8759C16.7623 24.4259 16.6902 24.7392 16.6902 25.0131C16.6902 25.2506 16.7148 25.3338 16.7148 25.3338V25.3341Z" fill="url(#paint13_linear_4253_3832)" style="mix-blend-mode:multiply"/>
<path d="M10.7941 11.7136C11.055 11.7117 11.2967 11.7043 11.5221 11.7322C11.9651 11.7867 12.5082 11.9035 12.8507 12.0451C13.0286 12.119 13.4506 12.3472 13.9435 12.6237C14.7968 13.1034 15.863 13.7277 16.2418 13.9389C17.5599 14.6839 18.6495 15.3859 19.6407 16.117C19.9988 16.3804 20.3422 16.6519 20.6797 16.9242C22.639 18.4966 24.2479 20.2376 26.3975 23.9683C26.4804 24.113 26.5057 24.2275 26.4964 24.3536C26.4886 24.465 26.3925 24.5776 26.2348 24.612L10.7941 11.7136Z" fill="url(#paint14_linear_4253_3832)" style="mix-blend-mode:multiply"/>
<path d="M23.5888 9.96524H23.5807C23.5063 9.96408 23.4534 9.93314 23.4094 9.90258C23.0991 9.67321 22.2322 9.00287 22.1072 8.43388C22.029 8.16776 22.1274 8.28922 21.8487 8.14881C21.7713 8.11864 21.6957 8.08847 21.6187 8.05984C21.6455 8.07416 21.67 8.08769 21.6934 8.10085C21.7347 8.12521 21.7728 8.14997 21.8028 8.1813C21.9071 8.278 21.9297 8.37354 21.9328 8.39404C21.9838 8.64547 22.1239 8.98392 22.4459 9.34868C22.7238 9.66624 23.2965 10.137 23.4164 10.2198C23.4919 10.2708 23.567 10.3223 23.6317 10.3934C23.6682 10.2024 23.7286 9.99232 23.8142 9.78654C23.7998 9.80859 23.787 9.83798 23.7609 9.87086C23.7317 9.90993 23.6741 9.9606 23.5892 9.96486L23.5888 9.96524Z" fill="url(#paint15_linear_4253_3832)"/>
<path d="M21.6945 14.7616C21.4053 14.8653 21.3687 14.9566 21.3597 15.1001V15.102C21.359 15.2347 21.4205 15.4416 21.5501 15.6196C21.7008 15.8327 22.4283 16.6546 23.24 17.6681C23.3334 17.7814 23.3724 17.8247 23.4491 17.9029C23.4199 17.8646 22.2742 16.4241 21.923 16.0261C21.8226 15.9097 21.7082 15.7526 21.7062 15.5472C21.7054 15.3422 21.8639 15.0502 22.1897 14.9384C22.6253 14.7802 23.4179 14.5249 23.5985 14.4278C23.7745 14.328 23.8263 14.2839 23.8524 14.1644C23.762 14.2375 23.6449 14.2851 23.4962 14.3265C23.0874 14.4379 22.0823 14.6417 21.6945 14.762V14.7616Z" fill="url(#paint16_linear_4253_3832)"/>
<path d="M23.8286 10.0414C23.9859 9.49604 24.4857 8.85085 25.2783 8.85085C26.2881 8.85085 26.7089 9.22953 26.8499 9.79427C26.6688 8.99281 25.9639 8.74371 25.276 8.75995C24.5017 8.77775 23.9804 9.43106 23.8286 10.0414Z" fill="url(#paint17_linear_4253_3832)"/>
<path d="M17.2543 24.5892C17.3886 24.4449 17.9107 23.8682 18.4642 23.257C18.2828 23.4384 18.1185 23.6051 17.9901 23.7367C17.2088 24.5312 16.8534 24.7783 16.8697 25.2727C16.8791 25.5643 16.9016 26.2818 16.9032 26.389C16.9032 26.4617 16.9102 26.5309 16.786 26.5955C16.7253 26.6284 16.6206 26.628 16.5672 26.628C16.3547 26.628 14.2934 26.4288 13.5709 26.4288C12.8484 26.4288 12.2271 26.5085 11.8545 26.6017C11.7938 26.616 11.6369 26.606 11.5735 26.5131C11.5412 26.4648 11.5295 26.4157 11.5268 26.3731C11.5108 26.5131 11.4976 26.6764 11.4976 26.7479C11.628 26.7224 11.9343 26.6802 12.3302 26.6508C12.8367 26.6114 13.4097 26.6183 13.7916 26.6183C14.1735 26.6183 17.0099 26.7649 17.0208 26.7649C17.0021 26.548 16.974 26.0331 16.9659 25.7109C16.9635 25.6281 16.9635 25.6293 16.9565 25.3991C16.9565 25.1469 17.0048 24.853 17.2543 24.5899V24.5892Z" fill="url(#paint18_linear_4253_3832)"/>
<path d="M23.0123 23.2779C23.1734 23.392 23.3237 23.4725 23.4779 23.5255C23.3478 23.4349 23.1563 23.2899 22.9052 23.0988C22.5401 22.818 22.0729 22.4521 21.6038 22.0827C21.2075 21.7698 20.8097 21.4541 20.4718 21.1826C20.4659 21.3013 20.3916 21.3648 20.362 21.383C20.4418 21.3946 20.5115 21.4394 20.5738 21.4963C20.7201 21.6317 22.6312 23.0052 23.0123 23.2779Z" fill="url(#paint19_linear_4253_3832)"/>
<path d="M28.08 25.7001C28.145 25.6479 28.1711 25.6517 28.1711 25.6018C28.1711 25.5662 28.1508 25.5016 28.1197 25.4138C27.7339 24.3161 26.2632 21.6073 25.1191 20.1007C25.0109 19.9568 24.9373 19.7638 24.9373 19.6303C24.9373 19.4567 25.0292 19.329 25.1222 19.2571C25.2024 19.1925 25.3951 19.0273 25.6501 18.7763C25.2553 19.0702 24.9789 19.3046 24.9455 19.4102C24.9252 19.4594 24.9003 19.5263 24.9003 19.6218C24.9003 19.7398 24.9396 19.9034 25.0914 20.1224C25.1825 20.2508 25.2713 20.3769 25.3562 20.4991C26.6844 22.4416 27.6097 24.3207 27.9597 25.1972C28.036 25.4096 28.0212 25.514 27.9515 25.6096C27.9515 25.6096 27.2602 26.3124 27.1768 26.4439C27.1406 26.4965 27.1142 26.5414 27.0663 26.5816C27.02 26.6245 26.8981 26.652 26.7817 26.6423C25.7602 26.5464 24.6512 26.5069 24.0956 26.5069C23.3727 26.5069 22.9504 26.5762 22.7106 26.5824C22.5805 26.5866 22.4891 26.5561 22.4735 26.5344C22.4727 26.5313 22.4708 26.5274 22.4673 26.5251C22.4567 26.6257 22.4505 26.7019 22.4482 26.7355C22.8861 26.657 23.4759 26.6234 24.1318 26.6234C24.3401 26.6234 24.5534 26.6272 24.7734 26.6327C25.8521 26.6655 27.1044 26.7646 27.1087 26.7646C27.1111 26.763 27.7098 26.0056 28.0804 25.7005L28.08 25.7001Z" fill="url(#paint20_linear_4253_3832)"/>
<path d="M17.1574 17.7628C16.8331 17.5365 16.4898 17.3056 16.1791 17.1165C15.7692 16.8612 15.3795 16.6852 15.2631 16.6879C14.4319 16.6753 13.7715 16.6689 13.282 16.6689C12.7094 16.6689 12.1667 16.6902 11.9511 16.7065C11.5166 16.7378 11.3045 16.7904 11.262 16.8005C11.2192 16.8105 11.1943 16.8078 11.192 16.8078C11.2029 16.8248 11.2188 16.8577 11.2262 16.8705C11.2375 16.8666 11.255 16.8596 11.2869 16.8504C11.5485 16.7765 12.1321 16.7413 12.8608 16.7393C13.5557 16.7393 14.314 16.7444 14.7064 16.7622C15.0584 16.7796 15.5547 16.8264 15.9514 17.0414C16.3196 17.2461 17.1185 17.7973 17.157 17.7628H17.1574Z" fill="url(#paint21_linear_4253_3832)"/>
<path d="M13.3946 14.1667C12.9216 13.7304 12.2057 13.2272 11.8701 13.1583C11.7514 13.1305 11.5848 13.1181 11.4493 13.1119C11.3457 13.1061 11.3527 12.9862 11.3235 12.9637C11.3263 12.985 11.3329 13.1653 11.3956 13.1695C11.4797 13.1757 11.7436 13.139 11.976 13.25C12.2933 13.4055 13.0999 13.9981 13.2233 14.1265C13.3763 14.3013 13.5296 14.2839 13.3942 14.1671L13.3946 14.1667Z" fill="url(#paint22_linear_4253_3832)"/>
<path d="M10.7034 16.5398C10.8019 16.5398 10.8303 16.5421 10.907 16.5734C10.8588 16.4922 10.8058 16.4558 10.6536 16.4585C10.4306 16.464 9.86609 16.7425 9.78005 16.7985C9.64847 16.8717 9.59203 16.8728 9.50989 16.7842C9.54726 16.8744 9.6111 16.9293 9.66911 16.9099C9.72633 16.8898 10.4041 16.5398 10.7034 16.5398Z" fill="url(#paint23_linear_4253_3832)"/>
<path d="M17.2676 8.00609C17.3711 7.98946 17.4591 7.96741 17.4692 8.05135C17.4735 8.09312 17.4692 8.14495 17.4536 8.18402C17.4439 8.20839 17.4244 8.2316 17.3785 8.24707C17.2715 8.28072 16.663 8.50313 16.5583 8.54568C16.4824 8.57779 16.4333 8.54143 16.4193 8.49308C16.4037 8.44627 16.4193 8.32482 16.4543 8.26912C16.489 8.21303 16.5166 8.19562 16.57 8.17899C16.6217 8.16159 17.1126 8.02968 17.2668 8.0057L17.2676 8.00609Z" fill="url(#paint24_linear_4253_3832)"/>
<path d="M19.7349 13.8271C19.8092 13.6933 20.3017 12.6586 20.4196 12.3607C20.4959 12.1735 20.582 11.9879 20.582 11.75C20.582 11.5941 20.5392 11.3547 20.4317 11.133C20.1608 10.5652 19.3032 9.486 18.9602 9.07831C18.6702 8.73831 18.4082 8.68493 17.9138 8.69731C16.6537 8.73018 15.5543 9.26088 14.9373 9.51114C15.3772 9.36184 16.4454 8.92668 17.6374 8.85512C18.2922 8.81567 18.555 8.87098 18.7944 9.13865C19.1424 9.51965 19.9537 10.6027 20.2425 11.1516C20.3566 11.3694 20.4076 11.5639 20.3912 11.731C20.3686 11.9828 20.2779 12.1681 20.2063 12.3348C20.0806 12.6214 19.6169 13.5579 19.5364 13.694C19.1981 14.2754 18.875 14.2553 18.53 14.176C18.5483 14.1861 18.706 14.2599 18.8504 14.3183C19.2518 14.4816 19.5064 14.2549 19.7349 13.8271Z" fill="url(#paint25_linear_4253_3832)"/>
<path d="M18.2135 18.3527C18.1995 18.3461 18.1399 18.3017 18.0598 18.2429C17.8698 18.4544 17.02 19.5104 16.4267 20.45C15.9798 21.1574 15.3344 22.2134 15.2335 22.4455C15.1401 22.6598 15.1097 22.8528 15.1066 23.105C15.1066 23.1077 15.1432 24.2465 15.1432 24.2534C15.1432 24.3942 15.1222 24.5103 15.0463 24.5996C14.9688 24.6874 14.8528 24.7315 14.6909 24.7539C14.4254 24.793 13.1723 24.9845 12.8289 25.0541C12.4949 25.1257 12.3563 25.2781 12.282 25.4982C12.2278 25.6567 12.166 25.9263 12.1663 26.0443C12.1663 26.0443 12.1624 26.1089 12.1663 26.1089C12.157 26.2354 12.2029 26.2277 12.2029 26.2277C12.2029 26.2277 13.6526 26.1174 14.5161 26.1685C15.3795 26.2188 16.5703 26.3306 16.5703 26.3306C16.5703 26.3306 15.3168 26.0973 14.4639 26.0443C13.611 25.9944 12.4809 26.0861 12.47 26.035C12.4638 25.9991 12.4416 25.9461 12.4505 25.8416C12.4649 25.7747 12.4821 25.6974 12.5054 25.6169C12.5611 25.4065 12.6596 25.2204 12.9909 25.1442C13.3073 25.0645 14.5243 24.8646 14.7555 24.8081C14.9836 24.7508 15.1312 24.6665 15.1631 24.4816C15.1712 24.4252 15.179 24.2975 15.1783 24.1799C15.1783 23.937 15.135 23.2918 15.1366 23.2516C15.1448 22.8551 15.1619 22.6443 15.4227 22.2161C15.8272 21.5473 17.3501 19.247 18.108 18.4486C18.1555 18.3984 18.1777 18.3554 18.2622 18.3686C18.2454 18.3651 18.2291 18.3604 18.2131 18.3519L18.2135 18.3527Z" fill="url(#paint26_linear_4253_3832)"/>
<path d="M0 31.535V34.8936H0.930785V33.8605H1.76464C3.55263 33.8605 4.46317 33.2903 4.46317 32.6602C4.46317 31.9833 3.4849 31.535 1.84522 31.535H0ZM0.930785 33.4976V31.9102H1.66342C2.41981 31.9102 3.41755 32.0375 3.41755 32.6606C3.41755 33.083 3.09405 33.498 1.54197 33.498H0.930785V33.4976Z" fill="#192753"/>
<path d="M9.77034 34.8936V34.4701H7.47588C6.98382 34.4701 6.84135 34.2488 6.84135 33.8736V33.382H9.53404V32.9604H6.84135V31.9566H9.6555V31.535H5.91095V33.8937C5.91095 34.525 6.17372 34.8936 7.03093 34.8936H9.77034Z" fill="#192753"/>
<path d="M15.726 31.535H14.7952V34.3695C14.5391 34.4577 14.1954 34.5378 13.6955 34.5378C12.9808 34.5378 12.2715 34.3567 12.2715 33.7328V31.5346H11.3415V33.7997C11.3415 34.725 12.2715 34.9992 13.2973 34.9992C14.323 34.9992 15.072 34.7977 15.726 34.5242V31.5346V31.535Z" fill="#192753"/>
<path d="M18.314 33.2238C18.314 32.2928 19.1109 31.8557 20.0813 31.8557C20.8771 31.8557 21.4913 32.0839 22.0722 32.2792V31.716C21.4575 31.5358 20.8767 31.4344 20.0813 31.4344C18.5242 31.4344 17.2551 32.145 17.2551 33.2242C17.2551 34.3645 18.5238 35.0004 20.0813 35.0004C20.8584 35.0004 21.6735 34.8403 22.1742 34.7134V33.3828H21.2562V34.3784C20.9187 34.4918 20.6758 34.5796 20.1495 34.5796C19.0898 34.5796 18.314 34.057 18.314 33.2246" fill="#192753"/>
<path d="M27.7289 34.8936V34.4701H25.4344C24.9428 34.4701 24.8003 34.2488 24.8003 33.8736V33.382H27.4926V32.9604H24.8003V31.9566H27.6137V31.535H23.8695V33.8937C23.8695 34.525 24.1319 34.8936 24.9891 34.8936H27.7285H27.7289Z" fill="#192753"/>
<path d="M31.7674 31.4341C30.209 31.4341 28.9353 32.1578 28.9353 33.2412C28.9353 34.3776 30.209 35 31.7674 35C33.3257 35 34.5944 34.3776 34.5944 33.2412C34.5944 32.1048 33.3257 31.4341 31.7674 31.4341ZM31.7674 34.6252C30.7081 34.6252 29.9934 34.0825 29.9934 33.2412C29.9934 32.3187 30.7895 31.8557 31.7674 31.8557C32.7453 31.8557 33.5355 32.3187 33.5355 33.2412C33.5355 34.0825 32.8196 34.6252 31.7674 34.6252Z" fill="#192753"/>
<path d="M35.3585 32.0173H37.2135V34.8936H38.1446V32.0173H40V31.535H35.3585V32.0173Z" fill="#192753"/>
</g>
<defs>
<linearGradient id="paint0_linear_4253_3832" x1="27.9714" y1="9.68713" x2="22.0428" y2="18.8261" gradientUnits="userSpaceOnUse">
<stop offset="0.2" stop-color="#B5B3B3"/>
<stop offset="0.22" stop-color="#A19F9F"/>
<stop offset="0.25" stop-color="#787676"/>
<stop offset="0.28" stop-color="#575555"/>
<stop offset="0.31" stop-color="#403E3E"/>
<stop offset="0.34" stop-color="#323030"/>
<stop offset="0.37" stop-color="#2E2C2C"/>
<stop offset="0.45" stop-color="#333131"/>
<stop offset="0.55" stop-color="#444242"/>
<stop offset="0.67" stop-color="#605D5D"/>
<stop offset="0.81" stop-color="#898686"/>
<stop offset="1"/>
</linearGradient>
<linearGradient id="paint1_linear_4253_3832" x1="11.1686" y1="16.2961" x2="12.2412" y2="13.824" gradientUnits="userSpaceOnUse">
<stop offset="0.03" stop-color="#8C8888"/>
<stop offset="0.2" stop-color="#8C8888"/>
<stop offset="0.99" stop-color="#403E3D"/>
</linearGradient>
<linearGradient id="paint2_linear_4253_3832" x1="25.9701" y1="10.3706" x2="24.635" y2="10.2437" gradientUnits="userSpaceOnUse">
<stop offset="0.2" stop-color="#2E2C2C"/>
<stop offset="0.26" stop-color="#2F2D2D"/>
<stop offset="0.28" stop-color="#363434"/>
<stop offset="0.3" stop-color="#424040"/>
<stop offset="0.31" stop-color="#535151"/>
<stop offset="0.32" stop-color="#686767"/>
<stop offset="0.33" stop-color="#838282"/>
<stop offset="0.34" stop-color="#A3A2A2"/>
<stop offset="0.35" stop-color="#C9C8C8"/>
<stop offset="0.36" stop-color="white"/>
<stop offset="0.82" stop-color="#2E2C2C"/>
<stop offset="1" stop-color="#1A1A1A"/>
</linearGradient>
<linearGradient id="paint3_linear_4253_3832" x1="13.9567" y1="17.5988" x2="15.0435" y2="15.0938" gradientUnits="userSpaceOnUse">
<stop stop-color="#B3B1B1"/>
<stop offset="0.14" stop-color="#9D9A9A"/>
<stop offset="0.26" stop-color="#908C8C"/>
<stop offset="0.37" stop-color="#8C8888"/>
<stop offset="0.99"/>
</linearGradient>
<linearGradient id="paint4_linear_4253_3832" x1="24.6438" y1="29.3844" x2="5.14632" y2="9.42201" gradientUnits="userSpaceOnUse">
<stop offset="0.08" stop-color="#676464"/>
<stop offset="0.12" stop-color="#73706F"/>
<stop offset="0.17" stop-color="#53504F"/>
<stop offset="0.31" stop-color="#676464"/>
<stop offset="0.47" stop-color="#E6E5E5"/>
<stop offset="0.7" stop-color="#E6E5E5"/>
<stop offset="0.72" stop-color="#D7D5D5"/>
<stop offset="0.76" stop-color="#AFADAD"/>
<stop offset="0.82" stop-color="#706E6D"/>
<stop offset="0.84" stop-color="#575453"/>
<stop offset="0.96" stop-color="#2E2C2C"/>
</linearGradient>
<radialGradient id="paint5_radial_4253_3832" cx="0" cy="0" r="1" gradientUnits="userSpaceOnUse" gradientTransform="translate(16.1515 12.1348) scale(4.47563 4.44709)">
<stop offset="0.04" stop-color="white"/>
<stop offset="0.47" stop-color="white"/>
<stop offset="0.51" stop-color="#FAFAFA"/>
<stop offset="0.56" stop-color="#EEEEEE"/>
<stop offset="0.61" stop-color="#DAD9D9"/>
<stop offset="0.66" stop-color="#BEBDBC"/>
<stop offset="0.7" stop-color="#9A9897"/>
<stop offset="0.75" stop-color="#73706F"/>
<stop offset="0.85" stop-color="#53504F"/>
<stop offset="1" stop-color="#2E2C2C"/>
</radialGradient>
<radialGradient id="paint6_radial_4253_3832" cx="0" cy="0" r="1" gradientUnits="userSpaceOnUse" gradientTransform="translate(17.1559 11.2214) scale(1.58012 1.50724)">
<stop offset="0.04" stop-color="white"/>
<stop offset="0.23" stop-color="white"/>
<stop offset="0.29" stop-color="#F5F5F5"/>
<stop offset="0.4" stop-color="#DCDCDC"/>
<stop offset="0.54" stop-color="#B2B2B2"/>
<stop offset="0.7" stop-color="#797979"/>
<stop offset="0.89" stop-color="#313131"/>
<stop offset="1"/>
</radialGradient>
<radialGradient id="paint7_radial_4253_3832" cx="0" cy="0" r="1" gradientUnits="userSpaceOnUse" gradientTransform="translate(16.1678 8.77235) scale(1.85807 1.84622)">
<stop offset="0.23" stop-color="white"/>
<stop offset="0.5" stop-color="#EFEEED"/>
<stop offset="0.57" stop-color="#EAE9E8"/>
<stop offset="0.86"/>
</radialGradient>
<radialGradient id="paint8_radial_4253_3832" cx="0" cy="0" r="1" gradientUnits="userSpaceOnUse" gradientTransform="translate(19.2821 12.375) scale(6.26012 6.2202)">
<stop offset="0.04" stop-color="white"/>
<stop offset="0.25" stop-color="white"/>
<stop offset="0.27" stop-color="#FAFAFA"/>
<stop offset="0.29" stop-color="#EEEEEE"/>
<stop offset="0.3" stop-color="#DAD9D9"/>
<stop offset="0.32" stop-color="#BEBCBC"/>
<stop offset="0.34" stop-color="#999797"/>
<stop offset="0.35" stop-color="#7F7C7C"/>
<stop offset="0.41" stop-color="#53504F"/>
<stop offset="0.47" stop-color="#2E2C2C"/>
<stop offset="0.86" stop-color="#2E2C2C"/>
</radialGradient>
<linearGradient id="paint9_linear_4253_3832" x1="14.9093" y1="15.9135" x2="11.8467" y2="16.6844" gradientUnits="userSpaceOnUse">
<stop stop-color="#E6E5E5"/>
<stop offset="0.11" stop-color="#C2C0C0"/>
<stop offset="0.26" stop-color="#999696"/>
<stop offset="0.27" stop-color="#A19E9E"/>
<stop offset="0.32" stop-color="#BAB8B8"/>
<stop offset="0.38" stop-color="#CDCCCC"/>
<stop offset="0.44" stop-color="#DBDADA"/>
<stop offset="0.52" stop-color="#E3E2E2"/>
<stop offset="0.65" stop-color="#E6E5E5"/>
<stop offset="0.9" stop-color="white"/>
</linearGradient>
<linearGradient id="paint10_linear_4253_3832" x1="14.8305" y1="8.26286" x2="28.815" y2="25.4103" gradientUnits="userSpaceOnUse">
<stop stop-color="white"/>
<stop offset="0.07" stop-color="#CBC9C9"/>
<stop offset="0.16" stop-color="white"/>
<stop offset="0.2" stop-color="white"/>
<stop offset="0.22" stop-color="#F3F2F2"/>
<stop offset="0.29" stop-color="#C6C4C4"/>
<stop offset="0.33" stop-color="#B8B7B7"/>
<stop offset="0.36" stop-color="#D2D1D1"/>
<stop offset="0.38" stop-color="#E6E5E5"/>
<stop offset="0.41" stop-color="#F4F3F3"/>
<stop offset="0.45" stop-color="#FCFCFC"/>
<stop offset="0.5" stop-color="white"/>
<stop offset="0.89" stop-color="white"/>
<stop offset="0.98" stop-color="#969393"/>
</linearGradient>
<linearGradient id="paint11_linear_4253_3832" x1="11.1959" y1="11.5566" x2="25.4556" y2="25.1874" gradientUnits="userSpaceOnUse">
<stop stop-color="#C5C2C2"/>
<stop offset="0.01" stop-color="#BEBBBB"/>
<stop offset="0.14" stop-color="#8B8888"/>
<stop offset="0.25" stop-color="#626060"/>
<stop offset="0.35" stop-color="#454343"/>
<stop offset="0.44" stop-color="#343232"/>
<stop offset="0.51" stop-color="#2E2C2C"/>
<stop offset="0.58" stop-color="#323030"/>
<stop offset="0.66" stop-color="#413F3F"/>
<stop offset="0.75" stop-color="#595757"/>
<stop offset="0.84" stop-color="#7A7878"/>
<stop offset="0.94" stop-color="#A5A2A2"/>
<stop offset="1" stop-color="#C5C2C2"/>
</linearGradient>
<linearGradient id="paint12_linear_4253_3832" x1="18.11" y1="18.1086" x2="12.5691" y2="26.4457" gradientUnits="userSpaceOnUse">
<stop stop-color="#A7A4A4"/>
<stop offset="0.1" stop-color="white"/>
<stop offset="0.35" stop-color="#DFDDDD"/>
<stop offset="0.47" stop-color="#F6F5F5"/>
<stop offset="0.54" stop-color="#F4F4F4"/>
<stop offset="0.58" stop-color="#B2B2B2"/>
<stop offset="0.61" stop-color="#7C7C7C"/>
<stop offset="0.65" stop-color="#515151"/>
<stop offset="0.67" stop-color="#333333"/>
<stop offset="0.7" stop-color="#202020"/>
<stop offset="0.71" stop-color="#1A1A1A"/>
<stop offset="0.72" stop-color="#373737"/>
<stop offset="0.74" stop-color="#6B6B6B"/>
<stop offset="0.76" stop-color="#989898"/>
<stop offset="0.77" stop-color="#BDBDBD"/>
<stop offset="0.79" stop-color="#DADADA"/>
<stop offset="0.81" stop-color="#EEEEEE"/>
<stop offset="0.82" stop-color="#FAFAFA"/>
<stop offset="0.84" stop-color="white"/>
<stop offset="0.85" stop-color="#FAFAFA"/>
<stop offset="0.86" stop-color="#ECECEC"/>
<stop offset="0.87" stop-color="#D6D6D6"/>
<stop offset="0.88" stop-color="#B7B7B6"/>
<stop offset="0.89" stop-color="#8F8E8E"/>
<stop offset="0.9" stop-color="#5E5E5D"/>
<stop offset="0.91" stop-color="#2F2E2D"/>
<stop offset="0.95" stop-color="#2F2E2D"/>
<stop offset="1" stop-color="#5D5A59"/>
</linearGradient>
<linearGradient id="paint13_linear_4253_3832" x1="17.4859" y1="22.4339" x2="18.9569" y2="23.3058" gradientUnits="userSpaceOnUse">
<stop offset="0.2" stop-color="white"/>
<stop offset="0.31" stop-color="#FCFCFC"/>
<stop offset="0.37" stop-color="#F4F4F4"/>
<stop offset="0.42" stop-color="#E6E6E6"/>
<stop offset="0.47" stop-color="#D3D1D1"/>
<stop offset="0.51" stop-color="#B9B8B8"/>
<stop offset="0.52" stop-color="#AFADAD"/>
<stop offset="0.84" stop-color="#2E2C2C"/>
<stop offset="0.96" stop-color="#1F1E1E"/>
<stop offset="1" stop-color="#1A1A1A"/>
</linearGradient>
<linearGradient id="paint14_linear_4253_3832" x1="18.314" y1="18.4633" x2="19.8544" y2="16.607" gradientUnits="userSpaceOnUse">
<stop offset="0.02" stop-color="white"/>
<stop offset="0.18" stop-color="white"/>
<stop offset="0.21" stop-color="white"/>
<stop offset="0.28" stop-color="#F7F7F7"/>
<stop offset="0.38" stop-color="#E3E1E1"/>
<stop offset="0.5" stop-color="#C5C2C2"/>
<stop offset="0.62" stop-color="#ABA8A8"/>
<stop offset="0.83" stop-color="#827F7E"/>
<stop offset="0.95" stop-color="#73706F"/>
<stop offset="1" stop-color="#6C6969"/>
</linearGradient>
<linearGradient id="paint15_linear_4253_3832" x1="21.7401" y1="8.15848" x2="23.7485" y2="10.2264" gradientUnits="userSpaceOnUse">
<stop/>
<stop offset="0.04" stop-color="#020202"/>
<stop offset="0.07" stop-color="#0A0A0A"/>
<stop offset="0.09" stop-color="#181818"/>
<stop offset="0.11" stop-color="#2C2C2C"/>
<stop offset="0.12" stop-color="#464545"/>
<stop offset="0.14" stop-color="#656565"/>
<stop offset="0.15" stop-color="#8B8A8A"/>
<stop offset="0.17" stop-color="#B5B5B5"/>
<stop offset="0.18" stop-color="#E1E0E0"/>
<stop offset="0.24" stop-color="#AFAEAE"/>
<stop offset="0.29" stop-color="#848383"/>
<stop offset="0.35" stop-color="#616060"/>
<stop offset="0.4" stop-color="#464545"/>
<stop offset="0.46" stop-color="#333232"/>
<stop offset="0.52" stop-color="#272626"/>
<stop offset="0.58" stop-color="#242323"/>
<stop offset="0.72" stop-color="#1C1C1C"/>
<stop offset="0.92" stop-color="#080808"/>
<stop offset="1"/>
</linearGradient>
<linearGradient id="paint16_linear_4253_3832" x1="21.9822" y1="16.698" x2="24.274" y2="15.1837" gradientUnits="userSpaceOnUse">
<stop/>
<stop offset="0.04" stop-color="#020202"/>
<stop offset="0.07" stop-color="#0A0A0A"/>
<stop offset="0.09" stop-color="#181818"/>
<stop offset="0.11" stop-color="#2C2C2C"/>
<stop offset="0.12" stop-color="#464545"/>
<stop offset="0.14" stop-color="#656565"/>
<stop offset="0.15" stop-color="#8B8A8A"/>
<stop offset="0.17" stop-color="#B5B5B5"/>
<stop offset="0.18" stop-color="#E1E0E0"/>
<stop offset="0.24" stop-color="#AFAEAE"/>
<stop offset="0.29" stop-color="#848383"/>
<stop offset="0.35" stop-color="#616060"/>
<stop offset="0.4" stop-color="#464545"/>
<stop offset="0.46" stop-color="#333232"/>
<stop offset="0.52" stop-color="#272626"/>
<stop offset="0.58" stop-color="#242323"/>
<stop offset="0.72" stop-color="#1C1C1C"/>
<stop offset="0.92" stop-color="#080808"/>
<stop offset="1"/>
</linearGradient>
<linearGradient id="paint17_linear_4253_3832" x1="23.8286" y1="9.40012" x2="26.8499" y2="9.40012" gradientUnits="userSpaceOnUse">
<stop stop-color="#403E3D"/>
<stop offset="0.29" stop-color="#B2B0B0"/>
<stop offset="0.34" stop-color="#898787"/>
<stop offset="0.39" stop-color="#696766"/>
<stop offset="0.45" stop-color="#52504F"/>
<stop offset="0.49" stop-color="#444241"/>
<stop offset="0.53" stop-color="#403E3D"/>
<stop offset="0.76" stop-color="#1A1A1A"/>
<stop offset="1"/>
</linearGradient>
<linearGradient id="paint18_linear_4253_3832" x1="11.4979" y1="25.0108" x2="18.4646" y2="25.0108" gradientUnits="userSpaceOnUse">
<stop/>
<stop offset="0.05" stop-color="#020202"/>
<stop offset="0.09" stop-color="#0A0A0A"/>
<stop offset="0.11" stop-color="#181717"/>
<stop offset="0.13" stop-color="#2C2B2B"/>
<stop offset="0.15" stop-color="#464444"/>
<stop offset="0.17" stop-color="#656262"/>
<stop offset="0.18" stop-color="#757272"/>
<stop offset="0.23" stop-color="#615F5F"/>
<stop offset="0.31" stop-color="#464444"/>
<stop offset="0.4" stop-color="#333232"/>
<stop offset="0.49" stop-color="#272626"/>
<stop offset="0.58" stop-color="#242323"/>
<stop offset="0.72" stop-color="#1C1C1C"/>
<stop offset="0.92" stop-color="#080808"/>
<stop offset="1"/>
</linearGradient>
<linearGradient id="paint19_linear_4253_3832" x1="20.362" y1="22.3542" x2="23.4779" y2="22.3542" gradientUnits="userSpaceOnUse">
<stop/>
<stop offset="0.05" stop-color="#020202"/>
<stop offset="0.09" stop-color="#0A0A0A"/>
<stop offset="0.11" stop-color="#181717"/>
<stop offset="0.13" stop-color="#2C2B2B"/>
<stop offset="0.15" stop-color="#464444"/>
<stop offset="0.17" stop-color="#656262"/>
<stop offset="0.18" stop-color="#757272"/>
<stop offset="0.23" stop-color="#615F5F"/>
<stop offset="0.31" stop-color="#464444"/>
<stop offset="0.4" stop-color="#333232"/>
<stop offset="0.49" stop-color="#272626"/>
<stop offset="0.58" stop-color="#242323"/>
<stop offset="0.72" stop-color="#1C1C1C"/>
<stop offset="0.92" stop-color="#080808"/>
<stop offset="1"/>
</linearGradient>
<linearGradient id="paint20_linear_4253_3832" x1="22.4482" y1="22.7704" x2="28.1711" y2="22.7704" gradientUnits="userSpaceOnUse">
<stop/>
<stop offset="0.05" stop-color="#020202"/>
<stop offset="0.09" stop-color="#0A0A0A"/>
<stop offset="0.11" stop-color="#181717"/>
<stop offset="0.13" stop-color="#2C2B2B"/>
<stop offset="0.15" stop-color="#464444"/>
<stop offset="0.17" stop-color="#656262"/>
<stop offset="0.18" stop-color="#757272"/>
<stop offset="0.23" stop-color="#615F5F"/>
<stop offset="0.31" stop-color="#464444"/>
<stop offset="0.4" stop-color="#333232"/>
<stop offset="0.49" stop-color="#272626"/>
<stop offset="0.58" stop-color="#242323"/>
<stop offset="0.72" stop-color="#1C1C1C"/>
<stop offset="0.92" stop-color="#080808"/>
<stop offset="1"/>
</linearGradient>
<linearGradient id="paint21_linear_4253_3832" x1="11.192" y1="17.217" x2="17.1574" y2="17.217" gradientUnits="userSpaceOnUse">
<stop stop-color="#53504F"/>
<stop offset="0.06" stop-color="#555251"/>
<stop offset="0.09" stop-color="#5D5A59"/>
<stop offset="0.12" stop-color="#6B6867"/>
<stop offset="0.14" stop-color="#7E7B7B"/>
<stop offset="0.16" stop-color="#979594"/>
<stop offset="0.18" stop-color="#B5B3B3"/>
<stop offset="0.28" stop-color="#8B8989"/>
<stop offset="0.39" stop-color="#615F5F"/>
<stop offset="0.51" stop-color="#3D3D3D"/>
<stop offset="0.63" stop-color="#222222"/>
<stop offset="0.75" stop-color="#0F0F0F"/>
<stop offset="0.87" stop-color="#030303"/>
<stop offset="1"/>
</linearGradient>
<linearGradient id="paint22_linear_4253_3832" x1="11.3239" y1="13.6097" x2="13.4467" y2="13.6097" gradientUnits="userSpaceOnUse">
<stop stop-color="#242323"/>
<stop offset="0.05" stop-color="#262525"/>
<stop offset="0.08" stop-color="#2E2D2D"/>
<stop offset="0.1" stop-color="#3C3B3B"/>
<stop offset="0.12" stop-color="#504F4F"/>
<stop offset="0.14" stop-color="#6A6868"/>
<stop offset="0.16" stop-color="#898888"/>
<stop offset="0.18" stop-color="#B5B3B3"/>
<stop offset="0.28" stop-color="#8B8989"/>
<stop offset="0.39" stop-color="#615F5F"/>
<stop offset="0.51" stop-color="#3D3D3D"/>
<stop offset="0.63" stop-color="#222222"/>
<stop offset="0.75" stop-color="#0F0F0F"/>
<stop offset="0.87" stop-color="#030303"/>
<stop offset="1"/>
</linearGradient>
<linearGradient id="paint23_linear_4253_3832" x1="9.50989" y1="16.686" x2="10.9074" y2="16.686" gradientUnits="userSpaceOnUse">
<stop stop-color="#53504F"/>
<stop offset="0.06" stop-color="#555251"/>
<stop offset="0.1" stop-color="#5D5A59"/>
<stop offset="0.13" stop-color="#6B6867"/>
<stop offset="0.16" stop-color="#7E7B7B"/>
<stop offset="0.18" stop-color="#999696"/>
<stop offset="0.25" stop-color="#848181"/>
<stop offset="0.4" stop-color="#615F5F"/>
<stop offset="0.54" stop-color="#464545"/>
<stop offset="0.69" stop-color="#333232"/>
<stop offset="0.84" stop-color="#272626"/>
<stop offset="1" stop-color="#242323"/>
</linearGradient>
<linearGradient id="paint24_linear_4253_3832" x1="16.858" y1="8.0792" x2="17.0098" y2="8.41529" gradientUnits="userSpaceOnUse">
<stop stop-color="white"/>
<stop offset="0.12" stop-color="#DCDADA"/>
<stop offset="0.91" stop-color="#373534"/>
</linearGradient>
<linearGradient id="paint25_linear_4253_3832" x1="14.9369" y1="11.5334" x2="20.5816" y2="11.5334" gradientUnits="userSpaceOnUse">
<stop offset="0.69" stop-color="white"/>
<stop offset="0.72" stop-color="#F9F9F9"/>
<stop offset="0.75" stop-color="#EAEAEA"/>
<stop offset="0.79" stop-color="#D0D0D0"/>
<stop offset="0.84" stop-color="#ADADAD"/>
<stop offset="0.88" stop-color="#7F7F7F"/>
<stop offset="0.93" stop-color="#474747"/>
<stop offset="0.98"/>
</linearGradient>
<linearGradient id="paint26_linear_4253_3832" x1="14.5663" y1="25.4177" x2="16.6344" y2="18.0572" gradientUnits="userSpaceOnUse">
<stop stop-color="#D5D3D3"/>
<stop offset="0.07" stop-color="#373534"/>
<stop offset="0.23" stop-color="#555352"/>
<stop offset="0.35" stop-color="#676464"/>
<stop offset="0.49" stop-color="#7F7C7C"/>
<stop offset="0.6" stop-color="#918E8E"/>
<stop offset="0.71" stop-color="#787575"/>
<stop offset="0.87" stop-color="#565353"/>
<stop offset="0.96" stop-color="#494646"/>
<stop offset="1" stop-color="#8C8888"/>
</linearGradient>
<clipPath id="clip0_4253_3832">
<rect width="40" height="28" fill="white" transform="translate(0 7)"/>
</clipPath>
</defs>
</svg>
