<svg width="48" height="48" viewBox="0 0 48 48" fill="none" xmlns="http://www.w3.org/2000/svg">
<g clip-path="url(#clip0_4253_39474)">
<path d="M12.4476 9.71506C13.7006 9.43566 19.4086 9.00624 24.4364 9C29.5429 9.00624 35.3052 9.43566 36.552 9.71506C37.1573 9.85008 39.0019 10.2625 39.0001 12.4164C39.002 15.1875 38.9302 29.1114 37.5155 31.0563C35.0649 34.4332 25.1479 38.7706 24.721 38.9539C24.5868 39.0148 24.4277 39.0155 24.2793 38.9539C23.8493 38.7724 13.5496 34.4263 11.4691 31.0243C10.1144 28.8093 10.0051 12.5777 10.0002 12.4157C10.0039 10.2623 11.8486 9.84984 12.4477 9.71494L12.4476 9.71506ZM24.2785 37.9063C24.2785 37.9092 24.2785 37.9092 24.2785 37.9063V37.9063Z" fill="black"/>
<path d="M12.4313 30.4367C14.1661 33.2675 22.9861 37.1611 24.4994 37.8102C25.9808 37.1517 34.5213 33.255 36.5988 30.3891C37.5267 29.1166 37.8718 18.6895 37.8787 12.4165C37.8718 11.5106 37.4475 11.0793 36.2993 10.8276C35.236 10.5847 29.6229 10.1427 24.4365 10.144C19.3313 10.1428 13.77 10.5847 12.6998 10.8276C11.5578 11.0794 11.1334 11.5106 11.1359 12.4165C11.1334 15.6516 11.4722 28.8642 12.4314 30.4367H12.4313Z" fill="white"/>
<path d="M24.0413 16.9133C23.8872 16.3778 22.7221 15.605 22.5405 15.7695C22.5475 15.5717 21.7 14.7907 21.3873 14.9269C21.4628 14.6903 20.3009 13.9589 20.0287 14.1641C19.9613 13.8672 18.2777 13.643 17.9439 13.9255C17.7517 13.7089 16.2583 14.073 16.2222 14.4503C15.947 14.2086 14.4238 15.8284 14.4213 16.6432C14.4213 16.9615 15.854 15.6763 16.7589 15.9596C18.2504 16.4166 20.1524 18.0162 21.7979 20.425C22.2578 21.0799 23.4354 21.3191 23.6937 20.2505C23.6937 20.2511 24.2016 17.4519 24.0413 16.9132V16.9133Z" fill="black"/>
<path d="M24.1674 31.8512C24.4071 31.4513 24.3327 30.9723 24.1361 30.7864C23.8578 30.5171 23.0609 30.7343 22.9985 30.4844C22.8413 29.9125 23.2456 29.7103 23.172 28.9111C23.1521 28.6342 22.6271 26.6128 22.4931 26.4319C22.382 26.2838 21.7112 26.0483 21.5296 25.9718C21.4191 25.8456 21.3411 25.693 21.3399 25.4312C22.211 25.1563 22.4463 25.9768 22.5718 25.9403C22.6979 25.9139 22.5075 25.0469 22.3983 24.9554C22.2885 24.858 21.2601 24.6283 21.1502 24.4462C21.0224 24.2535 20.548 22.4091 21.1502 22.3807C21.0966 22.3883 21.1752 22.2558 21.1346 22.269C19.8966 22.5566 19.0635 16.6233 16.0325 16.6439C13.016 16.6709 13.1732 21.061 13.3474 21.2205C13.6931 21.5287 14.1923 21.4164 14.216 21.697C14.3657 24.382 16.7508 27.2555 17.4697 27.005C17.904 26.8519 17.5346 25.4876 17.3274 25.4631C17.519 25.3765 17.3305 23.9722 17.1064 23.9376C17.2837 23.814 17.1271 22.5194 16.9011 22.5075C17.0141 22.4058 17.0022 21.5194 17.2325 21.0774C17.4017 20.7396 18.1486 20.5576 18.196 21.3793C17.7386 21.1615 17.7073 22.6462 17.8958 22.9049C18.0836 23.1516 19.2917 23.7198 19.665 24.033C19.6376 24.6665 20.2334 27.0973 20.6759 27.7998C21.1121 28.4872 21.5514 28.8978 21.7973 29.5319C22.0538 30.1603 21.8928 31.2369 22.4606 31.7247C22.7146 31.9382 24.0643 32.0336 24.1673 31.8508L24.1674 31.8512Z" fill="black"/>
<path d="M13.8216 21.9038C13.6756 21.662 13.0965 21.566 12.8893 21.6815C12.6422 21.8208 12.4605 23.7513 12.7158 23.811C12.4924 23.9264 12.7707 25.3911 13.0478 25.3999C12.8282 25.4877 13.2831 26.9242 13.5533 26.8776C13.3935 27.098 14.1306 28.2656 14.327 28.1972C14.3969 29.4026 17.9932 29.9758 17.9128 28.9601C17.8734 28.4729 17.3355 29.1905 14.9111 25.4005C13.8478 23.7179 14.0275 22.2659 13.8216 21.9036V21.9038ZM24.9418 16.9298C25.1901 16.3723 26.221 15.6308 26.3952 15.8016C26.3952 15.5976 27.2426 14.8166 27.5484 14.9591C27.4798 14.7154 28.6424 13.9841 28.9225 14.1963C28.9812 13.893 30.6648 13.6689 30.9918 13.9577C31.1909 13.7348 32.6842 14.0989 32.7135 14.4819C32.9955 14.2339 34.5188 15.8536 34.5144 16.6754C34.5213 16.9875 33.0885 15.7017 32.1924 15.9761C30.6922 16.4419 28.7902 18.0422 27.1378 20.4416C26.6847 21.1065 25.5328 21.345 25.2738 20.2665C25.2732 20.2665 24.6878 17.4772 24.9418 16.9298Z" fill="black"/>
<path d="M24.8158 31.8675C24.583 31.4456 24.6255 30.9816 24.8314 30.7871C25.1004 30.5271 25.8817 30.7601 25.9528 30.5172C26.1013 29.9383 25.6963 29.7362 25.7631 28.9439C25.79 28.6601 26.3148 26.6392 26.442 26.4647C26.5606 26.3096 27.2308 26.0741 27.4055 26.0039C27.5228 25.8714 27.6002 25.7183 27.6108 25.4476C26.7303 25.1814 26.495 26.0026 26.3627 25.9725C26.2441 25.9392 26.4338 25.0722 26.5362 24.9712C26.6534 24.8826 27.6663 24.6378 27.7999 24.4784C27.9378 24.2926 28.3934 22.4349 27.7999 22.3973C27.8449 22.4142 27.7662 22.2811 27.8155 22.2855C29.0449 22.5825 29.8779 16.6486 32.9176 16.6762C35.9255 16.6962 35.7682 21.0865 35.5873 21.2528C35.2491 21.5548 34.7492 21.4424 34.7342 21.7293C34.5763 24.4081 32.1906 27.2815 31.4642 27.021C31.0368 26.8772 31.4062 25.5137 31.6065 25.4797C31.4219 25.4031 31.6096 23.9981 31.8275 23.9705C31.6571 23.8399 31.8144 22.5454 32.0334 22.524C31.9279 22.4317 31.9391 21.5447 31.7176 21.1096C31.5403 20.7649 30.7928 20.5829 30.7542 21.4116C31.2022 21.1875 31.2341 22.6715 31.0381 22.9208C30.8571 23.1763 29.649 23.7445 29.2696 24.0647C29.304 24.6919 28.708 27.1227 28.2743 27.8151C27.8294 28.5119 27.3901 28.9232 27.1373 29.5478C26.8858 30.1913 26.7686 31.4513 26.4584 31.7406C26.1801 31.9955 24.9196 32.0626 24.8159 31.8675H24.8158ZM24.4676 33.0911C25.4124 33.1086 26.2385 32.4337 26.0788 32.2485C25.7487 31.9045 25.1851 32.4143 24.5149 32.1217C23.8509 32.3986 23.3018 31.9058 22.8724 32.2328C22.626 32.4112 23.5295 33.0779 24.4674 33.0911H24.4676Z" fill="black"/>
<path d="M35.1298 21.9351C35.2671 21.6865 35.8455 21.6545 36.0621 21.7763C36.3004 21.9081 36.482 23.7758 36.2355 23.8418C36.4501 23.951 36.1718 25.4157 35.8879 25.4157C36.1138 25.5125 35.6588 26.9488 35.3981 26.9092C35.5491 27.1227 34.8121 28.291 34.6081 28.2282C34.5444 29.4279 30.9487 30.0005 31.0223 28.9916C31.0685 28.4975 31.6064 29.2151 34.0233 25.4163C35.0947 23.7433 34.9144 22.2918 35.1296 21.9352L35.1298 21.9351Z" fill="black"/>
</g>
<defs>
<clipPath id="clip0_4253_39474">
<rect width="29" height="30" fill="white" transform="matrix(-1 0 0 1 39 9)"/>
</clipPath>
</defs>
</svg>
