<svg width="48" height="48" viewBox="0 0 48 48" fill="none" xmlns="http://www.w3.org/2000/svg">
<g clip-path="url(#clip0_4253_3919)">
<path d="M33.1552 21.5099C31.4896 17.9217 29.3878 14.106 27.24 10.7058C27.1322 10.5335 27.0702 10.4579 26.8431 10.4579H21.6426C21.3929 10.4579 21.262 10.565 21.1761 10.7058C19.0384 14.2125 17.0741 17.8625 15.2808 21.5596C15.2141 21.6968 15.2069 21.8129 15.301 22.0059C16.8257 25.143 19.0648 29.3926 21.2407 32.8598C21.3487 33.0331 21.4665 33.0591 21.608 33.0591H26.9102C27.0804 33.0591 27.2129 33.0145 27.3075 32.8598C29.2252 29.7292 31.5656 25.3645 33.1849 21.9566C33.248 21.8258 33.2463 21.7065 33.1551 21.5099H33.1552ZM33.0087 21.954C31.4207 25.3293 29.0897 29.6505 27.21 32.751C27.1174 32.9032 26.9872 32.9463 26.8216 32.9463H21.6928C21.5545 32.9463 21.4398 32.9214 21.3327 32.751C19.2009 29.3171 16.9708 25.1094 15.4764 22.003C15.3843 21.8118 15.3912 21.6968 15.4567 21.5612C17.214 17.9004 19.1401 14.2872 21.2353 10.8146C21.3192 10.6754 21.4481 10.5692 21.6927 10.5692H26.7916C27.0131 10.5692 27.0745 10.6445 27.1814 10.8146C29.2856 14.1817 31.3469 17.959 32.9798 21.5124C33.069 21.7067 33.0697 21.8245 33.0086 21.954H33.0087Z" fill="url(#paint0_linear_4253_3919)"/>
<path d="M33.0535 21.4928C31.4065 17.9343 29.3282 14.1501 27.2055 10.7777C27.0985 10.6067 27.0369 10.5321 26.8137 10.5321H21.6717C21.4253 10.5321 21.2958 10.6377 21.2108 10.7777C19.0979 14.2561 17.1553 17.8755 15.3832 21.5427C15.3175 21.679 15.31 21.7933 15.4029 21.9851C16.9105 25.0972 19.1586 29.3106 21.3091 32.7496C21.4168 32.921 21.5325 32.9464 21.6716 32.9464H26.8425C27.0113 32.9464 27.1422 32.9031 27.2348 32.7496C29.1314 29.6446 31.4814 25.3153 33.0829 21.9361C33.1444 21.8057 33.143 21.6873 33.0534 21.493L33.0535 21.4928ZM24.2526 28.0311C24.2334 27.9925 24.2144 27.9529 24.194 27.9139V28.3519C23.1142 26.424 21.7902 23.8233 20.8871 21.7397C21.8471 19.5943 23.0659 17.1753 24.2625 14.9464V15.5064C24.2728 15.487 24.2821 15.4675 24.2921 15.4477C25.1255 17.204 26.3626 19.913 27.0584 21.6509C26.3505 23.3202 25.0478 26.4239 24.2527 28.0309L24.2526 28.0311Z" fill="url(#paint1_linear_4253_3919)"/>
<path d="M26.6992 10.5887C26.9237 10.5887 26.9838 10.6637 27.0919 10.8348C29.2149 14.2067 31.3493 18.0479 32.9966 21.607C33.0337 21.6873 33.112 21.754 33.1204 21.8148C33.1344 21.7251 33.1154 21.627 33.0533 21.4928C31.4062 17.9343 29.3279 14.1501 27.2053 10.7777C27.0982 10.6067 27.0365 10.5321 26.8134 10.5321L26.6992 10.5887Z" fill="url(#paint2_linear_4253_3919)"/>
<path d="M26.8831 21.6734C26.0826 19.7369 25.1821 17.7514 24.2626 15.8051V15.0248C25.3486 17.0063 26.9146 20.0988 27.6149 21.6734H26.8831Z" fill="black"/>
<path d="M26.8831 21.6733H27.6149C26.5836 23.9069 25.4406 26.0489 24.1937 28.3499V27.5495C25.1694 25.6127 26.0225 23.7769 26.8831 21.6732V21.6733Z" fill="#3C362E"/>
<path d="M20.8615 21.6825H21.5534C22.3246 23.5988 23.1846 25.5443 24.1938 27.5496V28.35C23.1061 26.4138 21.771 23.7771 20.8616 21.6827L20.8615 21.6825Z" fill="url(#paint3_linear_4253_3919)"/>
<path d="M20.8615 21.6825C21.8281 19.5268 23.0577 17.0965 24.2625 14.8572V15.8051C23.2342 17.8306 22.3148 19.7955 21.5534 21.6827H20.8615V21.6825Z" fill="url(#paint4_linear_4253_3919)"/>
<path d="M26.5273 10.8269C24.7749 13.7882 22.4627 18.1123 20.8617 21.6825C21.7713 23.7769 23.1062 26.4137 24.194 28.3499L24.1248 28.4781C23.0372 26.5426 21.6326 23.7771 20.7238 21.6825C22.3447 18.0668 24.6978 13.6819 26.4583 10.7184C26.5349 10.7184 26.573 10.7499 26.5272 10.8269H26.5273Z" fill="url(#paint5_linear_4253_3919)"/>
<path d="M20.7235 21.6825C21.6323 23.7769 23.0371 26.5427 24.1245 28.4782C23.3931 29.8616 22.473 31.4041 21.7016 32.6465C21.6284 32.6215 21.5684 32.5712 21.5044 32.4682C19.3422 29.022 17.2482 25.0557 15.7291 21.9293C15.6816 21.8306 15.662 21.7544 15.66 21.6825H20.7235Z" fill="#FFF9E8"/>
<path d="M21.84 10.79H26.3003C26.3789 10.79 26.3893 10.805 26.3893 10.8369L26.4581 10.7184H21.8696C21.6716 10.7184 21.4905 10.825 21.4049 10.9649C21.4841 10.8834 21.5931 10.7899 21.8398 10.7899L21.84 10.79Z" fill="url(#paint6_linear_4253_3919)"/>
<path d="M32.826 21.6825C32.9647 21.6825 33.0253 21.6304 32.9347 21.4359C31.2749 17.8593 29.2892 14.2256 27.1504 10.8371C27.0423 10.6656 26.893 10.6793 26.7745 10.8573C26.8539 10.8171 26.9132 10.801 26.9922 10.9259C29.1381 14.3042 31.1169 17.9488 32.7769 21.5247C32.8245 21.6332 32.8262 21.6825 32.8262 21.6825H32.826Z" fill="white"/>
<path d="M32.806 21.8599C31.1895 25.2535 29.0229 29.3476 27.1139 32.4682C27.0626 32.5535 27.0317 32.5737 27.0182 32.5619C27.0095 32.5543 27.022 32.5384 27.065 32.4682C28.9737 29.3474 31.1396 25.2535 32.7568 21.8599C32.7853 21.7999 32.8059 21.7389 32.8259 21.7413C32.8471 21.7444 32.8328 21.804 32.8059 21.8599H32.806Z" fill="url(#paint7_linear_4253_3919)"/>
<path d="M27.429 32.8872C29.5682 29.3975 31.52 25.953 33.3039 22.2753C33.3371 22.2072 33.37 22.1399 33.4018 22.0738C33.4682 21.9374 33.5323 21.7882 33.5306 21.6536L33.3576 21.6798C33.3576 21.8088 33.2958 21.9477 33.2301 22.0834C33.1979 22.15 33.1652 22.2169 33.1317 22.2853C31.3483 25.9626 29.4728 29.4571 27.3334 32.9464C27.2478 33.0887 27.1472 33.1349 27.1472 33.1349C27.1472 33.1349 27.2939 33.081 27.429 32.8872Z" fill="url(#paint8_linear_4253_3919)"/>
<path d="M33.5304 21.6536C33.5304 21.4445 33.4689 21.2292 33.3781 21.0433C31.9163 18.0247 29.6717 13.7873 27.563 10.4585C27.402 10.2038 27.1165 10.0963 26.6401 10.0963H21.661C21.421 10.0963 21.2972 10.2001 21.2136 10.3347C19.0359 13.8613 17.0408 17.4728 15.2374 21.2053C15.174 21.3367 15.0087 21.6343 15.0087 21.8153L15.0689 21.7878C15.0689 21.6603 15.1308 21.5215 15.1967 21.3857C17.0086 17.6345 18.9696 14.0755 21.1502 10.5225C21.2357 10.3827 21.3633 10.2769 21.6113 10.2769H26.8129C26.9798 10.2769 27.2253 10.3114 27.3328 10.4832C29.4854 13.9254 31.7311 18.1359 33.2389 21.2477C33.3319 21.44 33.357 21.562 33.357 21.6797L33.5301 21.6536H33.5304Z" fill="url(#paint9_linear_4253_3919)"/>
<path d="M35.0514 36.5854H35.1615C35.2538 36.401 35.4349 36.2868 35.6564 36.2868H36.4368V39.9181H37.6144V36.2868H38.3951C38.6169 36.2868 38.7981 36.401 38.8898 36.5854H39V35.7945H35.0514V36.5854ZM35.1043 39.4219H33.8451V35.7948H32.4189V35.9051C32.5733 36.0064 32.6683 36.1833 32.6683 36.4014V39.9183H35.7057V39.1261H35.5996C35.5072 39.3109 35.3264 39.4221 35.1043 39.4221V39.4219ZM30.8526 35.9051C31.0075 36.0064 31.0983 36.1833 31.0983 36.4014V37.9853C31.0983 38.7841 30.8249 39.2206 30.1012 39.2206C29.3776 39.2206 29.1073 38.7841 29.1073 37.9853V35.7948H27.6811V35.9051C27.8355 36.0064 27.9298 36.1833 27.9298 36.4014V38.1987C27.9298 39.2014 28.5538 39.9999 29.7777 39.9999C31.1303 39.9999 31.6906 39.388 31.6906 38.0473V35.7946H30.8523V35.905L30.8526 35.9051ZM27.4475 39.4995L25.8659 35.7948H24.9503L23.1636 39.9183H23.8547L24.2389 38.9744H25.9724L26.336 39.9183H27.7547V39.8072C27.6247 39.7567 27.5086 39.6418 27.4475 39.4995ZM24.4428 38.4773L25.1262 36.8735L25.7761 38.4773H24.4428ZM21.8874 35.9051C22.0434 36.0064 22.1338 36.1833 22.1338 36.4014V38.834L20.2731 35.7945H18.6872V35.9048C18.842 36.0063 18.9366 36.1831 18.9366 36.4012V39.9181H19.5251V36.8814L21.3894 39.9181H22.7263V35.7946H21.8876V35.9052L21.8874 35.9051ZM17.514 39.4219H16.1327V38.0385H17.694V37.5414H16.1327V36.2869H17.4647C17.6823 36.2869 17.8595 36.3815 17.9592 36.5371H18.0659V35.7949H14.7098V35.9052C14.8643 36.0065 14.9551 36.1834 14.9551 36.4015V39.9183H18.1194V39.1548H18.0088C17.9169 39.3273 17.7569 39.4219 17.514 39.4219ZM14.0965 39.5573L13.0868 38.0343C13.5893 37.8754 13.9822 37.4523 13.9822 36.9104C13.9822 36.1958 13.4421 35.7946 12.6087 35.7946H10V35.905C10.1554 36.0063 10.2497 36.1831 10.2497 36.4012V39.9181H11.4267V38.1661H11.8683L12.841 39.9181H14.411V39.8069C14.2824 39.7593 14.1722 39.6718 14.0964 39.5571L14.0965 39.5573ZM11.938 37.7104H11.427V36.2542H11.938C12.3654 36.2542 12.7352 36.4794 12.7352 36.968C12.7352 37.4603 12.3945 37.7104 11.938 37.7104Z" fill="black"/>
</g>
<defs>
<linearGradient id="paint0_linear_4253_3919" x1="24.2268" y1="10.1868" x2="24.2268" y2="33.2871" gradientUnits="userSpaceOnUse">
<stop offset="0.12" stop-color="#EFC139"/>
<stop offset="0.34" stop-color="#F9DD3E"/>
<stop offset="0.48" stop-color="#F8DA3E"/>
<stop offset="0.61" stop-color="#F5D13C"/>
<stop offset="0.74" stop-color="#F0C23A"/>
<stop offset="0.76" stop-color="#EFC139"/>
<stop offset="1" stop-color="#F9DD3E"/>
</linearGradient>
<linearGradient id="paint1_linear_4253_3919" x1="16.8886" y1="18.2981" x2="31.5973" y2="25.1317" gradientUnits="userSpaceOnUse">
<stop offset="0.86" stop-color="#CDCDCD"/>
<stop offset="1" stop-color="#595031"/>
</linearGradient>
<linearGradient id="paint2_linear_4253_3919" x1="26.3505" y1="10.8323" x2="33.7562" y2="21.3679" gradientUnits="userSpaceOnUse">
<stop/>
<stop offset="0.01" stop-color="#413500"/>
<stop offset="0.03" stop-color="#5F512A"/>
<stop offset="0.04" stop-color="#736540"/>
<stop offset="0.06" stop-color="#82744F"/>
<stop offset="0.08" stop-color="#8B7D59"/>
<stop offset="0.1" stop-color="#8E805C"/>
<stop offset="0.5" stop-color="#B8AD91"/>
<stop offset="0.61" stop-color="#B4A98C"/>
<stop offset="0.72" stop-color="#A99D7E"/>
<stop offset="0.84" stop-color="#988B69"/>
<stop offset="0.89" stop-color="#8E805C"/>
<stop offset="0.96" stop-color="#8E805C"/>
</linearGradient>
<linearGradient id="paint3_linear_4253_3919" x1="22.525" y1="21.6847" x2="22.525" y2="28.3519" gradientUnits="userSpaceOnUse">
<stop offset="0.25" stop-color="#DCDAC4"/>
<stop offset="0.54" stop-color="#C5C0AC"/>
<stop offset="0.77" stop-color="#BEB8A4"/>
<stop offset="0.82" stop-color="#AFAA97"/>
</linearGradient>
<linearGradient id="paint4_linear_4253_3919" x1="22.8465" y1="21.5701" x2="22.2724" y2="15.0328" gradientUnits="userSpaceOnUse">
<stop offset="0.59" stop-color="#867A5C"/>
<stop offset="0.69" stop-color="#6A6044"/>
</linearGradient>
<linearGradient id="paint5_linear_4253_3919" x1="23.6335" y1="28.4802" x2="23.6335" y2="10.7189" gradientUnits="userSpaceOnUse">
<stop offset="0.38" stop-color="white"/>
<stop offset="0.39" stop-color="#F2EFE8"/>
</linearGradient>
<linearGradient id="paint6_linear_4253_3919" x1="21.403" y1="10.8422" x2="26.4561" y2="10.8422" gradientUnits="userSpaceOnUse">
<stop stop-color="#C6C7C9"/>
<stop offset="0.44" stop-color="#D3D2CF"/>
<stop offset="1" stop-color="#E9E4DA"/>
</linearGradient>
<linearGradient id="paint7_linear_4253_3919" x1="25.6231" y1="28.7269" x2="34.23" y2="25.6056" gradientUnits="userSpaceOnUse">
<stop stop-color="white"/>
<stop offset="0.47" stop-color="#FBFAF7"/>
<stop offset="0.76" stop-color="#F1EEE7"/>
<stop offset="1" stop-color="#E4DED1"/>
</linearGradient>
<linearGradient id="paint8_linear_4253_3919" x1="27.1449" y1="27.3962" x2="33.5286" y2="27.3962" gradientUnits="userSpaceOnUse">
<stop stop-color="#DBAD37"/>
<stop offset="0.04" stop-color="#DBAD37"/>
<stop offset="0.4" stop-color="#C59935"/>
<stop offset="0.74" stop-color="#BB9035"/>
<stop offset="1" stop-color="#A67D32"/>
</linearGradient>
<linearGradient id="paint9_linear_4253_3919" x1="14.3664" y1="19.422" x2="31.7364" y2="14.7852" gradientUnits="userSpaceOnUse">
<stop offset="0.2" stop-color="#F9DD3E"/>
<stop offset="0.27" stop-color="#F3D73E"/>
<stop offset="0.34" stop-color="#E6C83D"/>
<stop offset="0.42" stop-color="#D4B33A"/>
<stop offset="0.49" stop-color="#BE9936"/>
<stop offset="0.56" stop-color="#A67D32"/>
</linearGradient>
<clipPath id="clip0_4253_3919">
<rect width="29" height="32" fill="white" transform="translate(10 8)"/>
</clipPath>
</defs>
</svg>
