<svg width="48" height="48" viewBox="0 0 48 48" fill="none" xmlns="http://www.w3.org/2000/svg">
<path fill-rule="evenodd" clip-rule="evenodd" d="M24.5007 34.9247C24.4714 34.9247 24.4421 34.9221 24.4114 34.9221C25.5352 33.6399 28.322 30.1448 28.6934 26.6204H38.3892L38.4291 26.6084C37.099 31.3551 31.3684 34.9234 24.4993 34.9234L24.5007 34.9247ZM10.5708 26.6217H22.3011C25.2476 28.5137 24.4367 33.3323 24.0759 34.9194C17.4013 34.7769 11.8797 31.2645 10.5708 26.6217ZM24.3409 14.0806C23.2864 15.1777 20.9496 17.9805 20.1521 21.9975H10.6907C12.2086 17.4865 17.7315 14.1325 24.3409 14.0806ZM24.7749 14.0806C31.3298 14.1712 36.7994 17.5118 38.3093 21.9975H26.2422C23.984 20.2759 24.522 15.6331 24.7749 14.0806ZM24.5007 12.2698C14.6798 12.2685 6.72025 17.7448 6.72025 24.5007C6.72025 31.2565 14.6798 36.7315 24.5007 36.7315C34.3216 36.7315 42.2784 31.2552 42.2784 24.5007C42.2784 17.7462 34.3176 12.2685 24.5007 12.2685V12.2698Z" fill="black"/>
<path fill-rule="evenodd" clip-rule="evenodd" d="M38.7846 25.177C38.7846 25.4673 38.541 25.683 38.2414 25.683H37.9125V23.6165C37.9125 23.4874 37.8007 23.3795 37.6595 23.3795H33.4534V25.683H32.5614V22.8736H38.039C38.4598 22.8736 38.7846 23.2011 38.7846 23.6032L38.782 25.177H38.7846ZM10.2353 25.1744L15.3175 25.177C15.468 25.177 15.5718 25.0865 15.5705 24.9573V24.5366H10.2406V23.6046C10.2406 23.1958 10.5868 22.8749 11.0089 22.8749H16.4599V23.3809H11.3484C11.186 23.3809 11.1327 23.4781 11.1327 23.6046L11.1274 24.0306H16.4626V24.9573C16.4626 25.3688 16.1231 25.683 15.6957 25.683H10.7772C10.4776 25.683 10.2353 25.4646 10.2353 25.1744ZM18.0497 24.94C18.0497 25.0678 18.1615 25.1757 18.3067 25.1757H23.3716V25.6816H17.9259C17.5011 25.6816 17.1576 25.3554 17.1576 24.952V23.6019C17.1576 23.1998 17.5011 22.8723 17.9259 22.8723H23.3716V23.3782H18.3067C18.1615 23.3782 18.0497 23.4887 18.0497 23.6152V24.94ZM24.96 22.8723V25.6843H24.0639V22.8723H24.96ZM31.8677 23.6019V24.952C31.8677 25.3554 31.5241 25.6816 31.1007 25.6816H26.4246C25.9999 25.6816 25.6564 25.3554 25.6564 24.952V23.6019C25.6564 23.1998 25.9999 22.8723 26.4246 22.8723H31.1007C31.5241 22.8723 31.8677 23.1998 31.8677 23.6019ZM30.7186 23.3782H26.8041C26.659 23.3782 26.5458 23.4861 26.5458 23.6139V24.9387C26.5458 25.0678 26.659 25.1757 26.8041 25.1757H30.7186C30.8637 25.1757 30.9769 25.0678 30.9756 24.94L30.9782 23.6139C30.9756 23.4861 30.8637 23.3782 30.7186 23.3782Z" fill="white"/>
</svg>
