<svg width="48" height="48" viewBox="0 0 48 48" fill="none" xmlns="http://www.w3.org/2000/svg">
<g clip-path="url(#clip0_4253_39620)">
<path d="M20.8443 11.0491C24.352 10.9255 27.8633 11.0482 31.3649 11.2731C31.7335 11.3051 32.107 11.3025 32.4699 11.3801C32.6663 11.4274 32.8785 11.5024 32.9933 11.6808C33.0981 11.875 33.1003 12.1016 33.1275 12.3155C33.2108 13.3662 33.2353 14.4214 33.3138 15.4721C33.1621 15.4905 33.0104 15.4673 32.8588 15.4625C30.1581 15.3226 27.4552 15.2065 24.7501 15.203C23.3491 15.2069 21.9463 15.1933 20.5467 15.2613C20.2074 15.3112 19.8234 15.4248 19.6274 15.7272C20.6865 15.9153 21.7434 16.1182 22.802 16.3098C26.3106 16.9665 29.8218 17.6087 33.3304 18.2644C33.3274 18.9299 33.3287 19.5953 33.33 20.2607C31.357 19.9341 29.3874 19.5817 27.4157 19.2446C23.1737 18.5134 18.9331 17.7722 14.6898 17.048C14.6981 16.3094 14.7297 15.5712 14.745 14.8321C14.7718 14.2469 14.7551 13.6538 14.8875 13.0791C14.9765 12.6736 15.1413 12.266 15.4486 11.9762C15.979 11.4511 16.7461 11.3033 17.4602 11.2293C18.5855 11.1249 19.7155 11.0907 20.8443 11.0491ZM14.6696 18.0198C20.747 19.1411 26.8222 20.2813 32.8987 21.4092C33.0315 21.4416 33.1735 21.4443 33.3011 21.4929L33.3164 21.528C33.2831 22.5248 33.2638 23.5225 33.2279 24.5193C33.2046 25.1344 33.1398 25.7779 32.8233 26.3197C32.484 26.8799 31.8519 27.1898 31.2263 27.3069C30.3045 27.48 29.3629 27.4914 28.4292 27.5427C24.4116 27.725 20.3858 27.6242 16.3748 27.3481C16.0544 27.3257 15.7282 27.32 15.417 27.231C15.2557 27.1802 15.0891 27.0982 14.9979 26.9492C14.9002 26.7536 14.8941 26.5305 14.8699 26.3175C14.784 25.1545 14.7384 23.9894 14.6775 22.8251C16.7465 22.9566 18.8191 23.0302 20.8921 23.0763C22.8936 23.1087 24.8952 23.1083 26.8967 23.128C27.3285 23.146 27.7953 23.0636 28.1228 22.7602C28.1706 22.7054 28.2481 22.6546 28.2402 22.5726C27.3381 22.4372 26.4412 22.2688 25.5409 22.1207C21.9183 21.5013 18.2939 20.8876 14.6718 20.2647C14.6674 19.5164 14.6727 18.7681 14.6696 18.0198Z" fill="#19191B"/>
<path d="M30.7909 32.8825V34.2681H26.3836V33.8778C26.3836 33.2728 26.4809 32.8727 27.1912 32.8727H30.7909V32.8825ZM26.9187 32.0237C25.761 32.0237 25.2259 32.6385 25.2259 33.6338V36.4247H26.3836V35.1366H30.7909V36.4149H31.9487V32.0237H26.9187ZM33.3789 32.0237V32.8825H36.1031V36.4149H37.2608V32.8825H39.985V32.0237H33.3789ZM17.7928 34.7267C17.7928 35.3415 17.9193 35.5659 18.6003 35.5659H23.4357V36.4247H18.3279C17.1701 36.4247 16.6253 35.8977 16.6253 34.9121V32.0237H23.426V32.8825H17.783V33.7412H23.1925V34.5853H17.783V34.7316L17.7928 34.7267ZM9.50352 33.5558C9.14354 33.5265 9.08516 33.3996 9.08516 33.185C9.08516 32.9898 9.19218 32.8727 9.4646 32.8727H14.8059V32.0237H9.32839C8.55006 32.0237 8.01495 32.3262 8.01495 33.1947C8.01495 34.0632 8.41385 34.3657 9.30893 34.4438L13.6384 34.8048C13.9692 34.8341 14.0665 34.9414 14.0665 35.1854C14.0665 35.4098 13.9692 35.5562 13.6676 35.5562H8.229V36.4149H13.7552C14.7086 36.4149 15.127 36.0343 15.127 35.1366C15.127 34.3169 14.7475 33.9851 13.8233 33.9071L9.50352 33.5558Z" fill="#19191B"/>
</g>
<defs>
<clipPath id="clip0_4253_39620">
<rect width="32" height="25.4247" fill="white" transform="translate(8 11)"/>
</clipPath>
</defs>
</svg>
