<svg width="48" height="48" viewBox="0 0 48 48" fill="none" xmlns="http://www.w3.org/2000/svg">
<g clip-path="url(#clip0_4253_39648)">
<path d="M31.0288 22.9308C31.0288 22.9308 29.7101 23.3119 27.1592 24.8794C24.8724 26.287 23.9757 27.2328 23.9757 27.2328L16.9207 22.3571C16.9207 22.3571 19.8887 20.1744 22.3687 21.8461L25.6954 24.1282L26.1012 23.8613L16.9221 17.4305C16.9221 17.4305 18.2413 17.0489 20.7907 15.4824C23.0789 14.0742 23.9757 13.128 23.9757 13.128L31.0302 18.0037C31.0302 18.0037 28.0626 20.1863 25.5822 18.5146L22.2554 16.2321L21.8497 16.4985L31.0288 22.9308Z" fill="#E20A17"/>
<path d="M25.5649 29.5821H20.1953V30.7762H22.789L20.104 33.2828V34.2833H25.5549V33.0844H22.8428L25.5649 30.584V29.5821Z" fill="#003399"/>
<path d="M17.0338 34.4035C19.1812 34.4035 19.7312 33.855 19.7312 32.6457V29.582H18.03V32.4625C18.03 32.9464 17.6161 33.2346 17.0338 33.2346C16.4282 33.2346 16.0386 32.9449 16.0386 32.4549V29.582H14.3374V32.6457C14.3374 33.855 14.8873 34.4035 17.0338 34.4035Z" fill="#003399"/>
<path d="M28.6821 34.4035C30.8295 34.4035 31.3795 33.855 31.3795 32.6457V29.582H29.6778V32.4625C29.6778 32.9464 29.2634 33.2346 28.6821 33.2346C28.0765 33.2346 27.6855 32.9449 27.6855 32.4549V29.582H25.9847V32.6457C25.9847 33.855 26.5347 34.4035 28.6821 34.4035Z" fill="#003399"/>
<path d="M39.872 29.5821H38.098V34.2832H39.872V29.5821Z" fill="#003399"/>
<path d="M37.8278 29.5821H35.4939L33.6053 31.2044V29.5821H31.8308V34.2833H33.6053V32.6158L35.3593 34.2833H37.7427L35.1485 31.8713L37.8278 29.5821Z" fill="#003399"/>
<path d="M10.1442 30.8811C10.1442 30.5177 10.6827 30.5058 10.8644 30.5058C11.0466 30.5058 11.4572 30.5785 11.7364 31.0367H13.7426C13.7426 30.1509 12.9029 29.4463 10.8706 29.4463C8.61329 29.4463 8.22891 30.4368 8.22891 31.0058C8.22891 32.0547 9.04145 32.362 10.8083 32.5504C10.9596 32.5661 11.8787 32.5228 11.8787 32.9648C11.8787 33.2921 11.362 33.314 11.1717 33.314C10.9829 33.314 10.6294 33.2831 10.3373 32.7631H8.12805C8.12805 33.7954 8.82404 34.392 11.1684 34.392C13.3277 34.392 13.901 33.5104 13.901 32.8401C13.901 32.1894 13.4543 31.5271 11.6132 31.2917C10.8454 31.1922 10.1442 31.1504 10.1442 30.8811Z" fill="#003399"/>
</g>
<defs>
<clipPath id="clip0_4253_39648">
<rect width="32" height="21.5315" fill="white" transform="translate(8 13)"/>
</clipPath>
</defs>
</svg>
