<svg width="48" height="48" viewBox="0 0 48 48" fill="none" xmlns="http://www.w3.org/2000/svg">
<g clip-path="url(#clip0_4253_39664)">
<path fill-rule="evenodd" clip-rule="evenodd" d="M24.0003 39.0943C32.3103 39.0943 39.0943 32.3122 39.0943 24.0047C39.0943 15.6877 32.3103 8.90564 24.0003 8.90564C15.6808 8.90564 8.90564 15.6877 8.90564 24.0047C8.90564 32.3122 15.6808 39.0943 24.0003 39.0943Z" fill="#972930"/>
<path fill-rule="evenodd" clip-rule="evenodd" d="M23.9733 37.8683C31.613 37.8683 37.8595 31.6244 37.8595 23.9871C37.8595 16.3317 31.613 10.0878 23.9733 10.0878C16.316 10.0878 10.0702 16.3317 10.0702 23.9871C10.0702 31.6244 16.316 37.8683 23.9733 37.8683Z" fill="white"/>
<path fill-rule="evenodd" clip-rule="evenodd" d="M24.0003 36.9073C31.1369 36.9073 36.9681 31.0774 36.9681 23.9339C36.9681 16.7903 31.1369 10.9517 24.0003 10.9517C16.8542 10.9517 11.0231 16.7903 11.0231 23.9339C11.0231 31.0774 16.8542 36.9073 24.0003 36.9073Z" fill="#972930"/>
<path fill-rule="evenodd" clip-rule="evenodd" d="M24.5359 12.3825L24.7081 35.5773C25.0258 35.5686 25.3233 35.5191 25.6322 35.4834L25.5382 24.7865H26.5562C26.7329 24.8216 26.7736 24.898 26.7911 25.0214L26.8538 35.2328C27.1889 35.162 27.4627 35.0743 27.7622 34.9509L27.6525 24.8178C27.5824 24.6148 27.4483 24.5102 27.2453 24.4576C27.4214 24.4044 27.655 24.2747 27.6995 24.0191V13.4162C27.6112 13.0898 27.4389 12.9332 26.9008 12.774C26.0983 12.5892 25.6203 12.4796 24.5359 12.3825ZM24.019 12.3982C22.7486 12.3982 21.9379 12.5736 21.012 12.7584V13.7137C21.4173 13.5816 21.6535 13.5427 22.077 13.4632C22.1296 20.8185 22.0958 28.1105 22.1396 35.4834C22.4134 35.5279 22.8926 35.5842 23.1576 35.593C23.1489 28.1675 23.1576 20.7308 23.1576 13.3222C23.4753 13.3134 23.6745 13.2821 24.019 13.2909C24.019 12.982 24.019 12.6982 24.019 12.3982ZM20.2446 12.9933C19.6795 13.1787 19.3093 13.361 18.8507 13.5728L17.9893 33.9955L18.8507 34.4497L18.9917 29.9705L20.2759 30.456C20.3373 31.999 20.3931 33.5395 20.4638 35.0918C20.7721 35.1889 21.0408 35.2647 21.3409 35.3268C20.9788 27.9445 20.6061 20.3756 20.2446 12.9933ZM25.5539 13.4005L26.5875 13.5885C26.6853 13.606 26.7404 13.648 26.7755 13.7451L26.8381 23.6745C26.8118 23.7892 26.7893 23.8405 26.6658 23.8938H25.5852L25.5539 13.4005ZM29.297 13.6668L28.7802 34.5437C29.0978 34.4027 29.3866 34.2411 29.7042 34.0738L29.7512 29.9705L30.8475 29.4537L31.1294 33.1185C31.4025 32.8716 31.6707 32.6361 31.9438 32.398L30.7222 14.5751C30.2461 14.2137 29.7819 13.9405 29.297 13.6668ZM17.958 14.1053C16.7759 14.9078 16.0799 15.34 15.0919 16.5485V18.005L15.922 16.9557L16.0316 32.539C16.2966 32.8128 16.5516 33.0226 16.94 33.3221C16.8867 27.6601 16.8435 21.7494 16.799 16.0786C17.3109 15.6288 17.5257 15.4171 17.958 15.1703V14.1053ZM19.5868 17.3003L20.2289 29.4693L19.023 28.9368L19.5868 17.3003ZM30.0018 18.8038L30.7379 28.4826L29.7199 28.9995L30.0018 18.8038Z" fill="white"/>
</g>
<defs>
<clipPath id="clip0_4253_39664">
<rect width="32" height="32" fill="white" transform="translate(8 8)"/>
</clipPath>
</defs>
</svg>
