<svg width="48" height="48" viewBox="0 0 48 48" fill="none" xmlns="http://www.w3.org/2000/svg">
<g clip-path="url(#clip0_4253_39676)">
<path fill-rule="evenodd" clip-rule="evenodd" d="M8 8H40V40H8V8Z" fill="white"/>
<path fill-rule="evenodd" clip-rule="evenodd" d="M24.1046 38.5882C15.4605 38.651 9.51642 32.4557 9.41183 23.8954C9.34891 15.5652 15.8792 9.47451 24.1046 9.41176C32.5396 9.36993 38.5254 15.8582 38.5883 24.1466C38.6301 32.3302 32.1838 38.5464 24.1046 38.5882ZM24.1046 37.5417C31.7861 37.6046 37.4162 31.7022 37.5419 24.1047C37.6463 16.3606 31.8277 10.5211 24.1046 10.4583C16.4025 10.4165 10.4584 16.1931 10.4584 23.8954C10.4584 31.9533 16.0885 37.4998 24.1046 37.5417ZM18.0769 35.2812C22.9328 32.2256 27.1606 29.5674 30.8023 27.3279C32.6444 26.1977 34.214 23.6651 31.514 22.4303C30.0909 21.7605 28.542 21.8861 27.0559 22.1582C26.386 22.2837 23.7907 22.849 23.728 21.6768C23.6861 21.0908 24.3349 20.3372 25.6535 19.3745C26.6581 18.6628 28.9816 17.0932 32.6442 14.6862C35.1765 17.4908 36.4534 20.5466 36.4952 23.8536C36.537 30.7396 30.8021 36.5371 23.9371 36.5371C22.0536 36.537 20.107 36.1184 18.0769 35.2812ZM29.7559 12.6351C25.2561 15.5234 21.007 18.1605 17.0303 20.5884C15.1675 21.7396 13.6188 24.2719 16.3188 25.486C17.742 26.1558 19.2908 26.0511 20.7977 25.7582C21.4464 25.6535 24.0628 25.0885 24.1463 26.2395C24.1674 27.0767 21.1953 29.4208 15.2303 33.2301C12.6768 30.509 11.4 27.4534 11.3791 24.0627C11.2534 17.1349 16.9674 11.4001 23.8953 11.3372C25.6954 11.3373 27.6628 11.7768 29.7559 12.6351Z" fill="black"/>
</g>
<defs>
<clipPath id="clip0_4253_39676">
<rect width="32" height="32" fill="white" transform="translate(8 8)"/>
</clipPath>
</defs>
</svg>
