<svg width="48" height="48" viewBox="0 0 48 48" fill="none" xmlns="http://www.w3.org/2000/svg">
<g clip-path="url(#clip0_4253_39624)">
<path d="M22.8787 34.9166C22.8034 34.9186 22.7348 34.9596 22.6981 35.0246L22.0909 35.8724L21.4837 35.0246C21.4451 34.9581 21.3751 34.9155 21.2977 34.9111H20.2037L21.2977 36.4069L20.2037 37.8972H21.2977C21.3715 37.8906 21.4381 37.8507 21.4783 37.7893L22.0909 36.9198L22.7035 37.7622C22.7421 37.8286 22.8121 37.8712 22.8895 37.8756H23.9836L22.8895 36.3852L23.9836 34.8895L22.8787 34.9165V34.9166ZM30.0664 36.7525L30.6133 35.8237L31.1603 36.7525H30.0662H30.0664ZM31.1932 35.0246C31.15 34.9549 31.0735 34.912 30.9908 34.9111H30.214C30.1296 34.911 30.0519 34.9565 30.0117 35.0299L28.294 37.8972H29.2786C29.3663 37.8887 29.4431 37.8354 29.481 37.7568L29.656 37.4598H31.5486L31.7292 37.7676C31.7701 37.8443 31.8493 37.8938 31.9371 37.8972H32.9108L31.5761 35.6617L31.1932 35.0244V35.0246ZM26.7953 36.0506H25.5208V34.9112H24.4213V37.8975H25.5208V36.7581H26.7953V37.8975H27.8947V34.9112H26.7953V36.0506ZM34.4152 34.9112H33.3103V37.8975H36.4173V37.0659H34.4153V34.9112H34.4152ZM37.9981 37.0659V34.9112H36.8932V37.8975H40.0003V37.0659H37.9983H37.9981ZM11.5831 34.9112C11.5026 34.915 11.4291 34.9573 11.3862 35.0247L10.3414 36.8283L9.29114 35.0193C9.24634 34.9547 9.17338 34.9147 9.0942 34.9114H8L9.77774 37.8976H10.8718L12.6495 34.9114H11.5828L11.5831 34.9112ZM18.7708 36.5799C18.8197 36.9105 18.5878 37.2174 18.2531 37.2656C18.1945 37.274 18.1348 37.274 18.0762 37.2656C17.7413 37.3139 17.4304 37.085 17.3815 36.7545C17.373 36.6967 17.373 36.6377 17.3815 36.5799V34.9112H16.3421V36.5799C16.3421 37.5627 17.015 38.0001 18.0762 38.0001C19.1373 38.0001 19.8102 37.5628 19.8102 36.5799V34.9112H18.7708V36.5799ZM13.4265 36.7527L13.9734 35.8239L14.5204 36.7527H13.4263H13.4265ZM14.5533 35.0247C14.5101 34.9551 14.4336 34.9122 14.3509 34.9112H13.5742C13.4897 34.9111 13.412 34.9567 13.3718 35.03L11.6542 37.8974H12.6387C12.7264 37.8888 12.8032 37.8355 12.8411 37.7569L13.0161 37.4599H14.9087L15.0947 37.7678C15.1329 37.8445 15.2106 37.8942 15.2971 37.8974H16.2708L14.9361 35.6618L14.5532 35.0246L14.5533 35.0247Z" fill="#000037"/>
<path d="M31.9973 25.58C31.9847 25.608 31.9701 25.6351 31.9536 25.661C31.939 25.6883 31.9058 25.7 31.877 25.688L31.5761 25.58C30.7449 25.231 29.9324 24.8399 29.1419 24.4082C28.5002 24.0963 28.0588 23.4884 27.9658 22.7882C27.8337 21.9815 27.7861 21.1636 27.8235 20.3474C27.8112 20.124 27.9676 19.9258 28.1901 19.8829C28.3908 19.8422 28.5934 19.8114 28.7973 19.7911C29.1529 19.7911 29.5138 19.7588 29.8914 19.7425C30.1047 19.7425 30.132 19.656 30.039 19.4779C29.9458 19.2852 29.761 19.1513 29.5467 19.1215C29.2115 19.075 28.8805 19.0028 28.5566 18.9055C28.5459 18.887 28.5459 18.8645 28.5566 18.846C28.5894 18.792 28.666 18.7866 28.7153 18.7759C29.2904 18.703 29.8719 18.6921 30.4493 18.7435C30.6864 18.7466 30.9001 18.8858 30.9962 19.0999C31.04 19.1809 31.0783 19.2618 31.1166 19.3429C31.1549 19.4241 31.1493 19.4024 31.1768 19.4401C31.1909 19.4595 31.2182 19.4639 31.2379 19.45C31.2418 19.4472 31.2452 19.4438 31.2479 19.4401C31.2951 19.3793 31.3287 19.3094 31.3463 19.2348C31.5045 18.8312 31.5664 18.3969 31.5268 17.9659C31.5059 17.5669 31.2315 17.2247 30.843 17.1127C30.843 17.1127 29.8202 16.8048 29.749 16.7887C29.6778 16.7725 29.749 16.6482 29.749 16.5781C29.7637 16.3159 29.6313 16.067 29.4043 15.93C29.1028 15.7647 28.7725 15.6566 28.4306 15.6115C28.0325 15.5483 27.6303 15.5141 27.2272 15.5089C27.3038 15.0174 27.4842 13.8889 27.4842 13.8889C27.4842 13.8889 27.4842 13.8294 27.4405 13.8889L25.5369 15.6493C25.5041 15.6493 25.2306 15.7303 25.0446 15.7736C24.3259 15.9407 23.6959 16.3662 23.2778 16.9669L23.0426 17.3071L22.8456 17.5987C22.8136 17.6492 22.829 17.7159 22.8803 17.7475C22.8899 17.7534 22.9003 17.758 22.9113 17.7606L23.3762 17.8254C23.4255 17.8254 23.4145 17.8632 23.4036 17.8902C23.3339 17.9763 23.2346 18.0339 23.1246 18.0522L22.7198 18.1764C22.5324 18.2417 22.3712 18.3647 22.2602 18.5275C21.9365 18.9839 21.6423 19.46 21.3795 19.9531C21.3377 20.0185 21.3011 20.0872 21.2701 20.1583C21.2564 20.1837 21.2564 20.214 21.2701 20.2393C21.3138 20.3202 21.4233 20.3094 21.5217 20.3149H22.0031C22.0109 20.3283 22.0109 20.3447 22.0031 20.3581C22.0031 20.4282 21.9647 20.4607 21.9101 20.4877C21.8554 20.5147 21.7514 20.5525 21.6694 20.5848L21.0622 20.844C21.0622 20.844 20.8106 20.9305 20.5753 21.4165C20.3401 21.9024 19.9025 22.8312 19.7384 23.3119C19.6838 23.4468 19.7384 23.5008 19.8752 23.5116L20.4221 23.544H20.6354C20.6719 23.544 20.6828 23.5835 20.6682 23.6627C20.6682 23.6627 20.608 23.9058 20.5479 24.0624C20.5479 24.1002 20.5479 24.1325 20.4112 24.1325H16.8282C16.5607 24.1259 16.2963 24.0748 16.046 23.9813C15.892 23.9209 15.7421 23.8506 15.5974 23.7707C15.4326 23.6923 15.2827 23.5863 15.1544 23.4575C15.1256 23.4051 15.1053 23.3487 15.0942 23.2901V23.2577C14.9204 22.5688 14.8304 21.8618 14.8262 21.1518V21.0491C14.8262 20.9682 14.8535 20.9303 14.9465 20.9303H19.0874C19.2353 20.9381 19.3735 20.8571 19.4374 20.7251L22.249 15.8651C22.2823 15.8118 22.2654 15.7419 22.2114 15.7092C22.1931 15.6981 22.172 15.6922 22.1506 15.6923H16.7626C16.7334 15.6941 16.706 15.6795 16.6915 15.6545C16.6746 15.6281 16.6746 15.5945 16.6915 15.5681C16.8336 15.3807 16.9851 15.2005 17.1455 15.0281C20.4945 11.2871 26.2813 10.934 30.0712 14.2396C30.1082 14.2718 30.1449 14.3044 30.1813 14.3372C31.7521 15.6922 32.7836 17.5546 33.0914 19.5913C33.4566 21.6542 33.0689 23.7781 31.9973 25.5854M27.6978 16.9399C27.7961 16.8583 27.9045 16.7893 28.0205 16.7347C28.0795 16.7187 28.1419 16.7187 28.2011 16.7347L29.1365 16.8535C29.1858 16.8535 29.1967 16.9021 29.1365 16.9345L28.8794 17.226C28.8304 17.2618 28.7747 17.2876 28.7154 17.3016C28.6557 17.3123 28.5945 17.3123 28.5348 17.3016L27.758 17.0802C27.7115 17.0695 27.6822 17.0238 27.6924 16.9776M21.4072 28.2259L20.1162 29.2519C20.09 29.27 20.055 29.27 20.0286 29.2519C18.6216 28.5876 17.4091 27.5803 16.5059 26.3251L20.6195 27.2864C20.6469 27.2905 20.6701 27.3092 20.6797 27.335C20.875 27.6463 21.1084 27.933 21.3743 28.1882C21.3879 28.2001 21.3892 28.2205 21.3772 28.2339C21.3762 28.2349 21.3753 28.2359 21.3743 28.2367M17.0584 16.5404C17.1788 16.5404 17.1897 16.5404 17.2225 16.7132C17.3264 17.1343 17.7694 19.1162 17.8078 19.1863C17.8515 19.0999 18.8088 17.4799 19.2464 16.697C19.2893 16.5933 19.396 16.5297 19.509 16.5404H20.5429L18.5245 20.0666H16.8014L15.9809 16.5351H17.0749M23.9945 11C18.3618 11.1288 13.9013 15.741 14.0318 21.3014C14.1579 26.6808 18.5454 31.012 23.9945 31.1365C29.6273 31.0077 34.0877 26.3955 33.9573 20.8351C33.8311 15.4558 29.4437 11.1245 23.9945 11Z" fill="#D7001C"/>
</g>
<defs>
<clipPath id="clip0_4253_39624">
<rect width="32" height="27" fill="white" transform="translate(8 11)"/>
</clipPath>
</defs>
</svg>
