<svg width="48" height="48" viewBox="0 0 48 48" fill="none" xmlns="http://www.w3.org/2000/svg">
<g clip-path="url(#clip0_4253_39681)">
<path fill-rule="evenodd" clip-rule="evenodd" d="M42.1251 23.9763C42.1251 27.9829 34.0064 31.2305 23.9917 31.2305C13.9769 31.2305 5.85828 27.9827 5.85828 23.9763C5.85828 19.97 13.9769 16.7224 23.9917 16.7224C34.0064 16.7224 42.1251 19.97 42.1251 23.9763Z" fill="#A22125"/>
<path fill-rule="evenodd" clip-rule="evenodd" d="M42.2353 24C42.2353 28.0486 34.0712 31.3305 23.9998 31.3305C13.9288 31.3305 5.76453 28.0486 5.76453 24C5.76453 19.9516 13.9288 16.6695 23.9998 16.6695C34.0712 16.6695 42.2353 19.9516 42.2353 24ZM23.2235 30.9744C21.5036 29.2141 20.0248 27.1794 18.4929 24.8056C16.9413 22.4017 16.0299 20.0645 15.1988 17.8276L15.4236 17.8314C9.98292 19.0333 6.53607 21.3467 6.53607 24.0031C6.53607 27.8708 13.5541 30.9319 23.2235 30.9744ZM24.8614 30.9736C34.4667 30.9018 41.4096 27.8521 41.4096 24.0031C41.4096 21.3662 37.938 19.0673 32.5638 17.8584L32.8792 17.8565C32.0504 20.0806 31.1433 22.4032 29.6015 24.7915C28.0702 27.1644 26.5807 29.2136 24.8614 30.9736Z" fill="#BBBCBF"/>
<path fill-rule="evenodd" clip-rule="evenodd" d="M15.8407 17.7959C18.2906 17.3109 21.0832 17.0362 24.0471 17.0362C27.019 17.0362 29.8184 17.3122 32.2725 17.7996V17.8034C31.4959 20.0346 30.3533 22.3602 28.8711 24.7664C27.4905 27.0063 25.8753 29.0929 24.0529 30.9908C22.2361 29.0964 20.6255 27.0145 19.2481 24.7801C17.7623 22.3677 16.6176 20.0358 15.8407 17.7996V17.7959Z" fill="#2F5B90"/>
<path fill-rule="evenodd" clip-rule="evenodd" d="M23.7308 26.2937C23.7692 26.5284 23.8516 26.6454 23.9456 26.903C23.8846 26.8957 23.8163 26.9067 23.7265 26.9532C23.7265 26.9532 23.6798 26.9605 23.5885 27.2049C23.6173 27.0955 23.7621 27.0003 23.7621 27.0003C23.8767 26.9656 23.9356 26.9553 23.9786 27.0047C24.0564 27.0941 24.1249 27.1987 24.2008 27.3803C24.1664 27.2477 24.1236 27.075 24.0506 26.9696C24.1396 26.9318 24.1799 26.8791 24.2876 26.9233C24.4648 26.9968 24.3258 27.1159 24.3258 27.1159C24.3258 27.1159 24.5175 27.0773 24.4028 26.9233C24.2876 26.77 23.9811 26.8851 23.9811 26.8851C23.9811 26.8851 23.8699 26.6984 23.8366 26.2159C24.0738 26.0376 24.0799 26.009 24.3013 26.0993C24.3336 26.3846 24.4237 26.4981 24.5266 26.7803C24.4654 26.7733 24.4011 26.8148 24.311 26.8617C24.4254 26.827 24.5173 26.8326 24.5603 26.882C24.6381 26.9715 24.7061 27.076 24.7823 27.2578C24.7479 27.125 24.7053 26.9526 24.6318 26.8471C24.7211 26.8094 24.7615 26.7569 24.869 26.8011C25.0463 26.8745 24.9076 26.9934 24.9076 26.9934C24.9076 26.9934 25.0994 26.9544 24.9842 26.8011C24.8643 26.6421 24.5627 26.7627 24.5627 26.7627C24.5627 26.7627 24.4513 26.5979 24.4144 26.1466L24.4667 26.1686C24.6601 26.2495 24.8975 24.7849 24.9838 24.5543C25.0701 24.3238 26.2764 24.4968 26.9081 24.1795C26.9081 24.1795 26.5348 23.8627 26.8222 23.8627C27.1092 23.8627 27.2818 23.6033 27.2818 23.6033C27.5111 23.5744 28.287 23.171 28.5745 23.1419C28.5745 23.1419 27.7415 22.8826 27.5113 22.9114C27.282 22.9402 28.9478 22.4212 29.1204 22.133C29.1204 22.133 27.7699 22.4789 27.7128 22.2484C27.6554 22.0176 28.833 21.9313 29.2927 21.47C29.2927 21.47 28.1148 21.6526 27.8851 21.5277C27.5726 21.3579 28.8903 21.1627 29.4363 20.6341C29.4363 20.6341 28.8044 20.5285 28.4595 20.4036C28.2034 20.3108 28.9766 20.1249 29.5514 19.4235C29.5514 19.4235 27.4126 20.1919 26.3341 20.8647C24.5625 21.9697 24.1799 22.6229 24.1799 22.6229C24.5244 22.1042 22.5424 21.0952 22.1116 20.9221C21.6808 20.7493 19.1816 19.942 18.9517 19.7115C18.7218 19.4809 19.6124 20.6339 20.3307 20.8647C21.0487 21.0952 19.5836 20.9319 19.0094 20.8935C19.0094 20.8935 19.6124 21.3932 20.302 21.6717C20.4807 21.7439 19.1242 21.6717 19.1242 21.6717C19.3539 22.0272 20.2732 22.3922 20.5892 22.421C20.9051 22.4499 19.2389 22.3443 19.2389 22.3443C19.2962 22.6134 20.5604 23.0552 20.9912 23.0552C21.4222 23.0552 20.1869 23.084 19.871 23.084C19.555 23.084 20.6179 23.5165 20.8476 23.5165C21.0775 23.5165 20.6753 23.6605 20.5604 23.7182C20.4454 23.7759 21.2495 24.0737 21.4508 23.8911C21.6044 23.7516 22.3126 24.7846 23.1456 24.4676C23.9786 24.1505 21.1726 25.9013 21.3934 26.197C21.5942 26.4661 22.4562 26.6869 22.7435 26.6004C23.0307 26.5141 23.2606 26.197 23.2892 25.7934C23.3181 25.3898 23.4951 26.4562 23.6627 26.3412C23.6872 26.3246 23.7096 26.3089 23.7308 26.2937Z" fill="#DBDCDD"/>
<path fill-rule="evenodd" clip-rule="evenodd" d="M22.1052 27.3734C22.4173 28.0297 22.9762 28.914 23.4462 28.7861C24.3865 28.6583 25.356 28.075 26.4139 28.075C26.5002 27.143 25.0723 27.059 25.0922 27.635C25.3269 26.9951 25.915 28.1466 26.385 28.0187C26.3655 27.1229 24.4607 26.5279 23.4894 27.3898L22.1052 27.3734Z" fill="#A6A8AA"/>
<path fill-rule="evenodd" clip-rule="evenodd" d="M23.7999 28.6624C24.6151 28.479 25.4408 28.027 26.3563 28.027C26.3563 27.3352 25.5522 27.7965 25.0925 27.6811C25.3223 27.1046 25.7819 27.6811 26.2416 27.5657C25.3223 26.9892 24.4032 26.7585 23.5262 27.4599L22.205 27.4514C22.5646 28.0268 23.0242 28.8341 23.4839 28.7185C23.5422 28.7112 23.6005 28.7021 23.6588 28.6913L23.455 28.2765L23.7999 28.6624Z" fill="#DBDCDD"/>
<path fill-rule="evenodd" clip-rule="evenodd" d="M23.5271 28.5842C23.1059 28.6417 22.7228 28.1227 22.3632 27.5475L23.4545 27.556C24.4655 26.9507 25.0017 27.0274 25.9401 27.5464C25.6722 27.412 25.0019 27.0851 24.9063 27.777C25.3659 27.8924 25.883 27.5653 26.17 27.8924C25.231 27.8924 24.5751 28.3593 23.7749 28.5392L23.2592 28.0845L23.5271 28.5842Z" fill="#A6A8AA"/>
<path fill-rule="evenodd" clip-rule="evenodd" d="M23.6958 26.42C23.5283 26.5354 23.3511 25.4688 23.3225 25.8724C23.2938 26.2758 23.0639 26.5931 22.7767 26.6794C22.4895 26.766 21.6275 26.5452 21.4266 26.276C21.2058 25.9803 24.0118 24.2295 23.1789 24.5464C22.3459 24.8635 21.6376 23.8307 21.4841 23.9701C21.2828 24.1527 20.4787 23.8547 20.5936 23.797C20.7086 23.7396 21.1105 23.5953 20.8808 23.5953C20.6511 23.5953 19.5882 23.1629 19.904 23.1629C20.2199 23.1629 21.4552 23.134 21.0242 23.134C20.5932 23.134 19.3292 22.6922 19.2719 22.4231C19.2719 22.4231 20.9381 22.5287 20.6223 22.4999C20.3062 22.471 19.3869 22.106 19.1572 21.7503C19.1572 21.7503 20.5135 21.8225 20.3348 21.7503C19.6455 21.4718 19.0422 20.9721 19.0422 20.9721C19.6166 21.0107 21.0817 21.1738 20.3637 20.9433C19.6455 20.7127 18.755 19.5598 18.9847 19.7903C19.2145 20.0209 21.7136 20.8279 22.1446 21.001C22.5754 21.1738 24.5574 22.1828 24.2129 22.7016C24.2129 22.7016 24.5956 22.0483 26.3671 20.9433C27.4456 20.2705 29.5845 19.5021 29.5845 19.5021C29.0096 20.2035 28.2364 20.3892 28.4929 20.4822C28.8374 20.6071 29.4693 20.7127 29.4693 20.7127C28.9237 21.2413 27.6058 21.4365 27.9181 21.6065C28.1478 21.7314 29.3257 21.5486 29.3257 21.5486C28.866 22.0099 27.6882 22.0964 27.7459 22.327C27.8036 22.5575 29.1535 22.2116 29.1535 22.2116C28.9808 22.4999 27.3151 23.0189 27.5448 22.9898C27.7745 22.961 28.6075 23.2204 28.6075 23.2204C28.3201 23.2494 27.5448 23.6528 27.3149 23.6817C27.3149 23.6817 27.1422 23.9411 26.8552 23.9411C26.5678 23.9411 26.9411 24.2581 26.9411 24.2581C26.3092 24.5752 25.1032 24.4022 25.0168 24.6329C24.9305 24.8637 24.6929 26.3279 24.4997 26.2472C24.4823 26.2397 24.4649 26.2324 24.4474 26.2252C24.4839 26.6763 24.5958 26.8413 24.5958 26.8413C24.5958 26.8413 24.8969 26.7205 25.0172 26.8797C25.1328 27.0328 24.9407 27.0721 24.9407 27.0721C24.9407 27.0721 25.0793 26.9529 24.9021 26.8797C24.7946 26.8353 24.7541 26.888 24.6649 26.9258C24.7383 27.0314 24.7809 27.2038 24.8153 27.3364C24.7392 27.1547 24.6711 27.0501 24.5933 26.9606C24.5503 26.9114 24.4584 26.9056 24.3441 26.9403C24.4341 26.8934 24.4984 26.8517 24.5597 26.8589C24.4567 26.5765 24.3667 26.4632 24.3343 26.1777C24.1129 26.0876 24.1069 26.1162 23.8695 26.2945C23.9027 26.7768 24.0139 26.9637 24.0139 26.9637C24.0139 26.9637 24.3204 26.8484 24.4352 27.0021C24.5503 27.1559 24.359 27.1945 24.359 27.1945C24.359 27.1945 24.4976 27.0754 24.3204 27.0021C24.2125 26.9575 24.1724 27.0102 24.0836 27.048C24.1567 27.1536 24.1992 27.3261 24.2337 27.4587C24.1575 27.2769 24.0892 27.1725 24.0114 27.0831C23.9682 27.0337 23.9093 27.044 23.795 27.0787C23.795 27.0787 23.6499 27.1739 23.6213 27.2835C23.7124 27.0391 23.7591 27.032 23.7591 27.032C23.8489 26.9849 23.917 26.9743 23.9782 26.9814C23.884 26.7243 23.8018 26.607 23.7634 26.3723C23.7425 26.3877 23.7198 26.4034 23.6958 26.42ZM25.2088 23.1629L24.9979 22.8169L24.4426 23.1822L24.634 22.8553L24.1934 22.7785C22.3743 20.7414 21.1678 21.0491 21.1678 21.0491C21.4264 21.4621 22.2977 21.7601 22.2977 21.7601L21.2444 21.6833C21.4741 22.3174 22.5277 22.1446 22.4127 22.4135L21.4168 22.4328C21.8574 22.9612 22.834 22.8171 22.7001 23.0093C22.5661 23.2015 21.7042 23.0861 21.7042 23.0861C21.8381 23.3743 23.1977 23.5474 23.1214 23.4706L22.1637 23.7205C22.317 23.7972 23.4277 23.9703 23.2747 24.0087C23.1214 24.0473 22.5279 24.0853 22.5279 24.0853C22.7003 24.1816 23.6958 24.2583 23.6958 24.2583C23.581 24.8062 23.3225 25.2096 23.3225 25.2096C24.6439 25.0077 25.6203 23.8836 25.2758 22.8171L25.2088 23.1629ZM26.1374 22.6439C25.8886 22.2454 25.7861 22.5407 25.7352 22.5573C25.5865 22.6055 25.7637 23.4221 25.6778 23.5374C25.5914 23.6528 25.3329 24.1428 25.563 24.1139C25.7549 24.088 25.9464 24.0592 26.1374 24.0274C25.994 23.8834 25.7637 23.8257 25.994 23.8257C26.2233 23.8257 26.7693 23.6528 26.7693 23.5374C26.7693 23.5374 26.2526 23.624 26.2233 23.4221L26.569 23.3355C26.569 23.3355 27.1167 23.2284 27.2289 22.9109L26.5682 22.9321C26.8838 22.9321 27.2001 22.6248 27.4587 22.3268C27.4587 22.3268 26.7693 22.4229 26.5971 22.2979C26.5971 22.2979 27.6023 21.6926 27.5164 21.5772C27.5164 21.5772 26.5371 21.9213 26.6259 21.8078C27.1144 21.1834 27.6598 20.7702 27.6598 20.7702C26.9704 20.6069 25.3049 21.9047 25.448 21.8943C26.2524 21.8368 26.2152 22.7686 26.1374 22.6439ZM25.3831 22.106C25.4406 22.1419 25.5485 22.1707 25.5055 22.0917C25.4622 22.0124 25.4047 21.9836 25.4047 21.9836C25.4047 21.9836 25.3256 22.0699 25.3831 22.106ZM26.1324 22.5696C26.1324 22.5696 26.1179 22.1732 25.9552 22.1925C25.9114 22.1977 25.8811 22.3949 25.9411 22.3922C26.0247 22.3886 26.1324 22.5696 26.1324 22.5696Z" fill="#A6A8AA"/>
<path fill-rule="evenodd" clip-rule="evenodd" d="M24.6512 19.6953L24.7342 19.4975L24.838 19.54L24.7541 19.7399L24.7537 19.7397C24.8226 19.7739 24.8867 19.8167 24.9442 19.8665L24.9459 19.8679L25.1079 19.7075L25.1878 19.786L25.0253 19.9466L25.0245 19.946C25.0789 20.0065 25.125 20.0748 25.1607 20.1485L25.1615 20.151L25.3694 20.0657L25.4124 20.1684L25.204 20.2537L25.2044 20.2549C25.2291 20.3282 25.2441 20.4056 25.2486 20.4857H25.2478H25.4748V20.5969H25.247L25.2482 20.5949C25.2427 20.6747 25.2265 20.7534 25.2001 20.8289L25.1992 20.8291L25.4124 20.9167L25.3694 21.0194L25.155 20.9317L25.1563 20.9314C25.121 21.0012 25.0768 21.0659 25.0249 21.1238H25.0253L25.1831 21.2801L25.1036 21.3587L24.9459 21.2025L24.9455 21.2029C24.8869 21.2538 24.822 21.2971 24.7525 21.3315V21.3295L24.8405 21.5399L24.7367 21.5824L24.6495 21.3749C24.5732 21.4014 24.4938 21.4176 24.4132 21.4231V21.6476H24.3009V21.4237C24.2211 21.4194 24.1423 21.4046 24.0664 21.3797L24.0679 21.3795L23.9776 21.5949L23.8738 21.5523L23.9635 21.3386L23.962 21.338C23.8875 21.3026 23.8181 21.257 23.756 21.2027V21.2029L23.5981 21.3591L23.5186 21.2805L23.6765 21.1242L23.6757 21.1234C23.6245 21.066 23.5809 21.0022 23.5462 20.9335V20.9337L23.3353 21.0201L23.2922 20.9173L23.5024 20.8312L23.5022 20.8304C23.4755 20.7555 23.4593 20.6774 23.4538 20.5982L23.4515 20.5976H23.2268V20.4863H23.453C23.4576 20.4056 23.4727 20.3276 23.4978 20.2539L23.498 20.2533L23.2924 20.169L23.3355 20.0663L23.5402 20.1501C23.5761 20.0763 23.6221 20.008 23.6763 19.9472L23.5138 19.7866L23.5933 19.7081L23.7558 19.8685C23.8174 19.8148 23.8867 19.7691 23.9616 19.7337L23.9618 19.7335L23.8759 19.5282L23.9799 19.4857L24.0662 19.6917L24.0658 19.6919C24.1418 19.6668 24.2208 19.6519 24.3007 19.6477V19.4243H24.413V19.6486C24.4933 19.654 24.5725 19.6701 24.6485 19.6965L24.6512 19.6953Z" fill="#DBDCDD"/>
<path fill-rule="evenodd" clip-rule="evenodd" d="M24.3663 21.5864H24.325V21.3756L24.3128 21.3743C24.2349 21.3702 24.1478 21.3436 24.077 21.3201L24.0658 21.3199L23.9799 21.5366L23.9185 21.5086L24.0038 21.3058L23.9899 21.293C23.9185 21.2591 23.8276 21.1911 23.7689 21.14L23.7691 21.1402L23.6186 21.2882L23.5804 21.2506L23.7307 21.1025L23.7176 21.0894C23.6648 21.0309 23.6192 20.9662 23.5819 20.8968V20.8846L23.381 20.9665L23.3652 20.9186L23.5651 20.8368L23.5522 20.8115C23.5273 20.7418 23.5115 20.6432 23.5061 20.5667L23.5041 20.566H23.2899V20.51H23.5053C23.5097 20.4334 23.5367 20.3224 23.5605 20.2525L23.5483 20.2396L23.3526 20.1599L23.3686 20.1118L23.5759 20.1915L23.5885 20.1668C23.627 20.0928 23.6747 20.024 23.7307 19.9622L23.5761 19.8098L23.6143 19.7723L23.7689 19.9246L23.794 19.8999C23.8525 19.8489 23.9309 19.7935 24.0021 19.7596L24.0023 19.7594L23.9206 19.5648L23.9693 19.549L24.0515 19.7443L24.0884 19.732C24.1652 19.7083 24.2446 19.6942 24.3248 19.6901L24.3244 19.6889V19.478H24.363L24.3663 21.5864Z" fill="#A6A8AA"/>
<path fill-rule="evenodd" clip-rule="evenodd" d="M17.4605 18.2665L17.1032 17.9953L17.0168 17.9714L17.4389 18.2918L17.4605 18.2665Z" fill="#24201F"/>
<path fill-rule="evenodd" clip-rule="evenodd" d="M17.1032 17.9953L17.761 17.899L17.7834 17.8592L17.0168 17.9715L17.1032 17.9953Z" fill="#373331"/>
<path fill-rule="evenodd" clip-rule="evenodd" d="M18.0922 19.1404L17.4605 18.2665L17.439 18.2919L18.0802 19.1788L18.0922 19.1404Z" fill="#2F2B2A"/>
<path fill-rule="evenodd" clip-rule="evenodd" d="M17.761 17.899L18.3383 18.7818L18.33 18.6947L17.7834 17.8592L17.761 17.899Z" fill="#7D7C7C"/>
<path fill-rule="evenodd" clip-rule="evenodd" d="M18.677 19.0545L18.0922 19.1404L18.0802 19.1788L18.7096 19.0862L18.677 19.0545ZM18.3384 18.7818L18.638 17.7704L18.6135 17.7374L18.3301 18.6946L18.3384 18.7818Z" fill="black"/>
<path fill-rule="evenodd" clip-rule="evenodd" d="M19.0765 17.7061L18.677 19.0545L18.7096 19.0862L19.1317 17.6614L19.0765 17.7061Z" fill="#44403E"/>
<path fill-rule="evenodd" clip-rule="evenodd" d="M18.638 17.7704L19.0765 17.7061L19.1317 17.6614L18.6135 17.7374L18.638 17.7704Z" fill="#373331"/>
<path fill-rule="evenodd" clip-rule="evenodd" d="M17.4605 18.2666L17.1031 17.9953L17.761 17.899L18.3383 18.7818L18.6379 17.7704L19.0764 17.7061L18.677 19.0545L18.0922 19.1404L17.4605 18.2666Z" fill="#A6A8AA"/>
<path fill-rule="evenodd" clip-rule="evenodd" d="M19.3643 17.6678L19.774 17.9625L19.7416 17.9822L19.2631 17.6379L19.3643 17.6678Z" fill="black"/>
<path fill-rule="evenodd" clip-rule="evenodd" d="M19.7739 17.9625L19.8321 18.9181L19.8011 18.9563L19.7416 17.9822L19.7739 17.9625Z" fill="black"/>
<path fill-rule="evenodd" clip-rule="evenodd" d="M20.1736 18.098L20.1641 17.9388L20.2058 17.9731L20.211 18.0592L20.1736 18.098ZM20.2029 18.5759L20.1931 18.4165L20.2348 18.4506L20.24 18.5367L20.2029 18.5759Z" fill="#433F3D"/>
<path fill-rule="evenodd" clip-rule="evenodd" d="M21.3152 17.5492L19.3643 17.6679L19.2631 17.638L21.3517 17.5106L21.3152 17.5492Z" fill="#363230"/>
<path fill-rule="evenodd" clip-rule="evenodd" d="M19.8321 18.9182L21.3928 18.8231L21.4337 18.8567L19.8011 18.9563L19.8321 18.9182Z" fill="black"/>
<path fill-rule="evenodd" clip-rule="evenodd" d="M21.1493 18.0385L20.1736 18.098L20.2109 18.0592L21.1856 17.9999L21.1493 18.0385Z" fill="#403C3A"/>
<path fill-rule="evenodd" clip-rule="evenodd" d="M20.1931 18.4166L21.1686 18.3574L21.2097 18.3915L20.2348 18.4506L20.1931 18.4166ZM20.1641 17.9389L21.3347 17.8675L21.3753 17.9021L20.2058 17.9731L20.1641 17.9389Z" fill="black"/>
<path fill-rule="evenodd" clip-rule="evenodd" d="M21.3735 18.5045L20.2029 18.5759L20.24 18.5367L21.4098 18.4655L21.3735 18.5045Z" fill="#4B4746"/>
<path fill-rule="evenodd" clip-rule="evenodd" d="M21.1686 18.3574L21.1493 18.0385L21.1856 17.9999L21.2097 18.3915L21.1686 18.3574Z" fill="#2F2B2A"/>
<path fill-rule="evenodd" clip-rule="evenodd" d="M21.3347 17.8675L21.3152 17.5492L21.3517 17.5106L21.3754 17.9021L21.3347 17.8675ZM21.3928 18.8231L21.3735 18.5046L21.4098 18.4655L21.4337 18.8567L21.3928 18.8231Z" fill="#2C2826"/>
<path fill-rule="evenodd" clip-rule="evenodd" d="M19.7739 17.9625L19.832 18.9181L21.3927 18.8231L21.3734 18.5045L20.2028 18.5759L20.1931 18.4166L21.1686 18.3574L21.1493 18.0385L20.1736 18.098L20.164 17.9388L21.3346 17.8675L21.3151 17.5491L19.3643 17.6678L19.7739 17.9625Z" fill="#A6A8AA"/>
<path fill-rule="evenodd" clip-rule="evenodd" d="M21.9335 17.8652L21.5337 17.5574L21.4318 17.5242L21.8991 17.8839L21.9335 17.8652Z" fill="black"/>
<path fill-rule="evenodd" clip-rule="evenodd" d="M21.5337 17.5575L22.4237 17.5322L22.4413 17.4954L21.4318 17.5243L21.5337 17.5575Z" fill="#363230"/>
<path fill-rule="evenodd" clip-rule="evenodd" d="M21.9607 18.8222L21.9335 17.8652L21.899 17.8838L21.9266 18.8592L21.9607 18.8222Z" fill="#0F0300"/>
<path fill-rule="evenodd" clip-rule="evenodd" d="M22.3515 18.811L21.9608 18.8222L21.9268 18.8592L22.3906 18.8461L22.3515 18.811Z" fill="black"/>
<path fill-rule="evenodd" clip-rule="evenodd" d="M22.3273 17.9604L22.3515 18.8111L22.3906 18.8461L22.3682 18.0623L22.3273 17.9604Z" fill="#191513"/>
<path fill-rule="evenodd" clip-rule="evenodd" d="M23.0463 18.7911L22.3273 17.9604L22.3682 18.0623L23.0308 18.8281L23.0463 18.7911Z" fill="black"/>
<path fill-rule="evenodd" clip-rule="evenodd" d="M22.4237 17.5322L23.1205 18.3458L23.0817 18.2431L22.4413 17.4954L22.4237 17.5322Z" fill="#2A2624"/>
<path fill-rule="evenodd" clip-rule="evenodd" d="M23.5237 18.7776L23.0462 18.7911L23.0306 18.8281L23.5619 18.8127L23.5237 18.7776Z" fill="black"/>
<path fill-rule="evenodd" clip-rule="evenodd" d="M23.0967 17.513L23.4876 17.5018L23.5237 17.4649L23.0599 17.4778L23.0967 17.513Z" fill="#363230"/>
<path fill-rule="evenodd" clip-rule="evenodd" d="M23.1205 18.3458L23.0967 17.5131L23.0599 17.4778L23.0817 18.2431L23.1205 18.3458Z" fill="#2A2624"/>
<path fill-rule="evenodd" clip-rule="evenodd" d="M23.4877 17.5018L23.5238 18.7777L23.562 18.8127L23.5238 17.4649L23.4877 17.5018Z" fill="black"/>
<path fill-rule="evenodd" clip-rule="evenodd" d="M21.9336 17.8652L21.5337 17.5574L22.4237 17.5321L23.1206 18.3458L23.0967 17.513L23.4877 17.5018L23.5238 18.7776L23.0463 18.7911L22.3272 17.9604L22.3515 18.8111L21.9608 18.8223L21.9336 17.8652Z" fill="#A6A8AA"/>
<path fill-rule="evenodd" clip-rule="evenodd" d="M25.6539 17.5267L25.6552 17.8459L25.6907 17.8824L25.6892 17.4904L25.6539 17.5267ZM25.6552 17.8459L25.0685 17.848L25.1046 17.8847L25.6907 17.8824L25.6552 17.8459ZM25.0723 18.805L24.6811 18.8067L24.6442 18.8428L25.1084 18.8411L25.0723 18.805Z" fill="black"/>
<path fill-rule="evenodd" clip-rule="evenodd" d="M25.0685 17.848L25.0722 18.805L25.1083 18.8411L25.1046 17.8847L25.0685 17.848Z" fill="black"/>
<path fill-rule="evenodd" clip-rule="evenodd" d="M23.6993 17.5338L25.6539 17.5267L25.6892 17.4904L23.5966 17.4979L23.6993 17.5338Z" fill="#363230"/>
<path fill-rule="evenodd" clip-rule="evenodd" d="M24.6811 18.8067L24.678 17.8492L24.6406 17.8864L24.6442 18.8428L24.6811 18.8067Z" fill="#484442"/>
<path fill-rule="evenodd" clip-rule="evenodd" d="M24.0913 17.8515L23.6993 17.5338L23.5966 17.4979L24.0782 17.8885L24.0913 17.8515Z" fill="#130D07"/>
<path fill-rule="evenodd" clip-rule="evenodd" d="M24.678 17.8492L24.0913 17.8515L24.0782 17.8885L24.6406 17.8864L24.678 17.8492Z" fill="black"/>
<path fill-rule="evenodd" clip-rule="evenodd" d="M23.6993 17.5338L25.6539 17.5267L25.6552 17.8459L25.0685 17.848L25.0723 18.805L24.6811 18.8067L24.678 17.8492L24.0913 17.8515L23.6993 17.5338Z" fill="#A6A8AA"/>
<path fill-rule="evenodd" clip-rule="evenodd" d="M27.838 17.6623L27.7968 18.4589L27.8308 18.4606L27.8737 17.6278L27.838 17.6623Z" fill="#35312F"/>
<path fill-rule="evenodd" clip-rule="evenodd" d="M27.4476 17.6421L27.838 17.6623L27.8737 17.6278L27.4103 17.6039L27.4476 17.6421Z" fill="#363230"/>
<path fill-rule="evenodd" clip-rule="evenodd" d="M27.7967 18.4589C27.7963 18.4697 27.7954 18.4805 27.7942 18.4913L27.8274 18.4952C27.8289 18.4837 27.83 18.4722 27.8307 18.4606L27.7967 18.4589Z" fill="#383432"/>
<path fill-rule="evenodd" clip-rule="evenodd" d="M27.7942 18.4913C27.793 18.5016 27.7913 18.5122 27.7894 18.5222L27.8226 18.5284C27.8248 18.5174 27.8264 18.5064 27.8274 18.4952L27.7942 18.4913Z" fill="#3B3735"/>
<path fill-rule="evenodd" clip-rule="evenodd" d="M27.7894 18.5222C27.7877 18.5322 27.7852 18.5421 27.783 18.5517L27.8157 18.56C27.8182 18.5496 27.8205 18.5392 27.8226 18.5284L27.7894 18.5222Z" fill="#3E3A38"/>
<path fill-rule="evenodd" clip-rule="evenodd" d="M27.7829 18.5516C27.7804 18.5611 27.7777 18.5705 27.7748 18.5799L27.8067 18.5902C27.8101 18.5805 27.8128 18.5703 27.8157 18.5599L27.7829 18.5516Z" fill="#423E3C"/>
<path fill-rule="evenodd" clip-rule="evenodd" d="M27.7747 18.5799C27.7714 18.589 27.7683 18.5979 27.7645 18.6067L27.7952 18.6191C27.7994 18.6098 27.8029 18.6002 27.8067 18.5903L27.7747 18.5799Z" fill="#45413F"/>
<path fill-rule="evenodd" clip-rule="evenodd" d="M27.7648 18.6066C27.7611 18.6153 27.7571 18.6239 27.7526 18.6322L27.7829 18.6463C27.7872 18.6375 27.7918 18.6284 27.7955 18.6191L27.7648 18.6066Z" fill="#494543"/>
<path fill-rule="evenodd" clip-rule="evenodd" d="M27.7525 18.632C27.7484 18.6403 27.744 18.6484 27.7393 18.656L27.7685 18.672C27.7737 18.6636 27.7786 18.6549 27.783 18.6461L27.7525 18.632Z" fill="#4C4847"/>
<path fill-rule="evenodd" clip-rule="evenodd" d="M27.739 18.6561C27.7343 18.664 27.7292 18.6716 27.7236 18.6789L27.7521 18.6965C27.7577 18.6886 27.7631 18.6803 27.7682 18.672L27.739 18.6561Z" fill="#514D4B"/>
<path fill-rule="evenodd" clip-rule="evenodd" d="M27.7236 18.6789C27.7184 18.6864 27.7126 18.6934 27.707 18.7005L27.7338 18.72C27.7402 18.7123 27.746 18.7046 27.7521 18.6965L27.7236 18.6789Z" fill="#54504F"/>
<path fill-rule="evenodd" clip-rule="evenodd" d="M27.707 18.7007C27.7012 18.7078 27.695 18.7146 27.6884 18.721L27.7143 18.742C27.7211 18.7347 27.7276 18.7275 27.7338 18.7202L27.707 18.7007Z" fill="#585453"/>
<path fill-rule="evenodd" clip-rule="evenodd" d="M27.6885 18.721C27.6822 18.7276 27.6757 18.734 27.6689 18.7401L27.6932 18.7625L27.7144 18.742L27.6885 18.721Z" fill="#5A5655"/>
<path fill-rule="evenodd" clip-rule="evenodd" d="M27.669 18.7401C27.6622 18.7463 27.6549 18.7524 27.6475 18.758L27.6701 18.7816C27.6782 18.7754 27.6854 18.769 27.6931 18.7623L27.669 18.7401Z" fill="#5B5756"/>
<path fill-rule="evenodd" clip-rule="evenodd" d="M27.6475 18.7579C27.6401 18.7638 27.6326 18.7694 27.6249 18.7747L27.6465 18.7999C27.6546 18.794 27.6626 18.788 27.6703 18.7818L27.6475 18.7579Z" fill="#5B5756"/>
<path fill-rule="evenodd" clip-rule="evenodd" d="M27.6249 18.7747C27.6171 18.7801 27.6092 18.7853 27.6011 18.7903L27.6206 18.8166C27.6295 18.8112 27.638 18.8056 27.6465 18.7998L27.6249 18.7747Z" fill="#5A5655"/>
<path fill-rule="evenodd" clip-rule="evenodd" d="M27.6008 18.7903C27.5927 18.7953 27.5838 18.8 27.5753 18.8048L27.5936 18.8322C27.6029 18.8272 27.6118 18.822 27.6203 18.8166L27.6008 18.7903Z" fill="#585453"/>
<path fill-rule="evenodd" clip-rule="evenodd" d="M27.5754 18.8048C27.5666 18.8095 27.5576 18.8139 27.5486 18.8181L27.5656 18.8465C27.5749 18.842 27.5847 18.8372 27.5936 18.8322L27.5754 18.8048Z" fill="#54504F"/>
<path fill-rule="evenodd" clip-rule="evenodd" d="M27.5487 18.8181C27.5398 18.8225 27.5305 18.8264 27.5211 18.8304L27.5361 18.8596C27.5462 18.8555 27.556 18.8511 27.5657 18.8465L27.5487 18.8181Z" fill="#514D4B"/>
<path fill-rule="evenodd" clip-rule="evenodd" d="M27.5212 18.8304C27.5118 18.8341 27.5021 18.8381 27.4923 18.8414L27.5056 18.8717C27.5158 18.8679 27.5259 18.8638 27.5359 18.8594L27.5212 18.8304Z" fill="#4B4746"/>
<path fill-rule="evenodd" clip-rule="evenodd" d="M27.4923 18.8416C27.4823 18.8452 27.4722 18.8486 27.462 18.8517L27.4739 18.8828C27.4849 18.8793 27.4954 18.8758 27.5058 18.8719L27.4923 18.8416Z" fill="#45413F"/>
<path fill-rule="evenodd" clip-rule="evenodd" d="M27.462 18.8515L27.4309 18.8606L27.4411 18.8926C27.4525 18.8893 27.4633 18.8862 27.4739 18.8826L27.462 18.8515Z" fill="#3E3A38"/>
<path fill-rule="evenodd" clip-rule="evenodd" d="M27.4306 18.8607C27.4201 18.8636 27.4095 18.8661 27.3987 18.8688L27.4072 18.9013C27.4185 18.8987 27.4297 18.8958 27.4408 18.8926L27.4306 18.8607Z" fill="#383432"/>
<path fill-rule="evenodd" clip-rule="evenodd" d="M27.3987 18.8688L27.3655 18.876L27.3727 18.9092C27.3842 18.9067 27.3958 18.9043 27.4072 18.9014L27.3987 18.8688Z" fill="#312D2B"/>
<path fill-rule="evenodd" clip-rule="evenodd" d="M27.3655 18.876C27.3545 18.8781 27.3432 18.8802 27.3314 18.8821L27.337 18.9159C27.3489 18.914 27.3605 18.9115 27.3727 18.9094L27.3655 18.876Z" fill="#2A2624"/>
<path fill-rule="evenodd" clip-rule="evenodd" d="M27.3315 18.8818C27.3197 18.8837 27.3085 18.8856 27.2966 18.887L27.3008 18.9215L27.3373 18.9157L27.3315 18.8818Z" fill="#221E1C"/>
<path fill-rule="evenodd" clip-rule="evenodd" d="M27.2966 18.887L27.2609 18.8914L27.2638 18.926C27.276 18.9248 27.2885 18.9231 27.3007 18.9215L27.2966 18.887Z" fill="#1C1816"/>
<path fill-rule="evenodd" clip-rule="evenodd" d="M27.2609 18.8914L27.2244 18.8947L27.2256 18.9297C27.2383 18.9287 27.2511 18.9275 27.2638 18.926L27.2609 18.8914Z" fill="#130D07"/>
<path fill-rule="evenodd" clip-rule="evenodd" d="M27.2244 18.8945C27.2118 18.8955 27.1992 18.8963 27.1866 18.897L27.1871 18.9322C27.1999 18.9316 27.213 18.9306 27.2257 18.9295L27.2244 18.8945Z" fill="#090000"/>
<path fill-rule="evenodd" clip-rule="evenodd" d="M27.1867 18.897L27.1489 18.8986L27.1481 18.9341L27.1871 18.9323L27.1867 18.897Z" fill="black"/>
<path fill-rule="evenodd" clip-rule="evenodd" d="M27.149 18.8986L27.1295 18.899L27.1283 18.9347L27.1482 18.9341L27.149 18.8986Z" fill="black"/>
<path fill-rule="evenodd" clip-rule="evenodd" d="M27.1296 18.899L27.1101 18.8993L27.1084 18.9349L27.1283 18.9347L27.1296 18.899ZM27.1101 18.8993H27.0906L27.0885 18.9349H27.1084L27.1101 18.8993Z" fill="black"/>
<path fill-rule="evenodd" clip-rule="evenodd" d="M27.0905 18.8993L27.071 18.899L27.0681 18.9349H27.0885L27.0905 18.8993Z" fill="black"/>
<path fill-rule="evenodd" clip-rule="evenodd" d="M27.0713 18.899C27.0649 18.899 27.058 18.899 27.0514 18.8986L27.0485 18.9347L27.0684 18.9349L27.0713 18.899ZM27.0514 18.8986C27.0447 18.8986 27.0381 18.8984 27.0314 18.8982L27.0277 18.9341L27.0485 18.9347L27.0514 18.8986Z" fill="black"/>
<path fill-rule="evenodd" clip-rule="evenodd" d="M27.0314 18.8982C27.0246 18.8981 27.0178 18.8978 27.0111 18.8974L27.0073 18.9333L27.0277 18.9341L27.0314 18.8982Z" fill="black"/>
<path fill-rule="evenodd" clip-rule="evenodd" d="M27.0112 18.8974L26.9913 18.8965L26.9869 18.9327L27.0077 18.9335L27.0112 18.8974Z" fill="black"/>
<path fill-rule="evenodd" clip-rule="evenodd" d="M27.4101 18.368L27.4477 17.6421L27.4103 17.6039L27.3711 18.3659L27.4101 18.368Z" fill="#8D8C8D"/>
<path fill-rule="evenodd" clip-rule="evenodd" d="M27.4101 18.368C27.4098 18.3786 27.4085 18.3891 27.4064 18.3995L27.3678 18.3925C27.3695 18.384 27.3703 18.3752 27.3711 18.3659L27.4101 18.368Z" fill="#8E8E8E"/>
<path fill-rule="evenodd" clip-rule="evenodd" d="M27.4064 18.3995C27.4045 18.4092 27.4021 18.4188 27.3991 18.4282C27.3991 18.4282 27.3923 18.4456 27.3881 18.4537L27.3524 18.4384C27.3562 18.4317 27.3618 18.4168 27.3618 18.4168C27.3643 18.4089 27.3663 18.4008 27.3678 18.3927L27.4064 18.3995Z" fill="#929192"/>
<path fill-rule="evenodd" clip-rule="evenodd" d="M27.3881 18.4535C27.3837 18.4615 27.3789 18.4692 27.3735 18.4766L27.3403 18.4575C27.3448 18.4513 27.3489 18.4449 27.3526 18.4382L27.3881 18.4535Z" fill="#8D8C8D"/>
<path fill-rule="evenodd" clip-rule="evenodd" d="M27.3736 18.4766C27.3683 18.4838 27.3625 18.4906 27.3562 18.4969L27.3254 18.4747C27.331 18.4694 27.336 18.4637 27.3404 18.4575L27.3736 18.4766Z" fill="#7D7C7C"/>
<path fill-rule="evenodd" clip-rule="evenodd" d="M27.3562 18.4969C27.3497 18.5033 27.3428 18.5092 27.3355 18.5145L27.3079 18.4894C27.314 18.4849 27.3199 18.4799 27.3253 18.4745L27.3562 18.4969Z" fill="#6E6B6B"/>
<path fill-rule="evenodd" clip-rule="evenodd" d="M27.3354 18.5147C27.3281 18.5203 27.3204 18.5255 27.3124 18.5301L27.2877 18.5025C27.295 18.4985 27.3014 18.4942 27.3081 18.4896L27.3354 18.5147Z" fill="#605D5C"/>
<path fill-rule="evenodd" clip-rule="evenodd" d="M27.3124 18.5301C27.304 18.5348 27.2953 18.5392 27.2865 18.5431L27.2649 18.5133C27.273 18.5099 27.2802 18.5062 27.2875 18.5023L27.3124 18.5301Z" fill="#54504F"/>
<path fill-rule="evenodd" clip-rule="evenodd" d="M27.2864 18.5432C27.2775 18.5473 27.2678 18.5508 27.258 18.554L27.2397 18.5224C27.2483 18.5198 27.2566 18.5169 27.2649 18.5135L27.2864 18.5432Z" fill="#4B4746"/>
<path fill-rule="evenodd" clip-rule="evenodd" d="M27.258 18.554C27.2482 18.5573 27.2381 18.5602 27.2273 18.5627L27.2127 18.5295C27.2221 18.5274 27.2314 18.5251 27.2399 18.5222L27.258 18.554ZM27.2273 18.5629C27.2167 18.5656 27.2057 18.5677 27.1949 18.5697L27.1831 18.5351C27.1932 18.5336 27.2034 18.5316 27.2127 18.5295L27.2273 18.5629ZM27.1947 18.5697C27.1833 18.5716 27.1721 18.5735 27.1602 18.5745L27.1517 18.539C27.1623 18.538 27.1729 18.5367 27.1829 18.5351L27.1947 18.5697Z" fill="#484442"/>
<path fill-rule="evenodd" clip-rule="evenodd" d="M27.1603 18.5745C27.1483 18.5759 27.1362 18.577 27.1242 18.5778L27.1182 18.5417C27.1296 18.5411 27.1408 18.5402 27.1518 18.539L27.1603 18.5745Z" fill="#4B4746"/>
<path fill-rule="evenodd" clip-rule="evenodd" d="M27.1244 18.5778C27.1117 18.5784 27.0993 18.579 27.0866 18.5792L27.0829 18.5425C27.0951 18.5425 27.1067 18.5421 27.1182 18.5417L27.1244 18.5778Z" fill="#4B4746"/>
<path fill-rule="evenodd" clip-rule="evenodd" d="M27.0866 18.5792C27.0736 18.5794 27.0606 18.5794 27.0476 18.5792L27.0459 18.5423L27.0828 18.5425L27.0866 18.5792Z" fill="#4C4847"/>
<path fill-rule="evenodd" clip-rule="evenodd" d="M27.0475 18.5795L27.0079 18.578L27.0071 18.5411C27.0204 18.5419 27.0334 18.5423 27.0461 18.5425L27.0475 18.5795Z" fill="#4B4746"/>
<path fill-rule="evenodd" clip-rule="evenodd" d="M27.008 18.578C27.0012 18.5778 26.9944 18.5774 26.9877 18.577V18.54L27.0072 18.5411L27.008 18.578Z" fill="#484442"/>
<path fill-rule="evenodd" clip-rule="evenodd" d="M26.9876 18.5768L26.9677 18.5753L26.9685 18.5384L26.9876 18.5398V18.5768Z" fill="#45413F"/>
<path fill-rule="evenodd" clip-rule="evenodd" d="M26.9679 18.5753L26.9484 18.5733L26.9504 18.5367L26.9687 18.5384L26.9679 18.5753Z" fill="#423E3C"/>
<path fill-rule="evenodd" clip-rule="evenodd" d="M26.9484 18.5734L26.9293 18.5714L26.9322 18.535L26.9505 18.5371L26.9484 18.5734Z" fill="#3D3937"/>
<path fill-rule="evenodd" clip-rule="evenodd" d="M26.9293 18.5712C26.9168 18.5696 26.9044 18.5678 26.892 18.5658L26.8967 18.5303C26.9082 18.5321 26.9198 18.5336 26.932 18.5348L26.9293 18.5712Z" fill="#332F2E"/>
<path fill-rule="evenodd" clip-rule="evenodd" d="M26.8919 18.5658C26.8799 18.5638 26.868 18.5615 26.8562 18.5589L26.8639 18.5243C26.8745 18.5264 26.8855 18.5284 26.8967 18.5301L26.8919 18.5658Z" fill="#272321"/>
<path fill-rule="evenodd" clip-rule="evenodd" d="M26.8564 18.5589C26.845 18.5565 26.8336 18.5537 26.8224 18.5504L26.8334 18.517C26.8431 18.5197 26.8537 18.5222 26.8641 18.5243L26.8564 18.5589Z" fill="#191513"/>
<path fill-rule="evenodd" clip-rule="evenodd" d="M26.8224 18.5504C26.8118 18.5471 26.8008 18.544 26.7909 18.5403L26.8046 18.5085C26.8135 18.5116 26.8232 18.5143 26.8334 18.517L26.8224 18.5504ZM26.7907 18.5403C26.7806 18.5367 26.7707 18.5327 26.761 18.5282L26.7776 18.4984C26.7861 18.5019 26.795 18.5052 26.8044 18.5083L26.7907 18.5403Z" fill="black"/>
<path fill-rule="evenodd" clip-rule="evenodd" d="M26.7613 18.5282C26.7521 18.5242 26.7432 18.5196 26.7345 18.5145L26.754 18.4869C26.7617 18.4911 26.7698 18.495 26.7779 18.4986L26.7613 18.5282Z" fill="black"/>
<path fill-rule="evenodd" clip-rule="evenodd" d="M26.7344 18.5145C26.7258 18.5098 26.7176 18.5046 26.7097 18.4987L26.7323 18.4736C26.7392 18.4782 26.746 18.4826 26.7539 18.4867L26.7344 18.5145Z" fill="black"/>
<path fill-rule="evenodd" clip-rule="evenodd" d="M26.7097 18.4989C26.7021 18.4936 26.6949 18.4877 26.6881 18.4813L26.7136 18.4591C26.7192 18.4643 26.7259 18.4693 26.7323 18.474L26.7097 18.4989ZM26.6881 18.4811C26.6814 18.4749 26.6752 18.4683 26.6694 18.4612L26.6979 18.4421C26.7027 18.448 26.708 18.4535 26.7136 18.4587L26.6881 18.4811Z" fill="black"/>
<path fill-rule="evenodd" clip-rule="evenodd" d="M26.6695 18.4614C26.6638 18.4545 26.6587 18.4471 26.6542 18.4394L26.6845 18.4238C26.6886 18.4303 26.693 18.4365 26.6977 18.4423L26.6695 18.4614ZM26.6542 18.4394C26.6496 18.4316 26.6457 18.4235 26.6423 18.4151L26.6743 18.4031C26.6776 18.4103 26.6807 18.417 26.6845 18.4236L26.6542 18.4394Z" fill="black"/>
<path fill-rule="evenodd" clip-rule="evenodd" d="M26.6423 18.4151C26.6386 18.4065 26.6357 18.3975 26.6338 18.3884L26.6674 18.3807C26.6695 18.3886 26.6716 18.396 26.6743 18.4031L26.6423 18.4151Z" fill="black"/>
<path fill-rule="evenodd" clip-rule="evenodd" d="M26.6338 18.3884C26.6315 18.3788 26.6301 18.3691 26.6294 18.3593L26.6638 18.3562C26.6647 18.3647 26.6659 18.373 26.6676 18.3807L26.6338 18.3884Z" fill="#120B04"/>
<path fill-rule="evenodd" clip-rule="evenodd" d="M26.6295 18.3593C26.6287 18.3487 26.6286 18.3381 26.6291 18.3275L26.6639 18.3292C26.6631 18.3385 26.6635 18.3472 26.6639 18.3559L26.6295 18.3593Z" fill="#1A1614"/>
<path fill-rule="evenodd" clip-rule="evenodd" d="M26.6668 17.6016L26.629 18.3275L26.6639 18.3292L26.7031 17.5674L26.6668 17.6016Z" fill="#1C1715"/>
<path fill-rule="evenodd" clip-rule="evenodd" d="M26.9914 18.8966L26.9711 18.8955L26.9667 18.9314C26.9735 18.9317 26.9804 18.9323 26.987 18.9327L26.9914 18.8966ZM26.9711 18.8953L26.9507 18.8941L26.9312 18.8926L26.926 18.9285L26.9464 18.93L26.9667 18.9314L26.9711 18.8953Z" fill="black"/>
<path fill-rule="evenodd" clip-rule="evenodd" d="M26.9314 18.8926L26.9114 18.8909L26.8919 18.8891L26.8859 18.9248L26.9058 18.9266L26.9262 18.9285L26.9314 18.8926ZM26.8919 18.8891L26.8724 18.887L26.8529 18.8847L26.8461 18.92C26.8593 18.9216 26.8726 18.9231 26.8859 18.9245L26.8919 18.8891Z" fill="black"/>
<path fill-rule="evenodd" clip-rule="evenodd" d="M26.8531 18.8848L26.834 18.8823L26.8268 18.9177L26.8463 18.9202L26.8531 18.8848Z" fill="black"/>
<path fill-rule="evenodd" clip-rule="evenodd" d="M26.8341 18.8822L26.7963 18.8768L26.7882 18.9117C26.8009 18.9138 26.8137 18.9158 26.8268 18.9175L26.8341 18.8822Z" fill="black"/>
<path fill-rule="evenodd" clip-rule="evenodd" d="M26.7965 18.8768L26.7596 18.8706L26.7502 18.9051L26.7884 18.9117L26.7965 18.8768Z" fill="black"/>
<path fill-rule="evenodd" clip-rule="evenodd" d="M26.7596 18.8706C26.7477 18.8684 26.7358 18.8661 26.7239 18.8636L26.7129 18.8976C26.7251 18.9001 26.7376 18.9028 26.7502 18.9051L26.7596 18.8706Z" fill="black"/>
<path fill-rule="evenodd" clip-rule="evenodd" d="M26.7239 18.8635C26.7117 18.861 26.7005 18.8583 26.6886 18.8557L26.6764 18.8891C26.6886 18.892 26.7003 18.8949 26.7129 18.8976L26.7239 18.8635Z" fill="black"/>
<path fill-rule="evenodd" clip-rule="evenodd" d="M26.6886 18.8557L26.6542 18.847L26.6409 18.8798C26.6527 18.8831 26.6643 18.8862 26.6766 18.8891L26.6886 18.8557Z" fill="black"/>
<path fill-rule="evenodd" clip-rule="evenodd" d="M26.6541 18.847L26.6209 18.8374L26.6064 18.8696C26.6178 18.8731 26.629 18.8767 26.6409 18.8798L26.6541 18.847ZM26.6209 18.8374C26.6102 18.8342 26.5995 18.8307 26.589 18.8269C26.589 18.8269 26.5678 18.8196 26.5579 18.8156L26.54 18.8462L26.5724 18.8584C26.5838 18.8623 26.5946 18.8661 26.6064 18.8696L26.6209 18.8374ZM26.5577 18.8156C26.5476 18.8117 26.5375 18.8076 26.5276 18.8034L26.5081 18.8331C26.5186 18.8376 26.5288 18.842 26.5396 18.8462L26.5577 18.8156Z" fill="black"/>
<path fill-rule="evenodd" clip-rule="evenodd" d="M26.5278 18.8032C26.5181 18.7989 26.5085 18.7945 26.4989 18.7901L26.4778 18.8187C26.4875 18.8235 26.4981 18.8283 26.5081 18.8328L26.5278 18.8032Z" fill="black"/>
<path fill-rule="evenodd" clip-rule="evenodd" d="M26.4989 18.7901C26.4892 18.7855 26.4803 18.7808 26.4709 18.776L26.4487 18.8034C26.4581 18.8086 26.4678 18.8138 26.478 18.8187L26.4989 18.7901Z" fill="black"/>
<path fill-rule="evenodd" clip-rule="evenodd" d="M26.4709 18.776C26.462 18.7712 26.4532 18.7662 26.4445 18.761L26.4207 18.7874C26.4296 18.793 26.4389 18.7984 26.4487 18.8036L26.4709 18.776Z" fill="black"/>
<path fill-rule="evenodd" clip-rule="evenodd" d="M26.4446 18.761C26.4361 18.7559 26.4277 18.7505 26.4194 18.7451L26.3939 18.7702L26.4207 18.7874L26.4446 18.761Z" fill="black"/>
<path fill-rule="evenodd" clip-rule="evenodd" d="M26.4194 18.745C26.4113 18.7396 26.4036 18.7338 26.396 18.728L26.3688 18.7519C26.3769 18.7583 26.3854 18.7643 26.3939 18.7702L26.4194 18.745Z" fill="black"/>
<path fill-rule="evenodd" clip-rule="evenodd" d="M26.396 18.7281C26.3884 18.7224 26.381 18.7164 26.3738 18.7102L26.3454 18.7326C26.3531 18.7393 26.3607 18.7457 26.3688 18.7519L26.396 18.7281ZM26.3736 18.71C26.3663 18.7038 26.3595 18.6974 26.3524 18.6909L26.3228 18.7119C26.33 18.7189 26.3373 18.7258 26.345 18.7324L26.3736 18.71Z" fill="black"/>
<path fill-rule="evenodd" clip-rule="evenodd" d="M26.3526 18.6909C26.3457 18.6845 26.3397 18.6778 26.3331 18.6708L26.3024 18.6903C26.3088 18.6978 26.3156 18.7048 26.3231 18.7119L26.3526 18.6909Z" fill="black"/>
<path fill-rule="evenodd" clip-rule="evenodd" d="M26.3331 18.671C26.3271 18.6641 26.3213 18.6572 26.3157 18.65L26.2833 18.6679C26.2893 18.6758 26.296 18.6832 26.3024 18.6905L26.3331 18.671Z" fill="#130D07"/>
<path fill-rule="evenodd" clip-rule="evenodd" d="M26.3156 18.65C26.31 18.6427 26.3042 18.6355 26.2994 18.6278L26.2662 18.6442C26.2714 18.6523 26.2776 18.6602 26.2833 18.6679L26.3156 18.65Z" fill="#211D1C"/>
<path fill-rule="evenodd" clip-rule="evenodd" d="M26.2995 18.6276C26.2943 18.6201 26.2894 18.6124 26.285 18.6044L26.251 18.6191C26.2557 18.6276 26.2607 18.6359 26.2663 18.644L26.2995 18.6276Z" fill="#2C2826"/>
<path fill-rule="evenodd" clip-rule="evenodd" d="M26.285 18.6044C26.2806 18.5964 26.2764 18.5883 26.2723 18.5801L26.2371 18.5927C26.2412 18.6017 26.2456 18.6104 26.2508 18.6189L26.285 18.6044Z" fill="#35312F"/>
<path fill-rule="evenodd" clip-rule="evenodd" d="M26.2723 18.5803C26.2682 18.572 26.2646 18.5635 26.2609 18.555L26.2252 18.5658C26.2285 18.5749 26.2325 18.5843 26.237 18.593L26.2723 18.5803Z" fill="#403C3A"/>
<path fill-rule="evenodd" clip-rule="evenodd" d="M26.2609 18.555C26.2576 18.5463 26.2549 18.5374 26.252 18.5284L26.2151 18.5374C26.218 18.5469 26.2215 18.5565 26.2253 18.5658L26.2609 18.555Z" fill="#484442"/>
<path fill-rule="evenodd" clip-rule="evenodd" d="M26.2519 18.5282C26.2491 18.5191 26.2467 18.5099 26.2447 18.5006L26.2069 18.5075C26.2094 18.5174 26.2121 18.5274 26.215 18.5371L26.2519 18.5282Z" fill="#524E4D"/>
<path fill-rule="evenodd" clip-rule="evenodd" d="M26.2447 18.5006C26.2425 18.491 26.2406 18.4814 26.2391 18.4717L26.2013 18.4765C26.203 18.4871 26.205 18.4975 26.2069 18.5074L26.2447 18.5006Z" fill="#5A5655"/>
<path fill-rule="evenodd" clip-rule="evenodd" d="M26.2391 18.4718C26.2378 18.4618 26.2367 18.4519 26.2358 18.4419L26.1976 18.4444C26.1985 18.4554 26.1997 18.466 26.2014 18.4765L26.2391 18.4718Z" fill="#605D5C"/>
<path fill-rule="evenodd" clip-rule="evenodd" d="M26.2358 18.4419C26.2349 18.4317 26.2345 18.4211 26.2341 18.4108L26.1959 18.411C26.1963 18.4224 26.1968 18.4334 26.1976 18.4444L26.2358 18.4419Z" fill="#666362"/>
<path fill-rule="evenodd" clip-rule="evenodd" d="M26.2343 18.4106C26.2343 18.4 26.2348 18.389 26.2352 18.3782L26.197 18.3759C26.1966 18.3877 26.1962 18.3994 26.1962 18.4108L26.2343 18.4106Z" fill="#6A6767"/>
<path fill-rule="evenodd" clip-rule="evenodd" d="M25.8862 17.5614L26.6668 17.6016L26.7031 17.5674L25.7841 17.5197L25.8862 17.5614Z" fill="#363230"/>
<path fill-rule="evenodd" clip-rule="evenodd" d="M26.235 18.3782L26.2599 17.9001L26.2209 17.9159L26.197 18.3759L26.235 18.3782Z" fill="#6E6B6B"/>
<path fill-rule="evenodd" clip-rule="evenodd" d="M26.2599 17.9L25.8862 17.5614L25.7841 17.5197L26.2209 17.9158L26.2599 17.9Z" fill="#2F2B29"/>
<path fill-rule="evenodd" clip-rule="evenodd" d="M26.2598 17.9L25.8861 17.5612L26.6668 17.6014L26.629 18.3273C26.6201 18.5033 26.7919 18.5666 27.0079 18.5778C27.2231 18.589 27.4008 18.5437 27.4101 18.3678L27.4479 17.6419L27.8382 17.662L27.7969 18.4587C27.7787 18.8106 27.4228 18.9185 26.9915 18.8961C26.5603 18.8739 26.2171 18.7299 26.2352 18.3777L26.2598 17.9Z" fill="#A6A8AA"/>
<path fill-rule="evenodd" clip-rule="evenodd" d="M29.5869 18.2186C29.5886 18.2041 29.5879 18.1894 29.5849 18.175L29.5448 18.1813C29.5469 18.1916 29.5477 18.2029 29.5465 18.2149L29.5869 18.2186Z" fill="#AAADB0"/>
<path fill-rule="evenodd" clip-rule="evenodd" d="M29.5849 18.175C29.5826 18.1621 29.5781 18.1497 29.5716 18.1383L29.5347 18.153C29.5393 18.1619 29.5428 18.1714 29.5448 18.1813L29.5849 18.175Z" fill="#929192"/>
<path fill-rule="evenodd" clip-rule="evenodd" d="M29.5717 18.1383C29.5661 18.1272 29.5588 18.1171 29.5501 18.1082L29.5177 18.1298C29.5243 18.1368 29.53 18.1446 29.5347 18.153L29.5717 18.1383Z" fill="#5E5A59"/>
<path fill-rule="evenodd" clip-rule="evenodd" d="M29.55 18.1082C29.5416 18.0993 29.5323 18.0912 29.5224 18.0841L29.4956 18.1111C29.5034 18.1166 29.5107 18.1228 29.5174 18.1296L29.55 18.1082Z" fill="#383432"/>
<path fill-rule="evenodd" clip-rule="evenodd" d="M29.5224 18.0843C29.5126 18.0776 29.5024 18.0716 29.4917 18.0663L29.4709 18.0974C29.479 18.1014 29.4875 18.1061 29.4956 18.1113L29.5224 18.0843Z" fill="#1F1B19"/>
<path fill-rule="evenodd" clip-rule="evenodd" d="M29.4917 18.0661C29.4816 18.0611 29.4712 18.0567 29.4606 18.053L29.4457 18.087C29.4544 18.0898 29.463 18.0932 29.4712 18.0972L29.4917 18.0661Z" fill="#090000"/>
<path fill-rule="evenodd" clip-rule="evenodd" d="M29.4604 18.053C29.4509 18.0497 29.4413 18.0469 29.4316 18.0447L29.4214 18.0804C29.4286 18.082 29.4367 18.0841 29.4453 18.087L29.4604 18.053Z" fill="black"/>
<path fill-rule="evenodd" clip-rule="evenodd" d="M29.4318 18.0449C29.424 18.0431 29.4162 18.0418 29.4083 18.0408L29.4006 18.0773C29.4078 18.0779 29.4148 18.079 29.4218 18.0806L29.4318 18.0449Z" fill="black"/>
<path fill-rule="evenodd" clip-rule="evenodd" d="M29.5869 18.2186C29.5862 18.2265 29.5849 18.2343 29.5832 18.242L29.5436 18.2329C29.5448 18.2269 29.5458 18.2209 29.5465 18.2148L29.5869 18.2186Z" fill="#AEB0B2"/>
<path fill-rule="evenodd" clip-rule="evenodd" d="M29.5832 18.242C29.5811 18.2495 29.5788 18.2563 29.5763 18.2628C29.5763 18.2628 29.5707 18.2754 29.567 18.2812L29.5309 18.263C29.5338 18.2586 29.5377 18.2491 29.5377 18.2491C29.5402 18.244 29.542 18.2386 29.5433 18.2331L29.5832 18.242Z" fill="#B0B2B4"/>
<path fill-rule="evenodd" clip-rule="evenodd" d="M29.567 18.2811C29.5636 18.2866 29.5598 18.2919 29.5556 18.2968L29.522 18.2751C29.5253 18.2713 29.528 18.2672 29.5309 18.2628L29.567 18.2811Z" fill="#ACAEB0"/>
<path fill-rule="evenodd" clip-rule="evenodd" d="M29.5557 18.297C29.5477 18.3067 29.5384 18.3152 29.5281 18.3223L29.5005 18.2945C29.5086 18.2892 29.5159 18.2826 29.5221 18.275L29.5557 18.297Z" fill="#A8AAAC"/>
<path fill-rule="evenodd" clip-rule="evenodd" d="M29.5282 18.3224C29.5181 18.3292 29.5074 18.3351 29.4962 18.34L29.4755 18.3083C29.4843 18.3046 29.4927 18.3 29.5006 18.2946L29.5282 18.3224Z" fill="#858384"/>
<path fill-rule="evenodd" clip-rule="evenodd" d="M29.4961 18.34C29.4851 18.3446 29.4737 18.3484 29.4621 18.3512L29.4484 18.3167C29.4576 18.3147 29.4667 18.3118 29.4755 18.3082L29.4961 18.34Z" fill="#686464"/>
<path fill-rule="evenodd" clip-rule="evenodd" d="M29.4621 18.3512C29.4513 18.354 29.4404 18.356 29.4293 18.3574L29.4216 18.3213C29.4301 18.3205 29.4391 18.3188 29.4484 18.3168L29.4621 18.3512Z" fill="#585453"/>
<path fill-rule="evenodd" clip-rule="evenodd" d="M29.4293 18.3574C29.4196 18.3586 29.4098 18.3592 29.4 18.3593L29.3967 18.3225C29.4044 18.3225 29.4125 18.3221 29.4214 18.3213L29.4293 18.3574Z" fill="#514D4B"/>
<path fill-rule="evenodd" clip-rule="evenodd" d="M29.4 18.3593C29.3911 18.3593 29.3834 18.3591 29.377 18.3584L29.3766 18.3217C29.3834 18.3222 29.3901 18.3225 29.3969 18.3225L29.4 18.3593Z" fill="#484442"/>
<path fill-rule="evenodd" clip-rule="evenodd" d="M29.4081 18.0408L28.8246 17.9837L28.8538 18.0235L29.4004 18.0773L29.4081 18.0408Z" fill="black"/>
<path fill-rule="evenodd" clip-rule="evenodd" d="M28.7935 18.3014L29.377 18.3583L29.3766 18.3218L28.8298 18.268L28.7935 18.3014Z" fill="#403C3A"/>
<path fill-rule="evenodd" clip-rule="evenodd" d="M28.8246 17.9837L28.7935 18.3014L28.8298 18.268L28.8538 18.0235L28.8246 17.9837Z" fill="#4C4847"/>
<path fill-rule="evenodd" clip-rule="evenodd" d="M29.9273 18.7552L29.8893 19.1433L29.9177 19.1825L29.9594 18.7582L29.9273 18.7552Z" fill="#6F6D6C"/>
<path fill-rule="evenodd" clip-rule="evenodd" d="M29.8893 19.1433L29.5003 19.1053L29.4561 19.1372L29.9178 19.1825L29.8893 19.1433Z" fill="black"/>
<path fill-rule="evenodd" clip-rule="evenodd" d="M29.9825 18.1906C29.9815 18.2014 29.9798 18.2122 29.9773 18.2228L30.0088 18.2294C30.0113 18.2178 30.0132 18.206 30.0144 18.1939L29.9825 18.1906Z" fill="#767474"/>
<path fill-rule="evenodd" clip-rule="evenodd" d="M29.9773 18.2228C29.9752 18.2333 29.9722 18.2437 29.9684 18.2537L29.9987 18.2635C30.0028 18.2522 30.0059 18.241 30.0088 18.2292L29.9773 18.2228Z" fill="#858384"/>
<path fill-rule="evenodd" clip-rule="evenodd" d="M29.9683 18.2539C29.9648 18.264 29.9605 18.2738 29.9557 18.2834L29.9845 18.296C29.9901 18.2857 29.9947 18.2747 29.9986 18.2637L29.9683 18.2539Z" fill="#969697"/>
<path fill-rule="evenodd" clip-rule="evenodd" d="M29.9557 18.2833C29.9509 18.2928 29.9456 18.3021 29.9399 18.3111L29.9667 18.3265C29.9733 18.3166 29.9792 18.3064 29.9846 18.2958L29.9557 18.2833Z" fill="#AAACAE"/>
<path fill-rule="evenodd" clip-rule="evenodd" d="M29.94 18.3112C29.934 18.3201 29.9276 18.3289 29.9209 18.3373L29.9456 18.3549C29.9533 18.346 29.9601 18.3365 29.9668 18.3265L29.94 18.3112Z" fill="#ADAEB0"/>
<path fill-rule="evenodd" clip-rule="evenodd" d="M29.9209 18.3373C29.914 18.3458 29.9068 18.3539 29.8987 18.3616L29.9209 18.3813C29.9294 18.373 29.9379 18.3641 29.9456 18.3549L29.9209 18.3373Z" fill="#B3B4B5"/>
<path fill-rule="evenodd" clip-rule="evenodd" d="M29.8986 18.3616C29.8907 18.3693 29.8825 18.3768 29.8739 18.3838L29.8934 18.4049C29.9032 18.3973 29.9125 18.3896 29.921 18.3811L29.8986 18.3616Z" fill="#BCBDBE"/>
<path fill-rule="evenodd" clip-rule="evenodd" d="M29.874 18.3838C29.8652 18.3909 29.8562 18.3976 29.8468 18.4039L29.8634 18.4259C29.874 18.4195 29.8842 18.4124 29.8935 18.405L29.874 18.3838Z" fill="#C8C8C9"/>
<path fill-rule="evenodd" clip-rule="evenodd" d="M29.8467 18.4039C29.837 18.4104 29.827 18.4163 29.8167 18.4218L29.8308 18.444C29.8418 18.4386 29.8526 18.4324 29.8631 18.4259L29.8467 18.4039Z" fill="#D4D4D5"/>
<path fill-rule="evenodd" clip-rule="evenodd" d="M29.8167 18.4218C29.8065 18.4271 29.7959 18.4323 29.7852 18.4371L29.7962 18.4591C29.808 18.4546 29.8196 18.4497 29.831 18.4442L29.8167 18.4218Z" fill="#DAD9DB"/>
<path fill-rule="evenodd" clip-rule="evenodd" d="M29.7851 18.4371C29.774 18.4419 29.7628 18.4461 29.7515 18.45L29.7596 18.4705C29.7719 18.4673 29.7841 18.4635 29.7961 18.4591L29.7851 18.4371Z" fill="#C1C1C3"/>
<path fill-rule="evenodd" clip-rule="evenodd" d="M29.7515 18.45C29.7398 18.4538 29.7281 18.4571 29.7162 18.4599L29.7214 18.4784C29.7342 18.4765 29.7469 18.4738 29.7596 18.4705L29.7515 18.45Z" fill="#7D7C7C"/>
<path fill-rule="evenodd" clip-rule="evenodd" d="M29.7163 18.46L29.698 18.4639L29.7017 18.4809C29.7084 18.4803 29.715 18.4795 29.7217 18.4784L29.7163 18.46Z" fill="#383432"/>
<path fill-rule="evenodd" clip-rule="evenodd" d="M29.698 18.4639L29.6793 18.467L29.6818 18.4825C29.6885 18.4822 29.6951 18.4817 29.7017 18.4809L29.698 18.4639Z" fill="black"/>
<path fill-rule="evenodd" clip-rule="evenodd" d="M29.6793 18.467C29.6731 18.468 29.6669 18.4688 29.6606 18.4695L29.6615 18.4828C29.6683 18.483 29.6752 18.4828 29.6818 18.4823L29.6793 18.467Z" fill="#393533"/>
<path fill-rule="evenodd" clip-rule="evenodd" d="M29.6606 18.4697L29.6411 18.4715V18.4827C29.648 18.4829 29.6548 18.4834 29.6615 18.4832L29.6606 18.4697Z" fill="#ABACAE"/>
<path fill-rule="evenodd" clip-rule="evenodd" d="M29.6411 18.4714L29.6216 18.4722L29.6204 18.4809C29.6272 18.4815 29.6341 18.4822 29.6411 18.4824V18.4714Z" fill="#D4D4D5"/>
<path fill-rule="evenodd" clip-rule="evenodd" d="M29.6219 18.4722L29.6023 18.4724L29.5999 18.4784L29.6206 18.4811L29.6219 18.4722Z" fill="#C0C0C2"/>
<path fill-rule="evenodd" clip-rule="evenodd" d="M29.6023 18.4724L29.5824 18.4716L29.5791 18.4745L29.5999 18.4784L29.6023 18.4724Z" fill="#433F3D"/>
<path fill-rule="evenodd" clip-rule="evenodd" d="M29.5823 18.4715C29.5759 18.4711 29.5691 18.4707 29.562 18.4699L29.5579 18.4697C29.5651 18.4715 29.572 18.4732 29.579 18.4744L29.5823 18.4715Z" fill="#2E2A28"/>
<path fill-rule="evenodd" clip-rule="evenodd" d="M29.9272 18.7552C29.9281 18.7442 29.9285 18.7336 29.9281 18.7233L29.96 18.7218C29.9606 18.7339 29.9603 18.746 29.9592 18.7581L29.9272 18.7552Z" fill="#6E6B6B"/>
<path fill-rule="evenodd" clip-rule="evenodd" d="M29.9281 18.7233C29.9278 18.7133 29.9268 18.7033 29.9252 18.6934L29.9567 18.6878C29.9584 18.6988 29.9596 18.71 29.96 18.7218L29.9281 18.7233Z" fill="#686464"/>
<path fill-rule="evenodd" clip-rule="evenodd" d="M29.9254 18.6936C29.9237 18.6842 29.9214 18.6748 29.9186 18.6656L29.9489 18.6561C29.9522 18.6664 29.9549 18.677 29.957 18.6878L29.9254 18.6936Z" fill="#5F5B5A"/>
<path fill-rule="evenodd" clip-rule="evenodd" d="M29.9183 18.6656C29.915 18.6567 29.9119 18.6479 29.9073 18.6396L29.9362 18.6268C29.941 18.6361 29.9451 18.6459 29.9489 18.656L29.9183 18.6656Z" fill="#5A5655"/>
<path fill-rule="evenodd" clip-rule="evenodd" d="M29.9075 18.6396C29.9034 18.6313 29.8987 18.6233 29.8934 18.6156L29.9202 18.5998C29.9264 18.6083 29.9318 18.6173 29.9364 18.6268L29.9075 18.6396Z" fill="#585453"/>
<path fill-rule="evenodd" clip-rule="evenodd" d="M29.8933 18.6156C29.888 18.6078 29.8822 18.6004 29.8759 18.5934L29.9001 18.5751C29.9074 18.5828 29.9141 18.5911 29.9201 18.5998L29.8933 18.6156Z" fill="#5E5A59"/>
<path fill-rule="evenodd" clip-rule="evenodd" d="M29.8759 18.5934C29.8693 18.5862 29.8624 18.5795 29.8551 18.573L29.8769 18.5529C29.885 18.56 29.8927 18.5672 29.8999 18.5749L29.8759 18.5934Z" fill="#6B6968"/>
<path fill-rule="evenodd" clip-rule="evenodd" d="M29.8552 18.5733C29.8478 18.5666 29.84 18.5605 29.8318 18.5548L29.8509 18.5336C29.8602 18.5399 29.8687 18.5463 29.8772 18.5531L29.8552 18.5733Z" fill="#898889"/>
<path fill-rule="evenodd" clip-rule="evenodd" d="M29.8317 18.5548C29.8231 18.5488 29.8143 18.5433 29.8053 18.5382L29.8211 18.5166C29.8317 18.5218 29.8414 18.5276 29.8507 18.5338L29.8317 18.5548Z" fill="#ABACAE"/>
<path fill-rule="evenodd" clip-rule="evenodd" d="M29.8055 18.5381C29.7961 18.5328 29.7864 18.5279 29.7766 18.5234L29.7893 18.5018C29.8007 18.5062 29.8111 18.5112 29.8212 18.5164L29.8055 18.5381Z" fill="#BEBEC0"/>
<path fill-rule="evenodd" clip-rule="evenodd" d="M29.7766 18.5232C29.7664 18.5185 29.756 18.5141 29.7455 18.5101L29.7552 18.4898C29.7671 18.4933 29.7783 18.4975 29.7893 18.5018L29.7766 18.5232Z" fill="#D5D5D7"/>
<path fill-rule="evenodd" clip-rule="evenodd" d="M29.7452 18.5102C29.7343 18.5059 29.7232 18.5021 29.712 18.4988L29.7185 18.4803C29.7311 18.483 29.7432 18.4861 29.755 18.4896L29.7452 18.5102Z" fill="#CBCBCD"/>
<path fill-rule="evenodd" clip-rule="evenodd" d="M29.7121 18.499C29.7006 18.4954 29.689 18.4921 29.6772 18.4892L29.6806 18.4736C29.6934 18.4755 29.7065 18.4778 29.7187 18.4805L29.7121 18.499Z" fill="#72706F"/>
<path fill-rule="evenodd" clip-rule="evenodd" d="M29.6772 18.4892C29.6649 18.4862 29.6526 18.4835 29.6403 18.4811L29.6407 18.4697C29.654 18.4705 29.6674 18.4719 29.6803 18.4736L29.6772 18.4892Z" fill="#1D1917"/>
<path fill-rule="evenodd" clip-rule="evenodd" d="M29.6405 18.4811C29.6342 18.4799 29.6278 18.4788 29.6214 18.4778L29.6206 18.4686L29.6409 18.4697L29.6405 18.4811Z" fill="#9FA0A2"/>
<path fill-rule="evenodd" clip-rule="evenodd" d="M29.6214 18.4778L29.6019 18.4747L29.5999 18.4683L29.6206 18.4685L29.6214 18.4778Z" fill="#D4D4D5"/>
<path fill-rule="evenodd" clip-rule="evenodd" d="M29.6019 18.4747C29.5954 18.4739 29.5889 18.473 29.5824 18.4722L29.5791 18.4687L29.5999 18.4683L29.6019 18.4747Z" fill="#BCBDBF"/>
<path fill-rule="evenodd" clip-rule="evenodd" d="M29.5823 18.4722L29.562 18.4699L29.5579 18.4697L29.579 18.4686L29.5823 18.4722Z" fill="#24201F"/>
<path fill-rule="evenodd" clip-rule="evenodd" d="M29.9825 18.1906C29.9838 18.1796 29.9838 18.1688 29.9834 18.1578H30.0153C30.0162 18.1698 30.0157 18.1818 30.0145 18.1939L29.9825 18.1906Z" fill="#6F6D6C"/>
<path fill-rule="evenodd" clip-rule="evenodd" d="M29.9833 18.1578C29.9829 18.147 29.9817 18.1362 29.9796 18.1256L30.0107 18.1219C30.0132 18.1337 30.0149 18.1455 30.0151 18.1576L29.9833 18.1578Z" fill="#6B6968"/>
<path fill-rule="evenodd" clip-rule="evenodd" d="M29.9796 18.1257C29.9775 18.1149 29.9747 18.1044 29.9711 18.0941L30.0018 18.0869C30.0055 18.0985 30.0086 18.1099 30.0107 18.1217L29.9796 18.1257Z" fill="#6B6968"/>
<path fill-rule="evenodd" clip-rule="evenodd" d="M29.9711 18.0941C29.9678 18.0836 29.9637 18.0734 29.9589 18.0636L29.9881 18.053C29.9933 18.064 29.9983 18.0754 30.0018 18.087L29.9711 18.0941Z" fill="#696665"/>
<path fill-rule="evenodd" clip-rule="evenodd" d="M29.959 18.0636C29.9539 18.0535 29.9483 18.0437 29.9424 18.0341L29.97 18.0202C29.9764 18.031 29.9828 18.0418 29.9882 18.0532L29.959 18.0636Z" fill="#656261"/>
<path fill-rule="evenodd" clip-rule="evenodd" d="M29.9424 18.0341C29.9359 18.0243 29.929 18.0148 29.9216 18.0057L29.9472 17.9885C29.9552 17.9988 29.9629 18.0094 29.9698 18.02L29.9424 18.0341Z" fill="#5E5A59"/>
<path fill-rule="evenodd" clip-rule="evenodd" d="M29.9217 18.0057C29.914 17.9964 29.9059 17.9874 29.8975 17.9787L29.9205 17.9584C29.9298 17.9681 29.9388 17.9781 29.9473 17.9885L29.9217 18.0057Z" fill="#514D4B"/>
<path fill-rule="evenodd" clip-rule="evenodd" d="M29.8974 17.9787C29.8884 17.9699 29.8791 17.9615 29.8694 17.9534L29.8901 17.9304C29.9011 17.9393 29.9109 17.9488 29.9204 17.9586L29.8974 17.9787Z" fill="#423E3C"/>
<path fill-rule="evenodd" clip-rule="evenodd" d="M29.8694 17.9534C29.8594 17.9449 29.8489 17.937 29.8379 17.9297L29.8562 17.904C29.8684 17.9125 29.8796 17.9212 29.8902 17.9303L29.8694 17.9534Z" fill="#312D2B"/>
<path fill-rule="evenodd" clip-rule="evenodd" d="M29.8378 17.9295C29.8267 17.9216 29.8152 17.9143 29.8033 17.9077L29.8187 17.8795C29.8316 17.8872 29.8442 17.8953 29.8561 17.9038L29.8378 17.9295Z" fill="#1C1816"/>
<path fill-rule="evenodd" clip-rule="evenodd" d="M29.8034 17.9079C29.7978 17.9044 29.7912 17.9011 29.7852 17.8978L29.7989 17.8683L29.8188 17.8797L29.8034 17.9079Z" fill="#090000"/>
<path fill-rule="evenodd" clip-rule="evenodd" d="M29.7851 17.8978C29.7791 17.8945 29.7724 17.8913 29.766 17.8882L29.7782 17.8577L29.799 17.8683L29.7851 17.8978Z" fill="black"/>
<path fill-rule="evenodd" clip-rule="evenodd" d="M29.766 17.8882C29.7594 17.885 29.7528 17.882 29.7461 17.8791L29.7571 17.8477L29.7783 17.8577L29.766 17.8882ZM29.7461 17.8791C29.7392 17.8761 29.7323 17.8733 29.7253 17.8706L29.7347 17.8382C29.7424 17.8413 29.7496 17.8442 29.7569 17.8475L29.7461 17.8791Z" fill="black"/>
<path fill-rule="evenodd" clip-rule="evenodd" d="M29.7256 17.8706C29.7184 17.8678 29.7112 17.8652 29.704 17.8627L29.7121 17.8295C29.7202 17.8324 29.7274 17.8351 29.7347 17.8382L29.7256 17.8706Z" fill="black"/>
<path fill-rule="evenodd" clip-rule="evenodd" d="M29.704 17.8627L29.6823 17.8554L29.6891 17.8216C29.6972 17.8241 29.7049 17.8268 29.7121 17.8295L29.704 17.8627Z" fill="black"/>
<path fill-rule="evenodd" clip-rule="evenodd" d="M29.6822 17.8556C29.6749 17.8533 29.6675 17.8511 29.66 17.849L29.6652 17.8143L29.6891 17.8216L29.6822 17.8556Z" fill="black"/>
<path fill-rule="evenodd" clip-rule="evenodd" d="M29.6598 17.849C29.652 17.8469 29.6442 17.845 29.6364 17.8432L29.6407 17.8079L29.665 17.8144L29.6598 17.849Z" fill="#16110E"/>
<path fill-rule="evenodd" clip-rule="evenodd" d="M29.6364 17.8432C29.6286 17.8411 29.6208 17.8393 29.6129 17.8378L29.6158 17.8023C29.6243 17.804 29.6328 17.806 29.6409 17.8079L29.6364 17.8432Z" fill="#1F1B19"/>
<path fill-rule="evenodd" clip-rule="evenodd" d="M29.6129 17.8378C29.6048 17.8362 29.5967 17.8347 29.5886 17.8333L29.5903 17.7974L29.6158 17.8023L29.6129 17.8378Z" fill="#272321"/>
<path fill-rule="evenodd" clip-rule="evenodd" d="M29.5886 17.8332C29.5805 17.832 29.572 17.8305 29.5635 17.8295L29.5643 17.7934C29.5732 17.7946 29.5817 17.7959 29.5902 17.7975L29.5886 17.8332Z" fill="#2E2A28"/>
<path fill-rule="evenodd" clip-rule="evenodd" d="M29.5635 17.8295L29.5384 17.8264L29.538 17.7901L29.5643 17.7934L29.5635 17.8295Z" fill="#332E2D"/>
<path fill-rule="evenodd" clip-rule="evenodd" d="M29.5003 19.1053L29.531 18.7876L29.4905 18.7834L29.4561 19.1373L29.5003 19.1053Z" fill="#AEB0B2"/>
<path fill-rule="evenodd" clip-rule="evenodd" d="M29.5309 18.7876C29.5321 18.7768 29.5318 18.766 29.53 18.7552L29.49 18.7577C29.4912 18.766 29.4917 18.7748 29.4904 18.7835L29.5309 18.7876Z" fill="#AAACAE"/>
<path fill-rule="evenodd" clip-rule="evenodd" d="M29.5301 18.7552C29.5287 18.7446 29.526 18.7342 29.522 18.7243L29.484 18.7336C29.4871 18.7414 29.4891 18.7496 29.49 18.7579L29.5301 18.7552Z" fill="#7D7C7C"/>
<path fill-rule="evenodd" clip-rule="evenodd" d="M29.522 18.7243C29.5178 18.7143 29.5126 18.7046 29.5066 18.6955L29.4722 18.7113C29.477 18.7182 29.481 18.7256 29.484 18.7335L29.522 18.7243Z" fill="#4E4948"/>
<path fill-rule="evenodd" clip-rule="evenodd" d="M29.5067 18.6955C29.5004 18.6862 29.4932 18.6776 29.4851 18.6697L29.4554 18.6915C29.4618 18.6973 29.4674 18.704 29.472 18.7112L29.5067 18.6955Z" fill="#2C2826"/>
<path fill-rule="evenodd" clip-rule="evenodd" d="M29.4853 18.6697C29.477 18.6616 29.468 18.6541 29.4585 18.6475L29.4342 18.6747C29.4419 18.6796 29.4491 18.6852 29.4558 18.6915L29.4853 18.6697Z" fill="#171210"/>
<path fill-rule="evenodd" clip-rule="evenodd" d="M29.4585 18.6475C29.4486 18.6406 29.438 18.6347 29.427 18.6297L29.4083 18.6612C29.4176 18.6651 29.4266 18.6695 29.4342 18.6747L29.4585 18.6475ZM29.4268 18.6299C29.4152 18.6247 29.4033 18.6204 29.3911 18.617L29.3784 18.6517C29.389 18.6544 29.3992 18.6575 29.4081 18.6614L29.4268 18.6299Z" fill="black"/>
<path fill-rule="evenodd" clip-rule="evenodd" d="M29.3911 18.617C29.3783 18.6136 29.3653 18.6113 29.3521 18.61L29.3448 18.6459C29.3567 18.6469 29.3675 18.649 29.3785 18.6515L29.3911 18.617Z" fill="black"/>
<path fill-rule="evenodd" clip-rule="evenodd" d="M29.3523 18.6097L29.1576 18.5909L29.1504 18.6265L29.345 18.6458L29.3523 18.6097ZM29.1576 18.5909L28.7686 18.5527L28.7978 18.5921L29.1504 18.6265L29.1576 18.5909Z" fill="black"/>
<path fill-rule="evenodd" clip-rule="evenodd" d="M28.7685 18.5527L28.722 19.0289L28.7511 19.0681L28.7978 18.5921L28.7685 18.5527Z" fill="#4C4847"/>
<path fill-rule="evenodd" clip-rule="evenodd" d="M28.0685 17.6782L29.5382 17.8264L29.5373 17.7901L27.9664 17.6313L28.0685 17.6782Z" fill="#35312F"/>
<path fill-rule="evenodd" clip-rule="evenodd" d="M28.722 19.0289L28.3333 18.991L28.2896 19.0231L28.7511 19.0682L28.722 19.0289Z" fill="black"/>
<path fill-rule="evenodd" clip-rule="evenodd" d="M28.3333 18.991L28.4269 18.0337L28.3852 18.0474L28.2896 19.0231L28.3333 18.991Z" fill="#A8AAAC"/>
<path fill-rule="evenodd" clip-rule="evenodd" d="M28.4269 18.0337L28.0685 17.6782L27.9664 17.6313L28.3852 18.0474L28.4269 18.0337Z" fill="#484442"/>
<path fill-rule="evenodd" clip-rule="evenodd" d="M28.427 18.0337L28.0686 17.678L29.5382 17.8264C29.8117 17.8546 30 18.015 29.9825 18.1904C29.9655 18.3657 29.7771 18.4911 29.5623 18.4699C29.7771 18.4911 29.9446 18.5797 29.9275 18.7553L29.8894 19.1433L29.5003 19.1053L29.531 18.7878C29.5399 18.7003 29.4596 18.6206 29.3523 18.61L29.1576 18.5909L28.7686 18.5527L28.7219 19.029L28.3332 18.9908L28.427 18.0337ZM29.377 18.3583C29.4272 18.3633 29.5739 18.3508 29.587 18.2186C29.5997 18.0922 29.4617 18.046 29.4083 18.0408L28.8248 17.9837L28.7937 18.3014L29.377 18.3583Z" fill="#A6A8AA"/>
<path fill-rule="evenodd" clip-rule="evenodd" d="M30.8474 19.2508L31.0132 17.9853L31.0489 17.9534L30.8738 19.2908L30.8474 19.2508Z" fill="#939394"/>
<path fill-rule="evenodd" clip-rule="evenodd" d="M30.4596 19.2001L30.8474 19.2508L30.8738 19.2908L30.4137 19.2306L30.4596 19.2001Z" fill="black"/>
<path fill-rule="evenodd" clip-rule="evenodd" d="M31.0132 17.9853L30.2379 17.8838L30.1356 17.834L31.0489 17.9534L31.0132 17.9853Z" fill="#34302E"/>
<path fill-rule="evenodd" clip-rule="evenodd" d="M30.5839 18.251L30.4596 19.2002L30.4137 19.2307L30.5403 18.263L30.5839 18.251Z" fill="#B5B6B7"/>
<path fill-rule="evenodd" clip-rule="evenodd" d="M30.2379 17.8838L30.5839 18.2509L30.5403 18.263L30.1356 17.834L30.2379 17.8838Z" fill="#666362"/>
<path fill-rule="evenodd" clip-rule="evenodd" d="M30.2379 17.8839L30.5838 18.2509L30.4595 19.2001L30.8474 19.2508L31.0132 17.9853L30.2379 17.8839Z" fill="#A6A8AA"/>
</g>
<defs>
<clipPath id="clip0_4253_39681">
<rect width="40" height="40" fill="white" transform="translate(4 4)"/>
</clipPath>
</defs>
</svg>
