<svg width="48" height="48" viewBox="0 0 48 48" fill="none" xmlns="http://www.w3.org/2000/svg">
<g clip-path="url(#clip0_4253_40060)">
<path d="M24.019 38.4341C16.0911 38.4341 9.59603 31.9071 9.59603 23.9793C9.59603 22.1963 9.91442 20.5089 10.5194 18.9169L18.9566 35.887C19.0521 36.1098 19.2113 36.3009 19.466 36.3009C19.7207 36.3009 19.8799 36.1098 19.9754 35.887L23.8598 27.195C23.8916 27.0995 23.9553 27.004 24.0508 27.004C24.1463 27.004 24.1782 27.0995 24.2418 27.195L28.1262 35.887C28.2217 36.1098 28.3809 36.3009 28.6356 36.3009C28.8903 36.3009 29.0495 36.1098 29.145 35.887L37.5823 18.9169C38.1872 20.5089 38.5056 22.1963 38.5056 23.9793C38.4419 31.9071 31.9468 38.4341 24.019 38.4341ZM24.019 20.6999C23.9234 20.6999 23.8916 20.6044 23.8279 20.5089L19.3068 10.3205C20.7714 9.77923 22.3634 9.49268 24.019 9.49268C25.6746 9.49268 27.2665 9.77923 28.7311 10.3205L24.21 20.5089C24.1463 20.6362 24.1145 20.6999 24.019 20.6999ZM19.4024 31.1748C19.3068 31.1748 19.275 31.0793 19.2113 30.9838L11.8884 16.2106C13.1938 14.2048 14.9449 12.5174 17.0781 11.3393L22.3634 23.0878C22.427 23.2788 22.5862 23.3425 22.7454 23.3425H25.2925C25.4835 23.3425 25.6109 23.3107 25.7064 23.0878L30.9916 11.3393C33.093 12.5174 34.876 14.2048 36.1814 16.2106L28.7948 30.9838C28.7629 31.0793 28.6993 31.1748 28.6037 31.1748C28.5082 31.1748 28.4764 31.0793 28.4127 30.9838L25.6427 24.6797C25.5472 24.4569 25.4199 24.425 25.2288 24.425H22.6817C22.4907 24.425 22.3634 24.4569 22.2678 24.6797L19.5934 30.9838C19.5615 31.0793 19.4979 31.1748 19.4024 31.1748ZM24.019 39.8986C32.8383 39.8986 39.9383 32.7986 39.9383 23.9793C39.9383 15.16 32.8383 8.05994 24.019 8.05994C15.1996 8.05994 8.09961 15.16 8.09961 23.9793C8.09961 32.7986 15.1996 39.8986 24.019 39.8986Z" fill="#001E50"/>
</g>
<defs>
<clipPath id="clip0_4253_40060">
<rect width="32" height="32" fill="white" transform="translate(8 8)"/>
</clipPath>
</defs>
</svg>
