<svg width="24" height="24" viewBox="0 0 24 24" fill="none" xmlns="http://www.w3.org/2000/svg">
<path fill-rule="evenodd" clip-rule="evenodd" d="M20.7501 1.625C20.7501 1.97018 20.4703 2.25 20.1251 2.25C19.78 2.25 19.5001 1.97018 19.5001 1.625C19.5001 1.27982 19.78 1 20.1251 1C20.4703 1 20.7501 1.27982 20.7501 1.625ZM17.6251 3.5C17.9703 3.5 18.2501 3.22018 18.2501 2.875C18.2501 2.52982 17.9703 2.25 17.6251 2.25C17.28 2.25 17.0001 2.52982 17.0001 2.875C17.0001 3.22018 17.28 3.5 17.6251 3.5ZM17.6251 6C17.9703 6 18.2501 5.72018 18.2501 5.375C18.2501 5.02982 17.9703 4.75 17.6251 4.75C17.28 4.75 17.0001 5.02982 17.0001 5.375C17.0001 5.72018 17.28 6 17.6251 6ZM20.7501 6.625C20.7501 6.97018 20.4703 7.25 20.1251 7.25C19.78 7.25 19.5001 6.97018 19.5001 6.625C19.5001 6.27982 19.78 6 20.1251 6C20.4703 6 20.7501 6.27982 20.7501 6.625ZM20.1251 4.75C20.4703 4.75 20.7501 4.47018 20.7501 4.125C20.7501 3.77982 20.4703 3.5 20.1251 3.5C19.78 3.5 19.5001 3.77982 19.5001 4.125C19.5001 4.47018 19.78 4.75 20.1251 4.75ZM15.2271 2.6421C15.2301 3.4361 15.2301 4.2401 15.2271 5.0331C15.2251 5.4451 14.9981 5.6731 14.5871 5.6761C14.1861 5.6781 13.5811 5.6781 12.7691 5.6761H12.7541L11.7551 6.3471L11.7331 6.3611V6.3881C11.7331 7.5871 12.4361 8.8891 13.8261 10.2581C12.4361 9.7691 11.1961 8.8381 10.1351 7.4891L10.1061 7.4521L8.93913 8.2351V8.2621C8.93513 8.9041 8.93713 9.4021 8.94513 9.7411C8.94713 9.8301 9.04713 9.9191 9.10613 9.9641C9.40113 10.1851 9.69513 10.4071 9.98813 10.6291L9.99837 10.6368C10.995 11.3893 12.0248 12.1668 13.0501 12.9161C13.6941 13.3881 13.9891 13.9761 13.9761 14.7681C13.9621 15.6711 13.9651 17.3891 13.9681 18.9051L13.9683 19.0279C13.9692 19.7892 13.9701 20.477 13.9691 20.9411C13.9661 21.7601 13.6121 22.3401 12.9171 22.6651C12.6701 22.7801 12.3611 22.8491 12.0711 22.8501C9.90375 22.868 6.73052 22.8611 5.32296 22.858L4.90713 22.8571C3.79113 22.8531 3.01013 22.0751 3.00613 20.9651C2.99813 18.3961 2.99913 13.8461 3.00713 11.4161C3.01013 10.6381 3.37713 10.0641 4.09613 9.7111C4.15013 9.6841 4.25313 9.6141 4.25413 9.5361C4.26113 9.2561 4.26313 8.8331 4.26113 8.2431V8.1921L4.21013 8.1931C3.94713 8.1951 3.74413 8.1941 3.61113 8.1921C3.24713 8.1831 3.01013 7.9511 3.00613 7.5981V7.5561L3.00563 7.48898C2.99976 6.7059 2.99371 5.89838 3.01413 5.1041C3.01813 4.9621 3.10213 4.7751 3.21313 4.6611C3.61305 4.24927 4.28281 3.8335 4.93214 3.4304L4.94713 3.4211C5.58613 3.0251 6.24713 2.6151 6.65313 2.2081C6.79313 2.0681 6.95913 2.0001 7.16213 2.0001C8.73645 2.00265 10.3112 2.00236 11.8858 2.00207C12.7855 2.0019 13.6855 2.00174 14.5851 2.0021C14.9911 2.0021 15.2251 2.2361 15.2271 2.6421ZM14.0581 4.5011H12.7251V3.1701H14.0581V4.5011ZM11.5491 4.7631C11.5491 4.8071 11.5491 4.8421 8.27913 7.0221L8.26613 7.0311H8.25113C7.7769 7.0311 7.33483 7.03139 6.92446 7.03165H6.92259C6.56815 7.03188 6.23654 7.0321 5.92913 7.0321C5.56414 7.0321 5.23249 7.0318 4.93434 7.03153C4.6909 7.0313 4.4698 7.0311 4.27113 7.0311C4.25213 7.0311 4.23713 7.0241 4.22013 7.0161L4.21073 7.0116L4.19513 7.0041L4.16413 6.9911L4.16313 6.6071L4.1631 6.46154C4.16299 6.11928 4.16288 5.76877 4.16813 5.4221C4.16813 5.3511 4.22413 5.2801 4.27013 5.2331C4.60513 4.8961 5.20013 4.5581 5.77713 4.2311C6.33813 3.9131 6.91913 3.5831 7.24113 3.2641C7.29113 3.2141 7.37613 3.1651 7.45313 3.1651C8.60213 3.1601 9.75513 3.1571 10.9161 3.1611H11.5531V3.5801L11.5532 3.75484C11.5533 4.09893 11.5534 4.42924 11.5491 4.7631ZM12.4631 13.9321C11.8241 13.4551 11.1871 12.9771 10.5501 12.4991L9.98881 12.0785L9.98793 12.0778C9.42656 11.657 8.86519 11.2362 8.30213 10.8171C8.21913 10.7551 8.09813 10.7161 7.98813 10.7151C7.92213 10.7141 7.84713 10.7131 7.76313 10.7121V8.2101H5.43213V10.7091H4.97513C4.41313 10.7101 4.16213 10.9621 4.16213 11.5271L4.16313 17.1751H12.8111L12.8101 16.4211V16.4072C12.8091 15.7975 12.8082 15.2205 12.8141 14.6311C12.8161 14.3351 12.7051 14.1131 12.4631 13.9321ZM12.8051 21.0671C12.7811 21.4431 12.4941 21.6971 12.0901 21.6991C11.7801 21.7011 11.4691 21.7011 11.1591 21.7011H10.4621L9.76413 21.7001H4.97213C4.42113 21.7001 4.16413 21.4461 4.16213 20.9011V18.7021V18.3571H12.8081L12.8091 18.7211C12.8121 19.4261 12.8171 20.8921 12.8051 21.0671Z" fill="#29D7DE"/>
</svg>
