<svg width="24" height="25" viewBox="0 0 24 25" fill="none" xmlns="http://www.w3.org/2000/svg">
<g clip-path="url(#clip0_4185_2950)">
<path fill-rule="evenodd" clip-rule="evenodd" d="M19.3576 6.64808L16.7104 4.0009L18.3573 2.354C18.5525 2.15872 18.5525 1.84214 18.3573 1.64681L16.8569 0.146428C16.6616 -0.0488093 16.345 -0.0488093 16.1497 0.146428L14.5028 1.79333L13.8561 1.14666C13.6609 0.951427 13.3443 0.951427 13.1489 1.14666L4.64686 9.64884C4.45163 9.84412 4.45163 10.1607 4.64686 10.356L6.28729 11.9965L4.85391 13.7154C4.00372 14.7326 4.06322 16.272 4.98543 17.2197L6.48333 18.7596C6.61264 18.8974 6.61264 19.112 6.48333 19.2498L4.14175 21.6554C3.95275 21.8495 3.95275 22.1589 4.14175 22.3531L5.6011 23.8534C5.79362 24.0515 6.11029 24.0559 6.3083 23.8634C6.31167 23.8601 6.315 23.8568 6.31828 23.8534L9.26901 20.8217C10.2439 19.8057 10.2439 18.2017 9.26901 17.1858L7.93119 15.8104C7.76643 15.6384 7.76643 15.3672 7.93119 15.1953L8.69887 14.4061L10.1492 15.8564C10.3445 16.0517 10.6611 16.0517 10.8564 15.8564L19.3585 7.35429C19.5529 7.15877 19.5524 6.84299 19.3576 6.64808ZM16.5034 1.20719L17.2966 2.00038L16.0032 3.29371L15.21 2.50052L16.5034 1.20719ZM7.21298 14.4985C6.67312 15.06 6.67312 15.9476 7.21298 16.509L8.5508 17.8844C9.15137 18.5105 9.15137 19.4988 8.5508 20.1249L5.95965 22.7886L5.19797 22.0054L7.19849 19.9474C7.7044 19.4208 7.7044 18.5887 7.19849 18.062L5.7006 16.5221C5.13012 15.924 5.09557 14.9943 5.62009 14.3555L6.99542 12.7051L7.98816 13.6978L7.21298 14.4985ZM10.5019 14.7986L5.70763 10.0024L6.25077 9.45928L11.045 14.2535L10.5019 14.7986ZM11.7521 13.5463L6.95791 8.75208L12.2523 3.45776L17.0465 8.25199L11.7521 13.5463ZM17.7536 7.54681L12.9595 2.75057L13.5026 2.20743L18.2968 7.00166L17.7536 7.54681Z" fill="#29D7DE"/>
</g>
<defs>
<clipPath id="clip0_4185_2950">
<rect width="24" height="25" fill="white"/>
</clipPath>
</defs>
</svg>
