<svg width="20" height="20" viewBox="0 0 20 20" fill="none" xmlns="http://www.w3.org/2000/svg">
<path fill-rule="evenodd" clip-rule="evenodd" d="M2.84128 17.131C2.52728 17.131 2.27273 16.8764 2.27273 16.5624C2.27273 16.2484 2.52728 15.9939 2.84128 15.9939C3.15528 15.9939 3.40982 16.2484 3.40982 16.5624C3.40982 16.8764 3.15528 17.131 2.84128 17.131ZM18.9049 6.93094C19.5699 7.59597 19.5699 8.67801 18.9048 9.34311L18.1008 10.1471C17.8789 10.3691 17.5187 10.369 17.2968 10.1471L16.8948 9.74521L16.0908 10.5492L16.4928 10.9512C16.7148 11.1732 16.7148 11.5331 16.4928 11.7552C16.2708 11.9772 15.9108 11.9772 15.6888 11.7552L15.2868 11.3532L14.4828 12.1572L14.8848 12.5592C15.1068 12.7812 15.1067 13.1413 14.8848 13.3632L11.6687 16.5793C11.4467 16.8013 11.0865 16.8012 10.8647 16.5793L9.25658 14.9712C9.14998 14.8646 9.09008 14.72 9.09008 14.5692V13.1967L8.85458 12.9611L5.65421 16.1615C5.77503 17.0164 5.50751 17.9162 4.85134 18.5725C3.74294 19.6808 1.9395 19.6807 0.83121 18.5725C-0.27707 17.4641 -0.27707 15.6606 0.83121 14.5523C1.48741 13.8961 2.38722 13.6286 3.2422 13.7494L6.44256 10.5491L6.20706 10.3136H4.83448C4.68372 10.3136 4.5391 10.2537 4.4325 10.1471L2.82441 8.53901C2.71777 8.43231 2.65789 8.28781 2.65789 8.13701C2.65789 7.98617 2.71781 7.84155 2.82441 7.73494L6.04054 4.51882C6.26255 4.29681 6.62254 4.29677 6.84454 4.51882L7.24657 4.92084L8.05058 4.11683L7.64855 3.71481C7.4265 3.49281 7.4265 3.13285 7.64855 2.91081C7.87055 2.6888 8.23058 2.6888 8.45258 2.91081L8.85458 3.31283L9.65858 2.50879L9.25658 2.10677C9.03458 1.88476 9.03458 1.52481 9.25658 1.30276L10.0606 0.498758C10.7256 -0.166272 11.8077 -0.166232 12.4727 0.498758L18.9049 6.93094ZM4.0473 17.7684C4.7123 17.1034 4.7123 16.0213 4.0473 15.3563C3.38212 14.6912 2.30013 14.6914 1.63518 15.3563C0.97018 16.0214 0.97018 17.1034 1.63518 17.7684C2.30025 18.4334 3.38223 18.4334 4.0473 17.7684ZM5.21285 14.9948L8.05058 12.1571L7.24653 11.3531L4.40885 14.1908C4.56525 14.2942 4.71366 14.4147 4.85131 14.5523C4.98891 14.6899 5.10943 14.8384 5.21285 14.9948ZM11.2666 15.3732L13.6787 12.9611L13.277 12.5594C13.2769 12.5593 13.277 12.5595 13.277 12.5594L6.84447 6.1269C6.84447 6.12686 6.84451 6.12693 6.84447 6.1269L6.44249 5.72488L4.03036 8.13701L5.0699 9.17651H6.44252C6.59328 9.17651 6.7379 9.23641 6.84451 9.34301L10.0606 12.5591C10.1673 12.6658 10.2271 12.8104 10.2271 12.9611V14.3337L11.2666 15.3732ZM13.6788 11.3531L14.4828 10.5491L8.85458 4.92091L8.05058 5.72492L13.6788 11.3531ZM15.2868 9.74501L16.0908 8.94101C15.7779 8.62821 10.7754 3.62572 10.4626 3.31287L9.65858 4.11687L15.2868 9.74501ZM18.1009 8.53901C18.3231 8.31681 18.3231 7.95718 18.1009 7.73495L11.6687 1.30276C11.447 1.08106 11.0864 1.0811 10.8647 1.30276L10.4627 1.70479C10.6444 1.88647 17.218 8.46011 17.2969 8.53901L17.6989 8.94101L18.1009 8.53901Z" fill="#29D7DE"/>
</svg>
