<svg width="45" height="45" viewBox="0 0 45 45" fill="none" xmlns="http://www.w3.org/2000/svg">
<path d="M41.25 22.5C41.25 32.8553 32.8553 41.25 22.5 41.25C12.1447 41.25 3.75 32.8553 3.75 22.5M41.25 22.5C41.25 12.1447 32.8553 3.75 22.5 3.75M41.25 22.5H36.5625M3.75 22.5C3.75 12.1447 12.1447 3.75 22.5 3.75M3.75 22.5H8.4375M22.5 3.75V8.4375M35.772 9.375L25.3123 19.6875M35.772 35.772L35.3897 35.3897C34.0926 34.0926 33.444 33.444 32.6871 32.9802C32.0161 32.569 31.2845 32.266 30.5192 32.0822C29.6561 31.875 28.7388 31.875 26.9044 31.875L18.0955 31.8751C16.2611 31.8751 15.3439 31.8751 14.4808 32.0823C13.7155 32.266 12.9839 32.5691 12.3129 32.9803C11.556 33.4441 10.9074 34.0927 9.6103 35.3898L9.22806 35.772M9.22806 9.375L12.4839 12.6308M26.25 22.5C26.25 24.5711 24.5711 26.25 22.5 26.25C20.4289 26.25 18.75 24.5711 18.75 22.5C18.75 20.4289 20.4289 18.75 22.5 18.75C24.5711 18.75 26.25 20.4289 26.25 22.5Z" stroke="#A9F5F5" stroke-width="2" stroke-linecap="round" stroke-linejoin="round"/>
</svg>
