<svg width="17" height="20" viewBox="0 0 17 20" fill="none" xmlns="http://www.w3.org/2000/svg">
<path fill-rule="evenodd" clip-rule="evenodd" d="M15.736 5.812H13.162C12.851 5.812 12.598 5.559 12.598 5.248V3.47H11.003V5.618C11.003 5.725 10.973 5.829 10.916 5.92L9.517 8.126C9.414 8.29 9.235 8.388 9.041 8.388H8.713V14.925C9.284 15.108 9.729 15.553 9.911 16.122H12.598V14.344C12.598 14.033 12.851 13.78 13.162 13.78H15.736C16.047 13.78 16.3 14.033 16.3 14.344V19.029C16.3 19.339 16.047 19.593 15.736 19.593H13.162C12.851 19.593 12.598 19.339 12.598 19.029V17.25H9.911C9.667 18.014 8.959 18.538 8.15 18.538C7.341 18.538 6.633 18.014 6.389 17.25H3.702V19.029C3.702 19.339 3.449 19.593 3.138 19.593H0.563C0.253 19.593 0 19.339 0 19.029V14.344C0 14.033 0.253 13.78 0.563 13.78H3.138C3.449 13.78 3.702 14.033 3.702 14.344V16.122H6.389C6.571 15.553 7.016 15.108 7.586 14.925V8.388H7.259C7.064 8.388 6.886 8.29 6.783 8.126L5.384 5.92C5.327 5.828 5.297 5.724 5.297 5.618V3.47H3.702V5.248C3.702 5.559 3.449 5.812 3.138 5.812H0.563C0.253 5.812 0 5.559 0 5.248V0.564C0 0.253 0.253 0 0.563 0H3.138C3.449 0 3.702 0.253 3.702 0.564V2.343H5.297V1.527C5.297 1.217 5.55 0.964 5.86 0.964H10.439C10.75 0.964 11.003 1.217 11.003 1.527V2.343H12.598V0.564C12.598 0.253 12.851 0 13.162 0H15.736C16.047 0 16.3 0.253 16.3 0.564V5.248C16.3 5.559 16.047 5.812 15.736 5.812ZM7.426 16.687C7.426 17.085 7.751 17.409 8.15 17.409C8.549 17.409 8.874 17.085 8.874 16.687C8.874 16.287 8.549 15.963 8.15 15.963C7.751 15.963 7.426 16.287 7.426 16.687ZM9.876 2.091V5.454L8.731 7.261H7.569L6.424 5.454V2.091H9.876ZM15.172 18.465H13.725V14.908H15.172V18.465ZM1.128 18.465H2.575V14.908H1.128V18.465ZM1.128 4.685H2.575V1.128H1.128V4.685ZM13.725 4.685H15.172V1.128H13.725V4.685Z" fill="#29D7DE"/>
</svg>
