<svg width="19" height="24" viewBox="0 0 19 24" fill="none" xmlns="http://www.w3.org/2000/svg">
<g clip-path="url(#clip0_4254_2159)">
<path d="M9.37848 24.0003C8.69242 24.0003 8.00329 24.0065 7.31723 24.0003C4.21156 23.9636 2.38308 22.2392 2.16562 19.1336C2.13499 18.6772 2.17175 18.2178 2.16562 17.7584C2.15031 15.8717 2.39227 13.9575 0.759802 12.4475C0.196249 11.9268 -0.453062 10.861 0.441272 10.2729C1.53775 9.54704 1.85934 10.8242 2.44433 11.4827C4.00942 13.2408 4.65873 15.2255 4.39533 17.5532C4.31876 18.23 4.34939 18.9314 4.42289 19.6114C4.60666 21.3571 5.31417 22.0095 7.07221 22.0432C8.67404 22.0738 10.2789 22.08 11.8838 22.0432C13.6143 22.0003 14.3739 21.3143 14.5393 19.5777C14.6404 18.5179 14.622 17.4398 14.5791 16.374C14.5209 14.9498 14.7659 13.6787 15.7858 12.5731C16.3371 11.9758 16.6434 11.155 17.1243 10.4812C17.4857 9.97277 18.0707 9.94827 18.5607 10.2331C19.0446 10.5088 18.9497 11.0356 18.7567 11.4582C18.4719 12.0769 18.2391 12.7967 17.7675 13.2377C16.7322 14.2025 16.7904 15.3847 16.7874 16.6006C16.7812 18.2668 16.916 19.9176 16.0615 21.5072C15.2315 23.0478 14.1962 24.0371 12.3616 23.9881C11.3693 23.9605 10.377 23.982 9.38461 23.982C9.38461 23.9881 9.38461 23.9973 9.38461 24.0034L9.37848 24.0003Z" fill="#002D36"/>
<path d="M4.43473 6.17449C4.38266 6.93406 4.37347 7.69976 4.26627 8.4532C4.19583 8.93712 3.87117 9.26178 3.31375 9.25871C2.78695 9.25565 2.34591 8.99225 2.2969 8.51446C2.06413 6.23881 1.77316 3.92947 3.18817 1.88659C3.52202 1.40267 4.02125 1.09026 4.643 0.863616C7.94162 -0.352311 11.2096 -0.232862 14.4776 0.91262C15.7793 1.36898 16.2755 2.50833 16.5909 3.69669C16.986 5.19133 16.7594 6.73804 16.7134 8.25718C16.6951 8.82686 16.3214 9.23728 15.666 9.25259C14.9707 9.27097 14.6981 8.79317 14.6552 8.24187C14.5756 7.17602 14.594 6.10404 14.5726 5.03513C14.5327 3.19746 14.3765 3.02594 12.6246 2.4777C10.5174 1.81921 8.4286 1.83146 6.32447 2.48383C4.54192 3.03513 4.41941 3.16071 4.38266 5.02901C4.37347 5.41185 4.38266 5.7947 4.38266 6.17755C4.40104 6.17755 4.41635 6.17755 4.43473 6.18061V6.17449Z" fill="#002D36"/>
<path d="M9.3446 16.2139C8.3155 16.3885 7.41198 15.8556 6.45027 15.6871C5.63863 15.5463 5.55593 14.9306 5.65088 14.315C5.7397 13.727 6.28181 13.7208 6.7351 13.7668C7.18227 13.8127 7.62331 13.923 8.05823 14.0394C9.03526 14.2997 9.99391 14.312 10.9709 14.0118C11.8163 13.7545 12.7872 13.2675 13.3538 14.3824C13.6784 15.0225 12.8484 15.6994 11.3722 16.0087C10.7106 16.1466 10.0184 16.1466 9.34154 16.2109L9.3446 16.2139Z" fill="#002D36"/>
<path d="M9.48527 6.41335C10.4807 6.41335 11.4761 6.41335 12.4684 6.41335C13.0075 6.41335 13.375 6.68288 13.3505 7.22499C13.3229 7.7671 13.1667 8.32453 12.447 8.32759C10.4562 8.33372 8.46843 8.33066 6.47761 8.32147C5.73029 8.31841 5.64454 7.68747 5.60166 7.1913C5.55572 6.65531 5.96613 6.40723 6.49905 6.40723C7.49446 6.40723 8.48986 6.40723 9.48221 6.40723C9.48221 6.40723 9.48221 6.41029 9.48221 6.41335H9.48527Z" fill="#002D36"/>
</g>
<defs>
<clipPath id="clip0_4254_2159">
<rect width="18.9127" height="24" fill="white"/>
</clipPath>
</defs>
</svg>
