<svg width="144" height="149" viewBox="0 0 144 149" fill="none" xmlns="http://www.w3.org/2000/svg">
<rect width="143.999" height="149.003" rx="71.9994" fill="#29D7DE"/>
<g clip-path="url(#clip0_4810_8189)">
<path d="M109.327 109H34.5266C34.282 108.919 34.0428 108.801 33.7902 108.764C25.0366 107.493 18.3563 101.514 16.445 92.9895C14.6906 85.1785 13.0956 77.3333 11.4768 69.4934C10.7218 65.8425 9.71964 62.2441 10.0732 58.4173C11.0249 48.1365 19.9513 40 30.4568 40C58.0708 40 85.6848 40 113.299 40C122.382 40 130.439 45.9055 132.97 54.5013C133.456 56.1549 133.664 57.8871 133.999 59.5827V61.1522C133.855 62.0446 133.749 62.9423 133.565 63.8268C131.553 73.4803 129.626 83.1549 127.473 92.7769C125.748 100.488 120.894 105.583 113.288 108.076C112.007 108.496 110.651 108.698 109.33 109.003L109.327 109ZM71.9948 45.6929C58.201 45.6929 44.4073 45.6745 30.6162 45.6982C21.214 45.7139 14.2041 54.2651 16.1074 63.3412C17.9922 72.3307 19.9114 81.3123 21.7616 90.3097C23.4868 98.6955 29.0957 103.276 37.7723 103.276C57.2255 103.276 76.676 103.276 96.1291 103.276C99.9757 103.276 103.822 103.339 107.666 103.231C114.652 103.034 120.428 98.1732 121.837 91.4619C123.743 82.3885 125.524 73.2861 127.622 64.2546C130.038 53.8346 121.954 45.4436 112.313 45.6273C98.8778 45.8845 85.435 45.6929 71.9948 45.6929Z" fill="white"/>
<path d="M33.8701 77.2335V71.7427H110.293V77.2335H33.8701Z" fill="white"/>
<path d="M33.8137 64.3544C33.8137 62.5644 33.7712 61.0027 33.8536 59.4463C33.8695 59.1575 34.3773 58.6746 34.6803 58.6562C36.1769 58.5749 37.6841 58.5749 39.1834 58.6562C39.4758 58.672 39.957 59.1759 39.9756 59.4804C40.0633 60.8242 40.0553 62.1812 39.9809 63.525C39.9649 63.8111 39.5343 64.3045 39.2818 64.315C37.5246 64.3859 35.7622 64.3518 33.8164 64.3518L33.8137 64.3544Z" fill="white"/>
<path d="M96.4298 58.7036V64.2732H90.3955V58.7036H96.4298Z" fill="white"/>
<path d="M33.8137 92.1863C33.8137 90.5196 33.7712 88.9605 33.8536 87.412C33.8695 87.1259 34.3826 86.6508 34.6883 86.6351C36.1796 86.5537 37.6815 86.5616 39.1754 86.6325C39.4652 86.6456 39.9623 87.0681 39.9729 87.3175C40.0473 88.9107 40.0101 90.5065 40.0101 92.1863H33.8137Z" fill="white"/>
<path d="M96.5122 92.2207H90.3237C90.3237 90.5251 90.2998 88.8558 90.353 87.1865C90.3583 86.9844 90.7783 86.6327 91.0149 86.6249C92.5992 86.575 94.1862 86.5619 95.7678 86.6327C96.0284 86.6459 96.467 87.1262 96.4776 87.4044C96.5467 88.9556 96.5122 90.512 96.5122 92.218V92.2207Z" fill="white"/>
<path d="M48.6475 64.2727V58.6953H54.5754V64.2727H48.6475Z" fill="white"/>
<path d="M62.752 58.6851H68.7995C68.7995 60.4278 68.8234 62.105 68.7676 63.7822C68.7623 63.979 68.329 64.3202 68.0844 64.3255C66.3326 64.3727 64.5808 64.3517 62.752 64.3517V58.6851Z" fill="white"/>
<path d="M77.4308 64.2494C77.4308 62.5329 77.4016 60.9318 77.4627 59.3334C77.4733 59.0867 77.896 58.6615 78.1406 58.6536C79.8924 58.5933 81.6468 58.6221 83.4837 58.6221V64.2494H77.4308Z" fill="white"/>
<path d="M105.162 58.6851H111.106V64.2546H105.162V58.6851Z" fill="white"/>
<path d="M48.6396 92.1942V86.6929H54.6074V92.1942H48.6396Z" fill="white"/>
<path d="M68.7494 86.6665V92.1757H62.7471V86.6665H68.7494Z" fill="white"/>
<path d="M83.4599 92.2309H77.4416C77.4416 90.5275 77.4177 88.8556 77.4735 87.1837C77.4788 86.9816 77.9042 86.6299 78.1407 86.6246C79.8952 86.5774 81.6523 86.5984 83.4626 86.5984V92.2309H83.4599Z" fill="white"/>
<path d="M111.088 92.2022H105.154V86.6694H111.088V92.2022Z" fill="white"/>
</g>
<defs>
<clipPath id="clip0_4810_8189">
<rect width="123.999" height="69.0026" fill="white" transform="translate(10 40)"/>
</clipPath>
</defs>
</svg>
