<svg width="26" height="26" viewBox="0 0 26 26" fill="none" xmlns="http://www.w3.org/2000/svg">
<rect width="26" height="26" rx="13" fill="#00AEB5"/>
<path d="M17.736 8.96993C17.8042 8.9003 17.8857 8.84498 17.9756 8.80722C18.0655 8.76945 18.162 8.75 18.2595 8.75C18.357 8.75 18.4535 8.76945 18.5434 8.80722C18.6333 8.84498 18.7147 8.9003 18.783 8.96993C19.069 9.25893 19.073 9.72593 18.793 10.0199L12.88 17.0099C12.8128 17.0837 12.7314 17.1429 12.6406 17.1841C12.5497 17.2252 12.4515 17.2474 12.3518 17.2493C12.2521 17.2511 12.1531 17.2327 12.0608 17.1949C11.9685 17.1572 11.8848 17.1011 11.815 17.0299L8.21698 13.3839C8.07822 13.2424 8.00049 13.0521 8.00049 12.8539C8.00049 12.6557 8.07822 12.4654 8.21698 12.3239C8.28523 12.2543 8.36668 12.199 8.45657 12.1612C8.54646 12.1235 8.64298 12.104 8.74048 12.104C8.83798 12.104 8.9345 12.1235 9.02439 12.1612C9.11428 12.199 9.19573 12.2543 9.26398 12.3239L12.316 15.4169L17.716 8.99193C17.7222 8.98421 17.7289 8.97686 17.736 8.96993Z" fill="white"/>
</svg>
