<svg width="35" height="19" viewBox="0 0 35 19" fill="none" xmlns="http://www.w3.org/2000/svg">
<path d="M27.3507 18.9997H6.7536C6.68626 18.9773 6.62038 18.9448 6.55084 18.9347C4.14045 18.5849 2.30099 16.9385 1.7747 14.5911C1.2916 12.4403 0.85241 10.2801 0.406637 8.12127C0.198756 7.11596 -0.0771987 6.1251 0.0201541 5.07137C0.282201 2.24045 2.74018 0 5.63294 0C13.2367 0 20.8405 0 28.4442 0C30.9454 0 33.164 1.62613 33.8609 3.99306C33.9948 4.44838 34.0519 4.92538 34.1441 5.39226V5.82445C34.1046 6.07018 34.0753 6.31735 34.0248 6.56091C33.4707 9.21909 32.94 11.8831 32.3471 14.5326C31.8721 16.6559 30.5355 18.0588 28.4413 18.7453C28.0885 18.861 27.7152 18.9166 27.3514 19.0005L27.3507 18.9997ZM17.0708 1.56759C13.2726 1.56759 9.47435 1.56253 5.67686 1.56904C3.08786 1.57337 1.15764 3.92802 1.68174 6.4272C2.20071 8.90254 2.7292 11.3757 3.23865 13.8532C3.7137 16.1623 5.25817 17.4235 7.64734 17.4235C13.0039 17.4235 18.3598 17.4235 23.7164 17.4235C24.7756 17.4235 25.8347 17.4408 26.8932 17.4112C28.8168 17.357 30.4074 16.0185 30.7953 14.1705C31.3202 11.672 31.8106 9.16561 32.3881 6.67871C33.0535 3.80949 30.8275 1.49893 28.1727 1.54952C24.4733 1.62035 20.7717 1.56759 17.0708 1.56759Z" fill="white"/>
<path d="M6.57324 10.2522V8.74023H27.6168V10.2522H6.57324Z" fill="white"/>
<path d="M6.55771 6.70596C6.55771 6.21306 6.546 5.78304 6.56869 5.35446C6.57308 5.27496 6.71289 5.14198 6.79633 5.13692C7.20844 5.11452 7.62347 5.11452 8.0363 5.13692C8.11682 5.14126 8.2493 5.28002 8.25443 5.36386C8.27858 5.73389 8.27639 6.10754 8.25589 6.47758C8.2515 6.55635 8.13292 6.69223 8.06338 6.69512C7.57955 6.71463 7.09425 6.70524 6.55844 6.70524L6.55771 6.70596Z" fill="white"/>
<path d="M23.7993 5.15039V6.68402H22.1377V5.15039H23.7993Z" fill="white"/>
<path d="M6.55771 14.3698C6.55771 13.9109 6.546 13.4816 6.56869 13.0552C6.57308 12.9764 6.71435 12.8456 6.79853 12.8413C7.20917 12.8189 7.62273 12.821 8.0341 12.8406C8.11389 12.8442 8.25077 12.9605 8.2537 13.0292C8.27419 13.4679 8.26394 13.9073 8.26394 14.3698H6.55771Z" fill="white"/>
<path d="M23.8217 14.3794H22.1177C22.1177 13.9125 22.1111 13.4529 22.1257 12.9932C22.1272 12.9376 22.2429 12.8407 22.308 12.8385C22.7443 12.8248 23.1812 12.8212 23.6168 12.8407C23.6885 12.8443 23.8093 12.9766 23.8122 13.0532C23.8312 13.4803 23.8217 13.9089 23.8217 14.3787V14.3794Z" fill="white"/>
<path d="M10.6416 6.68423V5.14844H12.2739V6.68423H10.6416Z" fill="white"/>
<path d="M14.5254 5.14551H16.1906C16.1906 5.6254 16.1972 6.08722 16.1819 6.54904C16.1804 6.60325 16.0611 6.6972 15.9937 6.69865C15.5114 6.71165 15.029 6.70587 14.5254 6.70587V5.14551Z" fill="white"/>
<path d="M18.5674 6.6774C18.5674 6.20474 18.5593 5.76388 18.5761 5.32374C18.5791 5.2558 18.6954 5.13872 18.7628 5.13655C19.2452 5.11993 19.7283 5.12788 20.2341 5.12788V6.6774H18.5674Z" fill="white"/>
<path d="M26.2041 5.14551H27.8408V6.67913H26.2041V5.14551Z" fill="white"/>
<path d="M10.6396 14.3723V12.8574H12.2829V14.3723H10.6396Z" fill="white"/>
<path d="M16.1772 12.8506V14.3676H14.5244V12.8506H16.1772Z" fill="white"/>
<path d="M20.2279 14.3823H18.5707C18.5707 13.9133 18.5642 13.4529 18.5795 12.9925C18.581 12.9369 18.6981 12.84 18.7632 12.8386C19.2464 12.8256 19.7302 12.8314 20.2287 12.8314V14.3823H20.2279Z" fill="white"/>
<path d="M27.8349 14.3741H26.2012V12.8506H27.8349V14.3741Z" fill="white"/>
</svg>
