<svg width="212" height="140" viewBox="0 0 212 140" fill="none" xmlns="http://www.w3.org/2000/svg">
<path d="M122 26C134.15 26 144 35.8497 144 48C144 60.1503 134.15 70 122 70C134.15 70 144 79.8497 144 92C144 104.15 134.15 114 122 114C109.85 114 100 104.15 100 92C100 104.15 90.1503 114 78 114C65.8497 114 56 104.15 56 92C56 79.8497 65.8497 70 78 70C65.8497 70 56 60.1503 56 48C56 35.8497 65.8497 26 78 26C90.1503 26 100 35.8497 100 48C100 35.8497 109.85 26 122 26Z" fill="#FBE74C"/>
<mask id="mask0_4128_13812" style="mask-type:alpha" maskUnits="userSpaceOnUse" x="80" y="50" width="40" height="40">
<rect x="80" y="50" width="40" height="40" fill="#D9D9D9"/>
</mask>
<g mask="url(#mask0_4128_13812)">
<path d="M101.672 80.0007L91.6016 70.5007L94.1191 68.1257L101.672 75.2507L117.881 59.959L120.398 62.334L101.672 80.0007Z" fill="#00AEB5"/>
</g>
</svg>
