<svg width="54" height="38" viewBox="0 0 54 38" fill="none" xmlns="http://www.w3.org/2000/svg">
<g clip-path="url(#clip0_4128_6791)">
<path d="M50.5404 12.0833C49.5086 7.88186 47.7846 -0.444761 40.0238 0.01856C34.2299 0.313401 26.5344 1.3664 22.7101 2.03769C15.7826 3.25128 4.85841 4.34114 2.77388 9.63511C2.09209 11.6516 1.91447 13.6576 2.05814 15.8189C1.30582 16.3085 0.736366 16.9008 0.451637 17.6274C-0.399938 20.1493 0.0650321 22.6423 0.898322 26.0304C1.93014 30.2266 2.46825 31.7982 4.3856 33.6251C5.15359 34.2859 6.24548 34.5281 7.50195 34.5123C8.04267 35.2415 8.66698 35.9338 9.41668 36.6499C13.7085 40.3433 23.9901 36.3524 30.565 33.9858C34.2221 32.6695 41.5493 30.0897 46.8102 27.623C53.9154 24.3666 51.5723 16.2796 50.5404 12.0833ZM40.8597 7.77656C39.4412 7.77656 38.2919 6.61825 38.2919 5.1888C38.2919 3.75935 39.4412 2.60105 40.8597 2.60105C42.2781 2.60105 43.4274 3.75935 43.4274 5.1888C43.4274 6.61825 42.2781 7.77656 40.8597 7.77656Z" fill="#DFDFDF"/>
<path d="M22.3031 24.7878C20.1115 24.7878 18.1915 24.385 16.632 23.8664C12.416 22.4659 9.88213 19.9703 9.77764 19.865C9.23169 19.3201 9.22908 18.4329 9.7698 17.8827C10.3105 17.3352 11.1882 17.3299 11.7342 17.8722C12.0973 18.2302 20.5712 26.3699 32.1955 18.7725C32.8407 18.3513 33.7001 18.5356 34.1181 19.1858C34.536 19.8361 34.3532 20.7021 33.7079 21.1233C29.4788 23.8875 25.584 24.7878 22.3031 24.7878Z" fill="white"/>
</g>
<defs>
<clipPath id="clip0_4128_6791">
<rect width="54" height="38" fill="white"/>
</clipPath>
</defs>
</svg>
