<svg width="282" height="209" viewBox="0 0 282 209" fill="none" xmlns="http://www.w3.org/2000/svg">
<path d="M274.944 65.7262C269.28 42.8448 259.802 -2.50595 217.573 0.108479C186.047 1.7821 144.181 7.60887 123.378 11.3109C85.6929 18.0038 26.2573 24.0688 14.9748 52.9391C11.288 63.9346 10.3446 74.867 11.1515 86.6419C7.06321 89.3186 3.97114 92.5527 2.4301 96.515C-2.17485 110.267 0.384368 123.845 4.95832 142.296C10.622 165.149 13.5686 173.706 24.0238 183.639C28.2107 187.231 34.1555 188.538 40.9929 188.437C43.9439 192.404 47.3494 196.169 51.4374 200.062C74.836 220.138 130.741 198.273 166.493 185.301C186.38 178.087 226.224 163.945 254.825 150.443C293.452 132.617 280.608 88.5789 274.944 65.7262Z" fill="white" fill-opacity="0.39"/>
</svg>
