<svg width="194" height="37" viewBox="0 0 194 37" fill="none" xmlns="http://www.w3.org/2000/svg">
<g clip-path="url(#clip0_5177_6942)">
<path d="M10 3.75855H14.9147V29.6682H28.5002V34.2238H10V3.75855ZM33.3349 3.75855C33.7338 3.75326 34.1297 3.82665 34.5001 3.9745C34.8707 4.12235 35.2083 4.34178 35.494 4.62024C35.7798 4.89872 36.0078 5.23078 36.1652 5.59747C36.3227 5.96416 36.4065 6.3583 36.4117 6.75736C36.4117 7.5739 36.0876 8.357 35.5106 8.93439C34.9335 9.51177 34.151 9.83615 33.3349 9.83615C32.5191 9.83615 31.7364 9.51177 31.1594 8.93439C30.5824 8.357 30.2583 7.5739 30.2583 6.75736C30.2599 6.35726 30.3413 5.96149 30.4975 5.59318C30.6537 5.22486 30.8817 4.89138 31.1681 4.61221C31.4545 4.33303 31.7937 4.11377 32.1656 3.96719C32.5378 3.82062 32.9352 3.74969 33.3349 3.75855ZM30.9375 12.2752H35.6524V34.2238H30.9375V12.2752ZM38.4094 12.2752H43.1244V15.314C44.5203 12.9949 46.9178 11.6754 50.0744 11.6754C55.1889 11.6754 58.3855 15.6738 58.3855 22.0314V34.2238H53.6705V22.4312C53.6705 18.3128 51.8724 15.9937 48.6252 15.9937C45.0717 15.9937 43.1137 18.4327 43.1137 22.831V34.2238H38.399L38.4094 12.2752ZM60.8628 3.75855H65.5778V23.0308L74.3683 12.2752H80.2819L70.892 23.2709L80.2819 34.2238H74.3683L65.5778 23.5107V34.2238H60.8628V3.75855ZM82.1199 6.69071H86.9147V12.2885H92.5088V16.207H86.9147V27.5198C86.9147 28.9619 87.7939 29.8414 89.1524 29.8414H92.3118V34.237H88.5131C84.3976 34.237 82.1199 31.7981 82.1199 27.4826V6.69071ZM94.5866 12.2885H99.3016V15.0074C100.46 12.9283 102.418 11.6887 104.816 11.6887C105.369 11.6635 105.923 11.7311 106.454 11.8887V16.2869C105.877 16.1601 105.286 16.1063 104.696 16.127C101.219 16.127 99.3016 19.0592 99.3016 24.0838V34.237H94.5866V12.2885ZM117.479 11.6887C122.674 11.6887 128.308 14.8475 128.308 23.7639V24.4037H111.406C111.768 28.3194 114.043 30.4787 117.839 30.4787C120.556 30.4787 122.874 28.9991 123.393 26.9626H128.188C127.708 31.3582 123.153 34.8369 117.839 34.8369C111.046 34.8369 106.774 30.3986 106.774 23.2441C106.774 16.8734 110.889 11.6754 117.479 11.6754V11.6887ZM123.273 20.4853C122.594 17.7663 120.476 16.047 117.479 16.047C114.602 16.047 112.567 17.8063 111.768 20.4853H123.273ZM141.094 11.6887C146.289 11.6887 151.922 14.8475 151.922 23.7639V24.4037H135.021C135.38 28.3194 137.658 30.4787 141.454 30.4787C144.171 30.4787 146.488 28.9991 147.008 26.9626H151.803C151.323 31.3582 146.768 34.8369 141.454 34.8369C134.661 34.8369 130.386 30.3986 130.386 23.2441C130.386 16.8734 134.501 11.6754 141.094 11.6754V11.6887ZM146.888 20.4853C146.209 17.7663 144.091 16.047 141.094 16.047C138.217 16.047 136.179 17.8063 135.38 20.4853H146.888Z" fill="#AEACAC"/>
<path d="M153.083 11.6087H161.514L155.52 5.89101L158.837 2.47902L164.55 8.35669V0H169.505V8.35669L175.219 2.49234L178.533 5.89101L172.542 11.5954H180.97V16.3135H172.494L178.525 22.1778L175.219 25.51L167.028 17.2731L158.837 25.51L155.52 22.1913L161.554 16.3269H153.083V11.6087ZM164.537 23.0841H169.492V34.2798H164.537V23.0841Z" fill="#43E660"/>
</g>
<defs>
<clipPath id="clip0_5177_6942">
<rect width="174" height="37" fill="white" transform="translate(10)"/>
</clipPath>
</defs>
</svg>
