<svg width="24" height="24" viewBox="0 0 24 24" fill="none" xmlns="http://www.w3.org/2000/svg">
<path d="M12 22.9498C11.7167 22.9498 11.479 22.8541 11.287 22.6628C11.095 22.4715 10.9994 22.2338 11 21.9498V20.9498C8.91672 20.7165 7.12905 19.8541 5.63705 18.3628C4.14505 16.8715 3.28272 15.0838 3.05005 12.9998H2.05005C1.76672 12.9998 1.52938 12.9038 1.33805 12.7118C1.14672 12.5198 1.05072 12.2825 1.05005 11.9998C1.05005 11.7165 1.14605 11.4788 1.33805 11.2868C1.53005 11.0948 1.76738 10.9991 2.05005 10.9998H3.05005C3.28338 8.91647 4.14605 7.1288 5.63805 5.6368C7.13005 4.1448 8.91738 3.28247 11 3.0498V2.0498C11 1.76647 11.096 1.52914 11.288 1.3378C11.48 1.14647 11.7174 1.05047 12 1.0498C12.2834 1.0498 12.521 1.1458 12.713 1.3378C12.905 1.5298 13.0007 1.76714 13 2.0498V3.0498C15.0834 3.28314 16.8711 4.1458 18.3631 5.6378C19.8551 7.12981 20.7174 8.91714 20.9501 10.9998H21.9501C22.2334 10.9998 22.4711 11.0958 22.663 11.2878C22.855 11.4798 22.9507 11.7171 22.9501 11.9998C22.9501 12.2831 22.8544 12.5208 22.663 12.7128C22.4717 12.9048 22.2341 13.0005 21.9501 12.9998H20.9501C20.7167 15.0831 19.8544 16.8708 18.3631 18.3628C16.8717 19.8548 15.084 20.7171 13 20.9498V21.9498C13 22.2331 12.904 22.4708 12.712 22.6628C12.52 22.8548 12.2827 22.9505 12 22.9498ZM12 18.9998C13.9334 18.9998 15.5834 18.3165 16.95 16.9498C18.3167 15.5831 19 13.9331 19 11.9998C19 10.0665 18.3167 8.41647 16.95 7.0498C15.5834 5.68314 13.9334 4.9998 12 4.9998C10.0667 4.9998 8.41672 5.68314 7.05005 7.0498C5.68338 8.41647 5.00005 10.0665 5.00005 11.9998C5.00005 13.9331 5.68338 15.5831 7.05005 16.9498C8.41672 18.3165 10.0667 18.9998 12 18.9998ZM12 15.9998C10.9 15.9998 9.95838 15.6081 9.17505 14.8248C8.39172 14.0415 8.00005 13.0998 8.00005 11.9998C8.00005 10.8998 8.39172 9.95814 9.17505 9.1748C9.95838 8.39147 10.9 7.9998 12 7.9998C13.1 7.9998 14.0417 8.39147 14.825 9.1748C15.6084 9.95814 16 10.8998 16 11.9998C16 13.0998 15.6084 14.0415 14.825 14.8248C14.0417 15.6081 13.1 15.9998 12 15.9998Z" fill="black"/>
</svg>
