<svg width="77" height="54" viewBox="0 0 77 54" fill="none" xmlns="http://www.w3.org/2000/svg">
<g clip-path="url(#clip0_4128_10410)">
<path d="M72.0669 17.1711C70.5956 11.2005 68.1372 -0.632029 57.0708 0.0263747C48.8092 0.445359 37.836 1.94173 32.3829 2.89567C22.5047 4.62024 6.92766 6.16898 3.95527 13.692C2.9831 16.5575 2.72981 19.4081 2.93468 22.4794C1.86194 23.1753 1.04993 24.017 0.643928 25.0495C-0.570355 28.6333 0.0926586 32.1759 1.28087 36.9905C2.75216 42.9536 3.51947 45.1869 6.25347 47.7831C7.34856 48.7221 8.90552 49.0662 10.6971 49.0438C11.4682 50.08 12.3584 51.0639 13.4274 52.0814C19.5473 57.3299 34.2081 51.6587 43.5834 48.2956C48.7981 46.4251 59.2461 42.759 66.7479 39.2538C76.8793 34.6262 73.5382 23.1341 72.0669 17.1711ZM58.2628 11.0509C56.2402 11.0509 54.6013 9.40489 54.6013 7.37356C54.6013 5.34224 56.2402 3.69623 58.2628 3.69623C60.2853 3.69623 61.9243 5.34224 61.9243 7.37356C61.9243 9.40489 60.2853 11.0509 58.2628 11.0509Z" fill="#00AEB5"/>
<path d="M31.8025 35.225C28.6774 35.225 25.9397 34.6526 23.716 33.9156C17.7042 31.9255 14.0911 28.3791 13.9421 28.2294C13.1637 27.4551 13.1599 26.1944 13.931 25.4125C14.702 24.6344 15.9535 24.6269 16.732 25.3975C17.2498 25.9063 29.333 37.4733 45.9083 26.6769C46.8284 26.0784 48.0538 26.3403 48.6498 27.2643C49.2457 28.1883 48.985 29.419 48.065 30.0176C42.0345 33.9456 36.4809 35.225 31.8025 35.225Z" fill="#FBE74C"/>
</g>
<defs>
<clipPath id="clip0_4128_10410">
<rect width="77" height="54" fill="white"/>
</clipPath>
</defs>
</svg>
