<svg width="94" height="66" viewBox="0 0 94 66" fill="none" xmlns="http://www.w3.org/2000/svg">
<g clip-path="url(#clip0_5413_5761)">
<path d="M87.9781 20.9869C86.1819 13.6895 83.1808 -0.77248 69.6712 0.0322357C59.5856 0.544328 46.1897 2.37323 39.5327 3.53915C27.4737 5.64696 8.45746 7.53987 4.82884 16.7347C3.64203 20.237 3.33282 23.7211 3.58292 27.4749C2.27334 28.3253 1.28206 29.3541 0.786418 30.616C-0.695954 34.9962 0.113439 39.3261 1.56398 45.2106C3.36011 52.4988 4.29682 55.2284 7.63443 58.4016C8.97129 59.5492 10.872 59.9698 13.0592 59.9424C14.0004 61.2089 15.0872 62.4114 16.3922 63.6551C23.8632 70.0699 41.7608 63.1384 53.206 59.028C59.572 56.7418 72.3268 52.261 81.4847 47.9768C93.853 42.321 89.7742 28.275 87.9781 20.9869ZM71.1263 13.5067C68.6572 13.5067 66.6565 11.4949 66.6565 9.01213C66.6565 6.5294 68.6572 4.51761 71.1263 4.51761C73.5954 4.51761 75.5962 6.5294 75.5962 9.01213C75.5962 11.4949 73.5954 13.5067 71.1263 13.5067Z" fill="#29D7DE" fill-opacity="0.5"/>
<path d="M38.824 43.0529C35.0089 43.0529 31.6668 42.3533 28.9521 41.4526C21.613 39.0201 17.2023 34.6856 17.0204 34.5027C16.07 33.5563 16.0655 32.0154 17.0068 31.0598C17.948 30.1088 19.4759 30.0997 20.4262 31.0416C21.0583 31.6634 35.8092 45.8008 56.044 32.6053C57.1672 31.8737 58.6632 32.1938 59.3908 33.3231C60.1183 34.4525 59.8 35.9567 58.6768 36.6883C51.315 41.4891 44.5352 43.0529 38.824 43.0529Z" fill="white"/>
</g>
<defs>
<clipPath id="clip0_5413_5761">
<rect width="94" height="66" fill="white"/>
</clipPath>
</defs>
</svg>
