<svg width="228" height="58" viewBox="0 0 228 58" fill="none" xmlns="http://www.w3.org/2000/svg">
<g clip-path="url(#clip0_8_9617)">
<path d="M76.822 18.3701C75.2536 11.9826 72.6331 -0.676386 60.8366 0.0280031C52.03 0.47625 40.3328 2.07713 34.5199 3.0977C23.9901 4.94271 7.38529 6.59963 4.2168 14.6481C3.18049 17.7138 2.91049 20.7634 3.12887 24.0493C1.98536 24.7937 1.11978 25.6942 0.686996 26.7988C-0.607399 30.6329 0.0993566 34.423 1.36596 39.5738C2.93432 45.9533 3.75225 48.3427 6.66662 51.1202C7.83396 52.1247 9.49364 52.493 11.4035 52.4689C12.2254 53.5775 13.1743 54.6301 14.3139 55.7187C20.8375 61.3338 36.4655 55.2665 46.4593 51.6685C52.0181 49.6674 63.1554 45.7452 71.1521 41.9952C81.9519 37.0444 78.3904 24.7496 76.822 18.3701ZM62.1072 11.8225C59.9512 11.8225 58.2042 10.0615 58.2042 7.88834C58.2042 5.71514 59.9512 3.95417 62.1072 3.95417C64.2632 3.95417 66.0102 5.71514 66.0102 7.88834C66.0102 10.0615 64.2632 11.8225 62.1072 11.8225Z" fill="#00AEB5"/>
<path d="M98.0282 41.1387V47.166H96.2732C91.6713 47.166 89.297 44.8687 89.297 40.4223V33.1503C89.297 30.1846 87.4467 28.2236 84.5522 28.2236C81.5147 28.2236 79.4739 30.2327 79.4739 33.2463V47.166H73.3037V33.1503C73.3037 30.1846 71.4057 28.2236 68.5589 28.2236C65.5214 28.2236 63.4329 30.2327 63.4329 33.2463V47.166H57.2627V22.7725H63.4329V25.5941C65.1879 23.3449 67.6576 22.1962 70.5997 22.1962C74.205 22.1962 76.9565 23.8211 78.382 26.5987C80.2322 23.7291 83.0315 22.1962 86.593 22.1962C91.9096 22.1962 95.4672 25.7822 95.4672 31.2852V39.0815C95.4672 40.3743 96.2256 41.1387 97.508 41.1387H98.0282Z" fill="#002D36"/>
<path d="M99.1162 34.9673C99.1162 27.6953 104.715 22.1962 112.12 22.1962C119.525 22.1962 125.123 27.6953 125.123 34.9673C125.123 42.2393 119.525 47.7383 112.12 47.7383C104.715 47.7383 99.1162 42.2393 99.1162 34.9673ZM118.762 34.9673C118.762 31.1412 115.963 28.2236 112.12 28.2236C108.276 28.2236 105.477 31.1412 105.477 34.9673C105.477 38.7934 108.324 41.711 112.12 41.711C115.916 41.711 118.762 38.7934 118.762 34.9673Z" fill="#002D36"/>
<path d="M136.272 28.4637V38.4132C136.272 40.3262 137.46 41.4749 139.453 41.4749H141.875V47.166H138.552C133.001 47.166 130.106 44.4885 130.106 39.4658V28.4637H126.263V22.7725H128.494C129.777 22.7725 130.44 22.1042 130.44 20.8115V16.269H136.276V22.7725H141.875V28.4637H136.276H136.272Z" fill="#002D36"/>
<path d="M144.864 15.3084C144.864 13.1072 146.572 11.4343 148.755 11.4343C150.939 11.4343 152.647 13.1072 152.647 15.3084C152.647 17.5096 150.939 19.1826 148.755 19.1826C146.572 19.1826 144.864 17.5096 144.864 15.3084ZM145.67 22.7685H151.84V47.162H145.67V22.7685Z" fill="#002D36"/>
<path d="M155.398 34.9673C155.398 27.6953 160.997 22.1962 168.402 22.1962C174.854 22.1962 179.885 26.3585 181.072 32.1457H174.524C173.48 29.8004 171.201 28.2236 168.402 28.2236C164.606 28.2236 161.759 31.1412 161.759 34.9673C161.759 38.7934 164.606 41.711 168.402 41.711C171.201 41.711 173.48 40.1341 174.524 37.7888H181.072C179.885 43.576 174.854 47.7383 168.402 47.7383C161.001 47.7383 155.398 42.2393 155.398 34.9673Z" fill="#002D36"/>
<path d="M211.391 41.1387V47.166H209.636C206.217 47.166 204.038 45.8733 203.136 43.3399C201.238 46.0654 198.344 47.7383 194.834 47.7383C188.096 47.7383 183.018 42.2393 183.018 34.9673C183.018 27.6953 188.096 22.1962 194.834 22.1962C198.11 22.1962 200.814 23.633 202.711 25.9743V22.7685H208.882V39.0775C208.882 40.3703 209.592 41.1347 210.922 41.1347H211.399L211.391 41.1387ZM202.707 34.9673C202.707 31.1412 199.861 28.2236 196.017 28.2236C192.174 28.2236 189.374 31.1412 189.374 34.9673C189.374 38.7934 192.221 41.711 196.017 41.711C199.813 41.711 202.707 38.7934 202.707 34.9673Z" fill="#002D36"/>
<path d="M228 22.3883V28.7959C223.064 28.7959 220.313 31.4253 220.313 35.5396V47.162H214.143V22.7685H220.313V26.4986C222.211 23.9172 224.819 22.3843 228 22.3843V22.3883Z" fill="#002D36"/>
<path d="M33.9004 37.6848C30.5691 37.6848 27.6508 37.0725 25.2804 36.284C18.8719 34.1548 15.0205 30.3607 14.8617 30.2007C14.0319 29.3722 14.0279 28.0235 14.8498 27.187C15.6717 26.3545 17.0058 26.3465 17.8356 27.171C18.3875 27.7153 31.268 40.0901 48.9368 28.5397C49.9176 27.8994 51.2239 28.1795 51.8591 29.1681C52.4944 30.1566 52.2165 31.4734 51.2358 32.1137C44.8075 36.316 38.8874 37.6848 33.9004 37.6848Z" fill="#FBE74C"/>
</g>
<defs>
<clipPath id="clip0_8_9617">
<rect width="228" height="58" fill="white"/>
</clipPath>
</defs>
</svg>
