<svg width="62" height="68" viewBox="0 0 62 68" fill="none" xmlns="http://www.w3.org/2000/svg">
<path d="M0 0H4.75621H40.3535C40.6062 0.134644 40.9092 0.29938 41.1151 0.495431C44.6057 3.81897 48.0528 7.20261 51.5284 10.5412C51.8235 10.8247 52.8779 11.8472 52.8976 12.1183C53.0544 14.2757 52.9847 17.5894 52.9838 19.6411L52.9737 40.6841C51.9626 40.4962 50.918 40.2791 49.8904 40.2503L49.8874 23.2303C49.8874 20.4428 49.975 17.0507 49.8671 14.3251L45.7803 14.3233C43.2853 14.3286 41.0879 14.5839 39.1613 12.6299C37.5491 10.9947 37.674 9.09625 37.6974 6.96878C37.7007 5.70573 37.7204 4.33914 37.6951 3.09011C35.3465 3.01159 32.6693 3.06815 30.2975 3.06812L16.7769 3.06963L9.0689 3.06846C7.74335 3.06841 6.32929 3.02253 5.01396 3.12343C3.93072 3.20652 3.12807 4.39226 3.12159 5.42503C3.09748 9.26205 3.10845 13.0983 3.10959 16.9348L3.11188 38.888L3.11842 53.4314L3.11148 57.9742C3.10973 58.8442 3.09346 59.7074 3.13431 60.5763C3.20565 62.0937 4.31775 62.8844 5.77 62.8917C8.14072 62.9035 10.51 62.887 12.8805 62.8876L27.2424 62.8953L32.6606 62.8946C33.5161 62.8939 34.7384 62.856 35.5728 62.9088C36.4586 64.2967 36.7069 64.6763 37.7374 65.9651L14.8691 65.9709L9.01359 65.9787C4.59227 66.017 1.3224 66.4067 0 61.268V4.74088V0Z" fill="#29D7DE"/>
<path d="M41.0295 5C41.3104 5.0922 47.4437 10.473 48 10.9765C46.8935 11.0078 45.7367 10.9813 44.6261 10.9961C43.5975 10.9995 42.4863 11.0759 41.6998 10.3609C40.8439 9.58291 41.0165 8.42325 41.0104 7.42583C41.0055 6.61741 41.0221 5.80684 41.0295 5Z" fill="#013037"/>
<path d="M47.4709 68C46.587 67.8193 45.6668 67.6399 44.8134 67.3596C42.0585 66.4389 39.699 64.6638 38.1053 62.312C36.2164 59.5293 35.5627 56.1343 36.2899 52.8844C37.0116 49.6251 39.0622 46.7815 41.9815 44.9917C44.8884 43.1958 48.4155 42.5815 51.7914 43.2832C55.159 44.0026 58.0949 45.9745 59.9594 48.7693C61.8139 51.5575 62.4379 54.9425 61.6933 58.175C60.9397 61.4455 58.8644 64.2923 55.9263 66.0858C54.7496 66.8022 53.461 67.3315 52.1098 67.6539C51.6004 67.7746 50.9612 67.871 50.4821 68H47.4709Z" fill="#29D7DE"/>
<path d="M47.5823 48.0087C48.5404 47.996 49.4988 47.9972 50.457 48.0123C50.5013 49.792 50.4635 51.7258 50.4625 53.5173C52.2539 53.6083 54.1666 53.4923 55.9916 53.5587L56 56.4199C54.2006 56.4889 52.3113 56.4081 50.487 56.4484C50.3972 58.2403 50.5334 60.1621 50.4407 61.9675C49.4781 61.9893 48.5453 62.0118 47.5829 61.9929C47.5324 60.2124 47.5723 58.2431 47.5666 56.4437C45.73 56.4155 43.8806 56.4562 42.0358 56.426C41.9753 55.5641 42.0081 54.435 42.0158 53.5641C43.8624 53.5017 45.7236 53.5649 47.578 53.5142L47.5823 48.0087Z" fill="#013037"/>
<path d="M8.24184 27.0395C9.4222 26.9621 11.5278 27.0224 12.7603 27.0222L21.6188 27.0215L36.3789 27.0218C38.9444 27.0221 41.5108 27.0164 44.0762 27.0292C44.4068 27.0547 44.8631 27.0053 45.1527 27.1779C46.4798 27.9689 46.1807 29.4998 44.7243 29.9281C43.7527 30.0432 41.6745 29.9858 40.5872 29.985L32.9459 29.9837L18.1969 29.9848C15.1411 29.9861 12.1136 29.9698 9.03146 29.9659C7.70021 29.9643 6.58735 29.3322 7.14907 27.8305C7.3035 27.4178 7.81223 27.1772 8.24184 27.0395Z" fill="#29D7DE"/>
<path d="M8.57561 19.0324C10.781 18.9663 13.2524 19.0218 15.4869 19.0216L28.6373 19.0327L38.9348 19.0347C40.696 19.0339 42.4691 19.0234 44.2296 19.0459C44.5938 19.0727 44.9473 19.0493 45.2598 19.2549C46.2351 19.8966 46.2617 21.0949 45.2498 21.7178C44.9789 21.8846 44.8058 21.9054 44.4816 21.9541C37.0404 22.055 29.3451 21.9581 21.8849 21.958L13.2939 21.9626C11.7782 21.9644 10.2325 21.9804 8.71627 21.9485C8.30933 21.9399 7.91157 21.8685 7.58044 21.6332C7.26893 21.408 7.06598 21.075 7.01669 20.7085C6.88134 19.7206 7.58444 19.1312 8.57561 19.0324Z" fill="#29D7DE"/>
<path d="M8.23784 12.0286C9.99411 11.9804 11.783 12.0077 13.5435 12.0075C18.742 12.007 23.9416 11.994 29.1398 12.0174C29.9179 12.0208 30.5974 12.1613 30.8991 12.9423C31.0539 13.3442 31.0298 13.7895 30.8324 14.1739C30.6066 14.6147 30.2378 14.807 29.7767 14.9588C28.8352 15.0247 27.5918 14.9917 26.6319 14.9921L21.167 14.9906L13.5513 14.9754C11.979 14.9755 10.4076 14.9784 8.8354 14.9654C8.01419 14.9586 7.37021 14.7967 7.07978 13.9596C6.94785 13.579 6.98052 13.1634 7.17052 12.8061C7.4057 12.3605 7.77181 12.1783 8.23784 12.0286Z" fill="#29D7DE"/>
</svg>
