<svg width="97" height="95" viewBox="0 0 97 95" fill="none" xmlns="http://www.w3.org/2000/svg">
<g filter="url(#filter0_d_4128_6051)">
<rect x="18" y="18" width="61" height="59" rx="29.5" fill="#29D7DE" fill-opacity="0.2"/>
<path d="M58.7784 56.9997H38.1813C38.114 56.9773 38.0481 56.9448 37.9786 56.9347C35.5682 56.5849 33.7287 54.9385 33.2024 52.5911C32.7193 50.4403 32.2801 48.2801 31.8344 46.1213C31.6265 45.116 31.3505 44.1251 31.4479 43.0714C31.7099 40.2405 34.1679 38 37.0607 38C44.6644 38 52.2682 38 59.872 38C62.3731 38 64.5917 39.6261 65.2886 41.9931C65.4225 42.4484 65.4796 42.9254 65.5719 43.3923V43.8244C65.5323 44.0702 65.5031 44.3173 65.4525 44.5609C64.8984 47.2191 64.3678 49.8831 63.7749 52.5326C63.2998 54.6559 61.9632 56.0588 59.869 56.7453C59.5162 56.861 59.1429 56.9166 58.7791 57.0005L58.7784 56.9997ZM48.4985 39.5676C44.7003 39.5676 40.9021 39.5625 37.1046 39.569C34.5156 39.5734 32.5854 41.928 33.1095 44.4272C33.6284 46.9025 34.1569 49.3757 34.6664 51.8532C35.1414 54.1623 36.6859 55.4235 39.0751 55.4235C44.4317 55.4235 49.7875 55.4235 55.1441 55.4235C56.2033 55.4235 57.2625 55.4408 58.3209 55.4112C60.2445 55.357 61.8351 54.0185 62.2231 52.1705C62.7479 49.672 63.2383 47.1656 63.8159 44.6787C64.4812 41.8095 62.2553 39.4989 59.6004 39.5495C55.901 39.6204 52.1994 39.5676 48.4985 39.5676Z" fill="white"/>
<path d="M38.001 48.2522V46.7402H59.0445V48.2522H38.001Z" fill="white"/>
<path d="M37.9854 44.706C37.9854 44.2131 37.9737 43.783 37.9964 43.3545C38.0008 43.275 38.1406 43.142 38.2241 43.1369C38.6362 43.1145 39.0512 43.1145 39.464 43.1369C39.5446 43.1413 39.677 43.28 39.6822 43.3639C39.7063 43.7339 39.7041 44.1075 39.6836 44.4776C39.6792 44.5564 39.5607 44.6922 39.4911 44.6951C39.0073 44.7146 38.522 44.7052 37.9862 44.7052L37.9854 44.706Z" fill="white"/>
<path d="M55.227 43.1504V44.684H53.5654V43.1504H55.227Z" fill="white"/>
<path d="M37.9854 52.3698C37.9854 51.9109 37.9737 51.4816 37.9964 51.0552C38.0008 50.9764 38.1421 50.8456 38.2263 50.8413C38.6369 50.8189 39.0505 50.821 39.4618 50.8406C39.5416 50.8442 39.6785 50.9605 39.6814 51.0292C39.7019 51.4679 39.6917 51.9073 39.6917 52.3698H37.9854Z" fill="white"/>
<path d="M55.2495 52.3794H53.5454C53.5454 51.9125 53.5388 51.4529 53.5535 50.9932C53.5549 50.9376 53.6706 50.8407 53.7357 50.8385C54.172 50.8248 54.609 50.8212 55.0445 50.8407C55.1162 50.8443 55.237 50.9766 55.2399 51.0532C55.259 51.4803 55.2495 51.9089 55.2495 52.3787V52.3794Z" fill="white"/>
<path d="M42.0693 44.6842V43.1484H43.7016V44.6842H42.0693Z" fill="white"/>
<path d="M45.9531 43.1455H47.6184C47.6184 43.6254 47.625 44.0872 47.6096 44.549C47.6081 44.6032 47.4888 44.6972 47.4215 44.6986C46.9391 44.7117 46.4567 44.7059 45.9531 44.7059V43.1455Z" fill="white"/>
<path d="M49.9951 44.6774C49.9951 44.2047 49.987 43.7639 50.0039 43.3237C50.0068 43.2558 50.1232 43.1387 50.1905 43.1365C50.6729 43.1199 51.156 43.1279 51.6618 43.1279V44.6774H49.9951Z" fill="white"/>
<path d="M57.6318 43.1455H59.2685V44.6791H57.6318V43.1455Z" fill="white"/>
<path d="M42.0674 52.3723V50.8574H43.7107V52.3723H42.0674Z" fill="white"/>
<path d="M47.6049 50.8506V52.3676H45.9521V50.8506H47.6049Z" fill="white"/>
<path d="M51.6557 52.3823H49.9985C49.9985 51.9133 49.9919 51.4529 50.0073 50.9925C50.0087 50.9369 50.1258 50.84 50.191 50.8386C50.6741 50.8256 51.1579 50.8314 51.6564 50.8314V52.3823H51.6557Z" fill="white"/>
<path d="M59.2627 52.3741H57.6289V50.8506H59.2627V52.3741Z" fill="white"/>
</g>
<defs>
<filter id="filter0_d_4128_6051" x="0" y="0" width="97" height="95" filterUnits="userSpaceOnUse" color-interpolation-filters="sRGB">
<feFlood flood-opacity="0" result="BackgroundImageFix"/>
<feColorMatrix in="SourceAlpha" type="matrix" values="0 0 0 0 0 0 0 0 0 0 0 0 0 0 0 0 0 0 127 0" result="hardAlpha"/>
<feOffset/>
<feGaussianBlur stdDeviation="9"/>
<feColorMatrix type="matrix" values="0 0 0 0 0.160784 0 0 0 0 0.843137 0 0 0 0 0.870588 0 0 0 1 0"/>
<feBlend mode="normal" in2="BackgroundImageFix" result="effect1_dropShadow_4128_6051"/>
<feBlend mode="normal" in="SourceGraphic" in2="effect1_dropShadow_4128_6051" result="shape"/>
</filter>
</defs>
</svg>
