<svg width="68" height="52" viewBox="0 0 68 52" fill="none" xmlns="http://www.w3.org/2000/svg">
<g clip-path="url(#clip0_4128_11047)">
<path d="M31.3572 0.393171C31.9075 0.36034 32.4448 0.412028 32.9734 0.574346C33.8435 0.841297 38.3281 3.07056 38.9016 3.63106C39.7168 4.42771 40.6826 6.16934 41.4458 6.75179C41.9066 7.10321 42.539 7.32568 43.0639 7.57474L45.8628 8.91438L55.6426 13.594C57.1908 14.3361 58.7448 15.0513 60.2925 15.8236C62.6358 16.9927 62.1687 19.0873 62.2363 21.2446C62.2538 21.8027 62.2251 22.4392 62.3889 22.9631C62.7841 23.3209 63.259 23.5626 63.7378 23.7704C65.3146 24.4416 66.5002 24.9787 67.1991 26.628C67.8233 28.1008 67.4373 29.1292 67.1044 30.6233L66.3864 33.8373L65.7069 36.8897C65.4186 38.1812 65.2247 39.6066 63.9881 40.388C63.1239 40.9339 61.9942 41.2719 61.0318 41.6558C59.3378 42.3312 57.6171 42.9506 55.9275 43.6397L55.9085 43.7117C55.7544 44.3113 55.3593 45.1714 54.7779 45.4437C52.7607 46.3875 50.5947 47.2158 48.4886 47.9377C47.9062 48.1369 46.8704 47.7742 46.3775 47.4275C44.2966 48.3931 41.7758 49.3442 39.6191 50.156C38.9439 50.4104 36.8538 49.1605 36.2107 48.7408L35.6858 48.9506L31.7128 50.5801C30.8236 50.9476 29.5085 51.5612 28.6131 51.7289C27.1967 52.0065 25.908 51.081 24.8464 50.2349C23.9388 49.5115 23.0108 48.7287 22.0721 47.9971L13.8348 41.5765L6.58556 35.9222C5.35228 34.9605 4.10622 34.0128 2.8919 33.0293C1.80188 32.1464 1.5619 31.0957 1.34287 29.781C0.983808 27.6255 0.585808 25.4753 0.239575 23.3181C0.0987579 22.4407 0.148727 21.3809 0.14931 20.4825L0.152372 16.4415L0.144692 13.0197C0.143477 12.4417 0.115381 11.4852 0.191938 10.951C0.270148 10.3857 0.490925 9.84932 0.833756 9.39181C1.17527 8.93972 1.63525 8.58989 2.16337 8.38053C2.69903 8.17184 3.42416 7.99405 3.99409 7.83836L6.84133 7.06163L16.2549 4.4703L25.8989 1.81685L28.9397 0.973685C29.7547 0.748171 30.5165 0.514051 31.3572 0.393171Z" fill="#29D7DE"/>
<path d="M31.2581 1.5994C32.5297 1.46561 36.6619 3.74227 37.8117 4.57313C38.4336 5.02241 39.6996 7.42129 40.5609 7.86971C41.2965 8.25283 42.0181 8.59341 42.7518 8.94785L46.7356 10.8735L51.9203 13.3808C53.0538 13.931 54.2403 14.5299 55.3873 15.0341C53.5938 15.6117 51.6698 16.3325 49.875 16.9546L37.6509 21.201L30.2393 23.7793C29.106 24.1737 27.4441 24.6837 26.3837 25.1453C25.7651 25.4156 25.2005 25.7968 24.7175 26.2701C23.1351 27.8023 22.9416 29.2419 22.8175 31.2861C22.7584 32.1251 22.721 32.966 22.7056 33.807C22.6506 34.7022 22.6406 35.762 22.6196 36.6635C21.7754 36.0343 20.7021 35.3668 19.8136 34.7714L14.0183 30.9039L6.43708 25.8375C4.79856 24.7386 3.02419 23.5095 1.36269 22.4642L1.36 15.0001C1.35966 13.7938 1.33177 12.5727 1.37931 11.369C1.45326 9.49756 3.28191 9.30428 4.6854 8.91259L8.04645 7.97923L18.1137 5.1798L26.5038 2.8436C27.8051 2.48078 29.9765 1.80702 31.2581 1.5994Z" fill="#013037"/>
<path d="M65.0747 27.0023C66.2795 26.8991 66.3574 27.4067 66.3046 28.5675C66.2833 29.0338 66.0763 29.7085 65.9703 30.1758L65.3481 32.9329L64.6455 36.1367C64.497 36.8143 64.3431 37.6778 64.0877 38.3045C63.6072 39.4859 61.5954 39.9796 60.4583 40.4186L54.7935 42.6143C54.852 43.4576 54.7359 44.0085 53.8761 44.3835C52.5692 44.9363 51.2309 45.4559 49.911 45.9737C48.4682 46.5389 47.9611 46.9668 46.6586 45.8325C44.9414 46.597 43.1517 47.265 41.4239 48.0109C40.7857 48.2865 40.0019 48.6558 39.323 48.7567C39.2311 48.5564 39.1571 48.325 39.0835 48.1156C38.3539 45.9881 37.7079 43.8409 36.9822 41.6999C36.3449 39.8183 36.3411 38.2997 37.676 36.6755C38.5648 35.594 39.8456 35.2564 41.1234 34.7982L44.3695 33.6259C49.0468 31.91 53.819 30.1677 58.5602 28.6486C60.1003 28.1554 63.4911 27.1128 65.0747 27.0023Z" fill="#013037"/>
<path d="M60.801 34.2451C61.1279 34.2515 61.3358 34.3705 61.4332 34.6794C61.5724 35.1213 61.1308 35.2879 60.7775 35.4079C59.4415 35.8626 58.0949 36.2936 56.7512 36.7301L49.8282 38.9901L44.9393 40.5912C44.0978 40.8679 42.8981 41.2967 42.0618 41.5009C41.758 41.4914 41.5021 41.3325 41.4358 41.0418C41.4056 40.9123 41.433 40.7769 41.5126 40.6673C41.6375 40.4912 41.8122 40.426 42.0162 40.3562C43.2889 39.9211 44.5836 39.5099 45.863 39.0943L52.9146 36.7908L57.9658 35.1353C58.7838 34.8677 59.9988 34.429 60.801 34.2451Z" fill="#29D7DE"/>
<path d="M57.0268 33.0352C58.5499 33.0331 57.5472 33.954 56.7264 34.2356C56.4034 34.2545 56.2502 34.2585 56.0395 34.085C55.8328 33.6381 56.398 33.2222 57.0268 33.0352Z" fill="#29D7DE"/>
<path d="M46.9717 36.0601C47.2048 36.057 47.2682 36.04 47.4428 36.2705C47.6582 36.9085 47.168 37.5894 46.8028 37.8716C45.8376 37.9144 46.4027 36.4846 46.9717 36.0601Z" fill="#29D7DE"/>
<path d="M49.6716 35.4593C51.2199 35.3747 50.3661 36.3412 49.513 36.6593C48.0386 36.7335 48.8977 35.7758 49.6716 35.4593Z" fill="#29D7DE"/>
<path d="M54.1625 33.6531C54.2169 33.6476 54.2713 33.6433 54.3261 33.6408C55.1887 33.6022 54.646 34.5452 54.1554 34.8421C53.0998 34.938 53.6933 34.006 54.1625 33.6531Z" fill="#29D7DE"/>
<path d="M45.1631 41.5059C45.3959 41.4949 45.4603 41.4814 45.6315 41.7215C45.8237 42.3811 45.3124 43.0333 44.9156 43.3144C44.7074 43.3212 44.6344 43.2599 44.5011 43.067C44.3221 42.4166 44.7462 41.7741 45.1631 41.5059Z" fill="#29D7DE"/>
<path d="M44.5047 37.2704C45.5442 37.2094 44.9198 38.1589 44.3871 38.4769C43.4044 38.4818 43.9756 37.5681 44.5047 37.2704Z" fill="#29D7DE"/>
<path d="M57.3193 37.2676C58.3035 37.2976 57.6111 38.6833 57.0705 39.0815C56.1727 38.9861 56.7387 37.6151 57.3193 37.2676Z" fill="#29D7DE"/>
<path d="M52.3978 34.8522C53.4241 34.7935 52.8417 35.7388 52.263 36.0577C51.3032 36.098 51.8784 35.1565 52.3978 34.8522Z" fill="#29D7DE"/>
<path d="M54.954 38.4775C55.838 38.6326 55.1793 39.4504 54.6742 39.6868C53.6799 39.657 54.3789 38.7458 54.954 38.4775Z" fill="#29D7DE"/>
<path d="M47.5461 40.8973C48.5693 40.8492 47.9717 41.7796 47.4241 42.0748C47.1691 42.1205 47.1246 42.1339 46.9329 41.9676C46.7596 41.5351 47.1228 41.079 47.5461 40.8973Z" fill="#29D7DE"/>
<path d="M57.6772 22.1796C58.0359 22.1344 58.3733 22.1259 58.7043 22.2894C59.8442 22.8526 60.925 23.6937 62.0189 24.3281C62.9067 24.8432 64.2992 25.261 65.1027 25.8832C63.2808 25.9562 59.9667 26.9773 58.2048 27.542C53.4212 29.0751 48.6477 30.8437 43.9294 32.5717L40.6666 33.762C40.0398 33.9897 39.3989 34.215 38.7934 34.4606C36.7828 35.2753 35.4401 37.1145 35.2421 39.2698C35.0954 40.8701 35.6288 42.0987 36.1134 43.5849L37.229 47.0104C37.3568 47.3986 37.4667 47.7622 37.6046 48.1514C36.004 47.2361 34.4309 46.2846 32.8931 45.2679C32.2333 44.8323 32.0475 44.6669 31.8223 43.8919C31.0013 41.066 30.3734 38.1897 29.6641 35.3348C29.5135 34.7285 29.348 34.1058 29.2866 33.484C29.251 33.1064 29.3985 32.7138 29.5792 32.387C29.8014 31.976 30.1519 31.6492 30.5773 31.4558C31.3907 31.0826 33.3026 30.4927 34.2048 30.1847L41.1913 27.7973L51.9517 24.1191C53.7755 23.4952 55.8539 22.7233 57.6772 22.1796Z" fill="#013037"/>
<path d="M59.6451 16.7189L59.7497 16.71C60.9548 17.2425 60.792 18.8759 60.8136 19.9596C60.8314 20.6253 60.8444 21.2912 60.8516 21.957C58.1649 20.1871 58.1198 20.409 55.1397 21.4418L51.5855 22.6786L41.0698 26.3391L33.9585 28.815C33.0165 29.1395 30.9049 29.7992 30.1213 30.1832C29.5183 30.4833 29.0194 30.962 28.6906 31.5568C27.8458 33.0768 28.3881 34.5963 28.8595 36.3744C29.5437 38.9552 30.2227 42.8085 31.2351 45.2615C31.447 45.7748 34.4578 47.5915 35.0469 47.9306C34.669 48.0379 34.2552 48.2263 33.8888 48.381C32.357 49.0056 30.0197 50.0961 28.5194 50.5704C28.1611 50.2289 27.9513 49.8468 27.7851 49.3823C26.5427 45.9105 26.8278 37.4191 27.0353 33.6043C27.0847 32.6952 27.0602 31.7447 27.2123 30.8483C27.2965 30.356 27.4455 29.8778 27.6555 29.4264C28.6648 27.277 30.6942 26.893 32.7084 26.184L38.6822 24.0866L59.6451 16.7189Z" fill="#013037"/>
<path d="M1.95898 23.9658L14.1888 32.3059C16.9298 34.1833 19.7575 36.1553 22.5218 37.9866C22.5051 38.9457 22.5565 40.1272 22.5897 41.0877C22.6521 42.892 22.7302 45.836 23.209 47.5472C23.1863 47.5341 23.1635 47.521 23.1408 47.508C22.4042 46.9104 21.6408 46.293 20.9061 45.6994L16.0363 41.7749L8.17351 35.4477C6.87916 34.4063 5.2595 33.1729 4.02329 32.0961C3.78358 31.8916 3.57775 31.6483 3.41377 31.3759C2.8454 30.4178 2.28873 25.4864 1.95898 23.9658Z" fill="#013037"/>
<path d="M57.2537 15.5023C57.4658 15.4753 58.1851 15.8633 58.4235 15.9797C56.0141 16.7467 53.5281 17.6289 51.1314 18.4494L40.7949 21.9663L33.5719 24.4275C31.9392 24.9799 29.0227 25.7791 27.7766 26.8077C26.8501 27.5627 26.1776 28.5768 25.8479 29.7163C25.6154 30.505 25.6032 31.1322 25.5652 31.9363C25.3091 37.36 24.997 42.9938 26.0196 48.3555C26.055 48.542 26.3136 49.2682 26.305 49.3614L26.1856 49.2951C25.4484 48.6915 24.9555 48.4862 24.6781 47.5438C23.9736 45.1513 23.8897 42.3733 23.8423 39.9082C23.7796 37.1817 23.8308 34.4542 23.9959 31.732C24.0377 31.0784 24.0465 30.0888 24.1529 29.4741C24.2428 28.9459 24.4119 28.4345 24.6545 27.9554C25.073 27.1383 25.9759 26.2487 26.8358 25.894C27.9722 25.4254 29.2029 25.0424 30.3725 24.6463L36.9859 22.3937L50.6159 17.7504C52.7952 17.0096 55.0671 16.1963 57.2537 15.5023Z" fill="#013037"/>
</g>
<defs>
<clipPath id="clip0_4128_11047">
<rect width="68" height="52" fill="white"/>
</clipPath>
</defs>
</svg>
