<svg width="51" height="29" viewBox="0 0 51 29" fill="none" xmlns="http://www.w3.org/2000/svg">
<path d="M40.8528 28.3793H10.0876C9.98705 28.3459 9.88865 28.2973 9.78478 28.2822C6.18445 27.7597 3.43692 25.3005 2.65081 21.7943C1.92922 18.5817 1.27322 15.355 0.607381 12.1305C0.296876 10.6289 -0.115309 9.14887 0.0301035 7.57494C0.421515 3.34649 4.09291 0 8.41375 0C19.7712 0 31.1287 0 42.4862 0C46.2222 0 49.536 2.4289 50.5769 5.96431C50.777 6.6444 50.8622 7.35688 51 8.05425V8.69979C50.941 9.06683 50.8972 9.43602 50.8218 9.79982C49.9941 13.7703 49.2015 17.7494 48.3159 21.7068C47.6063 24.8785 45.6099 26.9738 42.4819 27.9993C41.9549 28.172 41.3973 28.2552 40.8539 28.3804L40.8528 28.3793ZM25.4981 2.34146C19.8248 2.34146 14.1515 2.33391 8.47935 2.34362C4.61224 2.3501 1.72914 5.86715 2.51196 9.60011C3.28713 13.2974 4.07651 16.9915 4.83747 20.6921C5.54704 24.1411 7.85396 26.0249 11.4226 26.0249C19.4236 26.0249 27.4235 26.0249 35.4244 26.0249C37.0065 26.0249 38.5885 26.0508 40.1695 26.0065C43.0428 25.9256 45.4186 23.9263 45.998 21.166C46.7819 17.4341 47.5145 13.6904 48.3771 9.97578C49.3709 5.69011 46.0461 2.23891 42.0806 2.31448C36.5549 2.42027 31.026 2.34146 25.4981 2.34146Z" fill="white"/>
<path d="M9.81763 15.314V13.0557H41.2497V15.314H9.81763Z" fill="white"/>
<path d="M9.79455 10.0172C9.79455 9.28093 9.77706 8.63862 9.81095 7.99847C9.81751 7.87972 10.0263 7.68109 10.151 7.67354C10.7665 7.64007 11.3864 7.64007 12.0031 7.67354C12.1233 7.68001 12.3212 7.88728 12.3289 8.0125C12.365 8.56521 12.3617 9.12332 12.3311 9.67603C12.3245 9.7937 12.1474 9.99665 12.0435 10.001C11.3208 10.0301 10.596 10.0161 9.79565 10.0161L9.79455 10.0172Z" fill="white"/>
<path d="M35.548 7.69238V9.98311H33.0662V7.69238H35.548Z" fill="white"/>
<path d="M9.79455 21.4644C9.79455 20.7789 9.77706 20.1377 9.81095 19.5008C9.81751 19.3831 10.0285 19.1877 10.1543 19.1813C10.7676 19.1478 11.3853 19.151 11.9998 19.1802C12.119 19.1856 12.3234 19.3594 12.3278 19.4619C12.3584 20.1172 12.3431 20.7735 12.3431 21.4644H9.79455Z" fill="white"/>
<path d="M35.5819 21.4777H33.0366C33.0366 20.7803 33.0268 20.0938 33.0487 19.4072C33.0508 19.3241 33.2236 19.1794 33.3209 19.1762C33.9725 19.1557 34.6252 19.1503 35.2758 19.1794C35.3829 19.1848 35.5633 19.3824 35.5677 19.4968C35.5961 20.1348 35.5819 20.7749 35.5819 21.4766V21.4777Z" fill="white"/>
<path d="M15.8954 9.98342V7.68945H18.3335V9.98342H15.8954Z" fill="white"/>
<path d="M21.6965 7.68555H24.1839C24.1839 8.40234 24.1937 9.09215 24.1707 9.78196C24.1686 9.86292 23.9903 10.0033 23.8898 10.0054C23.1692 10.0249 22.4487 10.0162 21.6965 10.0162V7.68555Z" fill="white"/>
<path d="M27.734 9.97356C27.734 9.26756 27.7219 8.60906 27.7471 7.95164C27.7514 7.85016 27.9253 7.67528 28.0259 7.67204C28.7464 7.64721 29.468 7.65909 30.2235 7.65909V9.97356H27.734Z" fill="white"/>
<path d="M39.1395 7.68555H41.5842V9.97627H39.1395V7.68555Z" fill="white"/>
<path d="M15.8921 21.4668V19.2041H18.3466V21.4668H15.8921Z" fill="white"/>
<path d="M24.1632 19.1934V21.4593H21.6945V19.1934H24.1632Z" fill="white"/>
<path d="M30.2136 21.4826H27.7383C27.7383 20.782 27.7285 20.0944 27.7514 19.4067C27.7536 19.3236 27.9285 19.1789 28.0258 19.1768C28.7474 19.1573 29.4701 19.166 30.2147 19.166V21.4826H30.2136Z" fill="white"/>
<path d="M41.5765 21.4709H39.1362V19.1953H41.5765V21.4709Z" fill="white"/>
</svg>
