<svg width="15" height="15" viewBox="0 0 15 15" fill="none" xmlns="http://www.w3.org/2000/svg">
<g clip-path="url(#clip0_4128_5055)">
<path d="M7.1875 3.125H7.459C9.36353 3.125 10.3158 3.125 10.6773 3.46706C10.9897 3.76273 11.1282 4.1983 11.0439 4.62013C10.9463 5.10813 10.1688 5.65803 8.61393 6.75783L6.07357 8.55467C4.51869 9.65446 3.74124 10.2044 3.64365 10.6924C3.55929 11.1142 3.69776 11.5498 4.01023 11.8454C4.37171 12.1875 5.32397 12.1875 7.2285 12.1875H7.8125M5 3.125C5 4.16053 4.16053 5 3.125 5C2.08947 5 1.25 4.16053 1.25 3.125C1.25 2.08947 2.08947 1.25 3.125 1.25C4.16053 1.25 5 2.08947 5 3.125ZM13.75 11.875C13.75 12.9105 12.9105 13.75 11.875 13.75C10.8395 13.75 10 12.9105 10 11.875C10 10.8395 10.8395 10 11.875 10C12.9105 10 13.75 10.8395 13.75 11.875Z" stroke="#00AEB5" stroke-width="2" stroke-linecap="round" stroke-linejoin="round"/>
</g>
<defs>
<clipPath id="clip0_4128_5055">
<rect width="15" height="15" fill="white"/>
</clipPath>
</defs>
</svg>
