<svg width="17" height="17" viewBox="0 0 17 17" fill="none" xmlns="http://www.w3.org/2000/svg">
<g clip-path="url(#clip0_5154_4900)">
<path d="M4.24984 4.24984L5.6665 2.83317M5.6665 2.83317L4.24984 1.4165M5.6665 2.83317H4.24984C2.68503 2.83317 1.4165 4.1017 1.4165 5.6665M12.7498 12.7498L11.3332 14.1665M11.3332 14.1665L12.7498 15.5832M11.3332 14.1665H12.7498C14.3146 14.1665 15.5832 12.898 15.5832 11.3332M9.50367 9.50367C10.0578 9.76833 10.6782 9.9165 11.3332 9.9165C13.6804 9.9165 15.5832 8.01372 15.5832 5.6665C15.5832 3.31929 13.6804 1.4165 11.3332 1.4165C8.98596 1.4165 7.08317 3.31929 7.08317 5.6665C7.08317 6.32151 7.23135 6.94191 7.49601 7.49601M9.9165 11.3332C9.9165 13.6804 8.01372 15.5832 5.6665 15.5832C3.31929 15.5832 1.4165 13.6804 1.4165 11.3332C1.4165 8.98596 3.31929 7.08317 5.6665 7.08317C8.01372 7.08317 9.9165 8.98596 9.9165 11.3332Z" stroke="#F2A900" stroke-width="1.5" stroke-linecap="round" stroke-linejoin="round"/>
</g>
<defs>
<clipPath id="clip0_5154_4900">
<rect width="17" height="17" fill="white"/>
</clipPath>
</defs>
</svg>
