<svg width="67" height="67" viewBox="0 0 67 67" fill="none" xmlns="http://www.w3.org/2000/svg">
<path d="M49.5447 0.0187166C54.9675 0.195645 59.1449 -0.89463 63.3969 3.37875C67.4311 7.43322 66.6296 12.2112 66.6153 17.4183L62.7704 17.4406C62.6643 13.4635 63.5847 9.06538 60.576 6.06423C57.7051 3.20056 53.1857 3.89077 49.4836 3.90953C49.4771 2.61236 49.4974 1.31508 49.5447 0.0187166Z" fill="#29D7DE"/>
<path d="M10.4805 0.0782125C12.0218 -0.0706952 15.5129 0.0376104 17.1776 0.0440151L17.1739 3.88405C13.3546 3.94798 8.85711 3.19395 6.09019 6.07249C3.70721 8.55154 3.89661 11.0292 3.91376 14.1844L3.91113 17.4314L0.0609199 17.4376C0.0502837 15.7736 0.117647 13.8524 0.0387324 12.2162C-0.268232 5.85221 4.07399 0.594128 10.4805 0.0782125Z" fill="#29D7DE"/>
<path d="M0.0618959 49.7007L3.91943 49.6914C3.90856 54.1247 3.1113 59.4951 7.84192 61.8572C10.4189 63.144 14.3336 62.7431 17.1898 62.7387L17.1732 66.5924L12.21 66.6152C8.58395 66.6064 5.96502 65.9234 3.28171 63.2649C-0.644443 59.3752 0.0329607 54.8028 0.0618959 49.7007Z" fill="#29D7DE"/>
<path d="M62.7512 49.6948C64.0429 49.7416 65.3166 49.7111 66.6082 49.6904L66.6281 54.2846C66.6346 59.1824 65.0995 62.8563 60.586 65.3428C58.2211 66.6457 56.1033 66.612 53.4851 66.6061L49.4907 66.6099C49.4874 65.3111 49.5001 64.0124 49.5288 62.714C50.992 62.7332 52.4551 62.742 53.9182 62.7404C63.182 62.7263 62.8223 56.8595 62.7512 49.6948Z" fill="#29D7DE"/>
<path d="M29.0062 21.5204C29.1974 21.5103 29.4328 21.5062 29.625 21.506C32.5814 21.5031 35.5393 21.5043 38.4956 21.5035L41.1323 21.5031C41.8883 21.5031 43.03 21.4723 43.7477 21.6447C44.7726 21.8876 45.6925 22.4541 46.3705 23.2603C46.79 23.7558 47.2432 24.5395 47.5986 25.1117C48.126 25.9666 48.6609 26.8168 49.2036 27.6621C50.0759 29.0339 49.7154 28.7321 51.2023 29.4277C52.807 30.1785 54.7623 30.711 55.4803 32.4904C55.8551 33.4193 55.8124 34.044 55.8097 35.0075L55.812 36.752C55.811 38.4084 55.2504 39.6985 53.7706 40.5619C52.8263 41.1134 51.8376 41.073 50.7852 41.0679C50.6597 41.4806 50.563 41.772 50.3592 42.1552C49.7256 43.3425 48.646 44.2294 47.3578 44.6204C46.0574 45.0026 44.6587 44.8578 43.4641 44.2172C42.1776 43.5141 41.4131 42.4475 41.0034 41.0632H38.2561H30.1201C28.6796 41.0632 27.1751 41.0842 25.7388 41.0557C25.6279 41.5095 25.4247 41.9632 25.1903 42.3661C24.513 43.5056 23.4148 44.3331 22.1326 44.6702C20.8104 45.0111 19.4069 44.8089 18.2345 44.1093C17.1088 43.4348 16.295 42.3431 15.9704 41.0713C14.7508 41.0849 13.7553 40.917 12.8067 40.0878C12.0142 39.3892 11.5283 38.407 11.4536 37.3533C11.4277 36.9582 11.4397 36.3196 11.4442 35.9147C11.4525 35.1784 11.3894 34.2753 11.5487 33.5685C11.6709 33.0126 11.9152 32.4906 12.2638 32.0406C13.2518 30.7532 14.5251 30.5796 16.0115 30.1754L19.0319 29.3525C21.2452 28.7452 20.8191 29.1725 22.2249 27.3286L24.182 24.7688C25.6058 22.9034 26.4305 21.6642 29.0062 21.5204Z" fill="#29D7DE"/>
<path d="M28.8932 23.3525C29.0571 23.3268 29.5628 23.3336 29.7408 23.333L39.0715 23.3311L41.5217 23.3316C42.8483 23.3321 44.0377 23.2864 44.9773 24.4569C45.3785 24.9571 45.7156 25.5724 46.0552 26.1203L47.7409 28.8332C48.0076 29.2657 48.338 29.8655 48.6568 30.24C48.8598 30.4784 49.5409 30.7395 49.8489 30.8767C50.3873 31.1216 50.9237 31.3704 51.4584 31.6232C52.0856 31.9152 52.8572 32.1757 53.356 32.6572C54.0028 33.2793 54.0123 34.3307 53.9666 35.1848C53.9052 36.3276 54.238 37.8578 53.3238 38.7218C52.5963 39.4091 51.8057 39.3432 50.8939 39.3299C50.8519 38.4956 50.4012 37.4602 49.8967 36.802C49.0733 35.7223 47.8555 35.019 46.5143 34.8487C45.1738 34.6818 43.8225 35.0599 42.7595 35.8994C41.662 36.7719 41.0382 37.9475 40.8684 39.3401C40.0731 39.318 39.1948 39.3354 38.3931 39.3347L25.8827 39.336C25.8116 38.5706 25.5029 37.7394 25.0837 37.0992C24.3459 35.9611 23.1829 35.1711 21.8585 34.9087C20.5358 34.6443 19.1629 34.9193 18.0413 35.6731C16.6671 36.6047 16.1324 37.7735 15.8293 39.3422C14.5355 39.3599 13.5271 38.8542 13.3155 37.4176C13.2344 36.7559 13.32 35.9894 13.2813 35.3407C13.1306 32.8204 14.2306 32.6093 16.2723 32.0531L20.2339 30.9655C20.6223 30.8603 22.0052 30.527 22.2407 30.3244C22.5144 30.0889 23.2999 28.9932 23.5557 28.6551L26.4986 24.7637C27.1653 23.8992 27.8072 23.4879 28.8932 23.3525Z" fill="#013037"/>
<path d="M20.6825 36.6184C22.4357 36.4192 24.0197 37.6758 24.2245 39.4283C24.4293 41.1811 23.1776 42.7688 21.4257 42.9791C19.666 43.1905 18.0694 41.9319 17.8637 40.1716C17.658 38.4111 18.9215 36.8186 20.6825 36.6184Z" fill="#013037"/>
<path d="M45.3767 36.6195C47.1404 36.4139 48.7343 37.683 48.9298 39.4474C49.1253 41.2121 47.8474 42.7989 46.0816 42.9846C44.3297 43.1682 42.7584 41.9029 42.5646 40.1523C42.3708 38.4018 43.6271 36.8231 45.3767 36.6195Z" fill="#013037"/>
</svg>
