<svg width="95" height="88" viewBox="0 0 95 88" fill="none" xmlns="http://www.w3.org/2000/svg">
<g clip-path="url(#clip0_4901_4624)">
<path d="M31.9726 24.5938C33.1084 26.534 34.2578 28.4675 35.3732 30.4212C36.0261 31.5637 36.5702 32.7671 37.2503 33.896C37.434 34.207 37.9237 34.5112 38.2773 34.5112C41.2699 34.545 44.2692 34.6059 47.2482 34.4098C47.8467 34.3693 48.486 33.3552 48.9077 32.6657C49.2682 32.0775 49.2886 31.2933 49.5674 30.6375C49.7239 30.2725 50.1115 29.7249 50.3564 29.7452C50.7645 29.779 51.3698 30.1305 51.4786 30.4685C51.7438 31.3339 51.7846 32.2736 51.9275 33.3214C52.4444 33.3214 53.1381 33.3282 53.8318 33.3214C54.8588 33.3079 55.3213 33.7068 55.2805 34.7208C55.2125 36.4109 55.0832 38.0942 54.9948 39.7843C54.9404 40.7849 54.3895 41.3392 53.4305 41.3798C51.601 41.4474 49.7579 42.0085 47.9283 41.2176C47.6427 41.0959 47.187 41.4136 46.7993 41.4406C42.807 41.7449 38.8078 42.0288 34.6999 42.3263C34.5026 40.7578 34.319 39.2841 34.1286 37.8103C34.0742 37.8103 34.0265 37.8103 33.9721 37.8036C33.9517 38.1754 33.9313 38.554 33.9109 38.9258C33.5029 47.1397 33.0744 55.3535 32.6935 63.5742C32.401 69.8748 32.1766 76.1823 31.891 82.4897C31.8637 83.1387 32.0678 83.4565 32.7003 83.5849C33.258 83.6998 33.7885 83.9297 34.3394 84.0311C35.2372 84.2001 35.5908 84.8018 35.7405 85.5928C36.1009 87.5059 35.7541 87.9318 33.8157 87.9386C30.8232 87.9454 27.8306 87.9251 24.838 87.9792C23.9335 87.9927 23.4914 87.7223 23.471 86.8029C23.4506 85.7144 23.335 84.626 23.3554 83.5444C23.4778 76.8245 23.6342 70.0979 23.7771 63.3781C23.7839 62.959 23.7771 62.5331 23.505 62.0801C23.4234 62.2559 23.301 62.4317 23.2738 62.6209C22.3896 69.476 21.5122 76.3243 20.6621 83.1861C20.6281 83.4565 20.8389 83.8891 21.0769 84.0446C22.0019 84.6463 22.6344 86.7082 22.0223 87.6141C21.8659 87.844 21.383 87.9589 21.0497 87.9656C18.3973 87.9927 15.7448 87.9521 13.0923 87.9994C12.1809 88.0197 11.8816 87.6749 11.9157 86.8164C12.0245 84.4908 12.0857 82.1652 12.1945 79.8329C12.487 73.5322 12.793 67.2248 13.0991 60.9241C13.1195 60.4779 13.1739 60.0385 13.2147 59.5585C14.609 59.4571 15.942 59.4165 16.5677 57.8684C16.7581 57.4019 19.023 57.8549 19.7167 58.4295C21.3626 59.7883 23.0629 59.7072 24.7564 58.0509C23.7771 57.9157 22.9133 57.794 21.8863 57.6453C21.9475 56.7867 22.0087 55.9484 22.0699 55.0561H24.8517C24.2599 53.3727 21.8523 52.8049 20.8457 53.4809C19.6011 54.3124 18.37 54.211 17.4927 54.0623C16.6561 53.197 16.0644 52.602 15.4931 51.9801C15.3571 51.8246 15.2211 51.5947 15.2211 51.4055C15.2415 47.8833 15.2891 44.3544 15.3163 40.8322C15.3163 40.0615 15.7516 39.8114 16.4453 39.737C17.3839 39.6424 18.3156 39.4531 19.261 39.3652C19.9547 39.2976 20.322 39.0677 20.4036 38.2971C20.5328 37.1072 20.8593 35.9377 21.0021 34.7479C21.1042 33.9231 21.4034 33.6189 22.2876 33.6324C25.695 33.6865 29.1092 33.6527 32.5167 33.6527C32.7343 33.6527 32.952 33.6189 33.2512 33.5918C33.5233 30.4888 32.8295 27.6089 31.6937 24.7966C31.7889 24.7357 31.8773 24.6681 31.9726 24.6073V24.5938ZM22.8793 37.2695C23.7498 37.1208 24.498 37.0464 25.1917 36.8098C25.3073 36.7692 25.2733 35.7281 25.1645 35.7011C24.4436 35.5185 23.6818 35.4847 22.8793 35.3969V37.2695ZM32.1494 37.0802V35.5185H29.905V37.0802H32.1494Z" fill="#DFDFDF"/>
<path d="M87.6752 76.1822H95.0001V78.2779H35.6523V76.2092H42.8821C42.8821 71.4837 42.8889 66.8731 42.8821 62.2693C42.8821 60.5725 43.7186 59.2745 44.9225 58.0238C44.2491 57.7128 43.6506 57.4897 43.1065 57.1787C42.6848 56.9354 41.9163 57.0232 42.0727 56.1241C42.3312 54.6504 42.7665 54.0014 43.7935 53.954C45.0041 53.8999 46.2215 54.0081 47.4253 53.9067C47.9558 53.8594 48.5815 53.5957 48.942 53.2172C50.105 51.98 51.0912 50.5806 52.2814 49.384C52.8187 48.8499 53.6621 48.3835 54.4034 48.3226C61.7012 47.7548 69.0125 47.775 76.3171 48.3226C77.0516 48.3767 77.895 48.8702 78.4255 49.411C79.6429 50.6414 80.6699 52.0544 81.8329 53.3388C82.1186 53.6498 82.6354 53.8864 83.0639 53.9135C84.2746 53.9878 85.4852 53.9202 86.7026 53.9473C87.818 53.9743 88.9538 55.4616 88.641 56.4892C88.5798 56.692 88.2941 56.8678 88.0765 56.9759C87.3623 57.3207 86.6346 57.6249 85.7844 57.9967C86.1925 58.497 86.6414 58.8756 86.8522 59.3623C87.2399 60.2412 87.7364 61.1741 87.75 62.0868C87.8452 66.4405 87.7976 70.8009 87.7908 75.1546C87.7908 75.4521 87.7228 75.7428 87.6684 76.189L87.6752 76.1822ZM81.6901 56.9286C81.6901 56.9286 81.7037 56.7731 81.6425 56.6988C80.0306 54.7518 78.4323 52.8048 76.7796 50.8916C76.5483 50.6212 76.0722 50.4521 75.6914 50.4251C68.8085 49.9046 61.9188 49.8505 55.0291 50.4116C54.6755 50.4386 54.2062 50.54 54.0021 50.7767C52.295 52.7845 50.6423 54.8329 48.976 56.8678C48.9488 56.8948 49.0168 56.9962 48.9896 56.9218H81.6901V56.9286ZM78.4595 72.9643H52.2134V76.1011H78.4595V72.9643ZM50.3839 64.4597C50.3839 64.4597 50.3839 64.507 50.3839 64.5273C51.3701 64.5273 52.3562 64.5476 53.3356 64.5138C53.5941 64.507 53.9681 64.3786 54.077 64.1825C54.6279 63.2022 53.9001 61.7217 52.7371 61.5527C50.6423 61.2485 48.5271 61.0254 46.4255 60.8091C46.1739 60.782 45.7726 60.897 45.6434 61.0862C44.8613 62.2152 45.8066 64.169 47.2077 64.2974C48.2619 64.3921 49.3229 64.4124 50.3839 64.4664V64.4597ZM80.3162 64.507C80.3162 64.507 80.3162 64.4732 80.3162 64.4529C81.146 64.4124 81.9825 64.365 82.8123 64.3245C84.737 64.2298 85.2335 63.6484 85.1655 61.7082C85.1383 60.9713 84.8799 60.6941 84.1317 60.7888C82.1049 61.0457 80.0714 61.2688 78.0446 61.5257C77.7521 61.5595 77.4461 61.6812 77.208 61.8434C76.3851 62.4045 76.4123 63.2969 76.6163 64.0743C76.6775 64.3177 77.4665 64.4462 77.929 64.4867C78.7179 64.5543 79.5205 64.507 80.3094 64.507H80.3162Z" fill="#DFDFDF"/>
<path d="M16.7106 33.0441C16.3162 32.9765 15.9965 32.9157 15.4728 32.8278C14.9559 36.235 14.2758 39.5476 13.9969 42.8872C13.7589 45.7942 13.9969 48.7417 13.9901 51.6757C13.9901 52.3585 14.1466 52.7642 14.8403 53.0481C15.1871 53.1901 15.5748 53.7241 15.5884 54.0892C15.6224 55.1371 15.568 56.2052 15.3436 57.226C15.2552 57.6384 14.643 58.2536 14.2826 58.2468C12.6231 58.213 10.8887 58.2468 9.34486 57.7466C8.39269 57.4356 7.52893 56.7731 6.44753 56.8272C5.91023 56.8542 5.31852 56.9624 4.85603 57.2125C3.00609 58.2063 1.31938 57.8277 -0.0136719 55.9348H2.91087C2.91087 55.0289 3.23733 53.8999 2.82245 53.4537C2.36677 52.967 1.21736 53.1089 0.346795 52.967C1.19015 51.5 3.57739 51.1011 4.87643 52.1422C6.10746 53.1292 6.33871 53.2036 8.05942 53.0954C8.05942 52.7371 8.07303 52.3721 8.05942 52.0138C7.9302 49.2352 7.67855 46.4635 7.67855 43.685C7.67175 38.3104 7.95741 32.9495 9.18843 27.6899C9.87536 24.7626 11.3512 22.3154 14.1806 20.9295C14.575 20.7334 15.2484 20.6929 15.6156 20.8957C19.9344 23.3227 22.3353 27.0274 22.9814 32.0706C22.1584 32.0706 21.4103 32.1044 20.669 32.0571C20.0432 32.0165 19.7984 32.2667 19.71 32.8616C19.5127 34.1596 19.2135 35.444 19.0435 36.7488C18.9414 37.5398 18.6558 37.9657 17.7988 37.9792C17.1731 37.9927 16.5474 38.1279 15.7925 38.2293C16.1053 36.4243 16.3978 34.7815 16.697 33.0441H16.7106Z" fill="#DFDFDF"/>
<path d="M15.4865 10.2079C14.0923 6.28013 15.7178 2.48755 19.404 0.95294C21.6485 0.013246 24.0017 -0.250409 26.4093 0.24986C28.1913 0.621681 29.6127 1.51405 30.1296 3.32584C30.6601 5.19847 31.7211 6.08408 33.7275 5.7393C34.2784 5.64465 34.8769 5.67845 35.421 5.77986C35.9039 5.8745 36.7269 6.13816 36.7405 6.36125C36.7745 7.15222 36.5024 7.94994 35.489 8.07839C34.4756 8.20684 33.4622 8.30824 32.4421 8.41641C27.2187 8.98428 21.9885 9.5454 16.7652 10.1065C16.3571 10.1538 15.9422 10.1674 15.4797 10.2012L15.4865 10.2079Z" fill="#DFDFDF"/>
<path d="M15.9219 11.4385C20.7984 10.9112 25.6001 10.3907 30.395 9.87012C30.9187 14.9201 29.0279 17.942 24.7227 18.875C20.5875 19.7673 16.5544 16.3128 15.9219 11.4385Z" fill="#DFDFDF"/>
<path d="M27.9664 22.505C29.9863 25.3308 31.0677 28.4271 31.2242 31.956H25.103C24.5929 27.4401 22.6478 23.6002 19.0703 20.5918C22.0289 21.2273 24.4569 23.9652 27.9664 22.4982V22.505Z" fill="#DFDFDF"/>
</g>
<defs>
<clipPath id="clip0_4901_4624">
<rect width="95" height="88" fill="white"/>
</clipPath>
</defs>
</svg>
