<svg width="344" height="185" viewBox="0 0 344 185" fill="none" xmlns="http://www.w3.org/2000/svg">
<path d="M0.715948 69.2645C1.14841 63.2768 2.00318 57.35 3.62903 51.5396C6.064 42.8361 10.92 36.6522 20.2185 34.6124C23.6921 33.8502 26.8335 32.2295 29.5665 29.815C34.8714 25.1264 40.4706 20.8038 46.2689 16.728C54.2637 11.1076 62.8368 6.83179 72.4879 4.89205C80.7579 3.22959 89.1205 2.34202 97.5237 1.67729C105.53 1.04421 113.54 0.398473 121.56 0.15917C130.767 -0.115585 139.983 -0.0142926 149.202 0.292116C158.81 0.611187 168.369 1.34049 177.914 2.40279C189.383 3.67907 200.032 7.00272 209.556 13.807C218.424 20.1428 227.419 26.2951 235.935 33.1044C236.803 33.7983 237.582 34.0617 238.683 33.7299C243.809 32.1877 251.889 36.6104 254.272 41.2382C255.143 42.9298 255.528 44.7176 254.346 46.3383C253.415 47.6145 254.006 47.8779 255.102 48.1957C261.25 49.981 267.402 51.7498 273.531 53.5996C287.787 57.9046 301.952 62.4817 315.618 68.4465C324.104 72.15 331.359 77.4615 336.043 85.6054C344.245 99.8661 345.876 115.097 342.002 130.954C341.391 133.457 341.214 135.567 342.46 137.995C344.564 142.096 343.719 145.468 340.402 148.651C339.421 149.592 338.343 150.402 337.143 151.026C333.255 153.051 329.293 154.921 325.178 156.445C314.562 160.377 303.588 162.99 292.544 165.376C280.467 167.984 268.338 170.292 256.103 172.03C245.49 173.538 234.882 175.096 224.186 175.914C218.8 176.326 213.404 176.302 208.026 175.906C199.312 175.264 190.782 173.588 182.469 170.886C181.129 170.45 180.414 170.501 180.178 172.122C179.37 177.645 175.908 180.517 170.582 181.476C166.32 182.243 162.17 183.47 157.988 184.567C154.785 185.406 151.766 185.03 148.885 183.402C146.36 181.975 144.162 180.16 142.344 177.909C136.895 171.164 133.758 163.364 131.948 154.978C131.741 154.023 131.447 153.507 130.373 153.418C128.627 153.274 126.992 152.62 125.374 151.971C99.6771 141.645 73.9806 131.322 48.1243 121.401C45.9315 120.559 45.9353 120.575 44.8903 122.72C42.9766 126.645 40.4807 129.917 35.7998 130.708C32.8664 131.205 29.9229 131.647 27.0034 132.214C23.3637 132.922 20.3872 131.711 17.7582 129.295C15.412 127.139 13.6238 124.576 12.1552 121.772C8.87055 115.497 7.47171 108.719 6.81224 101.748C6.73996 100.985 6.72347 100.294 5.67593 100.232C4.1528 100.141 3.62649 99.076 3.39441 97.7504C3.10272 96.0854 2.95941 94.409 3.03043 92.725C3.07355 91.6956 2.77933 90.8992 1.97909 90.2104C0.566298 88.9975 -0.0120062 87.3958 0.0032123 85.5599C0.013358 84.438 0.00448051 83.315 0.00448051 82.1932C-0.0500526 77.8692 0.405236 73.5694 0.715948 69.2657V69.2645ZM145.165 67.3931C156.086 70.6674 167.045 73.8201 177.937 77.1805C191.799 81.4575 205.314 86.6867 218.605 92.4844C223.538 94.6369 228.753 96.1537 233.324 99.1305C239.68 103.272 243.901 109.075 246.742 115.985C246.953 116.501 247.074 117.057 247.197 117.602C247.669 119.697 247.061 120.808 245.007 121.448C241.754 122.459 238.359 122.639 235.007 122.714C226.809 122.895 218.596 123.103 210.424 122.124C205.573 121.543 200.722 120.916 196.087 119.258C188.319 116.483 183.648 111.083 182.288 102.914C181.36 97.3338 184.196 93.0276 189.719 91.7197C195.447 90.3636 201.219 90.8929 206.983 91.4753C208.308 91.6095 209.627 91.8108 210.991 91.8412C208.392 90.3915 205.599 89.4279 202.841 88.3973C185.676 81.9918 168.233 76.4486 150.567 71.5879C146.616 70.5015 142.711 69.2594 138.912 67.6818C134.534 65.8636 131.193 62.9236 128.804 58.8896C125.169 52.7513 121.956 46.3851 118.884 39.9556C115.399 32.66 111.854 25.4037 107.614 18.5057C106.416 16.5596 106.462 16.4571 108.728 16.1064C117.218 14.7921 125.754 13.8868 134.312 13.1347C148.371 11.9002 162.457 11.3912 176.56 11.6368C183.397 11.7559 190.264 11.6824 197.452 12.8511C195.966 11.809 194.618 11.3798 193.307 10.9075C191.988 10.4327 190.645 10.0035 189.285 9.66291C181.581 7.73203 173.724 6.85332 165.822 6.23543C153.324 5.25796 140.803 4.89331 128.278 5.0136C117.835 5.11362 107.404 5.73277 97.0138 6.87864C89.9841 7.65352 82.9417 8.30812 75.9171 9.12099C66.5336 10.2074 58.2611 14.1451 50.4983 19.2882C44.6823 23.1411 39.1643 27.3776 34.0534 32.1384C31.101 34.8885 27.7644 37.0017 23.8101 38.088C21.5933 38.697 19.417 39.4669 17.2522 40.2455C12.9999 41.7738 10.2884 44.7568 8.84138 49.0314C6.86678 54.8658 5.95113 60.9015 5.29293 66.9778C4.58526 73.5074 4.42547 80.0711 4.59287 86.6374C4.62331 87.8288 4.82115 89.0152 5.14835 90.2003C5.30814 87.5148 5.52754 84.8647 6.0678 82.2501C6.92385 78.106 8.1426 74.0759 10.3328 70.4331C13.9003 64.5037 19.5641 64.0416 24.1842 69.2265C26.9464 72.3273 28.7929 75.9839 30.4936 79.7216C33.7148 86.807 35.6983 94.2976 37.5245 101.817C38.1485 104.384 39.3685 105.76 41.91 106.602C47.4508 108.438 52.8826 110.607 58.341 112.69C59.5965 113.168 59.9935 113.091 59.7424 111.583C58.4272 103.715 57.7779 95.7726 57.7893 87.8085C57.8058 76.2802 58.71 64.8342 62.4512 53.8022C62.8368 52.6665 62.4043 52.2942 61.41 52.0385C56.2979 50.7267 51.1908 49.3948 46.0875 48.0501C43.3203 47.3208 40.5695 46.5244 37.7997 45.8065C36.5861 45.4912 35.8771 44.7252 35.4523 43.6097C34.5506 41.2344 34.1194 38.749 33.7262 36.2559C33.5918 35.4076 33.9089 34.6909 34.4643 34.1022C44.312 23.6779 54.932 14.4148 69.7777 12.0357C78.3026 10.6695 86.792 10.8759 95.0253 13.8931C98.2871 15.0884 100.84 17.175 102.851 20.0264C108.064 27.4144 111.766 35.5988 115.546 43.7414C118.217 49.4935 120.487 55.4166 122.879 61.2865C124.053 64.1695 124.226 66.9474 123.095 69.9368C119.593 79.1974 118.098 88.862 117.483 98.7088C116.742 110.56 117.293 122.355 118.557 134.141C118.651 135.014 119.044 135.454 119.807 135.707C120.874 136.062 121.951 136.39 122.993 136.805C124.189 137.281 124.566 136.828 124.406 135.682C123.882 131.938 124.004 128.167 124.17 124.422C124.459 117.882 125.56 111.486 128.495 105.532C130.657 101.146 133.599 97.4579 138.134 95.3257C143.509 92.7972 149.746 94.114 154.625 98.5784C161.141 104.541 165.208 112.05 168.284 120.145C171.968 129.845 174.266 139.879 174.888 150.258C174.953 151.328 175.417 151.725 176.377 151.904C184.712 153.45 193.044 155.01 201.374 156.583C202.598 156.815 203.303 156.516 203.797 155.232C204.897 152.378 206.6 149.923 208.906 147.823C211.74 145.242 215.185 145.006 218.671 144.906C228.106 144.633 237.496 143.765 246.891 142.927C248.904 142.747 250.925 142.656 252.943 142.535C253.733 142.489 254.512 142.563 255.277 142.794C255.873 142.974 256.28 143.334 256.368 143.942C256.465 144.606 255.993 144.983 255.482 145.24C254.142 145.914 252.669 146.053 251.213 145.991C249.972 145.938 249.395 146.411 249.092 147.587C248.616 149.438 247.859 151.197 246.947 152.88C245.278 155.962 242.795 158.099 239.306 158.695C231.546 160.02 223.708 160.731 215.839 160.721C207.834 160.71 199.98 159.263 192.156 157.686C186.542 156.556 180.914 155.497 175.302 154.354C174.324 154.155 173.999 154.27 174.059 155.359C174.182 157.599 174.212 159.846 174.178 162.09C174.16 163.234 174.588 163.759 175.685 164.125C184.72 167.134 193.985 169.083 203.399 170.457C214.856 172.129 226.233 171.318 237.634 169.841C249.996 168.24 262.337 166.537 274.583 164.202C288.491 161.551 302.246 158.243 315.884 154.449C321.9 152.775 327.83 150.863 333.425 148.05C334.575 147.471 335.704 146.818 336.748 146.068C339.449 144.13 340.012 141.705 338.651 138.672C338.248 137.773 337.84 137.629 337.001 138.161C335.202 139.304 333.405 140.472 331.51 141.441C329.437 142.504 328.536 141.925 328.195 139.637C327.812 137.072 327.916 134.49 327.821 131.914C327.752 130.06 328.473 128.784 330.039 127.91C332.442 126.571 334.812 125.164 337.272 123.932C339.024 123.054 339.753 121.893 339.765 119.859C339.797 114.12 339.629 108.424 338.309 102.805C338.043 101.674 337.855 101.339 336.787 102.26C334.002 104.662 330.953 106.653 327.276 107.452C324.789 107.992 323.514 107.149 323.08 104.676C322.493 101.331 322.726 97.9529 322.867 94.6002C323.013 91.1335 323.249 87.6591 323.818 84.2241C323.901 83.7277 324.021 83.2352 324.146 82.7465C325.05 79.1886 325.093 79.1164 321.884 77.3159C312.689 72.1551 302.887 68.3858 292.955 64.9317C280.432 60.5749 267.705 56.8689 254.96 53.2261C251.567 52.2563 248.164 52.8362 244.754 53.1438C239.556 53.6123 234.351 53.9997 229.15 54.4353C221.599 55.0684 214.046 55.6736 206.501 56.3649C197.95 57.1474 189.399 57.9463 180.86 58.858C171.709 59.8354 162.57 60.9395 153.429 62.012C148.356 62.607 143.314 63.4047 137.852 64.3923C140.389 65.8332 142.761 66.6739 145.168 67.3956L145.165 67.3931ZM240.142 43.1121C229.737 34.0908 218.656 25.9684 207.243 18.2727C204.384 16.3457 201.364 15.4796 197.943 15.3239C189.87 14.9554 181.81 14.3515 173.719 14.3147C161.809 14.2616 149.925 14.63 138.054 15.6353C129.779 16.3368 121.542 17.3155 113.321 18.4551C112.32 18.5943 111.127 18.5905 112.095 20.2138C117.11 28.6058 120.752 37.6942 125.333 46.3066C127.939 51.2054 130.717 56.0041 133.685 60.6939C134.367 61.7689 135.034 62.012 136.298 61.7334C142.987 60.2583 149.817 59.6645 156.581 58.644C167.01 57.0702 177.512 56.1218 187.998 55.038C194.747 54.3403 201.515 53.8111 208.275 53.2337C215.987 52.5753 223.697 51.8827 231.416 51.3269C236.51 50.9597 241.617 50.8103 246.717 50.552C247.085 50.533 247.508 50.6989 247.892 50.2456C245.598 47.5576 242.794 45.4127 240.143 43.1134L240.142 43.1121ZM62.5197 112.959C62.658 113.858 62.989 114.318 63.8463 114.64C77.3007 119.689 90.7425 124.77 104.187 129.849C107.548 131.119 110.891 132.437 114.263 133.672C115.862 134.259 116.189 133.975 115.972 132.29C114.811 123.26 114.411 114.189 114.691 105.099C115.066 92.9934 116.813 81.1017 120.785 69.6013C121.612 67.207 121.612 67.0816 119.254 66.4334C115.583 65.4242 112.036 63.8897 108.153 63.7441C105.503 63.644 102.905 64.1087 100.29 64.3936C97.6226 64.6848 95.0316 64.543 92.5814 63.2515C91.019 62.4273 89.7914 61.2941 89.2334 59.6392C88.8339 58.4566 88.1097 57.9755 86.9658 57.721C80.333 56.2522 73.6825 54.843 67.1703 52.8843C65.9426 52.5146 65.3783 53.1514 65.0105 54.1403C63.8514 57.2538 63.2591 60.5179 62.6136 63.7542C61.0727 71.4764 60.5654 79.3038 60.5413 88.0301C60.6656 95.8056 61.2033 104.409 62.5235 112.957L62.5197 112.959ZM78.3026 15.8582C74.4473 26.266 70.8113 36.7459 67.7384 47.4132C67.0003 49.9772 67.0561 50 69.6217 50.647C75.2792 52.0739 80.9469 53.4566 86.5904 54.9405C87.9487 55.2976 88.5384 55.038 88.7159 53.5958C89.0926 50.5406 90.9277 48.6414 93.8116 47.7538C100.092 45.8217 106.325 45.7141 112.33 48.6933C116.604 50.8141 118.103 57.3956 115.166 61.1826C114.169 62.4678 114.801 62.6222 115.815 62.8666C117.068 63.1692 118.322 63.4769 119.584 63.7403C119.942 63.815 120.386 64.1859 120.679 63.8036C120.979 63.4111 120.657 62.9552 120.495 62.5488C118.912 58.5959 117.32 54.6455 115.743 50.69C112.204 41.8156 107.683 33.4412 102.987 25.134C98.9796 18.0436 92.6347 15.239 85.0051 14.3882C83.7242 14.2451 82.4395 14.1248 81.1574 13.9944C79.5797 13.6779 78.8353 14.4186 78.3014 15.8582H78.3026ZM242.477 118.966C243.979 118.781 244.095 118.284 243.595 117.028C240.106 108.266 233.979 102.153 225.229 98.6455C218.795 96.0676 212.024 95.1231 205.181 94.5179C201.707 94.2102 198.231 94.1064 194.745 94.1608C193.385 94.1824 192.052 94.3685 190.737 94.6432C186.66 95.4953 184.829 98.2556 185.456 102.401C186.517 109.39 190.759 113.7 197.114 116.198C202.553 118.337 208.286 119.11 214.063 119.566C217.871 119.866 221.687 120.066 224.755 119.942C231.189 120.018 236.839 119.662 242.477 118.967V118.966ZM141.472 167.813C143.585 172.022 146.418 175.705 150.314 178.457C152.256 179.83 154.318 180.524 156.804 179.927C161.931 178.697 167.146 177.813 172.152 176.105C174.59 175.273 176.376 171.559 175.572 169.179C175.342 168.497 174.679 168.565 174.174 168.412C170.462 167.281 170.566 167.281 170.282 163.554C169.379 151.743 167.887 140.023 164.194 128.699C162.692 124.096 160.733 119.707 157.7 115.854C156.215 113.967 154.43 112.459 152.361 111.294C149.297 109.569 145.557 110.097 142.681 112.611C139.612 115.294 137.976 118.839 136.79 122.628C135.253 127.54 134.736 132.596 134.753 139.745C134.908 148.218 136.723 158.353 141.474 167.812L141.472 167.813ZM49.6778 23.6969C45.6868 26.6319 42.1332 30.0644 38.5074 33.4184C36.5632 35.2177 36.4098 37.2359 37.0515 39.6998C37.6716 42.0802 38.8143 43.2792 41.3089 43.8465C48.421 45.4646 55.4672 47.3702 62.5235 49.2264C63.6142 49.5138 64.1583 49.415 64.4753 48.2312C67.3947 37.3347 71.1639 26.7192 75.2019 16.1937C75.9209 14.3173 75.8765 14.3008 73.8347 14.3895C64.7277 14.7693 56.8813 18.3994 49.6778 23.6969ZM37.3559 112.26C53.4419 118.433 69.4822 124.724 85.5352 130.982C97.0925 135.487 108.652 139.985 120.206 144.499C121.616 145.05 123.01 145.65 124.383 146.29C125.518 146.819 125.966 146.55 125.746 145.297C125.727 145.187 125.683 145.077 125.683 144.968C125.705 141.921 123.943 140.601 121.215 139.63C103.338 133.265 85.6722 126.338 67.9832 119.475C57.6194 115.454 47.0805 111.916 36.6862 107.982C34.9602 107.329 34.8816 107.404 34.9348 109.277C34.8334 110.783 35.6577 111.608 37.3546 112.259L37.3559 112.26ZM162.322 112.842C159.764 107.863 156.574 103.33 152.036 99.9104C146.969 96.0917 141.278 95.7296 136.893 99.0102C134.486 100.811 132.605 103.111 131.205 105.795C128.615 110.761 127.583 116.134 127.01 121.626C126.147 129.895 126.899 138.081 128.435 146.21C128.587 147.014 128.34 148.589 129.701 148.315C130.692 148.117 130.171 146.762 130.044 145.94C128.539 136.186 129.088 126.606 132.441 117.262C133.335 114.769 134.507 112.386 136.137 110.302C141.222 103.801 148.025 103.133 154.539 108.328C160.171 112.821 163.589 118.787 166.143 125.352C169.258 133.353 170.842 141.705 171.817 150.193C171.841 150.407 171.895 150.616 171.936 150.829C170.862 137.644 168.443 124.756 162.32 112.839L162.322 112.842ZM28.9464 127.088C30.9844 126.695 33.0503 126.425 35.068 125.95C38.6634 125.104 40.2132 122.221 41.5296 119.174C41.9265 118.256 41.0311 118.173 40.5429 117.945C38.7116 117.092 36.8613 116.279 35.0008 115.492C33.8607 115.009 33.1987 114.199 33.0224 112.981C32.354 108.381 31.8138 103.757 30.9844 99.1849C29.8024 92.6668 28.3503 86.2081 24.6877 80.5066C24.1069 79.6013 23.4055 78.8037 22.6307 78.0668C20.3073 75.8573 18.4253 75.8611 16.0309 78.0301C14.3086 79.59 13.3042 81.5905 12.5928 83.7303C10.0297 91.4373 10.1946 99.2634 11.7431 107.127C11.0126 103.185 11.0493 99.2001 11.1102 95.2168C11.1673 91.4677 11.9422 87.8769 13.5921 84.4976C13.9104 83.8467 14.2909 83.2086 14.7373 82.6401C16.6802 80.1648 19.4119 79.9774 21.7175 82.0615C24.2147 84.319 25.2723 87.3439 26.1652 90.4155C28.6597 98.995 29.4587 107.683 27.5019 116.497C27.1239 118.201 26.4924 119.83 25.63 121.345C23.6034 124.904 20.9452 125.264 18.0626 122.416C17.8381 122.195 17.6022 121.982 17.086 121.498C20.2667 126.777 23.3738 128.168 28.9451 127.091L28.9464 127.088ZM16.4151 114.334C17.1228 116.18 18.1044 117.886 19.379 119.393C20.9693 121.272 22.6053 121.001 23.6592 118.758C25.2153 115.45 25.7746 111.9 25.9026 108.313C26.1385 101.703 25.2267 95.2371 22.8881 89.0114C22.3516 87.5832 21.6123 86.2664 20.5495 85.1547C19.0721 83.6112 17.6719 83.7265 16.3784 85.4636C15.3549 86.8374 14.7424 88.3796 14.3543 90.0344C13.724 92.7263 13.5477 95.4574 13.5984 98.2125C13.6504 103.739 14.4241 109.144 16.4151 114.336V114.334ZM237.234 155.696C241.968 154.853 244.342 151.839 245.646 147.566C245.96 146.535 245.496 146.383 244.659 146.435C235.593 146.99 226.529 147.57 217.461 148.079C212.466 148.358 209.36 151.157 207.191 155.373C206.528 156.663 206.812 157.248 208.256 157.273C210.556 157.313 212.831 157.833 215.147 157.623C222.536 157.322 229.919 156.999 237.234 155.696ZM108.586 50.4317C104.495 49.4657 100.372 49.3644 96.2681 50.395C93.1496 51.1788 91.4197 53.2135 91.6531 55.7318C91.9575 59.0276 94.0056 61.2637 97.3043 61.2561C101.945 61.2459 106.595 60.9585 111.178 60.133C113.159 59.7759 113.43 59.191 113.38 56.5067C113.314 52.9033 112.071 51.2547 108.586 50.4317ZM325.725 102.872C325.801 104.353 326.489 104.861 327.839 104.288C330.892 102.992 333.833 101.491 336.038 98.8747C336.616 98.1884 336.714 97.4971 336.466 96.6957C334.872 91.5462 332.421 86.8855 328.672 82.9465C327.794 82.0248 327.39 82.1729 327.028 83.3365C326.425 85.2788 326.165 87.2856 326.063 89.2836C325.908 92.2996 325.49 95.3067 325.709 98.1619C325.709 99.8496 325.648 101.365 325.727 102.873L325.725 102.872ZM331.495 137.504C332.397 137.913 333.3 136.636 334.183 136.082C337.201 134.188 338.295 131.173 338.885 127.885C338.941 127.576 338.952 127.135 338.777 126.936C338.52 126.643 338.163 126.943 337.885 127.112C335.923 128.314 333.945 129.492 332.014 130.741C330.962 131.421 330.999 131.478 331.04 134.706C331.305 135.555 330.482 137.044 331.495 137.504ZM22.1703 70.9662C18.5254 67.1475 15.0226 67.6362 12.4342 72.2285C12.2706 72.5185 12.1324 72.8236 11.8496 73.3858C14.7069 71.7221 17.4335 71.2637 20.2756 72.7692C22.93 74.1759 24.8843 76.298 26.5507 78.7264C26.9908 79.3684 27.3738 80.0508 27.7834 80.7143C26.2704 77.2184 24.8031 73.7251 22.1703 70.9662ZM250.383 45.5748C250.21 42.2296 246.729 39.1756 242.052 38.1893C244.582 40.8305 247.372 43.1666 250.383 45.5748ZM34.0687 102.838C34.1676 103.32 34.2487 104.162 35.0173 103.924C35.7047 103.713 35.2265 103.044 35.1111 102.62C34.146 99.0798 33.1441 95.5498 32.1537 92.0172C32.0826 92.0362 32.0116 92.0552 31.9406 92.0742C32.6432 95.6637 33.3318 99.2558 34.0687 102.839V102.838Z" fill="white"/>
</svg>
