<svg width="29" height="27" viewBox="0 0 29 27" fill="none" xmlns="http://www.w3.org/2000/svg">
<path d="M11.0865 19.365H7.81682C7.77502 19.365 7.73787 19.342 7.71929 19.3098L5.60144 15.9288L3.48358 19.3098C3.46036 19.342 3.42321 19.365 3.38605 19.365H0.116381C0.0513595 19.365 -0.00437349 19.3144 0.000270927 19.2454C0.000270927 19.2224 0.00955974 19.1994 0.0188486 19.181L3.94802 13.4034L0.0652927 7.81901C0.0281374 7.76381 0.0420706 7.69021 0.0978036 7.65801C0.116381 7.64421 0.139603 7.63961 0.16747 7.63961H3.45572C3.49752 7.63961 3.53467 7.66261 3.55325 7.69481L5.60144 10.924L7.63569 7.71781C7.66356 7.67181 7.71464 7.64421 7.77038 7.64421H11.04C11.1051 7.64421 11.1608 7.69481 11.1608 7.75921C11.1608 7.78221 11.1515 7.80521 11.1376 7.82821L7.25949 13.4126L11.1887 19.1902C11.2258 19.2454 11.2119 19.319 11.1562 19.3512C11.1329 19.3558 11.1097 19.365 11.0865 19.365ZM17.3936 2.00001C14.1564 1.99541 11.0679 3.33401 8.87575 5.68921C8.85253 5.71221 8.85717 5.75361 8.88504 5.77201C8.89433 5.78121 8.90826 5.78581 8.92219 5.78581H9.43772C9.46559 5.78581 9.49346 5.77661 9.51668 5.75821C11.4348 4.10681 13.8964 3.19601 16.4369 3.20521C22.2331 3.20521 26.9286 7.81441 26.9286 13.5C26.9286 19.1856 22.2284 23.7948 16.4322 23.7948C13.8871 23.7994 11.4302 22.8932 9.51203 21.2372C9.48881 21.2188 9.46559 21.2096 9.43308 21.2096H8.91755C8.88504 21.2096 8.85717 21.2372 8.85717 21.2694C8.85717 21.2832 8.86182 21.297 8.8711 21.3062C11.0633 23.6614 14.1565 25 17.389 25C23.7983 25 29 19.8526 29 13.5C29 7.14741 23.8075 2.00001 17.3936 2.00001ZM21.9962 14.5442H13.2508C13.3297 15.8598 14.5001 16.9914 16.1953 16.9914C17.5051 16.9914 18.3364 16.4762 18.8427 15.685C18.8752 15.6344 18.9402 15.616 18.9959 15.6436L21.2067 16.7798C21.267 16.8074 21.2903 16.881 21.2578 16.9362C21.2578 16.9408 21.2531 16.9454 21.2531 16.9454C20.1988 18.5232 18.3922 19.5628 16.1768 19.5628H16.1628C12.6563 19.5628 10.2598 17.0236 10.2598 13.5C10.2598 9.97641 12.6609 7.43721 16.1628 7.43721C19.6647 7.43721 22.1913 10.1512 22.1913 13.5C22.1913 13.8082 22.1681 14.1118 22.1216 14.4154C22.1123 14.4752 22.0705 14.5442 21.9962 14.5442ZM19.2514 12.166C19.0702 11.4208 18.1832 10.004 16.3068 10.004C14.5001 10.004 13.5713 11.1264 13.353 12.166H19.2514Z" fill="#495353"/>
</svg>
