<svg width="24" height="24" viewBox="0 0 24 24" fill="none" xmlns="http://www.w3.org/2000/svg">
<path fill-rule="evenodd" clip-rule="evenodd" d="M12 22C6.47715 22 2 17.5228 2 12C2 6.47715 6.47715 2 12 2C17.5228 2 22 6.47715 22 12C22 17.5228 17.5228 22 12 22ZM12 20.9474C16.9415 20.9474 20.9474 16.9415 20.9474 12C20.9474 7.05851 16.9415 3.05263 12 3.05263C7.05851 3.05263 3.05263 7.05851 3.05263 12C3.05263 16.9415 7.05851 20.9474 12 20.9474ZM12 15.6842C9.96527 15.6842 8.31579 14.0347 8.31579 12C8.31579 9.96527 9.96527 8.31579 12 8.31579C14.0347 8.31579 15.6842 9.96527 15.6842 12C15.6842 14.0347 14.0347 15.6842 12 15.6842ZM12 14.6316C13.4534 14.6316 14.6316 13.4534 14.6316 12C14.6316 10.5466 13.4534 9.36842 12 9.36842C10.5466 9.36842 9.36842 10.5466 9.36842 12C9.36842 13.4534 10.5466 14.6316 12 14.6316ZM12 7.26316C11.128 7.26316 10.4211 6.55624 10.4211 5.68421C10.4211 4.81218 11.128 4.10526 12 4.10526C12.872 4.10526 13.5789 4.81218 13.5789 5.68421C13.5789 6.55624 12.872 7.26316 12 7.26316ZM15.3495 6.41758C14.7328 7.0342 14.7328 8.03393 15.3495 8.65055C15.9661 9.26716 16.9658 9.26716 17.5824 8.65055C18.199 8.03393 18.199 7.0342 17.5824 6.41758C16.9658 5.80096 15.9661 5.80096 15.3495 6.41758ZM16.7368 12C16.7368 11.128 17.4438 10.4211 18.3158 10.4211C19.1878 10.4211 19.8947 11.128 19.8947 12C19.8947 12.872 19.1878 13.5789 18.3158 13.5789C17.4438 13.5789 16.7368 12.872 16.7368 12ZM17.5824 15.3495C16.9658 14.7328 15.9661 14.7328 15.3495 15.3495C14.7328 15.9661 14.7328 16.9658 15.3495 17.5824C15.9661 18.199 16.9658 18.199 17.5824 17.5824C18.199 16.9658 18.199 15.9661 17.5824 15.3495ZM12 16.7368C12.872 16.7368 13.5789 17.4438 13.5789 18.3158C13.5789 19.1878 12.872 19.8947 12 19.8947C11.128 19.8947 10.4211 19.1878 10.4211 18.3158C10.4211 17.4438 11.128 16.7368 12 16.7368ZM8.65055 17.5824C9.26716 16.9658 9.26716 15.9661 8.65055 15.3495C8.03393 14.7328 7.0342 14.7328 6.41758 15.3495C5.80096 15.9661 5.80096 16.9658 6.41758 17.5824C7.0342 18.199 8.03393 18.199 8.65055 17.5824ZM7.26316 12C7.26316 12.872 6.55624 13.5789 5.68421 13.5789C4.81218 13.5789 4.10526 12.872 4.10526 12C4.10526 11.128 4.81218 10.4211 5.68421 10.4211C6.55624 10.4211 7.26316 11.128 7.26316 12ZM6.41758 8.65055C7.0342 9.26716 8.03393 9.26716 8.65055 8.65055C9.26716 8.03393 9.26716 7.0342 8.65055 6.41758C8.03393 5.80096 7.0342 5.80096 6.41758 6.41758C5.80096 7.0342 5.80096 8.03393 6.41758 8.65055Z" fill="#184460"/>
</svg>
