<svg width="24" height="24" viewBox="0 0 24 24" fill="none" xmlns="http://www.w3.org/2000/svg">
<path fill-rule="evenodd" clip-rule="evenodd" d="M19.4597 11.9926C19.5731 11.9872 19.6768 11.9447 19.7623 11.8745L19.7621 11.9753C19.7603 12.562 19.7595 13.1678 19.7655 13.7641C19.7698 14.2204 19.5778 14.5246 19.1422 14.7484C18.7014 14.9757 18.1264 15.2825 17.5797 15.6471C16.879 16.1181 16.2583 16.7395 15.684 17.5466L15.6808 17.5512C15.5344 17.7574 15.3687 17.9909 15.2209 18.231C14.9996 18.5853 14.6828 18.7582 14.2515 18.7582H14.2481C13.9717 18.7573 13.6954 18.7573 13.4182 18.7573C13.1107 18.7576 12.8032 18.7581 12.4957 18.7586C11.8795 18.7595 11.2625 18.7605 10.6453 18.7599L9.23461 18.76C7.82268 18.7602 6.40857 18.7603 4.99445 18.759C4.46329 18.759 4.23601 18.5318 4.23601 18.0012C4.2352 15.9567 4.23516 13.9131 4.23515 11.8695C4.27986 11.9051 4.32983 11.9335 4.38411 11.9529C4.49486 11.9926 4.61793 11.9963 4.72376 11.9963C8.72782 11.9982 14.6123 11.9982 18.6183 11.9982H18.6245H18.6319C18.7787 11.9991 18.9232 12 19.0733 12C19.2012 12 19.3309 11.9991 19.4597 11.9926ZM19.522 10.6961C19.6088 10.7126 19.688 10.7501 19.7558 10.8034C19.7522 10.7678 19.7472 10.7335 19.7405 10.7006C19.614 10.0698 19.3316 9.56076 18.8779 9.14509C18.0324 8.36899 17.1769 7.57517 16.3463 6.80437L16.1997 6.66836C16.0222 6.50383 15.8448 6.33923 15.6675 6.17464C15.2505 5.78768 14.8337 5.4008 14.4151 5.01519C14.0631 4.68946 13.6672 4.46602 13.2323 4.34666C13.2321 6.08356 13.2333 10.6749 13.2333 10.6749H13.4073C15.0407 10.6749 17.6162 10.6758 19.2496 10.6767C19.3325 10.6767 19.4301 10.6786 19.522 10.6961ZM12.5022 3.00858C12.521 3.00869 12.5398 3.00891 12.5585 3.00925C12.6348 2.99423 12.7096 2.99753 12.7822 3.01895C13.6973 3.08204 14.5074 3.43037 15.1925 4.05682C16.8092 5.53197 18.3726 6.98465 19.8404 8.37252C20.1365 8.65424 20.3621 9.02238 20.5609 9.34731C20.813 9.75816 20.9107 10.2448 20.9972 10.6753L20.9991 10.6851L21 10.6937V13.9948C20.9961 14.02 20.9922 14.038 20.9883 14.056L20.9871 14.0614C20.9793 14.0977 20.9725 14.134 20.9673 14.1711C20.8743 14.8391 20.5463 15.3455 19.9893 15.6748C19.7801 15.7984 19.5658 15.909 19.3084 16.0378C18.673 16.3523 18.085 16.7619 17.5608 17.258C17.0528 17.7367 16.6551 18.2984 16.3013 18.8334C15.9983 19.2922 15.7021 19.5774 15.3371 19.7606C14.9247 19.9663 14.4771 19.9957 14.0923 19.9965C12.2405 19.9991 10.6066 20 9.10431 20C7.60207 20 6.23326 19.9991 4.91009 19.9965C3.80385 19.994 3.00151 19.1782 3.00065 18.0582C2.99978 13.6863 2.99978 9.31447 3.00065 4.94347C3.00151 3.8209 3.8116 3.00512 4.92902 3.00426L6.08433 3.00253L6.38587 3.00215C8.39562 2.99964 10.4641 2.99706 12.5022 3.00858ZM12.0569 10.4736C12.0569 8.98035 12.0569 6.02638 12.0563 4.2435C11.1139 4.24176 10.1708 4.24176 9.23172 4.24176C7.84139 4.24262 6.41319 4.24349 5.0065 4.23571H4.99962C4.76029 4.23571 4.56229 4.30743 4.42885 4.44225C4.29541 4.57619 4.2274 4.76631 4.22913 5.00569C4.24032 6.5759 4.2386 8.17289 4.23687 9.71717C4.23635 10.081 4.23582 10.4449 4.23549 10.8087C4.30521 10.7518 4.38754 10.7123 4.47846 10.6952C4.56788 10.6795 4.66223 10.6767 4.75002 10.6767C6.80599 10.6758 9.80315 10.6758 11.8591 10.6758H12.0569V10.4736ZM7.74091 13.0006C7.93876 12.9999 8.13661 12.9992 8.33355 13.002C8.72119 13.0076 8.99535 13.2073 8.99989 13.4881C9.00625 13.7751 8.73481 13.9881 8.35625 13.9937C8.09752 13.9979 7.83697 14 7.57461 14C7.25869 14 6.94095 13.9972 6.62503 13.9916C6.44982 13.9881 6.28914 13.9337 6.17203 13.8394C6.05492 13.7437 5.9941 13.618 6.00045 13.4846C6.01135 13.2115 6.28732 13.009 6.6559 13.0027C6.85108 12.9992 7.0508 12.9999 7.24598 13.0013C7.28854 13.0013 7.33132 13.0015 7.37421 13.0017C7.41733 13.0018 7.46057 13.002 7.5038 13.002L7.74091 13.0006Z" fill="#184460"/>
</svg>
