<svg width="28" height="28" viewBox="0 0 28 28" fill="none" xmlns="http://www.w3.org/2000/svg">
<path fill-rule="evenodd" clip-rule="evenodd" d="M23.1275 11.8319C23.2005 11.7579 23.2555 11.6719 23.2935 11.5769C23.3305 11.4839 23.3485 11.3859 23.3485 11.2839C23.3485 11.1869 23.3315 11.0919 23.2975 11.0029C23.2635 10.9109 23.2115 10.8279 23.1465 10.7559L23.1435 10.7529C23.0685 10.6719 22.9785 10.6079 22.8775 10.5639C22.7515 10.5089 22.6115 10.4889 22.4725 10.5069C22.3245 10.5219 22.1695 10.4719 22.0625 10.3649L17.9725 6.27593C17.8645 6.16693 17.8135 6.01692 17.8325 5.86492C17.8355 5.83592 17.8375 5.80392 17.8375 5.77192C17.8375 5.66492 17.8155 5.55693 17.7735 5.46093C17.7295 5.35893 17.6655 5.26792 17.5815 5.19092C17.5095 5.12592 17.4265 5.07492 17.3345 5.03892C17.1515 4.97092 16.9415 4.97192 16.7605 5.04492C16.6655 5.08192 16.5795 5.13792 16.5055 5.20992C16.4285 5.28492 16.3695 5.37293 16.3275 5.47193C16.2895 5.56593 16.2695 5.66693 16.2695 5.77093C16.2695 5.89492 16.2985 6.01892 16.3555 6.12892C16.4545 6.32092 16.4175 6.55193 16.2655 6.70493L14.9175 8.05293C14.7625 8.20493 14.5315 8.24192 14.3405 8.14292C14.1425 8.03992 13.8955 8.02992 13.6875 8.11492C13.5905 8.15392 13.5035 8.21092 13.4285 8.28692C13.3535 8.36192 13.2955 8.44893 13.2565 8.54493C13.2185 8.63793 13.1995 8.73593 13.1995 8.83593C13.1995 8.96593 13.2285 9.08792 13.2855 9.19893C13.3835 9.39092 13.3475 9.62192 13.1945 9.77492L11.8465 11.1229C11.6935 11.2759 11.4625 11.3129 11.2705 11.2129C11.0715 11.1119 10.8275 11.0989 10.6175 11.1849C10.5205 11.2239 10.4335 11.2819 10.3585 11.3569C10.2835 11.4319 10.2255 11.5189 10.1865 11.6149C10.1475 11.7089 10.1285 11.8069 10.1285 11.9069C10.1285 12.0339 10.1585 12.1589 10.2145 12.2689C10.3135 12.4619 10.2765 12.6929 10.1245 12.8449L8.77649 14.1929C8.62249 14.3459 8.39249 14.3809 8.19949 14.2829C8.00449 14.1839 7.75649 14.1689 7.54649 14.2549C7.45049 14.2939 7.36349 14.3519 7.28849 14.4269C7.21249 14.5029 7.15549 14.5899 7.11649 14.6859C7.07749 14.7809 7.05849 14.8809 7.05849 14.9829C7.05849 15.1069 7.08849 15.2289 7.14449 15.3389C7.24349 15.5309 7.20749 15.7619 7.05449 15.9149L5.70649 17.2639C5.55349 17.4169 5.32149 17.4519 5.12949 17.3529C4.92949 17.2499 4.68349 17.2399 4.47249 17.3269C4.37549 17.3669 4.28749 17.4259 4.21149 17.5039C4.14049 17.5769 4.08449 17.6629 4.04649 17.7579C4.00949 17.8509 3.99049 17.9509 3.99049 18.0529C3.99049 18.1499 4.00749 18.2439 4.04149 18.3329C4.07549 18.4239 4.12649 18.5069 4.19249 18.5789C4.26949 18.6629 4.35949 18.7269 4.46149 18.7719C4.58949 18.8269 4.72949 18.8459 4.86949 18.8299C4.88949 18.8269 4.90949 18.8259 4.92949 18.8259C5.05749 18.8259 5.18249 18.8769 5.27649 18.9709L9.36649 23.0609C9.47449 23.1689 9.52649 23.3179 9.50849 23.4699C9.50449 23.5029 9.50249 23.5339 9.50249 23.5659C9.50249 23.6729 9.52349 23.7779 9.56549 23.8759C9.60949 23.9769 9.67449 24.0679 9.75849 24.1449C9.83049 24.2109 9.91349 24.2619 10.0045 24.2969C10.1865 24.3659 10.3965 24.3649 10.5785 24.2909C10.6745 24.2529 10.7605 24.1979 10.8335 24.1259C10.9115 24.0509 10.9705 23.9629 11.0105 23.8649C11.0505 23.7689 11.0695 23.6689 11.0695 23.5649C11.0695 23.4409 11.0405 23.3169 10.9835 23.2079C10.8855 23.0149 10.9215 22.7839 11.0745 22.6319L12.4225 21.2829C12.5755 21.1309 12.8075 21.0939 12.9985 21.1929C13.1985 21.2959 13.4415 21.3079 13.6515 21.2219C13.7485 21.1819 13.8355 21.1239 13.9115 21.0489C13.9855 20.9739 14.0435 20.8869 14.0825 20.7899C14.1215 20.6969 14.1405 20.5979 14.1405 20.4949C14.1405 20.3709 14.1105 20.2469 14.0545 20.1379C13.9555 19.9459 13.9915 19.7139 14.1455 19.5609L15.4925 18.2129C15.6455 18.0599 15.8765 18.0239 16.0685 18.1229C16.2685 18.2239 16.5115 18.2369 16.7215 18.1509C16.8185 18.1119 16.9055 18.0549 16.9805 17.9789C17.0555 17.9039 17.1135 17.8169 17.1525 17.7199C17.1915 17.6259 17.2105 17.5269 17.2105 17.4249C17.2105 17.3009 17.1805 17.1769 17.1245 17.0679C17.0255 16.8749 17.0625 16.6439 17.2145 16.4909L18.5625 15.1429C18.7165 14.9899 18.9475 14.9549 19.1395 15.0529C19.3365 15.1559 19.5835 15.1649 19.7915 15.0809C19.8885 15.0419 19.9765 14.9839 20.0505 14.9089C20.1255 14.8339 20.1835 14.7469 20.2235 14.6489C20.2615 14.5559 20.2805 14.4569 20.2805 14.3549C20.2805 14.2299 20.2515 14.1059 20.1945 13.9969C20.0955 13.8049 20.1325 13.5739 20.2845 13.4209L21.6325 12.0729C21.7865 11.9199 22.0175 11.8839 22.2095 11.9829C22.4095 12.0849 22.6585 12.0949 22.8655 12.0099C22.9645 11.9689 23.0525 11.9089 23.1275 11.8319ZM23.8765 10.0879C24.0275 10.2529 24.1445 10.4429 24.2235 10.6519C24.2995 10.8539 24.3385 11.0659 24.3385 11.2839C24.3385 11.5099 24.2965 11.7309 24.2135 11.9409C24.1275 12.1599 24.0005 12.3549 23.8365 12.5229C23.6675 12.6979 23.4675 12.8319 23.2445 12.9249C22.8855 13.0719 22.4825 13.0979 22.1085 12.9979L21.2105 13.8959C21.2505 14.0459 21.2705 14.1999 21.2705 14.3549C21.2705 14.5859 21.2265 14.8099 21.1405 15.0219C21.0515 15.2419 20.9205 15.4389 20.7515 15.6089C20.5815 15.7789 20.3835 15.9099 20.1645 15.9989C19.8085 16.1429 19.4085 16.1669 19.0385 16.0679L18.1395 16.9669C18.1805 17.1169 18.2005 17.2709 18.2005 17.4249C18.2005 17.6549 18.1565 17.8799 18.0695 18.0929C17.9815 18.3119 17.8505 18.5099 17.6815 18.6789C17.5115 18.8479 17.3145 18.9789 17.0935 19.0689C16.7355 19.2139 16.3385 19.2389 15.9675 19.1379L15.0695 20.0359C15.1095 20.1859 15.1305 20.3399 15.1305 20.4949C15.1305 20.7249 15.0865 20.9499 15.0005 21.1619C14.9105 21.3829 14.7795 21.5799 14.6105 21.7489C14.4415 21.9189 14.2435 22.0499 14.0235 22.1389C13.6675 22.2839 13.2685 22.3079 12.8975 22.2079L11.9995 23.1069C12.0395 23.2569 12.0605 23.4099 12.0605 23.5649C12.0605 23.7989 12.0145 24.0259 11.9265 24.2419C11.8345 24.4659 11.6985 24.6649 11.5245 24.8349C11.3565 24.9979 11.1615 25.1249 10.9435 25.2119C10.7345 25.2949 10.5125 25.3379 10.2855 25.3379C10.0695 25.3379 9.85749 25.2989 9.65549 25.2229C9.44449 25.1429 9.25449 25.0259 9.08949 24.8749C8.90249 24.7029 8.75649 24.4989 8.65749 24.2679C8.56649 24.0579 8.51849 23.8359 8.51249 23.6069L4.72849 19.8229C4.47849 19.8139 4.26849 19.7659 4.06949 19.6809C3.83749 19.5809 3.63349 19.4349 3.46149 19.2469C3.31049 19.0809 3.19349 18.8909 3.11549 18.6829C3.03949 18.4799 3.00049 18.2679 3.00049 18.0529C3.00049 17.8259 3.04249 17.6039 3.12649 17.3929C3.21349 17.1749 3.34049 16.9789 3.50349 16.8119C3.67449 16.6379 3.87349 16.5029 4.09649 16.4109C4.45549 16.2639 4.85549 16.2369 5.23149 16.3379L6.12949 15.4399C6.08849 15.2899 6.06849 15.1369 6.06849 14.9829C6.06849 14.7519 6.11249 14.5279 6.19849 14.3149C6.28749 14.0949 6.41849 13.8959 6.58749 13.7269C6.75649 13.5579 6.95349 13.4279 7.17149 13.3379C7.53349 13.1919 7.93149 13.1689 8.30149 13.2679L9.19949 12.3699C9.15949 12.2189 9.13849 12.0639 9.13849 11.9069C9.13849 11.6779 9.18349 11.4529 9.27049 11.2409C9.35849 11.0219 9.48949 10.8259 9.65849 10.6569C9.82749 10.4879 10.0255 10.3569 10.2455 10.2669C10.6015 10.1219 10.9965 10.0969 11.3715 10.1979L12.2705 9.29992C12.2295 9.14892 12.2095 8.99393 12.2095 8.83593C12.2095 8.60693 12.2525 8.38293 12.3395 8.16993C12.4295 7.95193 12.5605 7.75592 12.7285 7.58693C12.8975 7.41793 13.0945 7.28593 13.3155 7.19693C13.6705 7.05393 14.0685 7.02793 14.4415 7.12792L15.3395 6.22892C15.2995 6.07892 15.2795 5.92593 15.2795 5.77093C15.2795 5.53593 15.3245 5.30792 15.4135 5.09392C15.5045 4.87093 15.6395 4.67193 15.8145 4.50192C15.9815 4.33792 16.1775 4.21092 16.3955 4.12392C16.8075 3.96192 17.2725 3.95892 17.6855 4.11392C17.8945 4.19292 18.0845 4.30893 18.2505 4.46093C18.4375 4.63293 18.5835 4.83692 18.6825 5.06892C18.7725 5.27992 18.8215 5.50092 18.8265 5.72892L22.6105 9.51293C22.8605 9.52192 23.0705 9.56992 23.2695 9.65492C23.5015 9.75492 23.7055 9.90093 23.8765 10.0879ZM13.0835 16.6218C13.0355 16.7478 12.9635 16.8628 12.8725 16.9608C12.7685 17.0708 12.6475 17.1548 12.5135 17.2128C12.2505 17.3228 11.9495 17.3228 11.6865 17.2128C11.5505 17.1548 11.4295 17.0698 11.3275 16.9608C11.2345 16.8628 11.1635 16.7478 11.1155 16.6218C11.0675 16.4978 11.0435 16.3668 11.0435 16.2328C11.0435 16.1008 11.0675 15.9738 11.1155 15.8518C11.1635 15.7268 11.2345 15.6138 11.3265 15.5158C11.4295 15.4068 11.5505 15.3228 11.6865 15.2648C11.8175 15.2088 11.9575 15.1808 12.1005 15.1808C12.2435 15.1808 12.3815 15.2088 12.5125 15.2648C12.6485 15.3218 12.7695 15.4068 12.8715 15.5158L12.8745 15.5188C12.9645 15.6158 13.0355 15.7278 13.0835 15.8518C13.1305 15.9748 13.1545 16.1018 13.1545 16.2328C13.1545 16.3668 13.1305 16.4978 13.0835 16.6218ZM13.5935 14.8388C13.3955 14.6278 13.1625 14.4648 12.8995 14.3528C12.3925 14.1378 11.8105 14.1378 11.3005 14.3528C11.0365 14.4648 10.8025 14.6278 10.6045 14.8388C10.4265 15.0288 10.2875 15.2488 10.1925 15.4938C10.1005 15.7298 10.0535 15.9788 10.0535 16.2328C10.0535 16.4888 10.0995 16.7388 10.1895 16.9748C10.2845 17.2218 10.4235 17.4448 10.6045 17.6388C10.8035 17.8498 11.0375 18.0128 11.3005 18.1238C11.5555 18.2318 11.8245 18.2868 12.1005 18.2868C12.3765 18.2868 12.6455 18.2318 12.8995 18.1238C13.1625 18.0118 13.3965 17.8488 13.5935 17.6378C13.7745 17.4448 13.9145 17.2218 14.0085 16.9748C14.0985 16.7378 14.1455 16.4878 14.1455 16.2328C14.1455 15.9788 14.0985 15.7308 14.0065 15.4938C13.9115 15.2498 13.7725 15.0288 13.5935 14.8388ZM9.94339 19.7634C9.89439 19.8894 9.82239 20.0034 9.73139 20.1014C9.62939 20.2104 9.50739 20.2954 9.37239 20.3534C9.11039 20.4634 8.80739 20.4644 8.54539 20.3534C8.41039 20.2964 8.28939 20.2114 8.18639 20.1024C8.09339 20.0034 8.02239 19.8904 7.97439 19.7644C7.92639 19.6404 7.90239 19.5114 7.90239 19.3794C7.90239 19.2474 7.92639 19.1174 7.97439 18.9944C8.02239 18.8684 8.09339 18.7554 8.18639 18.6564C8.28839 18.5474 8.40939 18.4634 8.54639 18.4054C8.67639 18.3494 8.81539 18.3214 8.95939 18.3214C9.10239 18.3214 9.24139 18.3494 9.37139 18.4054C9.50639 18.4624 9.62739 18.5464 9.72839 18.6544L9.73039 18.6564C9.82339 18.7544 9.89439 18.8674 9.94339 18.9944C9.99039 19.1164 10.0144 19.2454 10.0144 19.3784C10.0144 19.5114 9.99039 19.6414 9.94339 19.7634ZM10.4524 17.9794C10.2554 17.7684 10.0214 17.6044 9.75839 17.4934C9.25139 17.2784 8.66839 17.2784 8.15939 17.4934C7.89539 17.6054 7.66139 17.7684 7.46439 17.9794C7.28439 18.1704 7.14539 18.3924 7.05039 18.6384C6.95939 18.8754 6.91239 19.1244 6.91239 19.3794C6.91239 19.6344 6.95939 19.8834 7.05039 20.1194C7.14439 20.3654 7.28439 20.5874 7.46439 20.7794C7.66339 20.9914 7.89739 21.1544 8.16039 21.2644C8.41439 21.3724 8.68339 21.4274 8.95939 21.4274C9.23539 21.4274 9.50439 21.3724 9.75839 21.2644C10.0224 21.1524 10.2554 20.9894 10.4534 20.7784C10.6334 20.5864 10.7724 20.3654 10.8664 20.1194C10.9584 19.8824 11.0044 19.6334 11.0044 19.3784C11.0044 19.1234 10.9584 18.8744 10.8664 18.6384C10.7724 18.3934 10.6324 18.1714 10.4524 17.9794ZM19.3545 10.3708C19.2975 10.5058 19.2125 10.6268 19.1025 10.7298C19.0045 10.8218 18.8915 10.8928 18.7655 10.9418C18.5195 11.0358 18.2405 11.0358 17.9955 10.9408C17.8705 10.8928 17.7565 10.8218 17.6585 10.7298C17.5485 10.6258 17.4635 10.5058 17.4065 10.3698C17.3515 10.2398 17.3235 10.1018 17.3235 9.95883C17.3235 9.81483 17.3515 9.67483 17.4065 9.54383C17.4635 9.40882 17.5485 9.28783 17.6585 9.18482C17.7565 9.09183 17.8705 9.02082 17.9965 8.97283C18.1185 8.92583 18.2485 8.90182 18.3805 8.90182C18.5135 8.90182 18.6435 8.92583 18.7665 8.97283C18.8915 9.02082 19.0045 9.09183 19.1035 9.18383C19.2125 9.28783 19.2975 9.40782 19.3545 9.54283C19.4105 9.67483 19.4375 9.81382 19.4375 9.95682C19.4375 10.1008 19.4105 10.2398 19.3545 10.3708ZM19.7815 8.46382C19.5895 8.28282 19.3675 8.14282 19.1225 8.04882C18.6495 7.86682 18.1115 7.86682 17.6405 8.04882C17.3955 8.14282 17.1735 8.28183 16.9805 8.46282C16.7705 8.65982 16.6075 8.89383 16.4955 9.15882C16.3875 9.41182 16.3335 9.68183 16.3335 9.95883C16.3335 10.2348 16.3875 10.5028 16.4955 10.7568C16.6065 11.0188 16.7695 11.2528 16.9805 11.4508C17.1715 11.6308 17.3935 11.7698 17.6395 11.8648C17.8765 11.9558 18.1255 12.0028 18.3805 12.0028C18.6355 12.0028 18.8845 11.9558 19.1205 11.8648C19.3655 11.7708 19.5875 11.6318 19.7805 11.4518C19.9915 11.2538 20.1545 11.0198 20.2665 10.7568C20.3735 10.5038 20.4285 10.2348 20.4285 9.95682C20.4285 9.68082 20.3735 9.41183 20.2665 9.15782C20.1545 8.89383 19.9915 8.65982 19.7815 8.46382ZM15.9629 13.8699C16.0709 13.7679 16.1559 13.6469 16.2139 13.5109C16.2689 13.3829 16.2969 13.2399 16.2969 13.0989C16.2969 12.9549 16.2699 12.8159 16.2139 12.6849C16.1569 12.5499 16.0729 12.4289 15.9649 12.3269L15.9629 12.3259C15.8639 12.2329 15.7499 12.1619 15.6239 12.1139C15.4999 12.0659 15.3689 12.0419 15.2339 12.0419C15.1029 12.0419 14.9749 12.0659 14.8539 12.1139C14.7289 12.1619 14.6149 12.2339 14.5169 12.3259C14.4079 12.4279 14.3229 12.5489 14.2669 12.6849H14.2659C14.2109 12.8159 14.1829 12.9549 14.1829 13.0989C14.1829 13.2399 14.2119 13.3829 14.2659 13.5109C14.3229 13.6469 14.4079 13.7669 14.5169 13.8699C14.6149 13.9619 14.7289 14.0329 14.8539 14.0819C15.1009 14.1779 15.3799 14.1759 15.6239 14.0819C15.7499 14.0329 15.8639 13.9619 15.9629 13.8699ZM15.9769 11.1879C16.2249 11.2839 16.4479 11.4239 16.6399 11.6039C16.8519 11.8029 17.0149 12.0359 17.1259 12.2999C17.2329 12.5529 17.2879 12.8219 17.2879 13.0989C17.2879 13.3749 17.2329 13.6429 17.1259 13.8969C17.0139 14.1609 16.8499 14.3949 16.6399 14.5919C16.4459 14.7729 16.2239 14.9119 15.9769 15.0069C15.7399 15.0969 15.4899 15.1429 15.2339 15.1429C14.9809 15.1429 14.7319 15.0959 14.4949 15.0049C14.2519 14.9099 14.0309 14.7709 13.8399 14.5919C13.6299 14.3949 13.4659 14.1609 13.3549 13.8979C13.2469 13.6429 13.1929 13.3749 13.1929 13.0989C13.1929 12.8219 13.2469 12.5529 13.3549 12.2989C13.4649 12.0359 13.6289 11.8029 13.8399 11.6039C14.0309 11.4239 14.2519 11.2849 14.4949 11.1909C14.9719 11.0069 15.5069 11.0089 15.9769 11.1879Z" fill="#184460"/>
</svg>
