<svg width="28" height="28" viewBox="0 0 28 28" fill="none" xmlns="http://www.w3.org/2000/svg">
<path fill-rule="evenodd" clip-rule="evenodd" d="M20.5563 7.40686C20.2424 7.40686 19.9878 7.15234 19.9878 6.83837C19.9878 6.52441 20.2424 6.26989 20.5563 6.26989C20.8703 6.26989 21.1248 6.52441 21.1248 6.83837C21.1248 7.15234 20.8703 7.40686 20.5563 7.40686ZM22.5662 4.82828C23.1031 5.36512 23.3988 6.07899 23.3988 6.83822C23.3988 7.59745 23.1031 8.31128 22.5662 8.84816C21.9755 9.43889 21.1684 9.73955 20.3208 9.67034L19.5133 11.6329L20.0493 12.169C20.7142 12.834 20.7142 13.916 20.0493 14.5809L19.2453 15.3849C19.0232 15.6069 18.6633 15.6068 18.4413 15.3849L18.0393 14.9829L17.2353 15.7869L17.6373 16.1889C17.8593 16.4109 17.8593 16.7708 17.6373 16.9928C17.4153 17.2149 17.0554 17.2148 16.8334 16.9928L16.4314 16.5908L15.6274 17.3948L16.0294 17.7968C16.2514 18.0188 16.2514 18.3788 16.0294 18.6008C15.8074 18.8228 15.4474 18.8228 15.2254 18.6008L14.8234 18.1988L14.0194 19.0028L14.4214 19.4048C14.6435 19.6268 14.6435 19.9867 14.4214 20.2087L13.6175 21.0127C12.9526 21.6777 11.8705 21.6776 11.2056 21.0127L10.6963 20.5034L8.47852 21.6567C8.38442 22.0519 8.18374 22.4267 7.876 22.7344C6.98932 23.6211 5.54669 23.6211 4.66008 22.7344C3.77346 21.8477 3.77346 20.4051 4.66008 19.5185C4.96785 19.2108 5.3426 19.0101 5.73781 18.916L6.8912 16.6981L6.38187 16.1888C5.71693 15.5238 5.71693 14.4418 6.38187 13.7769L7.18586 12.9729C7.40787 12.7508 7.76784 12.7508 7.98981 12.9729L8.39181 13.3749L9.19576 12.5709L8.79377 12.1689C8.57176 11.9469 8.57176 11.587 8.79377 11.365C9.01578 11.143 9.37575 11.143 9.59772 11.365L9.99972 11.767L10.8037 10.963L10.4017 10.561C10.1797 10.339 10.1797 9.97903 10.4017 9.75702C10.6238 9.53501 10.9837 9.53501 11.2057 9.75702L11.6077 10.159L12.4117 9.35506L12.0097 8.95307C11.7877 8.73105 11.7877 8.37113 12.0097 8.14911L12.8136 7.34516C13.4786 6.68022 14.5606 6.68026 15.2256 7.34516L15.7617 7.88124L17.7242 7.0738C17.6548 6.22259 17.9581 5.41666 18.5464 4.82832C19.6574 3.71727 21.4555 3.7175 22.5662 4.82828ZM18.0445 8.17143L16.6327 8.75231L18.6423 10.7619L19.2231 9.35006C18.9771 9.21908 18.7491 9.05088 18.5464 8.84816C18.3437 8.64548 18.1755 8.41751 18.0445 8.17143ZM7.07205 21.9305C7.51539 21.4871 7.51539 20.7658 7.07205 20.3225C6.62871 19.8792 5.90737 19.8792 5.46407 20.3225C5.02076 20.7658 5.02076 21.4872 5.46407 21.9305C5.90737 22.3738 6.62874 22.3738 7.07205 21.9305ZM8.42338 20.4039L9.85316 19.6603L7.73422 17.5414L6.99072 18.9712C7.31449 19.0792 7.61874 19.2613 7.87604 19.5186C8.13334 19.7759 8.31541 20.0801 8.42338 20.4039ZM12.8136 20.2088L13.2156 19.8068L7.58778 14.179L7.18582 14.581C6.96415 14.8026 6.96415 15.1633 7.18582 15.385C7.68162 15.8807 10.6934 18.8925 11.2057 19.4048C11.2057 19.4047 11.2057 19.4049 11.2057 19.4048L12.0097 20.2088C12.2313 20.4305 12.5919 20.4305 12.8136 20.2088ZM13.2156 18.1988L14.0196 17.3949L9.99972 13.375L9.19573 14.179L13.2156 18.1988ZM14.8236 16.5909L15.6275 15.7869L11.6077 11.7671L10.8037 12.5711L14.8236 16.5909ZM16.4315 14.983L17.2355 14.179L13.2156 10.1591L12.4117 10.9631L16.4315 14.983ZM19.2454 13.777C19.4671 13.5554 19.4671 13.1946 19.2454 12.973C18.6259 12.3535 15.2355 8.96311 14.4215 8.14919C14.1998 7.92752 13.8392 7.92752 13.6175 8.14919L13.2156 8.55115L18.8434 14.179L19.2454 13.777ZM21.7623 8.04417C22.0845 7.72207 22.2618 7.29377 22.2618 6.83822C22.2618 6.38264 22.0844 5.95438 21.7623 5.63227C21.0957 4.96566 20.0168 4.96582 19.3504 5.63227C18.6838 6.29884 18.6839 7.37775 19.3504 8.04417C20.017 8.71081 21.0959 8.71066 21.7623 8.04417Z" fill="#184460"/>
</svg>
