<svg width="24" height="24" viewBox="0 0 24 24" fill="none" xmlns="http://www.w3.org/2000/svg">
<path fill-rule="evenodd" clip-rule="evenodd" d="M21.7351 14.6648L21.6353 14.3564L19.731 13.8795C19.7427 13.7067 19.7481 13.5333 19.7481 13.3583C19.7481 11.138 18.7944 9.01967 17.1318 7.54629L16.3559 8.42163C17.7685 9.67317 18.5783 11.4726 18.5783 13.3583C18.5783 13.4358 18.5773 13.5131 18.5741 13.5899L17.3376 13.2803C17.3201 12.0665 16.8881 10.8878 16.1158 9.952L15.2135 10.6967C15.75 11.3463 16.0763 12.1471 16.1521 12.9834L14.8918 12.668C14.7558 12.0933 14.4527 11.5821 14.0371 11.1887L15.9531 4.50461L15.7364 4.26402C14.8076 3.23189 13.4398 2.63965 11.9842 2.63965C10.5287 2.63965 9.16136 3.23189 8.23254 4.26402L8.01572 4.50461L8.55586 6.38938C8.13198 6.59873 7.72485 6.8483 7.33891 7.13719C6.03466 8.11233 5.05129 9.50206 4.56981 11.0496L5.68681 11.397C6.21826 9.68764 7.38523 8.32412 8.88299 7.5306L9.23617 8.76354C8.77603 9.03887 8.35504 9.38383 7.99088 9.7914L8.86303 10.5707C9.07665 10.3317 9.3154 10.12 9.57305 9.93905L9.93142 11.1892C9.51805 11.5806 9.21591 12.0886 9.07908 12.6598L7.81764 12.9722C7.86092 12.4892 7.98692 12.0235 8.19399 11.5829L7.13489 11.0859C6.81294 11.772 6.64336 12.505 6.63087 13.2658L2.33094 14.3302L2.23023 14.6383C1.79827 15.9581 1.96679 17.4386 2.69235 18.7007C3.41792 19.9624 4.61262 20.853 5.97036 21.1439L6.28728 21.2117L7.654 19.8023C8.92702 20.6584 10.4324 21.1216 11.9842 21.1216C12.52 21.1216 13.0549 21.0671 13.5746 20.9587L13.336 19.8136C12.8946 19.9056 12.4401 19.9519 11.9842 19.9519C10.7092 19.9519 9.50632 19.5839 8.48638 18.9432L9.37147 18.0304C10.1447 18.4648 11.0361 18.7124 11.9842 18.7124V17.5427C11.355 17.5427 10.758 17.4031 10.2223 17.1528L11.1261 16.2202C11.3978 16.302 11.6859 16.346 11.9842 16.346C12.2798 16.346 12.5652 16.3032 12.8351 16.2224L17.6602 21.2269L17.9771 21.1599C19.3356 20.873 20.5331 19.9854 21.2618 18.7257C21.9909 17.4659 22.1632 15.9858 21.7351 14.6648ZM13.9042 15.6457C14.4294 15.2045 14.8013 14.586 14.9264 13.8826L20.7061 15.3296C20.917 16.256 20.7564 17.2636 20.2495 18.14C19.7423 19.0162 18.9492 19.6575 18.0406 19.9364L13.9042 15.6457ZM9.32317 4.82168C10.0195 4.17519 10.9721 3.80936 11.9842 3.80936C12.9969 3.80936 13.9495 4.17519 14.6453 4.82168L13.0039 10.5494C12.6857 10.4331 12.3422 10.3699 11.9842 10.3699C11.6263 10.3699 11.2828 10.4331 10.9646 10.5494L9.32317 4.82168ZM5.91033 19.9199C5.00253 19.6388 4.21099 18.995 3.7065 18.1174C3.20202 17.2398 3.04371 16.2319 3.25733 15.3061L9.0413 13.8745C9.16441 14.5786 9.53451 15.1982 10.0589 15.6407L5.91033 19.9199ZM10.1661 13.3583C10.1661 12.3554 10.9818 11.5396 11.9842 11.5396C12.9871 11.5396 13.8027 12.3554 13.8027 13.3583C13.8027 14.3607 12.9871 15.1763 11.9842 15.1763C10.9818 15.1764 10.1661 14.3607 10.1661 13.3583Z" fill="#184460"/>
</svg>
