<svg width="28" height="28" viewBox="0 0 28 28" fill="none" xmlns="http://www.w3.org/2000/svg">
<path fill-rule="evenodd" clip-rule="evenodd" d="M10.1505 6.81639V5.15039H17.8495V6.81639H21.1835V21.1834H17.8495V22.8494H10.1505V21.1834H6.8165V6.81639H10.1505ZM16.8175 6.81639H11.1835V6.18339H16.8175V6.81639ZM7.85153 8.48439H20.1505V7.85039H7.85153V8.48439ZM7.85153 20.1514H20.1505V19.5174H7.85153V20.1514ZM16.8174 21.8184H11.1834V21.1834H16.8174V21.8184ZM8.48441 18.4844H7.85141V9.51739H8.48441V18.4844ZM9.51642 18.4844H10.5664V9.51739H9.51642V18.4844ZM13.4835 18.4844H11.6005V9.51739H13.4835V18.4844ZM14.5175 18.4844H16.4005V9.51739H14.5175V18.4844ZM18.4844 18.4844H17.4334V9.51739H18.4844V18.4844ZM20.1504 18.4844H19.5164V9.51739H20.1504V18.4844Z" fill="#00343F"/>
</svg>
