<svg width="24" height="24" viewBox="0 0 24 24" fill="none" xmlns="http://www.w3.org/2000/svg">
<path fill-rule="evenodd" clip-rule="evenodd" d="M21.1275 9.83193C21.2005 9.75793 21.2555 9.67193 21.2935 9.57693C21.3305 9.48393 21.3485 9.38593 21.3485 9.28393C21.3485 9.18692 21.3315 9.09193 21.2975 9.00292C21.2635 8.91092 21.2115 8.82793 21.1465 8.75593L21.1435 8.75292C21.0685 8.67193 20.9785 8.60792 20.8775 8.56392C20.7515 8.50892 20.6115 8.48892 20.4725 8.50692C20.3245 8.52192 20.1695 8.47193 20.0625 8.36493L15.9725 4.27593C15.8645 4.16693 15.8135 4.01692 15.8325 3.86492C15.8355 3.83592 15.8375 3.80392 15.8375 3.77192C15.8375 3.66492 15.8155 3.55693 15.7735 3.46093C15.7295 3.35893 15.6655 3.26792 15.5815 3.19092C15.5095 3.12592 15.4265 3.07492 15.3345 3.03892C15.1515 2.97092 14.9415 2.97192 14.7605 3.04492C14.6655 3.08192 14.5795 3.13792 14.5055 3.20992C14.4285 3.28492 14.3695 3.37293 14.3275 3.47193C14.2895 3.56593 14.2695 3.66693 14.2695 3.77093C14.2695 3.89492 14.2985 4.01892 14.3555 4.12892C14.4545 4.32092 14.4175 4.55193 14.2655 4.70493L12.9175 6.05293C12.7625 6.20493 12.5315 6.24192 12.3405 6.14292C12.1425 6.03992 11.8955 6.02992 11.6875 6.11492C11.5905 6.15392 11.5035 6.21092 11.4285 6.28692C11.3535 6.36192 11.2955 6.44893 11.2565 6.54493C11.2185 6.63793 11.1995 6.73593 11.1995 6.83593C11.1995 6.96593 11.2285 7.08792 11.2855 7.19893C11.3835 7.39092 11.3475 7.62192 11.1945 7.77492L9.84649 9.12292C9.69349 9.27592 9.46249 9.31292 9.27049 9.21292C9.07149 9.11193 8.82749 9.09893 8.61749 9.18493C8.52049 9.22393 8.43349 9.28193 8.35849 9.35693C8.28349 9.43192 8.22549 9.51893 8.18649 9.61493C8.14749 9.70893 8.12849 9.80693 8.12849 9.90693C8.12849 10.0339 8.15849 10.1589 8.21449 10.2689C8.31349 10.4619 8.27649 10.6929 8.12449 10.8449L6.77649 12.1929C6.62249 12.3459 6.39249 12.3809 6.19949 12.2829C6.00449 12.1839 5.75649 12.1689 5.54649 12.2549C5.45049 12.2939 5.36349 12.3519 5.28849 12.4269C5.21249 12.5029 5.15549 12.5899 5.11649 12.6859C5.07749 12.7809 5.05849 12.8809 5.05849 12.9829C5.05849 13.1069 5.08849 13.2289 5.14449 13.3389C5.24349 13.5309 5.20749 13.7619 5.05449 13.9149L3.70649 15.2639C3.55349 15.4169 3.32149 15.4519 3.12949 15.3529C2.92949 15.2499 2.68349 15.2399 2.47249 15.3269C2.37549 15.3669 2.28749 15.4259 2.21149 15.5039C2.14049 15.5769 2.08449 15.6629 2.04649 15.7579C2.00949 15.8509 1.99049 15.9509 1.99049 16.0529C1.99049 16.1499 2.00749 16.2439 2.04149 16.3329C2.07549 16.4239 2.12649 16.5069 2.19249 16.5789C2.26949 16.6629 2.35949 16.7269 2.46149 16.7719C2.58949 16.8269 2.72949 16.8459 2.86949 16.8299C2.88949 16.8269 2.90949 16.8259 2.92949 16.8259C3.05749 16.8259 3.18249 16.8769 3.27649 16.9709L7.36649 21.0609C7.47449 21.1689 7.52649 21.3179 7.50849 21.4699C7.50449 21.5029 7.50249 21.5339 7.50249 21.5659C7.50249 21.6729 7.52349 21.7779 7.56549 21.8759C7.60949 21.9769 7.67449 22.0679 7.75849 22.1449C7.83049 22.2109 7.91349 22.2619 8.00449 22.2969C8.18649 22.3659 8.39649 22.3649 8.57849 22.2909C8.67449 22.2529 8.76049 22.1979 8.83349 22.1259C8.91149 22.0509 8.97049 21.9629 9.01049 21.8649C9.05049 21.7689 9.06949 21.6689 9.06949 21.5649C9.06949 21.4409 9.04049 21.3169 8.98349 21.2079C8.88549 21.0149 8.92149 20.7839 9.07449 20.6319L10.4225 19.2829C10.5755 19.1309 10.8075 19.0939 10.9985 19.1929C11.1985 19.2959 11.4415 19.3079 11.6515 19.2219C11.7485 19.1819 11.8355 19.1239 11.9115 19.0489C11.9855 18.9739 12.0435 18.8869 12.0825 18.7899C12.1215 18.6969 12.1405 18.5979 12.1405 18.4949C12.1405 18.3709 12.1105 18.2469 12.0545 18.1379C11.9555 17.9459 11.9915 17.7139 12.1455 17.5609L13.4925 16.2129C13.6455 16.0599 13.8765 16.0239 14.0685 16.1229C14.2685 16.2239 14.5115 16.2369 14.7215 16.1509C14.8185 16.1119 14.9055 16.0549 14.9805 15.9789C15.0555 15.9039 15.1135 15.8169 15.1525 15.7199C15.1915 15.6259 15.2105 15.5269 15.2105 15.4249C15.2105 15.3009 15.1805 15.1769 15.1245 15.0679C15.0255 14.8749 15.0625 14.6439 15.2145 14.4909L16.5625 13.1429C16.7165 12.9899 16.9475 12.9549 17.1395 13.0529C17.3365 13.1559 17.5835 13.1649 17.7915 13.0809C17.8885 13.0419 17.9765 12.9839 18.0505 12.9089C18.1255 12.8339 18.1835 12.7469 18.2235 12.6489C18.2615 12.5559 18.2805 12.4569 18.2805 12.3549C18.2805 12.2299 18.2515 12.1059 18.1945 11.9969C18.0955 11.8049 18.1325 11.5739 18.2845 11.4209L19.6325 10.0729C19.7865 9.91993 20.0175 9.88393 20.2095 9.98293C20.4095 10.0849 20.6585 10.0949 20.8655 10.0099C20.9645 9.96893 21.0525 9.90893 21.1275 9.83193ZM21.8765 8.08792C22.0275 8.25292 22.1445 8.44292 22.2235 8.65193C22.2995 8.85393 22.3385 9.06593 22.3385 9.28393C22.3385 9.50992 22.2965 9.73092 22.2135 9.94092C22.1275 10.1599 22.0005 10.3549 21.8365 10.5229C21.6675 10.6979 21.4675 10.8319 21.2445 10.9249C20.8855 11.0719 20.4825 11.0979 20.1085 10.9979L19.2105 11.8959C19.2505 12.0459 19.2705 12.1999 19.2705 12.3549C19.2705 12.5859 19.2265 12.8099 19.1405 13.0219C19.0515 13.2419 18.9205 13.4389 18.7515 13.6089C18.5815 13.7789 18.3835 13.9099 18.1645 13.9989C17.8085 14.1429 17.4085 14.1669 17.0385 14.0679L16.1395 14.9669C16.1805 15.1169 16.2005 15.2709 16.2005 15.4249C16.2005 15.6549 16.1565 15.8799 16.0695 16.0929C15.9815 16.3119 15.8505 16.5099 15.6815 16.6789C15.5115 16.8479 15.3145 16.9789 15.0935 17.0689C14.7355 17.2139 14.3385 17.2389 13.9675 17.1379L13.0695 18.0359C13.1095 18.1859 13.1305 18.3399 13.1305 18.4949C13.1305 18.7249 13.0865 18.9499 13.0005 19.1619C12.9105 19.3829 12.7795 19.5799 12.6105 19.7489C12.4415 19.9189 12.2435 20.0499 12.0235 20.1389C11.6675 20.2839 11.2685 20.3079 10.8975 20.2079L9.99949 21.1069C10.0395 21.2569 10.0605 21.4099 10.0605 21.5649C10.0605 21.7989 10.0145 22.0259 9.92649 22.2419C9.83449 22.4659 9.69849 22.6649 9.52449 22.8349C9.35649 22.9979 9.16149 23.1249 8.94349 23.2119C8.73449 23.2949 8.51249 23.3379 8.28549 23.3379C8.06949 23.3379 7.85749 23.2989 7.65549 23.2229C7.44449 23.1429 7.25449 23.0259 7.08949 22.8749C6.90249 22.7029 6.75649 22.4989 6.65749 22.2679C6.56649 22.0579 6.51849 21.8359 6.51249 21.6069L2.72849 17.8229C2.47849 17.8139 2.26849 17.7659 2.06949 17.6809C1.83749 17.5809 1.63349 17.4349 1.46149 17.2469C1.31049 17.0809 1.19349 16.8909 1.11549 16.6829C1.03949 16.4799 1.00049 16.2679 1.00049 16.0529C1.00049 15.8259 1.04249 15.6039 1.12649 15.3929C1.21349 15.1749 1.34049 14.9789 1.50349 14.8119C1.67449 14.6379 1.87349 14.5029 2.09649 14.4109C2.45549 14.2639 2.85549 14.2369 3.23149 14.3379L4.12949 13.4399C4.08849 13.2899 4.06849 13.1369 4.06849 12.9829C4.06849 12.7519 4.11249 12.5279 4.19849 12.3149C4.28749 12.0949 4.41849 11.8959 4.58749 11.7269C4.75649 11.5579 4.95349 11.4279 5.17149 11.3379C5.53349 11.1919 5.93149 11.1689 6.30149 11.2679L7.19949 10.3699C7.15949 10.2189 7.13849 10.0639 7.13849 9.90693C7.13849 9.67793 7.18349 9.45292 7.27049 9.24092C7.35849 9.02192 7.48949 8.82593 7.65849 8.65693C7.82749 8.48793 8.02549 8.35693 8.24549 8.26692C8.60149 8.12192 8.99649 8.09692 9.37149 8.19792L10.2705 7.29992C10.2295 7.14892 10.2095 6.99393 10.2095 6.83593C10.2095 6.60693 10.2525 6.38293 10.3395 6.16993C10.4295 5.95193 10.5605 5.75592 10.7285 5.58693C10.8975 5.41793 11.0945 5.28593 11.3155 5.19693C11.6705 5.05393 12.0685 5.02793 12.4415 5.12792L13.3395 4.22892C13.2995 4.07892 13.2795 3.92593 13.2795 3.77093C13.2795 3.53593 13.3245 3.30792 13.4135 3.09392C13.5045 2.87093 13.6395 2.67193 13.8145 2.50192C13.9815 2.33792 14.1775 2.21092 14.3955 2.12392C14.8075 1.96192 15.2725 1.95892 15.6855 2.11392C15.8945 2.19292 16.0845 2.30893 16.2505 2.46093C16.4375 2.63293 16.5835 2.83692 16.6825 3.06892C16.7725 3.27992 16.8215 3.50092 16.8265 3.72892L20.6105 7.51293C20.8605 7.52192 21.0705 7.56992 21.2695 7.65492C21.5015 7.75492 21.7055 7.90093 21.8765 8.08792ZM11.0835 14.6218C11.0355 14.7478 10.9635 14.8628 10.8725 14.9608C10.7685 15.0708 10.6475 15.1548 10.5135 15.2128C10.2505 15.3228 9.94949 15.3228 9.68649 15.2128C9.55049 15.1548 9.42949 15.0698 9.32749 14.9608C9.23449 14.8628 9.16349 14.7478 9.11549 14.6218C9.06749 14.4978 9.04349 14.3668 9.04349 14.2328C9.04349 14.1008 9.06749 13.9738 9.11549 13.8518C9.16349 13.7268 9.23449 13.6138 9.32649 13.5158C9.42949 13.4068 9.55049 13.3228 9.68649 13.2648C9.81749 13.2088 9.95749 13.1808 10.1005 13.1808C10.2435 13.1808 10.3815 13.2088 10.5125 13.2648C10.6485 13.3218 10.7695 13.4068 10.8715 13.5158L10.8745 13.5188C10.9645 13.6158 11.0355 13.7278 11.0835 13.8518C11.1305 13.9748 11.1545 14.1018 11.1545 14.2328C11.1545 14.3668 11.1305 14.4978 11.0835 14.6218ZM11.5935 12.8388C11.3955 12.6278 11.1625 12.4648 10.8995 12.3528C10.3925 12.1378 9.81049 12.1378 9.30049 12.3528C9.03649 12.4648 8.80249 12.6278 8.60449 12.8388C8.42649 13.0288 8.28749 13.2488 8.19249 13.4938C8.10049 13.7298 8.05349 13.9788 8.05349 14.2328C8.05349 14.4888 8.09949 14.7388 8.18949 14.9748C8.28449 15.2218 8.42349 15.4448 8.60449 15.6388C8.80349 15.8498 9.03749 16.0128 9.30049 16.1238C9.55549 16.2318 9.82449 16.2868 10.1005 16.2868C10.3765 16.2868 10.6455 16.2318 10.8995 16.1238C11.1625 16.0118 11.3965 15.8488 11.5935 15.6378C11.7745 15.4448 11.9145 15.2218 12.0085 14.9748C12.0985 14.7378 12.1455 14.4878 12.1455 14.2328C12.1455 13.9788 12.0985 13.7308 12.0065 13.4938C11.9115 13.2498 11.7725 13.0288 11.5935 12.8388ZM7.94339 17.7634C7.89439 17.8894 7.82239 18.0034 7.73139 18.1014C7.62939 18.2104 7.50739 18.2954 7.37239 18.3534C7.11039 18.4634 6.80739 18.4644 6.54539 18.3534C6.41039 18.2964 6.28939 18.2114 6.18639 18.1024C6.09339 18.0034 6.02239 17.8904 5.97439 17.7644C5.92639 17.6404 5.90239 17.5114 5.90239 17.3794C5.90239 17.2474 5.92639 17.1174 5.97439 16.9944C6.02239 16.8684 6.09339 16.7554 6.18639 16.6564C6.28839 16.5474 6.40939 16.4634 6.54639 16.4054C6.67639 16.3494 6.81539 16.3214 6.95939 16.3214C7.10239 16.3214 7.24139 16.3494 7.37139 16.4054C7.50639 16.4624 7.62739 16.5464 7.72839 16.6544L7.73039 16.6564C7.82339 16.7544 7.89439 16.8674 7.94339 16.9944C7.99039 17.1164 8.01439 17.2454 8.01439 17.3784C8.01439 17.5114 7.99039 17.6414 7.94339 17.7634ZM8.45239 15.9794C8.25539 15.7684 8.02139 15.6044 7.75839 15.4934C7.25139 15.2784 6.66839 15.2784 6.15939 15.4934C5.89539 15.6054 5.66139 15.7684 5.46439 15.9794C5.28439 16.1704 5.14539 16.3924 5.05039 16.6384C4.95939 16.8754 4.91239 17.1244 4.91239 17.3794C4.91239 17.6344 4.95939 17.8834 5.05039 18.1194C5.14439 18.3654 5.28439 18.5874 5.46439 18.7794C5.66339 18.9914 5.89739 19.1544 6.16039 19.2644C6.41439 19.3724 6.68339 19.4274 6.95939 19.4274C7.23539 19.4274 7.50439 19.3724 7.75839 19.2644C8.02239 19.1524 8.25539 18.9894 8.45339 18.7784C8.63339 18.5864 8.77239 18.3654 8.86639 18.1194C8.95839 17.8824 9.00439 17.6334 9.00439 17.3784C9.00439 17.1234 8.95839 16.8744 8.86639 16.6384C8.77239 16.3934 8.63239 16.1714 8.45239 15.9794ZM17.3545 8.37082C17.2975 8.50583 17.2125 8.62682 17.1025 8.72983C17.0045 8.82183 16.8915 8.89283 16.7655 8.94182C16.5195 9.03582 16.2405 9.03583 15.9955 8.94083C15.8705 8.89283 15.7565 8.82183 15.6585 8.72983C15.5485 8.62582 15.4635 8.50583 15.4065 8.36983C15.3515 8.23983 15.3235 8.10183 15.3235 7.95883C15.3235 7.81483 15.3515 7.67483 15.4065 7.54383C15.4635 7.40882 15.5485 7.28783 15.6585 7.18482C15.7565 7.09183 15.8705 7.02082 15.9965 6.97283C16.1185 6.92583 16.2485 6.90182 16.3805 6.90182C16.5135 6.90182 16.6435 6.92583 16.7665 6.97283C16.8915 7.02082 17.0045 7.09183 17.1035 7.18383C17.2125 7.28783 17.2975 7.40782 17.3545 7.54283C17.4105 7.67483 17.4375 7.81382 17.4375 7.95682C17.4375 8.10082 17.4105 8.23982 17.3545 8.37082ZM17.7815 6.46382C17.5895 6.28282 17.3675 6.14282 17.1225 6.04882C16.6495 5.86682 16.1115 5.86682 15.6405 6.04882C15.3955 6.14282 15.1735 6.28183 14.9805 6.46282C14.7705 6.65982 14.6075 6.89383 14.4955 7.15882C14.3875 7.41182 14.3335 7.68183 14.3335 7.95883C14.3335 8.23483 14.3875 8.50283 14.4955 8.75683C14.6065 9.01883 14.7695 9.25282 14.9805 9.45082C15.1715 9.63082 15.3935 9.76983 15.6395 9.86483C15.8765 9.95583 16.1255 10.0028 16.3805 10.0028C16.6355 10.0028 16.8845 9.95583 17.1205 9.86483C17.3655 9.77083 17.5875 9.63182 17.7805 9.45183C17.9915 9.25383 18.1545 9.01983 18.2665 8.75683C18.3735 8.50383 18.4285 8.23482 18.4285 7.95682C18.4285 7.68082 18.3735 7.41183 18.2665 7.15782C18.1545 6.89383 17.9915 6.65982 17.7815 6.46382ZM13.9629 11.8699C14.0709 11.7679 14.1559 11.6469 14.2139 11.5109C14.2689 11.3829 14.2969 11.2399 14.2969 11.0989C14.2969 10.9549 14.2699 10.8159 14.2139 10.6849C14.1569 10.5499 14.0729 10.4289 13.9649 10.3269L13.9629 10.3259C13.8639 10.2329 13.7499 10.1619 13.6239 10.1139C13.4999 10.0659 13.3689 10.0419 13.2339 10.0419C13.1029 10.0419 12.9749 10.0659 12.8539 10.1139C12.7289 10.1619 12.6149 10.2339 12.5169 10.3259C12.4079 10.4279 12.3229 10.5489 12.2669 10.6849H12.2659C12.2109 10.8159 12.1829 10.9549 12.1829 11.0989C12.1829 11.2399 12.2119 11.3829 12.2659 11.5109C12.3229 11.6469 12.4079 11.7669 12.5169 11.8699C12.6149 11.9619 12.7289 12.0329 12.8539 12.0819C13.1009 12.1779 13.3799 12.1759 13.6239 12.0819C13.7499 12.0329 13.8639 11.9619 13.9629 11.8699ZM13.9769 9.18793C14.2249 9.28393 14.4479 9.42392 14.6399 9.60392C14.8519 9.80292 15.0149 10.0359 15.1259 10.2999C15.2329 10.5529 15.2879 10.8219 15.2879 11.0989C15.2879 11.3749 15.2329 11.6429 15.1259 11.8969C15.0139 12.1609 14.8499 12.3949 14.6399 12.5919C14.4459 12.7729 14.2239 12.9119 13.9769 13.0069C13.7399 13.0969 13.4899 13.1429 13.2339 13.1429C12.9809 13.1429 12.7319 13.0959 12.4949 13.0049C12.2519 12.9099 12.0309 12.7709 11.8399 12.5919C11.6299 12.3949 11.4659 12.1609 11.3549 11.8979C11.2469 11.6429 11.1929 11.3749 11.1929 11.0989C11.1929 10.8219 11.2469 10.5529 11.3549 10.2989C11.4649 10.0359 11.6289 9.80292 11.8399 9.60392C12.0309 9.42392 12.2519 9.28492 12.4949 9.19092C12.9719 9.00692 13.5069 9.00893 13.9769 9.18793Z" fill="#184460"/>
</svg>
