<svg width="24" height="24" viewBox="0 0 24 24" fill="none" xmlns="http://www.w3.org/2000/svg">
<path fill-rule="evenodd" clip-rule="evenodd" d="M11.955 20.838C14.328 20.838 16.558 19.914 18.235 18.235C19.914 16.558 20.838 14.328 20.838 11.955C20.838 9.582 19.914 7.352 18.235 5.674C16.557 3.996 14.327 3.072 11.955 3.072C9.583 3.072 7.352 3.996 5.674 5.674C3.996 7.352 3.072 9.583 3.072 11.955C3.072 14.327 3.996 16.557 5.674 18.235C7.352 19.914 9.582 20.838 11.955 20.838ZM11.955 2C14.614 2 17.114 3.035 18.994 4.915C20.874 6.796 21.91 9.296 21.91 11.955C21.91 14.613 20.874 17.113 18.994 18.994C17.113 20.874 14.613 21.91 11.955 21.91C9.296 21.91 6.796 20.874 4.915 18.994C3.035 17.114 2 14.614 2 11.955C2 9.296 3.035 6.796 4.915 4.915C6.796 3.035 9.296 2 11.955 2ZM18.5982 12.9567H16.0802C14.4342 12.9567 13.0952 14.2957 13.0952 15.9417V18.5757L13.0532 18.5837C12.6942 18.6427 12.3242 18.6727 11.9542 18.6727C11.5852 18.6727 11.2152 18.6427 10.8552 18.5837L10.8142 18.5757V15.9417C10.8142 14.2957 9.4742 12.9567 7.8282 12.9567H5.3112L5.3052 12.9147C5.2602 12.5997 5.2372 12.2767 5.2372 11.9547C5.2372 11.6527 5.2572 11.3487 5.2972 11.0507L5.3032 11.0077H5.4062C7.3652 11.0077 9.3442 10.5807 11.2872 9.7377C11.7042 9.5557 12.1972 9.5557 12.6162 9.7357C14.4942 10.5427 16.4342 10.9527 18.3812 10.9527H18.5982L18.6052 10.9957C18.6502 11.3147 18.6722 11.6367 18.6722 11.9547C18.6722 12.2727 18.6502 12.5947 18.6052 12.9137L18.5982 12.9567ZM18.3242 14.0947C17.6742 16.0197 16.1462 17.5827 14.2352 18.2737L14.1682 18.2987V15.9417C14.1682 14.8877 15.0262 14.0287 16.0802 14.0287H18.3452L18.3242 14.0947ZM9.7412 18.2987L9.6742 18.2737C7.7632 17.5827 6.2342 16.0197 5.5862 14.0947L5.5632 14.0287H7.8282C8.8832 14.0287 9.7412 14.8877 9.7412 15.9417V18.2987ZM5.5682 9.8677C6.4762 7.0977 9.0422 5.2367 11.9542 5.2367C14.8402 5.2367 17.4002 7.0767 18.3242 9.8137L18.3452 9.8807L18.2762 9.8797C16.5112 9.8647 14.7492 9.4847 13.0402 8.7497C12.3512 8.4547 11.5522 8.4547 10.8612 8.7537C9.1242 9.5067 7.3602 9.9037 5.6172 9.9327L5.5462 9.9347L5.5682 9.8677ZM11.9542 4.1647C7.6592 4.1647 4.1642 7.6597 4.1642 11.9547C4.1642 16.2507 7.6592 19.7457 11.9542 19.7457C16.2502 19.7457 19.7452 16.2507 19.7452 11.9547C19.7452 7.6597 16.2502 4.1647 11.9542 4.1647ZM11.9547 12.9918C11.5477 12.9918 11.2167 12.6608 11.2167 12.2538C11.2167 11.8468 11.5477 11.5158 11.9547 11.5158C12.3617 11.5158 12.6927 11.8468 12.6927 12.2538C12.6927 12.6608 12.3617 12.9918 11.9547 12.9918ZM11.9547 10.4428C10.9557 10.4428 10.1437 11.2558 10.1437 12.2538C10.1437 13.2528 10.9557 14.0648 11.9547 14.0648C12.9527 14.0648 13.7657 13.2528 13.7657 12.2538C13.7657 11.2558 12.9527 10.4428 11.9547 10.4428Z" fill="#184460"/>
</svg>
