<svg width="28" height="28" viewBox="0 0 28 28" fill="none" xmlns="http://www.w3.org/2000/svg">
<path fill-rule="evenodd" clip-rule="evenodd" d="M21.406 12.4557H20.789C20.8474 12.2909 20.8795 12.1138 20.8795 11.9293C20.8795 11.525 20.7267 11.156 20.476 10.8763C20.7267 10.5966 20.8795 10.2275 20.8795 9.82329C20.8795 9.13692 20.4393 8.55171 19.8265 8.33437V6.59413C19.8265 5.72321 19.118 5.01465 18.247 5.01465C17.3761 5.01465 16.6676 5.72321 16.6676 6.59413V8.33437C16.0548 8.55171 15.6146 9.13692 15.6146 9.82329C15.6146 10.2275 15.7674 10.5966 16.018 10.8763C15.7674 11.156 15.6146 11.525 15.6146 11.9293C15.6146 12.1138 15.6467 12.2909 15.7051 12.4557H14.4914V11.9293C14.4914 10.658 13.5855 9.59438 12.3854 9.34977V8.77031C12.3854 7.31876 11.2045 6.13784 9.75295 6.13784H7.64697C6.19543 6.13784 5.0145 7.31876 5.0145 8.77031V20.3531C5.0145 21.8047 6.19543 22.9856 7.64697 22.9856H9.75295C11.2045 22.9856 12.3854 21.8047 12.3854 20.3531V19.7737C13.5855 19.5291 14.4914 18.4655 14.4914 17.1942V16.6677H21.406C22.2769 16.6677 22.9855 15.9591 22.9855 15.0882V14.0352C22.9855 13.1643 22.2769 12.4557 21.406 12.4557ZM11.3324 8.97139L9.5175 9.87886C9.25741 10.0089 9.15201 10.3251 9.28205 10.5852C9.41209 10.8454 9.72838 10.9507 9.98839 10.8207L11.3324 10.1487V12.1303L9.5175 13.0378C9.25741 13.1679 9.15201 13.4841 9.28205 13.7442C9.41209 14.0043 9.72838 14.1096 9.98839 13.9796L11.3324 13.3076V15.2893L9.5175 16.1967C9.25741 16.3268 9.15201 16.643 9.28205 16.9031C9.41206 17.1632 9.72827 17.2686 9.98839 17.1386L11.3324 16.4666V18.4483L9.5175 19.3557C9.25741 19.4858 9.15201 19.802 9.28205 20.0621C9.41206 20.3222 9.72827 20.4276 9.98839 20.2976L11.3324 19.6255V20.3531C11.3324 21.2241 10.6239 21.9326 9.75295 21.9326H7.64697C6.77604 21.9326 6.06749 21.2241 6.06749 20.3531V19.6255L7.41152 20.2976C7.67161 20.4276 7.98786 20.3222 8.11787 20.0621C8.24791 19.802 8.14251 19.4858 7.88242 19.3557L6.06749 18.4482V16.4665L7.41152 17.1386C7.67161 17.2686 7.98786 17.1632 8.11787 16.9031C8.24791 16.643 8.14251 16.3268 7.88242 16.1967L6.06749 15.2893V13.3076L7.41152 13.9796C7.67161 14.1096 7.98786 14.0042 8.11787 13.7442C8.24791 13.4841 8.14251 13.1678 7.88242 13.0378L6.06749 12.1303V10.1487L7.41152 10.8207C7.67157 10.9507 7.98786 10.8453 8.11787 10.5852C8.24791 10.3251 8.14251 10.0089 7.88242 9.87886L6.06749 8.97139V8.77031C6.06749 7.89938 6.77604 7.19083 7.64697 7.19083H9.75295C10.6239 7.19083 11.3324 7.89938 11.3324 8.77031V8.97139ZM13.4384 17.1942C13.4384 17.8805 12.9982 18.4657 12.3854 18.6831V10.4403C12.9982 10.6577 13.4384 11.2429 13.4384 11.9293V17.1942ZM17.7206 6.59413C17.7206 6.30382 17.9567 6.06764 18.247 6.06764C18.5374 6.06764 18.7735 6.30382 18.7735 6.59413V8.24381H17.7206V6.59413ZM17.1941 9.2968H19.3C19.5903 9.2968 19.8265 9.53299 19.8265 9.82329C19.8265 10.1136 19.5903 10.3498 19.3 10.3498H17.1941C16.9038 10.3498 16.6676 10.1136 16.6676 9.82329C16.6676 9.53299 16.9038 9.2968 17.1941 9.2968ZM17.1941 11.4028H19.3C19.5903 11.4028 19.8265 11.639 19.8265 11.9293C19.8265 12.2195 19.5903 12.4557 19.3 12.4557H17.1941C16.9038 12.4557 16.6676 12.2195 16.6676 11.9293C16.6676 11.639 16.9038 11.4028 17.1941 11.4028ZM21.9325 15.0882C21.9325 15.3785 21.6963 15.6147 21.406 15.6147H14.4914V13.5087C14.8441 13.5087 21.0514 13.5087 21.406 13.5087C21.6963 13.5087 21.9325 13.7449 21.9325 14.0352V15.0882Z" fill="#00343F"/>
</svg>
