<svg width="24" height="24" viewBox="0 0 24 24" fill="none" xmlns="http://www.w3.org/2000/svg">
<path fill-rule="evenodd" clip-rule="evenodd" d="M4.65545 10.6959L4.65537 10.4217C4.65521 10.0561 4.65505 9.69048 4.65745 9.32488C4.66445 8.45088 5.27245 7.83588 6.13645 7.82988C6.76945 7.82588 7.40245 7.82388 8.03445 7.82388C8.63145 7.82388 9.22745 7.82588 9.82445 7.82988C10.6385 7.83488 11.2595 8.44788 11.2685 9.25588C11.2815 10.5599 11.2825 11.9089 11.2685 13.3779C11.2605 14.1719 10.6255 14.7969 9.82145 14.7999C8.58645 14.8069 7.34845 14.8079 6.11245 14.7999C5.29145 14.7969 4.66545 14.1699 4.65745 13.3439C4.65345 12.8809 4.65445 12.4169 4.65545 11.9529L4.65645 11.3139L4.65545 10.6959ZM11.2465 6.91688C10.8165 6.65288 10.3455 6.51788 9.84645 6.51488L9.28245 6.51088C8.24945 6.50488 7.18245 6.49888 6.13245 6.51688C4.53145 6.54288 3.36345 7.72888 3.35445 9.33588C3.34645 10.8059 3.34145 12.1329 3.35945 13.4849C3.37745 14.8379 4.49445 16.0259 5.79945 16.0799C6.54045 16.1119 7.27945 16.1279 8.00945 16.1279C8.70845 16.1279 9.40045 16.1129 10.0805 16.0839C11.4525 16.0259 12.5705 14.8149 12.5725 13.3839C12.5795 10.4199 12.5805 7.45488 12.5725 4.48988C12.5685 3.02088 11.8125 1.93088 10.4455 1.41888C9.20145 0.953879 7.83245 0.876879 6.25945 1.18588C5.42545 1.34888 4.76845 1.68088 4.25045 2.19988C3.33645 3.11588 3.30845 4.29188 3.36645 5.09688C3.39045 5.43288 3.73745 5.65188 4.03545 5.63288C4.35745 5.61488 4.62145 5.36588 4.65045 5.05288C4.65845 4.95488 4.65745 4.85688 4.65645 4.75888L4.65545 4.64588C4.65745 3.55088 5.14345 2.88588 6.18445 2.55388C7.03745 2.28088 7.91845 2.29688 8.59045 2.34288C9.18845 2.38288 9.66245 2.49088 10.0835 2.68288C10.8165 3.01888 11.2045 3.54688 11.2365 4.25188C11.2661 4.91688 11.2596 5.57012 11.2527 6.26104L11.2525 6.28288L11.2465 6.91688ZM19.6185 13.557V13.558C19.6154 14.376 18.9495 15.041 18.1325 15.041C17.3135 15.04 16.6445 14.372 16.6425 13.553C16.6425 13.157 16.7975 12.783 17.0795 12.501C17.3625 12.22 17.7375 12.066 18.1364 12.066H18.1455C18.9605 12.069 19.6215 12.739 19.6185 13.557ZM19.3545 11.046C18.2835 10.524 17.2365 10.656 16.3275 11.428C15.4335 12.188 15.1314 13.193 15.4555 14.334C15.7304 15.301 16.3875 15.948 17.4085 16.253C17.4264 16.259 17.4555 16.278 17.4725 16.293L17.4745 16.495C17.4804 16.83 17.4855 17.175 17.4435 17.503C17.2225 19.226 15.9625 20.552 14.2315 20.881C12.5914 21.192 10.9425 20.403 10.1125 18.92C9.94745 18.624 9.71245 18.485 9.37345 18.485H9.36145C8.76145 18.491 8.16445 18.49 7.56645 18.489L6.08145 18.488C5.28845 18.487 4.49445 18.487 3.70145 18.49C3.44645 18.491 3.22045 18.609 3.09545 18.805C2.97945 18.991 2.96845 19.214 3.06645 19.421C3.22745 19.76 3.54545 19.8 3.77145 19.8C4.73845 19.798 5.70645 19.798 6.67345 19.798L8.99545 19.797C9.08845 19.797 9.11845 19.811 9.16245 19.874C10.2575 21.444 11.7155 22.236 13.5035 22.236C13.7645 22.236 14.0325 22.219 14.3085 22.185C16.4835 21.918 18.3725 20.082 18.7005 17.914C18.7605 17.522 18.7785 17.134 18.7965 16.724L18.7978 16.6939C18.8044 16.5515 18.811 16.4067 18.8195 16.261L18.8535 16.251C20.0564 15.923 20.8874 14.884 20.9205 13.666C20.9535 12.468 20.4125 11.562 19.3545 11.046ZM7.96215 12.897H7.96015C7.57715 12.894 7.30815 12.601 7.30515 12.184C7.30215 11.645 7.30215 11.105 7.30515 10.566C7.30815 10.155 7.58415 9.85798 7.96215 9.85798H7.96515C8.34015 9.85898 8.60815 10.142 8.61815 10.546C8.62215 10.74 8.62115 10.935 8.62015 11.128L8.61915 11.379L8.62015 11.628C8.62115 11.815 8.62215 12.002 8.61815 12.19C8.61015 12.613 8.34615 12.897 7.96215 12.897Z" fill="#184460"/>
</svg>
