<svg width="28" height="28" viewBox="0 0 28 28" fill="none" xmlns="http://www.w3.org/2000/svg">
<path fill-rule="evenodd" clip-rule="evenodd" d="M12.6131 4.4541C13.3814 4.4541 14.0316 4.89424 14.4577 5.46812L14.4332 5.46533L14.5523 5.63625C14.6713 5.80673 14.7695 5.98808 14.8463 6.17733C14.9434 6.4378 14.9958 6.70046 14.9958 6.94425V21.3077C14.9958 21.3762 14.9912 21.4456 14.9821 21.5157C14.9053 21.8649 14.7604 22.1958 14.5523 22.4934L14.4332 22.6643L14.4646 22.6609C14.0542 23.1683 13.4419 23.5459 12.7567 23.5459H7.12596C7.0113 23.5459 6.89506 23.5279 6.77907 23.4945C6.44924 23.3698 6.14924 23.1841 5.89338 22.9511C5.6766 22.7428 5.4829 22.4962 5.33155 22.2368C5.1171 21.8466 4.99545 21.3993 4.99545 20.9243V7.20542C4.99545 5.68807 6.22915 4.45437 7.7465 4.45437L12.6131 4.4541ZM15.4193 4.71916C17.1003 5.07322 18.6147 5.80095 19.9208 7.01268C21.8809 8.83095 23.0046 11.4011 23.0046 14.0648C23.0046 18.7326 19.6827 22.5993 15.2672 23.4807C15.5311 23.1664 15.7256 22.7912 15.8266 22.3793C17.7449 21.8201 19.4336 20.5893 20.5736 18.8896L20.6281 18.8087L19.6717 18.2568L20.149 17.4304L21.1063 17.9823L21.15 17.895C21.7382 16.704 22.0491 15.3794 22.0491 14.0648C22.0491 12.762 21.7427 11.4475 21.1636 10.2638L21.1218 10.1765L20.149 10.7374L19.6717 9.91101L20.6454 9.34916L20.5917 9.26825C19.4566 7.56284 17.7728 6.32615 15.8563 5.75831C15.7875 5.39607 15.6469 5.05952 15.45 4.76361L15.4193 4.71916ZM14.0905 18.4069L11.6749 20.016L11.6349 20.0433V22.7207H12.295C13.285 22.7207 14.0905 21.9152 14.0905 20.9243V18.4069ZM10.6803 5.40896H9.36112V22.7207H10.6803V5.40896ZM5.95004 18.4069V20.9243C5.95004 21.9152 6.75645 22.7207 7.7465 22.7207H8.40653V20.0433L5.95004 18.4069ZM15.9055 8.42202C16.7632 8.79832 17.5238 9.36483 18.1362 10.0892C19.0771 11.2011 19.5944 12.612 19.5944 14.0648C19.5944 16.5422 18.1137 18.7705 15.9054 19.7459L15.9056 18.7115C17.576 17.8057 18.6526 16.0387 18.6526 14.1003C18.6526 12.1611 17.576 10.3939 15.9056 9.4882L15.9055 8.42202ZM14.0905 13.8203L11.6749 15.4303L11.6349 15.4576V18.8951L14.0505 17.285L14.0905 17.2577V13.8203ZM5.95004 13.8203V17.2577L8.40653 18.8951V15.4576L5.95004 13.8203ZM15.9061 11.0429C16.8404 11.7581 17.4107 12.8752 17.4107 14.0803C17.4107 15.2854 16.8404 16.4025 15.9061 17.1177V15.9526C16.33 15.4284 16.5688 14.7707 16.5688 14.0803C16.5688 13.3901 16.3302 12.7326 15.9066 12.2086L15.9061 11.0429ZM14.0905 9.27279L11.6749 10.8829L11.6349 10.9092V14.3103L14.0505 12.6993L14.0905 12.6729V9.27279ZM5.95004 9.27279V12.6729L8.40653 14.3103V10.9092L5.95004 9.27279ZM12.295 5.40896H11.6349V9.76191L14.0505 8.15183L14.0905 8.12455V7.20542C14.0905 6.21537 13.285 5.40896 12.295 5.40896ZM8.40653 5.40896H7.7465C6.75645 5.40896 5.95004 6.21537 5.95004 7.20542V8.12455L8.40653 9.76191V5.40896Z" fill="#00343F"/>
</svg>
