<svg width="28" height="28" viewBox="0 0 28 28" fill="none" xmlns="http://www.w3.org/2000/svg">
<path fill-rule="evenodd" clip-rule="evenodd" d="M23.9714 18.5624L21.8348 8.94723C21.655 8.13794 20.9504 7.57275 20.1214 7.57275H7.87873C7.0497 7.57275 6.3451 8.13794 6.16532 8.94723L4.02858 18.5624C3.95977 18.8719 4.15016 19.18 4.4578 19.2569C7.48188 20.0129 10.6917 20.4274 14 20.4274C17.2221 20.4274 20.4368 20.0333 23.5422 19.2569C23.8499 19.18 24.0402 18.8719 23.9714 18.5624ZM7.30753 9.20108C7.36752 8.93132 7.60237 8.74292 7.87873 8.74292H20.1213C20.3976 8.74292 20.6325 8.93132 20.6925 9.20108L20.8507 9.9131H7.14932L7.30753 9.20108ZM19.8037 18.8152L19.3047 18.1915V15.1788C19.3047 14.8557 19.0428 14.5937 18.7197 14.5937C18.3965 14.5937 18.1346 14.8557 18.1346 15.1788V16.7288L15.666 13.6431C15.4642 13.3908 15.096 13.3499 14.8437 13.5518C14.5914 13.7536 14.5504 14.1218 14.7523 14.3742L18.4516 18.9983C16.6587 19.2076 14.8522 19.2897 13.0485 19.245L12.2058 18.1916V15.1788C12.2058 14.8557 11.9438 14.5937 11.6207 14.5937C11.2976 14.5937 11.0356 14.8557 11.0356 15.1788V16.7289L8.5671 13.6432C8.36525 13.3909 7.99711 13.35 7.74474 13.5518C7.49241 13.7537 7.4515 14.1219 7.65339 14.3742L11.4938 19.1748C9.40865 19.0385 7.33382 18.7328 5.29549 18.2558L6.88934 11.0833H21.1108L22.7046 18.2558C21.7449 18.4803 20.7769 18.6662 19.8037 18.8152Z" fill="#00343F"/>
</svg>
